G04 Layer_Physical_Order=2*
G04 Layer_Color=11436288*
%FSLAX24Y24*%
%MOIN*%
G70*
G01*
G75*
%ADD18C,0.0100*%
%ADD19C,0.0600*%
%ADD20C,0.0591*%
%ADD21P,0.0639X8X202.5*%
%ADD22C,0.0500*%
G36*
X35385Y23622D02*
X29504Y13435D01*
X17741D01*
X11863Y23615D01*
X11863Y23629D01*
X17741Y33809D01*
X29504Y33817D01*
X35385Y23622D01*
D02*
G37*
%LPC*%
G36*
X13780Y24374D02*
X13633Y24359D01*
X13492Y24316D01*
X13362Y24247D01*
X13248Y24154D01*
X13155Y24040D01*
X13085Y23910D01*
X13042Y23769D01*
X13028Y23622D01*
X13042Y23475D01*
X13085Y23334D01*
X13155Y23204D01*
X13248Y23091D01*
X13362Y22997D01*
X13492Y22928D01*
X13633Y22885D01*
X13780Y22870D01*
X13926Y22885D01*
X14067Y22928D01*
X14197Y22997D01*
X14311Y23091D01*
X14404Y23204D01*
X14474Y23334D01*
X14517Y23475D01*
X14531Y23622D01*
X14517Y23769D01*
X14474Y23910D01*
X14404Y24040D01*
X14311Y24154D01*
X14197Y24247D01*
X14067Y24316D01*
X13926Y24359D01*
X13780Y24374D01*
D02*
G37*
G36*
X30225Y23173D02*
X29320Y23016D01*
X29306Y23007D01*
X29291Y23003D01*
X28740Y22570D01*
X28734Y22559D01*
X28724Y22551D01*
X27779Y20898D01*
X27778Y20890D01*
X27773Y20883D01*
X27655Y20450D01*
X27656Y20441D01*
X27653Y20433D01*
Y19921D01*
X27657Y19912D01*
X27656Y19901D01*
X27813Y19429D01*
X27820Y19421D01*
X27823Y19410D01*
X28177Y18938D01*
X28190Y18930D01*
X28200Y18919D01*
X28751Y18644D01*
X28761Y18643D01*
X28770Y18638D01*
X29282Y18559D01*
X29293Y18562D01*
X29305Y18560D01*
X29856Y18678D01*
X29865Y18684D01*
X29876Y18686D01*
X30388Y19001D01*
X30397Y19013D01*
X30409Y19023D01*
X31551Y20952D01*
X31553Y20963D01*
X31559Y20972D01*
X31677Y21602D01*
X31674Y21616D01*
X31676Y21630D01*
X31519Y22260D01*
X31510Y22272D01*
X31505Y22286D01*
X30993Y22877D01*
X30979Y22883D01*
X30968Y22894D01*
X30259Y23170D01*
X30242Y23169D01*
X30225Y23173D01*
D02*
G37*
G36*
X17215Y23173D02*
X17200Y23170D01*
X17186Y23171D01*
X16556Y22974D01*
X16546Y22966D01*
X16534Y22962D01*
X16061Y22569D01*
X16055Y22557D01*
X16045Y22548D01*
X15691Y21840D01*
X15690Y21823D01*
X15684Y21807D01*
X15724Y21099D01*
X15730Y21085D01*
X15732Y21070D01*
X16913Y19062D01*
X16926Y19053D01*
X16935Y19040D01*
X17644Y18607D01*
X17661Y18604D01*
X17677Y18598D01*
X18425D01*
X18437Y18602D01*
X18449Y18602D01*
X19039Y18838D01*
X19050Y18848D01*
X19063Y18854D01*
X19496Y19327D01*
X19501Y19340D01*
X19510Y19352D01*
X19746Y20139D01*
X19745Y20156D01*
X19747Y20172D01*
X19590Y20841D01*
X19584Y20850D01*
X19582Y20860D01*
X18440Y22711D01*
X18430Y22718D01*
X18423Y22729D01*
X17990Y23044D01*
X17976Y23047D01*
X17963Y23055D01*
X17215Y23173D01*
D02*
G37*
G36*
X33465Y24374D02*
X33318Y24359D01*
X33177Y24316D01*
X33047Y24247D01*
X32933Y24154D01*
X32840Y24040D01*
X32770Y23910D01*
X32727Y23769D01*
X32713Y23622D01*
X32727Y23475D01*
X32770Y23334D01*
X32840Y23204D01*
X32933Y23091D01*
X33047Y22997D01*
X33177Y22928D01*
X33318Y22885D01*
X33465Y22870D01*
X33611Y22885D01*
X33752Y22928D01*
X33882Y22997D01*
X33996Y23091D01*
X34090Y23204D01*
X34159Y23334D01*
X34202Y23475D01*
X34216Y23622D01*
X34202Y23769D01*
X34159Y23910D01*
X34090Y24040D01*
X33996Y24154D01*
X33882Y24247D01*
X33752Y24316D01*
X33611Y24359D01*
X33465Y24374D01*
D02*
G37*
G36*
X28543Y15850D02*
X28397Y15835D01*
X28256Y15792D01*
X28126Y15723D01*
X28012Y15630D01*
X27918Y15516D01*
X27849Y15386D01*
X27806Y15245D01*
X27792Y15098D01*
X27806Y14951D01*
X27849Y14810D01*
X27918Y14680D01*
X28012Y14567D01*
X28126Y14473D01*
X28256Y14404D01*
X28397Y14361D01*
X28543Y14346D01*
X28690Y14361D01*
X28831Y14404D01*
X28961Y14473D01*
X29075Y14567D01*
X29168Y14680D01*
X29238Y14810D01*
X29281Y14951D01*
X29295Y15098D01*
X29281Y15245D01*
X29238Y15386D01*
X29168Y15516D01*
X29075Y15630D01*
X28961Y15723D01*
X28831Y15792D01*
X28690Y15835D01*
X28543Y15850D01*
D02*
G37*
G36*
X18701D02*
X18554Y15835D01*
X18413Y15792D01*
X18283Y15723D01*
X18169Y15630D01*
X18076Y15516D01*
X18006Y15386D01*
X17964Y15245D01*
X17949Y15098D01*
X17964Y14951D01*
X18006Y14810D01*
X18076Y14680D01*
X18169Y14567D01*
X18283Y14473D01*
X18413Y14404D01*
X18554Y14361D01*
X18701Y14346D01*
X18847Y14361D01*
X18988Y14404D01*
X19118Y14473D01*
X19232Y14567D01*
X19326Y14680D01*
X19395Y14810D01*
X19438Y14951D01*
X19452Y15098D01*
X19438Y15245D01*
X19395Y15386D01*
X19326Y15516D01*
X19232Y15630D01*
X19118Y15723D01*
X18988Y15792D01*
X18847Y15835D01*
X18701Y15850D01*
D02*
G37*
G36*
X20900Y21522D02*
X20819Y21511D01*
X20744Y21480D01*
X20680Y21430D01*
X20630Y21366D01*
X20599Y21291D01*
X20588Y21210D01*
X20599Y21129D01*
X20630Y21054D01*
X20680Y20990D01*
X20744Y20940D01*
X20789Y20922D01*
Y16295D01*
X20789Y16295D01*
X20797Y16252D01*
X20821Y16216D01*
X21296Y15741D01*
X21296Y15741D01*
X21332Y15717D01*
X21375Y15709D01*
X22513D01*
X22513Y15709D01*
X22555Y15717D01*
X22592Y15741D01*
X23068Y16218D01*
X23136Y16190D01*
X23228Y16178D01*
X23321Y16190D01*
X23407Y16226D01*
X23481Y16283D01*
X23538Y16357D01*
X23574Y16443D01*
X23586Y16535D01*
X23574Y16628D01*
X23538Y16714D01*
X23488Y16779D01*
X23503Y16829D01*
X23741D01*
X23756Y16779D01*
X23706Y16714D01*
X23671Y16628D01*
X23658Y16535D01*
X23671Y16443D01*
X23706Y16357D01*
X23763Y16283D01*
X23837Y16226D01*
X23923Y16190D01*
X24016Y16178D01*
X24108Y16190D01*
X24176Y16218D01*
X24373Y16021D01*
X24409Y15997D01*
X24451Y15989D01*
X27262D01*
X27280Y15944D01*
X27330Y15880D01*
X27394Y15830D01*
X27469Y15799D01*
X27550Y15788D01*
X27631Y15799D01*
X27706Y15830D01*
X27770Y15880D01*
X27820Y15944D01*
X27851Y16019D01*
X27862Y16100D01*
X27851Y16181D01*
X27820Y16256D01*
X27770Y16320D01*
X27706Y16370D01*
X27631Y16401D01*
X27550Y16412D01*
X27469Y16401D01*
X27394Y16370D01*
X27330Y16320D01*
X27280Y16256D01*
X27262Y16211D01*
X25045D01*
X25028Y16261D01*
X25056Y16283D01*
X25113Y16357D01*
X25148Y16443D01*
X25161Y16535D01*
X25148Y16628D01*
X25113Y16714D01*
X25063Y16779D01*
X25078Y16829D01*
X26732D01*
X26750Y16784D01*
X26800Y16720D01*
X26864Y16670D01*
X26939Y16639D01*
X27020Y16628D01*
X27101Y16639D01*
X27176Y16670D01*
X27240Y16720D01*
X27290Y16784D01*
X27321Y16859D01*
X27332Y16940D01*
X27321Y17021D01*
X27290Y17096D01*
X27240Y17160D01*
X27176Y17210D01*
X27101Y17241D01*
X27020Y17252D01*
X26939Y17241D01*
X26864Y17210D01*
X26800Y17160D01*
X26750Y17096D01*
X26732Y17051D01*
X23179D01*
X23160Y17097D01*
X23371Y17309D01*
X25036D01*
X25055Y17264D01*
X25104Y17199D01*
X25169Y17150D01*
X25244Y17119D01*
X25325Y17108D01*
X25405Y17119D01*
X25481Y17150D01*
X25545Y17199D01*
X25595Y17264D01*
X25626Y17339D01*
X25637Y17420D01*
X25626Y17500D01*
X25595Y17576D01*
X25545Y17640D01*
X25481Y17690D01*
X25405Y17721D01*
X25325Y17732D01*
X25244Y17721D01*
X25169Y17690D01*
X25104Y17640D01*
X25055Y17576D01*
X25036Y17531D01*
X23325D01*
X23325Y17531D01*
X23283Y17523D01*
X23247Y17498D01*
X23247Y17498D01*
X22767Y17019D01*
X22767Y17019D01*
X22601Y16853D01*
X22533Y16881D01*
X22441Y16893D01*
X22348Y16881D01*
X22262Y16845D01*
X22188Y16788D01*
X22131Y16714D01*
X22096Y16628D01*
X22084Y16535D01*
X22096Y16443D01*
X22131Y16357D01*
X22188Y16283D01*
X22262Y16226D01*
X22348Y16190D01*
X22441Y16178D01*
X22533Y16190D01*
X22620Y16226D01*
X22694Y16283D01*
X22750Y16357D01*
X22786Y16443D01*
X22798Y16535D01*
X22786Y16628D01*
X22758Y16695D01*
X22892Y16829D01*
X22954D01*
X22968Y16779D01*
X22919Y16714D01*
X22883Y16628D01*
X22871Y16535D01*
X22883Y16443D01*
X22911Y16375D01*
X22467Y15931D01*
X21421D01*
X21011Y16341D01*
Y20922D01*
X21056Y20940D01*
X21120Y20990D01*
X21170Y21054D01*
X21201Y21129D01*
X21212Y21210D01*
X21201Y21291D01*
X21170Y21366D01*
X21120Y21430D01*
X21056Y21480D01*
X20981Y21511D01*
X20900Y21522D01*
D02*
G37*
G36*
X21831Y16890D02*
X21476D01*
X21299Y16713D01*
Y16358D01*
X21476Y16181D01*
X21831D01*
X22008Y16358D01*
Y16713D01*
X21831Y16890D01*
D02*
G37*
G36*
X18701Y32897D02*
X18554Y32883D01*
X18413Y32840D01*
X18283Y32771D01*
X18169Y32677D01*
X18076Y32563D01*
X18006Y32433D01*
X17964Y32292D01*
X17949Y32146D01*
X17964Y31999D01*
X18006Y31858D01*
X18076Y31728D01*
X18169Y31614D01*
X18283Y31521D01*
X18413Y31451D01*
X18554Y31408D01*
X18701Y31394D01*
X18847Y31408D01*
X18988Y31451D01*
X19118Y31521D01*
X19232Y31614D01*
X19326Y31728D01*
X19395Y31858D01*
X19438Y31999D01*
X19452Y32146D01*
X19438Y32292D01*
X19395Y32433D01*
X19326Y32563D01*
X19232Y32677D01*
X19118Y32771D01*
X18988Y32840D01*
X18847Y32883D01*
X18701Y32897D01*
D02*
G37*
G36*
X24606Y31166D02*
X22638D01*
X22628Y31162D01*
X22618Y31163D01*
X22027Y30966D01*
X22017Y30958D01*
X22005Y30953D01*
X21650Y30638D01*
X21646Y30629D01*
X21638Y30623D01*
X21284Y30033D01*
X21281Y30016D01*
X21275Y30000D01*
Y29134D01*
X21280Y29122D01*
X21280Y29109D01*
X21516Y28558D01*
X21526Y28548D01*
X21532Y28536D01*
X22004Y28102D01*
X22017Y28098D01*
X22027Y28089D01*
X22618Y27892D01*
X22628Y27893D01*
X22638Y27889D01*
X24567D01*
X24574Y27892D01*
X24581Y27890D01*
X24935Y27969D01*
X24946Y27977D01*
X24959Y27980D01*
X25667Y28491D01*
X25676Y28505D01*
X25688Y28516D01*
X26003Y29185D01*
X26003Y29200D01*
X26009Y29213D01*
Y29921D01*
X26003Y29936D01*
X26001Y29953D01*
X25646Y30583D01*
X25633Y30593D01*
X25622Y30607D01*
X24638Y31158D01*
X24621Y31160D01*
X24606Y31166D01*
D02*
G37*
G36*
X25819Y33212D02*
X25739Y33201D01*
X25664Y33170D01*
X25599Y33120D01*
X25549Y33056D01*
X25531Y33011D01*
X20098D01*
X20080Y33056D01*
X20030Y33120D01*
X19966Y33170D01*
X19891Y33201D01*
X19810Y33212D01*
X19729Y33201D01*
X19654Y33170D01*
X19590Y33120D01*
X19540Y33056D01*
X19509Y32981D01*
X19498Y32900D01*
X19509Y32819D01*
X19540Y32744D01*
X19590Y32680D01*
X19654Y32630D01*
X19729Y32599D01*
X19810Y32588D01*
X19891Y32599D01*
X19966Y32630D01*
X20030Y32680D01*
X20080Y32744D01*
X20098Y32789D01*
X25531D01*
X25549Y32744D01*
X25599Y32680D01*
X25664Y32630D01*
X25739Y32599D01*
X25819Y32588D01*
X25900Y32599D01*
X25975Y32630D01*
X26040Y32680D01*
X26089Y32744D01*
X26120Y32819D01*
X26131Y32900D01*
X26120Y32981D01*
X26089Y33056D01*
X26040Y33120D01*
X25975Y33170D01*
X25900Y33201D01*
X25819Y33212D01*
D02*
G37*
G36*
X28543Y32897D02*
X28397Y32883D01*
X28256Y32840D01*
X28126Y32771D01*
X28012Y32677D01*
X27918Y32563D01*
X27849Y32433D01*
X27806Y32292D01*
X27792Y32146D01*
X27806Y31999D01*
X27849Y31858D01*
X27918Y31728D01*
X28012Y31614D01*
X28126Y31521D01*
X28256Y31451D01*
X28397Y31408D01*
X28543Y31394D01*
X28690Y31408D01*
X28831Y31451D01*
X28961Y31521D01*
X29075Y31614D01*
X29168Y31728D01*
X29238Y31858D01*
X29281Y31999D01*
X29295Y32146D01*
X29281Y32292D01*
X29238Y32433D01*
X29168Y32563D01*
X29075Y32677D01*
X28961Y32771D01*
X28831Y32840D01*
X28690Y32883D01*
X28543Y32897D01*
D02*
G37*
G36*
X29103Y30260D02*
X29094Y30258D01*
X29085Y30260D01*
X28573Y30181D01*
X28563Y30175D01*
X28550Y30173D01*
X28078Y29898D01*
X28071Y29888D01*
X28061Y29883D01*
X27706Y29450D01*
X27703Y29439D01*
X27696Y29431D01*
X27499Y28880D01*
X27500Y28865D01*
X27495Y28852D01*
X27574Y28104D01*
X27581Y28092D01*
X27582Y28079D01*
X28291Y26819D01*
X28292Y26818D01*
X28293Y26816D01*
X28726Y26146D01*
X28736Y26139D01*
X28743Y26129D01*
X29255Y25774D01*
X29274Y25770D01*
X29291Y25763D01*
X30591D01*
X30610Y25771D01*
X30630Y25777D01*
X31221Y26249D01*
X31228Y26262D01*
X31239Y26272D01*
X31475Y26784D01*
X31476Y26793D01*
X31480Y26801D01*
X31559Y27273D01*
X31556Y27284D01*
X31559Y27296D01*
X31441Y27887D01*
X31434Y27896D01*
X31433Y27907D01*
X30330Y29718D01*
X30324Y29723D01*
X30321Y29730D01*
X30045Y30006D01*
X30035Y30010D01*
X30029Y30018D01*
X29714Y30175D01*
X29703Y30176D01*
X29693Y30181D01*
X29103Y30260D01*
D02*
G37*
G36*
X23628Y25694D02*
X23621Y25691D01*
X23614Y25693D01*
X22984Y25615D01*
X22972Y25608D01*
X22959Y25606D01*
X22250Y25173D01*
X22246Y25166D01*
X22238Y25163D01*
X21963Y24888D01*
X21959Y24879D01*
X21952Y24874D01*
X21755Y24519D01*
X21755Y24515D01*
X21752Y24512D01*
X21594Y24118D01*
X21594Y24110D01*
X21590Y24102D01*
X21551Y23787D01*
X21552Y23783D01*
X21550Y23780D01*
Y23346D01*
X21554Y23338D01*
X21553Y23330D01*
X21671Y22897D01*
X21675Y22890D01*
X21676Y22883D01*
X21912Y22450D01*
X21918Y22445D01*
X21920Y22438D01*
X22196Y22123D01*
X22200Y22121D01*
X22202Y22117D01*
X22478Y21881D01*
X22487Y21878D01*
X22493Y21871D01*
X23005Y21635D01*
X23011Y21635D01*
X23016Y21631D01*
X23331Y21552D01*
X23339Y21553D01*
X23346Y21550D01*
X23622D01*
X23624Y21551D01*
X23626Y21550D01*
X24217Y21590D01*
X24228Y21595D01*
X24241Y21596D01*
X24635Y21793D01*
X24639Y21799D01*
X24646Y21800D01*
X25040Y22115D01*
X25043Y22121D01*
X25049Y22124D01*
X25443Y22597D01*
X25446Y22608D01*
X25454Y22616D01*
X25651Y23167D01*
X25650Y23179D01*
X25654Y23189D01*
Y23976D01*
X25651Y23984D01*
X25652Y23993D01*
X25534Y24426D01*
X25529Y24432D01*
X25529Y24440D01*
X25253Y24952D01*
X25244Y24959D01*
X25239Y24969D01*
X24924Y25245D01*
X24919Y25247D01*
X24916Y25251D01*
X24601Y25448D01*
X24594Y25449D01*
X24588Y25454D01*
X24037Y25651D01*
X24029Y25650D01*
X24022Y25654D01*
X23628Y25694D01*
D02*
G37*
G36*
X18260Y30260D02*
X17591Y30182D01*
X17580Y30176D01*
X17568Y30174D01*
X17056Y29899D01*
X17050Y29891D01*
X17041Y29888D01*
X16805Y29652D01*
X16802Y29643D01*
X16795Y29638D01*
X15771Y27827D01*
X15770Y27816D01*
X15764Y27807D01*
X15685Y27374D01*
X15687Y27365D01*
X15684Y27356D01*
X15724Y26962D01*
X15727Y26957D01*
X15726Y26950D01*
X15844Y26556D01*
X15851Y26548D01*
X15854Y26537D01*
X16169Y26104D01*
X16177Y26099D01*
X16182Y26091D01*
X16497Y25854D01*
X16506Y25852D01*
X16514Y25845D01*
X16947Y25688D01*
X16955Y25688D01*
X16962Y25684D01*
X17356Y25645D01*
X17364Y25648D01*
X17373Y25646D01*
X17845Y25724D01*
X17854Y25730D01*
X17865Y25731D01*
X18298Y25968D01*
X18309Y25981D01*
X18323Y25992D01*
X19741Y28472D01*
X19743Y28493D01*
X19748Y28513D01*
X19670Y29064D01*
X19665Y29072D01*
X19664Y29082D01*
X19428Y29594D01*
X19418Y29603D01*
X19412Y29615D01*
X18860Y30088D01*
X18847Y30092D01*
X18836Y30101D01*
X18285Y30258D01*
X18273Y30257D01*
X18260Y30260D01*
D02*
G37*
G36*
X24774Y32152D02*
X24693Y32141D01*
X24618Y32110D01*
X24554Y32060D01*
X24504Y31996D01*
X24473Y31921D01*
X24462Y31840D01*
X24473Y31759D01*
X24504Y31684D01*
X24554Y31620D01*
X24618Y31570D01*
X24693Y31539D01*
X24774Y31528D01*
X24855Y31539D01*
X24899Y31557D01*
X26457Y30000D01*
X26457Y30000D01*
X26493Y29976D01*
X26535Y29968D01*
X26535Y29968D01*
X26759D01*
X26777Y29923D01*
X26827Y29858D01*
X26891Y29809D01*
X26967Y29778D01*
X27047Y29767D01*
X27128Y29778D01*
X27203Y29809D01*
X27268Y29858D01*
X27317Y29923D01*
X27348Y29998D01*
X27359Y30079D01*
X27348Y30159D01*
X27317Y30235D01*
X27268Y30299D01*
X27203Y30349D01*
X27128Y30380D01*
X27047Y30390D01*
X26967Y30380D01*
X26891Y30349D01*
X26827Y30299D01*
X26777Y30235D01*
X26759Y30190D01*
X26581D01*
X25057Y31715D01*
X25075Y31759D01*
X25086Y31840D01*
X25075Y31921D01*
X25044Y31996D01*
X24995Y32060D01*
X24930Y32110D01*
X24855Y32141D01*
X24774Y32152D01*
D02*
G37*
G36*
X21470Y27542D02*
X21389Y27531D01*
X21314Y27500D01*
X21250Y27450D01*
X21200Y27386D01*
X21169Y27311D01*
X21158Y27230D01*
X21169Y27149D01*
X21187Y27105D01*
X19455Y25373D01*
X19411Y25391D01*
X19330Y25402D01*
X19249Y25391D01*
X19174Y25360D01*
X19110Y25310D01*
X19060Y25246D01*
X19029Y25171D01*
X19018Y25090D01*
X19029Y25009D01*
X19060Y24934D01*
X19110Y24870D01*
X19174Y24820D01*
X19249Y24789D01*
X19330Y24778D01*
X19411Y24789D01*
X19486Y24820D01*
X19550Y24870D01*
X19600Y24934D01*
X19631Y25009D01*
X19642Y25090D01*
X19631Y25171D01*
X19613Y25215D01*
X21345Y26947D01*
X21389Y26929D01*
X21470Y26918D01*
X21551Y26929D01*
X21626Y26960D01*
X21690Y27010D01*
X21740Y27074D01*
X21771Y27149D01*
X21782Y27230D01*
X21771Y27311D01*
X21740Y27386D01*
X21690Y27450D01*
X21626Y27500D01*
X21551Y27531D01*
X21470Y27542D01*
D02*
G37*
%LPD*%
D18*
X26535Y30079D02*
X27047D01*
X24774Y31840D02*
X26535Y30079D01*
X22845Y16940D02*
X23325Y17420D01*
X22441Y16535D02*
X22845Y16940D01*
X19810Y32900D02*
X25819D01*
X22513Y15820D02*
X23228Y16535D01*
X21375Y15820D02*
X22513D01*
X20900Y16295D02*
X21375Y15820D01*
X20900Y16295D02*
Y21210D01*
X23325Y17420D02*
X25325D01*
X22845Y16940D02*
X27020D01*
X20280Y32090D02*
X22630D01*
X19500Y31310D02*
X20280Y32090D01*
X18110Y31310D02*
X19500D01*
X22860Y32320D02*
X25370D01*
X22630Y32090D02*
X22860Y32320D01*
X19330Y25090D02*
X21470Y27230D01*
X24451Y16100D02*
X27550D01*
X24016Y16535D02*
X24451Y16100D01*
X25591Y16535D02*
X27250D01*
X27380Y16665D01*
Y18990D01*
X25810Y20560D02*
X27380Y18990D01*
D19*
X28543Y32146D02*
D03*
X33465Y23622D02*
D03*
X18701Y32146D02*
D03*
X13780Y23622D02*
D03*
X28543Y15098D02*
D03*
X18701D02*
D03*
D20*
X25591Y16535D02*
D03*
X24803D02*
D03*
X24016D02*
D03*
X23228D02*
D03*
X22441D02*
D03*
D21*
X21654D02*
D03*
D22*
X27047Y30079D02*
D03*
X24774Y31840D02*
D03*
X19810Y32900D02*
D03*
X25819D02*
D03*
X20900Y21210D02*
D03*
X25325Y17420D02*
D03*
X27020Y16940D02*
D03*
X22630Y32090D02*
D03*
X18110Y31310D02*
D03*
X25370Y32320D02*
D03*
X21470Y27230D02*
D03*
X19330Y25090D02*
D03*
X27550Y16100D02*
D03*
X25810Y20560D02*
D03*
M02*
