G04 Layer_Color=15132400*
%FSLAX24Y24*%
%MOIN*%
G70*
G01*
G75*
%ADD18C,0.0100*%
%ADD23C,0.0095*%
%ADD24C,0.0098*%
%ADD25C,0.0050*%
%ADD26C,0.0079*%
D18*
X24022Y31720D02*
X23922Y31820D01*
X23722D01*
X23622Y31720D01*
Y31320D01*
X23722Y31220D01*
X23922D01*
X24022Y31320D01*
X24222Y31220D02*
X24422D01*
X24322D01*
Y31820D01*
X24222Y31720D01*
X13398Y24849D02*
X13298Y24749D01*
Y24549D01*
X13398Y24449D01*
X13798D01*
X13898Y24549D01*
Y24749D01*
X13798Y24849D01*
X13898Y25449D02*
Y25049D01*
X13498Y25449D01*
X13398D01*
X13298Y25349D01*
Y25149D01*
X13398Y25049D01*
X19920Y26250D02*
Y26650D01*
X19820Y26750D01*
X19620D01*
X19520Y26650D01*
Y26250D01*
X19620Y26150D01*
X19820D01*
X19720Y26350D02*
X19920Y26150D01*
X19820D02*
X19920Y26250D01*
X20120Y26150D02*
X20320D01*
X20220D01*
Y26750D01*
X20120Y26650D01*
X26220Y21530D02*
Y21930D01*
X26120Y22030D01*
X25920D01*
X25820Y21930D01*
Y21530D01*
X25920Y21430D01*
X26120D01*
X26020Y21630D02*
X26220Y21430D01*
X26120D02*
X26220Y21530D01*
X26820Y21430D02*
X26420D01*
X26820Y21830D01*
Y21930D01*
X26720Y22030D01*
X26520D01*
X26420Y21930D01*
X20710Y21530D02*
Y21930D01*
X20610Y22030D01*
X20410D01*
X20310Y21930D01*
Y21530D01*
X20410Y21430D01*
X20610D01*
X20510Y21630D02*
X20710Y21430D01*
X20610D02*
X20710Y21530D01*
X20910Y21930D02*
X21010Y22030D01*
X21210D01*
X21310Y21930D01*
Y21830D01*
X21210Y21730D01*
X21110D01*
X21210D01*
X21310Y21630D01*
Y21530D01*
X21210Y21430D01*
X21010D01*
X20910Y21530D01*
X27605Y26084D02*
Y26484D01*
X27505Y26584D01*
X27305D01*
X27205Y26484D01*
Y26084D01*
X27305Y25984D01*
X27505D01*
X27405Y26184D02*
X27605Y25984D01*
X27505D02*
X27605Y26084D01*
X28104Y25984D02*
Y26584D01*
X27805Y26284D01*
X28204D01*
X20827Y26969D02*
Y27568D01*
X21127D01*
X21227Y27468D01*
Y27268D01*
X21127Y27168D01*
X20827D01*
X21027D02*
X21227Y26969D01*
X21427D02*
X21627D01*
X21527D01*
Y27568D01*
X21427Y27468D01*
X21811Y25945D02*
Y26545D01*
X22111D01*
X22211Y26445D01*
Y26245D01*
X22111Y26145D01*
X21811D01*
X22011D02*
X22211Y25945D01*
X22811D02*
X22411D01*
X22811Y26345D01*
Y26445D01*
X22711Y26545D01*
X22511D01*
X22411Y26445D01*
X24016Y20236D02*
Y20836D01*
X24316D01*
X24416Y20736D01*
Y20536D01*
X24316Y20436D01*
X24016D01*
X24216D02*
X24416Y20236D01*
X24616Y20736D02*
X24716Y20836D01*
X24915D01*
X25015Y20736D01*
Y20636D01*
X24915Y20536D01*
X24815D01*
X24915D01*
X25015Y20436D01*
Y20336D01*
X24915Y20236D01*
X24716D01*
X24616Y20336D01*
X24685Y18661D02*
Y19261D01*
X24985D01*
X25085Y19161D01*
Y18961D01*
X24985Y18861D01*
X24685D01*
X24885D02*
X25085Y18661D01*
X25585D02*
Y19261D01*
X25285Y18961D01*
X25685D01*
X22244Y20236D02*
Y20836D01*
X22544D01*
X22644Y20736D01*
Y20536D01*
X22544Y20436D01*
X22244D01*
X22444D02*
X22644Y20236D01*
X23244Y20836D02*
X22844D01*
Y20536D01*
X23044Y20636D01*
X23144D01*
X23244Y20536D01*
Y20336D01*
X23144Y20236D01*
X22944D01*
X22844Y20336D01*
X21614Y18661D02*
Y19261D01*
X21914D01*
X22014Y19161D01*
Y18961D01*
X21914Y18861D01*
X21614D01*
X21814D02*
X22014Y18661D01*
X22614Y19261D02*
X22414Y19161D01*
X22214Y18961D01*
Y18761D01*
X22314Y18661D01*
X22514D01*
X22614Y18761D01*
Y18861D01*
X22514Y18961D01*
X22214D01*
X25551Y26772D02*
Y27371D01*
X25851D01*
X25951Y27271D01*
Y27072D01*
X25851Y26972D01*
X25551D01*
X25751D02*
X25951Y26772D01*
X26151Y27371D02*
X26551D01*
Y27271D01*
X26151Y26872D01*
Y26772D01*
X24685Y25945D02*
Y26545D01*
X24985D01*
X25085Y26445D01*
Y26245D01*
X24985Y26145D01*
X24685D01*
X24885D02*
X25085Y25945D01*
X25285Y26445D02*
X25385Y26545D01*
X25585D01*
X25685Y26445D01*
Y26345D01*
X25585Y26245D01*
X25685Y26145D01*
Y26045D01*
X25585Y25945D01*
X25385D01*
X25285Y26045D01*
Y26145D01*
X25385Y26245D01*
X25285Y26345D01*
Y26445D01*
X25385Y26245D02*
X25585D01*
X25079Y32844D02*
Y32344D01*
X25179Y32244D01*
X25379D01*
X25479Y32344D01*
Y32844D01*
X25679Y32244D02*
X25878D01*
X25779D01*
Y32844D01*
X25679Y32744D01*
X14685Y26545D02*
Y26045D01*
X14785Y25945D01*
X14985D01*
X15085Y26045D01*
Y26545D01*
X15685Y25945D02*
X15285D01*
X15685Y26345D01*
Y26445D01*
X15585Y26545D01*
X15385D01*
X15285Y26445D01*
D23*
X22669Y33427D02*
G03*
X22669Y33427I-47J0D01*
G01*
D02*
G03*
X22669Y33427I-47J0D01*
G01*
D24*
X15561Y25531D02*
G03*
X15561Y25531I-49J0D01*
G01*
D25*
X22657Y32173D02*
X24587D01*
Y33181D01*
X22776D02*
X24587D01*
X22657Y33063D02*
X22776Y33181D01*
X22657Y32173D02*
Y33063D01*
X20474Y26599D02*
X21574D01*
Y25999D02*
Y26599D01*
X20474Y25999D02*
X21574D01*
X20474D02*
Y26599D01*
X20316Y19237D02*
X21416D01*
Y18637D02*
Y19237D01*
X20316Y18637D02*
X21416D01*
X20316D02*
Y19237D01*
X21694Y20024D02*
X22794D01*
Y19424D02*
Y20024D01*
X21694Y19424D02*
X22794D01*
X21694D02*
Y20024D01*
X25867Y19237D02*
X26967D01*
Y18637D02*
Y19237D01*
X25867Y18637D02*
X26967D01*
X25867D02*
Y19237D01*
X24489Y20024D02*
X25589D01*
Y19424D02*
Y20024D01*
X24489Y19424D02*
X25589D01*
X24489D02*
Y20024D01*
X19568Y27505D02*
X20668D01*
Y26905D02*
Y27505D01*
X19568Y26905D02*
X20668D01*
X19568D02*
Y27505D01*
X25867Y26560D02*
X26967D01*
Y25960D02*
Y26560D01*
X25867Y25960D02*
X26967D01*
X25867D02*
Y26560D01*
X26694Y27347D02*
X27794D01*
Y26747D02*
Y27347D01*
X26694Y26747D02*
X27794D01*
X26694D02*
Y27347D01*
D26*
X16102Y22894D02*
X17205D01*
X16102Y25531D02*
X17205D01*
Y22894D02*
Y25531D01*
X16102Y22894D02*
Y25531D01*
M02*
