G04 Layer_Color=16720538*
%FSLAX24Y24*%
%MOIN*%
G70*
G01*
G75*
%ADD39C,0.0118*%
%ADD40C,0.0118*%
D39*
X29596Y33898D02*
D03*
X35501Y23583D02*
D03*
X35501Y23583D02*
D03*
X29596Y13354D02*
D03*
X17648Y33890D02*
D03*
X17648Y33890D02*
D03*
X17648Y33890D02*
D03*
X17648Y33890D02*
D03*
X17648Y33890D02*
D03*
X11743Y23662D02*
D03*
X11743Y23662D02*
D03*
X11743Y23662D02*
D03*
X17648Y13354D02*
D03*
X11743Y23583D02*
D03*
D03*
D40*
X35512Y23622D02*
G03*
X35501Y23661I-79J0D01*
G01*
X29596Y33898D02*
G03*
X29528Y33937I-68J-39D01*
G01*
X35501Y23661D02*
G03*
X35501Y23662I-51J-30D01*
G01*
X35501Y23583D02*
G03*
X35512Y23622I-68J39D01*
G01*
X29528Y13314D02*
G03*
X29596Y13354I0J79D01*
G01*
X17716Y33929D02*
G03*
X17648Y33890I0J-79D01*
G01*
X11743Y23662D02*
G03*
X11743Y23661I51J-30D01*
G01*
X17648Y13354D02*
G03*
X17717Y13314I68J39D01*
G01*
X11743Y23583D02*
X11743Y23662D01*
X29596Y33898D02*
X29596Y33898D01*
X35501Y23662D01*
X35501Y23661D01*
X35501Y23583D02*
X35501Y23583D01*
X29596Y13354D02*
X35501Y23583D01*
X29596Y13354D02*
X29596Y13354D01*
X17716Y33929D02*
X29528Y33937D01*
X17648Y33890D02*
X17648Y33890D01*
X17648Y33890D02*
X17648Y33890D01*
X17648Y33890D02*
X17648Y33890D01*
X11743Y23662D02*
X17648Y33890D01*
X11743Y23662D02*
X11743Y23662D01*
X11743Y23662D02*
X11743Y23662D01*
X11743Y23662D02*
X11743Y23662D01*
X17717Y13314D02*
X29528D01*
X11743Y23583D02*
X11743Y23583D01*
X17648Y13354D01*
X17648Y13354D01*
M02*
