G04 Layer_Physical_Order=1*
G04 Layer_Color=25308*
%FSLAX24Y24*%
%MOIN*%
G70*
G01*
G75*
%ADD10R,0.0315X0.1181*%
%ADD11R,0.0295X0.0157*%
%ADD12R,0.1102X0.0591*%
%ADD13R,0.0394X0.0433*%
%ADD14R,0.0413X0.0394*%
%ADD15R,0.0315X0.0315*%
%ADD16R,0.0354X0.0413*%
%ADD17C,0.0100*%
%ADD18C,0.1575*%
%ADD19C,0.0886*%
%ADD20C,0.0157*%
%ADD21C,0.0118*%
%ADD22C,0.0887*%
%ADD23C,0.0492*%
%ADD24C,0.0394*%
%ADD25C,0.0197*%
%ADD26C,0.0591*%
%ADD27C,0.0689*%
%ADD28R,0.1319X0.1319*%
%ADD29R,0.6451X0.1306*%
%ADD30R,0.0870X0.2572*%
%ADD31R,0.1772X0.0695*%
%ADD32R,0.0287X0.0826*%
%ADD33R,0.2749X0.0719*%
%ADD34R,0.0818X0.0594*%
%ADD35C,0.0600*%
%ADD36C,0.0472*%
%ADD37C,0.1280*%
%ADD38C,0.0591*%
%ADD39R,0.0591X0.0591*%
%ADD40C,0.0700*%
G04:AMPARAMS|DCode=41|XSize=70mil|YSize=70mil|CornerRadius=17.5mil|HoleSize=0mil|Usage=FLASHONLY|Rotation=90.000|XOffset=0mil|YOffset=0mil|HoleType=Round|Shape=RoundedRectangle|*
%AMROUNDEDRECTD41*
21,1,0.0700,0.0350,0,0,90.0*
21,1,0.0350,0.0700,0,0,90.0*
1,1,0.0350,0.0175,0.0175*
1,1,0.0350,0.0175,-0.0175*
1,1,0.0350,-0.0175,-0.0175*
1,1,0.0350,-0.0175,0.0175*
%
%ADD41ROUNDEDRECTD41*%
%ADD42C,0.1900*%
%ADD43R,0.0600X0.0600*%
%ADD44C,0.0787*%
%ADD45R,0.0787X0.0787*%
%ADD46C,0.1378*%
%ADD47R,0.1378X0.1378*%
%ADD48C,0.0800*%
%ADD49R,0.0800X0.0800*%
%ADD50C,0.0256*%
%ADD51C,0.0252*%
%ADD52C,0.0394*%
%ADD53C,0.0236*%
%ADD54C,0.0138*%
G36*
X28563Y45066D02*
X28774Y45015D01*
X28974Y44932D01*
X29159Y44819D01*
X29324Y44678D01*
X29465Y44513D01*
X29578Y44328D01*
X29661Y44128D01*
X29712Y43917D01*
X29728Y43705D01*
X29725Y43701D01*
X29725D01*
X29729Y27165D01*
X29712Y26949D01*
X29661Y26738D01*
X29578Y26538D01*
X29465Y26353D01*
X29324Y26188D01*
X29159Y26047D01*
X28974Y25934D01*
X28774Y25851D01*
X28563Y25800D01*
X28351Y25783D01*
X28346Y25787D01*
Y25787D01*
X5118Y25783D01*
X4902Y25800D01*
X4691Y25851D01*
X4491Y25934D01*
X4306Y26047D01*
X4141Y26188D01*
X4000Y26353D01*
X3886Y26538D01*
X3803Y26738D01*
X3753Y26949D01*
X3736Y27161D01*
X3740Y27165D01*
X3740D01*
X3736Y43701D01*
X3753Y43917D01*
X3803Y44128D01*
X3886Y44328D01*
X4000Y44513D01*
X4141Y44678D01*
X4306Y44819D01*
X4491Y44932D01*
X4691Y45015D01*
X4902Y45066D01*
X5114Y45083D01*
X5118Y45079D01*
Y45079D01*
X28346Y45083D01*
X28563Y45066D01*
D02*
G37*
%LPC*%
G36*
X28346Y44976D02*
Y44974D01*
X5118D01*
Y44976D01*
X4919Y44961D01*
X4724Y44914D01*
X4539Y44837D01*
X4368Y44733D01*
X4216Y44603D01*
X4086Y44451D01*
X3982Y44280D01*
X3905Y44095D01*
X3858Y43900D01*
X3846Y43750D01*
X3846Y43750D01*
X3846Y43750D01*
X3843Y43701D01*
X3845Y43701D01*
X3845D01*
Y27165D01*
X3843D01*
X3858Y26966D01*
X3905Y26771D01*
X3982Y26586D01*
X4086Y26416D01*
X4216Y26263D01*
X4368Y26133D01*
X4539Y26029D01*
X4724Y25952D01*
X4919Y25905D01*
X5118Y25890D01*
Y25892D01*
X28346D01*
Y25890D01*
X28546Y25905D01*
X28741Y25952D01*
X28926Y26029D01*
X29096Y26133D01*
X29248Y26263D01*
X29378Y26416D01*
X29483Y26586D01*
X29560Y26771D01*
X29606Y26966D01*
X29622Y27165D01*
X29620D01*
Y43701D01*
X29622D01*
X29606Y43900D01*
X29560Y44095D01*
X29483Y44280D01*
X29378Y44451D01*
X29248Y44603D01*
X29096Y44733D01*
X28926Y44837D01*
X28741Y44914D01*
X28546Y44961D01*
X28346Y44976D01*
D02*
G37*
%LPD*%
G36*
X11977Y38902D02*
X11905Y38872D01*
X11802Y38793D01*
X11799Y38789D01*
X11023Y38013D01*
X10944Y37910D01*
X10894Y37790D01*
X10877Y37661D01*
Y35385D01*
X10894Y35256D01*
X10944Y35136D01*
X11023Y35033D01*
X12245Y33811D01*
X12348Y33732D01*
X12468Y33682D01*
X12597Y33665D01*
X12699Y33678D01*
X13343D01*
X13348Y33628D01*
X13345Y33628D01*
X13286Y33588D01*
X13268Y33562D01*
X9060D01*
X6981Y35641D01*
X10292Y38952D01*
X11968D01*
X11977Y38902D01*
D02*
G37*
G36*
X13286Y33330D02*
X13345Y33290D01*
X13356Y33288D01*
X13381Y33232D01*
X13376Y33225D01*
X13373Y33223D01*
X9185D01*
X9099Y33310D01*
X9118Y33356D01*
X13268D01*
X13286Y33330D01*
D02*
G37*
G36*
X21550Y31593D02*
X21524Y31560D01*
X16786D01*
X16750Y31600D01*
X16753Y31635D01*
X16756Y31639D01*
X21531D01*
X21550Y31593D01*
D02*
G37*
G36*
X16722Y36329D02*
Y35394D01*
X16496Y35167D01*
X15915D01*
X15758Y35010D01*
X15591D01*
Y35364D01*
X15768Y35541D01*
Y35679D01*
X16427Y36339D01*
X16545D01*
X16703Y36348D01*
X16722Y36329D01*
D02*
G37*
G36*
X16415Y35106D02*
X16434Y35062D01*
X16422Y35045D01*
X16415Y35005D01*
Y34513D01*
X16355Y34454D01*
X14866D01*
X14817Y34502D01*
X14825Y34537D01*
X14836Y34552D01*
X15699D01*
X15739Y34560D01*
X15772Y34583D01*
X15998Y34809D01*
X16053Y34798D01*
X16123Y34812D01*
X16182Y34851D01*
X16222Y34910D01*
X16236Y34980D01*
X16222Y35050D01*
X16214Y35062D01*
X16241Y35112D01*
X16409D01*
X16415Y35106D01*
D02*
G37*
G36*
X28346Y44829D02*
X28523Y44815D01*
X28695Y44774D01*
X28859Y44706D01*
X29010Y44614D01*
X29144Y44499D01*
X29259Y44364D01*
X29352Y44213D01*
X29420Y44049D01*
X29461Y43877D01*
X29475Y43701D01*
X29475D01*
Y27165D01*
X29475D01*
X29461Y26989D01*
X29420Y26817D01*
X29352Y26653D01*
X29259Y26502D01*
X29144Y26367D01*
X29010Y26252D01*
X28859Y26160D01*
X28695Y26092D01*
X28523Y26051D01*
X28346Y26037D01*
Y26037D01*
X25289D01*
X25274Y26087D01*
X25296Y26102D01*
X25906Y26712D01*
X25931Y26748D01*
X25939Y26791D01*
Y27559D01*
X25931Y27602D01*
X25906Y27639D01*
X25894Y27646D01*
X24989Y28552D01*
X24991Y28555D01*
X25036Y28663D01*
X25051Y28780D01*
X25036Y28896D01*
X24991Y29004D01*
X24920Y29097D01*
X24827Y29168D01*
X24718Y29213D01*
X24715Y29213D01*
Y29553D01*
X24807Y29592D01*
X24900Y29663D01*
X24971Y29756D01*
X25016Y29864D01*
X25031Y29980D01*
X25016Y30096D01*
X24971Y30205D01*
X24969Y30208D01*
X27760Y32998D01*
X27784Y33035D01*
X27793Y33078D01*
Y34247D01*
X28091Y34545D01*
X28181Y34508D01*
X28285Y34494D01*
X28390Y34508D01*
X28488Y34548D01*
X28571Y34612D01*
X28636Y34696D01*
X28676Y34794D01*
X28690Y34898D01*
X28676Y35003D01*
X28639Y35093D01*
X29016Y35471D01*
X29041Y35507D01*
X29049Y35550D01*
Y40982D01*
X29041Y41025D01*
X29016Y41062D01*
X28033Y42045D01*
X27997Y42070D01*
X27954Y42078D01*
X25722D01*
X25119Y42681D01*
Y42940D01*
X24860D01*
X24609Y43191D01*
X24573Y43215D01*
X24530Y43224D01*
X20030D01*
X19987Y43215D01*
X19950Y43191D01*
X19393Y42633D01*
X19369Y42597D01*
X19360Y42554D01*
Y42066D01*
X19295Y42039D01*
X19222Y41983D01*
X19166Y41909D01*
X19130Y41824D01*
X19118Y41732D01*
X19130Y41641D01*
X19166Y41555D01*
X19222Y41482D01*
X19295Y41426D01*
X19381Y41390D01*
X19472Y41378D01*
X19564Y41390D01*
X19650Y41426D01*
X19723Y41482D01*
X19779Y41555D01*
X19815Y41641D01*
X19827Y41732D01*
X19815Y41824D01*
X19779Y41909D01*
X19723Y41983D01*
X19650Y42039D01*
X19585Y42066D01*
Y42507D01*
X20076Y42999D01*
X24445D01*
X24451Y42990D01*
X24449Y42977D01*
X24423Y42940D01*
X24071D01*
Y42522D01*
X24168D01*
Y42117D01*
X24042D01*
Y41582D01*
X24538D01*
Y42117D01*
X24392D01*
Y42522D01*
X24489D01*
Y42893D01*
Y42893D01*
X24489Y42897D01*
X24489Y42915D01*
Y42922D01*
Y42923D01*
X24492Y42924D01*
X24494Y42925D01*
X24496Y42926D01*
X24506Y42931D01*
X24512Y42934D01*
X24522Y42939D01*
D01*
X24528Y42942D01*
X24536Y42946D01*
X24701Y42781D01*
Y42522D01*
X24960D01*
X25596Y41886D01*
X25632Y41862D01*
X25675Y41853D01*
X27907D01*
X28825Y40936D01*
Y35597D01*
X28480Y35252D01*
X28390Y35289D01*
X28285Y35303D01*
X28181Y35289D01*
X28083Y35249D01*
X27999Y35185D01*
X27935Y35101D01*
X27894Y35003D01*
X27881Y34898D01*
X27894Y34794D01*
X27932Y34704D01*
X27616Y34388D01*
X27564Y34404D01*
X27556Y34463D01*
X27516Y34561D01*
X27451Y34645D01*
X27368Y34709D01*
X27270Y34749D01*
X27165Y34763D01*
X27061Y34749D01*
X26963Y34709D01*
X26879Y34645D01*
X26815Y34561D01*
X26774Y34463D01*
X26761Y34358D01*
X26774Y34254D01*
X26815Y34156D01*
X26879Y34072D01*
X26963Y34008D01*
X27061Y33968D01*
X27165Y33954D01*
X27270Y33968D01*
X27368Y34008D01*
X27451Y34072D01*
X27516Y34156D01*
X27518Y34161D01*
X27568Y34151D01*
Y33486D01*
X27518Y33476D01*
X27516Y33481D01*
X27451Y33565D01*
X27368Y33629D01*
X27270Y33669D01*
X27165Y33683D01*
X27061Y33669D01*
X26963Y33629D01*
X26879Y33565D01*
X26815Y33481D01*
X26774Y33383D01*
X26761Y33278D01*
X26774Y33174D01*
X26815Y33076D01*
X26879Y32992D01*
X26963Y32928D01*
X27061Y32888D01*
X27165Y32874D01*
X27259Y32886D01*
X27280Y32855D01*
X27285Y32841D01*
X24810Y30367D01*
X24807Y30369D01*
X24699Y30414D01*
X24583Y30429D01*
X24467Y30414D01*
X24358Y30369D01*
X24355Y30367D01*
X22379Y32343D01*
X22342Y32368D01*
X22299Y32376D01*
X19780D01*
X19780Y32380D01*
X19735Y32488D01*
X19664Y32581D01*
X19571Y32652D01*
X19463Y32697D01*
X19346Y32713D01*
X19230Y32697D01*
X19122Y32652D01*
X19029Y32581D01*
X18958Y32488D01*
X18913Y32380D01*
X18898Y32264D01*
X18913Y32148D01*
X18958Y32039D01*
X19029Y31946D01*
X19096Y31895D01*
X19079Y31845D01*
X18791D01*
Y32550D01*
X20152Y33911D01*
X22549D01*
X22592Y33919D01*
X22628Y33944D01*
X24424Y35739D01*
X24448Y35775D01*
X24456Y35819D01*
Y37933D01*
X24448Y37976D01*
X24424Y38012D01*
X24256Y38180D01*
X24219Y38204D01*
X24176Y38213D01*
X23571D01*
X23517Y38268D01*
X23520Y38287D01*
X23508Y38350D01*
X23526Y38369D01*
X23549Y38383D01*
X23582Y38360D01*
X23652Y38346D01*
X23722Y38360D01*
X23782Y38400D01*
X23821Y38459D01*
X23835Y38529D01*
X23821Y38599D01*
X23795Y38638D01*
Y42386D01*
X23800Y42412D01*
X23792Y42455D01*
X23767Y42492D01*
X23587Y42672D01*
Y42931D01*
X23169D01*
Y42513D01*
X23428D01*
X23570Y42371D01*
Y38689D01*
X23523Y38658D01*
X23484Y38599D01*
X23470Y38529D01*
X23482Y38467D01*
X23464Y38447D01*
X23442Y38434D01*
X23408Y38456D01*
X23338Y38470D01*
X23268Y38456D01*
X23209Y38417D01*
X23169Y38357D01*
X23155Y38287D01*
X23169Y38218D01*
X23130Y38187D01*
X22740Y38576D01*
X22637Y38656D01*
X22516Y38705D01*
X22387Y38722D01*
X22258Y38705D01*
X22138Y38656D01*
X22035Y38576D01*
X21956Y38473D01*
X21906Y38353D01*
X21889Y38224D01*
X21906Y38095D01*
X21956Y37975D01*
X22035Y37872D01*
X22544Y37363D01*
Y35852D01*
X21983Y35292D01*
X18370D01*
X18343Y35342D01*
X18360Y35366D01*
X18374Y35436D01*
X18360Y35506D01*
X18348Y35525D01*
X18374Y35575D01*
X19095D01*
X19095Y35574D01*
X19198Y35495D01*
X19318Y35445D01*
X19447Y35428D01*
X21566D01*
X21695Y35445D01*
X21815Y35495D01*
X21918Y35574D01*
X22161Y35818D01*
X22241Y35921D01*
X22290Y36041D01*
X22307Y36170D01*
Y37105D01*
X22290Y37234D01*
X22241Y37354D01*
X22161Y37457D01*
X18971Y40648D01*
Y41732D01*
X18954Y41861D01*
X18904Y41981D01*
X18825Y42085D01*
X18722Y42164D01*
X18601Y42214D01*
X18472Y42231D01*
X18343Y42214D01*
X18223Y42164D01*
X18120Y42085D01*
X18106Y42066D01*
X18056Y42063D01*
X18014Y42105D01*
X17974Y42122D01*
X17971D01*
Y42413D01*
X19201Y43643D01*
X19398D01*
Y43891D01*
X19429Y43965D01*
X19446Y44094D01*
X19429Y44224D01*
X19398Y44298D01*
Y44546D01*
X19150D01*
X19076Y44576D01*
X18947Y44593D01*
X18818Y44576D01*
X18743Y44546D01*
X18496D01*
Y44349D01*
X17120Y42973D01*
X17040Y42870D01*
X17021Y42824D01*
X16971Y42834D01*
Y42914D01*
X17799Y43742D01*
X17878Y43845D01*
X17928Y43966D01*
X17945Y44094D01*
X17928Y44223D01*
X17878Y44344D01*
X17799Y44447D01*
X17696Y44526D01*
X17576Y44576D01*
X17447Y44593D01*
X17318Y44576D01*
X17198Y44526D01*
X17094Y44447D01*
X16183Y43535D01*
X16157Y43502D01*
X16120Y43473D01*
X16040Y43370D01*
X16021Y43322D01*
X15971Y43332D01*
Y43414D01*
X16299Y43742D01*
X16378Y43845D01*
X16428Y43966D01*
X16445Y44094D01*
X16428Y44223D01*
X16378Y44344D01*
X16299Y44447D01*
X16196Y44526D01*
X16076Y44576D01*
X15947Y44593D01*
X15818Y44576D01*
X15698Y44526D01*
X15594Y44447D01*
X15120Y43972D01*
X15041Y43869D01*
X14991Y43749D01*
X14974Y43620D01*
Y41732D01*
X14991Y41603D01*
X15041Y41483D01*
X15120Y41380D01*
X15223Y41301D01*
X15343Y41251D01*
X15472Y41234D01*
X15531Y41242D01*
X15555Y41194D01*
X15042Y40681D01*
X14963Y40578D01*
X14913Y40458D01*
X14896Y40329D01*
Y39636D01*
X14198Y38939D01*
X13206D01*
X13181Y38989D01*
X13194Y39008D01*
X13203Y39055D01*
X13194Y39102D01*
X13167Y39142D01*
X13157Y39149D01*
X13154Y39165D01*
X13161Y39206D01*
X13189Y39225D01*
X13216Y39265D01*
X13225Y39311D01*
X13216Y39358D01*
X13189Y39398D01*
X13150Y39425D01*
X13103Y39434D01*
X13056Y39425D01*
X13041Y39415D01*
X10276D01*
X10237Y39407D01*
X10203Y39384D01*
X7744Y36926D01*
X7694Y36946D01*
Y37243D01*
X7678Y37282D01*
X7639Y37298D01*
X7600Y37282D01*
X7583Y37266D01*
X7390D01*
X7356Y37303D01*
X7358Y37323D01*
Y39933D01*
X8668Y41242D01*
X10006D01*
X10171Y41259D01*
X10329Y41307D01*
X10474Y41384D01*
X10602Y41489D01*
X10707Y41617D01*
X10785Y41763D01*
X10833Y41921D01*
X10849Y42085D01*
Y42823D01*
X11043Y43017D01*
X11148Y43144D01*
X11226Y43290D01*
X11274Y43448D01*
X11290Y43613D01*
X11274Y43777D01*
X11226Y43935D01*
X11148Y44081D01*
X11043Y44208D01*
X10915Y44313D01*
X10770Y44391D01*
X10611Y44439D01*
X10447Y44455D01*
X10283Y44439D01*
X10125Y44391D01*
X9979Y44313D01*
X9851Y44208D01*
X9410Y43767D01*
X9306Y43640D01*
X9228Y43494D01*
X9180Y43336D01*
X9164Y43172D01*
Y42928D01*
X8319D01*
X8154Y42911D01*
X7996Y42864D01*
X7851Y42786D01*
X7781Y42728D01*
X7723Y42681D01*
X5920Y40878D01*
X5815Y40750D01*
X5737Y40604D01*
X5689Y40446D01*
X5673Y40282D01*
Y37323D01*
X5675Y37303D01*
X5642Y37266D01*
X5144D01*
X5137Y37316D01*
X5148Y37319D01*
X5268Y37383D01*
X5373Y37470D01*
X5459Y37575D01*
X5524Y37695D01*
X5563Y37825D01*
X5576Y37961D01*
X5563Y38096D01*
X5524Y38226D01*
X5459Y38346D01*
X5373Y38452D01*
X5268Y38538D01*
X5148Y38602D01*
X5017Y38642D01*
X4882Y38655D01*
X4746Y38642D01*
X4616Y38602D01*
X4496Y38538D01*
X4391Y38452D01*
X4304Y38346D01*
X4240Y38226D01*
X4201Y38096D01*
X4187Y37961D01*
X4201Y37825D01*
X4240Y37695D01*
X4304Y37575D01*
X4391Y37470D01*
X4496Y37383D01*
X4616Y37319D01*
X4746Y37279D01*
X4882Y37266D01*
X5017Y37279D01*
X5049Y37289D01*
X5049Y37289D01*
X5073Y37244D01*
X5067Y37231D01*
X5059Y37212D01*
X5027Y36119D01*
X5027Y36119D01*
X5026Y36118D01*
X5034Y36099D01*
X5042Y36080D01*
X5042Y36079D01*
X5043Y36079D01*
X5050Y36076D01*
X5050Y36076D01*
X5050Y36076D01*
X5062Y36071D01*
X5080Y36062D01*
X5081Y36063D01*
X5082Y36062D01*
X5536D01*
X5555Y36016D01*
X5321Y35782D01*
X5298Y35748D01*
X5291Y35709D01*
Y35453D01*
X5298Y35413D01*
X5321Y35380D01*
X5498Y35203D01*
X5531Y35180D01*
X5571Y35172D01*
X5759D01*
X5769Y35122D01*
X5737Y35109D01*
X5677Y35063D01*
X5631Y35003D01*
X5602Y34933D01*
X5592Y34858D01*
X5602Y34783D01*
X5631Y34713D01*
X5677Y34653D01*
X5737Y34607D01*
X5807Y34578D01*
X5882Y34568D01*
X5957Y34578D01*
X6027Y34607D01*
X6087Y34653D01*
X6133Y34713D01*
X6162Y34783D01*
X6172Y34858D01*
X6164Y34919D01*
X6209Y34945D01*
X6318Y34835D01*
X6351Y34813D01*
X6391Y34805D01*
X7312D01*
X9070Y33047D01*
X9103Y33025D01*
X9143Y33017D01*
X13461D01*
X13500Y33025D01*
X13534Y33047D01*
X13877Y33391D01*
X13884Y33386D01*
X13954Y33372D01*
X14024Y33386D01*
X14083Y33426D01*
X14123Y33485D01*
X14137Y33555D01*
X14123Y33625D01*
X14117Y33634D01*
X14140Y33678D01*
X14321D01*
X14360Y33695D01*
X14376Y33734D01*
Y34309D01*
X14426Y34335D01*
X14433Y34331D01*
X14472Y34323D01*
X14704D01*
X14750Y34277D01*
X14783Y34255D01*
X14823Y34247D01*
X16398D01*
X16437Y34255D01*
X16471Y34277D01*
X16591Y34397D01*
X16604Y34417D01*
X16613Y34431D01*
X16621Y34470D01*
Y34607D01*
X16671Y34617D01*
X16701Y34544D01*
X16780Y34441D01*
X16883Y34362D01*
X17004Y34312D01*
X17133Y34295D01*
X22190D01*
X22319Y34312D01*
X22439Y34362D01*
X22542Y34441D01*
X23395Y35293D01*
X23474Y35396D01*
X23523Y35517D01*
X23540Y35646D01*
Y37569D01*
X23523Y37698D01*
X23474Y37818D01*
X23395Y37922D01*
X23237Y38079D01*
X23268Y38119D01*
X23338Y38105D01*
X23358Y38109D01*
X23445Y38021D01*
X23482Y37997D01*
X23525Y37988D01*
X24130D01*
X24232Y37886D01*
Y35865D01*
X22502Y34136D01*
X20106D01*
X20063Y34127D01*
X20026Y34103D01*
X18632Y32709D01*
X17902D01*
Y31845D01*
X16831D01*
X16826Y31850D01*
X16812Y31920D01*
X16773Y31980D01*
X16714Y32019D01*
X16644Y32033D01*
X16574Y32019D01*
X16515Y31980D01*
X16475Y31920D01*
X16461Y31850D01*
X16475Y31781D01*
X16515Y31721D01*
X16574Y31682D01*
X16607Y31675D01*
Y31624D01*
X16568Y31616D01*
X16512Y31579D01*
X16474Y31523D01*
X16461Y31457D01*
X16474Y31391D01*
X16486Y31373D01*
X16459Y31323D01*
X15977D01*
X15966Y31340D01*
X15907Y31379D01*
X15837Y31393D01*
X15767Y31379D01*
X15707Y31340D01*
X15668Y31281D01*
X15654Y31211D01*
X15668Y31141D01*
X15707Y31081D01*
X15767Y31042D01*
X15837Y31028D01*
X15907Y31042D01*
X15966Y31081D01*
X15977Y31098D01*
X17239D01*
X17239Y31097D01*
X17279Y31037D01*
X17338Y30998D01*
X17408Y30984D01*
X17478Y30998D01*
X17537Y31037D01*
X17577Y31097D01*
X17591Y31167D01*
X17577Y31236D01*
X17537Y31296D01*
X17525Y31304D01*
X17540Y31354D01*
X21575D01*
X21614Y31361D01*
X21648Y31384D01*
X21648Y31384D01*
X21698D01*
X22150Y30933D01*
X22125Y30887D01*
X22106Y30891D01*
X22090Y30887D01*
X16877D01*
X16860Y30913D01*
X16801Y30953D01*
X16731Y30967D01*
X16661Y30953D01*
X16602Y30913D01*
X16562Y30854D01*
X16548Y30784D01*
X16562Y30714D01*
X16602Y30655D01*
X16643Y30628D01*
X16628Y30578D01*
X16289D01*
X16271Y30604D01*
X16212Y30643D01*
X16142Y30657D01*
X16072Y30643D01*
X16013Y30604D01*
X15974Y30544D01*
X15960Y30474D01*
X15974Y30405D01*
X16013Y30345D01*
X16072Y30306D01*
X16142Y30292D01*
X16212Y30306D01*
X16271Y30345D01*
X16289Y30371D01*
X19030D01*
X19346Y30056D01*
Y29226D01*
X19354Y29186D01*
X19376Y29153D01*
X19409Y29130D01*
X19449Y29122D01*
X20565D01*
X21376Y28311D01*
X21360Y28256D01*
X21332Y28237D01*
X18306D01*
Y28342D01*
X17858D01*
X17854Y28342D01*
X17822Y28355D01*
X17807Y28362D01*
X17792Y28400D01*
X17752Y28416D01*
X17107D01*
Y28581D01*
X17091Y28620D01*
X17052Y28636D01*
X13791D01*
Y28846D01*
Y29083D01*
Y29343D01*
X13394D01*
Y29083D01*
Y28846D01*
Y28610D01*
Y28599D01*
X13386Y28581D01*
X13375Y27497D01*
X13375Y27497D01*
X13375Y27496D01*
X13383Y27477D01*
X13387Y27465D01*
X13388Y27465D01*
X13388Y27465D01*
X13388Y27464D01*
X13388Y27464D01*
Y27464D01*
X13388Y27464D01*
D01*
X13388Y27464D01*
X13388Y27464D01*
X13389Y27460D01*
X13390Y27459D01*
X13390Y27459D01*
X13390Y27459D01*
X13390Y27459D01*
X13390Y27459D01*
X13390Y27459D01*
X13390Y27458D01*
X13390Y27458D01*
D01*
X13390Y27458D01*
Y27458D01*
X13390Y27458D01*
X13391Y27458D01*
X13391Y27457D01*
X13409Y27450D01*
X13410Y27449D01*
X13410Y27449D01*
X13429Y27441D01*
X13430Y27441D01*
X13430Y27441D01*
X13430Y27441D01*
X13430Y27441D01*
X13435Y27443D01*
X13436Y27444D01*
D01*
X13482Y27453D01*
X16883D01*
X16889Y27445D01*
X16905Y27403D01*
X16859Y27342D01*
X16823Y27257D01*
X16811Y27165D01*
X16823Y27074D01*
X16859Y26988D01*
X16915Y26915D01*
X16988Y26859D01*
X17074Y26823D01*
X17165Y26811D01*
X17257Y26823D01*
X17342Y26859D01*
X17416Y26915D01*
X17472Y26988D01*
X17507Y27074D01*
X17520Y27165D01*
X17507Y27257D01*
X17482Y27320D01*
X17614Y27452D01*
X17647Y27502D01*
X17659Y27560D01*
Y27711D01*
X17752D01*
X17792Y27727D01*
X17808Y27767D01*
Y27805D01*
X17808Y27805D01*
X17849Y27826D01*
X17858Y27826D01*
X17925D01*
Y27469D01*
X17855Y27416D01*
X17799Y27342D01*
X17763Y27257D01*
X17751Y27165D01*
X17763Y27074D01*
X17799Y26988D01*
X17855Y26915D01*
X17928Y26859D01*
X18014Y26823D01*
X18106Y26811D01*
X18197Y26823D01*
X18283Y26859D01*
X18356Y26915D01*
X18412Y26988D01*
X18448Y27074D01*
X18460Y27165D01*
X18448Y27257D01*
X18412Y27342D01*
X18356Y27416D01*
X18283Y27472D01*
X18230Y27494D01*
Y27826D01*
X18306D01*
Y27932D01*
X21391D01*
X21450Y27943D01*
X21482Y27965D01*
X21860Y27587D01*
Y27175D01*
X21798Y27149D01*
X21725Y27094D01*
X21670Y27021D01*
X21635Y26937D01*
X21623Y26846D01*
X21635Y26756D01*
X21661Y26694D01*
X21261Y26293D01*
X9299D01*
X8734Y26858D01*
Y27552D01*
X9320Y28138D01*
X9579D01*
Y28555D01*
X9161D01*
Y28297D01*
X8996Y28132D01*
X8949Y28155D01*
Y28555D01*
X8688D01*
X8680Y28560D01*
X8641Y28568D01*
X8434D01*
X8417Y28594D01*
X8357Y28633D01*
X8293Y28646D01*
X8298Y28696D01*
X8970D01*
X8987Y28670D01*
X9047Y28630D01*
X9117Y28617D01*
X9186Y28630D01*
X9246Y28670D01*
X9285Y28729D01*
X9299Y28799D01*
X9285Y28869D01*
X9246Y28928D01*
X9186Y28968D01*
X9117Y28982D01*
X9047Y28968D01*
X8987Y28928D01*
X8970Y28902D01*
X7747D01*
X7734Y28915D01*
X7700Y28937D01*
X7661Y28945D01*
X7628Y28939D01*
X7622Y28937D01*
X7588Y28915D01*
X7228Y28555D01*
X6957D01*
Y28138D01*
X7374D01*
Y28409D01*
X7548Y28584D01*
X7587Y28551D01*
Y28138D01*
X7924D01*
X8510Y27552D01*
Y26811D01*
X8518Y26768D01*
X8543Y26732D01*
X9172Y26102D01*
X9195Y26087D01*
X9179Y26037D01*
X5118D01*
Y26037D01*
X4942Y26051D01*
X4769Y26092D01*
X4606Y26160D01*
X4455Y26252D01*
X4320Y26367D01*
X4205Y26502D01*
X4113Y26653D01*
X4045Y26817D01*
X4004Y26989D01*
X3990Y27165D01*
X3990D01*
Y43651D01*
X3990Y43693D01*
X3998Y43701D01*
X3998D01*
X3998Y43701D01*
X3998Y43701D01*
X3994Y43751D01*
X4004Y43877D01*
X4045Y44049D01*
X4113Y44213D01*
X4205Y44364D01*
X4320Y44499D01*
X4455Y44614D01*
X4606Y44706D01*
X4769Y44774D01*
X4942Y44815D01*
X5118Y44829D01*
Y44829D01*
X28346D01*
Y44829D01*
D02*
G37*
G36*
X17052Y27634D02*
X16926Y27508D01*
X13442D01*
X13430Y27496D01*
X13442Y28581D01*
X17052D01*
Y27634D01*
D02*
G37*
G36*
X22731Y30016D02*
Y28346D01*
X22739Y28307D01*
X22762Y28274D01*
X23177Y27858D01*
Y27114D01*
X23966D01*
X23985Y27068D01*
X23693Y26776D01*
X22818D01*
X22236Y27359D01*
Y27700D01*
X22228Y27740D01*
X22206Y27773D01*
X20680Y29299D01*
X20647Y29321D01*
X20607Y29329D01*
X19552D01*
Y30098D01*
X19544Y30138D01*
X19522Y30171D01*
X19146Y30547D01*
X19112Y30570D01*
X19073Y30578D01*
X16834D01*
X16819Y30628D01*
X16860Y30655D01*
X16877Y30681D01*
X22067D01*
X22731Y30016D01*
D02*
G37*
G36*
X22558Y26102D02*
X22580Y26087D01*
X22565Y26037D01*
X21380D01*
X21364Y26087D01*
X21387Y26102D01*
X21820Y26535D01*
X21882Y26509D01*
X21972Y26497D01*
X22063Y26509D01*
X22125Y26535D01*
X22558Y26102D01*
D02*
G37*
G36*
X23933Y30471D02*
X23914Y30425D01*
X23284D01*
X21894Y31815D01*
X21861Y31837D01*
X21821Y31845D01*
X19613D01*
X19597Y31895D01*
X19664Y31946D01*
X19735Y32039D01*
X19780Y32148D01*
X19780Y32151D01*
X22253D01*
X23933Y30471D01*
D02*
G37*
G36*
X24196Y30208D02*
X24194Y30205D01*
X24149Y30096D01*
X24134Y29980D01*
X24149Y29864D01*
X24194Y29756D01*
X24265Y29663D01*
X24358Y29592D01*
X24467Y29547D01*
X24490Y29544D01*
Y29213D01*
X24486Y29213D01*
X24378Y29168D01*
X24285Y29097D01*
X24214Y29004D01*
X24169Y28896D01*
X24154Y28780D01*
X24169Y28663D01*
X24214Y28555D01*
X24285Y28462D01*
X24378Y28391D01*
X24486Y28346D01*
X24602Y28331D01*
X24718Y28346D01*
X24827Y28391D01*
X24830Y28393D01*
X25714Y27509D01*
Y26838D01*
X25170Y26293D01*
X22684D01*
X22284Y26694D01*
X22310Y26756D01*
X22322Y26846D01*
X22312Y26920D01*
X22360Y26943D01*
X22703Y26600D01*
X22736Y26578D01*
X22776Y26570D01*
X23736D01*
X23776Y26578D01*
X23809Y26600D01*
X24387Y27178D01*
X24398Y27170D01*
X24506Y27126D01*
X24622Y27110D01*
X24738Y27126D01*
X24846Y27170D01*
X24939Y27242D01*
X25011Y27335D01*
X25055Y27443D01*
X25071Y27559D01*
X25055Y27675D01*
X25011Y27783D01*
X24939Y27876D01*
X24846Y27948D01*
X24738Y27992D01*
X24622Y28008D01*
X24506Y27992D01*
X24398Y27948D01*
X24305Y27876D01*
X24233Y27783D01*
X24189Y27675D01*
X24173Y27559D01*
X24189Y27443D01*
X24233Y27335D01*
X24241Y27324D01*
X24113Y27196D01*
X24067Y27215D01*
Y28004D01*
X23323D01*
X22938Y28389D01*
Y29227D01*
X22988Y29248D01*
X23157Y29079D01*
Y28335D01*
X24047D01*
Y29224D01*
X23303D01*
X23135Y29393D01*
Y29487D01*
X23138Y29535D01*
X24028D01*
Y30311D01*
X24074Y30330D01*
X24196Y30208D01*
D02*
G37*
G36*
X7704Y28696D02*
X8277D01*
X8282Y28646D01*
X8218Y28633D01*
X8158Y28594D01*
X8119Y28534D01*
X8105Y28465D01*
X8119Y28395D01*
X8158Y28335D01*
X8218Y28296D01*
X8287Y28282D01*
X8357Y28296D01*
X8417Y28335D01*
X8434Y28361D01*
X8532D01*
Y28138D01*
X8932D01*
X8955Y28090D01*
X8622Y27757D01*
X8004Y28375D01*
Y28555D01*
X7591D01*
X7558Y28593D01*
X7668Y28703D01*
X7704Y28696D01*
D02*
G37*
G36*
X21311Y36898D02*
Y36425D01*
X20824D01*
Y37083D01*
X20121D01*
Y36425D01*
X19731D01*
X19714Y36475D01*
X19723Y36482D01*
X19779Y36555D01*
X19815Y36641D01*
X19827Y36732D01*
X19815Y36824D01*
X19779Y36909D01*
X19723Y36983D01*
X19650Y37039D01*
X19564Y37074D01*
X19472Y37086D01*
X19381Y37074D01*
X19295Y37039D01*
X19222Y36983D01*
X19166Y36909D01*
X19130Y36824D01*
X19118Y36732D01*
X19130Y36641D01*
X19166Y36555D01*
X19222Y36482D01*
X19258Y36454D01*
X19241Y36404D01*
X18703D01*
X18686Y36454D01*
X18723Y36482D01*
X18779Y36555D01*
X18815Y36641D01*
X18827Y36732D01*
X18815Y36824D01*
X18779Y36909D01*
X18723Y36983D01*
X18650Y37039D01*
X18564Y37074D01*
X18472Y37086D01*
X18381Y37074D01*
X18295Y37039D01*
X18222Y36983D01*
X18166Y36909D01*
X18130Y36824D01*
X18118Y36732D01*
X18130Y36641D01*
X18166Y36555D01*
X18222Y36482D01*
X18258Y36454D01*
X18241Y36404D01*
X17703D01*
X17686Y36454D01*
X17723Y36482D01*
X17779Y36555D01*
X17815Y36641D01*
X17827Y36732D01*
X17815Y36824D01*
X17779Y36909D01*
X17723Y36983D01*
X17650Y37039D01*
X17564Y37074D01*
X17472Y37086D01*
X17381Y37074D01*
X17295Y37039D01*
X17222Y36983D01*
X17166Y36909D01*
X17130Y36824D01*
X17118Y36732D01*
X17130Y36641D01*
X17166Y36555D01*
X17222Y36482D01*
X17258Y36454D01*
X17241Y36404D01*
X16703D01*
X16686Y36450D01*
X16685Y36453D01*
X16723Y36482D01*
X16779Y36555D01*
X16815Y36641D01*
X16827Y36732D01*
X16815Y36824D01*
X16779Y36909D01*
X16723Y36983D01*
X16650Y37039D01*
X16564Y37074D01*
X16472Y37086D01*
X16381Y37074D01*
X16295Y37039D01*
X16222Y36983D01*
X16166Y36909D01*
X16130Y36824D01*
X16118Y36732D01*
X16130Y36641D01*
X16166Y36555D01*
X16222Y36482D01*
X16295Y36426D01*
X16345Y36405D01*
X16356Y36346D01*
X16109Y36099D01*
X16063Y36118D01*
Y36337D01*
X16047Y36377D01*
X15974Y36449D01*
X15935Y36466D01*
X15703D01*
X15686Y36459D01*
X15669Y36454D01*
X15644Y36435D01*
X15561Y36401D01*
X15472Y36389D01*
X15384Y36401D01*
X15301Y36435D01*
X15276Y36454D01*
X15259Y36459D01*
X15242Y36466D01*
X14774D01*
X14749Y36516D01*
X14779Y36555D01*
X14815Y36641D01*
X14827Y36732D01*
X14815Y36824D01*
X14779Y36909D01*
X14733Y36969D01*
X14752Y37019D01*
X15250D01*
X15289Y37035D01*
X15804Y37549D01*
X15810Y37566D01*
X15819Y37581D01*
X15825Y37627D01*
X15870Y37734D01*
X15942Y37828D01*
X17603Y39489D01*
X17610Y39506D01*
X17619Y39521D01*
X17624Y39559D01*
X17668Y39666D01*
X17738Y39757D01*
X17830Y39828D01*
X17937Y39872D01*
X18058Y39888D01*
X18072Y39896D01*
X18088Y39901D01*
X18104Y39916D01*
X18105Y39917D01*
X18107Y39918D01*
X18114Y39936D01*
X18123Y39954D01*
X18122Y39956D01*
X18123Y39957D01*
Y40021D01*
X18169Y40040D01*
X21311Y36898D01*
D02*
G37*
G36*
X18049Y41992D02*
X18041Y41981D01*
X17991Y41861D01*
X17974Y41732D01*
Y40441D01*
X17991Y40312D01*
X18041Y40192D01*
X18068Y40157D01*
Y39957D01*
X18051Y39943D01*
X17922Y39926D01*
X17802Y39876D01*
X17699Y39797D01*
X17620Y39694D01*
X17570Y39573D01*
X17564Y39529D01*
X15900Y37865D01*
X15821Y37762D01*
X15771Y37642D01*
X15764Y37589D01*
X15250Y37074D01*
X14564D01*
X14564Y37074D01*
X14472Y37086D01*
X14381Y37074D01*
X14381Y37074D01*
X13564D01*
X13564Y37074D01*
X13472Y37086D01*
X13381Y37074D01*
X13295Y37039D01*
X13222Y36983D01*
X13166Y36909D01*
X13130Y36824D01*
X13118Y36732D01*
X13130Y36641D01*
X13166Y36555D01*
X13222Y36482D01*
X13295Y36426D01*
X13381Y36390D01*
X13472Y36378D01*
X13564Y36390D01*
X13613Y36410D01*
X14332D01*
X14381Y36390D01*
X14472Y36378D01*
X14564Y36390D01*
X14613Y36410D01*
X15242D01*
X15273Y36387D01*
X15369Y36347D01*
X15472Y36333D01*
X15576Y36347D01*
X15672Y36387D01*
X15703Y36410D01*
X15935D01*
X16008Y36337D01*
Y36026D01*
X15535Y35554D01*
Y35426D01*
X15130D01*
X15069Y35439D01*
X14999Y35425D01*
X14940Y35385D01*
X14900Y35326D01*
X14896Y35304D01*
X14636Y35044D01*
X14528D01*
X14489Y35036D01*
X14455Y35014D01*
X14265Y34823D01*
X14242Y34790D01*
X14235Y34750D01*
Y34657D01*
X12873D01*
X11934Y35596D01*
Y37407D01*
X12468Y37941D01*
X14405D01*
X14534Y37958D01*
X14654Y38008D01*
X14758Y38087D01*
X15747Y39077D01*
X15827Y39180D01*
X15877Y39301D01*
X15894Y39430D01*
Y40122D01*
X16763Y40991D01*
X16763Y40991D01*
X16842Y41094D01*
X16892Y41215D01*
X16909Y41344D01*
Y41494D01*
X16954Y41603D01*
X16971Y41732D01*
X16971Y41732D01*
Y41878D01*
X17159Y42066D01*
X17974D01*
X18049Y41992D01*
D02*
G37*
G36*
X7639Y36903D02*
X7083Y36346D01*
X6339D01*
X6110Y36118D01*
X5082D01*
X5114Y37210D01*
X7606D01*
X7639Y37243D01*
Y36903D01*
D02*
G37*
%LPC*%
G36*
X13472Y42086D02*
X13381Y42074D01*
X13295Y42039D01*
X13222Y41983D01*
X13166Y41909D01*
X13130Y41824D01*
X13118Y41732D01*
X13130Y41641D01*
X13166Y41555D01*
X13222Y41482D01*
X13295Y41426D01*
X13381Y41390D01*
X13472Y41378D01*
X13564Y41390D01*
X13650Y41426D01*
X13723Y41482D01*
X13779Y41555D01*
X13815Y41641D01*
X13827Y41732D01*
X13815Y41824D01*
X13779Y41909D01*
X13723Y41983D01*
X13650Y42039D01*
X13564Y42074D01*
X13472Y42086D01*
D02*
G37*
G36*
X22957Y42931D02*
X22539D01*
Y42513D01*
X22637D01*
Y42097D01*
X22492D01*
Y41601D01*
X23007D01*
Y42097D01*
X22862D01*
Y42513D01*
X22957D01*
Y42931D01*
D02*
G37*
G36*
X5906Y43598D02*
X5772Y43585D01*
X5644Y43546D01*
X5525Y43482D01*
X5422Y43397D01*
X5336Y43294D01*
X5273Y43175D01*
X5234Y43047D01*
X5221Y42913D01*
X5234Y42780D01*
X5273Y42651D01*
X5336Y42533D01*
X5422Y42429D01*
X5525Y42344D01*
X5644Y42281D01*
X5772Y42242D01*
X5906Y42229D01*
X6039Y42242D01*
X6167Y42281D01*
X6286Y42344D01*
X6389Y42429D01*
X6475Y42533D01*
X6538Y42651D01*
X6577Y42780D01*
X6590Y42913D01*
X6577Y43047D01*
X6538Y43175D01*
X6475Y43294D01*
X6389Y43397D01*
X6286Y43482D01*
X6167Y43546D01*
X6039Y43585D01*
X5906Y43598D01*
D02*
G37*
G36*
X20972Y30196D02*
X20882Y30184D01*
X20798Y30149D01*
X20725Y30094D01*
X20670Y30021D01*
X20635Y29937D01*
X20623Y29846D01*
X20635Y29756D01*
X20670Y29672D01*
X20725Y29599D01*
X20798Y29544D01*
X20882Y29509D01*
X20972Y29497D01*
X21063Y29509D01*
X21147Y29544D01*
X21220Y29599D01*
X21275Y29672D01*
X21310Y29756D01*
X21322Y29846D01*
X21310Y29937D01*
X21275Y30021D01*
X21220Y30094D01*
X21147Y30149D01*
X21063Y30184D01*
X20972Y30196D01*
D02*
G37*
G36*
X19972D02*
X19882Y30184D01*
X19798Y30149D01*
X19725Y30094D01*
X19670Y30021D01*
X19635Y29937D01*
X19623Y29846D01*
X19635Y29756D01*
X19670Y29672D01*
X19725Y29599D01*
X19798Y29544D01*
X19882Y29509D01*
X19972Y29497D01*
X20063Y29509D01*
X20147Y29544D01*
X20220Y29599D01*
X20275Y29672D01*
X20310Y29756D01*
X20322Y29846D01*
X20310Y29937D01*
X20275Y30021D01*
X20220Y30094D01*
X20147Y30149D01*
X20063Y30184D01*
X19972Y30196D01*
D02*
G37*
G36*
X12539Y28874D02*
X12244D01*
X12234Y28870D01*
X12193D01*
Y28850D01*
X11780Y28535D01*
X10598D01*
Y28442D01*
X10478D01*
X10376Y28543D01*
X10294Y28598D01*
X10198Y28617D01*
X10101Y28598D01*
X10019Y28543D01*
X9964Y28461D01*
X9945Y28365D01*
X9964Y28268D01*
X10019Y28186D01*
X10194Y28010D01*
X10276Y27955D01*
X10373Y27936D01*
X10598D01*
Y27843D01*
X11803D01*
Y27906D01*
X12147Y28249D01*
X12193Y28230D01*
Y28138D01*
X12591D01*
Y28374D01*
Y28415D01*
X12595Y28425D01*
Y28819D01*
X12591Y28829D01*
Y28856D01*
X12577Y28870D01*
X12550D01*
X12539Y28874D01*
D02*
G37*
G36*
X27559Y28637D02*
X27426Y28624D01*
X27297Y28585D01*
X27179Y28522D01*
X27075Y28437D01*
X26990Y28333D01*
X26927Y28215D01*
X26888Y28086D01*
X26875Y27953D01*
X26888Y27819D01*
X26927Y27691D01*
X26990Y27573D01*
X27075Y27469D01*
X27179Y27384D01*
X27297Y27320D01*
X27426Y27282D01*
X27559Y27268D01*
X27693Y27282D01*
X27821Y27320D01*
X27939Y27384D01*
X28043Y27469D01*
X28128Y27573D01*
X28191Y27691D01*
X28230Y27819D01*
X28243Y27953D01*
X28230Y28086D01*
X28191Y28215D01*
X28128Y28333D01*
X28043Y28437D01*
X27939Y28522D01*
X27821Y28585D01*
X27693Y28624D01*
X27559Y28637D01*
D02*
G37*
G36*
X14447Y44550D02*
X14329Y44534D01*
X14219Y44489D01*
X14125Y44416D01*
X14053Y44322D01*
X14007Y44212D01*
X13992Y44094D01*
X14007Y43977D01*
X14053Y43867D01*
X14125Y43773D01*
X14219Y43700D01*
X14329Y43655D01*
X14447Y43639D01*
X14565Y43655D01*
X14674Y43700D01*
X14769Y43773D01*
X14841Y43867D01*
X14886Y43977D01*
X14902Y44094D01*
X14886Y44212D01*
X14841Y44322D01*
X14769Y44416D01*
X14674Y44489D01*
X14565Y44534D01*
X14447Y44550D01*
D02*
G37*
G36*
X20972Y27196D02*
X20882Y27184D01*
X20798Y27149D01*
X20725Y27094D01*
X20670Y27021D01*
X20635Y26937D01*
X20623Y26846D01*
X20635Y26756D01*
X20670Y26672D01*
X20725Y26599D01*
X20798Y26544D01*
X20882Y26509D01*
X20972Y26497D01*
X21063Y26509D01*
X21147Y26544D01*
X21220Y26599D01*
X21275Y26672D01*
X21310Y26756D01*
X21322Y26846D01*
X21310Y26937D01*
X21275Y27021D01*
X21220Y27094D01*
X21147Y27149D01*
X21063Y27184D01*
X20972Y27196D01*
D02*
G37*
G36*
X19972D02*
X19882Y27184D01*
X19798Y27149D01*
X19725Y27094D01*
X19670Y27021D01*
X19635Y26937D01*
X19623Y26846D01*
X19635Y26756D01*
X19670Y26672D01*
X19725Y26599D01*
X19798Y26544D01*
X19882Y26509D01*
X19972Y26497D01*
X20063Y26509D01*
X20147Y26544D01*
X20220Y26599D01*
X20275Y26672D01*
X20310Y26756D01*
X20322Y26846D01*
X20310Y26937D01*
X20275Y27021D01*
X20220Y27094D01*
X20147Y27149D01*
X20063Y27184D01*
X19972Y27196D01*
D02*
G37*
G36*
X5906Y28637D02*
X5772Y28624D01*
X5644Y28585D01*
X5525Y28522D01*
X5422Y28437D01*
X5336Y28333D01*
X5273Y28215D01*
X5234Y28086D01*
X5221Y27953D01*
X5234Y27819D01*
X5273Y27691D01*
X5336Y27573D01*
X5422Y27469D01*
X5525Y27384D01*
X5644Y27320D01*
X5772Y27282D01*
X5906Y27268D01*
X6039Y27282D01*
X6167Y27320D01*
X6286Y27384D01*
X6389Y27469D01*
X6475Y27573D01*
X6538Y27691D01*
X6577Y27819D01*
X6590Y27953D01*
X6577Y28086D01*
X6538Y28215D01*
X6475Y28333D01*
X6389Y28437D01*
X6286Y28522D01*
X6167Y28585D01*
X6039Y28624D01*
X5906Y28637D01*
D02*
G37*
G36*
X18972Y27196D02*
X18882Y27184D01*
X18798Y27149D01*
X18725Y27094D01*
X18670Y27021D01*
X18635Y26937D01*
X18623Y26846D01*
X18635Y26756D01*
X18670Y26672D01*
X18725Y26599D01*
X18798Y26544D01*
X18882Y26509D01*
X18972Y26497D01*
X19063Y26509D01*
X19147Y26544D01*
X19220Y26599D01*
X19275Y26672D01*
X19310Y26756D01*
X19322Y26846D01*
X19310Y26937D01*
X19275Y27021D01*
X19220Y27094D01*
X19147Y27149D01*
X19063Y27184D01*
X18972Y27196D01*
D02*
G37*
G36*
X27559Y43598D02*
X27426Y43585D01*
X27297Y43546D01*
X27179Y43482D01*
X27075Y43397D01*
X26990Y43294D01*
X26927Y43175D01*
X26888Y43047D01*
X26875Y42913D01*
X26888Y42780D01*
X26927Y42651D01*
X26990Y42533D01*
X27075Y42429D01*
X27179Y42344D01*
X27297Y42281D01*
X27426Y42242D01*
X27559Y42229D01*
X27693Y42242D01*
X27821Y42281D01*
X27939Y42344D01*
X28043Y42429D01*
X28128Y42533D01*
X28191Y42651D01*
X28230Y42780D01*
X28243Y42913D01*
X28230Y43047D01*
X28191Y43175D01*
X28128Y43294D01*
X28043Y43397D01*
X27939Y43482D01*
X27821Y43546D01*
X27693Y43585D01*
X27559Y43598D01*
D02*
G37*
G36*
X19027Y33793D02*
X18957Y33779D01*
X18898Y33740D01*
X18858Y33681D01*
X18844Y33611D01*
X18858Y33541D01*
X18859Y33539D01*
X18565Y33245D01*
X18529Y33252D01*
X18529Y33252D01*
X16836D01*
X16781Y33288D01*
X16711Y33302D01*
X16642Y33288D01*
X16582Y33249D01*
X16543Y33189D01*
X16529Y33119D01*
X16543Y33049D01*
X16582Y32990D01*
X16642Y32951D01*
X16711Y32937D01*
X16781Y32951D01*
X16836Y32987D01*
X18475D01*
X18484Y32977D01*
X18484Y32977D01*
X18527Y32948D01*
X18578Y32938D01*
X18629Y32948D01*
X18672Y32977D01*
X19120Y33426D01*
X19120Y33426D01*
X19149Y33469D01*
X19151Y33478D01*
X19156Y33481D01*
X19196Y33541D01*
X19209Y33611D01*
X19196Y33681D01*
X19156Y33740D01*
X19097Y33779D01*
X19027Y33793D01*
D02*
G37*
G36*
X12563Y32759D02*
X12067D01*
Y32515D01*
X9898D01*
X9882Y32539D01*
X9823Y32578D01*
X9754Y32592D01*
X9685Y32578D01*
X9626Y32539D01*
X9587Y32481D01*
X9573Y32411D01*
X9587Y32342D01*
X9626Y32284D01*
X9667Y32257D01*
X9669Y32251D01*
X9667Y32201D01*
X9622Y32171D01*
X9583Y32113D01*
X9569Y32044D01*
X9583Y31975D01*
X9622Y31916D01*
X9681Y31877D01*
X9750Y31863D01*
X9819Y31877D01*
X9878Y31916D01*
X9894Y31941D01*
X11869D01*
X12078Y31731D01*
Y31361D01*
X12574D01*
Y31896D01*
X12205D01*
X11984Y32117D01*
X11951Y32139D01*
X11911Y32147D01*
X9894D01*
X9878Y32171D01*
X9837Y32198D01*
X9835Y32205D01*
X9837Y32254D01*
X9882Y32284D01*
X9898Y32308D01*
X12067D01*
Y32224D01*
X12563D01*
Y32759D01*
D02*
G37*
G36*
X4882Y33655D02*
X4746Y33642D01*
X4616Y33602D01*
X4496Y33538D01*
X4391Y33452D01*
X4304Y33346D01*
X4240Y33226D01*
X4201Y33096D01*
X4187Y32961D01*
X4201Y32825D01*
X4240Y32695D01*
X4304Y32575D01*
X4391Y32470D01*
X4496Y32383D01*
X4616Y32319D01*
X4746Y32279D01*
X4882Y32266D01*
X5017Y32279D01*
X5148Y32319D01*
X5268Y32383D01*
X5373Y32470D01*
X5459Y32575D01*
X5524Y32695D01*
X5563Y32825D01*
X5576Y32961D01*
X5563Y33096D01*
X5524Y33226D01*
X5459Y33346D01*
X5373Y33452D01*
X5268Y33538D01*
X5148Y33602D01*
X5017Y33642D01*
X4882Y33655D01*
D02*
G37*
G36*
X28285Y34223D02*
X28181Y34209D01*
X28083Y34169D01*
X27999Y34105D01*
X27935Y34021D01*
X27894Y33923D01*
X27881Y33818D01*
X27894Y33714D01*
X27935Y33616D01*
X27999Y33532D01*
X28083Y33468D01*
X28181Y33428D01*
X28285Y33414D01*
X28390Y33428D01*
X28488Y33468D01*
X28571Y33532D01*
X28636Y33616D01*
X28676Y33714D01*
X28690Y33818D01*
X28676Y33923D01*
X28636Y34021D01*
X28571Y34105D01*
X28488Y34169D01*
X28390Y34209D01*
X28285Y34223D01*
D02*
G37*
G36*
X27165Y35843D02*
X27061Y35829D01*
X26963Y35789D01*
X26879Y35725D01*
X26815Y35641D01*
X26774Y35543D01*
X26761Y35438D01*
X26774Y35334D01*
X26815Y35236D01*
X26879Y35152D01*
X26963Y35088D01*
X27061Y35048D01*
X27165Y35034D01*
X27270Y35048D01*
X27368Y35088D01*
X27451Y35152D01*
X27516Y35236D01*
X27556Y35334D01*
X27570Y35438D01*
X27556Y35543D01*
X27516Y35641D01*
X27451Y35725D01*
X27368Y35789D01*
X27270Y35829D01*
X27165Y35843D01*
D02*
G37*
G36*
Y36923D02*
X27061Y36909D01*
X26963Y36869D01*
X26879Y36805D01*
X26815Y36721D01*
X26774Y36623D01*
X26761Y36518D01*
X26774Y36414D01*
X26815Y36316D01*
X26879Y36232D01*
X26963Y36168D01*
X27061Y36128D01*
X27165Y36114D01*
X27270Y36128D01*
X27368Y36168D01*
X27451Y36232D01*
X27516Y36316D01*
X27556Y36414D01*
X27570Y36518D01*
X27556Y36623D01*
X27516Y36721D01*
X27451Y36805D01*
X27368Y36869D01*
X27270Y36909D01*
X27165Y36923D01*
D02*
G37*
G36*
X28285Y37463D02*
X28181Y37449D01*
X28083Y37409D01*
X27999Y37345D01*
X27935Y37261D01*
X27894Y37163D01*
X27881Y37058D01*
X27894Y36954D01*
X27935Y36856D01*
X27999Y36772D01*
X28083Y36708D01*
X28181Y36668D01*
X28285Y36654D01*
X28390Y36668D01*
X28488Y36708D01*
X28571Y36772D01*
X28636Y36856D01*
X28676Y36954D01*
X28690Y37058D01*
X28676Y37163D01*
X28636Y37261D01*
X28571Y37345D01*
X28488Y37409D01*
X28390Y37449D01*
X28285Y37463D01*
D02*
G37*
G36*
X22319Y30193D02*
X21626D01*
Y29500D01*
X22319D01*
Y30193D01*
D02*
G37*
G36*
X27725Y41364D02*
X27529Y41345D01*
X27340Y41288D01*
X27166Y41195D01*
X27014Y41070D01*
X26889Y40917D01*
X26796Y40743D01*
X26739Y40555D01*
X26719Y40358D01*
X26739Y40162D01*
X26796Y39973D01*
X26889Y39800D01*
X27014Y39647D01*
X27166Y39522D01*
X27340Y39429D01*
X27529Y39372D01*
X27725Y39352D01*
X27922Y39372D01*
X28110Y39429D01*
X28284Y39522D01*
X28437Y39647D01*
X28562Y39800D01*
X28655Y39973D01*
X28712Y40162D01*
X28731Y40358D01*
X28712Y40555D01*
X28655Y40743D01*
X28562Y40917D01*
X28437Y41070D01*
X28284Y41195D01*
X28110Y41288D01*
X27922Y41345D01*
X27725Y41364D01*
D02*
G37*
G36*
Y31524D02*
X27529Y31505D01*
X27340Y31448D01*
X27166Y31355D01*
X27014Y31230D01*
X26889Y31077D01*
X26796Y30903D01*
X26739Y30715D01*
X26719Y30518D01*
X26739Y30322D01*
X26796Y30133D01*
X26889Y29960D01*
X27014Y29807D01*
X27166Y29682D01*
X27340Y29589D01*
X27529Y29532D01*
X27725Y29512D01*
X27922Y29532D01*
X28110Y29589D01*
X28284Y29682D01*
X28437Y29807D01*
X28562Y29960D01*
X28655Y30133D01*
X28712Y30322D01*
X28731Y30518D01*
X28712Y30715D01*
X28655Y30903D01*
X28562Y31077D01*
X28437Y31230D01*
X28284Y31355D01*
X28110Y31448D01*
X27922Y31505D01*
X27725Y31524D01*
D02*
G37*
G36*
X13115Y32759D02*
X12618D01*
Y32224D01*
X13115D01*
Y32389D01*
X13719D01*
X13730Y32334D01*
X13769Y32274D01*
X13829Y32235D01*
X13898Y32221D01*
X13968Y32235D01*
X14028Y32274D01*
X14067Y32334D01*
X14081Y32404D01*
X14067Y32473D01*
X14028Y32533D01*
X13968Y32572D01*
X13898Y32586D01*
X13848Y32576D01*
X13832Y32587D01*
X13792Y32595D01*
X13115D01*
Y32759D01*
D02*
G37*
G36*
X27340Y38004D02*
X26990D01*
X26902Y37986D01*
X26827Y37936D01*
X26777Y37862D01*
X26760Y37773D01*
Y37423D01*
X26777Y37335D01*
X26827Y37260D01*
X26902Y37210D01*
X26990Y37193D01*
X27340D01*
X27429Y37210D01*
X27503Y37260D01*
X27553Y37335D01*
X27571Y37423D01*
Y37773D01*
X27553Y37862D01*
X27503Y37936D01*
X27429Y37986D01*
X27340Y38004D01*
D02*
G37*
G36*
X13126Y31896D02*
X12630D01*
Y31361D01*
X13126D01*
Y31434D01*
X13170Y31457D01*
X13176Y31453D01*
X13246Y31439D01*
X13316Y31453D01*
X13375Y31493D01*
X13414Y31552D01*
X13428Y31622D01*
X13414Y31692D01*
X13375Y31751D01*
X13316Y31791D01*
X13246Y31805D01*
X13176Y31791D01*
X13170Y31787D01*
X13126Y31810D01*
Y31896D01*
D02*
G37*
%LPD*%
G36*
X12539Y28425D02*
X12264D01*
X12244Y28445D01*
Y28425D01*
X11752Y27933D01*
Y28445D01*
X12244Y28819D01*
X12539D01*
Y28425D01*
D02*
G37*
D10*
X12942Y28740D02*
D03*
D11*
X13593Y29213D02*
D03*
Y28976D02*
D03*
Y28740D02*
D03*
Y28504D02*
D03*
Y28268D02*
D03*
X12392D02*
D03*
Y28504D02*
D03*
Y28740D02*
D03*
Y28976D02*
D03*
Y29213D02*
D03*
D12*
X11201Y29370D02*
D03*
Y28189D02*
D03*
X14606Y28150D02*
D03*
Y29331D02*
D03*
X16142Y28150D02*
D03*
Y29331D02*
D03*
D13*
X24841Y41849D02*
D03*
X24290D02*
D03*
X12867Y32492D02*
D03*
X12315D02*
D03*
X12878Y31629D02*
D03*
X12326D02*
D03*
D14*
X22750Y41849D02*
D03*
X23340D02*
D03*
D15*
X23378Y42722D02*
D03*
X22748D02*
D03*
X24910Y42731D02*
D03*
X24280D02*
D03*
X9370Y28346D02*
D03*
X8740D02*
D03*
X7795D02*
D03*
X7165D02*
D03*
D16*
X17506Y28084D02*
D03*
X18077D02*
D03*
D17*
X16731Y30784D02*
X22103D01*
X16142Y30474D02*
X19073D01*
X12870Y29213D02*
X12942Y29140D01*
Y28340D02*
Y28740D01*
X22103Y30784D02*
X22106Y30787D01*
X8980Y40043D02*
X9033Y39991D01*
X6214Y36059D02*
X6583D01*
X6164Y36009D02*
X6214Y36059D01*
X5694Y36009D02*
X6164D01*
X5394Y35709D02*
X5694Y36009D01*
X5394Y35453D02*
Y35709D01*
X19073Y30474D02*
X19449Y30098D01*
X16869Y35394D02*
X18149D01*
X18191Y35436D01*
X13918Y33577D02*
X13940Y33555D01*
X13954D01*
X19449Y29226D02*
X20607D01*
X22133Y27700D01*
Y27316D02*
Y27700D01*
Y27316D02*
X22776Y26673D01*
X19449Y29226D02*
Y30098D01*
X21821Y31742D02*
X23583Y29980D01*
X16752Y31742D02*
X21821D01*
X16644Y31850D02*
X16752Y31742D01*
X14338Y34750D02*
X14528Y34941D01*
X14338Y34561D02*
Y34750D01*
Y34561D02*
X14472Y34426D01*
X14723D01*
X14735Y34438D01*
X11911Y32044D02*
X12326Y31629D01*
X9750Y32044D02*
X11911D01*
X7355Y34908D02*
X9143Y33120D01*
X6391Y34908D02*
X7355D01*
X6024Y35276D02*
X6391Y34908D01*
X6851Y35657D02*
X10249Y39055D01*
X7024Y36059D02*
X10276Y39311D01*
X24841Y41259D02*
X24845Y41255D01*
X6819Y35657D02*
X6851D01*
X9018Y33459D02*
X13415D01*
X6819Y35657D02*
X9018Y33459D01*
X5571Y35276D02*
X6024D01*
X5394Y35453D02*
X5571Y35276D01*
X22106Y30787D02*
X22835Y30059D01*
X7795Y28346D02*
X7874D01*
X16472Y43120D02*
X16535Y43183D01*
X23031Y29350D02*
Y30197D01*
Y29350D02*
X23602Y28780D01*
X24583Y29980D02*
X24602Y29961D01*
X22835Y28346D02*
Y30059D01*
Y28346D02*
X23622Y27559D01*
X23736Y26673D02*
X24622Y27559D01*
X22776Y26673D02*
X23736D01*
X6583Y36059D02*
X7024D01*
X5882Y35657D02*
X6819D01*
X22722Y41877D02*
X22750Y41849D01*
X22732Y42722D02*
X22750Y42705D01*
X22732Y42722D02*
Y42737D01*
X24280Y41859D02*
X24290Y41849D01*
X12867Y32492D02*
X13792D01*
X13880Y32404D01*
X13898D01*
X12884Y31622D02*
X13246D01*
X12878Y31629D02*
X12884Y31622D01*
X8723Y28363D02*
X8740Y28346D01*
X8723Y28363D02*
X8733Y28373D01*
X16580Y35106D02*
X16869Y35394D01*
X16580Y35068D02*
Y35106D01*
X16398Y34350D02*
X16518Y34470D01*
X16634Y31457D02*
X21575D01*
X21673Y31555D01*
X23031Y30197D01*
X12235Y32411D02*
X12315Y32492D01*
X9754Y32411D02*
X12235D01*
X7165Y28346D02*
X7661Y28842D01*
X7704Y28799D01*
X9117D01*
X8641Y28465D02*
X8733Y28373D01*
X8287Y28465D02*
X8641D01*
X16518Y34470D02*
Y35005D01*
X16580Y35068D01*
X9143Y33120D02*
X13461D01*
X13918Y33577D01*
X14941Y34941D02*
X15108Y35108D01*
X15069Y35148D02*
X15108Y35108D01*
X14823Y34350D02*
X16398D01*
X14567Y34656D02*
X15699D01*
X14735Y34438D02*
X14823Y34350D01*
X14528Y34941D02*
X14941D01*
X15069Y35148D02*
Y35256D01*
X16024Y34980D02*
X16053D01*
X15699Y34656D02*
X16024Y34980D01*
X10276Y39311D02*
X13103D01*
X10249Y39055D02*
X13081D01*
D18*
X6516Y37323D02*
Y40282D01*
X8319Y42085D01*
X10006D01*
Y43172D02*
X10447Y43613D01*
X10006Y42085D02*
Y43172D01*
D19*
X17133Y34793D02*
X22190D01*
X23042Y35646D01*
X18472Y40441D02*
Y41732D01*
Y40441D02*
X21809Y37105D01*
X16253Y37513D02*
X18051Y39311D01*
Y39444D01*
X11375Y37661D02*
X12154Y38440D01*
X11375Y35385D02*
Y37661D01*
Y35385D02*
X12597Y34163D01*
X15472Y41732D02*
Y43620D01*
X15947Y44094D01*
X16535Y43183D02*
X17447Y44094D01*
X17472Y41732D02*
Y42620D01*
X21566Y35927D02*
X21809Y36170D01*
Y37105D01*
X19447Y35927D02*
X21566D01*
X23042Y35646D02*
Y37569D01*
X22387Y38224D02*
X23042Y37569D01*
D20*
X18529Y33119D02*
X18578Y33071D01*
X16711Y33119D02*
X18529D01*
X19027Y33520D02*
Y33611D01*
X18578Y33071D02*
X19027Y33520D01*
D21*
X27680Y34293D02*
X28285Y34898D01*
X27680Y33078D02*
Y34293D01*
X24583Y29980D02*
X27680Y33078D01*
X23683Y38559D02*
Y42407D01*
X23688Y42412D01*
X23652Y38529D02*
X23683Y38559D01*
X22299Y32264D02*
X24583Y29980D01*
X19346Y32264D02*
X22299D01*
X25217Y26181D02*
X25827Y26791D01*
X22638Y26181D02*
X25217D01*
X21972Y26846D02*
X22638Y26181D01*
X21972Y26846D02*
Y27634D01*
X8622Y26811D02*
Y27598D01*
X7874Y28346D02*
X8622Y27598D01*
X9370Y28346D01*
X18457Y29331D02*
X18972Y29846D01*
X16142Y29331D02*
X18457D01*
X24602Y28780D02*
X25823Y27559D01*
X25827Y26791D02*
Y27559D01*
X28285Y34898D02*
X28937Y35550D01*
X24602Y28780D02*
Y29961D01*
X8622Y26811D02*
X9252Y26181D01*
X21307D01*
X21972Y26846D01*
X22750Y41849D02*
Y42705D01*
X24280Y41859D02*
Y42731D01*
X28937Y35550D02*
Y40982D01*
X27954Y41966D02*
X28937Y40982D01*
X25675Y41966D02*
X27954D01*
X24910Y42731D02*
X25675Y41966D01*
X19472Y41732D02*
Y42554D01*
X20030Y43111D01*
X24530D01*
X24910Y42731D01*
X18346Y32264D02*
X20106Y34023D01*
X22549D01*
X24344Y35819D01*
Y37933D01*
X23378Y42722D02*
X23688Y42412D01*
X17364Y31211D02*
X17408Y31167D01*
X15837Y31211D02*
X17364D01*
X23338Y38287D02*
X23525Y38100D01*
X24176D01*
X24344Y37933D01*
X21457Y28150D02*
X21972Y27634D01*
D22*
X15395Y39430D02*
Y40329D01*
X16410Y41344D01*
Y41670D01*
X16472Y41732D01*
X17472Y42620D02*
X18947Y44094D01*
X16472Y41732D02*
Y43120D01*
X14405Y38440D02*
X15395Y39430D01*
X12154Y38440D02*
X14405D01*
D23*
X24841Y41259D02*
Y41849D01*
X23326Y41276D02*
Y41835D01*
D24*
X10198Y28365D02*
X10373Y28189D01*
X11201D01*
D25*
X12942Y29140D02*
X13330Y29528D01*
X14409D01*
X18077Y28084D02*
X21391D01*
X21429Y28122D01*
X17506Y27560D02*
Y28084D01*
X17180Y27234D02*
X17506Y27560D01*
X18077Y27294D02*
Y28084D01*
Y27294D02*
X18106Y27265D01*
D26*
X16996Y34809D02*
X17133Y34793D01*
D27*
X15472Y36732D02*
X16253Y37513D01*
D28*
X15443Y33573D02*
D03*
D29*
X11388Y40090D02*
D03*
D30*
X14465Y40921D02*
D03*
D31*
X13435Y34081D02*
D03*
D32*
X15392Y35193D02*
D03*
D33*
X18077Y35989D02*
D03*
D34*
X17343Y28064D02*
D03*
D35*
X5906Y27953D02*
D03*
X27559Y42913D02*
D03*
X5906D02*
D03*
X27559Y27953D02*
D03*
X19472Y41732D02*
D03*
X18472D02*
D03*
X17472D02*
D03*
X16472D02*
D03*
X15472D02*
D03*
X14472D02*
D03*
X13472D02*
D03*
X19472Y36732D02*
D03*
X18472D02*
D03*
X17472D02*
D03*
X16472D02*
D03*
X15472D02*
D03*
X14472D02*
D03*
X13472D02*
D03*
X18106Y27165D02*
D03*
X17165D02*
D03*
D36*
X5882Y36457D02*
D03*
X6583Y36059D02*
D03*
X5882Y35657D02*
D03*
X6583Y35260D02*
D03*
Y36858D02*
D03*
X5882Y34858D02*
D03*
X6583Y34461D02*
D03*
X5882Y34063D02*
D03*
D37*
X4882Y37961D02*
D03*
Y32961D02*
D03*
D38*
X18972Y26846D02*
D03*
X19972D02*
D03*
X20972D02*
D03*
X21972D02*
D03*
X18972Y29846D02*
D03*
X19972D02*
D03*
X20972D02*
D03*
D39*
X21972D02*
D03*
D40*
X28285Y37058D02*
D03*
Y35978D02*
D03*
Y34898D02*
D03*
Y33818D02*
D03*
X27165Y36518D02*
D03*
Y35438D02*
D03*
Y34358D02*
D03*
Y33278D02*
D03*
D41*
Y37598D02*
D03*
D42*
X27725Y30518D02*
D03*
Y40358D02*
D03*
D43*
X20472Y41732D02*
D03*
Y36732D02*
D03*
D44*
X24622Y27559D02*
D03*
X24583Y29980D02*
D03*
X24602Y28780D02*
D03*
X19346Y32264D02*
D03*
X8980Y40043D02*
D03*
X18051Y39444D02*
D03*
X17534Y29596D02*
D03*
X12618Y30709D02*
D03*
X22387Y38224D02*
D03*
D45*
X23622Y27559D02*
D03*
X23583Y29980D02*
D03*
X23602Y28780D02*
D03*
X18346Y32264D02*
D03*
D46*
X10447Y43613D02*
D03*
D47*
X8479D02*
D03*
D48*
X14447Y44094D02*
D03*
X15947D02*
D03*
X17447D02*
D03*
D49*
X18947D02*
D03*
D50*
X16731Y30784D02*
D03*
X16142Y30474D02*
D03*
X12942Y29140D02*
D03*
Y28740D02*
D03*
X18191Y35436D02*
D03*
X13954Y33555D02*
D03*
X16711Y33119D02*
D03*
X23652Y38529D02*
D03*
X10198Y28365D02*
D03*
X19027Y33611D02*
D03*
X12942Y28340D02*
D03*
X16996Y34809D02*
D03*
X13415Y33459D02*
D03*
X13898Y32404D02*
D03*
X13246Y31622D02*
D03*
X17408Y31167D02*
D03*
X14190Y34163D02*
D03*
X23338Y38287D02*
D03*
X9117Y28799D02*
D03*
X8287Y28465D02*
D03*
X15728Y35207D02*
D03*
X15837Y31211D02*
D03*
X16644Y31850D02*
D03*
X15315Y34911D02*
D03*
X15896Y34006D02*
D03*
X15463D02*
D03*
X15030D02*
D03*
X15896Y33573D02*
D03*
X15463D02*
D03*
X15030D02*
D03*
X15896Y33140D02*
D03*
X15463D02*
D03*
X15030D02*
D03*
X14567Y34656D02*
D03*
X15069Y35256D02*
D03*
X16053Y34980D02*
D03*
D51*
X9750Y32044D02*
D03*
X9754Y32411D02*
D03*
D52*
X23326Y41276D02*
D03*
X24845Y41255D02*
D03*
D53*
X16634Y31457D02*
D03*
D54*
X13103Y39311D02*
D03*
X13081Y39055D02*
D03*
M02*
