G04 Layer_Color=25308*
%FSLAX24Y24*%
%MOIN*%
G70*
G01*
G75*
%ADD10R,0.0315X0.1181*%
%ADD11R,0.0295X0.0157*%
%ADD12R,0.1102X0.0591*%
%ADD13R,0.0394X0.0433*%
%ADD14R,0.0413X0.0394*%
%ADD15R,0.0315X0.0315*%
%ADD16R,0.0354X0.0413*%
%ADD35C,0.0600*%
%ADD36C,0.0472*%
%ADD37C,0.1280*%
%ADD38C,0.0591*%
%ADD39R,0.0591X0.0591*%
%ADD40C,0.0700*%
G04:AMPARAMS|DCode=41|XSize=70mil|YSize=70mil|CornerRadius=17.5mil|HoleSize=0mil|Usage=FLASHONLY|Rotation=90.000|XOffset=0mil|YOffset=0mil|HoleType=Round|Shape=RoundedRectangle|*
%AMROUNDEDRECTD41*
21,1,0.0700,0.0350,0,0,90.0*
21,1,0.0350,0.0700,0,0,90.0*
1,1,0.0350,0.0175,0.0175*
1,1,0.0350,0.0175,-0.0175*
1,1,0.0350,-0.0175,-0.0175*
1,1,0.0350,-0.0175,0.0175*
%
%ADD41ROUNDEDRECTD41*%
%ADD42C,0.1900*%
%ADD43R,0.0600X0.0600*%
%ADD44C,0.0787*%
%ADD45R,0.0787X0.0787*%
%ADD46C,0.1378*%
%ADD47R,0.1378X0.1378*%
%ADD48C,0.0800*%
%ADD49R,0.0800X0.0800*%
D10*
X12942Y28740D02*
D03*
D11*
X13593Y29213D02*
D03*
Y28976D02*
D03*
Y28740D02*
D03*
Y28504D02*
D03*
Y28268D02*
D03*
X12392D02*
D03*
Y28504D02*
D03*
Y28740D02*
D03*
Y28976D02*
D03*
Y29213D02*
D03*
D12*
X11201Y29370D02*
D03*
Y28189D02*
D03*
X14606Y28150D02*
D03*
Y29331D02*
D03*
X16142Y28150D02*
D03*
Y29331D02*
D03*
D13*
X24841Y41849D02*
D03*
X24290D02*
D03*
X12867Y32492D02*
D03*
X12315D02*
D03*
X12878Y31629D02*
D03*
X12326D02*
D03*
D14*
X22750Y41849D02*
D03*
X23340D02*
D03*
D15*
X23378Y42722D02*
D03*
X22748D02*
D03*
X24910Y42731D02*
D03*
X24280D02*
D03*
X9370Y28346D02*
D03*
X8740D02*
D03*
X7795D02*
D03*
X7165D02*
D03*
D16*
X17506Y28084D02*
D03*
X18077D02*
D03*
D35*
X5906Y27953D02*
D03*
X27559Y42913D02*
D03*
X5906D02*
D03*
X27559Y27953D02*
D03*
X19472Y41732D02*
D03*
X18472D02*
D03*
X17472D02*
D03*
X16472D02*
D03*
X15472D02*
D03*
X14472D02*
D03*
X13472D02*
D03*
X19472Y36732D02*
D03*
X18472D02*
D03*
X17472D02*
D03*
X16472D02*
D03*
X15472D02*
D03*
X14472D02*
D03*
X13472D02*
D03*
X18106Y27165D02*
D03*
X17165D02*
D03*
D36*
X5882Y36457D02*
D03*
X6583Y36059D02*
D03*
X5882Y35657D02*
D03*
X6583Y35260D02*
D03*
Y36858D02*
D03*
X5882Y34858D02*
D03*
X6583Y34461D02*
D03*
X5882Y34063D02*
D03*
D37*
X4882Y37961D02*
D03*
Y32961D02*
D03*
D38*
X18972Y26846D02*
D03*
X19972D02*
D03*
X20972D02*
D03*
X21972D02*
D03*
X18972Y29846D02*
D03*
X19972D02*
D03*
X20972D02*
D03*
D39*
X21972D02*
D03*
D40*
X28285Y37058D02*
D03*
Y35978D02*
D03*
Y34898D02*
D03*
Y33818D02*
D03*
X27165Y36518D02*
D03*
Y35438D02*
D03*
Y34358D02*
D03*
Y33278D02*
D03*
D41*
Y37598D02*
D03*
D42*
X27725Y30518D02*
D03*
Y40358D02*
D03*
D43*
X20472Y41732D02*
D03*
Y36732D02*
D03*
D44*
X24622Y27559D02*
D03*
X24583Y29980D02*
D03*
X24602Y28780D02*
D03*
X19346Y32264D02*
D03*
D45*
X23622Y27559D02*
D03*
X23583Y29980D02*
D03*
X23602Y28780D02*
D03*
X18346Y32264D02*
D03*
D46*
X10447Y43613D02*
D03*
D47*
X8479D02*
D03*
D48*
X14447Y44094D02*
D03*
X15947D02*
D03*
X17447D02*
D03*
D49*
X18947D02*
D03*
M02*
