G04 Layer_Color=13813960*
%FSLAX24Y24*%
%MOIN*%
G70*
G01*
G75*
%ADD17C,0.0100*%
%ADD65C,0.0059*%
%ADD66C,0.0079*%
%ADD77C,0.0098*%
D17*
X19488Y34469D02*
Y35068D01*
X19188D01*
X19088Y34968D01*
Y34768D01*
X19188Y34668D01*
X19488D01*
X19288D02*
X19088Y34469D01*
X18588D02*
Y35068D01*
X18888Y34768D01*
X18489D01*
X11043Y33839D02*
Y34438D01*
X10743D01*
X10643Y34338D01*
Y34138D01*
X10743Y34039D01*
X11043D01*
X10843D02*
X10643Y33839D01*
X10044Y34438D02*
X10444D01*
Y34138D01*
X10244Y34238D01*
X10144D01*
X10044Y34138D01*
Y33939D01*
X10144Y33839D01*
X10344D01*
X10444Y33939D01*
X7933Y35157D02*
Y35757D01*
X7633D01*
X7533Y35657D01*
Y35457D01*
X7633Y35357D01*
X7933D01*
X7733D02*
X7533Y35157D01*
X7333D02*
X7133D01*
X7233D01*
Y35757D01*
X7333Y35657D01*
X17933Y30571D02*
Y31171D01*
X17633D01*
X17533Y31071D01*
Y30871D01*
X17633Y30771D01*
X17933D01*
X17733D02*
X17533Y30571D01*
X16933D02*
X17333D01*
X16933Y30971D01*
Y31071D01*
X17033Y31171D01*
X17233D01*
X17333Y31071D01*
X11043Y32953D02*
Y33553D01*
X10743D01*
X10643Y33453D01*
Y33253D01*
X10743Y33153D01*
X11043D01*
X10843D02*
X10643Y32953D01*
X10444Y33453D02*
X10344Y33553D01*
X10144D01*
X10044Y33453D01*
Y33353D01*
X10144Y33253D01*
X10244D01*
X10144D01*
X10044Y33153D01*
Y33053D01*
X10144Y32953D01*
X10344D01*
X10444Y33053D01*
X18419Y35756D02*
X18519Y35856D01*
X18719D01*
X18819Y35756D01*
Y35356D01*
X18719Y35256D01*
X18519D01*
X18419Y35356D01*
X17819Y35856D02*
X18019Y35756D01*
X18219Y35556D01*
Y35356D01*
X18119Y35256D01*
X17919D01*
X17819Y35356D01*
Y35456D01*
X17919Y35556D01*
X18219D01*
X18655Y33403D02*
X18755Y33503D01*
X18955D01*
X19055Y33403D01*
Y33004D01*
X18955Y32904D01*
X18755D01*
X18655Y33004D01*
X18455Y33503D02*
X18055D01*
Y33403D01*
X18455Y33004D01*
Y32904D01*
X11748Y30907D02*
X11848Y31007D01*
X12048D01*
X12148Y30907D01*
Y30507D01*
X12048Y30407D01*
X11848D01*
X11748Y30507D01*
X11548Y30907D02*
X11448Y31007D01*
X11248D01*
X11148Y30907D01*
Y30807D01*
X11248Y30707D01*
X11148Y30607D01*
Y30507D01*
X11248Y30407D01*
X11448D01*
X11548Y30507D01*
Y30607D01*
X11448Y30707D01*
X11548Y30807D01*
Y30907D01*
X11448Y30707D02*
X11248D01*
X10132Y35638D02*
X10232Y35738D01*
X10432D01*
X10532Y35638D01*
Y35238D01*
X10432Y35138D01*
X10232D01*
X10132Y35238D01*
X9532Y35738D02*
X9932D01*
Y35438D01*
X9732Y35538D01*
X9632D01*
X9532Y35438D01*
Y35238D01*
X9632Y35138D01*
X9832D01*
X9932Y35238D01*
X9443Y40618D02*
X9543Y40718D01*
X9743D01*
X9843Y40618D01*
Y40218D01*
X9743Y40118D01*
X9543D01*
X9443Y40218D01*
X9243Y40118D02*
X9043D01*
X9143D01*
Y40718D01*
X9243Y40618D01*
X9443Y39220D02*
X9543Y39320D01*
X9743D01*
X9843Y39220D01*
Y38820D01*
X9743Y38720D01*
X9543D01*
X9443Y38820D01*
X8843Y38720D02*
X9243D01*
X8843Y39120D01*
Y39220D01*
X8943Y39320D01*
X9143D01*
X9243Y39220D01*
X9836Y37901D02*
X9936Y38001D01*
X10136D01*
X10236Y37901D01*
Y37502D01*
X10136Y37402D01*
X9936D01*
X9836Y37502D01*
X9636Y37901D02*
X9536Y38001D01*
X9337D01*
X9237Y37901D01*
Y37801D01*
X9337Y37701D01*
X9436D01*
X9337D01*
X9237Y37602D01*
Y37502D01*
X9337Y37402D01*
X9536D01*
X9636Y37502D01*
X10132Y36720D02*
X10232Y36820D01*
X10432D01*
X10532Y36720D01*
Y36320D01*
X10432Y36220D01*
X10232D01*
X10132Y36320D01*
X9632Y36220D02*
Y36820D01*
X9932Y36520D01*
X9532D01*
X19088Y34161D02*
X19188Y34261D01*
X19388D01*
X19488Y34161D01*
Y33761D01*
X19388Y33661D01*
X19188D01*
X19088Y33761D01*
X18888D02*
X18788Y33661D01*
X18588D01*
X18489Y33761D01*
Y34161D01*
X18588Y34261D01*
X18788D01*
X18888Y34161D01*
Y34061D01*
X18788Y33961D01*
X18489D01*
X14459Y35501D02*
Y35002D01*
X14359Y34902D01*
X14159D01*
X14059Y35002D01*
Y35501D01*
X13859Y34902D02*
X13659D01*
X13759D01*
Y35501D01*
X13859Y35401D01*
D65*
X16112Y30581D02*
X16211D01*
X16112Y30955D02*
X16211D01*
X26464Y43436D02*
X26529Y43502D01*
X26660D01*
X26726Y43436D01*
Y43371D01*
X26660Y43305D01*
X26529D01*
X26464Y43239D01*
Y43174D01*
X26529Y43108D01*
X26660D01*
X26726Y43174D01*
X26267Y43436D02*
Y43371D01*
X26332D01*
X26201D01*
X26267D01*
Y43174D01*
X26201Y43108D01*
X25808D02*
X25939D01*
X26004Y43174D01*
Y43305D01*
X25939Y43371D01*
X25808D01*
X25742Y43305D01*
Y43239D01*
X26004D01*
X25611Y42977D02*
Y43371D01*
X25414D01*
X25348Y43305D01*
Y43174D01*
X25414Y43108D01*
X25611D01*
X25217Y42977D02*
Y43371D01*
X25020D01*
X24955Y43305D01*
Y43174D01*
X25020Y43108D01*
X25217D01*
X24627D02*
X24758D01*
X24824Y43174D01*
Y43305D01*
X24758Y43371D01*
X24627D01*
X24561Y43305D01*
Y43239D01*
X24824D01*
X24430Y43371D02*
Y43108D01*
Y43239D01*
X24365Y43305D01*
X24299Y43371D01*
X24233D01*
X23643Y43502D02*
Y43108D01*
X23446D01*
X23381Y43174D01*
Y43436D01*
X23446Y43502D01*
X23643D01*
X23249Y43371D02*
Y43108D01*
Y43239D01*
X23184Y43305D01*
X23118Y43371D01*
X23053D01*
X22856Y43108D02*
X22725D01*
X22790D01*
Y43371D01*
X22856D01*
X22528D02*
X22397Y43108D01*
X22265Y43371D01*
X21937Y43108D02*
X22069D01*
X22134Y43174D01*
Y43305D01*
X22069Y43371D01*
X21937D01*
X21872Y43305D01*
Y43239D01*
X22134D01*
X21741Y43371D02*
Y43108D01*
Y43239D01*
X21675Y43305D01*
X21610Y43371D01*
X21544D01*
X20954Y43108D02*
Y43502D01*
X20757D01*
X20691Y43436D01*
Y43305D01*
X20757Y43239D01*
X20954D01*
X20298Y43436D02*
X20363Y43502D01*
X20494D01*
X20560Y43436D01*
Y43174D01*
X20494Y43108D01*
X20363D01*
X20298Y43174D01*
X20166Y43502D02*
Y43108D01*
X19970D01*
X19904Y43174D01*
Y43239D01*
X19970Y43305D01*
X20166D01*
X19970D01*
X19904Y43371D01*
Y43436D01*
X19970Y43502D01*
X20166D01*
X19379D02*
Y43239D01*
X19248Y43108D01*
X19117Y43239D01*
Y43502D01*
X18986Y43108D02*
X18855D01*
X18920D01*
Y43502D01*
X18986Y43436D01*
X18658Y43108D02*
Y43174D01*
X18592D01*
Y43108D01*
X18658D01*
X18330Y43436D02*
X18264Y43502D01*
X18133D01*
X18067Y43436D01*
Y43174D01*
X18133Y43108D01*
X18264D01*
X18330Y43174D01*
Y43436D01*
X26726Y42541D02*
Y42804D01*
X26595Y42935D01*
X26464Y42804D01*
Y42541D01*
Y42738D01*
X26726D01*
X26332Y42804D02*
Y42607D01*
X26267Y42541D01*
X26070D01*
Y42804D01*
X25873Y42869D02*
Y42804D01*
X25939D01*
X25808D01*
X25873D01*
Y42607D01*
X25808Y42541D01*
X25545D02*
X25414D01*
X25348Y42607D01*
Y42738D01*
X25414Y42804D01*
X25545D01*
X25611Y42738D01*
Y42607D01*
X25545Y42541D01*
X25217D02*
Y42804D01*
X25152D01*
X25086Y42738D01*
Y42541D01*
Y42738D01*
X25020Y42804D01*
X24955Y42738D01*
Y42541D01*
X24758Y42804D02*
X24627D01*
X24561Y42738D01*
Y42541D01*
X24758D01*
X24824Y42607D01*
X24758Y42673D01*
X24561D01*
X24365Y42869D02*
Y42804D01*
X24430D01*
X24299D01*
X24365D01*
Y42607D01*
X24299Y42541D01*
X23905D02*
X24037D01*
X24102Y42607D01*
Y42738D01*
X24037Y42804D01*
X23905D01*
X23840Y42738D01*
Y42673D01*
X24102D01*
X23446Y42935D02*
Y42541D01*
X23643D01*
X23709Y42607D01*
Y42738D01*
X23643Y42804D01*
X23446D01*
X22921Y42541D02*
Y42935D01*
X22790Y42804D01*
X22659Y42935D01*
Y42541D01*
X22528D02*
X22397D01*
X22462D01*
Y42804D01*
X22528D01*
X21937D02*
X22134D01*
X22200Y42738D01*
Y42607D01*
X22134Y42541D01*
X21937D01*
X21806Y42804D02*
Y42541D01*
Y42673D01*
X21741Y42738D01*
X21675Y42804D01*
X21610D01*
X21347Y42541D02*
X21216D01*
X21150Y42607D01*
Y42738D01*
X21216Y42804D01*
X21347D01*
X21413Y42738D01*
Y42607D01*
X21347Y42541D01*
X21019Y42935D02*
Y42541D01*
X20822D01*
X20757Y42607D01*
Y42673D01*
Y42738D01*
X20822Y42804D01*
X21019D01*
X20626Y42541D02*
X20494D01*
X20560D01*
Y42804D01*
X20626D01*
X20232D02*
X20101D01*
X20035Y42738D01*
Y42541D01*
X20232D01*
X20298Y42607D01*
X20232Y42673D01*
X20035D01*
X19904Y42541D02*
X19773D01*
X19838D01*
Y42935D01*
X19904D01*
X26737Y42044D02*
Y42306D01*
X26606Y42438D01*
X26475Y42306D01*
Y42044D01*
Y42241D01*
X26737D01*
X26344Y42044D02*
Y42306D01*
X26147D01*
X26081Y42241D01*
Y42044D01*
X25885Y42306D02*
X25753D01*
X25688Y42241D01*
Y42044D01*
X25885D01*
X25950Y42110D01*
X25885Y42175D01*
X25688D01*
X25557Y42044D02*
X25425D01*
X25491D01*
Y42438D01*
X25557D01*
X25229Y42306D02*
Y42110D01*
X25163Y42044D01*
X24966D01*
Y41979D01*
X25032Y41913D01*
X25098D01*
X24966Y42044D02*
Y42306D01*
X24835Y42044D02*
X24638D01*
X24573Y42110D01*
X24638Y42175D01*
X24770D01*
X24835Y42241D01*
X24770Y42306D01*
X24573D01*
X24442Y42044D02*
X24310D01*
X24376D01*
Y42306D01*
X24442D01*
X24114Y42044D02*
X23917D01*
X23851Y42110D01*
X23917Y42175D01*
X24048D01*
X24114Y42241D01*
X24048Y42306D01*
X23851D01*
X23064Y42372D02*
X23130Y42438D01*
X23261D01*
X23326Y42372D01*
Y42110D01*
X23261Y42044D01*
X23130D01*
X23064Y42110D01*
X22867Y42306D02*
X22736D01*
X22670Y42241D01*
Y42044D01*
X22867D01*
X22933Y42110D01*
X22867Y42175D01*
X22670D01*
X22539Y41913D02*
Y42306D01*
X22342D01*
X22277Y42241D01*
Y42110D01*
X22342Y42044D01*
X22539D01*
X22146D02*
X21949D01*
X21883Y42110D01*
X21949Y42175D01*
X22080D01*
X22146Y42241D01*
X22080Y42306D01*
X21883D01*
X21687Y42372D02*
Y42306D01*
X21752D01*
X21621D01*
X21687D01*
Y42110D01*
X21621Y42044D01*
X21359D02*
X21227D01*
X21162Y42110D01*
Y42241D01*
X21227Y42306D01*
X21359D01*
X21424Y42241D01*
Y42110D01*
X21359Y42044D01*
X21031D02*
Y42306D01*
X20834D01*
X20768Y42241D01*
Y42044D01*
X20440D02*
X20571D01*
X20637Y42110D01*
Y42241D01*
X20571Y42306D01*
X20440D01*
X20375Y42241D01*
Y42175D01*
X20637D01*
X26548Y40503D02*
Y40896D01*
X26417Y40765D01*
X26286Y40896D01*
Y40503D01*
X26089Y40765D02*
X25958D01*
X25892Y40700D01*
Y40503D01*
X26089D01*
X26154Y40568D01*
X26089Y40634D01*
X25892D01*
X25498Y40765D02*
X25695D01*
X25761Y40700D01*
Y40568D01*
X25695Y40503D01*
X25498D01*
X25367D02*
Y40896D01*
Y40634D02*
X25171Y40765D01*
X25367Y40634D02*
X25171Y40503D01*
X24580Y40896D02*
Y40503D01*
Y40700D01*
X24318D01*
Y40896D01*
Y40503D01*
X24121Y40765D02*
X23990D01*
X23924Y40700D01*
Y40503D01*
X24121D01*
X24187Y40568D01*
X24121Y40634D01*
X23924D01*
X23793Y40503D02*
X23662D01*
X23727D01*
Y40896D01*
X23793D01*
X23465Y40503D02*
X23334D01*
X23399D01*
Y40896D01*
X23465D01*
X26308Y40379D02*
X26439D01*
X26374D01*
Y40051D01*
X26439Y39985D01*
X26505D01*
X26570Y40051D01*
X26111Y39985D02*
X25980D01*
X25915Y40051D01*
Y40182D01*
X25980Y40247D01*
X26111D01*
X26177Y40182D01*
Y40051D01*
X26111Y39985D01*
X25783Y40247D02*
Y39985D01*
Y40116D01*
X25718Y40182D01*
X25652Y40247D01*
X25587D01*
X25390Y39985D02*
X25259D01*
X25324D01*
Y40247D01*
X25390D01*
X24996D02*
X24865D01*
X24799Y40182D01*
Y39985D01*
X24996D01*
X25062Y40051D01*
X24996Y40116D01*
X24799D01*
X24668Y39985D02*
Y40247D01*
X24471D01*
X24406Y40182D01*
Y39985D01*
X23881Y40379D02*
Y39985D01*
X23684D01*
X23619Y40051D01*
Y40116D01*
X23684Y40182D01*
X23881D01*
X23684D01*
X23619Y40247D01*
Y40313D01*
X23684Y40379D01*
X23881D01*
X23487Y40247D02*
Y39985D01*
Y40116D01*
X23422Y40182D01*
X23356Y40247D01*
X23291D01*
X23094D02*
Y40051D01*
X23028Y39985D01*
X22832D01*
Y40247D01*
X22700Y39985D02*
X22504D01*
X22438Y40051D01*
X22504Y40116D01*
X22635D01*
X22700Y40182D01*
X22635Y40247D01*
X22438D01*
X22307Y39985D02*
X22176D01*
X22241D01*
Y40379D01*
X22307D01*
X21979Y39985D02*
X21848D01*
X21913D01*
Y40247D01*
X21979D01*
X21651Y39985D02*
Y40247D01*
X21454D01*
X21388Y40182D01*
Y39985D01*
X20995Y40379D02*
Y39985D01*
X21192D01*
X21257Y40051D01*
Y40182D01*
X21192Y40247D01*
X20995D01*
X26581Y39805D02*
X26319D01*
Y39739D01*
X26581Y39477D01*
Y39411D01*
X26319D01*
X26122Y39673D02*
X25991D01*
X25926Y39608D01*
Y39411D01*
X26122D01*
X26188Y39477D01*
X26122Y39542D01*
X25926D01*
X25532Y39673D02*
X25729D01*
X25794Y39608D01*
Y39477D01*
X25729Y39411D01*
X25532D01*
X25401Y39805D02*
Y39411D01*
Y39608D01*
X25335Y39673D01*
X25204D01*
X25138Y39608D01*
Y39411D01*
X24614Y39805D02*
Y39411D01*
X24417D01*
X24351Y39477D01*
Y39542D01*
X24417Y39608D01*
X24614D01*
X24417D01*
X24351Y39673D01*
Y39739D01*
X24417Y39805D01*
X24614D01*
X24023Y39411D02*
X24154D01*
X24220Y39477D01*
Y39608D01*
X24154Y39673D01*
X24023D01*
X23958Y39608D01*
Y39542D01*
X24220D01*
X23826Y39411D02*
Y39673D01*
X23630D01*
X23564Y39608D01*
Y39411D01*
X23171Y39805D02*
Y39411D01*
X23367D01*
X23433Y39477D01*
Y39608D01*
X23367Y39673D01*
X23171D01*
X22974Y39739D02*
Y39673D01*
X23039D01*
X22908D01*
X22974D01*
Y39477D01*
X22908Y39411D01*
D66*
X10886Y40039D02*
X11161D01*
X10886Y41063D02*
X11161D01*
X10886Y38465D02*
X11161D01*
X10886Y39488D02*
X11161D01*
X16506Y34370D02*
Y34616D01*
X16260D02*
X16506D01*
X14419D02*
X14665D01*
X14419Y34370D02*
Y34616D01*
Y32530D02*
Y32776D01*
Y32530D02*
X14665D01*
X16506D02*
Y32776D01*
X16260Y32530D02*
X16506D01*
D77*
X16811Y34557D02*
G03*
X16811Y34557I-49J0D01*
G01*
M02*
