G04 Layer_Color=15132400*
%FSLAX24Y24*%
%MOIN*%
G70*
G01*
G75*
%ADD17C,0.0100*%
%ADD25C,0.0197*%
%ADD66C,0.0079*%
%ADD76C,0.0236*%
%ADD77C,0.0098*%
%ADD78C,0.0098*%
%ADD79C,0.0039*%
G36*
X6220Y40054D02*
X6223Y40051D01*
X6226Y40045D01*
Y40037D01*
Y40034D01*
Y40028D01*
Y40023D01*
X6229Y40017D01*
X6232Y40011D01*
X6234Y40006D01*
X6237Y39994D01*
Y39992D01*
X6240Y39983D01*
Y39972D01*
Y39958D01*
Y39955D01*
X6243Y39944D01*
Y39933D01*
X6246Y39919D01*
Y39916D01*
X6249Y39910D01*
X6251Y39902D01*
X6254Y39899D01*
X6257Y39893D01*
X6260Y39885D01*
Y39874D01*
Y39851D01*
X6209Y39812D01*
X6119Y39815D01*
X6105D01*
X6100Y39817D01*
X6097Y39820D01*
X6091Y39823D01*
X6080Y39829D01*
X6077D01*
X6071Y39834D01*
X6066Y39840D01*
X6060Y39851D01*
Y39857D01*
X6057Y39865D01*
Y39876D01*
X6060Y39882D01*
X6069D01*
X6080Y39879D01*
X6097Y39874D01*
X6125Y39859D01*
X6175D01*
X6187Y39862D01*
X6201D01*
X6209Y39865D01*
X6215D01*
X6220Y39868D01*
X6223Y39871D01*
X6226Y39874D01*
X6229Y39882D01*
X6232Y39888D01*
X6234Y39896D01*
Y39916D01*
Y39921D01*
Y39933D01*
X6232Y39947D01*
X6229Y39958D01*
X6226Y39961D01*
X6223Y39975D01*
X6218Y39992D01*
X6215Y40017D01*
Y40023D01*
Y40031D01*
Y40042D01*
Y40051D01*
X6218Y40054D01*
X6220Y40056D01*
Y40054D01*
D02*
G37*
G36*
X6201Y40042D02*
Y40039D01*
Y40037D01*
Y40031D01*
X6204Y40028D01*
X6206Y40023D01*
X6209Y40014D01*
Y40000D01*
Y39997D01*
Y39992D01*
Y39983D01*
Y39975D01*
Y39972D01*
X6212Y39969D01*
X6218Y39958D01*
Y39955D01*
X6220Y39952D01*
X6223Y39944D01*
Y39941D01*
X6226Y39938D01*
Y39930D01*
Y39919D01*
Y39916D01*
Y39904D01*
X6223Y39896D01*
X6220Y39890D01*
X6218Y39888D01*
X6215Y39879D01*
Y39876D01*
X6212Y39874D01*
X6206Y39871D01*
X6175D01*
X6153Y39874D01*
X6133D01*
X6119Y39876D01*
X6114D01*
X6111Y39879D01*
X6108Y39882D01*
X6102Y39885D01*
X6091Y39888D01*
X6088D01*
X6083Y39890D01*
X6066Y39893D01*
X6060D01*
X6049Y39888D01*
X6046Y39890D01*
Y39896D01*
Y39904D01*
Y39907D01*
X6043Y39916D01*
X6040Y39927D01*
X6035Y39941D01*
Y39944D01*
X6032Y39952D01*
X6026Y39964D01*
X6021Y39972D01*
X6018Y39975D01*
Y39980D01*
Y39986D01*
X6021Y39992D01*
X6024Y40003D01*
Y40006D01*
X6026Y40014D01*
X6035Y40020D01*
X6049Y40025D01*
X6057D01*
X6063Y40028D01*
X6069Y40031D01*
X6071D01*
X6083Y40037D01*
X6100Y40042D01*
X6122Y40048D01*
X6128D01*
X6142Y40051D01*
X6159Y40054D01*
X6178Y40056D01*
X6201D01*
Y40042D01*
D02*
G37*
G36*
X6260Y39986D02*
X6265Y39978D01*
Y39975D01*
X6268Y39972D01*
X6271Y39958D01*
Y39955D01*
Y39952D01*
X6277Y39938D01*
Y39935D01*
X6279Y39930D01*
X6285Y39916D01*
Y39913D01*
X6288Y39907D01*
Y39899D01*
X6291Y39888D01*
Y39882D01*
Y39871D01*
X6288Y39857D01*
X6285Y39843D01*
Y39840D01*
X6282Y39831D01*
X6277Y39820D01*
X6268Y39809D01*
X6265Y39806D01*
X6263Y39800D01*
X6257Y39792D01*
X6254Y39789D01*
X6251Y39784D01*
X6249Y39781D01*
X6240Y39772D01*
X6237Y39769D01*
X6232Y39764D01*
X6223Y39758D01*
X6215Y39755D01*
X6212D01*
X6209Y39753D01*
X6170D01*
X6161Y39755D01*
X6150Y39758D01*
X6130D01*
X6116Y39761D01*
X6094Y39769D01*
X6069Y39784D01*
X6063Y39789D01*
X6055Y39798D01*
Y39800D01*
X6052Y39815D01*
Y39817D01*
Y39820D01*
Y39823D01*
X6055Y39826D01*
X6060D01*
X6066Y39823D01*
X6077Y39817D01*
X6080Y39815D01*
X6085Y39812D01*
X6094Y39809D01*
X6097Y39806D01*
X6100D01*
X6105Y39803D01*
X6204D01*
X6209Y39806D01*
X6223Y39812D01*
X6226D01*
X6232Y39815D01*
X6246Y39826D01*
X6249D01*
X6251Y39829D01*
X6257Y39831D01*
X6263Y39834D01*
X6265Y39837D01*
Y39845D01*
Y39854D01*
Y39865D01*
Y39871D01*
Y39882D01*
Y39896D01*
X6263Y39907D01*
X6257Y39921D01*
Y39924D01*
X6254Y39930D01*
X6251Y39938D01*
X6249Y39955D01*
Y39958D01*
Y39966D01*
Y39978D01*
X6251Y39986D01*
X6254Y39989D01*
X6260Y39986D01*
D02*
G37*
G36*
X5894Y39736D02*
X5903Y39730D01*
X5905Y39727D01*
X5911Y39725D01*
X5931Y39713D01*
X6066Y39657D01*
X6069Y39654D01*
X6074D01*
X6080Y39651D01*
X6091Y39649D01*
X6100Y39640D01*
X6088Y39629D01*
X6085Y39626D01*
X6080Y39620D01*
X6069Y39612D01*
X6055Y39598D01*
X6012Y39567D01*
X5942Y39511D01*
Y39508D01*
X5936Y39505D01*
X5928Y39500D01*
X5925Y39502D01*
X5922Y39508D01*
Y39522D01*
Y39528D01*
X5920Y39539D01*
Y39559D01*
X5917Y39578D01*
X5911Y39601D01*
X5908Y39620D01*
X5905Y39637D01*
X5900Y39649D01*
Y39651D01*
Y39654D01*
X5897Y39671D01*
Y39674D01*
Y39677D01*
X5891Y39694D01*
X5877Y39733D01*
Y39736D01*
X5880Y39739D01*
X5886D01*
X5894Y39736D01*
D02*
G37*
G36*
X7103Y39795D02*
Y39789D01*
X7101Y39781D01*
Y39778D01*
X7098Y39769D01*
X7092Y39747D01*
Y39744D01*
X7089Y39736D01*
X7087Y39725D01*
X7084Y39708D01*
Y39702D01*
X7081Y39694D01*
X7078Y39682D01*
X7075Y39674D01*
Y39671D01*
X7072Y39665D01*
Y39651D01*
X7070Y39640D01*
Y39626D01*
Y39623D01*
Y39620D01*
Y39604D01*
X7067Y39587D01*
X7064Y39581D01*
X7061Y39578D01*
Y39575D01*
X7058Y39573D01*
Y39567D01*
Y39561D01*
Y39559D01*
Y39556D01*
X7056Y39553D01*
X7047Y39550D01*
X7044D01*
X7039Y39545D01*
X7027Y39539D01*
X7013Y39525D01*
X7011Y39522D01*
X7005Y39516D01*
X6997Y39508D01*
X6985Y39497D01*
X6968Y39480D01*
X6952Y39463D01*
X6907Y39421D01*
X6904Y39418D01*
X6898Y39410D01*
X6887Y39401D01*
X6876Y39387D01*
X6862Y39376D01*
X6850Y39365D01*
X6842Y39356D01*
X6836Y39353D01*
X6833Y39356D01*
X6831Y39362D01*
X6828Y39373D01*
X6819Y39415D01*
Y39418D01*
Y39426D01*
Y39443D01*
X6817Y39466D01*
X6819Y39575D01*
Y39581D01*
Y39592D01*
Y39609D01*
Y39632D01*
Y39682D01*
X6822Y39702D01*
Y39722D01*
Y39725D01*
Y39727D01*
X6825Y39741D01*
X6831Y39753D01*
X6833Y39758D01*
X6842D01*
X6853Y39753D01*
X6867Y39747D01*
X6884Y39733D01*
X6898Y39716D01*
X6957D01*
X6968Y39719D01*
X6977D01*
X6985Y39722D01*
X6991Y39727D01*
X6994D01*
X6997Y39730D01*
X7013Y39739D01*
X7030Y39753D01*
X7042Y39775D01*
Y39778D01*
X7044Y39784D01*
X7047Y39789D01*
X7050Y39792D01*
X7053D01*
X7058Y39795D01*
X7081D01*
X7092Y39798D01*
X7101D01*
X7103Y39795D01*
D02*
G37*
G36*
X5965Y41060D02*
X5987D01*
X6007Y41057D01*
X6010D01*
X6015Y41055D01*
X6026D01*
X6038Y41052D01*
X6066Y41043D01*
X6077Y41041D01*
X6088Y41038D01*
X6091Y41035D01*
X6097Y41032D01*
X6102Y41029D01*
X6111D01*
X6116Y41026D01*
X6125Y41024D01*
X6128Y41018D01*
X6130Y41015D01*
X6136Y41010D01*
X6139Y41004D01*
X6144Y40996D01*
X6150Y40984D01*
Y40981D01*
X6153Y40976D01*
X6164Y40959D01*
X6167Y40956D01*
X6173Y40951D01*
X6181Y40939D01*
X6195Y40928D01*
X6223Y40903D01*
X6226Y40900D01*
X6229Y40897D01*
X6234Y40891D01*
X6237Y40886D01*
X6294Y40785D01*
X6296Y40782D01*
X6299Y40773D01*
X6302Y40762D01*
X6305Y40754D01*
Y40751D01*
X6308Y40745D01*
X6313Y40737D01*
X6319Y40723D01*
X6322Y40720D01*
X6324Y40709D01*
X6330Y40695D01*
X6333Y40681D01*
Y40678D01*
X6336Y40667D01*
X6339Y40650D01*
Y40633D01*
Y40630D01*
Y40619D01*
Y40607D01*
X6341Y40599D01*
Y40596D01*
X6344Y40591D01*
X6347Y40582D01*
X6353Y40571D01*
X6355Y40565D01*
X6361Y40554D01*
X6369Y40532D01*
X6381Y40506D01*
Y40503D01*
X6384Y40501D01*
X6389Y40484D01*
X6398Y40461D01*
X6400Y40444D01*
Y40442D01*
X6403Y40428D01*
X6406Y40419D01*
Y40405D01*
X6409Y40391D01*
Y40371D01*
Y40368D01*
Y40363D01*
Y40352D01*
Y40338D01*
Y40307D01*
Y40273D01*
Y40267D01*
Y40256D01*
Y40242D01*
X6406Y40231D01*
Y40228D01*
X6403Y40219D01*
X6398Y40203D01*
Y40200D01*
X6395Y40194D01*
X6392Y40174D01*
Y40172D01*
Y40160D01*
Y40146D01*
Y40124D01*
Y40121D01*
Y40118D01*
Y40104D01*
Y40087D01*
Y40073D01*
Y40070D01*
Y40062D01*
X6389Y40051D01*
X6384Y40037D01*
Y40031D01*
X6378Y40020D01*
X6375Y40006D01*
X6372Y39992D01*
Y39989D01*
X6369Y39978D01*
X6367Y39964D01*
X6361Y39947D01*
Y39941D01*
X6358Y39933D01*
X6355Y39921D01*
X6350Y39910D01*
X6327Y39879D01*
Y39876D01*
X6324Y39874D01*
X6322Y39871D01*
X6319D01*
Y39874D01*
X6316Y39876D01*
X6313Y39888D01*
Y39890D01*
X6310Y39896D01*
X6308Y39907D01*
X6305Y39921D01*
Y39924D01*
X6302Y39933D01*
X6299Y39944D01*
X6296Y39955D01*
Y39958D01*
X6294Y39964D01*
X6288Y39983D01*
Y39986D01*
X6285Y39989D01*
X6279Y40003D01*
Y40006D01*
X6277Y40011D01*
X6274Y40023D01*
Y40042D01*
Y40048D01*
Y40059D01*
X6277Y40073D01*
X6282Y40087D01*
X6285Y40090D01*
Y40096D01*
Y40107D01*
Y40110D01*
X6288Y40115D01*
Y40121D01*
X6291Y40127D01*
X6294Y40129D01*
Y40135D01*
X6296Y40143D01*
X6302Y40172D01*
Y40177D01*
X6299Y40188D01*
X6294Y40203D01*
X6279Y40217D01*
X6277Y40219D01*
X6271Y40222D01*
X6263Y40225D01*
X6251D01*
X6249Y40222D01*
X6232Y40219D01*
X6229D01*
X6218Y40217D01*
X6204Y40208D01*
X6189Y40197D01*
X6187Y40194D01*
X6184Y40191D01*
X6175Y40188D01*
X6161Y40186D01*
X6147D01*
X6130Y40183D01*
X6114Y40180D01*
X6094Y40174D01*
X6074Y40166D01*
X6057Y40155D01*
X6046Y40138D01*
X6043Y40135D01*
X6040Y40121D01*
X6032Y40101D01*
X6021Y40073D01*
Y40070D01*
X6018Y40065D01*
X6012Y40048D01*
X6007Y40028D01*
X6004Y40023D01*
X6001Y40017D01*
Y40014D01*
Y40011D01*
X5998Y40003D01*
X5993Y39997D01*
Y39994D01*
X5990Y39992D01*
X5984Y39986D01*
Y39980D01*
X5990Y39969D01*
Y39966D01*
X5993Y39964D01*
X6001Y39952D01*
X6004Y39947D01*
X6010Y39938D01*
X6012Y39924D01*
X6015Y39921D01*
X6018Y39910D01*
X6021Y39893D01*
X6024Y39874D01*
Y39871D01*
Y39865D01*
X6026Y39854D01*
Y39843D01*
X6029Y39817D01*
X6032Y39806D01*
Y39798D01*
Y39795D01*
X6035Y39786D01*
X6046Y39769D01*
X6049Y39767D01*
X6057Y39761D01*
X6071Y39753D01*
X6097Y39741D01*
X6100D01*
X6105Y39739D01*
X6116D01*
X6133Y39736D01*
X6195Y39727D01*
X6167Y39699D01*
X6161Y39694D01*
X6150Y39685D01*
X6136Y39674D01*
X6125Y39665D01*
X6122D01*
X6119Y39663D01*
X6111Y39665D01*
X6102Y39668D01*
X6100D01*
X6097Y39671D01*
X6080Y39677D01*
X6077D01*
X6071Y39680D01*
X6063Y39682D01*
X6052Y39688D01*
X5945Y39733D01*
X5939Y39736D01*
X5928Y39744D01*
X5922Y39747D01*
X5917Y39750D01*
X5905Y39755D01*
X5903D01*
X5897Y39758D01*
X5883Y39761D01*
X5880D01*
X5875Y39764D01*
X5863Y39772D01*
X5846Y39786D01*
X5841Y39792D01*
X5830Y39803D01*
X5813Y39820D01*
X5793Y39840D01*
X5790Y39845D01*
X5779Y39854D01*
X5770Y39868D01*
X5762Y39876D01*
X5737Y39916D01*
X5700Y39969D01*
X5697Y39972D01*
X5692Y39980D01*
X5686Y39989D01*
X5683Y39994D01*
Y39997D01*
X5681Y40003D01*
X5675Y40011D01*
X5655Y40034D01*
X5652Y40037D01*
X5650Y40042D01*
X5641Y40054D01*
X5633Y40070D01*
X5630Y40073D01*
X5624Y40084D01*
X5619Y40096D01*
X5616Y40104D01*
X5613Y40113D01*
X5610Y40124D01*
X5605Y40135D01*
X5599Y40146D01*
X5588Y40174D01*
X5582Y40194D01*
Y40200D01*
X5585Y40205D01*
X5591Y40214D01*
X5593Y40217D01*
X5596Y40219D01*
X5599Y40228D01*
Y40233D01*
X5602Y40239D01*
X5605Y40248D01*
X5607Y40253D01*
X5610Y40267D01*
X5616Y40287D01*
X5636Y40391D01*
Y40394D01*
X5638Y40405D01*
Y40419D01*
Y40433D01*
Y40436D01*
X5641Y40442D01*
Y40447D01*
X5644Y40453D01*
X5647Y40458D01*
Y40467D01*
Y40484D01*
Y40489D01*
Y40501D01*
X5650Y40517D01*
X5655Y40537D01*
Y40540D01*
X5658Y40548D01*
X5661Y40562D01*
X5664Y40585D01*
Y40588D01*
Y40591D01*
Y40599D01*
X5666Y40610D01*
Y40627D01*
X5669Y40647D01*
Y40672D01*
X5672Y40703D01*
X5675Y40751D01*
X5678Y40773D01*
X5681Y40776D01*
X5683Y40790D01*
Y40793D01*
X5686Y40796D01*
X5689Y40813D01*
X5692Y40830D01*
X5695Y40838D01*
Y40844D01*
Y40847D01*
X5697Y40849D01*
X5703Y40866D01*
X5709Y40894D01*
Y40897D01*
X5711Y40903D01*
Y40914D01*
Y40928D01*
Y40931D01*
Y40939D01*
X5714Y40951D01*
X5717Y40959D01*
X5723Y40987D01*
Y40990D01*
X5725Y41001D01*
X5731Y41012D01*
X5734Y41021D01*
X5737D01*
X5740Y41024D01*
X5751Y41026D01*
X5762Y41032D01*
X5813Y41046D01*
X5818D01*
X5830Y41052D01*
X5846Y41055D01*
X5863Y41057D01*
X5886D01*
X5894Y41060D01*
X5903D01*
X5917Y41063D01*
X5948D01*
X5965Y41060D01*
D02*
G37*
G36*
X7078Y40484D02*
X7081D01*
X7084Y40481D01*
X7095Y40475D01*
X7098Y40472D01*
X7103Y40470D01*
X7109Y40464D01*
X7112Y40461D01*
X7109Y40458D01*
X7092D01*
X7042Y40464D01*
X7036D01*
X7025Y40467D01*
X7013D01*
X7008Y40470D01*
Y40472D01*
X7013Y40475D01*
X7019Y40478D01*
X7030Y40481D01*
X7044Y40484D01*
X7061Y40487D01*
X7067D01*
X7078Y40484D01*
D02*
G37*
G36*
X7072Y40568D02*
X7075D01*
X7078Y40565D01*
X7084Y40560D01*
X7087Y40557D01*
X7095Y40551D01*
X7112Y40546D01*
X7143D01*
X7154Y40543D01*
X7162Y40537D01*
X7174Y40529D01*
X7179Y40515D01*
X7182Y40498D01*
X7179Y40472D01*
Y40467D01*
X7171Y40461D01*
X7157D01*
X7148Y40467D01*
X7134Y40478D01*
X7132Y40481D01*
X7123Y40487D01*
X7112Y40495D01*
X7101Y40501D01*
X7098D01*
X7092Y40503D01*
X7081Y40506D01*
X7027D01*
Y40503D01*
X7025Y40501D01*
X7013D01*
X6999Y40498D01*
X6966Y40489D01*
X6963D01*
X6954Y40487D01*
X6946Y40489D01*
X6943Y40495D01*
Y40498D01*
X6946Y40501D01*
X6952Y40509D01*
X6960Y40520D01*
X6963Y40523D01*
X6968Y40529D01*
X6977Y40534D01*
X6985Y40537D01*
X6991D01*
X6997Y40540D01*
X7002Y40546D01*
X7005Y40548D01*
X7011Y40551D01*
X7025Y40560D01*
X7036Y40562D01*
X7050Y40568D01*
X7053D01*
X7056Y40571D01*
X7061Y40574D01*
X7064D01*
X7072Y40568D01*
D02*
G37*
G36*
X6946Y40478D02*
Y40475D01*
X6949Y40472D01*
X6952Y40470D01*
X6957D01*
X6960Y40467D01*
X6966Y40461D01*
X6968D01*
X6971Y40458D01*
X6985Y40453D01*
X6988D01*
X6991Y40450D01*
X6997D01*
X6999Y40447D01*
X7005Y40444D01*
X7033D01*
X7042Y40442D01*
X7053D01*
X7064Y40439D01*
X7109Y40430D01*
X7112D01*
X7123Y40428D01*
X7132Y40425D01*
X7134Y40422D01*
Y40419D01*
X7132Y40413D01*
X7126Y40411D01*
X7120Y40408D01*
X7115Y40402D01*
X7106Y40397D01*
X7103D01*
X7101Y40394D01*
X7095Y40391D01*
X7089Y40394D01*
X7087D01*
X7084Y40397D01*
X7067Y40402D01*
X7044Y40405D01*
X7019D01*
X7008Y40402D01*
X6980D01*
X6974Y40405D01*
X6968Y40408D01*
X6960Y40416D01*
Y40419D01*
X6957Y40425D01*
X6954Y40430D01*
X6952Y40436D01*
Y40442D01*
X6949Y40447D01*
X6943Y40456D01*
Y40458D01*
X6940Y40464D01*
X6937Y40478D01*
X6940Y40481D01*
X6943D01*
X6946Y40478D01*
D02*
G37*
G36*
X6268Y40194D02*
X6274Y40188D01*
X6277Y40186D01*
X6279Y40180D01*
X6282Y40174D01*
X6279Y40169D01*
X6277Y40163D01*
X6274Y40158D01*
X6271Y40146D01*
Y40143D01*
Y40138D01*
Y40129D01*
X6268Y40124D01*
X6265Y40118D01*
X6263Y40107D01*
X6251Y40039D01*
Y40037D01*
X6249Y40031D01*
X6246Y40025D01*
X6243Y40023D01*
X6240Y40025D01*
X6237Y40031D01*
Y40042D01*
Y40045D01*
Y40054D01*
X6234Y40065D01*
X6229Y40073D01*
X6226Y40079D01*
X6220Y40087D01*
Y40093D01*
Y40099D01*
Y40107D01*
Y40110D01*
Y40118D01*
Y40129D01*
Y40141D01*
Y40143D01*
X6218Y40146D01*
X6209Y40149D01*
X6198Y40152D01*
X6195D01*
X6187Y40149D01*
X6178D01*
X6173Y40146D01*
X6167Y40143D01*
X6159Y40141D01*
X6142D01*
X6133Y40138D01*
X6111Y40132D01*
X6108D01*
X6102Y40127D01*
X6091Y40118D01*
X6074Y40104D01*
X6071Y40101D01*
X6066Y40096D01*
X6060Y40090D01*
X6055Y40087D01*
Y40093D01*
Y40096D01*
X6057Y40101D01*
X6060Y40113D01*
X6066Y40124D01*
X6069Y40127D01*
X6071Y40132D01*
X6077Y40138D01*
X6083Y40143D01*
X6085D01*
X6091Y40146D01*
X6105Y40152D01*
X6108D01*
X6114Y40155D01*
X6128D01*
X6144Y40158D01*
X6150D01*
X6164Y40160D01*
X6181Y40163D01*
X6192Y40166D01*
X6195D01*
X6198Y40169D01*
X6204Y40172D01*
X6206Y40177D01*
X6209Y40180D01*
X6215Y40186D01*
X6229Y40194D01*
X6249Y40197D01*
X6260D01*
X6268Y40194D01*
D02*
G37*
G36*
X6209Y40132D02*
X6212Y40129D01*
Y40127D01*
Y40121D01*
X6206Y40118D01*
X6204D01*
X6195Y40115D01*
X6181Y40113D01*
X6105D01*
X6114Y40121D01*
X6116D01*
X6119Y40124D01*
X6128Y40127D01*
X6139Y40129D01*
X6150D01*
X6167Y40132D01*
X6181Y40141D01*
X6201D01*
X6209Y40132D01*
D02*
G37*
G36*
X5956Y41257D02*
X5959D01*
X5970Y41254D01*
X5987Y41251D01*
X6004Y41246D01*
X6010Y41243D01*
X6018Y41240D01*
X6029Y41237D01*
X6035Y41232D01*
X6038Y41229D01*
Y41223D01*
Y41218D01*
Y41215D01*
X6040Y41212D01*
X6043Y41209D01*
X6055D01*
X6063Y41206D01*
X6077Y41204D01*
X6094Y41198D01*
X6097Y41195D01*
X6108Y41192D01*
X6116Y41190D01*
X6125Y41184D01*
X6128Y41181D01*
X6133Y41178D01*
X6136D01*
X6144Y41173D01*
X6150Y41167D01*
X6161Y41156D01*
X6175Y41145D01*
X6195Y41128D01*
X6198Y41125D01*
X6206Y41114D01*
X6218Y41100D01*
X6232Y41083D01*
X6234Y41077D01*
X6243Y41069D01*
X6254Y41052D01*
X6263Y41038D01*
X6265Y41035D01*
X6271Y41026D01*
X6277Y41018D01*
X6279Y41012D01*
X6282Y41007D01*
X6288Y40996D01*
Y40993D01*
X6291Y40990D01*
X6296Y40976D01*
Y40973D01*
X6299Y40970D01*
X6302Y40965D01*
Y40962D01*
X6355Y40852D01*
X6437Y40672D01*
X6440Y40669D01*
X6443Y40658D01*
X6445Y40647D01*
Y40638D01*
Y40636D01*
X6448Y40633D01*
X6454Y40622D01*
X6457Y40619D01*
X6459Y40616D01*
X6462Y40610D01*
Y40602D01*
Y40599D01*
Y40596D01*
X6468Y40585D01*
X6471Y40582D01*
X6473Y40579D01*
X6476Y40574D01*
Y40568D01*
Y40565D01*
Y40562D01*
X6482Y40551D01*
X6485Y40548D01*
X6488Y40543D01*
X6490Y40534D01*
Y40526D01*
Y40523D01*
X6493Y40517D01*
X6499Y40498D01*
Y40495D01*
X6502Y40492D01*
X6504Y40484D01*
Y40472D01*
Y40470D01*
X6507Y40458D01*
Y40447D01*
Y40436D01*
Y40419D01*
Y40402D01*
Y40399D01*
Y40394D01*
Y40385D01*
Y40374D01*
Y40349D01*
X6504Y40340D01*
Y40332D01*
Y40329D01*
Y40321D01*
Y40312D01*
X6502Y40304D01*
Y40301D01*
X6499Y40295D01*
X6496Y40284D01*
X6493Y40273D01*
Y40270D01*
Y40267D01*
X6490Y40259D01*
X6485Y40250D01*
X6448Y40160D01*
Y40158D01*
X6445Y40152D01*
X6440Y40141D01*
X6431Y40129D01*
X6428Y40127D01*
X6426Y40121D01*
X6420Y40115D01*
X6417Y40113D01*
X6414Y40115D01*
Y40121D01*
Y40124D01*
Y40127D01*
X6409Y40141D01*
Y40143D01*
Y40149D01*
X6412Y40155D01*
X6414Y40158D01*
X6417Y40169D01*
X6420Y40186D01*
X6426Y40211D01*
Y40214D01*
Y40217D01*
X6428Y40225D01*
Y40236D01*
X6431Y40253D01*
Y40270D01*
X6434Y40290D01*
Y40315D01*
Y40318D01*
Y40321D01*
Y40335D01*
Y40349D01*
Y40354D01*
X6431Y40357D01*
Y40366D01*
X6428Y40377D01*
Y40388D01*
Y40399D01*
Y40402D01*
Y40408D01*
Y40419D01*
X6426Y40430D01*
X6423Y40461D01*
X6412Y40489D01*
X6381Y40565D01*
X6378Y40568D01*
X6375Y40579D01*
X6369Y40591D01*
X6364Y40602D01*
Y40605D01*
Y40610D01*
X6361Y40624D01*
Y40641D01*
Y40644D01*
Y40652D01*
X6358Y40664D01*
X6355Y40678D01*
X6350Y40709D01*
X6344Y40726D01*
X6339Y40740D01*
Y40742D01*
X6336Y40748D01*
X6333Y40757D01*
X6330Y40765D01*
X6327Y40771D01*
X6324Y40782D01*
X6313Y40802D01*
X6310Y40807D01*
X6302Y40818D01*
X6294Y40838D01*
X6282Y40858D01*
X6279Y40861D01*
X6274Y40872D01*
X6265Y40889D01*
X6254Y40903D01*
X6251Y40906D01*
X6246Y40914D01*
X6232Y40925D01*
X6218Y40942D01*
X6187Y40970D01*
X6184Y40973D01*
X6181Y40979D01*
X6178Y40984D01*
X6175Y40990D01*
Y40993D01*
Y40996D01*
Y40998D01*
X6184D01*
X6189Y40996D01*
X6204Y40987D01*
X6220Y40973D01*
X6223Y40970D01*
X6234Y40962D01*
X6237Y40959D01*
X6240Y40956D01*
X6246Y40953D01*
X6260D01*
X6263Y40959D01*
X6260Y40965D01*
X6254Y40973D01*
X6240Y40990D01*
X6237Y40993D01*
X6226Y41001D01*
X6212Y41012D01*
X6198Y41021D01*
X6195D01*
X6189Y41026D01*
X6184Y41032D01*
X6178Y41041D01*
X6150Y41074D01*
X6147Y41077D01*
X6142Y41086D01*
X6136Y41094D01*
X6130Y41102D01*
X6128Y41105D01*
X6122Y41111D01*
X6111Y41119D01*
X6108D01*
X6102Y41122D01*
X6097Y41125D01*
X6088Y41128D01*
X6085D01*
X6083Y41131D01*
X6074Y41133D01*
X6066Y41142D01*
X6063Y41145D01*
X6057Y41147D01*
X6049Y41153D01*
X6038Y41156D01*
X6026D01*
X6010Y41159D01*
X5981D01*
X5967Y41156D01*
X5950Y41153D01*
X5934Y41150D01*
X5931Y41147D01*
X5925Y41145D01*
X5905Y41131D01*
X5903Y41128D01*
X5900Y41122D01*
X5894Y41119D01*
X5889Y41116D01*
X5883D01*
X5877Y41119D01*
X5875Y41122D01*
X5872Y41133D01*
Y41136D01*
X5866Y41147D01*
X5858Y41164D01*
X5841Y41184D01*
X5835Y41187D01*
X5821Y41198D01*
X5801Y41212D01*
X5776Y41226D01*
X5773D01*
X5770Y41229D01*
X5768Y41232D01*
X5765Y41235D01*
X5768Y41237D01*
X5773Y41240D01*
X5787Y41246D01*
X5790D01*
X5801Y41249D01*
X5815Y41251D01*
X5832Y41257D01*
X5849D01*
X5866Y41260D01*
X5936D01*
X5956Y41257D01*
D02*
G37*
G36*
X7053Y39519D02*
Y39516D01*
Y39511D01*
Y39502D01*
Y39485D01*
Y39483D01*
X7050Y39471D01*
Y39463D01*
X7047Y39457D01*
Y39452D01*
X7044Y39446D01*
Y39435D01*
X7039Y39353D01*
Y39351D01*
X7036Y39345D01*
Y39339D01*
X7033Y39334D01*
Y39331D01*
X7030Y39325D01*
Y39311D01*
X7027Y39289D01*
Y39286D01*
Y39283D01*
X7025Y39266D01*
Y39249D01*
X7022Y39230D01*
Y39227D01*
Y39218D01*
X7019Y39207D01*
X7016Y39201D01*
Y39199D01*
X7013Y39190D01*
Y39182D01*
Y39171D01*
X7011Y39156D01*
Y39137D01*
X7005Y39095D01*
Y39092D01*
X7002Y39086D01*
Y39078D01*
X6999Y39072D01*
Y39069D01*
Y39067D01*
X6997Y39055D01*
X6994Y39036D01*
Y39033D01*
Y39030D01*
X6991Y39016D01*
X6988Y39002D01*
X6982Y38991D01*
Y38988D01*
X6980Y38982D01*
Y38968D01*
X6977Y38951D01*
Y38946D01*
X6974Y38937D01*
X6971Y38926D01*
X6968Y38917D01*
Y38915D01*
X6966Y38909D01*
Y38898D01*
X6963Y38881D01*
Y38878D01*
Y38875D01*
X6960Y38864D01*
X6957Y38850D01*
X6954Y38842D01*
Y38839D01*
X6952Y38836D01*
X6949Y38833D01*
X6943Y38830D01*
X6935D01*
X6932Y38836D01*
Y38839D01*
Y38844D01*
X6929Y38856D01*
Y38875D01*
X6926Y38906D01*
X6921Y38926D01*
Y38929D01*
X6918Y38937D01*
Y38951D01*
X6915Y38974D01*
X6909Y39005D01*
X6907Y39024D01*
Y39027D01*
X6904Y39033D01*
X6901Y39050D01*
Y39052D01*
Y39058D01*
X6898Y39075D01*
X6867Y39179D01*
X6853Y39246D01*
X6847Y39277D01*
Y39280D01*
Y39289D01*
Y39300D01*
Y39308D01*
Y39311D01*
X6850Y39314D01*
X6856Y39322D01*
X6862Y39334D01*
X6864Y39336D01*
X6870Y39345D01*
X6881Y39356D01*
X6898Y39376D01*
X6901Y39379D01*
X6912Y39390D01*
X6921Y39398D01*
X6929Y39404D01*
X6932D01*
X6937Y39410D01*
X6949Y39421D01*
X6960Y39432D01*
X6971Y39443D01*
X6974D01*
X6977Y39449D01*
X6991Y39460D01*
X7002Y39474D01*
X7008Y39480D01*
X7011Y39485D01*
X7013Y39491D01*
X7019Y39497D01*
X7027Y39505D01*
X7030Y39508D01*
X7036Y39514D01*
X7042Y39519D01*
X7047Y39522D01*
X7053D01*
Y39519D01*
D02*
G37*
G36*
X24606Y34116D02*
X24606D01*
Y35570D01*
X24606D01*
Y34116D01*
D02*
G37*
G36*
X6302Y39123D02*
X6305Y39120D01*
X6310Y39111D01*
X6313Y39109D01*
X6316Y39100D01*
X6319Y39089D01*
X6322Y39078D01*
Y39075D01*
X6324Y39067D01*
Y39058D01*
X6327Y39050D01*
Y39047D01*
X6330Y39041D01*
X6333Y39030D01*
Y39016D01*
Y39013D01*
Y39002D01*
X6330Y38991D01*
X6327Y38982D01*
Y38979D01*
X6324Y38974D01*
X6322Y38960D01*
X6319Y38948D01*
Y38934D01*
Y38932D01*
Y38929D01*
Y38912D01*
X6316Y38895D01*
X6310Y38884D01*
Y38881D01*
X6308Y38875D01*
X6305Y38867D01*
Y38858D01*
Y38856D01*
X6308Y38850D01*
X6313Y38842D01*
X6322Y38827D01*
X6324Y38825D01*
X6330Y38816D01*
X6336Y38811D01*
X6339Y38805D01*
X6327D01*
X6316Y38808D01*
X6302Y38811D01*
X6291D01*
X6288Y38808D01*
X6291Y38802D01*
X6294Y38799D01*
X6296D01*
X6299Y38797D01*
X6308Y38785D01*
X6310Y38782D01*
X6313Y38780D01*
X6316Y38774D01*
Y38768D01*
X6313Y38766D01*
X6305D01*
X6291Y38768D01*
X6288D01*
X6277Y38774D01*
X6260Y38782D01*
X6237Y38794D01*
X6234Y38797D01*
X6226Y38799D01*
X6218Y38805D01*
X6212Y38808D01*
X6206D01*
X6201Y38813D01*
X6192Y38819D01*
X6189D01*
X6187Y38822D01*
X6181Y38825D01*
X6175Y38827D01*
X6173D01*
X6170Y38830D01*
X6164Y38836D01*
X6161Y38842D01*
X6159Y38850D01*
Y38856D01*
X6161Y38861D01*
X6167Y38872D01*
X6170Y38875D01*
X6173Y38881D01*
X6175Y38889D01*
Y38898D01*
X6178Y38903D01*
X6181Y38912D01*
X6187Y38923D01*
X6189Y38926D01*
X6192Y38934D01*
X6195Y38943D01*
Y38951D01*
Y38954D01*
X6198Y38960D01*
X6204Y38968D01*
X6206Y38971D01*
X6212Y38977D01*
X6220Y38991D01*
X6234Y39007D01*
X6237Y39010D01*
X6240Y39016D01*
X6249Y39027D01*
X6254Y39038D01*
X6282Y39103D01*
X6285Y39106D01*
X6291Y39114D01*
X6296Y39123D01*
X6299Y39126D01*
X6302Y39123D01*
D02*
G37*
G36*
X6563Y39528D02*
X6569Y39522D01*
X6575Y39516D01*
Y39514D01*
X6578Y39511D01*
X6580Y39502D01*
Y39491D01*
Y39488D01*
X6583Y39477D01*
Y39460D01*
Y39432D01*
Y39373D01*
Y39367D01*
X6586Y39356D01*
Y39342D01*
Y39331D01*
X6592Y39291D01*
X6600Y39190D01*
Y39187D01*
X6603Y39179D01*
Y39171D01*
Y39165D01*
Y39162D01*
X6606Y39156D01*
Y39151D01*
X6603Y39145D01*
Y39142D01*
Y39140D01*
X6600Y39128D01*
Y39126D01*
Y39120D01*
X6603Y39111D01*
X6608Y39103D01*
X6611Y39100D01*
X6614Y39095D01*
X6620Y39086D01*
X6625Y39078D01*
X6628Y39075D01*
X6631Y39072D01*
X6637Y39064D01*
X6642Y39052D01*
Y39050D01*
X6645Y39047D01*
X6653Y39038D01*
X6665Y39027D01*
X6670Y39024D01*
X6679D01*
X6687Y39027D01*
X6696Y39038D01*
X6701Y39044D01*
X6707Y39055D01*
X6710Y39058D01*
X6713Y39064D01*
X6721Y39075D01*
X6732Y39089D01*
X6735Y39092D01*
X6743Y39100D01*
X6755Y39117D01*
X6772Y39140D01*
X6774Y39142D01*
X6777Y39151D01*
X6783Y39162D01*
X6788Y39171D01*
X6791Y39173D01*
X6800Y39179D01*
X6802D01*
X6808Y39176D01*
X6811Y39171D01*
X6817Y39162D01*
X6822Y39148D01*
X6831Y39131D01*
X6836Y39106D01*
X6887Y38917D01*
Y38912D01*
X6890Y38903D01*
X6895Y38887D01*
X6901Y38872D01*
X6904Y38870D01*
X6907Y38858D01*
X6909Y38842D01*
X6912Y38819D01*
Y38816D01*
Y38808D01*
Y38799D01*
X6915Y38791D01*
Y38788D01*
X6918Y38785D01*
X6923Y38777D01*
X6926Y38774D01*
X6937Y38768D01*
X6954D01*
X6963Y38771D01*
X6971Y38777D01*
X6974Y38780D01*
X6977Y38785D01*
X6985Y38794D01*
X6991Y38808D01*
X6994Y38811D01*
X6997Y38819D01*
X6999Y38836D01*
X7002Y38858D01*
X7005Y38895D01*
X7011Y38923D01*
Y38926D01*
X7013Y38932D01*
Y38943D01*
X7016Y38954D01*
X7019Y38974D01*
X7025Y38993D01*
X7027Y39019D01*
X7033Y39047D01*
Y39050D01*
X7036Y39058D01*
Y39075D01*
X7039Y39097D01*
X7042Y39173D01*
Y39176D01*
Y39182D01*
Y39193D01*
Y39207D01*
Y39232D01*
X7044Y39244D01*
Y39252D01*
Y39255D01*
X7047Y39263D01*
X7050Y39275D01*
X7053Y39286D01*
X7056Y39289D01*
X7058Y39294D01*
X7061Y39300D01*
X7064Y39303D01*
X7067D01*
X7075Y39306D01*
X7078D01*
X7081Y39303D01*
X7087Y39300D01*
X7092Y39291D01*
X7095Y39289D01*
X7098Y39277D01*
X7106Y39258D01*
X7117Y39230D01*
X7134Y39187D01*
X7126Y39013D01*
Y39010D01*
Y39005D01*
Y38996D01*
Y38985D01*
Y38962D01*
Y38951D01*
Y38943D01*
Y38940D01*
X7129Y38929D01*
X7132Y38915D01*
X7137Y38901D01*
Y38898D01*
X7140Y38895D01*
X7143Y38884D01*
X7146Y38870D01*
Y38856D01*
Y38853D01*
Y38844D01*
Y38830D01*
Y38811D01*
Y38805D01*
Y38794D01*
Y38777D01*
X7148Y38760D01*
Y38754D01*
X7151Y38746D01*
X7154Y38732D01*
Y38721D01*
Y38701D01*
X6701D01*
X6693Y38735D01*
X6682Y38760D01*
Y38763D01*
X6679Y38766D01*
X6670Y38780D01*
X6662Y38799D01*
X6653Y38819D01*
Y38822D01*
X6648Y38836D01*
X6645Y38853D01*
X6639Y38878D01*
Y38881D01*
Y38887D01*
X6637Y38903D01*
X6631Y38929D01*
X6623Y38948D01*
Y38951D01*
X6620Y38957D01*
X6617Y38965D01*
X6611Y38977D01*
X6603Y39010D01*
Y39013D01*
X6597Y39024D01*
X6594Y39038D01*
X6592Y39052D01*
Y39055D01*
Y39061D01*
Y39072D01*
Y39086D01*
Y39089D01*
Y39097D01*
Y39109D01*
X6589Y39123D01*
Y39126D01*
X6586Y39131D01*
Y39140D01*
X6580Y39148D01*
X6578Y39162D01*
X6572Y39179D01*
X6563Y39201D01*
Y39207D01*
X6558Y39218D01*
X6552Y39241D01*
X6544Y39269D01*
Y39272D01*
Y39275D01*
X6541Y39291D01*
X6538Y39314D01*
X6535Y39336D01*
Y39339D01*
Y39345D01*
X6530Y39365D01*
Y39367D01*
X6527Y39376D01*
X6518Y39393D01*
X6513Y39404D01*
X6504Y39418D01*
Y39421D01*
X6502Y39429D01*
X6499Y39441D01*
X6496Y39455D01*
Y39457D01*
X6499Y39466D01*
X6502Y39477D01*
X6504Y39491D01*
X6507Y39494D01*
X6510Y39500D01*
X6518Y39508D01*
X6530Y39519D01*
X6533Y39522D01*
X6541Y39525D01*
X6549Y39528D01*
X6558Y39530D01*
X6561D01*
X6563Y39528D01*
D02*
G37*
G36*
X7674Y39809D02*
X7685Y39803D01*
X7702Y39795D01*
X7733Y39775D01*
Y39781D01*
X7736Y39792D01*
Y38701D01*
X7202D01*
X7207Y38718D01*
Y38721D01*
X7213Y38726D01*
X7224Y38743D01*
X7227D01*
X7230Y38746D01*
X7238Y38749D01*
X7244Y38752D01*
X7250D01*
X7258Y38749D01*
X7266Y38743D01*
X7269D01*
X7275Y38740D01*
X7283Y38737D01*
X7292D01*
X7297Y38740D01*
X7306Y38746D01*
X7317Y38757D01*
X7320Y38760D01*
X7328Y38766D01*
X7334Y38780D01*
X7340Y38794D01*
Y38797D01*
X7342Y38802D01*
X7345Y38811D01*
X7348Y38822D01*
X7354Y38839D01*
X7359Y38856D01*
X7368Y38878D01*
Y38881D01*
X7371Y38889D01*
X7376Y38901D01*
X7382Y38915D01*
X7393Y38948D01*
X7407Y38985D01*
X7441Y39072D01*
X7469Y39131D01*
Y39134D01*
X7472Y39140D01*
X7477Y39151D01*
X7483Y39162D01*
X7494Y39187D01*
X7503Y39213D01*
X7505Y39218D01*
X7508Y39230D01*
X7517Y39252D01*
X7522Y39280D01*
X7536Y39359D01*
X7539Y39415D01*
X7550Y39528D01*
Y39530D01*
Y39536D01*
X7553Y39553D01*
X7556Y39578D01*
X7559Y39598D01*
Y39601D01*
X7562Y39612D01*
X7567Y39626D01*
X7573Y39643D01*
Y39646D01*
X7576Y39651D01*
X7581Y39663D01*
X7587Y39677D01*
X7604Y39713D01*
X7624Y39753D01*
Y39755D01*
X7629Y39761D01*
X7640Y39781D01*
X7655Y39800D01*
X7660Y39806D01*
X7666Y39812D01*
X7669D01*
X7674Y39809D01*
D02*
G37*
G36*
X22666Y35563D02*
X22673Y35561D01*
X22698Y35548D01*
X23076Y35336D01*
X23078Y35334D01*
X23082Y35332D01*
X23088Y35330D01*
X23114D01*
X23125Y35332D01*
X23140D01*
X23159Y35334D01*
X23183Y35336D01*
X23198D01*
X23215Y35338D01*
X23237Y35340D01*
X23262Y35341D01*
X23290D01*
X23344Y35345D01*
X23356D01*
X23369Y35347D01*
X23384D01*
X23419Y35349D01*
X23470D01*
X23490Y35347D01*
X23511Y35345D01*
X23517D01*
X23522Y35343D01*
X23530Y35341D01*
X23539Y35340D01*
X23552Y35338D01*
X23567Y35334D01*
X23582Y35330D01*
X23715Y35300D01*
X23717D01*
X23721Y35298D01*
X23727Y35296D01*
X23736Y35295D01*
X23758Y35289D01*
X23785Y35283D01*
X23787D01*
X23792Y35281D01*
X23798D01*
X23807Y35280D01*
X23830Y35276D01*
X23852Y35272D01*
X23854D01*
X23858Y35270D01*
X23871Y35268D01*
X23877Y35266D01*
X23882Y35265D01*
X23884Y35263D01*
Y35261D01*
X23839Y35238D01*
X23837D01*
X23833Y35235D01*
X23826Y35233D01*
X23818Y35229D01*
X23802Y35221D01*
X23796Y35218D01*
X23790Y35216D01*
X23787Y35214D01*
X23781Y35210D01*
Y35208D01*
Y35206D01*
X23783Y35205D01*
X23788D01*
X23794Y35206D01*
X23802Y35208D01*
X23811Y35212D01*
X23822Y35218D01*
X23824D01*
X23828Y35220D01*
X23835Y35223D01*
X23845Y35227D01*
X23867Y35236D01*
X23893Y35248D01*
X23897Y35250D01*
X23905Y35251D01*
X23916Y35257D01*
X23927Y35263D01*
X23931D01*
X23936Y35265D01*
X23944Y35266D01*
X23951Y35268D01*
X23955D01*
X23961Y35270D01*
X23970Y35272D01*
X23980Y35274D01*
X23991Y35278D01*
X24006Y35281D01*
X24021Y35287D01*
X24023D01*
X24028Y35289D01*
X24038Y35293D01*
X24051Y35295D01*
X24064Y35300D01*
X24081Y35304D01*
X24116Y35315D01*
X24345Y35398D01*
X24450Y35435D01*
X24452Y35437D01*
X24459Y35439D01*
X24471Y35444D01*
X24484Y35448D01*
X24510Y35459D01*
X24521Y35463D01*
X24531Y35467D01*
X24551D01*
X24557Y35463D01*
X24559Y35461D01*
X24561Y35458D01*
X24562Y35450D01*
Y35441D01*
Y35439D01*
Y35435D01*
X24559Y35426D01*
Y35424D01*
X24555Y35418D01*
X24549Y35409D01*
X24542Y35394D01*
X24396Y35150D01*
X24362Y35090D01*
Y35088D01*
X24360Y35085D01*
X24356Y35079D01*
X24353Y35072D01*
X24343Y35055D01*
X24334Y35034D01*
Y35032D01*
X24332Y35028D01*
X24328Y35017D01*
X24323Y35002D01*
X24317Y34985D01*
Y34983D01*
X24313Y34976D01*
X24309Y34965D01*
X24306Y34952D01*
X24291Y34920D01*
X24281Y34905D01*
X24270Y34890D01*
X24268Y34888D01*
X24264Y34884D01*
X24259Y34879D01*
X24255Y34875D01*
Y34873D01*
X24253Y34871D01*
X24251Y34862D01*
Y34860D01*
Y34850D01*
Y34843D01*
Y34834D01*
X24253Y34822D01*
X24257Y34809D01*
Y34805D01*
X24259Y34798D01*
X24261Y34787D01*
X24263Y34772D01*
Y34770D01*
Y34768D01*
X24264Y34757D01*
X24266Y34738D01*
X24268Y34714D01*
Y34712D01*
Y34708D01*
Y34701D01*
X24270Y34691D01*
Y34667D01*
X24272Y34639D01*
Y34611D01*
Y34582D01*
Y34558D01*
Y34551D01*
X24270Y34543D01*
Y34541D01*
Y34536D01*
X24268Y34521D01*
Y34519D01*
X24270Y34511D01*
X24272Y34500D01*
X24276Y34483D01*
Y34481D01*
X24278Y34476D01*
X24279Y34466D01*
X24281Y34455D01*
Y34442D01*
X24283Y34427D01*
X24285Y34397D01*
Y34395D01*
Y34389D01*
Y34380D01*
X24283Y34367D01*
Y34352D01*
X24281Y34333D01*
X24279Y34313D01*
X24276Y34290D01*
Y34288D01*
Y34284D01*
X24274Y34277D01*
X24272Y34269D01*
X24268Y34249D01*
X24264Y34228D01*
Y34226D01*
X24263Y34223D01*
Y34217D01*
X24261Y34210D01*
X24259Y34200D01*
X24255Y34189D01*
X24249Y34161D01*
X24244Y34142D01*
X24240Y34116D01*
X22835D01*
X22829Y34121D01*
X22827Y34123D01*
X22823Y34129D01*
X22821Y34135D01*
X22816Y34142D01*
X22810Y34150D01*
X22805Y34161D01*
Y34163D01*
X22801Y34166D01*
X22797Y34172D01*
X22793Y34180D01*
X22784Y34196D01*
X22773Y34217D01*
Y34219D01*
X22771Y34221D01*
X22765Y34232D01*
X22760Y34247D01*
X22756Y34262D01*
Y34266D01*
Y34269D01*
Y34277D01*
X22754Y34284D01*
Y34296D01*
Y34309D01*
Y34326D01*
Y34328D01*
Y34331D01*
Y34339D01*
Y34348D01*
Y34373D01*
X22752Y34399D01*
Y34401D01*
Y34404D01*
Y34414D01*
X22750Y34425D01*
Y34438D01*
X22748Y34455D01*
X22746Y34476D01*
X22745Y34498D01*
Y34502D01*
X22743Y34513D01*
X22741Y34528D01*
Y34549D01*
X22739Y34571D01*
X22737Y34596D01*
X22735Y34622D01*
Y34646D01*
Y34648D01*
Y34657D01*
X22737Y34669D01*
Y34684D01*
X22739Y34701D01*
X22741Y34719D01*
X22746Y34759D01*
Y34760D01*
X22748Y34764D01*
X22750Y34772D01*
X22752Y34781D01*
X22758Y34804D01*
X22765Y34830D01*
Y34832D01*
X22767Y34835D01*
X22771Y34843D01*
X22775Y34854D01*
X22780Y34865D01*
X22786Y34880D01*
X22803Y34912D01*
Y34914D01*
X22806Y34920D01*
X22810Y34927D01*
X22816Y34937D01*
X22823Y34950D01*
X22831Y34965D01*
X22853Y35000D01*
X22855Y35002D01*
X22859Y35010D01*
X22866Y35019D01*
X22878Y35034D01*
X22891Y35051D01*
X22906Y35072D01*
X22923Y35094D01*
X22943Y35118D01*
X22969Y35154D01*
X22968Y35156D01*
X22962Y35154D01*
X22953Y35147D01*
X22951Y35145D01*
X22941Y35137D01*
X22928Y35126D01*
X22911Y35113D01*
X22910Y35111D01*
X22908Y35109D01*
X22898Y35102D01*
X22887Y35094D01*
X22883Y35092D01*
X22881Y35090D01*
X22878Y35096D01*
X22874Y35105D01*
X22872Y35111D01*
X22868Y35120D01*
Y35122D01*
X22866Y35126D01*
X22865Y35132D01*
X22863Y35141D01*
X22855Y35161D01*
X22846Y35188D01*
X22836Y35216D01*
X22825Y35242D01*
X22814Y35265D01*
X22810Y35276D01*
X22805Y35283D01*
X22773Y35332D01*
X22771Y35334D01*
X22769Y35338D01*
X22763Y35345D01*
X22758Y35355D01*
X22745Y35375D01*
X22730Y35399D01*
Y35401D01*
X22726Y35405D01*
X22724Y35411D01*
X22718Y35418D01*
X22709Y35435D01*
X22700Y35454D01*
X22677Y35497D01*
Y35499D01*
X22675Y35503D01*
X22670Y35514D01*
X22664Y35529D01*
X22658Y35544D01*
Y35546D01*
X22657Y35553D01*
X22658Y35559D01*
X22660Y35564D01*
X22662D01*
X22666Y35563D01*
D02*
G37*
G36*
X6024Y41136D02*
X6035Y41133D01*
X6038D01*
X6040Y41131D01*
X6049Y41122D01*
X6052D01*
X6057Y41116D01*
X6066Y41114D01*
X6080Y41105D01*
X6083D01*
X6085Y41102D01*
X6100Y41091D01*
X6119Y41074D01*
X6136Y41055D01*
X6139Y41052D01*
X6136Y41049D01*
X6125Y41052D01*
X6122D01*
X6116Y41055D01*
X6097Y41060D01*
X6091D01*
X6077Y41063D01*
X6071D01*
X6063Y41066D01*
X6049Y41071D01*
X6046D01*
X6040Y41074D01*
X6032D01*
X6021Y41077D01*
X6007D01*
X5990Y41080D01*
X5967D01*
X5925Y41083D01*
X5917D01*
X5911Y41086D01*
X5908Y41088D01*
Y41091D01*
X5914Y41102D01*
X5917Y41108D01*
X5925Y41116D01*
X5928D01*
X5931Y41119D01*
X5939Y41122D01*
X5950Y41128D01*
X5953D01*
X5959Y41131D01*
X5967Y41133D01*
X5973Y41136D01*
X5979D01*
X5990Y41139D01*
X6015D01*
X6024Y41136D01*
D02*
G37*
G36*
X5813Y41122D02*
X5830D01*
X5832Y41119D01*
X5844Y41111D01*
X5846Y41108D01*
X5849Y41105D01*
X5858Y41100D01*
X5863Y41097D01*
X5866Y41094D01*
X5869Y41091D01*
Y41086D01*
Y41083D01*
X5866Y41080D01*
X5860Y41077D01*
X5838D01*
X5815Y41071D01*
X5813D01*
X5807Y41069D01*
X5796Y41063D01*
X5782Y41060D01*
X5756Y41055D01*
X5748D01*
X5751Y41063D01*
Y41069D01*
X5754Y41080D01*
X5759Y41097D01*
X5770Y41114D01*
X5773Y41119D01*
X5782Y41125D01*
X5807D01*
X5813Y41122D01*
D02*
G37*
G36*
X7112Y41350D02*
X7129Y41347D01*
X7134D01*
X7140Y41344D01*
X7143D01*
X7146Y41341D01*
X7160Y41336D01*
X7162D01*
X7168Y41333D01*
X7176Y41327D01*
X7182Y41322D01*
Y41319D01*
X7185Y41313D01*
X7188Y41305D01*
Y41299D01*
Y41296D01*
X7185Y41294D01*
Y41288D01*
X7196D01*
X7199Y41291D01*
X7207Y41294D01*
X7216Y41302D01*
X7233Y41322D01*
X7261Y41319D01*
X7264D01*
X7275Y41316D01*
X7289Y41310D01*
X7306Y41308D01*
X7309Y41305D01*
X7320Y41302D01*
X7328Y41296D01*
X7340Y41291D01*
X7342Y41288D01*
X7354D01*
X7359Y41285D01*
X7368Y41280D01*
X7371Y41277D01*
X7376Y41274D01*
X7382Y41268D01*
X7385Y41265D01*
X7387Y41263D01*
X7393Y41260D01*
X7399Y41257D01*
X7404Y41251D01*
X7413Y41243D01*
X7416Y41240D01*
X7421Y41235D01*
X7424Y41226D01*
X7427Y41223D01*
X7430Y41220D01*
X7435Y41212D01*
X7438D01*
X7441Y41206D01*
X7446Y41198D01*
X7455Y41187D01*
X7458Y41184D01*
X7463Y41175D01*
X7472Y41164D01*
X7480Y41150D01*
X7483Y41147D01*
X7489Y41142D01*
X7491Y41133D01*
X7494Y41128D01*
X7497Y40945D01*
Y40942D01*
X7500Y40931D01*
Y40920D01*
X7503Y40911D01*
Y40908D01*
X7505Y40900D01*
X7508Y40889D01*
Y40880D01*
Y40877D01*
Y40872D01*
X7505Y40861D01*
X7500Y40847D01*
Y40844D01*
X7497Y40832D01*
X7494Y40818D01*
X7491Y40802D01*
Y40799D01*
Y40790D01*
X7489Y40779D01*
X7486Y40773D01*
Y40771D01*
X7483Y40768D01*
X7480Y40757D01*
X7477Y40745D01*
Y40742D01*
Y40734D01*
X7475Y40723D01*
X7469Y40709D01*
Y40706D01*
X7466Y40703D01*
X7463Y40692D01*
Y40681D01*
X7466Y40675D01*
X7472Y40672D01*
X7475Y40669D01*
X7477Y40667D01*
X7480Y40655D01*
X7477Y40647D01*
X7472Y40636D01*
X7458Y40602D01*
X7455Y40599D01*
X7452Y40593D01*
X7444Y40585D01*
X7438Y40579D01*
X7435Y40577D01*
X7432Y40571D01*
X7430Y40568D01*
Y40565D01*
X7424Y40557D01*
X7421Y40554D01*
X7416Y40543D01*
Y40540D01*
Y40534D01*
Y40523D01*
Y40506D01*
Y40503D01*
Y40501D01*
Y40489D01*
Y40475D01*
X7413Y40467D01*
Y40464D01*
Y40461D01*
X7407Y40450D01*
Y40447D01*
X7401Y40444D01*
X7396Y40442D01*
X7371D01*
X7368Y40425D01*
Y40422D01*
X7365Y40416D01*
X7362Y40411D01*
X7359Y40408D01*
Y40405D01*
X7356Y40397D01*
Y40394D01*
X7354Y40385D01*
X7351Y40383D01*
X7342D01*
X7331Y40385D01*
X7328Y40388D01*
X7320Y40391D01*
X7309Y40399D01*
X7297Y40408D01*
X7295Y40411D01*
X7289Y40413D01*
X7269Y40428D01*
X7252Y40436D01*
X7247D01*
X7236Y40439D01*
X7213D01*
X7205Y40442D01*
X7202Y40447D01*
Y40453D01*
Y40456D01*
X7199Y40461D01*
Y40464D01*
Y40472D01*
Y40475D01*
X7202Y40478D01*
X7205Y40489D01*
Y40503D01*
Y40506D01*
Y40509D01*
X7202Y40526D01*
X7193Y40546D01*
X7188Y40554D01*
X7176Y40562D01*
X7171Y40565D01*
X7160Y40571D01*
X7148D01*
X7137Y40568D01*
X7112D01*
X7106Y40571D01*
X7101Y40577D01*
X7098Y40579D01*
X7087Y40588D01*
X7067Y40591D01*
X7056Y40593D01*
X7044Y40591D01*
X7042D01*
X7039Y40588D01*
X7025Y40582D01*
X7008Y40574D01*
X6991Y40565D01*
X6988D01*
X6985Y40562D01*
X6968Y40557D01*
X6966D01*
X6960Y40551D01*
X6952Y40546D01*
X6940Y40534D01*
X6937Y40532D01*
X6932Y40523D01*
X6926Y40512D01*
X6921Y40501D01*
Y40498D01*
X6918Y40495D01*
Y40481D01*
X6915Y40464D01*
X6921Y40450D01*
X6923Y40447D01*
X6926Y40442D01*
X6929Y40433D01*
Y40428D01*
Y40425D01*
Y40422D01*
X6935Y40413D01*
X6937Y40411D01*
X6943Y40402D01*
Y40399D01*
Y40394D01*
X6937Y40388D01*
X6926Y40383D01*
X6923Y40380D01*
X6915Y40377D01*
X6907Y40374D01*
X6901Y40368D01*
X6898Y40366D01*
X6890Y40363D01*
X6887D01*
X6873Y40357D01*
X6870Y40354D01*
X6864Y40352D01*
X6856Y40349D01*
X6842Y40343D01*
X6839D01*
X6833Y40340D01*
X6825Y40335D01*
X6817Y40332D01*
X6811Y40329D01*
X6805Y40323D01*
X6797Y40321D01*
X6794D01*
X6791Y40318D01*
X6786Y40312D01*
Y40309D01*
X6788Y40307D01*
X6794Y40301D01*
X6808D01*
X6817Y40307D01*
X6831Y40312D01*
X6833Y40315D01*
X6842Y40318D01*
X6850Y40321D01*
X6856Y40323D01*
X6862D01*
X6870Y40326D01*
X6878Y40332D01*
X6881D01*
X6887Y40338D01*
X6892Y40340D01*
X6898Y40343D01*
X6904D01*
X6909Y40349D01*
X6918Y40354D01*
X6921D01*
X6926Y40360D01*
X6935Y40363D01*
X6943Y40366D01*
X6946D01*
X6949Y40368D01*
X6954Y40371D01*
X6957Y40374D01*
X6963Y40377D01*
X6971D01*
X6985Y40380D01*
X7008D01*
X7019Y40383D01*
X7039D01*
X7042Y40380D01*
X7050Y40377D01*
X7061Y40374D01*
X7070Y40371D01*
X7072D01*
X7078Y40368D01*
X7092Y40366D01*
X7098D01*
X7112Y40371D01*
X7115D01*
X7120Y40374D01*
X7134Y40383D01*
X7140Y40388D01*
X7154Y40399D01*
X7174Y40411D01*
X7202Y40416D01*
X7230D01*
X7236Y40413D01*
X7252Y40405D01*
X7255Y40402D01*
X7264Y40399D01*
X7275Y40394D01*
X7289Y40385D01*
X7292Y40383D01*
X7300Y40377D01*
X7311Y40368D01*
X7323Y40360D01*
X7326D01*
X7331Y40357D01*
X7342Y40354D01*
X7356D01*
X7371Y40352D01*
X7393D01*
X7410Y40349D01*
X7430D01*
X7494Y40346D01*
X7517D01*
X7522Y40343D01*
X7525Y40340D01*
X7528Y40332D01*
Y40329D01*
Y40326D01*
X7522Y40312D01*
X7520Y40309D01*
Y40298D01*
Y40287D01*
X7525Y40273D01*
Y40270D01*
X7528Y40267D01*
X7531Y40264D01*
X7536D01*
X7542Y40262D01*
X7576D01*
X7595Y40264D01*
X7604D01*
X7612Y40267D01*
X7618Y40273D01*
Y40278D01*
Y40281D01*
X7615Y40284D01*
X7610Y40287D01*
X7590D01*
X7570Y40284D01*
X7553D01*
X7545Y40290D01*
Y40293D01*
Y40301D01*
X7548Y40307D01*
X7550Y40318D01*
Y40321D01*
X7553Y40326D01*
X7562Y40335D01*
X7570Y40338D01*
X7581Y40340D01*
X7587D01*
X7601Y40343D01*
X7646D01*
X7657Y40340D01*
X7669Y40338D01*
X7680Y40332D01*
Y40326D01*
Y40318D01*
X7677Y40312D01*
X7674Y40307D01*
X7663Y40301D01*
X7652Y40298D01*
X7635Y40295D01*
Y40278D01*
Y40276D01*
X7632Y40267D01*
X7629Y40259D01*
X7618Y40250D01*
X7615Y40248D01*
X7604Y40242D01*
X7587Y40236D01*
X7573Y40231D01*
X7556Y40228D01*
X7553D01*
X7542Y40225D01*
X7514D01*
X7508Y40222D01*
X7475D01*
X7461Y40225D01*
X7444Y40228D01*
X7432Y40231D01*
X7430D01*
X7424Y40233D01*
X7416D01*
X7399Y40236D01*
X7371D01*
X7351Y40242D01*
X7345D01*
X7337Y40245D01*
X7323Y40248D01*
X7314Y40250D01*
X7309D01*
X7292Y40248D01*
X7289D01*
X7283Y40245D01*
X7272D01*
X7255Y40242D01*
X7227Y40239D01*
Y40203D01*
Y40200D01*
Y40197D01*
Y40180D01*
X7224Y40163D01*
X7221Y40158D01*
X7219Y40152D01*
Y40149D01*
X7216Y40146D01*
X7213Y40132D01*
Y40129D01*
Y40127D01*
X7216Y40124D01*
X7219Y40121D01*
X7221D01*
X7227Y40124D01*
X7230Y40129D01*
X7233Y40132D01*
X7244Y40135D01*
X7261Y40138D01*
X7275Y40135D01*
X7292Y40132D01*
X7295D01*
X7297Y40129D01*
X7314Y40124D01*
X7331Y40113D01*
X7345Y40096D01*
X7348Y40090D01*
X7351Y40079D01*
X7354Y40062D01*
X7348Y40042D01*
Y40039D01*
X7345Y40037D01*
X7342Y40023D01*
Y40020D01*
Y40017D01*
X7337Y40006D01*
Y40003D01*
X7334Y40000D01*
X7331Y39997D01*
X7326D01*
Y40003D01*
X7323Y40009D01*
Y40011D01*
X7320Y40017D01*
X7317Y40025D01*
X7309Y40037D01*
X7306Y40039D01*
X7303Y40045D01*
X7295Y40051D01*
X7289Y40056D01*
X7283D01*
X7278Y40062D01*
X7275Y40065D01*
X7261D01*
X7258Y40062D01*
X7244Y40059D01*
X7241Y40056D01*
X7233Y40051D01*
X7224Y40037D01*
X7219Y40017D01*
X7216Y40003D01*
X7227Y40011D01*
Y40014D01*
X7230Y40017D01*
X7236Y40034D01*
Y40037D01*
X7241Y40045D01*
X7252Y40051D01*
X7275D01*
X7281Y40048D01*
X7289Y40042D01*
X7297Y40037D01*
X7309Y40020D01*
X7311Y40014D01*
Y40009D01*
X7314Y39997D01*
Y39994D01*
Y39989D01*
Y39980D01*
Y39978D01*
X7311Y39975D01*
X7306Y39972D01*
X7303D01*
X7297Y39978D01*
X7292D01*
X7289Y39975D01*
X7281Y39972D01*
X7266Y39969D01*
X7247D01*
X7233Y39975D01*
X7227Y39978D01*
Y39986D01*
X7224Y39989D01*
X7221Y39994D01*
X7213Y40000D01*
X7205Y40006D01*
X7207Y40048D01*
Y40051D01*
Y40056D01*
Y40068D01*
X7210Y40079D01*
X7207Y40090D01*
Y40099D01*
X7205Y40104D01*
X7202Y40107D01*
X7199Y40104D01*
X7196Y40101D01*
X7193Y40096D01*
Y40093D01*
Y40084D01*
Y40068D01*
Y40042D01*
Y40039D01*
Y40037D01*
Y40023D01*
Y40006D01*
Y40000D01*
Y39994D01*
Y39992D01*
X7196Y39989D01*
X7202Y39978D01*
Y39975D01*
X7205Y39972D01*
X7210Y39964D01*
X7213Y39961D01*
X7219Y39955D01*
X7227Y39949D01*
X7230Y39947D01*
X7236Y39944D01*
X7244Y39941D01*
X7250Y39938D01*
X7255D01*
X7258Y39944D01*
X7261Y39949D01*
X7264Y39952D01*
X7269Y39955D01*
X7281Y39958D01*
X7292D01*
X7300Y39952D01*
Y39949D01*
Y39944D01*
Y39941D01*
X7295Y39930D01*
X7286Y39913D01*
X7266Y39893D01*
X7264Y39890D01*
X7255Y39885D01*
X7244Y39879D01*
X7233Y39874D01*
X7230Y39871D01*
X7221Y39868D01*
X7210Y39865D01*
X7168D01*
X7160Y39868D01*
X7157Y39871D01*
X7151Y39879D01*
X7146Y39890D01*
X7143Y39904D01*
Y39907D01*
Y39910D01*
X7137Y39924D01*
X7134Y39930D01*
X7126Y39944D01*
X7112Y39966D01*
X7095Y39994D01*
Y39997D01*
X7092Y40000D01*
X7084Y40014D01*
X7072Y40034D01*
X7067Y40051D01*
X7064Y40054D01*
X7056Y40056D01*
X7053Y40054D01*
X7050Y40048D01*
Y40042D01*
Y40039D01*
X7053Y40031D01*
X7056Y40017D01*
X7064Y39997D01*
Y39994D01*
X7067Y39992D01*
X7075Y39978D01*
X7087Y39958D01*
X7098Y39938D01*
X7101Y39933D01*
X7109Y39921D01*
X7117Y39907D01*
X7123Y39893D01*
X7126Y39865D01*
Y39862D01*
Y39859D01*
X7123Y39851D01*
X7112Y39843D01*
X7106Y39840D01*
X7092Y39829D01*
X7075Y39820D01*
X7053Y39817D01*
X7047D01*
X7036Y39820D01*
X7033Y39823D01*
X7027Y39829D01*
X7022Y39840D01*
Y39843D01*
X7019Y39848D01*
X7016Y39854D01*
X7011Y39859D01*
X7008Y39862D01*
Y39865D01*
X7002Y39874D01*
X6997Y39888D01*
X6988Y39904D01*
X6974Y39930D01*
X6960Y39961D01*
X6957Y39964D01*
X6954Y39972D01*
X6946Y39983D01*
X6935Y40000D01*
X6932Y40003D01*
X6926Y40011D01*
X6921Y40020D01*
X6912Y40023D01*
X6909D01*
X6907Y40017D01*
X6909Y40003D01*
X6912Y39994D01*
X6921Y39980D01*
Y39978D01*
X6923Y39975D01*
X6929Y39964D01*
X6937Y39947D01*
X6943Y39933D01*
X6946Y39930D01*
X6949Y39921D01*
X6957Y39904D01*
X6968Y39885D01*
Y39882D01*
X6971Y39879D01*
X6980Y39865D01*
X6988Y39851D01*
X6997Y39837D01*
X6999Y39834D01*
X7005Y39823D01*
X7013Y39809D01*
X7019Y39792D01*
Y39789D01*
Y39784D01*
X7016Y39775D01*
X7008Y39767D01*
X7002Y39761D01*
X6991Y39753D01*
X6968Y39744D01*
X6937Y39739D01*
X6909D01*
X6898Y39755D01*
X6895Y39758D01*
X6887Y39764D01*
X6876Y39769D01*
X6859Y39778D01*
X6856D01*
X6845Y39784D01*
X6831Y39789D01*
X6817Y39800D01*
X6814Y39803D01*
X6811Y39809D01*
X6805Y39815D01*
X6802Y39820D01*
Y39823D01*
X6800Y39826D01*
X6794Y39829D01*
X6791Y39831D01*
X6783Y39837D01*
X6774Y39843D01*
X6766Y39845D01*
X6763D01*
X6758Y39843D01*
X6749Y39837D01*
X6746Y39834D01*
X6743Y39829D01*
X6735Y39820D01*
X6721Y39806D01*
X6698Y39786D01*
X6696Y39784D01*
X6693Y39781D01*
X6679Y39775D01*
X6662Y39764D01*
X6651Y39772D01*
Y39775D01*
X6648Y39778D01*
X6639D01*
X6637Y39775D01*
X6634Y39767D01*
Y39764D01*
X6631Y39761D01*
X6628Y39758D01*
X6625Y39755D01*
X6620Y39747D01*
X6617Y39744D01*
X6614Y39736D01*
X6606Y39725D01*
X6594Y39710D01*
X6572Y39682D01*
X6547Y39649D01*
Y39646D01*
X6544Y39643D01*
X6533Y39629D01*
X6516Y39606D01*
X6499Y39581D01*
X6482Y39553D01*
X6465Y39530D01*
X6454Y39511D01*
X6448Y39500D01*
Y39497D01*
X6445Y39488D01*
X6437Y39471D01*
X6412Y39438D01*
Y39435D01*
X6409Y39432D01*
X6400Y39421D01*
X6395Y39410D01*
X6389Y39401D01*
Y39396D01*
X6386Y39393D01*
X6381Y39384D01*
Y39381D01*
X6378Y39379D01*
X6375Y39367D01*
Y39362D01*
X6369Y39356D01*
X6364Y39345D01*
X6361Y39342D01*
X6358Y39331D01*
X6350Y39317D01*
X6339Y39294D01*
Y39291D01*
X6336Y39289D01*
X6330Y39275D01*
X6322Y39255D01*
X6316Y39241D01*
X6302Y39216D01*
X6296Y39193D01*
Y39190D01*
X6294Y39185D01*
X6291Y39176D01*
X6285Y39171D01*
X6282Y39165D01*
X6279Y39154D01*
X6274Y39140D01*
Y39137D01*
X6271Y39134D01*
X6265Y39120D01*
X6257Y39100D01*
X6246Y39078D01*
X6234Y39052D01*
Y39050D01*
X6232Y39044D01*
X6220Y39027D01*
X6189Y38991D01*
X6187Y38988D01*
X6184Y38982D01*
X6178Y38977D01*
X6175Y38971D01*
Y38968D01*
Y38965D01*
X6173Y38954D01*
X6161Y38929D01*
Y38926D01*
Y38923D01*
X6159Y38912D01*
Y38909D01*
X6153Y38898D01*
X6150Y38889D01*
X6144Y38878D01*
X6136Y38861D01*
X6125Y38842D01*
Y38839D01*
X6119Y38833D01*
X6114Y38822D01*
X6108Y38808D01*
X6094Y38780D01*
X6085Y38768D01*
X6077Y38757D01*
X6057Y38723D01*
X6055Y38721D01*
X6052Y38715D01*
X6049Y38709D01*
X6046Y38707D01*
X6142Y38701D01*
X5174D01*
X5186Y38704D01*
X5188D01*
X5191Y38707D01*
Y38709D01*
Y38712D01*
X5186Y38721D01*
Y38723D01*
X5180Y38726D01*
X5174Y38737D01*
X5166Y38752D01*
X5127Y38830D01*
X5124Y39224D01*
X5135Y39241D01*
Y39244D01*
X5141Y39246D01*
X5149Y39266D01*
X5166Y39286D01*
X5180Y39308D01*
X5183Y39311D01*
X5191Y39320D01*
X5202Y39328D01*
X5208Y39331D01*
X5214D01*
X5217Y39334D01*
X5219Y39339D01*
X5222Y39342D01*
X5228Y39345D01*
X5231D01*
X5236Y39348D01*
X5239Y39353D01*
X5245Y39359D01*
X5256Y39365D01*
X5270Y39376D01*
X5276Y39379D01*
X5284Y39384D01*
X5298Y39390D01*
X5307Y39393D01*
X5315D01*
X5321Y39396D01*
X5329Y39401D01*
X5332D01*
X5340Y39404D01*
X5352Y39407D01*
X5366Y39410D01*
X5368D01*
X5380Y39412D01*
X5388D01*
X5394Y39415D01*
X5399D01*
X5405Y39418D01*
X5427D01*
X5430Y39415D01*
X5433Y39412D01*
X5439Y39410D01*
X5456D01*
X5470Y39404D01*
X5472D01*
X5475Y39401D01*
X5489Y39396D01*
X5492D01*
X5495Y39393D01*
X5506Y39384D01*
X5509Y39381D01*
X5512Y39379D01*
X5515Y39376D01*
X5523D01*
X5526Y39373D01*
X5537Y39365D01*
X5540Y39362D01*
X5543Y39359D01*
X5557Y39345D01*
X5560Y39342D01*
X5562Y39336D01*
X5565Y39325D01*
X5568Y39314D01*
Y39311D01*
Y39308D01*
X5571Y39297D01*
Y39294D01*
X5574Y39291D01*
X5579Y39283D01*
X5588Y39275D01*
X5591Y39272D01*
X5599Y39261D01*
X5610Y39249D01*
X5621Y39241D01*
X5624Y39238D01*
X5630Y39235D01*
X5638Y39227D01*
X5641Y39221D01*
Y39218D01*
X5644Y39213D01*
X5641Y39204D01*
X5636Y39193D01*
X5633Y39190D01*
X5630Y39182D01*
X5621Y39173D01*
X5610Y39162D01*
X5607Y39159D01*
X5599Y39148D01*
X5596Y39145D01*
Y39140D01*
X5599Y39137D01*
X5605Y39134D01*
X5613D01*
X5619Y39137D01*
X5627Y39142D01*
X5630Y39145D01*
X5636Y39148D01*
X5641Y39154D01*
X5644Y39156D01*
X5647Y39159D01*
X5652Y39165D01*
X5655Y39173D01*
X5658Y39176D01*
X5661Y39182D01*
X5675Y39201D01*
X5711Y39252D01*
X5714Y39255D01*
X5720Y39261D01*
X5725Y39269D01*
X5731Y39275D01*
X5734D01*
X5740Y39280D01*
X5748Y39289D01*
X5762Y39300D01*
X5810Y39348D01*
X5813Y39351D01*
X5818Y39356D01*
X5835Y39373D01*
X5858Y39393D01*
X5877Y39412D01*
X5880Y39415D01*
X5891Y39421D01*
X5900Y39426D01*
X5911Y39432D01*
X5914D01*
X5917Y39435D01*
X5920Y39438D01*
X5922Y39449D01*
Y39452D01*
X5928Y39460D01*
X5934Y39466D01*
X5942Y39474D01*
X5953Y39483D01*
X5967Y39494D01*
X5995Y39522D01*
X5998Y39525D01*
X6004Y39530D01*
X6015Y39539D01*
X6029Y39553D01*
X6032Y39556D01*
X6040Y39561D01*
X6052Y39567D01*
X6057Y39573D01*
X6063Y39575D01*
X6069Y39578D01*
X6077Y39587D01*
X6108Y39618D01*
X6111Y39620D01*
X6119Y39629D01*
X6133Y39640D01*
X6147Y39651D01*
X6161Y39665D01*
X6175Y39677D01*
X6184Y39682D01*
X6189Y39685D01*
X6192Y39688D01*
X6201Y39696D01*
X6209Y39702D01*
X6220Y39713D01*
X6232Y39725D01*
X6246Y39741D01*
X6249Y39744D01*
X6254Y39750D01*
X6268Y39767D01*
X6285Y39786D01*
X6294Y39795D01*
X6296Y39800D01*
X6299Y39803D01*
X6302Y39809D01*
X6308Y39817D01*
X6310Y39820D01*
X6313Y39823D01*
X6324Y39837D01*
X6327D01*
X6330Y39843D01*
X6339Y39851D01*
X6347Y39862D01*
X6367Y39896D01*
X6381Y39919D01*
X6384Y39921D01*
X6386Y39927D01*
X6398Y39947D01*
X6400Y39952D01*
X6409Y39966D01*
X6420Y39986D01*
X6428Y40011D01*
Y40014D01*
X6431Y40020D01*
X6440Y40037D01*
X6443Y40039D01*
X6448Y40045D01*
X6459Y40056D01*
X6473Y40070D01*
X6527Y40115D01*
X6533Y40121D01*
X6547Y40132D01*
X6566Y40152D01*
X6592Y40174D01*
X6594D01*
X6597Y40180D01*
X6611Y40191D01*
X6625Y40203D01*
X6631Y40205D01*
X6634Y40208D01*
X6639D01*
X6642Y40214D01*
X6651Y40219D01*
X6653Y40222D01*
X6656Y40225D01*
X6662Y40231D01*
X6665Y40233D01*
X6670Y40236D01*
X6676Y40239D01*
X6687Y40250D01*
X6690Y40253D01*
X6698Y40262D01*
X6710Y40270D01*
X6724Y40281D01*
X6727Y40284D01*
X6738Y40290D01*
X6746Y40295D01*
X6758Y40301D01*
X6760D01*
X6763Y40304D01*
X6774Y40309D01*
X6777Y40312D01*
X6780Y40318D01*
Y40321D01*
X6777Y40323D01*
X6774Y40332D01*
X6760Y40357D01*
X6729Y40456D01*
X6724Y40484D01*
Y40487D01*
X6721Y40495D01*
X6718Y40509D01*
X6715Y40526D01*
Y40532D01*
X6713Y40546D01*
X6710Y40568D01*
Y40602D01*
Y40605D01*
Y40610D01*
Y40630D01*
X6713Y40652D01*
Y40661D01*
X6715Y40669D01*
X6718Y40672D01*
X6721Y40678D01*
X6724Y40683D01*
Y40689D01*
Y40692D01*
X6729Y40703D01*
X6732Y40712D01*
X6738Y40723D01*
X6746Y40737D01*
X6758Y40754D01*
X6760Y40757D01*
X6766Y40765D01*
X6769Y40773D01*
X6772Y40782D01*
Y40785D01*
X6777Y40790D01*
X6783Y40804D01*
X6788Y40816D01*
X6797Y40830D01*
Y40832D01*
X6800Y40841D01*
X6802Y40855D01*
X6805Y40877D01*
Y40880D01*
Y40891D01*
Y40903D01*
X6808Y40914D01*
Y40917D01*
X6814Y40920D01*
X6817Y40928D01*
X6825Y40942D01*
X6828Y40945D01*
X6836Y40956D01*
X6845Y40967D01*
X6856Y40979D01*
X6859Y40981D01*
X6864Y40984D01*
X6876Y40987D01*
X6890Y40990D01*
X6901D01*
X6909Y40993D01*
X6918Y40996D01*
X6921D01*
X6932Y40998D01*
X6952D01*
X6980Y40996D01*
X6982D01*
X6994Y40990D01*
X7005Y40987D01*
X7022Y40979D01*
X7025Y40976D01*
X7036Y40970D01*
X7047Y40962D01*
X7056Y40956D01*
X7058D01*
X7061Y40953D01*
X7064D01*
X7070Y40956D01*
X7072Y40962D01*
X7078Y40967D01*
X7081Y40979D01*
X7084Y40984D01*
Y40996D01*
X7078Y41010D01*
X7072Y41015D01*
X7064Y41018D01*
X7061D01*
X7056Y41021D01*
X7050Y41024D01*
X7047Y41026D01*
X7044D01*
X7036Y41029D01*
X7030D01*
X7025Y41032D01*
X7008D01*
X6988Y41029D01*
X6895Y41018D01*
X6881D01*
X6876Y41021D01*
Y41026D01*
X6878Y41032D01*
X6881Y41043D01*
Y41046D01*
X6884Y41052D01*
X6887Y41057D01*
X6890Y41063D01*
X6892Y41069D01*
X6895Y41077D01*
X6898Y41091D01*
Y41094D01*
Y41100D01*
X6901Y41116D01*
Y41119D01*
X6907Y41122D01*
X6912Y41131D01*
X6921Y41142D01*
X6923Y41147D01*
X6932Y41156D01*
X6940Y41167D01*
X6943Y41175D01*
Y41181D01*
X6946Y41187D01*
X6952Y41198D01*
X6982Y41263D01*
X6985Y41265D01*
X6988Y41274D01*
X6991Y41280D01*
X6997Y41285D01*
X7002Y41288D01*
X7005Y41296D01*
X7013Y41310D01*
Y41313D01*
X7016Y41322D01*
X7022Y41330D01*
X7025Y41336D01*
X7027Y41339D01*
X7039Y41347D01*
X7042D01*
X7047Y41350D01*
X7061Y41353D01*
X7098D01*
X7112Y41350D01*
D02*
G37*
G36*
X7736Y41654D02*
X6997Y41651D01*
X6839D01*
X6797Y41648D01*
X6322D01*
X5129Y41645D01*
X5124Y41628D01*
Y41625D01*
Y41620D01*
X5121Y41611D01*
Y41597D01*
Y41575D01*
X5118Y41547D01*
Y41654D01*
X7736D01*
Y41654D01*
D02*
G37*
G36*
X5652Y41254D02*
X5669Y41249D01*
X5689Y41240D01*
X5692D01*
X5695Y41237D01*
X5706Y41232D01*
X5717Y41223D01*
X5725Y41215D01*
Y41212D01*
X5731Y41209D01*
X5734Y41206D01*
X5751D01*
X5762Y41204D01*
X5773Y41198D01*
X5776Y41195D01*
X5787Y41192D01*
X5799Y41181D01*
X5815Y41170D01*
X5818Y41167D01*
X5827Y41159D01*
X5835Y41153D01*
X5838Y41147D01*
X5830D01*
X5818Y41150D01*
X5793D01*
X5790Y41147D01*
X5773D01*
X5770Y41145D01*
X5762Y41142D01*
X5754Y41136D01*
X5751Y41133D01*
X5748Y41128D01*
X5737Y41114D01*
Y41111D01*
X5734Y41105D01*
X5731Y41097D01*
X5725Y41083D01*
Y41080D01*
X5723Y41069D01*
X5720Y41052D01*
X5711Y41035D01*
Y41032D01*
X5706Y41021D01*
X5703Y41012D01*
X5697Y41004D01*
X5695Y41001D01*
X5689Y40990D01*
Y40987D01*
Y40984D01*
Y40973D01*
Y40970D01*
Y40965D01*
Y40956D01*
Y40942D01*
Y40939D01*
Y40928D01*
X5686Y40917D01*
X5683Y40906D01*
Y40903D01*
Y40894D01*
X5681Y40877D01*
Y40875D01*
Y40869D01*
X5675Y40849D01*
Y40847D01*
X5672Y40841D01*
X5669Y40830D01*
X5664Y40813D01*
X5661Y40793D01*
X5655Y40768D01*
X5652Y40740D01*
X5650Y40706D01*
Y40703D01*
Y40692D01*
X5647Y40678D01*
Y40661D01*
X5644Y40622D01*
X5641Y40607D01*
Y40593D01*
Y40591D01*
Y40588D01*
X5638Y40577D01*
X5636Y40560D01*
X5633Y40546D01*
X5630Y40540D01*
X5627Y40526D01*
X5621Y40501D01*
X5619Y40464D01*
Y40461D01*
Y40458D01*
X5616Y40442D01*
Y40422D01*
X5613Y40402D01*
Y40397D01*
X5610Y40383D01*
X5607Y40363D01*
X5602Y40340D01*
X5593Y40304D01*
Y40301D01*
X5591Y40295D01*
Y40290D01*
X5588Y40287D01*
Y40281D01*
Y40273D01*
X5585Y40262D01*
Y40259D01*
X5582Y40248D01*
X5576Y40233D01*
X5565Y40217D01*
X5562Y40211D01*
X5560Y40203D01*
X5557Y40191D01*
Y40186D01*
X5574Y40149D01*
X5576Y40146D01*
X5579Y40138D01*
X5582Y40127D01*
X5585Y40121D01*
X5599Y40090D01*
X5602Y40084D01*
X5605Y40076D01*
X5607Y40065D01*
X5610Y40056D01*
Y40054D01*
X5613Y40051D01*
X5619Y40042D01*
X5624Y40034D01*
X5731Y39879D01*
X5734Y39876D01*
X5737Y39868D01*
X5748Y39857D01*
X5759Y39843D01*
X5762Y39840D01*
X5770Y39829D01*
X5785Y39815D01*
X5799Y39800D01*
X5801Y39798D01*
X5807Y39792D01*
X5821Y39778D01*
X5838Y39758D01*
X5841Y39753D01*
X5844Y39747D01*
Y39744D01*
Y39741D01*
X5846Y39733D01*
X5852Y39722D01*
X5855Y39719D01*
X5858Y39710D01*
X5860Y39702D01*
X5863Y39694D01*
Y39691D01*
Y39688D01*
X5866Y39682D01*
X5869Y39680D01*
X5872Y39674D01*
X5875Y39663D01*
Y39660D01*
X5877Y39651D01*
X5880Y39640D01*
X5886Y39623D01*
Y39620D01*
X5889Y39615D01*
Y39601D01*
X5891Y39578D01*
Y39575D01*
Y39573D01*
X5894Y39564D01*
Y39553D01*
X5897Y39525D01*
X5900Y39494D01*
Y39491D01*
Y39480D01*
Y39469D01*
X5897Y39460D01*
Y39457D01*
X5894Y39455D01*
X5889Y39446D01*
X5877Y39441D01*
X5872Y39438D01*
X5863Y39429D01*
X5846Y39418D01*
X5796Y39365D01*
X5793Y39362D01*
X5787Y39356D01*
X5776Y39348D01*
X5765Y39336D01*
X5740Y39314D01*
X5728Y39306D01*
X5717Y39297D01*
X5714Y39294D01*
X5706Y39289D01*
X5700Y39280D01*
X5695D01*
Y39283D01*
Y39289D01*
X5692Y39300D01*
X5689Y39342D01*
Y39345D01*
Y39351D01*
Y39362D01*
Y39373D01*
X5686Y39398D01*
Y39407D01*
X5683Y39415D01*
Y39418D01*
X5681Y39424D01*
X5678Y39435D01*
X5675Y39446D01*
Y39449D01*
X5672Y39455D01*
X5664Y39474D01*
Y39477D01*
X5661Y39483D01*
X5658Y39497D01*
Y39500D01*
X5655Y39505D01*
X5650Y39511D01*
X5647Y39516D01*
X5641Y39525D01*
Y39528D01*
X5638Y39533D01*
X5633Y39542D01*
Y39545D01*
X5630Y39547D01*
X5624Y39564D01*
Y39570D01*
X5619Y39578D01*
X5616Y39581D01*
X5607Y39590D01*
X5605Y39595D01*
X5596Y39604D01*
X5585Y39618D01*
X5582Y39620D01*
X5574Y39629D01*
X5565Y39637D01*
X5554Y39643D01*
X5537D01*
X5523Y39637D01*
X5520Y39635D01*
X5512Y39632D01*
X5489Y39626D01*
X5486D01*
X5481Y39623D01*
X5464Y39615D01*
X5461Y39612D01*
X5458Y39609D01*
X5450Y39606D01*
X5436D01*
X5422Y39604D01*
X5419D01*
X5416Y39601D01*
X5408Y39598D01*
X5397Y39595D01*
X5377D01*
Y39598D01*
X5374Y39604D01*
Y39615D01*
Y39618D01*
Y39623D01*
Y39629D01*
X5371Y39635D01*
X5368Y39637D01*
X5360D01*
X5354Y39643D01*
X5349Y39654D01*
X5352Y39663D01*
X5354Y39674D01*
Y39677D01*
X5357Y39680D01*
X5360Y39694D01*
X5363Y39710D01*
Y39716D01*
X5360Y39722D01*
X5349D01*
X5340Y39716D01*
X5337Y39713D01*
X5335Y39710D01*
X5326Y39705D01*
X5318Y39702D01*
X5312Y39699D01*
X5304Y39696D01*
X5298Y39694D01*
X5292Y39691D01*
X5284Y39688D01*
X5281D01*
X5276Y39685D01*
X5264Y39680D01*
X5253Y39677D01*
X5250D01*
X5245Y39674D01*
X5225Y39671D01*
X5219D01*
X5208Y39668D01*
X5202Y39665D01*
X5194Y39663D01*
X5180Y39660D01*
X5177D01*
X5166Y39657D01*
X5141D01*
X5118Y39660D01*
Y39730D01*
X5121Y39708D01*
Y39688D01*
Y39685D01*
X5124Y39694D01*
Y39705D01*
Y39719D01*
Y39736D01*
Y39761D01*
X5127Y39789D01*
Y39823D01*
Y39865D01*
Y39910D01*
Y39966D01*
Y40028D01*
Y40031D01*
Y40042D01*
Y40062D01*
Y40084D01*
Y40110D01*
Y40141D01*
Y40205D01*
Y40270D01*
X5124Y40301D01*
Y40326D01*
Y40349D01*
Y40368D01*
X5121Y40380D01*
Y40377D01*
Y40371D01*
Y40363D01*
Y40352D01*
Y40338D01*
X5118Y40321D01*
Y41007D01*
X5121Y40399D01*
X5124D01*
X5132Y40405D01*
X5135D01*
X5138Y40408D01*
X5141Y40411D01*
Y40416D01*
X5143Y40422D01*
X5146Y40433D01*
X5155Y40453D01*
X5157Y40458D01*
X5166Y40475D01*
X5177Y40501D01*
X5188Y40534D01*
Y40537D01*
X5191Y40543D01*
X5197Y40554D01*
X5202Y40571D01*
X5208Y40591D01*
X5214Y40613D01*
X5222Y40638D01*
X5231Y40669D01*
Y40672D01*
X5233Y40675D01*
X5236Y40683D01*
X5239Y40695D01*
X5247Y40726D01*
X5262Y40765D01*
X5292Y40847D01*
Y40849D01*
X5295Y40855D01*
X5298Y40863D01*
X5301Y40872D01*
X5312Y40900D01*
X5326Y40931D01*
Y40934D01*
X5329Y40936D01*
X5337Y40956D01*
X5352Y40979D01*
X5366Y41007D01*
X5394Y41055D01*
Y41057D01*
X5397Y41060D01*
X5408Y41077D01*
X5419Y41100D01*
X5433Y41119D01*
X5436Y41125D01*
X5447Y41136D01*
X5461Y41153D01*
X5481Y41173D01*
X5484Y41175D01*
X5489Y41181D01*
X5501Y41190D01*
X5515Y41201D01*
X5548Y41226D01*
X5568Y41237D01*
X5588Y41246D01*
X5591D01*
X5593Y41249D01*
X5605Y41251D01*
X5621Y41254D01*
X5638Y41257D01*
X5641D01*
X5652Y41254D01*
D02*
G37*
%LPC*%
G36*
X5925Y40560D02*
X5911D01*
Y40557D01*
X5905Y40554D01*
X5900D01*
X5891Y40551D01*
X5889D01*
X5877Y40548D01*
X5860Y40546D01*
X5846Y40540D01*
X5844Y40537D01*
X5832Y40529D01*
X5813Y40517D01*
X5785Y40495D01*
X5782Y40492D01*
X5776Y40489D01*
X5759Y40484D01*
X5756D01*
X5754Y40481D01*
X5742Y40472D01*
Y40470D01*
Y40467D01*
X5745Y40464D01*
X5754Y40461D01*
X5762D01*
X5779Y40456D01*
X5782D01*
X5790Y40453D01*
X5807Y40450D01*
X5858D01*
X5880Y40453D01*
X5903Y40458D01*
X5908Y40461D01*
X5920Y40464D01*
X5934Y40472D01*
X5953Y40487D01*
X5956Y40489D01*
X5965Y40495D01*
X5973Y40506D01*
X5976Y40515D01*
Y40520D01*
X5981Y40529D01*
Y40532D01*
Y40534D01*
Y40540D01*
X5976Y40543D01*
X5967Y40546D01*
X5956Y40551D01*
X5953D01*
X5945Y40554D01*
X5925Y40560D01*
D02*
G37*
G36*
X6043Y40332D02*
X6040Y40329D01*
X6038Y40326D01*
X6029Y40321D01*
Y40318D01*
X6024Y40312D01*
X6021Y40301D01*
X6018Y40287D01*
Y40284D01*
Y40276D01*
X6021Y40270D01*
X6026Y40267D01*
X6032D01*
X6035Y40270D01*
Y40281D01*
Y40284D01*
Y40293D01*
X6038Y40301D01*
X6043Y40309D01*
Y40312D01*
X6046Y40318D01*
Y40326D01*
X6043Y40332D01*
D02*
G37*
G36*
X6125Y40284D02*
X6100D01*
X6091Y40281D01*
X6083Y40278D01*
Y40276D01*
Y40273D01*
X6088Y40270D01*
X6094Y40267D01*
X6102Y40264D01*
X6128D01*
X6133Y40267D01*
X6139Y40270D01*
Y40273D01*
Y40276D01*
X6133Y40281D01*
X6125Y40284D01*
D02*
G37*
G36*
X6251Y40326D02*
X6249Y40323D01*
X6246Y40318D01*
X6243Y40309D01*
Y40307D01*
Y40304D01*
X6246Y40295D01*
Y40293D01*
X6249Y40290D01*
Y40293D01*
X6251Y40301D01*
Y40304D01*
X6254Y40312D01*
Y40323D01*
X6251Y40326D01*
D02*
G37*
G36*
X6142Y40501D02*
X6139D01*
X6136Y40498D01*
Y40495D01*
Y40492D01*
X6142Y40478D01*
Y40475D01*
X6144Y40470D01*
X6153Y40456D01*
Y40453D01*
X6156Y40450D01*
X6164Y40439D01*
X6175Y40416D01*
Y40413D01*
X6178Y40408D01*
Y40402D01*
Y40397D01*
X6181Y40394D01*
X6184Y40388D01*
X6187Y40385D01*
Y40377D01*
Y40374D01*
X6192Y40363D01*
X6198Y40349D01*
X6212Y40332D01*
Y40329D01*
X6215Y40326D01*
X6218Y40318D01*
Y40315D01*
Y40312D01*
X6215Y40304D01*
X6209Y40295D01*
Y40293D01*
X6206Y40290D01*
X6204Y40278D01*
Y40273D01*
Y40270D01*
X6209Y40273D01*
X6218Y40278D01*
X6220Y40281D01*
X6223Y40290D01*
X6229Y40298D01*
X6232Y40309D01*
Y40312D01*
Y40318D01*
Y40323D01*
Y40329D01*
X6229Y40332D01*
X6220Y40343D01*
X6218Y40346D01*
X6209Y40357D01*
X6198Y40368D01*
X6195Y40383D01*
Y40388D01*
X6189Y40402D01*
X6178Y40430D01*
Y40433D01*
X6175Y40436D01*
X6173Y40447D01*
Y40450D01*
X6170Y40456D01*
X6164Y40461D01*
Y40464D01*
X6159Y40470D01*
X6153Y40478D01*
X6144Y40495D01*
Y40498D01*
X6142Y40501D01*
D02*
G37*
G36*
X7202Y40906D02*
X7199Y40903D01*
X7193Y40897D01*
Y40894D01*
X7191Y40889D01*
X7185Y40880D01*
X7176Y40869D01*
X7165Y40852D01*
Y40787D01*
Y40785D01*
Y40779D01*
Y40762D01*
Y40742D01*
Y40734D01*
Y40728D01*
Y40726D01*
X7168Y40720D01*
X7174Y40706D01*
Y40703D01*
X7176Y40700D01*
X7179Y40686D01*
Y40683D01*
X7176Y40678D01*
X7174Y40669D01*
X7162Y40661D01*
X7160Y40658D01*
X7151Y40652D01*
X7143Y40647D01*
X7132Y40644D01*
X7129D01*
X7123Y40641D01*
X7117Y40638D01*
X7115Y40636D01*
Y40633D01*
X7117Y40630D01*
X7126Y40627D01*
X7154D01*
X7162Y40630D01*
X7165Y40633D01*
Y40636D01*
Y40641D01*
X7171Y40647D01*
X7174Y40650D01*
X7176Y40655D01*
Y40658D01*
X7179Y40661D01*
X7188D01*
X7191Y40658D01*
X7193Y40652D01*
X7196Y40644D01*
Y40641D01*
Y40636D01*
X7191Y40627D01*
X7176Y40622D01*
X7174D01*
Y40619D01*
X7179Y40616D01*
X7182D01*
X7188Y40613D01*
X7196Y40616D01*
X7205Y40622D01*
X7207Y40627D01*
Y40636D01*
Y40647D01*
Y40650D01*
Y40655D01*
X7205Y40664D01*
X7202Y40672D01*
Y40675D01*
X7199Y40681D01*
X7196Y40689D01*
X7193Y40706D01*
Y40709D01*
Y40717D01*
X7191Y40728D01*
X7188Y40734D01*
X7185Y40740D01*
X7182Y40745D01*
X7179Y40754D01*
Y40757D01*
Y40765D01*
Y40779D01*
Y40799D01*
Y40802D01*
Y40810D01*
Y40821D01*
Y40832D01*
Y40844D01*
Y40852D01*
X7182D01*
X7185Y40849D01*
X7188Y40847D01*
X7191Y40849D01*
X7193Y40852D01*
Y40866D01*
Y40869D01*
Y40872D01*
X7196Y40877D01*
X7202Y40880D01*
X7205Y40883D01*
X7207Y40886D01*
Y40894D01*
Y40897D01*
X7205Y40903D01*
X7202Y40906D01*
D02*
G37*
G36*
X7289Y40970D02*
X7283D01*
X7269Y40967D01*
X7264Y40965D01*
X7255Y40959D01*
X7252Y40956D01*
X7247Y40951D01*
X7238Y40945D01*
Y40942D01*
X7233Y40939D01*
X7221Y40928D01*
Y40925D01*
X7219Y40922D01*
Y40920D01*
X7221Y40917D01*
X7227Y40914D01*
X7297D01*
X7326Y40920D01*
X7354D01*
X7376Y40914D01*
X7379D01*
X7382Y40911D01*
X7393Y40906D01*
X7404Y40897D01*
X7407Y40894D01*
X7416Y40886D01*
X7438Y40866D01*
X7441Y40863D01*
X7449Y40855D01*
X7458D01*
X7461Y40858D01*
Y40863D01*
Y40866D01*
X7458Y40869D01*
X7455Y40877D01*
X7444Y40891D01*
X7441Y40894D01*
X7435Y40900D01*
X7424Y40911D01*
X7413Y40920D01*
X7410D01*
X7404Y40925D01*
X7399Y40928D01*
X7396Y40934D01*
X7393Y40936D01*
X7385Y40942D01*
X7371Y40948D01*
X7365D01*
X7354Y40953D01*
X7337Y40956D01*
X7317Y40959D01*
X7314D01*
X7309Y40965D01*
X7303Y40967D01*
X7297D01*
X7289Y40970D01*
D02*
G37*
G36*
X7025Y40703D02*
X7019D01*
X7016Y40700D01*
X7011Y40695D01*
Y40692D01*
X7008Y40689D01*
Y40683D01*
Y40675D01*
X7011Y40672D01*
X7013Y40669D01*
X7016Y40672D01*
X7019Y40678D01*
X7022Y40683D01*
Y40686D01*
X7025Y40689D01*
X7027Y40692D01*
X7033D01*
X7036Y40695D01*
Y40697D01*
Y40700D01*
X7030D01*
X7025Y40703D01*
D02*
G37*
G36*
X7292Y40863D02*
X7241D01*
X7236Y40861D01*
X7230Y40855D01*
X7227Y40847D01*
Y40844D01*
X7230Y40838D01*
X7236Y40832D01*
X7238Y40835D01*
X7244Y40838D01*
X7247Y40841D01*
X7255Y40844D01*
X7266Y40847D01*
X7275Y40844D01*
X7278Y40841D01*
X7281Y40838D01*
Y40830D01*
X7275Y40818D01*
Y40816D01*
Y40813D01*
X7272Y40807D01*
X7275Y40804D01*
X7278Y40802D01*
X7283Y40796D01*
X7286Y40793D01*
X7292Y40790D01*
X7300Y40787D01*
X7345D01*
X7351Y40790D01*
X7354Y40793D01*
X7359Y40796D01*
X7368Y40799D01*
X7379Y40802D01*
X7399D01*
X7407Y40804D01*
X7410D01*
X7413Y40807D01*
X7416Y40810D01*
X7410Y40813D01*
X7407D01*
X7401Y40816D01*
X7393Y40821D01*
X7390D01*
X7387Y40827D01*
X7373Y40832D01*
X7371D01*
X7365Y40835D01*
X7362Y40838D01*
X7348Y40847D01*
X7340Y40852D01*
X7326Y40858D01*
X7311Y40861D01*
X7292Y40863D01*
D02*
G37*
G36*
X6957Y40939D02*
X6943Y40936D01*
X6937D01*
X6926Y40931D01*
X6923D01*
X6918Y40928D01*
X6909Y40925D01*
X6901D01*
X6887Y40922D01*
X6864D01*
X6850Y40920D01*
X6839Y40914D01*
X6836Y40911D01*
Y40906D01*
X6839Y40903D01*
X6845Y40897D01*
X6856Y40891D01*
X6873Y40883D01*
X6890Y40897D01*
X6892Y40900D01*
X6898Y40903D01*
X6904Y40908D01*
X6912Y40911D01*
X6937D01*
X6940Y40906D01*
X6943Y40900D01*
X6946Y40889D01*
Y40886D01*
Y40877D01*
Y40869D01*
X6940Y40863D01*
X6935Y40861D01*
X6932Y40863D01*
X6929Y40872D01*
X6926Y40875D01*
X6921Y40877D01*
X6895D01*
X6887Y40875D01*
X6878Y40872D01*
Y40869D01*
X6887Y40866D01*
X6892Y40863D01*
X6904D01*
X6909Y40861D01*
X6923Y40852D01*
X6926D01*
X6929Y40849D01*
X6960D01*
X6968Y40852D01*
X6974Y40858D01*
X6977D01*
X6980Y40861D01*
X6991Y40863D01*
X6997D01*
X6999Y40866D01*
X7005Y40872D01*
X7008D01*
X7011Y40875D01*
X7019Y40880D01*
X7022D01*
X7025Y40883D01*
Y40891D01*
X7022Y40900D01*
X7016Y40908D01*
X7013Y40911D01*
X7011Y40917D01*
X7002Y40922D01*
X6994Y40925D01*
X6988D01*
X6982Y40928D01*
X6974Y40934D01*
X6971D01*
X6968Y40936D01*
X6957Y40939D01*
D02*
G37*
G36*
X23635Y34905D02*
X23554D01*
X23547Y34903D01*
X23535Y34899D01*
X23522Y34897D01*
X23520Y34895D01*
X23513Y34894D01*
X23504Y34892D01*
X23496Y34888D01*
X23492Y34886D01*
X23485Y34882D01*
X23472Y34877D01*
X23457Y34869D01*
X23421Y34849D01*
X23404Y34837D01*
X23387Y34824D01*
X23386Y34822D01*
X23384Y34820D01*
X23382Y34817D01*
X23384Y34815D01*
X23386Y34813D01*
X23387Y34811D01*
X23393Y34809D01*
X23401Y34807D01*
X23412Y34805D01*
X23416D01*
X23425Y34804D01*
X23440Y34802D01*
X23489D01*
X23507Y34804D01*
X23528Y34807D01*
X23550Y34811D01*
X23573Y34819D01*
X23592Y34828D01*
X23594Y34830D01*
X23601Y34835D01*
X23614Y34849D01*
X23631Y34865D01*
X23633Y34867D01*
X23635Y34869D01*
X23646Y34879D01*
X23657Y34890D01*
X23661Y34895D01*
X23663Y34899D01*
X23661D01*
X23657Y34901D01*
X23652Y34903D01*
X23644D01*
X23635Y34905D01*
D02*
G37*
G36*
X22930Y34952D02*
X22925D01*
Y34950D01*
X22926Y34946D01*
X22928Y34940D01*
X22932Y34931D01*
X22934Y34929D01*
X22936Y34924D01*
X22941Y34916D01*
X22947Y34907D01*
X22962Y34888D01*
X22971Y34879D01*
X22979Y34871D01*
X22981D01*
X22983Y34867D01*
X22988Y34864D01*
X22996Y34860D01*
X23005Y34854D01*
X23014Y34850D01*
X23043Y34839D01*
X23044D01*
X23046Y34837D01*
X23058Y34835D01*
X23071Y34834D01*
X23082Y34832D01*
X23093D01*
X23095Y34835D01*
Y34837D01*
Y34841D01*
X23093Y34849D01*
X23089Y34860D01*
Y34862D01*
X23086Y34869D01*
X23082Y34879D01*
X23078Y34886D01*
X23076Y34890D01*
X23067Y34897D01*
X23054Y34909D01*
X23043Y34916D01*
X23031Y34922D01*
X23029D01*
X23026Y34924D01*
X23018Y34927D01*
X23011Y34931D01*
X22999Y34935D01*
X22986Y34940D01*
X22956Y34948D01*
X22930Y34952D01*
D02*
G37*
G36*
X23080Y34215D02*
Y34213D01*
Y34210D01*
X23084Y34204D01*
X23091Y34196D01*
X23093Y34195D01*
X23099Y34189D01*
X23106Y34181D01*
X23112Y34176D01*
X23114Y34174D01*
X23118Y34172D01*
X23129Y34165D01*
X23131Y34163D01*
X23136Y34161D01*
X23148Y34159D01*
X23161Y34157D01*
X23194Y34150D01*
X23198D01*
X23207Y34148D01*
X23282D01*
X23329Y34159D01*
X23331D01*
X23333Y34161D01*
X23341Y34163D01*
X23352Y34168D01*
X23361Y34172D01*
X23363D01*
X23369Y34176D01*
X23376Y34180D01*
X23386Y34185D01*
X23389Y34187D01*
X23395Y34191D01*
X23402Y34196D01*
X23406Y34202D01*
X23404D01*
X23401Y34200D01*
X23395Y34198D01*
X23389Y34195D01*
X23387Y34193D01*
X23380Y34191D01*
X23372Y34185D01*
X23363Y34181D01*
X23361Y34180D01*
X23357Y34178D01*
X23352Y34176D01*
X23346D01*
X23344Y34174D01*
X23341Y34172D01*
X23339Y34170D01*
X23329D01*
X23327Y34168D01*
X23316Y34166D01*
X23314D01*
X23309Y34165D01*
X23301Y34163D01*
X23290Y34159D01*
X23264Y34153D01*
X23245D01*
X23228Y34155D01*
X23224D01*
X23211Y34157D01*
X23194Y34159D01*
X23176Y34165D01*
X23140Y34172D01*
X23125Y34178D01*
X23123Y34180D01*
X23118Y34183D01*
X23110Y34189D01*
X23099Y34200D01*
X23097Y34202D01*
X23089Y34208D01*
X23084Y34213D01*
X23080Y34215D01*
D02*
G37*
G36*
X23174Y34785D02*
X23170Y34781D01*
X23166Y34779D01*
X23161Y34774D01*
X23155Y34766D01*
X23146Y34757D01*
X23144Y34755D01*
X23142Y34753D01*
X23133Y34742D01*
X23119Y34730D01*
X23108Y34717D01*
X23106Y34714D01*
X23101Y34706D01*
X23093Y34697D01*
X23084Y34686D01*
X23082Y34684D01*
X23078Y34676D01*
X23073Y34671D01*
X23067Y34665D01*
Y34663D01*
X23065Y34661D01*
X23063Y34650D01*
Y34648D01*
Y34642D01*
X23065Y34637D01*
X23069Y34631D01*
X23071Y34629D01*
X23076Y34626D01*
X23084Y34620D01*
X23099Y34611D01*
X23103Y34609D01*
X23108Y34605D01*
X23119Y34597D01*
X23129Y34590D01*
X23131Y34588D01*
X23136Y34582D01*
X23142Y34575D01*
X23148Y34567D01*
X23149Y34564D01*
X23151Y34556D01*
X23155Y34541D01*
X23157Y34524D01*
Y34522D01*
Y34521D01*
X23159Y34509D01*
Y34498D01*
X23157Y34489D01*
Y34487D01*
X23153Y34483D01*
X23149Y34479D01*
X23142Y34476D01*
X23140D01*
X23134Y34474D01*
X23121Y34472D01*
X23104Y34470D01*
X23101D01*
X23089Y34468D01*
X23078Y34466D01*
X23067Y34462D01*
X23065Y34461D01*
X23061Y34457D01*
X23054Y34449D01*
X23048Y34440D01*
X23046Y34438D01*
X23044Y34434D01*
X23039Y34429D01*
X23035Y34425D01*
X23031Y34423D01*
X23028Y34419D01*
X23022Y34418D01*
X23018Y34416D01*
X23013Y34414D01*
X23007Y34412D01*
X23005Y34410D01*
Y34408D01*
X23007Y34406D01*
X23011Y34404D01*
X23014Y34403D01*
X23020Y34401D01*
X23029Y34399D01*
X23039Y34397D01*
X23041D01*
X23046Y34395D01*
X23054Y34393D01*
X23065Y34391D01*
X23088Y34388D01*
X23112D01*
X23116Y34389D01*
X23121D01*
X23129Y34391D01*
X23146Y34393D01*
X23166D01*
X23172Y34391D01*
X23181Y34389D01*
X23193Y34388D01*
X23207Y34384D01*
X23226Y34380D01*
X23249Y34376D01*
X23251D01*
X23256Y34374D01*
X23264Y34373D01*
X23275Y34371D01*
X23309Y34359D01*
X23311D01*
X23316Y34358D01*
X23324Y34354D01*
X23335Y34350D01*
X23356Y34344D01*
X23367Y34341D01*
X23376Y34339D01*
X23378D01*
X23380Y34337D01*
X23386D01*
X23393Y34335D01*
X23410Y34333D01*
X23451D01*
X23468Y34335D01*
X23485Y34339D01*
X23489D01*
X23500Y34343D01*
X23517Y34348D01*
X23541Y34359D01*
X23543D01*
X23549Y34363D01*
X23560Y34371D01*
X23565Y34374D01*
X23569Y34376D01*
X23567Y34378D01*
X23560D01*
X23558Y34376D01*
X23547Y34374D01*
X23532Y34373D01*
X23513Y34371D01*
X23509D01*
X23498Y34369D01*
X23481Y34367D01*
X23447D01*
X23432Y34371D01*
X23414Y34374D01*
X23412D01*
X23410Y34376D01*
X23404Y34378D01*
X23397Y34380D01*
X23387Y34384D01*
X23376Y34389D01*
X23361Y34397D01*
X23346Y34404D01*
X23299Y34427D01*
X23254Y34448D01*
X23252D01*
X23247Y34449D01*
X23241Y34453D01*
X23232Y34457D01*
X23213Y34466D01*
X23206Y34470D01*
X23198Y34474D01*
X23196Y34476D01*
X23191Y34479D01*
X23185Y34485D01*
X23181Y34491D01*
Y34494D01*
X23179Y34502D01*
X23178Y34517D01*
Y34537D01*
Y34539D01*
Y34543D01*
X23181Y34554D01*
X23185Y34569D01*
X23191Y34584D01*
X23193Y34586D01*
X23196Y34588D01*
X23202Y34594D01*
X23222Y34612D01*
X23224Y34614D01*
X23232Y34620D01*
X23241Y34627D01*
X23251Y34637D01*
X23260Y34648D01*
X23267Y34657D01*
X23269Y34665D01*
X23267Y34669D01*
X23266Y34671D01*
X23262Y34672D01*
X23258Y34674D01*
X23251Y34672D01*
X23249Y34671D01*
X23243Y34667D01*
X23232Y34661D01*
X23217Y34652D01*
X23215Y34650D01*
X23209Y34648D01*
X23202Y34642D01*
X23194Y34639D01*
X23174Y34629D01*
X23166Y34626D01*
X23153D01*
X23144Y34629D01*
X23134Y34633D01*
X23133Y34635D01*
X23127Y34639D01*
X23118Y34644D01*
X23106Y34654D01*
X23104Y34656D01*
X23099Y34659D01*
X23095Y34665D01*
X23091Y34669D01*
X23093Y34672D01*
X23097Y34678D01*
X23106Y34689D01*
X23123Y34710D01*
X23164Y34766D01*
X23166Y34768D01*
X23170Y34775D01*
X23174Y34781D01*
Y34785D01*
D02*
G37*
G36*
X7070Y40675D02*
X7061D01*
X7056Y40672D01*
Y40669D01*
Y40667D01*
X7058Y40661D01*
X7070Y40655D01*
X7075D01*
X7078Y40658D01*
X7081Y40664D01*
Y40669D01*
X7078Y40672D01*
X7070Y40675D01*
D02*
G37*
G36*
X5917Y40672D02*
X5838D01*
Y40669D01*
X5835D01*
X5832Y40667D01*
X5827D01*
X5815Y40664D01*
X5813D01*
X5801Y40658D01*
X5785Y40652D01*
X5765Y40644D01*
X5762Y40641D01*
X5751Y40633D01*
X5737Y40624D01*
X5723Y40613D01*
X5720Y40610D01*
X5717Y40607D01*
Y40602D01*
X5720Y40596D01*
X5723Y40593D01*
X5725Y40591D01*
X5734Y40588D01*
X5751D01*
X5759Y40591D01*
X5765Y40593D01*
X5768Y40596D01*
X5776Y40599D01*
X5793Y40605D01*
X5813Y40607D01*
X5852D01*
X5875Y40605D01*
X5877D01*
X5886Y40602D01*
X5900Y40599D01*
X5942D01*
X5950Y40602D01*
X5956D01*
X5962Y40607D01*
X5965Y40610D01*
X5967Y40616D01*
X5970Y40627D01*
X5967Y40638D01*
Y40641D01*
X5962Y40647D01*
X5953Y40655D01*
X5939Y40664D01*
X5936D01*
X5934Y40667D01*
X5917Y40672D01*
D02*
G37*
G36*
X6257Y40622D02*
X6243D01*
X6237Y40619D01*
X6218Y40616D01*
X6215D01*
X6209Y40613D01*
X6189Y40605D01*
X6170Y40591D01*
X6164Y40579D01*
X6161Y40565D01*
Y40562D01*
Y40557D01*
X6164Y40551D01*
X6170Y40546D01*
X6173Y40543D01*
X6178Y40540D01*
X6189Y40537D01*
X6226D01*
X6237Y40540D01*
X6271Y40551D01*
X6274D01*
X6279Y40554D01*
X6296Y40562D01*
X6316Y40574D01*
X6322Y40582D01*
X6324Y40593D01*
Y40596D01*
Y40599D01*
X6322Y40605D01*
X6316Y40610D01*
X6313D01*
X6308Y40613D01*
X6299Y40616D01*
X6282Y40619D01*
X6268D01*
X6257Y40622D01*
D02*
G37*
G36*
X6136Y40529D02*
X6133Y40526D01*
Y40523D01*
Y40520D01*
X6136Y40517D01*
X6139D01*
Y40523D01*
Y40526D01*
X6136Y40529D01*
D02*
G37*
G36*
X6288Y40745D02*
X6232D01*
X6220Y40742D01*
X6215Y40740D01*
X6201Y40734D01*
X6198Y40731D01*
X6192Y40728D01*
X6173Y40717D01*
X6170Y40714D01*
X6167Y40712D01*
X6164Y40706D01*
X6161Y40700D01*
Y40697D01*
Y40695D01*
X6156Y40683D01*
Y40681D01*
X6153Y40675D01*
X6150Y40669D01*
X6153Y40667D01*
X6159Y40664D01*
X6167Y40661D01*
X6178Y40658D01*
X6201Y40655D01*
X6220Y40675D01*
X6223Y40678D01*
X6232Y40683D01*
X6240Y40689D01*
X6246Y40695D01*
X6249D01*
X6260Y40700D01*
X6265D01*
X6279Y40703D01*
X6282D01*
X6288Y40706D01*
X6291Y40709D01*
X6294Y40714D01*
X6296Y40717D01*
X6299Y40728D01*
X6302Y40731D01*
Y40734D01*
X6299Y40740D01*
X6296Y40742D01*
X6288Y40745D01*
D02*
G37*
%LPD*%
G36*
X5832Y40472D02*
X5830Y40470D01*
X5813D01*
X5810Y40472D01*
Y40475D01*
Y40478D01*
X5815Y40484D01*
X5827Y40495D01*
X5832Y40472D01*
D02*
G37*
G36*
X5875Y40512D02*
Y40509D01*
X5869Y40503D01*
X5866Y40501D01*
X5855D01*
Y40506D01*
X5858Y40512D01*
X5860Y40515D01*
X5863D01*
X5869Y40517D01*
X5875Y40512D01*
D02*
G37*
G36*
X5942Y40532D02*
X5945D01*
Y40529D01*
Y40520D01*
X5939Y40509D01*
X5936Y40506D01*
X5934Y40503D01*
X5928D01*
X5925Y40509D01*
Y40517D01*
Y40520D01*
Y40526D01*
X5928Y40532D01*
X5931Y40534D01*
X5942Y40532D01*
D02*
G37*
G36*
X6246Y40720D02*
X6240Y40717D01*
X6234Y40714D01*
X6232Y40712D01*
X6226Y40709D01*
X6206Y40692D01*
X6204Y40689D01*
X6195Y40683D01*
X6184Y40678D01*
X6181Y40681D01*
Y40683D01*
Y40686D01*
X6184Y40692D01*
X6192Y40700D01*
X6204Y40709D01*
X6206Y40712D01*
X6215Y40714D01*
X6226Y40720D01*
X6240Y40723D01*
X6246D01*
Y40720D01*
D02*
G37*
G36*
X5922Y40644D02*
X5925Y40641D01*
X5934Y40638D01*
X5939Y40630D01*
X5942Y40627D01*
X5939Y40622D01*
X5936D01*
X5928Y40619D01*
X5914D01*
X5889Y40624D01*
X5886Y40627D01*
X5875Y40630D01*
X5860Y40633D01*
X5841Y40636D01*
X5818D01*
X5815Y40638D01*
X5818D01*
X5827Y40641D01*
X5841Y40644D01*
X5863Y40647D01*
X5905D01*
X5922Y40644D01*
D02*
G37*
G36*
X6212Y40579D02*
X6215Y40577D01*
X6220Y40565D01*
X6218Y40562D01*
X6204D01*
X6192Y40568D01*
X6189Y40571D01*
X6192Y40574D01*
X6204Y40579D01*
X6206Y40582D01*
X6212Y40579D01*
D02*
G37*
D17*
X8480Y32331D02*
X8827D01*
X8843D02*
Y38630D01*
X8480D02*
X8843D01*
X4882D02*
X8480D01*
X2752D02*
X4882D01*
X2752Y32331D02*
Y38630D01*
Y32331D02*
X4882D01*
X8480D01*
X14447Y44844D02*
Y46094D01*
X15947Y44844D02*
Y46094D01*
X17447Y44844D02*
Y46094D01*
X18947Y44844D02*
Y46094D01*
X13423Y43394D02*
X19970D01*
Y47244D01*
X13423D02*
X19970D01*
X13423Y43394D02*
Y47244D01*
Y44094D02*
X13744D01*
X19650D02*
X19970D01*
X25695Y28986D02*
X25495D01*
X25595D01*
Y28486D01*
X25495Y28386D01*
X25395D01*
X25295Y28486D01*
X26295Y28986D02*
X26095Y28886D01*
X25895Y28686D01*
Y28486D01*
X25995Y28386D01*
X26195D01*
X26295Y28486D01*
Y28586D01*
X26195Y28686D01*
X25895D01*
X25695Y30147D02*
X25495D01*
X25595D01*
Y29647D01*
X25495Y29547D01*
X25395D01*
X25295Y29647D01*
X25895Y30147D02*
X26295D01*
Y30047D01*
X25895Y29647D01*
Y29547D01*
X25695Y27745D02*
X25495D01*
X25595D01*
Y27246D01*
X25495Y27146D01*
X25395D01*
X25295Y27246D01*
X26295Y27745D02*
X25895D01*
Y27446D01*
X26095Y27546D01*
X26195D01*
X26295Y27446D01*
Y27246D01*
X26195Y27146D01*
X25995D01*
X25895Y27246D01*
X20616Y44655D02*
X20416D01*
X20516D01*
Y44155D01*
X20416Y44055D01*
X20317D01*
X20217Y44155D01*
X21216Y44055D02*
X20816D01*
X21216Y44455D01*
Y44555D01*
X21116Y44655D01*
X20916D01*
X20816Y44555D01*
X20472Y30915D02*
Y30415D01*
X20572Y30315D01*
X20772D01*
X20872Y30415D01*
Y30915D01*
X21472Y30315D02*
X21072D01*
X21472Y30715D01*
Y30815D01*
X21372Y30915D01*
X21172D01*
X21072Y30815D01*
X28746Y28946D02*
X28546D01*
X28646D01*
Y28446D01*
X28546Y28346D01*
X28446D01*
X28346Y28446D01*
X28946Y28846D02*
X29046Y28946D01*
X29246D01*
X29346Y28846D01*
Y28746D01*
X29246Y28646D01*
X29146D01*
X29246D01*
X29346Y28546D01*
Y28446D01*
X29246Y28346D01*
X29046D01*
X28946Y28446D01*
X6584Y44076D02*
X6384D01*
X6484D01*
Y43576D01*
X6384Y43476D01*
X6284D01*
X6184Y43576D01*
X7084Y43476D02*
Y44076D01*
X6784Y43776D01*
X7184D01*
X12598Y27765D02*
X12998Y27165D01*
Y27765D02*
X12598Y27165D01*
X13198D02*
X13398D01*
X13298D01*
Y27765D01*
X13198Y27665D01*
X16148Y38198D02*
X15948D01*
X16048D01*
Y37698D01*
X15948Y37598D01*
X15848D01*
X15748Y37698D01*
X16348Y38098D02*
X16448Y38198D01*
X16648D01*
X16748Y38098D01*
Y37998D01*
X16648Y37898D01*
X16748Y37798D01*
Y37698D01*
X16648Y37598D01*
X16448D01*
X16348Y37698D01*
Y37798D01*
X16448Y37898D01*
X16348Y37998D01*
Y38098D01*
X16448Y37898D02*
X16648D01*
X16948D02*
X17348D01*
X17547Y38198D02*
Y37598D01*
X17947D01*
X16148Y40757D02*
X15948D01*
X16048D01*
Y40257D01*
X15948Y40157D01*
X15848D01*
X15748Y40257D01*
X16348Y40657D02*
X16448Y40757D01*
X16648D01*
X16748Y40657D01*
Y40557D01*
X16648Y40457D01*
X16748Y40357D01*
Y40257D01*
X16648Y40157D01*
X16448D01*
X16348Y40257D01*
Y40357D01*
X16448Y40457D01*
X16348Y40557D01*
Y40657D01*
X16448Y40457D02*
X16648D01*
X16948D02*
X17348D01*
X17547Y40157D02*
Y40757D01*
X17847D01*
X17947Y40657D01*
Y40457D01*
X17847Y40357D01*
X17547D01*
X17747D02*
X17947Y40157D01*
X10813Y27311D02*
X10713Y27411D01*
X10513D01*
X10413Y27311D01*
Y26911D01*
X10513Y26811D01*
X10713D01*
X10813Y26911D01*
X11013Y26811D02*
X11213D01*
X11113D01*
Y27411D01*
X11013Y27311D01*
X11513D02*
X11613Y27411D01*
X11813D01*
X11913Y27311D01*
Y26911D01*
X11813Y26811D01*
X11613D01*
X11513Y26911D01*
Y27311D01*
X14219Y27271D02*
X14119Y27371D01*
X13919D01*
X13819Y27271D01*
Y26872D01*
X13919Y26772D01*
X14119D01*
X14219Y26872D01*
X14419Y26772D02*
X14619D01*
X14519D01*
Y27371D01*
X14419Y27271D01*
X14919Y26772D02*
X15118D01*
X15019D01*
Y27371D01*
X14919Y27271D01*
X15708Y27305D02*
X15608Y27405D01*
X15408D01*
X15308Y27305D01*
Y26905D01*
X15408Y26805D01*
X15608D01*
X15708Y26905D01*
X15908Y26805D02*
X16108D01*
X16008D01*
Y27405D01*
X15908Y27305D01*
X16808Y26805D02*
X16408D01*
X16808Y27205D01*
Y27305D01*
X16708Y27405D01*
X16508D01*
X16408Y27305D01*
X7087Y29340D02*
Y28740D01*
X7387D01*
X7486Y28840D01*
Y29240D01*
X7387Y29340D01*
X7087D01*
X7686Y28740D02*
X7886D01*
X7786D01*
Y29340D01*
X7686Y29240D01*
X8661Y29340D02*
Y28740D01*
X8961D01*
X9061Y28840D01*
Y29240D01*
X8961Y29340D01*
X8661D01*
X9661Y28740D02*
X9261D01*
X9661Y29140D01*
Y29240D01*
X9561Y29340D01*
X9361D01*
X9261Y29240D01*
X21299Y43001D02*
Y42402D01*
X21599D01*
X21699Y42502D01*
Y42901D01*
X21599Y43001D01*
X21299D01*
X21899Y42901D02*
X21999Y43001D01*
X22199D01*
X22299Y42901D01*
Y42801D01*
X22199Y42701D01*
X22099D01*
X22199D01*
X22299Y42602D01*
Y42502D01*
X22199Y42402D01*
X21999D01*
X21899Y42502D01*
X25354Y43001D02*
Y42402D01*
X25654D01*
X25754Y42502D01*
Y42901D01*
X25654Y43001D01*
X25354D01*
X26254Y42402D02*
Y43001D01*
X25954Y42701D01*
X26354D01*
X10744Y31376D02*
Y31976D01*
X11044D01*
X11144Y31876D01*
Y31676D01*
X11044Y31576D01*
X10744D01*
X10944D02*
X11144Y31376D01*
X11744Y31976D02*
X11544Y31876D01*
X11344Y31676D01*
Y31476D01*
X11444Y31376D01*
X11644D01*
X11744Y31476D01*
Y31576D01*
X11644Y31676D01*
X11344D01*
X21299Y41457D02*
Y42056D01*
X21599D01*
X21699Y41957D01*
Y41757D01*
X21599Y41657D01*
X21299D01*
X21499D02*
X21699Y41457D01*
X21899Y41557D02*
X21999Y41457D01*
X22199D01*
X22299Y41557D01*
Y41957D01*
X22199Y42056D01*
X21999D01*
X21899Y41957D01*
Y41857D01*
X21999Y41757D01*
X22299D01*
X10756Y32195D02*
Y32795D01*
X11055D01*
X11155Y32695D01*
Y32495D01*
X11055Y32395D01*
X10756D01*
X10955D02*
X11155Y32195D01*
X11355Y32795D02*
X11755D01*
Y32695D01*
X11355Y32295D01*
Y32195D01*
X25354Y41457D02*
Y42056D01*
X25654D01*
X25754Y41957D01*
Y41757D01*
X25654Y41657D01*
X25354D01*
X25554D02*
X25754Y41457D01*
X25954Y41957D02*
X26054Y42056D01*
X26254D01*
X26354Y41957D01*
Y41857D01*
X26254Y41757D01*
X26354Y41657D01*
Y41557D01*
X26254Y41457D01*
X26054D01*
X25954Y41557D01*
Y41657D01*
X26054Y41757D01*
X25954Y41857D01*
Y41957D01*
X26054Y41757D02*
X26254D01*
X18018Y31604D02*
X17818D01*
X17918D01*
Y31104D01*
X17818Y31004D01*
X17718D01*
X17618Y31104D01*
X18218D02*
X18318Y31004D01*
X18518D01*
X18618Y31104D01*
Y31504D01*
X18518Y31604D01*
X18318D01*
X18218Y31504D01*
Y31404D01*
X18318Y31304D01*
X18618D01*
X16844Y28584D02*
Y29184D01*
X17144D01*
X17244Y29084D01*
Y28884D01*
X17144Y28784D01*
X16844D01*
X17044D02*
X17244Y28584D01*
X17444D02*
X17644D01*
X17544D01*
Y29184D01*
X17444Y29084D01*
X17944D02*
X18044Y29184D01*
X18244D01*
X18344Y29084D01*
Y28684D01*
X18244Y28584D01*
X18044D01*
X17944Y28684D01*
Y29084D01*
X21366Y33635D02*
X21166D01*
X21266D01*
Y33135D01*
X21166Y33035D01*
X21066D01*
X20966Y33135D01*
X21566Y33635D02*
X21966D01*
Y33535D01*
X21566Y33135D01*
Y33035D01*
X22166Y33435D02*
X22266D01*
Y33335D01*
X22166D01*
Y33435D01*
Y33135D02*
X22266D01*
Y33035D01*
X22166D01*
Y33135D01*
X22666Y33035D02*
Y33435D01*
X22866Y33635D01*
X23065Y33435D01*
Y33035D01*
Y33335D01*
X22666D01*
X23265Y33035D02*
X23465D01*
X23365D01*
Y33635D01*
X23265Y33535D01*
X24365Y33635D02*
Y33035D01*
X25665Y33635D02*
X25265D01*
Y33335D01*
X25465Y33435D01*
X25565D01*
X25665Y33335D01*
Y33135D01*
X25565Y33035D01*
X25365D01*
X25265Y33135D01*
X25865Y33635D02*
Y33235D01*
X26064Y33035D01*
X26264Y33235D01*
Y33635D01*
X21266Y32864D02*
X21066D01*
X21166D01*
Y32364D01*
X21066Y32264D01*
X20966D01*
X20866Y32364D01*
X21866Y32864D02*
X21666Y32764D01*
X21466Y32564D01*
Y32364D01*
X21566Y32264D01*
X21766D01*
X21866Y32364D01*
Y32464D01*
X21766Y32564D01*
X21466D01*
X22066Y32664D02*
X22166D01*
Y32564D01*
X22066D01*
Y32664D01*
Y32364D02*
X22166D01*
Y32264D01*
X22066D01*
Y32364D01*
X22566Y32264D02*
Y32664D01*
X22766Y32864D01*
X22965Y32664D01*
Y32264D01*
Y32564D01*
X22566D01*
X23165Y32764D02*
X23265Y32864D01*
X23465D01*
X23565Y32764D01*
Y32364D01*
X23465Y32264D01*
X23265D01*
X23165Y32364D01*
Y32764D01*
X24365Y32864D02*
Y32264D01*
X25665Y32864D02*
X25265D01*
Y32564D01*
X25465Y32664D01*
X25565D01*
X25665Y32564D01*
Y32364D01*
X25565Y32264D01*
X25365D01*
X25265Y32364D01*
X25865Y32864D02*
Y32464D01*
X26064Y32264D01*
X26264Y32464D01*
Y32864D01*
X21266Y32096D02*
X21066D01*
X21166D01*
Y31596D01*
X21066Y31496D01*
X20966D01*
X20866Y31596D01*
X21866Y32096D02*
X21466D01*
Y31796D01*
X21666Y31896D01*
X21766D01*
X21866Y31796D01*
Y31596D01*
X21766Y31496D01*
X21566D01*
X21466Y31596D01*
X22066Y31896D02*
X22166D01*
Y31796D01*
X22066D01*
Y31896D01*
Y31596D02*
X22166D01*
Y31496D01*
X22066D01*
Y31596D01*
X22566Y31496D02*
Y32096D01*
X22866D01*
X22965Y31996D01*
Y31796D01*
X22866Y31696D01*
X22566D01*
X22766D02*
X22965Y31496D01*
X23165Y32096D02*
X23565Y31496D01*
Y32096D02*
X23165Y31496D01*
X24365Y32096D02*
Y31496D01*
X25265Y32096D02*
X25665D01*
X25465D01*
Y31496D01*
X25865Y32096D02*
X26264Y31496D01*
Y32096D02*
X25865Y31496D01*
X4331Y42224D02*
X4390Y42283D01*
X4508D01*
X4567Y42224D01*
Y42165D01*
X4508Y42106D01*
X4449D01*
X4508D01*
X4567Y42047D01*
Y41988D01*
X4508Y41929D01*
X4390D01*
X4331Y41988D01*
X5039Y41929D02*
X5157D01*
X5098D01*
Y42165D01*
X5039D01*
X5334Y41929D02*
Y42165D01*
X5511D01*
X5570Y42106D01*
Y41929D01*
X5748Y42224D02*
Y42165D01*
X5689D01*
X5807D01*
X5748D01*
Y41988D01*
X5807Y41929D01*
X6161D02*
X6043D01*
X5984Y41988D01*
Y42106D01*
X6043Y42165D01*
X6161D01*
X6220Y42106D01*
Y42047D01*
X5984D01*
X6338Y42165D02*
Y41929D01*
Y42047D01*
X6397Y42106D01*
X6456Y42165D01*
X6515D01*
X6751Y41929D02*
Y42224D01*
Y42106D01*
X6692D01*
X6810D01*
X6751D01*
Y42224D01*
X6810Y42283D01*
X7046Y42165D02*
X7164D01*
X7223Y42106D01*
Y41929D01*
X7046D01*
X6987Y41988D01*
X7046Y42047D01*
X7223D01*
X7578Y42165D02*
X7401D01*
X7342Y42106D01*
Y41988D01*
X7401Y41929D01*
X7578D01*
X7873D02*
X7755D01*
X7696Y41988D01*
Y42106D01*
X7755Y42165D01*
X7873D01*
X7932Y42106D01*
Y42047D01*
X7696D01*
X8050Y41929D02*
X8227D01*
X8286Y41988D01*
X8227Y42047D01*
X8109D01*
X8050Y42106D01*
X8109Y42165D01*
X8286D01*
X4331Y41319D02*
Y41673D01*
X4508D01*
X4567Y41614D01*
Y41496D01*
X4508Y41437D01*
X4331D01*
X4862D02*
X4744D01*
X4685Y41496D01*
Y41614D01*
X4744Y41673D01*
X4862D01*
X4921Y41614D01*
Y41555D01*
X4685D01*
X5039Y41673D02*
Y41437D01*
Y41555D01*
X5098Y41614D01*
X5157Y41673D01*
X5216D01*
X5748Y41791D02*
Y41437D01*
X5925D01*
X5984Y41496D01*
Y41555D01*
Y41614D01*
X5925Y41673D01*
X5748D01*
X6102Y41437D02*
X6220D01*
X6161D01*
Y41791D01*
X6102D01*
X6456Y41437D02*
X6574D01*
X6633Y41496D01*
Y41614D01*
X6574Y41673D01*
X6456D01*
X6397Y41614D01*
Y41496D01*
X6456Y41437D01*
X6987Y41673D02*
X6810D01*
X6751Y41614D01*
Y41496D01*
X6810Y41437D01*
X6987D01*
X7105D02*
Y41791D01*
Y41555D02*
X7283Y41673D01*
X7105Y41555D02*
X7283Y41437D01*
X24803Y35039D02*
Y35394D01*
X24921Y35276D01*
X25039Y35394D01*
Y35039D01*
X25157Y35276D02*
Y35098D01*
X25216Y35039D01*
X25394D01*
Y34980D01*
X25334Y34921D01*
X25275D01*
X25394Y35039D02*
Y35276D01*
X24528Y34134D02*
X24587D01*
X24646Y34193D01*
Y34488D01*
X24468D01*
X24409Y34429D01*
Y34311D01*
X24468Y34252D01*
X24646D01*
X24764Y34488D02*
Y34252D01*
Y34370D01*
X24823Y34429D01*
X24882Y34488D01*
X24941D01*
X25177Y34252D02*
X25295D01*
X25354Y34311D01*
Y34429D01*
X25295Y34488D01*
X25177D01*
X25118Y34429D01*
Y34311D01*
X25177Y34252D01*
X25472Y34488D02*
Y34311D01*
X25531Y34252D01*
X25708D01*
Y34488D01*
X25826Y34134D02*
Y34488D01*
X26003D01*
X26062Y34429D01*
Y34311D01*
X26003Y34252D01*
X25826D01*
X4731Y32096D02*
X4531D01*
X4631D01*
Y31596D01*
X4531Y31496D01*
X4431D01*
X4331Y31596D01*
X4931Y31496D02*
X5130D01*
X5030D01*
Y32096D01*
X4931Y31996D01*
X23326Y43520D02*
Y43120D01*
X22927Y43520D01*
X22827D01*
X22727Y43420D01*
Y43220D01*
X22827Y43120D01*
X23326Y44020D02*
X22727D01*
X23026Y43720D01*
Y44120D01*
X22727Y44320D02*
X23126D01*
X23326Y44520D01*
X23126Y44720D01*
X22727D01*
X24328Y43545D02*
Y43145D01*
X24628D01*
X24528Y43345D01*
Y43445D01*
X24628Y43545D01*
X24828D01*
X24928Y43445D01*
Y43245D01*
X24828Y43145D01*
X24328Y43745D02*
X24728D01*
X24928Y43945D01*
X24728Y44145D01*
X24328D01*
X7274Y26772D02*
Y27172D01*
Y26972D01*
X7874D01*
X7274Y27371D02*
X7874Y27771D01*
X7274D02*
X7874Y27371D01*
X9449Y26772D02*
X8849D01*
Y27072D01*
X8949Y27172D01*
X9149D01*
X9249Y27072D01*
Y26772D01*
Y26972D02*
X9449Y27172D01*
X8849Y27371D02*
X9449Y27771D01*
X8849D02*
X9449Y27371D01*
X13619Y43152D02*
Y42552D01*
X13918D01*
X14018Y42652D01*
Y42752D01*
X13918Y42852D01*
X13619D01*
X13918D01*
X14018Y42952D01*
Y43052D01*
X13918Y43152D01*
X13619D01*
X14218Y42552D02*
X14418D01*
X14318D01*
Y43152D01*
X14218Y43052D01*
X15318Y43152D02*
Y42552D01*
X15618D01*
X15718Y42652D01*
Y42752D01*
X15618Y42852D01*
X15318D01*
X15618D01*
X15718Y42952D01*
Y43052D01*
X15618Y43152D01*
X15318D01*
X16318Y42552D02*
X15918D01*
X16318Y42952D01*
Y43052D01*
X16218Y43152D01*
X16018D01*
X15918Y43052D01*
X17117Y42552D02*
Y42952D01*
X17317Y43152D01*
X17517Y42952D01*
Y42552D01*
Y42852D01*
X17117D01*
X18117Y42552D02*
X17717D01*
X18117Y42952D01*
Y43052D01*
X18017Y43152D01*
X17817D01*
X17717Y43052D01*
X18917Y42552D02*
Y42952D01*
X19117Y43152D01*
X19317Y42952D01*
Y42552D01*
Y42852D01*
X18917D01*
X19517Y42552D02*
X19717D01*
X19617D01*
Y43152D01*
X19517Y43052D01*
D25*
X11510Y44439D02*
G03*
X11313Y44636I-197J0D01*
G01*
Y42589D02*
G03*
X11510Y42786I0J197D01*
G01*
X8282Y44636D02*
G03*
X7494Y43849I0J-787D01*
G01*
Y43376D02*
G03*
X8282Y42589I787J0D01*
G01*
X11313D01*
X7494Y43376D02*
Y43849D01*
X8282Y44636D02*
X11313D01*
X11510Y42786D02*
Y43613D01*
Y44439D01*
D66*
X22500Y28596D02*
G03*
X22500Y28096I0J-250D01*
G01*
X18445Y27303D02*
Y29390D01*
X22500Y27303D02*
Y28096D01*
Y28596D02*
Y29390D01*
X18445Y27303D02*
X22500D01*
X18445Y29390D02*
X22500D01*
X20972Y41232D02*
Y42232D01*
X13022D02*
X20972D01*
X13022Y41232D02*
Y42232D01*
Y41232D02*
X20972D01*
Y36232D02*
Y37232D01*
X13022D02*
X20972D01*
X13022Y36232D02*
Y37232D01*
Y36232D02*
X20972D01*
X23071Y27008D02*
Y28110D01*
X25157D01*
Y27008D02*
Y28110D01*
X23071Y27008D02*
X25157D01*
X23031Y29429D02*
Y30531D01*
X25118D01*
Y29429D02*
Y30531D01*
X23031Y29429D02*
X25118D01*
X23051Y28228D02*
Y29331D01*
X25138D01*
Y28228D02*
Y29331D01*
X23051Y28228D02*
X25138D01*
X12172Y28071D02*
Y28150D01*
Y28071D02*
X12490D01*
X13812D02*
Y28150D01*
X13494Y28071D02*
X13812D01*
Y29331D02*
Y29409D01*
X13494D02*
X13812D01*
X12172D02*
X12490D01*
X12172Y29331D02*
Y29409D01*
X11713Y28642D02*
Y28917D01*
X10689Y28642D02*
Y28917D01*
X14094Y28602D02*
Y28878D01*
X15118Y28602D02*
Y28878D01*
X15630Y28602D02*
Y28878D01*
X16654Y28602D02*
Y28878D01*
X22472Y42604D02*
Y42840D01*
X24004Y42613D02*
Y42849D01*
X8465Y28228D02*
Y28465D01*
X6890Y28228D02*
Y28465D01*
X17795Y31713D02*
X19882D01*
Y32815D01*
X17795D02*
X19882D01*
X17795Y31713D02*
Y32815D01*
D76*
X22224Y28996D02*
G03*
X22224Y28996I-118J0D01*
G01*
D77*
X22533Y29846D02*
G03*
X22533Y29846I-49J0D01*
G01*
X12121Y29200D02*
G03*
X12121Y29200I-49J0D01*
G01*
D78*
X9076Y42813D02*
X9391D01*
X10998Y42943D02*
X11313D01*
X11156Y42786D02*
Y43101D01*
D79*
X17479Y33216D02*
X17430Y33265D01*
X17332D01*
X17283Y33216D01*
Y33167D01*
X17332Y33118D01*
X17430D01*
X17479Y33068D01*
Y33019D01*
X17430Y32970D01*
X17332D01*
X17283Y33019D01*
X17578Y32970D02*
Y33265D01*
X17725D01*
X17775Y33216D01*
Y33118D01*
X17725Y33068D01*
X17578D01*
X17873Y32970D02*
Y33265D01*
X18021D01*
X18070Y33216D01*
Y33118D01*
X18021Y33068D01*
X17873D01*
X17971D02*
X18070Y32970D01*
X18365Y33265D02*
X18168D01*
Y32970D01*
X18365D01*
X18168Y33118D02*
X18267D01*
X18463Y32970D02*
Y33167D01*
X18562Y33265D01*
X18660Y33167D01*
Y32970D01*
Y33118D01*
X18463D01*
X18759Y33265D02*
Y32970D01*
X18906D01*
X18955Y33019D01*
Y33216D01*
X18906Y33265D01*
X18759D01*
X19349D02*
Y32970D01*
X19988Y33265D02*
X19792D01*
Y33118D01*
X19890Y33167D01*
X19939D01*
X19988Y33118D01*
Y33019D01*
X19939Y32970D01*
X19841D01*
X19792Y33019D01*
X20087Y33265D02*
Y33068D01*
X20185Y32970D01*
X20284Y33068D01*
Y33265D01*
M02*
