G04 Layer_Color=25308*
%FSLAX24Y24*%
%MOIN*%
G70*
G01*
G75*
%ADD14R,0.0413X0.0394*%
%ADD35C,0.0600*%
%ADD36C,0.0472*%
%ADD37C,0.1280*%
%ADD38C,0.0591*%
%ADD39R,0.0591X0.0591*%
%ADD40C,0.0700*%
G04:AMPARAMS|DCode=41|XSize=70mil|YSize=70mil|CornerRadius=17.5mil|HoleSize=0mil|Usage=FLASHONLY|Rotation=90.000|XOffset=0mil|YOffset=0mil|HoleType=Round|Shape=RoundedRectangle|*
%AMROUNDEDRECTD41*
21,1,0.0700,0.0350,0,0,90.0*
21,1,0.0350,0.0700,0,0,90.0*
1,1,0.0350,0.0175,0.0175*
1,1,0.0350,0.0175,-0.0175*
1,1,0.0350,-0.0175,-0.0175*
1,1,0.0350,-0.0175,0.0175*
%
%ADD41ROUNDEDRECTD41*%
%ADD42C,0.1900*%
%ADD43R,0.0600X0.0600*%
%ADD44C,0.0787*%
%ADD45R,0.0787X0.0787*%
%ADD46C,0.1378*%
%ADD47R,0.1378X0.1378*%
%ADD48C,0.0800*%
%ADD49R,0.0800X0.0800*%
%ADD55R,0.0591X0.1102*%
%ADD56R,0.0354X0.0394*%
%ADD57R,0.0374X0.0413*%
%ADD58R,0.0433X0.0354*%
%ADD59R,0.0571X0.0512*%
%ADD60R,0.0315X0.0354*%
%ADD61R,0.0354X0.0354*%
%ADD62O,0.0315X0.0098*%
%ADD63O,0.0098X0.0315*%
%ADD64R,0.1457X0.1457*%
D14*
X13681Y30709D02*
D03*
X13091D02*
D03*
D35*
X5906Y27953D02*
D03*
X27559Y42913D02*
D03*
X5906D02*
D03*
X27559Y27953D02*
D03*
X19472Y41732D02*
D03*
X18472D02*
D03*
X17472D02*
D03*
X16472D02*
D03*
X15472D02*
D03*
X14472D02*
D03*
X13472D02*
D03*
X19472Y36732D02*
D03*
X18472D02*
D03*
X17472D02*
D03*
X16472D02*
D03*
X15472D02*
D03*
X14472D02*
D03*
X13472D02*
D03*
X18106Y27165D02*
D03*
X17165D02*
D03*
D36*
X5882Y36457D02*
D03*
X6583Y36059D02*
D03*
X5882Y35657D02*
D03*
X6583Y35260D02*
D03*
Y36858D02*
D03*
X5882Y34858D02*
D03*
X6583Y34461D02*
D03*
X5882Y34063D02*
D03*
D37*
X4882Y37961D02*
D03*
Y32961D02*
D03*
D38*
X18972Y26846D02*
D03*
X19972D02*
D03*
X20972D02*
D03*
X21972D02*
D03*
X18972Y29846D02*
D03*
X19972D02*
D03*
X20972D02*
D03*
D39*
X21972D02*
D03*
D40*
X28285Y37058D02*
D03*
Y35978D02*
D03*
Y34898D02*
D03*
Y33818D02*
D03*
X27165Y36518D02*
D03*
Y35438D02*
D03*
Y34358D02*
D03*
Y33278D02*
D03*
D41*
Y37598D02*
D03*
D42*
X27725Y30518D02*
D03*
Y40358D02*
D03*
D43*
X20472Y41732D02*
D03*
Y36732D02*
D03*
D44*
X24622Y27559D02*
D03*
X24583Y29980D02*
D03*
X24602Y28780D02*
D03*
X19346Y32264D02*
D03*
D45*
X23622Y27559D02*
D03*
X23583Y29980D02*
D03*
X23602Y28780D02*
D03*
X18346Y32264D02*
D03*
D46*
X10447Y43613D02*
D03*
D47*
X8479D02*
D03*
D48*
X14447Y44094D02*
D03*
X15947D02*
D03*
X17447D02*
D03*
D49*
X18947D02*
D03*
D55*
X10433Y40551D02*
D03*
X11614D02*
D03*
X10433Y38976D02*
D03*
X11614D02*
D03*
D56*
X10758Y37795D02*
D03*
X11289D02*
D03*
X11152Y36614D02*
D03*
X11683D02*
D03*
X11575Y34154D02*
D03*
X12087D02*
D03*
X17313Y35531D02*
D03*
X16782D02*
D03*
X17461Y34783D02*
D03*
X17972D02*
D03*
X17451Y34055D02*
D03*
X17982D02*
D03*
D57*
X11132Y35433D02*
D03*
X11703D02*
D03*
D58*
X8465Y35728D02*
D03*
Y35138D02*
D03*
D59*
X17382Y33376D02*
D03*
Y32746D02*
D03*
D60*
X12067Y33228D02*
D03*
X11594D02*
D03*
D61*
X15866Y30768D02*
D03*
X16457D02*
D03*
D62*
X16417Y34163D02*
D03*
Y33967D02*
D03*
Y33770D02*
D03*
Y33573D02*
D03*
Y33376D02*
D03*
Y33179D02*
D03*
Y32982D02*
D03*
X14508D02*
D03*
Y33179D02*
D03*
Y33376D02*
D03*
Y33573D02*
D03*
Y33770D02*
D03*
Y33967D02*
D03*
Y34163D02*
D03*
D63*
X16053Y32618D02*
D03*
X15856D02*
D03*
X15659D02*
D03*
X15463D02*
D03*
X15266D02*
D03*
X15069D02*
D03*
X14872D02*
D03*
Y34528D02*
D03*
X15069D02*
D03*
X15266D02*
D03*
X15463D02*
D03*
X15659D02*
D03*
X15856D02*
D03*
X16053D02*
D03*
D64*
X15450Y33573D02*
D03*
M02*
