G04 Layer_Color=8150272*
%FSLAX24Y24*%
%MOIN*%
G70*
G01*
G75*
%ADD67R,0.0316X0.0434*%
%ADD68R,0.0434X0.0415*%
%ADD69R,0.0474X0.0434*%
%ADD73R,0.0513X0.0749*%
%ADD76C,0.0320*%
%ADD77C,0.0680*%
%ADD78R,0.0680X0.0680*%
%ADD79R,0.1458X0.1458*%
%ADD80C,0.1458*%
%ADD81C,0.0867*%
%ADD82O,0.0907X0.0710*%
%ADD83R,0.0907X0.0710*%
%ADD84C,0.0394*%
%ADD85C,0.0552*%
%ADD86C,0.1360*%
%ADD87C,0.0671*%
%ADD88P,0.0726X8X22.5*%
%ADD89C,0.0580*%
%ADD90C,0.0356*%
%ADD91C,0.0375*%
%ADD92R,0.0592X0.0434*%
%ADD93R,0.0907X0.0434*%
%ADD94R,0.0907X0.0820*%
%ADD95R,0.0222X0.0820*%
%ADD96O,0.0237X0.0493*%
%ADD97O,0.0493X0.0237*%
%ADD98R,0.0434X0.0434*%
%ADD99R,0.0749X0.0513*%
%ADD100R,0.0400X0.0430*%
%ADD101O,0.0730X0.0277*%
%ADD102O,0.0277X0.0730*%
G04:AMPARAMS|DCode=103|XSize=43.8mil|YSize=56mil|CornerRadius=13mil|HoleSize=0mil|Usage=FLASHONLY|Rotation=270.000|XOffset=0mil|YOffset=0mil|HoleType=Round|Shape=RoundedRectangle|*
%AMROUNDEDRECTD103*
21,1,0.0438,0.0301,0,0,270.0*
21,1,0.0179,0.0560,0,0,270.0*
1,1,0.0259,-0.0151,-0.0090*
1,1,0.0259,-0.0151,0.0090*
1,1,0.0259,0.0151,0.0090*
1,1,0.0259,0.0151,-0.0090*
%
%ADD103ROUNDEDRECTD103*%
%ADD104R,0.0828X0.0434*%
%ADD105R,0.0828X0.1340*%
%ADD106R,0.0395X0.1123*%
D67*
X29045Y31550D02*
D03*
X28455D02*
D03*
X24745Y27550D02*
D03*
X24155D02*
D03*
X29045Y30950D02*
D03*
X28455D02*
D03*
D68*
X22200Y34456D02*
D03*
Y33944D02*
D03*
X26400Y33956D02*
D03*
Y33444D02*
D03*
X17000Y37006D02*
D03*
Y36494D02*
D03*
D69*
X15600Y36385D02*
D03*
Y37015D02*
D03*
X27750Y33435D02*
D03*
Y34065D02*
D03*
X12750Y33585D02*
D03*
Y34215D02*
D03*
D73*
X29422Y29300D02*
D03*
X28378D02*
D03*
X29422Y30150D02*
D03*
X28378D02*
D03*
D76*
X26952Y31692D02*
D03*
X25781Y31515D02*
D03*
X26962Y30688D02*
D03*
X26568D02*
D03*
X26027Y30619D02*
D03*
X26952Y31338D02*
D03*
X26568D02*
D03*
X26578Y31672D02*
D03*
D77*
X23150Y15550D02*
D03*
Y14550D02*
D03*
Y13550D02*
D03*
Y17550D02*
D03*
X21150Y13550D02*
D03*
Y14550D02*
D03*
Y15550D02*
D03*
X14800Y15500D02*
D03*
Y14500D02*
D03*
Y13500D02*
D03*
Y17500D02*
D03*
X12800Y13500D02*
D03*
Y14500D02*
D03*
Y15500D02*
D03*
X19400Y24079D02*
D03*
Y26000D02*
D03*
X11950Y24079D02*
D03*
Y26000D02*
D03*
X24606Y34055D02*
D03*
X5315D02*
D03*
X24606Y11220D02*
D03*
X5315D02*
D03*
X24400Y16100D02*
D03*
X25400D02*
D03*
X26400D02*
D03*
X27750Y13450D02*
D03*
X28750D02*
D03*
X29750D02*
D03*
X24400D02*
D03*
X25400D02*
D03*
X26400D02*
D03*
X18350Y12450D02*
D03*
X17350D02*
D03*
X18350Y14450D02*
D03*
Y13450D02*
D03*
X17350D02*
D03*
Y14450D02*
D03*
X24950Y40150D02*
D03*
Y39150D02*
D03*
Y38150D02*
D03*
X9750Y12500D02*
D03*
X8750D02*
D03*
X9750Y14500D02*
D03*
Y13500D02*
D03*
X8750D02*
D03*
Y14500D02*
D03*
X27650Y40150D02*
D03*
Y39150D02*
D03*
Y38150D02*
D03*
X4815Y13138D02*
D03*
X5815Y14138D02*
D03*
X4815D02*
D03*
X5815Y15138D02*
D03*
X4815D02*
D03*
X5815Y16138D02*
D03*
X4815D02*
D03*
X5815Y17138D02*
D03*
X4815D02*
D03*
X5815Y18138D02*
D03*
X4815D02*
D03*
X5815Y19138D02*
D03*
X4815D02*
D03*
X5815Y20138D02*
D03*
X4815D02*
D03*
X5815Y21138D02*
D03*
X4815D02*
D03*
X5815Y22138D02*
D03*
X4815D02*
D03*
X5815Y23138D02*
D03*
X4815D02*
D03*
X5815Y24138D02*
D03*
X4815D02*
D03*
X5815Y25138D02*
D03*
X4815D02*
D03*
X5815Y26138D02*
D03*
X4815D02*
D03*
X5815Y27138D02*
D03*
X4815D02*
D03*
X5815Y28138D02*
D03*
X4815D02*
D03*
X5815Y29138D02*
D03*
X4815D02*
D03*
X5815Y30138D02*
D03*
X4815D02*
D03*
X5815Y31138D02*
D03*
X4815D02*
D03*
X5815Y32138D02*
D03*
X4815D02*
D03*
D78*
X21150Y17550D02*
D03*
X12800Y17500D02*
D03*
X5815Y13138D02*
D03*
D79*
X30150Y39716D02*
D03*
D80*
Y41684D02*
D03*
D81*
X16000Y17500D02*
D03*
Y15728D02*
D03*
X18559Y17500D02*
D03*
Y15728D02*
D03*
X7700Y17500D02*
D03*
Y15728D02*
D03*
X10259Y17500D02*
D03*
Y15728D02*
D03*
D82*
X13700Y21450D02*
D03*
Y22450D02*
D03*
Y23450D02*
D03*
Y24450D02*
D03*
Y25450D02*
D03*
Y26450D02*
D03*
Y27450D02*
D03*
Y28450D02*
D03*
Y29450D02*
D03*
Y30450D02*
D03*
Y31450D02*
D03*
Y32450D02*
D03*
Y33450D02*
D03*
Y34450D02*
D03*
X7700Y33450D02*
D03*
Y32450D02*
D03*
Y31450D02*
D03*
Y30450D02*
D03*
Y29450D02*
D03*
Y28450D02*
D03*
Y27450D02*
D03*
Y26450D02*
D03*
Y25450D02*
D03*
Y24450D02*
D03*
Y23450D02*
D03*
X13700Y20450D02*
D03*
X7700Y22450D02*
D03*
Y21450D02*
D03*
Y20450D02*
D03*
X21250Y21500D02*
D03*
Y22500D02*
D03*
Y23500D02*
D03*
Y24500D02*
D03*
Y25500D02*
D03*
Y26500D02*
D03*
Y27500D02*
D03*
Y28500D02*
D03*
Y29500D02*
D03*
Y30500D02*
D03*
Y31500D02*
D03*
Y32500D02*
D03*
Y33500D02*
D03*
Y34500D02*
D03*
X15250Y33500D02*
D03*
Y32500D02*
D03*
Y31500D02*
D03*
Y30500D02*
D03*
Y29500D02*
D03*
Y28500D02*
D03*
Y27500D02*
D03*
Y26500D02*
D03*
Y25500D02*
D03*
Y24500D02*
D03*
Y23500D02*
D03*
X21250Y20500D02*
D03*
X15250Y22500D02*
D03*
Y21500D02*
D03*
Y20500D02*
D03*
D83*
X7700Y34450D02*
D03*
X15250Y34500D02*
D03*
D84*
X28856Y19634D02*
D03*
Y21366D02*
D03*
Y25134D02*
D03*
Y26866D02*
D03*
D85*
X8316Y40580D02*
D03*
X7918Y39879D02*
D03*
X7517Y40580D02*
D03*
X7119Y39879D02*
D03*
X8717D02*
D03*
X6717Y40580D02*
D03*
X6320Y39879D02*
D03*
X5922Y40580D02*
D03*
X14766D02*
D03*
X14368Y39879D02*
D03*
X13967Y40580D02*
D03*
X13569Y39879D02*
D03*
X15167D02*
D03*
X13167Y40580D02*
D03*
X12770Y39879D02*
D03*
X12372Y40580D02*
D03*
X21266D02*
D03*
X20868Y39879D02*
D03*
X20467Y40580D02*
D03*
X20069Y39879D02*
D03*
X21667D02*
D03*
X19667Y40580D02*
D03*
X19270Y39879D02*
D03*
X18872Y40580D02*
D03*
D86*
X9820Y41580D02*
D03*
X4820D02*
D03*
X16270D02*
D03*
X11270D02*
D03*
X22770D02*
D03*
X17770D02*
D03*
D87*
X10613Y10750D02*
D03*
X11400D02*
D03*
X12188D02*
D03*
X12975D02*
D03*
X13763D02*
D03*
D88*
X14550D02*
D03*
D89*
X15404Y14941D02*
D03*
X16230Y32067D02*
D03*
X16545Y31417D02*
D03*
X17904Y21004D02*
D03*
X16030Y30315D02*
D03*
X18240Y29910D02*
D03*
X18494Y34114D02*
D03*
X12628Y24183D02*
D03*
X11860Y17766D02*
D03*
X30886Y25472D02*
D03*
Y23219D02*
D03*
X29351Y19912D02*
D03*
X28927Y23524D02*
D03*
X27815D02*
D03*
X27844Y22904D02*
D03*
X26811Y24862D02*
D03*
X12166Y23318D02*
D03*
X11160Y28520D02*
D03*
X10260Y36640D02*
D03*
X24950Y36250D02*
D03*
X16360Y33840D02*
D03*
X20130Y32300D02*
D03*
X18140Y33610D02*
D03*
X12210Y31830D02*
D03*
X22400Y35420D02*
D03*
X24060Y25920D02*
D03*
X15685Y35690D02*
D03*
X20505Y35420D02*
D03*
X26590Y34880D02*
D03*
X29100Y28040D02*
D03*
X16310Y35680D02*
D03*
X9450Y22470D02*
D03*
X15010Y12350D02*
D03*
X9570Y23320D02*
D03*
X19430Y35040D02*
D03*
X16020Y29685D02*
D03*
X24830Y30550D02*
D03*
X16680Y18330D02*
D03*
X7630Y37160D02*
D03*
X30780Y33880D02*
D03*
X27270Y34320D02*
D03*
X28650Y34350D02*
D03*
X29990Y35690D02*
D03*
X29700Y27030D02*
D03*
X25160Y27250D02*
D03*
X13700Y35954D02*
D03*
X18120Y31790D02*
D03*
X18655Y29510D02*
D03*
X18985Y30300D02*
D03*
X22740Y26960D02*
D03*
Y33260D02*
D03*
X11420Y34590D02*
D03*
X9040Y36230D02*
D03*
X11200Y29480D02*
D03*
X19330Y28560D02*
D03*
X18420Y32530D02*
D03*
X8600Y27980D02*
D03*
X13750Y37250D02*
D03*
X12320Y31040D02*
D03*
X10610Y30580D02*
D03*
X29390Y36410D02*
D03*
X17390Y20530D02*
D03*
X19130Y26830D02*
D03*
X17930Y30580D02*
D03*
X15400Y14000D02*
D03*
X21490Y18870D02*
D03*
X21336Y36546D02*
D03*
X10280Y28888D02*
D03*
X20135Y36215D02*
D03*
X13030Y33040D02*
D03*
X12260Y34590D02*
D03*
X12219Y24971D02*
D03*
X24150Y18810D02*
D03*
X17421Y34045D02*
D03*
X17697Y40315D02*
D03*
D90*
X14528Y24194D02*
D03*
X14597Y28081D02*
D03*
X14932Y28003D02*
D03*
X11200Y21700D02*
D03*
X11400Y27150D02*
D03*
X9750Y26300D02*
D03*
X9400Y25550D02*
D03*
X9050Y23350D02*
D03*
X8650Y21350D02*
D03*
X16250Y21400D02*
D03*
X16450Y22550D02*
D03*
X16600Y23350D02*
D03*
X16900Y24500D02*
D03*
Y25500D02*
D03*
X17150Y26400D02*
D03*
X19400Y27250D02*
D03*
X24300Y22100D02*
D03*
X22300Y21100D02*
D03*
X12500Y22250D02*
D03*
X15945Y30896D02*
D03*
X16033Y31447D02*
D03*
X16929Y34035D02*
D03*
X14450Y18350D02*
D03*
D91*
X14933Y31005D02*
D03*
D92*
X25938Y30688D02*
D03*
D93*
X26726D02*
D03*
D94*
X26765Y31515D02*
D03*
D95*
X25781D02*
D03*
D96*
X27080Y32312D02*
D03*
X26765D02*
D03*
X26450D02*
D03*
X26135D02*
D03*
X25820D02*
D03*
Y30088D02*
D03*
X26135D02*
D03*
X26450D02*
D03*
X26765D02*
D03*
X27080D02*
D03*
D97*
X25338Y31830D02*
D03*
Y31515D02*
D03*
Y31200D02*
D03*
Y30885D02*
D03*
Y30570D02*
D03*
X27562D02*
D03*
Y30885D02*
D03*
Y31200D02*
D03*
Y31515D02*
D03*
Y31830D02*
D03*
D98*
X11950Y33595D02*
D03*
Y33005D02*
D03*
X11200Y33595D02*
D03*
Y33005D02*
D03*
X20300Y33645D02*
D03*
Y33055D02*
D03*
X18800Y33595D02*
D03*
Y33005D02*
D03*
D99*
X28550Y40328D02*
D03*
Y41372D02*
D03*
D100*
X10500Y25600D02*
D03*
Y26200D02*
D03*
X10450Y24300D02*
D03*
Y23700D02*
D03*
X18050Y25600D02*
D03*
Y26200D02*
D03*
X17850Y24600D02*
D03*
Y24000D02*
D03*
D101*
X19954Y30630D02*
D03*
Y30315D02*
D03*
Y30000D02*
D03*
Y29685D02*
D03*
Y29370D02*
D03*
Y29055D02*
D03*
Y28740D02*
D03*
Y28425D02*
D03*
X16646D02*
D03*
Y28740D02*
D03*
Y29055D02*
D03*
Y29370D02*
D03*
Y29685D02*
D03*
Y30000D02*
D03*
Y30315D02*
D03*
Y30630D02*
D03*
X12354Y30652D02*
D03*
Y30337D02*
D03*
Y30022D02*
D03*
Y29707D02*
D03*
Y29393D02*
D03*
Y29078D02*
D03*
Y28763D02*
D03*
Y28448D02*
D03*
X9046D02*
D03*
Y28763D02*
D03*
Y29078D02*
D03*
Y29393D02*
D03*
Y29707D02*
D03*
Y30022D02*
D03*
Y30337D02*
D03*
Y30652D02*
D03*
D102*
X19402Y27874D02*
D03*
X19087D02*
D03*
X18772D02*
D03*
X18457D02*
D03*
X18143D02*
D03*
X17828D02*
D03*
X17513D02*
D03*
X17198D02*
D03*
Y31181D02*
D03*
X17513D02*
D03*
X17828D02*
D03*
X18143D02*
D03*
X18457D02*
D03*
X18772D02*
D03*
X19087D02*
D03*
X19402D02*
D03*
X11802Y27896D02*
D03*
X11487D02*
D03*
X11172D02*
D03*
X10857D02*
D03*
X10543D02*
D03*
X10228D02*
D03*
X9913D02*
D03*
X9598D02*
D03*
Y31204D02*
D03*
X9913D02*
D03*
X10228D02*
D03*
X10543D02*
D03*
X10857D02*
D03*
X11172D02*
D03*
X11487D02*
D03*
X11802D02*
D03*
D103*
X26750Y37196D02*
D03*
Y35904D02*
D03*
X14550Y35954D02*
D03*
Y37246D02*
D03*
D104*
X30469Y36156D02*
D03*
Y35250D02*
D03*
Y34344D02*
D03*
X30169Y26406D02*
D03*
Y25500D02*
D03*
Y24594D02*
D03*
D105*
X27831Y35250D02*
D03*
X27531Y25500D02*
D03*
D106*
X6450Y11950D02*
D03*
X7750D02*
D03*
M02*
