G04 Layer_Color=13813960*
%FSLAX24Y24*%
%MOIN*%
G70*
G01*
G75*
%ADD19C,0.0100*%
%ADD20C,0.0059*%
%ADD61C,0.0098*%
%ADD63C,0.0079*%
%ADD107C,0.0050*%
G36*
X23133Y20345D02*
Y20333D01*
Y20322D01*
X23127Y20305D01*
Y20300D01*
X23122Y20294D01*
Y20277D01*
X23116Y20249D01*
X23110Y20221D01*
X23105Y20176D01*
X23099Y20125D01*
X23094Y20063D01*
Y20058D01*
X23088Y20030D01*
Y19996D01*
X23082Y19957D01*
Y19906D01*
X23077Y19850D01*
Y19749D01*
Y19743D01*
Y19737D01*
X23071Y19715D01*
X23066Y19709D01*
X23060Y19704D01*
X23054Y19709D01*
X23049Y19720D01*
Y19726D01*
X23043Y19743D01*
Y19754D01*
Y19782D01*
Y19810D01*
X23049Y19850D01*
Y19855D01*
Y19861D01*
X23054Y19900D01*
Y19951D01*
X23060Y20013D01*
X23066Y20080D01*
X23077Y20148D01*
X23082Y20204D01*
X23088Y20255D01*
Y20260D01*
Y20272D01*
X23094Y20305D01*
X23105Y20339D01*
X23116Y20350D01*
X23133D01*
Y20345D01*
D02*
G37*
G36*
X24415Y23736D02*
Y23730D01*
Y23719D01*
Y23697D01*
Y23657D01*
Y23573D01*
X24477Y23556D01*
X24483D01*
X24488Y23550D01*
X24522Y23545D01*
X24573Y23528D01*
X24635Y23505D01*
X24640D01*
X24646Y23500D01*
X24680Y23483D01*
X24725Y23466D01*
X24764Y23449D01*
X24770Y23444D01*
X24792Y23432D01*
X24826Y23410D01*
X24860Y23387D01*
X24865Y23382D01*
X24893Y23354D01*
X24933Y23314D01*
X24983Y23258D01*
X24989Y23252D01*
X25000Y23241D01*
X25017Y23219D01*
X25040Y23196D01*
X25090Y23145D01*
X25113Y23123D01*
X25129Y23100D01*
X25135Y23089D01*
X25146Y23067D01*
X25169Y23027D01*
X25186Y22977D01*
Y22971D01*
X25191Y22960D01*
Y22937D01*
Y22915D01*
X25197Y22881D01*
Y22842D01*
X25186Y22757D01*
X25175Y22690D01*
X25203Y22645D01*
Y22639D01*
X25214Y22628D01*
X25236Y22600D01*
X25270Y22566D01*
X25281Y22561D01*
X25293Y22555D01*
X25298D01*
X25309Y22549D01*
X25326Y22544D01*
X25360Y22532D01*
X25366Y22527D01*
X25388Y22516D01*
X25422Y22499D01*
X25450Y22476D01*
X25456Y22471D01*
X25473Y22454D01*
X25501Y22431D01*
X25529Y22392D01*
Y22386D01*
X25534Y22381D01*
X25551Y22352D01*
X25568Y22319D01*
X25585Y22279D01*
Y22268D01*
X25591Y22246D01*
X25596Y22201D01*
X25602Y22144D01*
Y22139D01*
Y22116D01*
Y22088D01*
X25596Y22054D01*
X25585Y21964D01*
X25568Y21919D01*
X25546Y21880D01*
X25518Y21829D01*
X25512Y21700D01*
Y21689D01*
Y21666D01*
X25506Y21621D01*
X25501Y21571D01*
X25495Y21514D01*
X25484Y21453D01*
X25450Y21329D01*
Y21323D01*
X25444Y21318D01*
X25433Y21290D01*
X25416Y21245D01*
X25388Y21194D01*
Y21188D01*
X25383Y21183D01*
X25366Y21149D01*
X25343Y21104D01*
X25315Y21065D01*
X25304Y21053D01*
X25276Y21025D01*
X25236Y20975D01*
X25175Y20913D01*
X25169Y20907D01*
X25158Y20896D01*
X25141Y20879D01*
X25118Y20856D01*
X25068Y20811D01*
X25011Y20766D01*
X25000Y20761D01*
X24983Y20744D01*
X24966Y20733D01*
X24955Y20721D01*
Y20716D01*
Y20705D01*
X24966Y20699D01*
Y20693D01*
X24978Y20682D01*
X24989Y20665D01*
X25006Y20631D01*
X25011Y20620D01*
X25023Y20598D01*
X25040Y20564D01*
X25062Y20519D01*
Y20513D01*
X25073Y20491D01*
X25085Y20474D01*
X25096Y20452D01*
X25101Y20446D01*
X25107Y20435D01*
X25141Y20395D01*
Y20390D01*
X25152Y20384D01*
X25163Y20367D01*
X25186Y20350D01*
X25208Y20322D01*
X25236Y20288D01*
X25276Y20249D01*
X25315Y20204D01*
X25321Y20198D01*
X25332Y20182D01*
X25354Y20159D01*
X25377Y20131D01*
X25433Y20063D01*
X25461Y20035D01*
X25484Y20007D01*
X25714Y19720D01*
X25771Y19659D01*
X25776Y19653D01*
X25788Y19630D01*
X25816Y19608D01*
X25844Y19574D01*
X25849Y19569D01*
X25866Y19546D01*
X25889Y19529D01*
X25900Y19524D01*
X25911Y19529D01*
X25928Y19540D01*
X25956Y19563D01*
X26080Y19664D01*
X26569Y20114D01*
X26738Y20266D01*
X26749Y20277D01*
X26766Y20294D01*
X26794Y20322D01*
X26817Y20345D01*
Y20350D01*
X26828Y20362D01*
X26834Y20378D01*
X26839Y20407D01*
X26884Y20513D01*
Y20519D01*
X26895Y20536D01*
X26901Y20558D01*
X26907Y20581D01*
Y20587D01*
X26912Y20598D01*
Y20626D01*
X26918Y20654D01*
Y20660D01*
Y20665D01*
Y20693D01*
X26924Y20727D01*
X26929Y20755D01*
Y20761D01*
X26935Y20766D01*
X26946Y20778D01*
X26963Y20783D01*
X26969D01*
X26985Y20789D01*
X27002Y20778D01*
X27014Y20761D01*
X27025Y20744D01*
Y20738D01*
X27036Y20721D01*
X27042Y20699D01*
X27047Y20671D01*
Y20665D01*
Y20643D01*
X27053Y20609D01*
Y20564D01*
Y20497D01*
X27188D01*
X27216Y20491D01*
X27295D01*
X27390Y20485D01*
X27413D01*
X27435Y20480D01*
X27463D01*
X27525Y20474D01*
X27559Y20468D01*
X27587D01*
X27604Y20463D01*
X27621Y20457D01*
X27643Y20452D01*
X27666Y20440D01*
X27683Y20423D01*
X27694Y20407D01*
Y20390D01*
X27688Y20384D01*
X27683Y20378D01*
X27666Y20367D01*
X27638Y20362D01*
X27598Y20350D01*
X27542Y20345D01*
X27469Y20333D01*
X27418D01*
X27413Y20300D01*
Y20294D01*
X27407Y20283D01*
X27402Y20255D01*
Y20249D01*
X27396Y20243D01*
Y20221D01*
Y20198D01*
Y20193D01*
Y20176D01*
Y20159D01*
X27390Y20142D01*
X27385Y20137D01*
X27379Y20125D01*
X27373Y20108D01*
Y20092D01*
Y20080D01*
X27368Y20058D01*
X27357Y20030D01*
X27328Y20007D01*
X27317Y20002D01*
X27165D01*
X27014Y20007D01*
X27008D01*
X26997Y20002D01*
X26974Y19990D01*
X26957Y19973D01*
X26935Y19957D01*
X26929Y19951D01*
X26924Y19945D01*
X26901Y19928D01*
X26879Y19900D01*
X26839Y19861D01*
X26794Y19816D01*
X26738Y19760D01*
X26670Y19687D01*
X26665Y19681D01*
X26659Y19675D01*
X26642Y19659D01*
X26620Y19636D01*
X26564Y19585D01*
X26496Y19518D01*
X26417Y19445D01*
X26339Y19366D01*
X26266Y19293D01*
X26192Y19225D01*
X26187Y19220D01*
X26164Y19197D01*
X26136Y19169D01*
X26102Y19141D01*
X26069Y19107D01*
X26035Y19079D01*
X26007Y19057D01*
X25990Y19046D01*
X25984Y19040D01*
X25967Y19034D01*
X25945Y19029D01*
X25872D01*
X25849Y19034D01*
X25827Y19040D01*
X25821D01*
X25804Y19051D01*
X25776Y19074D01*
X25737Y19113D01*
X25731D01*
X25726Y19124D01*
X25698Y19152D01*
X25647Y19203D01*
X25591Y19265D01*
X25585Y19270D01*
X25574Y19287D01*
X25557Y19304D01*
X25546Y19315D01*
X25529D01*
X25518Y19310D01*
X25512D01*
X25495Y19304D01*
X25411D01*
X25388Y19310D01*
X25366Y19315D01*
X25354Y19327D01*
X25343Y19338D01*
X25326Y19355D01*
X25203Y19479D01*
X25197Y19484D01*
X25186Y19495D01*
X25175Y19507D01*
X25169Y19512D01*
X25163Y19501D01*
X25152Y19490D01*
X25146Y19462D01*
Y19450D01*
X25141Y19428D01*
X25135Y19394D01*
X25124Y19355D01*
X25101Y19259D01*
X25096Y19214D01*
X25085Y19175D01*
Y19169D01*
X25079Y19164D01*
X25073Y19136D01*
X25068Y19091D01*
Y19046D01*
Y19040D01*
Y19034D01*
Y19012D01*
Y18984D01*
X25073Y18961D01*
X25079Y18956D01*
X25090D01*
X25101Y18950D01*
X27655D01*
X27722Y18944D01*
X27857D01*
X27863Y18939D01*
X27874Y18927D01*
Y18922D01*
X27868Y18916D01*
X27857Y18911D01*
X27306D01*
X27239Y18916D01*
X25900D01*
X25726Y18911D01*
X25557D01*
X25068Y18899D01*
X25073Y18826D01*
Y18821D01*
Y18815D01*
Y18787D01*
Y18753D01*
X25079Y18731D01*
Y18714D01*
X26440D01*
X26479Y18708D01*
X26507D01*
X26710Y18702D01*
X27868Y18680D01*
Y18056D01*
X27767Y18033D01*
X27750D01*
X27733Y18028D01*
X27700D01*
X27649Y18022D01*
X27582D01*
X27542Y18016D01*
X25068D01*
X25062Y18078D01*
X25051Y18483D01*
Y18489D01*
Y18494D01*
Y18511D01*
Y18534D01*
X25045Y18596D01*
Y18674D01*
Y18770D01*
X25040Y18877D01*
X25034Y18989D01*
Y19113D01*
X25023Y19366D01*
X25017Y19484D01*
X25011Y19602D01*
X25006Y19704D01*
X24995Y19799D01*
X24989Y19878D01*
X24983Y19934D01*
Y19940D01*
Y19945D01*
X24972Y19979D01*
X24966Y20030D01*
X24955Y20092D01*
X24938Y20153D01*
X24921Y20221D01*
X24910Y20277D01*
X24893Y20322D01*
X24888Y20328D01*
X24882Y20345D01*
X24876Y20367D01*
X24871Y20384D01*
Y20390D01*
X24876Y20395D01*
X24893D01*
X24899Y20401D01*
X24905Y20412D01*
Y20418D01*
X24899Y20435D01*
X24888Y20468D01*
X24882Y20491D01*
X24871Y20519D01*
Y20525D01*
X24865Y20530D01*
X24848Y20564D01*
X24831Y20598D01*
X24826Y20615D01*
X24815Y20626D01*
X24786Y20648D01*
X24730Y20637D01*
X24725D01*
X24713Y20631D01*
X24696Y20626D01*
X24680Y20620D01*
X24629Y20609D01*
X24578Y20603D01*
X24567D01*
X24533Y20598D01*
X24483Y20592D01*
X24421D01*
X24308Y20598D01*
X24213Y20603D01*
X23937Y20637D01*
X23830Y20660D01*
X23825D01*
Y20654D01*
X23830Y20643D01*
X23836Y20631D01*
X23847Y20615D01*
X23853Y20603D01*
X23870Y20581D01*
X23892Y20536D01*
X23920Y20468D01*
Y20463D01*
X23926Y20452D01*
X23937Y20429D01*
X23943Y20401D01*
X23971Y20333D01*
X23999Y20249D01*
Y20243D01*
X24005Y20232D01*
Y20215D01*
X24010Y20193D01*
X24016Y20165D01*
X24022Y20131D01*
X24027Y20047D01*
Y20041D01*
Y20024D01*
Y20002D01*
Y19973D01*
X24022Y19900D01*
X24016Y19827D01*
Y19822D01*
X24010Y19816D01*
Y19799D01*
X24005Y19777D01*
X23993Y19720D01*
X23971Y19647D01*
X23948Y19563D01*
X23920Y19479D01*
X23881Y19383D01*
X23842Y19293D01*
Y19287D01*
X23836Y19282D01*
X23825Y19254D01*
X23802Y19214D01*
X23774Y19164D01*
Y19158D01*
X23768Y19152D01*
X23746Y19124D01*
X23723Y19085D01*
X23695Y19057D01*
X23538Y18832D01*
X23532Y18039D01*
Y18033D01*
X23527Y18028D01*
X23521Y18022D01*
X23515Y18016D01*
X23510Y18022D01*
X23504Y18033D01*
Y18050D01*
Y18067D01*
X23515Y18792D01*
X23521Y18961D01*
Y18972D01*
Y18995D01*
Y19023D01*
Y19046D01*
X23515D01*
X23504Y19051D01*
X23482Y19057D01*
X23369D01*
X23212Y19074D01*
X23206D01*
X23200Y19068D01*
Y19057D01*
Y19051D01*
X23195Y19040D01*
Y19012D01*
X23189Y18989D01*
Y18961D01*
Y18753D01*
Y18433D01*
Y18427D01*
Y18421D01*
Y18388D01*
Y18337D01*
Y18275D01*
Y18213D01*
Y18157D01*
Y18106D01*
Y18073D01*
Y18067D01*
Y18061D01*
X23184Y18039D01*
X23178Y18022D01*
Y18016D01*
X23167D01*
X23161Y18022D01*
Y18033D01*
Y18039D01*
X23155Y18056D01*
Y18089D01*
Y18112D01*
Y18140D01*
Y18151D01*
Y18179D01*
Y18219D01*
Y18269D01*
X23150Y18314D01*
Y18354D01*
X23144Y18382D01*
X23139Y18393D01*
X23133D01*
X23122Y18388D01*
X23099Y18371D01*
X23060Y18348D01*
X23054Y18343D01*
X23037Y18331D01*
X23015Y18320D01*
X22998Y18309D01*
X22992D01*
X22987Y18303D01*
X22976Y18309D01*
X22964Y18320D01*
X22959Y18326D01*
X22953Y18343D01*
X22947Y18382D01*
X22942Y18404D01*
Y18438D01*
Y18444D01*
Y18455D01*
X22936Y18489D01*
Y18534D01*
X22942Y18579D01*
Y18590D01*
X22947Y18601D01*
X22959Y18618D01*
X23043Y18714D01*
Y19422D01*
Y19428D01*
Y19439D01*
Y19462D01*
X23049Y19484D01*
Y19529D01*
X23054Y19546D01*
Y19557D01*
Y19563D01*
X23066D01*
X23071Y19552D01*
Y19540D01*
Y19524D01*
X23077Y19501D01*
Y19473D01*
Y18877D01*
Y18871D01*
Y18860D01*
X23082Y18821D01*
Y18787D01*
X23088Y18776D01*
Y18770D01*
X23094Y18776D01*
X23105Y18781D01*
X23122Y18798D01*
X23127Y18804D01*
X23139Y18815D01*
X23150Y18826D01*
X23155Y18843D01*
Y18888D01*
X23167Y19074D01*
X23139Y19079D01*
X23133D01*
X23122Y19085D01*
X23110Y19096D01*
X23105Y19107D01*
Y19119D01*
Y19136D01*
Y19164D01*
Y19203D01*
X23110Y19259D01*
Y19327D01*
X23116Y19411D01*
Y19422D01*
Y19450D01*
X23122Y19495D01*
Y19552D01*
X23127Y19670D01*
X23133Y19720D01*
X23139Y19765D01*
Y19777D01*
X23144Y19805D01*
X23150Y19855D01*
X23161Y19912D01*
X23178Y19979D01*
X23189Y20052D01*
X23206Y20125D01*
X23229Y20198D01*
Y20204D01*
X23240Y20232D01*
X23251Y20266D01*
X23268Y20311D01*
X23285Y20362D01*
X23313Y20418D01*
X23375Y20536D01*
X23414Y20598D01*
Y20603D01*
X23420Y20615D01*
X23425Y20626D01*
X23431Y20637D01*
X23437Y20643D01*
X23442Y20660D01*
X23459Y20688D01*
X23465Y20693D01*
X23476Y20710D01*
X23487Y20733D01*
X23504Y20750D01*
X23510Y20755D01*
X23521Y20778D01*
Y20783D01*
X23510Y20789D01*
X23499D01*
X23476Y20783D01*
X23442Y20772D01*
X23437D01*
X23431Y20766D01*
X23409Y20761D01*
X23375Y20755D01*
X23347Y20744D01*
X23341Y20738D01*
X23319Y20733D01*
X23296Y20716D01*
X23262Y20699D01*
X23257Y20693D01*
X23234Y20682D01*
X23217Y20671D01*
X23200Y20660D01*
Y20654D01*
X23195Y20648D01*
X23189Y20643D01*
X23178D01*
X23161Y20631D01*
X23139Y20609D01*
X23116Y20587D01*
X23094Y20564D01*
X23088Y20558D01*
X23082Y20553D01*
X23054Y20519D01*
X23026Y20485D01*
X23004Y20446D01*
Y20440D01*
X22998Y20435D01*
X22992Y20418D01*
X22987Y20390D01*
X22981Y20350D01*
X22970Y20294D01*
X22964Y20227D01*
X22953Y20137D01*
Y20131D01*
Y20125D01*
X22947Y20092D01*
X22942Y20035D01*
X22936Y19962D01*
X22931Y19878D01*
X22925Y19777D01*
X22919Y19670D01*
X22914Y19552D01*
X22908Y19372D01*
X22891Y18433D01*
X22869Y18421D01*
X22863D01*
X22857Y18416D01*
X22829Y18404D01*
X22818D01*
X22807Y18416D01*
X22801Y18444D01*
Y18449D01*
Y18466D01*
Y18500D01*
Y18551D01*
Y18590D01*
Y18629D01*
Y18674D01*
Y18731D01*
X22807Y18787D01*
Y18854D01*
Y18933D01*
X22812Y19017D01*
Y19023D01*
Y19040D01*
Y19062D01*
Y19096D01*
Y19136D01*
X22818Y19181D01*
Y19282D01*
X22824Y19400D01*
Y19524D01*
X22829Y19642D01*
X22835Y19749D01*
Y19760D01*
Y19782D01*
X22841Y19816D01*
Y19861D01*
Y19906D01*
Y19945D01*
Y19979D01*
Y20002D01*
Y20007D01*
X22835D01*
X22829Y20002D01*
X22824Y19996D01*
X22818Y19973D01*
X22807Y19945D01*
X22796Y19900D01*
Y19895D01*
X22790Y19878D01*
X22784Y19855D01*
X22779Y19822D01*
X22773Y19777D01*
X22767Y19726D01*
X22756Y19670D01*
X22751Y19608D01*
X22734Y19473D01*
X22717Y19321D01*
X22711Y19158D01*
X22706Y19001D01*
Y18995D01*
Y18989D01*
Y18956D01*
Y18922D01*
Y18899D01*
Y18894D01*
X22700Y18888D01*
Y18877D01*
X22694D01*
X22689Y18882D01*
Y18888D01*
X22683Y18905D01*
Y18927D01*
X22677Y18961D01*
Y19001D01*
Y19057D01*
Y19062D01*
Y19085D01*
Y19113D01*
Y19152D01*
Y19197D01*
X22683Y19254D01*
X22689Y19360D01*
X22706Y19557D01*
Y19563D01*
Y19569D01*
X22700Y19580D01*
X22694D01*
X22689Y19569D01*
X22677Y19557D01*
X22666Y19540D01*
Y19535D01*
X22661Y19524D01*
X22655Y19507D01*
X22649Y19484D01*
Y19479D01*
X22644Y19450D01*
Y19428D01*
Y19405D01*
X22638Y19372D01*
Y19332D01*
Y19321D01*
X22632Y19293D01*
Y19248D01*
X22627Y19197D01*
Y19136D01*
X22621Y19068D01*
X22616Y19001D01*
Y18933D01*
Y18927D01*
Y18905D01*
Y18877D01*
Y18837D01*
Y18759D01*
Y18719D01*
Y18686D01*
Y18404D01*
Y18399D01*
Y18382D01*
Y18359D01*
Y18331D01*
X22621Y18264D01*
Y18236D01*
X22627Y18208D01*
Y18202D01*
Y18196D01*
X22632Y18174D01*
X22638Y18140D01*
X22655Y18106D01*
Y18101D01*
X22661Y18089D01*
X22672Y18078D01*
X22683Y18067D01*
Y18061D01*
X22694Y18056D01*
X22711Y18039D01*
Y18033D01*
Y18028D01*
X22700Y18022D01*
X22694D01*
X22677Y18016D01*
X22458D01*
Y19422D01*
X22509Y19428D01*
X22520D01*
X22542Y19434D01*
X22571Y19439D01*
X22587Y19450D01*
X22593Y19456D01*
X22599Y19462D01*
Y19479D01*
Y19484D01*
Y19490D01*
X22610Y19524D01*
X22638Y19569D01*
X22677Y19630D01*
X22689Y19642D01*
X22706Y19670D01*
Y19675D01*
X22711Y19681D01*
X22717Y19715D01*
Y19720D01*
X22722Y19737D01*
X22728Y19754D01*
X22734Y19760D01*
Y19771D01*
Y19782D01*
Y19788D01*
Y19805D01*
Y19833D01*
X22745Y19878D01*
Y19884D01*
Y19889D01*
X22751Y19923D01*
X22762Y19968D01*
X22779Y20030D01*
Y20035D01*
X22784Y20041D01*
Y20058D01*
X22790Y20080D01*
X22807Y20131D01*
X22829Y20193D01*
Y20198D01*
X22835Y20204D01*
X22852Y20243D01*
X22874Y20294D01*
X22897Y20350D01*
X22931Y20423D01*
Y20429D01*
X22936Y20440D01*
X22942Y20457D01*
Y20468D01*
X22936Y20474D01*
X22931Y20491D01*
X22919Y20519D01*
X22914Y20525D01*
X22897Y20553D01*
X22880Y20575D01*
X22863Y20603D01*
X22841Y20637D01*
X22812Y20676D01*
X22492Y21177D01*
X22486Y21183D01*
X22475Y21205D01*
X22464Y21233D01*
X22458Y21261D01*
Y21267D01*
Y21273D01*
X22464D01*
X22475Y21267D01*
Y21261D01*
X22486Y21245D01*
X22497Y21228D01*
X22514Y21205D01*
X22531Y21183D01*
X22554Y21149D01*
X22931Y20558D01*
X22936Y20553D01*
X22947Y20536D01*
X22964Y20519D01*
X22976Y20508D01*
X22992Y20513D01*
X23004Y20519D01*
X23021Y20530D01*
X23037Y20547D01*
X23066Y20575D01*
X23178Y20682D01*
X23206Y20710D01*
X22891Y21188D01*
X22683Y21475D01*
X22458Y21818D01*
X22464Y22274D01*
X22514Y22201D01*
X22520Y22195D01*
X22531Y22178D01*
X22548Y22156D01*
X22571Y22127D01*
X22587Y22105D01*
X22610Y22082D01*
X22621Y22071D01*
X22632D01*
Y22077D01*
X22638Y22082D01*
Y22094D01*
X22644Y22111D01*
X22649Y22133D01*
X22661Y22167D01*
X22666Y22206D01*
Y22212D01*
Y22229D01*
X22672Y22251D01*
X22677Y22279D01*
X22689Y22358D01*
X22700Y22442D01*
Y22454D01*
X22706Y22476D01*
X22711Y22521D01*
X22722Y22577D01*
Y22583D01*
Y22589D01*
X22734Y22622D01*
X22745Y22667D01*
X22756Y22707D01*
Y22712D01*
X22762Y22724D01*
X22767Y22740D01*
X22779Y22769D01*
X22807Y22830D01*
X22852Y22904D01*
X22857Y22909D01*
X22863Y22920D01*
X22880Y22937D01*
X22897Y22960D01*
X22942Y23016D01*
X22998Y23078D01*
X23043Y23129D01*
X23082Y23174D01*
X23088Y23185D01*
X23116Y23207D01*
X23150Y23247D01*
X23200Y23292D01*
X23206D01*
X23212Y23303D01*
X23245Y23325D01*
X23290Y23354D01*
X23341Y23382D01*
X23352Y23387D01*
X23364Y23393D01*
X23386Y23399D01*
X23414Y23410D01*
X23454Y23427D01*
X23504Y23444D01*
X23566Y23466D01*
X23915Y23578D01*
X23926Y23584D01*
X23948Y23595D01*
X23977Y23607D01*
X23999Y23612D01*
X24005Y23618D01*
X24010Y23629D01*
Y23646D01*
X24016Y23753D01*
Y23758D01*
Y23770D01*
Y23803D01*
Y23843D01*
X24022Y23860D01*
Y23871D01*
Y23877D01*
Y23882D01*
X24027Y23888D01*
X24038D01*
X24050Y23877D01*
Y23865D01*
Y23848D01*
X24044Y23820D01*
X24050Y23623D01*
X24308Y23629D01*
Y23888D01*
X24415D01*
Y23736D01*
D02*
G37*
%LPC*%
G36*
X26980Y20750D02*
X26969D01*
X26957Y20733D01*
Y20727D01*
X26952Y20710D01*
Y20682D01*
X26946Y20631D01*
Y20626D01*
X26940Y20603D01*
Y20581D01*
X26935Y20558D01*
Y20553D01*
X26929Y20542D01*
X26918Y20519D01*
X26907Y20497D01*
X26901Y20485D01*
X26895Y20463D01*
X26879Y20435D01*
X26867Y20395D01*
X26862Y20384D01*
X26856Y20367D01*
X26850Y20339D01*
Y20322D01*
Y20317D01*
Y20311D01*
X26845Y20305D01*
X26828D01*
X26811Y20288D01*
X26794Y20277D01*
X26772Y20260D01*
X26744Y20232D01*
X26710Y20198D01*
X26704Y20193D01*
X26693Y20182D01*
X26676Y20165D01*
X26648Y20142D01*
X26620Y20114D01*
X26581Y20080D01*
X26496Y19996D01*
X25883Y19439D01*
X25877D01*
X25872Y19428D01*
X25849Y19417D01*
X25833Y19405D01*
X25821D01*
Y19417D01*
X25827Y19422D01*
X25838Y19434D01*
X25855Y19450D01*
X25861D01*
X25866Y19462D01*
X25872Y19473D01*
Y19490D01*
X25866Y19495D01*
X25861Y19507D01*
X25838Y19529D01*
X25799Y19569D01*
X25731Y19636D01*
X25658Y19630D01*
X25647D01*
X25619Y19625D01*
X25579Y19619D01*
X25546Y19614D01*
X25540Y19608D01*
X25523Y19602D01*
X25495Y19580D01*
X25467Y19557D01*
X25461Y19552D01*
X25444Y19535D01*
X25428Y19524D01*
X25422Y19512D01*
Y19501D01*
X25433Y19484D01*
X25450Y19456D01*
X25743Y19152D01*
Y19147D01*
X25754Y19141D01*
X25782Y19119D01*
X25816Y19091D01*
X25844Y19068D01*
X25849D01*
X25861Y19062D01*
X25872Y19057D01*
X25922D01*
X25951Y19062D01*
X25979Y19074D01*
X26007Y19091D01*
X26018Y19102D01*
X26035Y19119D01*
X26057Y19141D01*
X26091Y19169D01*
X26136Y19214D01*
X26192Y19265D01*
X26260Y19332D01*
X26271Y19344D01*
X26294Y19366D01*
X26333Y19405D01*
X26384Y19456D01*
X26446Y19518D01*
X26519Y19591D01*
X26597Y19664D01*
X26682Y19749D01*
X26693Y19760D01*
X26715Y19782D01*
X26755Y19816D01*
X26794Y19861D01*
X26839Y19906D01*
X26884Y19951D01*
X26924Y19985D01*
X26952Y20013D01*
X26957Y20018D01*
X26980Y20035D01*
X26997Y20041D01*
X27008Y20047D01*
X27014Y20041D01*
X27019D01*
X27030Y20035D01*
X27047Y20030D01*
X27070Y20024D01*
X27115D01*
Y20030D01*
X27109Y20041D01*
X27098Y20058D01*
X27092Y20063D01*
X27087Y20075D01*
X27075Y20092D01*
Y20108D01*
Y20120D01*
Y20125D01*
X27070Y20137D01*
X27064Y20142D01*
Y20153D01*
X27070Y20170D01*
X27075Y20182D01*
X27092Y20193D01*
X27098Y20198D01*
X27109Y20204D01*
Y20210D01*
Y20215D01*
X27104Y20221D01*
X27075D01*
X27059Y20227D01*
X27047Y20238D01*
X27042D01*
X27036Y20243D01*
X27025Y20255D01*
X27019Y20266D01*
Y20272D01*
X27030Y20283D01*
X27042Y20294D01*
X27064Y20305D01*
X27092Y20317D01*
X27137Y20333D01*
X27199Y20345D01*
X27278Y20350D01*
X27340Y20356D01*
X27373D01*
X27418Y20362D01*
X27486Y20373D01*
X27503D01*
X27537Y20378D01*
X27576Y20384D01*
X27598Y20390D01*
X27610D01*
X27638Y20395D01*
X27643D01*
X27649Y20401D01*
X27655Y20407D01*
Y20418D01*
X27649D01*
X27632Y20429D01*
X27621Y20435D01*
X27598D01*
X27570Y20440D01*
X27537Y20446D01*
X27514D01*
X27492Y20452D01*
X27458D01*
X27413Y20457D01*
X27357D01*
X27289Y20463D01*
X27030D01*
X27025Y20558D01*
Y20564D01*
Y20581D01*
X27019Y20609D01*
Y20637D01*
X27008Y20699D01*
X27002Y20727D01*
X26991Y20744D01*
X26985D01*
X26980Y20750D01*
D02*
G37*
G36*
X25124Y20350D02*
Y20345D01*
Y20333D01*
X25129Y20305D01*
X25141Y20260D01*
Y20255D01*
X25146Y20243D01*
X25152Y20210D01*
X25163Y20159D01*
X25175Y20114D01*
Y20103D01*
X25180Y20075D01*
X25186Y20030D01*
Y19968D01*
Y19962D01*
Y19940D01*
Y19912D01*
Y19872D01*
X25180Y19816D01*
Y19754D01*
X25175Y19687D01*
X25163Y19608D01*
Y19569D01*
X25309Y19411D01*
X25315Y19405D01*
X25321Y19400D01*
X25332Y19394D01*
X25343Y19389D01*
X25349Y19394D01*
Y19400D01*
X25354Y19417D01*
Y19422D01*
X25360Y19439D01*
X25371Y19462D01*
X25388Y19495D01*
X25394Y19501D01*
X25405Y19524D01*
X25422Y19552D01*
X25444Y19580D01*
X25450Y19585D01*
X25473Y19602D01*
X25501Y19625D01*
X25534Y19642D01*
X25540D01*
X25563Y19647D01*
X25602Y19653D01*
X25647Y19659D01*
X25681D01*
X25703Y19664D01*
X25709D01*
X25714Y19670D01*
X25709Y19681D01*
X25698Y19692D01*
X25681Y19715D01*
X25411Y20041D01*
X25186Y20305D01*
X25180Y20311D01*
X25158Y20328D01*
X25141Y20345D01*
X25124Y20350D01*
D02*
G37*
G36*
X27334Y20108D02*
X27317D01*
X27306Y20103D01*
X27278Y20097D01*
X27165D01*
X27137Y20103D01*
X27109D01*
Y20092D01*
Y20086D01*
X27115Y20075D01*
X27126Y20063D01*
X27149Y20047D01*
X27160Y20041D01*
X27188Y20035D01*
X27194D01*
X27205Y20030D01*
X27267D01*
X27300Y20035D01*
X27334Y20052D01*
X27345Y20063D01*
Y20080D01*
Y20086D01*
X27340Y20097D01*
X27334Y20108D01*
D02*
G37*
G36*
X24393Y23055D02*
X24286D01*
X24213Y23050D01*
X24202D01*
X24185Y23044D01*
X24162D01*
X24106Y23033D01*
X24033Y23016D01*
X23948Y22999D01*
X23864Y22971D01*
X23768Y22932D01*
X23679Y22887D01*
X23673D01*
X23667Y22881D01*
X23639Y22864D01*
X23594Y22830D01*
X23538Y22791D01*
X23476Y22746D01*
X23414Y22684D01*
X23347Y22617D01*
X23290Y22544D01*
Y22538D01*
X23285Y22532D01*
X23262Y22504D01*
X23240Y22454D01*
X23206Y22392D01*
X23167Y22313D01*
X23133Y22229D01*
X23099Y22133D01*
X23077Y22037D01*
Y22032D01*
X23071Y22015D01*
Y21993D01*
X23066Y21964D01*
Y21925D01*
X23060Y21886D01*
X23054Y21790D01*
Y21784D01*
Y21768D01*
Y21745D01*
Y21723D01*
Y21672D01*
X23060Y21655D01*
X23066Y21644D01*
X23071D01*
X23082Y21649D01*
X23099Y21661D01*
X23105D01*
X23116Y21666D01*
X23139Y21672D01*
X23161Y21683D01*
X23200D01*
Y21678D01*
Y21666D01*
X23195Y21661D01*
X23184Y21655D01*
X23161Y21649D01*
X23155D01*
X23144Y21644D01*
X23127Y21638D01*
X23099Y21627D01*
X23094Y21621D01*
X23071Y21610D01*
X23054Y21593D01*
X23032Y21571D01*
X23026Y21565D01*
X23021Y21548D01*
X23009Y21526D01*
X22992Y21492D01*
X22987Y21453D01*
Y21408D01*
X22992Y21363D01*
X23009Y21318D01*
Y21312D01*
X23021Y21301D01*
X23037Y21278D01*
X23060Y21256D01*
X23088Y21233D01*
X23127Y21211D01*
X23172Y21200D01*
X23229Y21194D01*
X23285D01*
X23290Y21188D01*
X23285Y21183D01*
X23268Y21171D01*
X23262D01*
X23257Y21166D01*
X23245D01*
X23240Y21160D01*
Y21155D01*
X23245Y21143D01*
X23262Y21115D01*
X23274Y21098D01*
X23296Y21070D01*
Y21065D01*
X23307Y21059D01*
X23330Y21020D01*
X23369Y20975D01*
X23420Y20924D01*
X23425Y20918D01*
X23437Y20907D01*
X23459Y20890D01*
X23482Y20868D01*
X23487Y20862D01*
X23504Y20851D01*
X23544Y20823D01*
X23555Y20817D01*
X23583Y20800D01*
X23628Y20778D01*
X23684Y20750D01*
X23690D01*
X23695Y20744D01*
X23729Y20727D01*
X23774Y20710D01*
X23819Y20693D01*
X23825D01*
X23836Y20688D01*
X23858Y20682D01*
X23892Y20676D01*
X23932Y20671D01*
X23982Y20665D01*
X24038Y20654D01*
X24100Y20648D01*
X24106D01*
X24128Y20643D01*
X24162D01*
X24207Y20637D01*
X24258Y20631D01*
X24314D01*
X24427Y20626D01*
X24511D01*
X24550Y20631D01*
X24578D01*
X24612Y20637D01*
X24651Y20648D01*
X24657D01*
X24668Y20654D01*
X24691Y20660D01*
X24713Y20665D01*
X24764Y20676D01*
X24815Y20693D01*
X24826Y20699D01*
X24848Y20705D01*
X24882Y20721D01*
X24921Y20750D01*
X24933Y20755D01*
X24955Y20772D01*
X24989Y20795D01*
X25028Y20823D01*
X25034Y20828D01*
X25062Y20851D01*
X25101Y20885D01*
X25152Y20935D01*
X25158Y20941D01*
X25175Y20958D01*
X25197Y20986D01*
X25231Y21014D01*
X25264Y21059D01*
X25298Y21098D01*
X25332Y21149D01*
X25360Y21200D01*
Y21205D01*
X25371Y21222D01*
X25383Y21250D01*
X25399Y21290D01*
X25416Y21335D01*
X25433Y21385D01*
X25450Y21447D01*
X25467Y21514D01*
Y21520D01*
Y21526D01*
X25473Y21559D01*
X25478Y21616D01*
X25484Y21683D01*
Y21689D01*
Y21700D01*
Y21734D01*
Y21773D01*
Y21790D01*
X25478Y21796D01*
X25473Y21790D01*
X25456Y21784D01*
X25433Y21773D01*
X25422Y21768D01*
X25394Y21751D01*
X25349Y21728D01*
X25293Y21717D01*
X25276D01*
X25259Y21711D01*
X25186D01*
X25129Y21717D01*
X25124D01*
X25107Y21723D01*
X25079Y21734D01*
X25045Y21751D01*
X25011Y21768D01*
X24972Y21796D01*
X24933Y21829D01*
X24899Y21869D01*
X24893Y21874D01*
X24882Y21891D01*
X24871Y21914D01*
X24854Y21948D01*
X24843Y21987D01*
X24826Y22032D01*
X24820Y22088D01*
Y22144D01*
Y22150D01*
Y22167D01*
X24826Y22189D01*
X24831Y22217D01*
X24848Y22291D01*
X24888Y22369D01*
Y22375D01*
X24899Y22386D01*
X24910Y22403D01*
X24927Y22426D01*
X24978Y22476D01*
X25040Y22516D01*
X25045D01*
X25068Y22527D01*
X25096Y22538D01*
X25129Y22549D01*
X25135D01*
X25152Y22555D01*
X25175Y22561D01*
X25208D01*
X25219Y22566D01*
Y22572D01*
X25208Y22583D01*
X25186Y22617D01*
X25175Y22639D01*
X25152Y22667D01*
X25146Y22673D01*
X25141Y22679D01*
X25113Y22712D01*
X25073Y22757D01*
X25034Y22791D01*
X25028Y22797D01*
X25017Y22802D01*
X25000Y22819D01*
X24983Y22836D01*
X24927Y22875D01*
X24871Y22909D01*
X24865D01*
X24854Y22915D01*
X24837Y22926D01*
X24809Y22937D01*
X24775Y22949D01*
X24730Y22965D01*
X24685Y22982D01*
X24629Y22999D01*
X24623D01*
X24601Y23005D01*
X24573Y23016D01*
X24539Y23022D01*
X24460Y23044D01*
X24427Y23050D01*
X24393Y23055D01*
D02*
G37*
G36*
X27368Y20333D02*
X27328D01*
X27289Y20328D01*
X27239Y20317D01*
X27233D01*
X27210Y20311D01*
X27182Y20305D01*
X27149Y20300D01*
X27115Y20294D01*
X27087Y20283D01*
X27064Y20277D01*
X27059Y20272D01*
Y20266D01*
X27064Y20260D01*
X27081Y20255D01*
X27109Y20249D01*
X27120D01*
X27143Y20243D01*
X27188Y20238D01*
X27300D01*
X27323Y20243D01*
X27334D01*
X27357Y20255D01*
X27362Y20260D01*
X27373Y20272D01*
X27379Y20294D01*
Y20322D01*
X27373Y20328D01*
X27368Y20333D01*
D02*
G37*
G36*
X27357Y20215D02*
X27340D01*
X27267Y20204D01*
X27255D01*
X27227Y20198D01*
X27194Y20193D01*
X27154Y20187D01*
X27120Y20176D01*
X27098Y20165D01*
Y20159D01*
Y20148D01*
X27109Y20142D01*
X27126Y20137D01*
X27132D01*
X27149Y20131D01*
X27188Y20125D01*
X27289D01*
X27312Y20131D01*
X27323D01*
X27340Y20142D01*
X27345Y20148D01*
X27357Y20159D01*
X27368Y20176D01*
X27362Y20204D01*
Y20210D01*
X27357Y20215D01*
D02*
G37*
G36*
X23465Y20587D02*
X23459D01*
X23442Y20575D01*
X23437Y20570D01*
X23431Y20553D01*
X23409Y20530D01*
X23386Y20485D01*
Y20480D01*
X23380Y20474D01*
X23358Y20446D01*
X23341Y20401D01*
X23319Y20356D01*
X23313Y20345D01*
X23307Y20322D01*
X23290Y20283D01*
X23274Y20232D01*
X23251Y20170D01*
X23229Y20097D01*
X23212Y20018D01*
X23195Y19934D01*
Y19923D01*
X23189Y19889D01*
X23184Y19844D01*
X23172Y19771D01*
X23167Y19692D01*
X23161Y19591D01*
X23155Y19484D01*
X23150Y19360D01*
X23144Y19124D01*
Y19119D01*
X23155Y19113D01*
X23172Y19107D01*
X23184D01*
X23217Y19102D01*
X23274Y19096D01*
X23347Y19091D01*
X23364D01*
X23386Y19085D01*
X23409D01*
X23465Y19079D01*
X23622D01*
X23628Y19411D01*
Y19422D01*
Y19450D01*
Y19490D01*
Y19535D01*
Y19591D01*
Y19636D01*
X23634Y19681D01*
Y19715D01*
Y19726D01*
X23639Y19754D01*
X23645Y19794D01*
X23650Y19839D01*
Y19844D01*
X23656Y19867D01*
X23662Y19895D01*
X23667Y19940D01*
X23673Y19990D01*
X23679Y20047D01*
X23673Y20170D01*
Y20176D01*
Y20193D01*
X23667Y20215D01*
X23662Y20243D01*
X23650Y20311D01*
X23628Y20384D01*
Y20390D01*
X23622Y20401D01*
X23611Y20412D01*
X23600Y20435D01*
X23566Y20485D01*
X23515Y20542D01*
X23510Y20547D01*
X23493Y20564D01*
X23476Y20581D01*
X23465Y20587D01*
D02*
G37*
G36*
X25219Y22527D02*
X25163Y22521D01*
X25107Y22510D01*
X25101D01*
X25096Y22504D01*
X25062Y22493D01*
X25023Y22471D01*
X24983Y22442D01*
X24972Y22437D01*
X24955Y22409D01*
X24927Y22375D01*
X24905Y22330D01*
X24899Y22324D01*
X24893Y22307D01*
X24882Y22279D01*
X24871Y22246D01*
X24860Y22206D01*
X24854Y22161D01*
X24848Y22116D01*
X24854Y22066D01*
Y22060D01*
X24860Y22043D01*
Y22021D01*
X24871Y21987D01*
X24882Y21953D01*
X24899Y21919D01*
X24927Y21880D01*
X24955Y21846D01*
X24961Y21841D01*
X24983Y21824D01*
X25017Y21801D01*
X25062Y21779D01*
X25113Y21756D01*
X25175Y21739D01*
X25236Y21734D01*
X25309Y21745D01*
X25315D01*
X25338Y21756D01*
X25371Y21773D01*
X25411Y21796D01*
X25456Y21829D01*
X25495Y21874D01*
X25534Y21931D01*
X25563Y21998D01*
Y22004D01*
X25568Y22032D01*
X25574Y22071D01*
Y22122D01*
Y22127D01*
Y22133D01*
Y22161D01*
X25568Y22201D01*
X25563Y22234D01*
Y22240D01*
X25551Y22262D01*
X25540Y22291D01*
X25523Y22330D01*
X25501Y22369D01*
X25473Y22409D01*
X25439Y22448D01*
X25394Y22482D01*
X25388Y22487D01*
X25371Y22493D01*
X25343Y22504D01*
X25309Y22516D01*
X25264Y22521D01*
X25219Y22527D01*
D02*
G37*
G36*
X22942Y20350D02*
X22936Y20345D01*
Y20339D01*
X22931Y20333D01*
X22919Y20317D01*
X22914Y20294D01*
Y20288D01*
X22908Y20283D01*
X22902Y20249D01*
X22891Y20198D01*
Y20193D01*
Y20170D01*
X22886Y20137D01*
Y20092D01*
X22880Y20035D01*
X22874Y19973D01*
Y19900D01*
X22869Y19822D01*
X22852Y19439D01*
Y19434D01*
Y19428D01*
Y19394D01*
X22846Y19344D01*
Y19270D01*
Y19186D01*
X22841Y19085D01*
Y18967D01*
Y18843D01*
Y18837D01*
Y18826D01*
Y18809D01*
Y18787D01*
Y18731D01*
Y18657D01*
Y18590D01*
Y18522D01*
Y18472D01*
Y18455D01*
Y18444D01*
X22857D01*
X22863Y18449D01*
X22869Y18455D01*
X22874Y18472D01*
Y18478D01*
Y18500D01*
Y18517D01*
Y18545D01*
X22869Y18573D01*
Y18612D01*
Y18618D01*
Y18629D01*
Y18646D01*
Y18674D01*
Y18708D01*
Y18753D01*
Y18798D01*
Y18854D01*
Y18916D01*
Y18989D01*
X22874Y19062D01*
Y19147D01*
Y19237D01*
X22880Y19327D01*
Y19428D01*
X22886Y19535D01*
Y19540D01*
Y19557D01*
Y19591D01*
X22891Y19625D01*
Y19675D01*
Y19726D01*
X22902Y19844D01*
X22908Y19968D01*
X22914Y20092D01*
X22919Y20148D01*
X22925Y20198D01*
X22931Y20243D01*
X22936Y20283D01*
Y20288D01*
X22942Y20305D01*
X22947Y20322D01*
Y20339D01*
Y20345D01*
X22942Y20350D01*
D02*
G37*
G36*
X25405Y19450D02*
X25399Y19445D01*
X25388Y19428D01*
X25383Y19405D01*
Y19400D01*
X25371Y19383D01*
X25366Y19360D01*
X25383Y19344D01*
X25388D01*
X25394Y19338D01*
X25416Y19332D01*
X25467D01*
X25484Y19338D01*
X25501Y19344D01*
X25506Y19349D01*
X25512Y19355D01*
Y19360D01*
X25501Y19372D01*
X25489Y19383D01*
X25467Y19405D01*
X25456Y19411D01*
X25439Y19428D01*
X25416Y19445D01*
X25405Y19450D01*
D02*
G37*
%LPD*%
G36*
X25422Y22161D02*
X25428D01*
X25433Y22156D01*
X25444Y22144D01*
X25450Y22122D01*
Y22116D01*
X25444Y22099D01*
X25422Y22082D01*
X25411Y22077D01*
X25388Y22071D01*
X25354D01*
X25338Y22082D01*
X25326Y22088D01*
Y22105D01*
Y22111D01*
Y22122D01*
X25338Y22139D01*
X25349Y22156D01*
X25354D01*
X25360Y22161D01*
X25388Y22167D01*
X25394D01*
X25422Y22161D01*
D02*
G37*
G36*
X24803Y21278D02*
X24854Y21273D01*
X24910Y21261D01*
X24916D01*
X24921Y21256D01*
X24950Y21250D01*
X24989Y21245D01*
X25023Y21233D01*
X25028Y21228D01*
X25045Y21222D01*
X25085Y21194D01*
X25090Y21188D01*
X25101Y21171D01*
X25113Y21149D01*
X25107Y21121D01*
X25101Y21115D01*
X25085Y21104D01*
X25062Y21087D01*
X25017Y21076D01*
X25011D01*
X25000Y21070D01*
X24983D01*
X24955Y21065D01*
X24916Y21059D01*
X24865D01*
X24803Y21053D01*
X24730Y21048D01*
X24691D01*
X24657Y21042D01*
X24415D01*
X24398Y21048D01*
X24370Y21053D01*
X24348Y21065D01*
X24325Y21081D01*
X24314Y21104D01*
X24320Y21132D01*
X24325Y21149D01*
X24342Y21166D01*
X24348Y21171D01*
X24370Y21188D01*
X24404Y21211D01*
X24443Y21233D01*
X24455Y21239D01*
X24483Y21245D01*
X24539Y21261D01*
X24612Y21273D01*
X24629D01*
X24646Y21278D01*
X24663D01*
X24713Y21284D01*
X24775D01*
X24803Y21278D01*
D02*
G37*
G36*
X24871Y21756D02*
X24888Y21745D01*
X24916Y21723D01*
X24921Y21717D01*
X24938Y21700D01*
X24961Y21678D01*
X24978Y21655D01*
Y21649D01*
X24983Y21638D01*
X24989Y21621D01*
X24995Y21599D01*
Y21593D01*
Y21582D01*
Y21571D01*
X24989Y21559D01*
X24983Y21554D01*
X24972Y21531D01*
X24966Y21526D01*
X24961Y21520D01*
X24955Y21514D01*
X24944Y21509D01*
X24938D01*
X24933Y21503D01*
X24882D01*
X24837Y21514D01*
X24831D01*
X24815Y21520D01*
X24792Y21531D01*
X24764Y21554D01*
X24758Y21559D01*
X24736Y21571D01*
X24719Y21588D01*
X24708Y21599D01*
Y21604D01*
X24736D01*
X24753Y21593D01*
X24770Y21582D01*
X24775Y21576D01*
X24792Y21571D01*
X24815Y21554D01*
X24843Y21543D01*
X24871Y21537D01*
X24905Y21531D01*
X24933Y21537D01*
X24961Y21559D01*
Y21565D01*
X24966Y21576D01*
X24972Y21593D01*
X24966Y21616D01*
Y21621D01*
X24955Y21638D01*
X24938Y21661D01*
X24910Y21694D01*
X24905Y21700D01*
X24899Y21706D01*
X24876Y21728D01*
X24865Y21745D01*
X24854Y21756D01*
Y21762D01*
X24860D01*
X24871Y21756D01*
D02*
G37*
G36*
X24235Y22577D02*
X24297Y22566D01*
X24303D01*
X24314Y22561D01*
X24337Y22555D01*
X24365Y22544D01*
X24432Y22510D01*
X24500Y22459D01*
Y22454D01*
X24511Y22448D01*
X24539Y22414D01*
X24573Y22375D01*
X24601Y22324D01*
Y22319D01*
X24606Y22313D01*
X24618Y22279D01*
X24629Y22229D01*
X24640Y22167D01*
Y22156D01*
Y22133D01*
X24635Y22094D01*
X24629Y22043D01*
X24612Y21987D01*
X24590Y21925D01*
X24550Y21869D01*
X24505Y21813D01*
X24500Y21807D01*
X24494Y21801D01*
X24460Y21773D01*
X24410Y21739D01*
X24342Y21711D01*
X24337D01*
X24325Y21706D01*
X24303Y21700D01*
X24280Y21694D01*
X24213Y21678D01*
X24117D01*
X24095Y21683D01*
X24067D01*
X23993Y21706D01*
X23954Y21717D01*
X23915Y21739D01*
X23909D01*
X23898Y21751D01*
X23881Y21762D01*
X23853Y21784D01*
X23808Y21829D01*
X23780Y21863D01*
X23763Y21897D01*
X23757Y21903D01*
X23752Y21925D01*
X23740Y21959D01*
X23735Y21993D01*
Y21998D01*
X23729Y22021D01*
X23723Y22054D01*
Y22099D01*
Y22105D01*
Y22111D01*
X23729Y22144D01*
X23740Y22201D01*
X23757Y22262D01*
X23791Y22336D01*
X23836Y22403D01*
X23898Y22471D01*
X23937Y22504D01*
X23982Y22532D01*
X23988D01*
X23999Y22538D01*
X24016Y22544D01*
X24038Y22555D01*
X24089Y22572D01*
X24145Y22583D01*
X24190D01*
X24235Y22577D01*
D02*
G37*
%LPC*%
G36*
X24831Y21245D02*
X24781D01*
X24770Y21239D01*
Y21233D01*
Y21222D01*
X24775Y21216D01*
X24786Y21200D01*
Y21194D01*
X24798Y21188D01*
X24809Y21183D01*
X24826Y21188D01*
X24837Y21194D01*
X24860Y21216D01*
X24865D01*
Y21228D01*
X24860Y21233D01*
X24848Y21239D01*
X24831Y21245D01*
D02*
G37*
G36*
X24539Y21228D02*
X24516D01*
X24505Y21222D01*
X24488D01*
X24483Y21216D01*
Y21211D01*
Y21205D01*
X24494Y21194D01*
Y21188D01*
X24500Y21183D01*
X24511D01*
X24528Y21188D01*
X24533D01*
X24545Y21194D01*
X24556Y21205D01*
X24561Y21216D01*
X24550Y21222D01*
X24539Y21228D01*
D02*
G37*
G36*
X24961Y21222D02*
X24944Y21216D01*
X24938Y21211D01*
Y21205D01*
X24950Y21194D01*
X24961Y21188D01*
X24972Y21183D01*
X24983D01*
X25000Y21194D01*
X25006Y21205D01*
X25000Y21211D01*
X24995Y21216D01*
X24978D01*
X24961Y21222D01*
D02*
G37*
G36*
X24235Y22549D02*
X24140D01*
X24089Y22544D01*
X24083D01*
X24067Y22538D01*
X24044Y22527D01*
X24016Y22516D01*
X23948Y22476D01*
X23875Y22420D01*
X23870Y22414D01*
X23858Y22403D01*
X23847Y22386D01*
X23825Y22358D01*
X23791Y22291D01*
X23774Y22251D01*
X23763Y22212D01*
Y22206D01*
X23757Y22178D01*
X23752Y22144D01*
Y22094D01*
Y22088D01*
Y22082D01*
Y22054D01*
X23757Y22015D01*
X23763Y21981D01*
Y21976D01*
X23768Y21964D01*
X23774Y21948D01*
X23785Y21925D01*
X23813Y21874D01*
X23858Y21824D01*
X23864Y21818D01*
X23870Y21813D01*
X23887Y21801D01*
X23903Y21784D01*
X23965Y21745D01*
X24038Y21717D01*
X24044D01*
X24067Y21711D01*
X24100Y21706D01*
X24185D01*
X24224Y21711D01*
X24269Y21717D01*
X24280D01*
X24303Y21728D01*
X24342Y21745D01*
X24387Y21768D01*
X24438Y21796D01*
X24483Y21835D01*
X24528Y21880D01*
X24561Y21936D01*
X24567Y21942D01*
X24578Y21964D01*
X24590Y21998D01*
X24606Y22037D01*
Y22049D01*
X24612Y22071D01*
X24618Y22105D01*
Y22139D01*
Y22144D01*
Y22167D01*
X24612Y22195D01*
X24606Y22234D01*
X24601Y22240D01*
X24595Y22262D01*
X24578Y22296D01*
X24561Y22324D01*
X24556Y22330D01*
X24550Y22347D01*
X24533Y22369D01*
X24511Y22397D01*
X24488Y22426D01*
X24455Y22459D01*
X24410Y22487D01*
X24365Y22516D01*
X24359D01*
X24342Y22521D01*
X24314Y22532D01*
X24275Y22538D01*
X24235Y22549D01*
D02*
G37*
G36*
X24725Y21250D02*
X24668D01*
X24651Y21245D01*
X24629Y21239D01*
X24618D01*
X24612Y21233D01*
Y21228D01*
Y21222D01*
X24618Y21216D01*
X24623Y21211D01*
X24646Y21200D01*
X24657D01*
X24674Y21205D01*
X24708Y21222D01*
X24713Y21228D01*
X24730Y21245D01*
X24725Y21250D01*
D02*
G37*
G36*
X24466Y21143D02*
X24460D01*
X24443Y21138D01*
X24415Y21132D01*
X24387Y21121D01*
X24382Y21115D01*
X24370Y21110D01*
X24359Y21104D01*
X24353Y21093D01*
Y21087D01*
X24365Y21081D01*
X24393Y21076D01*
X24466D01*
X24488Y21087D01*
X24494Y21098D01*
X24500Y21110D01*
Y21115D01*
X24494Y21126D01*
X24483Y21138D01*
X24466Y21143D01*
D02*
G37*
G36*
X24590Y21121D02*
X24567D01*
X24545Y21110D01*
X24539Y21104D01*
X24528Y21087D01*
Y21081D01*
X24533Y21076D01*
X24545Y21070D01*
X24578D01*
X24601Y21076D01*
X24606Y21081D01*
X24612Y21087D01*
Y21098D01*
X24606Y21110D01*
X24601Y21115D01*
X24590Y21121D01*
D02*
G37*
G36*
X24713Y21138D02*
X24691Y21132D01*
X24680Y21126D01*
X24668Y21115D01*
Y21110D01*
X24663Y21104D01*
X24657Y21093D01*
Y21087D01*
X24663Y21081D01*
X24674Y21076D01*
X24725D01*
X24736Y21081D01*
X24741Y21087D01*
Y21098D01*
X24747Y21110D01*
X24736Y21126D01*
X24730Y21132D01*
X24713Y21138D01*
D02*
G37*
G36*
X24983D02*
X24955Y21132D01*
X24944Y21126D01*
X24927Y21115D01*
X24921Y21110D01*
X24916Y21098D01*
Y21093D01*
Y21087D01*
X24921Y21081D01*
X24944D01*
X24955Y21087D01*
X24983D01*
X25011Y21098D01*
X25017Y21104D01*
Y21110D01*
X25006Y21126D01*
X25000Y21132D01*
X24983Y21138D01*
D02*
G37*
G36*
X24854Y21126D02*
X24831D01*
X24809Y21121D01*
X24803Y21115D01*
X24792Y21110D01*
X24781Y21093D01*
Y21081D01*
X24786Y21076D01*
X24843D01*
X24865Y21081D01*
X24871Y21087D01*
X24876Y21093D01*
Y21104D01*
X24865Y21115D01*
X24860Y21121D01*
X24854Y21126D01*
D02*
G37*
%LPD*%
G36*
X24337Y22150D02*
X24342Y22144D01*
X24353Y22127D01*
Y22122D01*
X24359Y22116D01*
X24365Y22094D01*
X24359Y22088D01*
X24348Y22071D01*
X24342Y22066D01*
X24337Y22060D01*
X24331Y22054D01*
X24325D01*
X24320Y22049D01*
X24314Y22043D01*
X24308Y22037D01*
X24280D01*
X24269Y22043D01*
X24258Y22054D01*
X24252D01*
X24247Y22066D01*
X24241Y22077D01*
Y22088D01*
X24247Y22111D01*
X24252Y22116D01*
X24258Y22122D01*
X24280Y22139D01*
X24286D01*
X24297Y22144D01*
X24308Y22150D01*
X24325Y22156D01*
X24337Y22150D01*
D02*
G37*
D19*
X18400Y23800D02*
G03*
X20400Y23800I1000J5D01*
G01*
Y26250D02*
G03*
X18400Y26250I-1000J24D01*
G01*
X10950Y23800D02*
G03*
X12950Y23800I1000J5D01*
G01*
Y26250D02*
G03*
X10950Y26250I-1000J24D01*
G01*
X20400Y23800D02*
Y26250D01*
X18400Y23800D02*
Y26250D01*
X12950Y23800D02*
Y26250D01*
X10950Y23800D02*
Y26250D01*
X26450Y36850D02*
Y36950D01*
Y36850D02*
X27000D01*
Y36950D01*
X26450D02*
X27000D01*
X14850Y36200D02*
Y36300D01*
X14300D02*
X14850D01*
X14300Y36200D02*
Y36300D01*
Y36200D02*
X14850D01*
X26900Y29100D02*
Y29600D01*
X27000Y29700D01*
X27200D01*
X27300Y29600D01*
Y29100D01*
X27500Y29700D02*
X27700D01*
X27600D01*
Y29100D01*
X27500Y29200D01*
X12220Y32572D02*
X12320Y32672D01*
X12520D01*
X12620Y32572D01*
Y32472D01*
X12520Y32372D01*
X12320D01*
X12220Y32272D01*
Y32172D01*
X12320Y32072D01*
X12520D01*
X12620Y32172D01*
X11920Y32572D02*
Y32472D01*
X12020D01*
X11820D01*
X11920D01*
Y32172D01*
X11820Y32072D01*
X11221D02*
X11420D01*
X11520Y32172D01*
Y32372D01*
X11420Y32472D01*
X11221D01*
X11121Y32372D01*
Y32272D01*
X11520D01*
X10921Y31873D02*
Y32472D01*
X10621D01*
X10521Y32372D01*
Y32172D01*
X10621Y32072D01*
X10921D01*
X10321Y31873D02*
Y32472D01*
X10021D01*
X9921Y32372D01*
Y32172D01*
X10021Y32072D01*
X10321D01*
X9421D02*
X9621D01*
X9721Y32172D01*
Y32372D01*
X9621Y32472D01*
X9421D01*
X9321Y32372D01*
Y32272D01*
X9721D01*
X9121Y32472D02*
Y32072D01*
Y32272D01*
X9021Y32372D01*
X8921Y32472D01*
X8821D01*
X8521Y31972D02*
X8122D01*
X20220Y31950D02*
Y32350D01*
X20020Y32550D01*
X19820Y32350D01*
Y31950D01*
Y32250D01*
X20220D01*
X19620Y32550D02*
Y32050D01*
X19520Y31950D01*
X19320D01*
X19220Y32050D01*
Y32550D01*
X19020D02*
X18621Y31950D01*
Y32550D02*
X19020Y31950D01*
X18421Y31850D02*
X18021D01*
X25550Y33650D02*
X25450Y33750D01*
Y33950D01*
X25550Y34050D01*
X25950D01*
X26050Y33950D01*
Y33750D01*
X25950Y33650D01*
X26050Y33450D02*
Y33250D01*
Y33350D01*
X25450D01*
X25550Y33450D01*
X26900Y33800D02*
X26800Y33900D01*
Y34100D01*
X26900Y34200D01*
X27300D01*
X27400Y34100D01*
Y33900D01*
X27300Y33800D01*
X27400Y33200D02*
Y33600D01*
X27000Y33200D01*
X26900D01*
X26800Y33300D01*
Y33500D01*
X26900Y33600D01*
X17600Y36850D02*
X17500Y36950D01*
Y37150D01*
X17600Y37250D01*
X18000D01*
X18100Y37150D01*
Y36950D01*
X18000Y36850D01*
X17600Y36650D02*
X17500Y36550D01*
Y36350D01*
X17600Y36250D01*
X17700D01*
X17800Y36350D01*
Y36450D01*
Y36350D01*
X17900Y36250D01*
X18000D01*
X18100Y36350D01*
Y36550D01*
X18000Y36650D01*
X16050Y36750D02*
X15950Y36850D01*
Y37050D01*
X16050Y37150D01*
X16450D01*
X16550Y37050D01*
Y36850D01*
X16450Y36750D01*
X16550Y36250D02*
X15950D01*
X16250Y36550D01*
Y36150D01*
X12550Y35150D02*
X12450Y35250D01*
Y35450D01*
X12550Y35550D01*
X12950D01*
X13050Y35450D01*
Y35250D01*
X12950Y35150D01*
X12450Y34550D02*
Y34950D01*
X12750D01*
X12650Y34750D01*
Y34650D01*
X12750Y34550D01*
X12950D01*
X13050Y34650D01*
Y34850D01*
X12950Y34950D01*
X22750Y34250D02*
X22650Y34350D01*
Y34550D01*
X22750Y34650D01*
X23150D01*
X23250Y34550D01*
Y34350D01*
X23150Y34250D01*
X22650Y33650D02*
X22750Y33850D01*
X22950Y34050D01*
X23150D01*
X23250Y33950D01*
Y33750D01*
X23150Y33650D01*
X23050D01*
X22950Y33750D01*
Y34050D01*
X31250Y29050D02*
X31350Y28950D01*
Y28750D01*
X31250Y28650D01*
X30850D01*
X30750Y28750D01*
Y28950D01*
X30850Y29050D01*
X30750Y29250D02*
Y29450D01*
Y29350D01*
X31350D01*
X31250Y29250D01*
X30750Y29750D02*
Y29950D01*
Y29850D01*
X31350D01*
X31250Y29750D01*
X30400Y30150D02*
X30500Y30050D01*
Y29850D01*
X30400Y29750D01*
X30000D01*
X29900Y29850D01*
Y30050D01*
X30000Y30150D01*
X29900Y30350D02*
Y30550D01*
Y30450D01*
X30500D01*
X30400Y30350D01*
X29900Y31250D02*
Y30850D01*
X30300Y31250D01*
X30400D01*
X30500Y31150D01*
Y30950D01*
X30400Y30850D01*
X28400Y42800D02*
X28300Y42900D01*
Y43100D01*
X28400Y43200D01*
X28800D01*
X28900Y43100D01*
Y42900D01*
X28800Y42800D01*
X28900Y42600D02*
Y42400D01*
Y42500D01*
X28300D01*
X28400Y42600D01*
X28900Y41800D02*
X28300D01*
X28600Y42100D01*
Y41700D01*
X7550Y11200D02*
X7950D01*
Y10900D01*
X7750D01*
X7950D01*
Y10600D01*
X7350D02*
X7150D01*
X7250D01*
Y11200D01*
X7350Y11100D01*
X30550Y37180D02*
Y37580D01*
X30650Y37680D01*
X30850D01*
X30950Y37580D01*
Y37180D01*
X30850Y37080D01*
X30650D01*
X30750Y37280D02*
X30550Y37080D01*
X30650D02*
X30550Y37180D01*
X30350Y37080D02*
X30150D01*
X30250D01*
Y37680D01*
X30350Y37580D01*
X30250Y27430D02*
Y27830D01*
X30350Y27930D01*
X30550D01*
X30650Y27830D01*
Y27430D01*
X30550Y27330D01*
X30350D01*
X30450Y27530D02*
X30250Y27330D01*
X30350D02*
X30250Y27430D01*
X29650Y27330D02*
X30050D01*
X29650Y27730D01*
Y27830D01*
X29750Y27930D01*
X29950D01*
X30050Y27830D01*
X10800Y32800D02*
Y33400D01*
X10500D01*
X10400Y33300D01*
Y33100D01*
X10500Y33000D01*
X10800D01*
X10600D02*
X10400Y32800D01*
X10200D02*
X10000D01*
X10100D01*
Y33400D01*
X10200Y33300D01*
X12350Y33950D02*
Y34550D01*
X12050D01*
X11950Y34450D01*
Y34250D01*
X12050Y34150D01*
X12350D01*
X12150D02*
X11950Y33950D01*
X11350D02*
X11750D01*
X11350Y34350D01*
Y34450D01*
X11450Y34550D01*
X11650D01*
X11750Y34450D01*
X29200Y31950D02*
Y32550D01*
X28900D01*
X28800Y32450D01*
Y32250D01*
X28900Y32150D01*
X29200D01*
X29000D02*
X28800Y31950D01*
X28600Y32450D02*
X28500Y32550D01*
X28300D01*
X28200Y32450D01*
Y32350D01*
X28300Y32250D01*
X28200Y32150D01*
Y32050D01*
X28300Y31950D01*
X28500D01*
X28600Y32050D01*
Y32150D01*
X28500Y32250D01*
X28600Y32350D01*
Y32450D01*
X28500Y32250D02*
X28300D01*
X19341Y32687D02*
X18741D01*
Y32387D01*
X18841Y32287D01*
X19041D01*
X19141Y32387D01*
Y32687D01*
Y32487D02*
X19341Y32287D01*
X18841Y32087D02*
X18741Y31987D01*
Y31787D01*
X18841Y31687D01*
X18941D01*
X19041Y31787D01*
Y31887D01*
Y31787D01*
X19141Y31687D01*
X19241D01*
X19341Y31787D01*
Y31987D01*
X19241Y32087D01*
X26200Y27350D02*
Y27950D01*
X25900D01*
X25800Y27850D01*
Y27650D01*
X25900Y27550D01*
X26200D01*
X26000D02*
X25800Y27350D01*
X25300D02*
Y27950D01*
X25600Y27650D01*
X25200D01*
X20620Y34941D02*
X20020D01*
Y34641D01*
X20120Y34541D01*
X20320D01*
X20420Y34641D01*
Y34941D01*
Y34741D02*
X20620Y34541D01*
Y34041D02*
X20020D01*
X20320Y34341D01*
Y33941D01*
X30450Y31400D02*
Y32000D01*
X30150D01*
X30050Y31900D01*
Y31700D01*
X30150Y31600D01*
X30450D01*
X30250D02*
X30050Y31400D01*
X29450Y32000D02*
X29850D01*
Y31700D01*
X29650Y31800D01*
X29550D01*
X29450Y31700D01*
Y31500D01*
X29550Y31400D01*
X29750D01*
X29850Y31500D01*
X25650Y37250D02*
X26050D01*
X26250Y37050D01*
X26050Y36850D01*
X25650D01*
Y36650D02*
X26250D01*
Y36350D01*
X26150Y36250D01*
X25750D01*
X25650Y36350D01*
Y36650D01*
X26250Y36050D02*
Y35850D01*
Y35950D01*
X25650D01*
X25750Y36050D01*
X13450Y37500D02*
X13850D01*
X14050Y37300D01*
X13850Y37100D01*
X13450D01*
Y36900D02*
X14050D01*
Y36600D01*
X13950Y36500D01*
X13550D01*
X13450Y36600D01*
Y36900D01*
X14050Y35901D02*
Y36300D01*
X13650Y35901D01*
X13550D01*
X13450Y36000D01*
Y36200D01*
X13550Y36300D01*
X17300Y24050D02*
X17400Y23950D01*
Y23750D01*
X17300Y23650D01*
X16900D01*
X16800Y23750D01*
Y23950D01*
X16900Y24050D01*
X16800Y24250D02*
Y24450D01*
Y24350D01*
X17400D01*
X17300Y24250D01*
X17400Y25150D02*
Y24750D01*
X17100D01*
X17200Y24950D01*
Y25050D01*
X17100Y25150D01*
X16900D01*
X16800Y25050D01*
Y24850D01*
X16900Y24750D01*
X17500Y25650D02*
X17600Y25550D01*
Y25350D01*
X17500Y25250D01*
X17100D01*
X17000Y25350D01*
Y25550D01*
X17100Y25650D01*
X17000Y25850D02*
Y26050D01*
Y25950D01*
X17600D01*
X17500Y25850D01*
X17600Y26750D02*
X17500Y26550D01*
X17300Y26350D01*
X17100D01*
X17000Y26450D01*
Y26650D01*
X17100Y26750D01*
X17200D01*
X17300Y26650D01*
Y26350D01*
X9400Y24250D02*
X9300Y24350D01*
Y24550D01*
X9400Y24650D01*
X9800D01*
X9900Y24550D01*
Y24350D01*
X9800Y24250D01*
X9900Y24050D02*
Y23850D01*
Y23950D01*
X9300D01*
X9400Y24050D01*
X9300Y23550D02*
Y23150D01*
X9400D01*
X9800Y23550D01*
X9900D01*
X9450Y26300D02*
X9350Y26400D01*
Y26600D01*
X9450Y26700D01*
X9850D01*
X9950Y26600D01*
Y26400D01*
X9850Y26300D01*
X9950Y26100D02*
Y25900D01*
Y26000D01*
X9350D01*
X9450Y26100D01*
Y25600D02*
X9350Y25500D01*
Y25300D01*
X9450Y25200D01*
X9550D01*
X9650Y25300D01*
X9750Y25200D01*
X9850D01*
X9950Y25300D01*
Y25500D01*
X9850Y25600D01*
X9750D01*
X9650Y25500D01*
X9550Y25600D01*
X9450D01*
X9650Y25500D02*
Y25300D01*
X18950Y22050D02*
X19350Y22650D01*
Y22050D02*
X18950Y22650D01*
X19550D02*
X19750D01*
X19650D01*
Y22050D01*
X19550Y22150D01*
X11500Y21950D02*
X11900Y22550D01*
Y21950D02*
X11500Y22550D01*
X12500D02*
X12100D01*
X12500Y22150D01*
Y22050D01*
X12400Y21950D01*
X12200D01*
X12100Y22050D01*
X31066Y20177D02*
Y19783D01*
X31263D01*
X31329Y19849D01*
Y19980D01*
X31263Y20046D01*
X31066D01*
X30935Y19783D02*
X30804D01*
X30870D01*
Y20046D01*
X30935D01*
X30410Y19783D02*
X30542D01*
X30607Y19849D01*
Y19980D01*
X30542Y20046D01*
X30410D01*
X30345Y19980D01*
Y19915D01*
X30607D01*
X30148Y20243D02*
Y20111D01*
X30214Y20046D01*
X31368Y20705D02*
X31237Y20443D01*
X31106Y20705D01*
X30975Y20443D02*
X30843D01*
X30909D01*
Y20705D01*
X30975D01*
X30647D02*
Y20443D01*
Y20574D01*
X30581Y20640D01*
X30515Y20705D01*
X30450D01*
X30253D02*
Y20509D01*
X30187Y20443D01*
X29991D01*
Y20705D01*
X29859Y20443D02*
X29663D01*
X29597Y20509D01*
X29663Y20574D01*
X29794D01*
X29859Y20640D01*
X29794Y20705D01*
X29597D01*
X29007D02*
X28875D01*
X28810Y20640D01*
Y20443D01*
X29007D01*
X29072Y20509D01*
X29007Y20574D01*
X28810D01*
X28679Y20443D02*
Y20705D01*
X28482D01*
X28416Y20640D01*
Y20443D01*
X28023Y20836D02*
Y20443D01*
X28220D01*
X28285Y20509D01*
Y20640D01*
X28220Y20705D01*
X28023D01*
X31411Y22674D02*
Y22543D01*
X31476Y22477D01*
X31214Y22608D02*
Y22543D01*
X31083Y22411D01*
X30952Y22543D01*
Y22608D01*
X31083Y22411D02*
Y22215D01*
X30755D02*
X30624D01*
X30558Y22280D01*
Y22411D01*
X30624Y22477D01*
X30755D01*
X30820Y22411D01*
Y22280D01*
X30755Y22215D01*
X30427Y22477D02*
Y22280D01*
X30361Y22215D01*
X30164D01*
Y22477D01*
X29377D02*
X29574D01*
X29640Y22411D01*
Y22280D01*
X29574Y22215D01*
X29377D01*
X29181Y22477D02*
X29049D01*
X28984Y22411D01*
Y22215D01*
X29181D01*
X29246Y22280D01*
X29181Y22346D01*
X28984D01*
X28853Y22215D02*
Y22477D01*
X28656D01*
X28590Y22411D01*
Y22215D01*
X28393Y22674D02*
Y22543D01*
X28459Y22477D01*
X28131Y22543D02*
Y22477D01*
X28197D01*
X28065D01*
X28131D01*
Y22280D01*
X28065Y22215D01*
X27409D02*
X27278D01*
X27213Y22280D01*
Y22411D01*
X27278Y22477D01*
X27409D01*
X27475Y22411D01*
Y22280D01*
X27409Y22215D01*
X27081Y22477D02*
Y22215D01*
Y22346D01*
X27016Y22411D01*
X26950Y22477D01*
X26885D01*
X26426Y22608D02*
Y22215D01*
X26622D01*
X26688Y22280D01*
Y22411D01*
X26622Y22477D01*
X26426D01*
X26098Y22215D02*
X26229D01*
X26294Y22280D01*
Y22411D01*
X26229Y22477D01*
X26098D01*
X26032Y22411D01*
Y22346D01*
X26294D01*
X25901Y22477D02*
Y22215D01*
Y22346D01*
X25835Y22411D01*
X25770Y22477D01*
X25704D01*
D20*
X11763Y33251D02*
Y33349D01*
X12137Y33251D02*
Y33349D01*
X11013Y33251D02*
Y33349D01*
X11387Y33251D02*
Y33349D01*
X20113Y33301D02*
Y33399D01*
X20487Y33301D02*
Y33399D01*
X18613Y33251D02*
Y33349D01*
X18987Y33251D02*
Y33349D01*
D61*
X28015Y32401D02*
G03*
X28015Y32401I-49J0D01*
G01*
X19849Y31028D02*
G03*
X19849Y31028I-49J0D01*
G01*
X19249Y30428D02*
G03*
X19249Y30428I-49J0D01*
G01*
X12249Y31050D02*
G03*
X12249Y31050I-49J0D01*
G01*
X11649Y30450D02*
G03*
X11649Y30450I-49J0D01*
G01*
X30518Y36549D02*
G03*
X30518Y36549I-49J0D01*
G01*
X30218Y26799D02*
G03*
X30218Y26799I-49J0D01*
G01*
X31407Y21296D02*
Y21099D01*
X31342Y21033D01*
X31145D01*
Y20968D01*
X31211Y20902D01*
X31276D01*
X31145Y21033D02*
Y21296D01*
X30948Y21033D02*
X30817D01*
X30752Y21099D01*
Y21230D01*
X30817Y21296D01*
X30948D01*
X31014Y21230D01*
Y21099D01*
X30948Y21033D01*
X30620Y21296D02*
Y21099D01*
X30555Y21033D01*
X30358D01*
Y21296D01*
X30161Y21493D02*
Y21361D01*
X30227Y21296D01*
X29964Y21033D02*
X29833D01*
X29899D01*
Y21427D01*
X29964D01*
X29636Y21033D02*
X29505D01*
X29571D01*
Y21427D01*
X29636D01*
X28784Y20902D02*
X28718D01*
X28652Y20968D01*
Y21296D01*
X28849D01*
X28915Y21230D01*
Y21099D01*
X28849Y21033D01*
X28652D01*
X28324D02*
X28456D01*
X28521Y21099D01*
Y21230D01*
X28456Y21296D01*
X28324D01*
X28259Y21230D01*
Y21165D01*
X28521D01*
X28062Y21361D02*
Y21296D01*
X28128D01*
X27997D01*
X28062D01*
Y21099D01*
X27997Y21033D01*
X27341Y21296D02*
X27209D01*
X27144Y21230D01*
Y21033D01*
X27341D01*
X27406Y21099D01*
X27341Y21165D01*
X27144D01*
X31457Y21644D02*
Y22037D01*
X31260D01*
X31194Y21972D01*
Y21840D01*
X31260Y21775D01*
X31457D01*
X30801Y21972D02*
X30866Y22037D01*
X30998D01*
X31063Y21972D01*
Y21709D01*
X30998Y21644D01*
X30866D01*
X30801Y21709D01*
X30670Y22037D02*
Y21644D01*
X30473D01*
X30407Y21709D01*
Y21775D01*
X30473Y21840D01*
X30670D01*
X30473D01*
X30407Y21906D01*
Y21972D01*
X30473Y22037D01*
X30670D01*
X30276Y21644D02*
X30079D01*
X30014Y21709D01*
X30079Y21775D01*
X30210D01*
X30276Y21840D01*
X30210Y21906D01*
X30014D01*
X29423Y21644D02*
Y21972D01*
Y21840D01*
X29489D01*
X29358D01*
X29423D01*
Y21972D01*
X29358Y22037D01*
X29161Y21906D02*
Y21644D01*
Y21775D01*
X29095Y21840D01*
X29030Y21906D01*
X28964D01*
X28702Y21644D02*
X28570D01*
X28505Y21709D01*
Y21840D01*
X28570Y21906D01*
X28702D01*
X28767Y21840D01*
Y21709D01*
X28702Y21644D01*
X28374D02*
Y21906D01*
X28308D01*
X28243Y21840D01*
Y21644D01*
Y21840D01*
X28177Y21906D01*
X28111Y21840D01*
Y21644D01*
X27324Y21972D02*
X27390Y22037D01*
X27521D01*
X27587Y21972D01*
Y21709D01*
X27521Y21644D01*
X27390D01*
X27324Y21709D01*
X27193Y22037D02*
Y21644D01*
Y21840D01*
X27127Y21906D01*
X26996D01*
X26931Y21840D01*
Y21644D01*
X26799D02*
X26668D01*
X26734D01*
Y21906D01*
X26799D01*
X26471Y21644D02*
Y21906D01*
X26275D01*
X26209Y21840D01*
Y21644D01*
X26012Y21906D02*
X25881D01*
X25815Y21840D01*
Y21644D01*
X26012D01*
X26078Y21709D01*
X26012Y21775D01*
X25815D01*
X25619Y21578D02*
X25553Y21644D01*
Y21709D01*
X25619D01*
Y21644D01*
X25553D01*
X25619Y21578D01*
X25684Y21513D01*
D63*
X27316Y29940D02*
X27710D01*
Y30334D01*
X25190Y29940D02*
X25584D01*
X25190D02*
Y30334D01*
Y32066D02*
Y32460D01*
X25584D01*
X27316D02*
X27710D01*
Y32066D02*
Y32460D01*
X28730Y31688D02*
X28770D01*
X28730Y31412D02*
X28770D01*
X28845Y40693D02*
Y41007D01*
X28255Y40693D02*
Y41007D01*
X24430Y27688D02*
X24470D01*
X24430Y27412D02*
X24470D01*
X19461Y28366D02*
Y30689D01*
X17139Y28366D02*
Y30689D01*
X19461D01*
X17139Y28366D02*
X19461D01*
X11861Y28389D02*
Y30711D01*
X9539Y28389D02*
Y30711D01*
X11861D01*
X9539Y28389D02*
X11861D01*
X29977Y33931D02*
Y36569D01*
X28323Y33931D02*
Y36569D01*
X29977D01*
X28323Y33931D02*
X29977D01*
X29677Y24181D02*
Y26819D01*
X28023Y24181D02*
Y26819D01*
X29677D01*
X28023Y24181D02*
X29677D01*
X28730Y31088D02*
X28770D01*
X28730Y30812D02*
X28770D01*
X6765Y11468D02*
X7435D01*
X6765Y12432D02*
X7435D01*
X28743Y29595D02*
X29057D01*
X28743Y29005D02*
X29057D01*
X28743Y30445D02*
X29057D01*
X28743Y29855D02*
X29057D01*
X28189Y17018D02*
Y17618D01*
X27989Y17418D01*
X27789Y17618D01*
Y17018D01*
X27589Y17418D02*
Y17118D01*
X27489Y17018D01*
X27189D01*
Y16918D01*
X27289Y16818D01*
X27389D01*
X27189Y17018D02*
Y17418D01*
X25990Y17518D02*
X26090Y17618D01*
X26290D01*
X26390Y17518D01*
Y17118D01*
X26290Y17018D01*
X26090D01*
X25990Y17118D01*
Y17318D01*
X26190D01*
X25790Y17418D02*
Y17018D01*
Y17218D01*
X25690Y17318D01*
X25590Y17418D01*
X25490D01*
X25090Y17018D02*
X24890D01*
X24790Y17118D01*
Y17318D01*
X24890Y17418D01*
X25090D01*
X25190Y17318D01*
Y17118D01*
X25090Y17018D01*
X24590Y17418D02*
Y17118D01*
X24490Y17018D01*
X24190D01*
Y17418D01*
X23990Y16818D02*
Y17418D01*
X23690D01*
X23590Y17318D01*
Y17118D01*
X23690Y17018D01*
X23990D01*
D107*
X10250Y26470D02*
X10750D01*
Y26050D02*
Y26470D01*
Y25330D02*
Y25750D01*
X10250Y25330D02*
X10750D01*
X10250D02*
Y25750D01*
Y26050D02*
Y26470D01*
X10200Y23430D02*
X10700D01*
X10200D02*
Y23850D01*
Y24150D02*
Y24570D01*
X10700D01*
Y24150D02*
Y24570D01*
Y23430D02*
Y23850D01*
X17800Y26470D02*
X18300D01*
Y26050D02*
Y26470D01*
Y25330D02*
Y25750D01*
X17800Y25330D02*
X18300D01*
X17800D02*
Y25750D01*
Y26050D02*
Y26470D01*
X17600Y23730D02*
X18100D01*
X17600D02*
Y24150D01*
Y24450D02*
Y24870D01*
X18100D01*
Y24450D02*
Y24870D01*
Y23730D02*
Y24150D01*
M02*
