G04 Layer_Physical_Order=2*
G04 Layer_Color=11436288*
%FSLAX24Y24*%
%MOIN*%
G70*
G01*
G75*
%ADD10R,0.0236X0.0354*%
%ADD11R,0.0354X0.0335*%
%ADD12R,0.0394X0.0354*%
%ADD16R,0.0433X0.0669*%
%ADD19C,0.0100*%
%ADD20C,0.0059*%
%ADD21C,0.0591*%
%ADD22C,0.0197*%
%ADD23C,0.0118*%
%ADD24C,0.0394*%
%ADD25C,0.0240*%
%ADD26C,0.0600*%
%ADD27R,0.0600X0.0600*%
%ADD28R,0.1378X0.1378*%
%ADD29C,0.1378*%
%ADD30C,0.0787*%
%ADD31O,0.0827X0.0630*%
%ADD32R,0.0827X0.0630*%
%ADD33C,0.0472*%
%ADD34C,0.1280*%
%ADD35C,0.0591*%
%ADD36P,0.0639X8X22.5*%
%ADD37C,0.0500*%
%ADD38C,0.0276*%
%ADD39C,0.0295*%
%ADD40R,0.0512X0.0354*%
%ADD41R,0.0827X0.0354*%
%ADD42R,0.0827X0.0740*%
%ADD43R,0.0142X0.0740*%
%ADD44O,0.0157X0.0413*%
%ADD45O,0.0413X0.0157*%
%ADD46R,0.0354X0.0354*%
%ADD47R,0.0669X0.0433*%
%ADD48R,0.0320X0.0350*%
%ADD49O,0.0650X0.0197*%
%ADD50O,0.0197X0.0650*%
G04:AMPARAMS|DCode=51|XSize=35.8mil|YSize=48mil|CornerRadius=9mil|HoleSize=0mil|Usage=FLASHONLY|Rotation=270.000|XOffset=0mil|YOffset=0mil|HoleType=Round|Shape=RoundedRectangle|*
%AMROUNDEDRECTD51*
21,1,0.0358,0.0301,0,0,270.0*
21,1,0.0179,0.0480,0,0,270.0*
1,1,0.0179,-0.0151,-0.0090*
1,1,0.0179,-0.0151,0.0090*
1,1,0.0179,0.0151,0.0090*
1,1,0.0179,0.0151,-0.0090*
%
%ADD51ROUNDEDRECTD51*%
%ADD52R,0.0748X0.0354*%
%ADD53R,0.0748X0.1260*%
%ADD54R,0.0315X0.1043*%
%ADD55C,0.0157*%
%ADD56R,0.0500X0.0600*%
%ADD57R,0.1400X0.0900*%
%ADD58R,0.0948X0.1212*%
%ADD59R,0.0800X0.1250*%
%ADD60R,0.0850X0.1200*%
G36*
X31424Y9915D02*
X4009D01*
Y43235D01*
X31424D01*
Y9915D01*
D02*
G37*
%LPC*%
G36*
X5815Y19492D02*
X5723Y19480D01*
X5638Y19445D01*
X5564Y19388D01*
X5508Y19315D01*
X5473Y19229D01*
X5461Y19138D01*
X5473Y19046D01*
X5508Y18961D01*
X5564Y18887D01*
X5638Y18831D01*
X5723Y18796D01*
X5815Y18784D01*
X5907Y18796D01*
X5992Y18831D01*
X6065Y18887D01*
X6122Y18961D01*
X6157Y19046D01*
X6169Y19138D01*
X6157Y19229D01*
X6122Y19315D01*
X6065Y19388D01*
X5992Y19445D01*
X5907Y19480D01*
X5815Y19492D01*
D02*
G37*
G36*
Y27492D02*
X5723Y27480D01*
X5638Y27445D01*
X5564Y27388D01*
X5508Y27315D01*
X5473Y27229D01*
X5461Y27138D01*
X5473Y27046D01*
X5508Y26961D01*
X5564Y26887D01*
X5638Y26831D01*
X5723Y26796D01*
X5815Y26784D01*
X5907Y26796D01*
X5992Y26831D01*
X6065Y26887D01*
X6122Y26961D01*
X6157Y27046D01*
X6169Y27138D01*
X6157Y27229D01*
X6122Y27315D01*
X6065Y27388D01*
X5992Y27445D01*
X5907Y27480D01*
X5815Y27492D01*
D02*
G37*
G36*
X21348Y27869D02*
X21152D01*
X21056Y27857D01*
X20967Y27820D01*
X20890Y27761D01*
X20832Y27685D01*
X20795Y27596D01*
X20782Y27500D01*
X20795Y27404D01*
X20832Y27315D01*
X20890Y27239D01*
X20967Y27180D01*
X21056Y27143D01*
X21152Y27131D01*
X21348D01*
X21444Y27143D01*
X21533Y27180D01*
X21610Y27239D01*
X21668Y27315D01*
X21705Y27404D01*
X21718Y27500D01*
X21705Y27596D01*
X21668Y27685D01*
X21610Y27761D01*
X21533Y27820D01*
X21444Y27857D01*
X21348Y27869D01*
D02*
G37*
G36*
X4815Y19492D02*
X4723Y19480D01*
X4638Y19445D01*
X4564Y19388D01*
X4508Y19315D01*
X4473Y19229D01*
X4461Y19138D01*
X4473Y19046D01*
X4508Y18961D01*
X4564Y18887D01*
X4638Y18831D01*
X4723Y18796D01*
X4815Y18784D01*
X4907Y18796D01*
X4992Y18831D01*
X5065Y18887D01*
X5122Y18961D01*
X5157Y19046D01*
X5169Y19138D01*
X5157Y19229D01*
X5122Y19315D01*
X5065Y19388D01*
X4992Y19445D01*
X4907Y19480D01*
X4815Y19492D01*
D02*
G37*
G36*
Y28492D02*
X4723Y28480D01*
X4638Y28445D01*
X4564Y28388D01*
X4508Y28315D01*
X4473Y28229D01*
X4461Y28138D01*
X4473Y28046D01*
X4508Y27961D01*
X4564Y27887D01*
X4638Y27831D01*
X4723Y27796D01*
X4815Y27784D01*
X4907Y27796D01*
X4992Y27831D01*
X5065Y27887D01*
X5122Y27961D01*
X5157Y28046D01*
X5169Y28138D01*
X5157Y28229D01*
X5122Y28315D01*
X5065Y28388D01*
X4992Y28445D01*
X4907Y28480D01*
X4815Y28492D01*
D02*
G37*
G36*
X5815Y26492D02*
X5723Y26480D01*
X5638Y26445D01*
X5564Y26388D01*
X5508Y26315D01*
X5473Y26229D01*
X5461Y26138D01*
X5473Y26046D01*
X5508Y25961D01*
X5564Y25887D01*
X5638Y25831D01*
X5723Y25796D01*
X5815Y25784D01*
X5907Y25796D01*
X5992Y25831D01*
X6065Y25887D01*
X6122Y25961D01*
X6157Y26046D01*
X6169Y26138D01*
X6157Y26229D01*
X6122Y26315D01*
X6065Y26388D01*
X5992Y26445D01*
X5907Y26480D01*
X5815Y26492D01*
D02*
G37*
G36*
X4815D02*
X4723Y26480D01*
X4638Y26445D01*
X4564Y26388D01*
X4508Y26315D01*
X4473Y26229D01*
X4461Y26138D01*
X4473Y26046D01*
X4508Y25961D01*
X4564Y25887D01*
X4638Y25831D01*
X4723Y25796D01*
X4815Y25784D01*
X4907Y25796D01*
X4992Y25831D01*
X5065Y25887D01*
X5122Y25961D01*
X5157Y26046D01*
X5169Y26138D01*
X5157Y26229D01*
X5122Y26315D01*
X5065Y26388D01*
X4992Y26445D01*
X4907Y26480D01*
X4815Y26492D01*
D02*
G37*
G36*
X21348Y25869D02*
X21152D01*
X21056Y25857D01*
X20967Y25820D01*
X20890Y25761D01*
X20832Y25685D01*
X20795Y25596D01*
X20782Y25500D01*
X20795Y25404D01*
X20832Y25315D01*
X20890Y25239D01*
X20967Y25180D01*
X21056Y25143D01*
X21152Y25131D01*
X21348D01*
X21444Y25143D01*
X21533Y25180D01*
X21610Y25239D01*
X21668Y25315D01*
X21705Y25404D01*
X21718Y25500D01*
X21705Y25596D01*
X21668Y25685D01*
X21610Y25761D01*
X21533Y25820D01*
X21444Y25857D01*
X21348Y25869D01*
D02*
G37*
G36*
X4815Y27492D02*
X4723Y27480D01*
X4638Y27445D01*
X4564Y27388D01*
X4508Y27315D01*
X4473Y27229D01*
X4461Y27138D01*
X4473Y27046D01*
X4508Y26961D01*
X4564Y26887D01*
X4638Y26831D01*
X4723Y26796D01*
X4815Y26784D01*
X4907Y26796D01*
X4992Y26831D01*
X5065Y26887D01*
X5122Y26961D01*
X5157Y27046D01*
X5169Y27138D01*
X5157Y27229D01*
X5122Y27315D01*
X5065Y27388D01*
X4992Y27445D01*
X4907Y27480D01*
X4815Y27492D01*
D02*
G37*
G36*
Y20492D02*
X4723Y20480D01*
X4638Y20445D01*
X4564Y20388D01*
X4508Y20315D01*
X4473Y20229D01*
X4461Y20138D01*
X4473Y20046D01*
X4508Y19961D01*
X4564Y19887D01*
X4638Y19831D01*
X4723Y19796D01*
X4815Y19784D01*
X4907Y19796D01*
X4992Y19831D01*
X5065Y19887D01*
X5122Y19961D01*
X5157Y20046D01*
X5169Y20138D01*
X5157Y20229D01*
X5122Y20315D01*
X5065Y20388D01*
X4992Y20445D01*
X4907Y20480D01*
X4815Y20492D01*
D02*
G37*
G36*
X21348Y26869D02*
X21152D01*
X21056Y26857D01*
X20967Y26820D01*
X20890Y26761D01*
X20832Y26685D01*
X20795Y26596D01*
X20782Y26500D01*
X20795Y26404D01*
X20832Y26315D01*
X20890Y26239D01*
X20967Y26180D01*
X21056Y26143D01*
X21152Y26131D01*
X21348D01*
X21444Y26143D01*
X21533Y26180D01*
X21610Y26239D01*
X21668Y26315D01*
X21705Y26404D01*
X21718Y26500D01*
X21705Y26596D01*
X21668Y26685D01*
X21610Y26761D01*
X21533Y26820D01*
X21444Y26857D01*
X21348Y26869D01*
D02*
G37*
G36*
X5815Y28492D02*
X5723Y28480D01*
X5638Y28445D01*
X5564Y28388D01*
X5508Y28315D01*
X5473Y28229D01*
X5461Y28138D01*
X5473Y28046D01*
X5508Y27961D01*
X5564Y27887D01*
X5638Y27831D01*
X5723Y27796D01*
X5815Y27784D01*
X5907Y27796D01*
X5992Y27831D01*
X6065Y27887D01*
X6122Y27961D01*
X6157Y28046D01*
X6169Y28138D01*
X6157Y28229D01*
X6122Y28315D01*
X6065Y28388D01*
X5992Y28445D01*
X5907Y28480D01*
X5815Y28492D01*
D02*
G37*
G36*
X4815Y30492D02*
X4723Y30480D01*
X4638Y30445D01*
X4564Y30388D01*
X4508Y30315D01*
X4473Y30229D01*
X4461Y30138D01*
X4473Y30046D01*
X4508Y29961D01*
X4564Y29887D01*
X4638Y29831D01*
X4723Y29796D01*
X4815Y29784D01*
X4907Y29796D01*
X4992Y29831D01*
X5065Y29887D01*
X5122Y29961D01*
X5157Y30046D01*
X5169Y30138D01*
X5157Y30229D01*
X5122Y30315D01*
X5065Y30388D01*
X4992Y30445D01*
X4907Y30480D01*
X4815Y30492D01*
D02*
G37*
G36*
X13151Y17851D02*
X12449D01*
Y17149D01*
X13151D01*
Y17851D01*
D02*
G37*
G36*
X4815Y18492D02*
X4723Y18480D01*
X4638Y18445D01*
X4564Y18388D01*
X4508Y18315D01*
X4473Y18229D01*
X4461Y18138D01*
X4473Y18046D01*
X4508Y17961D01*
X4564Y17887D01*
X4638Y17831D01*
X4723Y17796D01*
X4815Y17784D01*
X4907Y17796D01*
X4992Y17831D01*
X5065Y17887D01*
X5122Y17961D01*
X5157Y18046D01*
X5169Y18138D01*
X5157Y18229D01*
X5122Y18315D01*
X5065Y18388D01*
X4992Y18445D01*
X4907Y18480D01*
X4815Y18492D01*
D02*
G37*
G36*
Y17492D02*
X4723Y17480D01*
X4638Y17445D01*
X4564Y17388D01*
X4508Y17315D01*
X4473Y17229D01*
X4461Y17138D01*
X4473Y17046D01*
X4508Y16961D01*
X4564Y16887D01*
X4638Y16831D01*
X4723Y16796D01*
X4815Y16784D01*
X4907Y16796D01*
X4992Y16831D01*
X5065Y16887D01*
X5122Y16961D01*
X5157Y17046D01*
X5169Y17138D01*
X5157Y17229D01*
X5122Y17315D01*
X5065Y17388D01*
X4992Y17445D01*
X4907Y17480D01*
X4815Y17492D01*
D02*
G37*
G36*
X5815D02*
X5723Y17480D01*
X5638Y17445D01*
X5564Y17388D01*
X5508Y17315D01*
X5473Y17229D01*
X5461Y17138D01*
X5473Y17046D01*
X5508Y16961D01*
X5564Y16887D01*
X5638Y16831D01*
X5723Y16796D01*
X5815Y16784D01*
X5907Y16796D01*
X5992Y16831D01*
X6065Y16887D01*
X6122Y16961D01*
X6157Y17046D01*
X6169Y17138D01*
X6157Y17229D01*
X6122Y17315D01*
X6065Y17388D01*
X5992Y17445D01*
X5907Y17480D01*
X5815Y17492D01*
D02*
G37*
G36*
Y30492D02*
X5723Y30480D01*
X5638Y30445D01*
X5564Y30388D01*
X5508Y30315D01*
X5473Y30229D01*
X5461Y30138D01*
X5473Y30046D01*
X5508Y29961D01*
X5564Y29887D01*
X5638Y29831D01*
X5723Y29796D01*
X5815Y29784D01*
X5907Y29796D01*
X5992Y29831D01*
X6065Y29887D01*
X6122Y29961D01*
X6157Y30046D01*
X6169Y30138D01*
X6157Y30229D01*
X6122Y30315D01*
X6065Y30388D01*
X5992Y30445D01*
X5907Y30480D01*
X5815Y30492D01*
D02*
G37*
G36*
Y29492D02*
X5723Y29480D01*
X5638Y29445D01*
X5564Y29388D01*
X5508Y29315D01*
X5473Y29229D01*
X5461Y29138D01*
X5473Y29046D01*
X5508Y28961D01*
X5564Y28887D01*
X5638Y28831D01*
X5723Y28796D01*
X5815Y28784D01*
X5907Y28796D01*
X5992Y28831D01*
X6065Y28887D01*
X6122Y28961D01*
X6157Y29046D01*
X6169Y29138D01*
X6157Y29229D01*
X6122Y29315D01*
X6065Y29388D01*
X5992Y29445D01*
X5907Y29480D01*
X5815Y29492D01*
D02*
G37*
G36*
X4815D02*
X4723Y29480D01*
X4638Y29445D01*
X4564Y29388D01*
X4508Y29315D01*
X4473Y29229D01*
X4461Y29138D01*
X4473Y29046D01*
X4508Y28961D01*
X4564Y28887D01*
X4638Y28831D01*
X4723Y28796D01*
X4815Y28784D01*
X4907Y28796D01*
X4992Y28831D01*
X5065Y28887D01*
X5122Y28961D01*
X5157Y29046D01*
X5169Y29138D01*
X5157Y29229D01*
X5122Y29315D01*
X5065Y29388D01*
X4992Y29445D01*
X4907Y29480D01*
X4815Y29492D01*
D02*
G37*
G36*
X21348Y28869D02*
X21152D01*
X21056Y28857D01*
X20967Y28820D01*
X20890Y28761D01*
X20832Y28685D01*
X20795Y28596D01*
X20782Y28500D01*
X20795Y28404D01*
X20832Y28315D01*
X20890Y28239D01*
X20967Y28180D01*
X21056Y28143D01*
X21152Y28131D01*
X21348D01*
X21444Y28143D01*
X21533Y28180D01*
X21610Y28239D01*
X21668Y28315D01*
X21705Y28404D01*
X21718Y28500D01*
X21705Y28596D01*
X21668Y28685D01*
X21610Y28761D01*
X21533Y28820D01*
X21444Y28857D01*
X21348Y28869D01*
D02*
G37*
G36*
X5815Y18492D02*
X5723Y18480D01*
X5638Y18445D01*
X5564Y18388D01*
X5508Y18315D01*
X5473Y18229D01*
X5461Y18138D01*
X5473Y18046D01*
X5508Y17961D01*
X5564Y17887D01*
X5638Y17831D01*
X5723Y17796D01*
X5815Y17784D01*
X5907Y17796D01*
X5992Y17831D01*
X6065Y17887D01*
X6122Y17961D01*
X6157Y18046D01*
X6169Y18138D01*
X6157Y18229D01*
X6122Y18315D01*
X6065Y18388D01*
X5992Y18445D01*
X5907Y18480D01*
X5815Y18492D01*
D02*
G37*
G36*
X14528Y24387D02*
X14455Y24372D01*
X14392Y24330D01*
X14350Y24268D01*
X14336Y24194D01*
X14350Y24120D01*
X14392Y24058D01*
X14446Y24022D01*
Y20468D01*
X12008Y18030D01*
X11939Y18059D01*
X11860Y18070D01*
X11782Y18059D01*
X11708Y18029D01*
X11645Y17981D01*
X11597Y17918D01*
X11568Y17848D01*
X11213D01*
X11182Y17842D01*
X11155Y17824D01*
X10913Y17582D01*
X10697D01*
X10692Y17616D01*
X10648Y17724D01*
X10576Y17817D01*
X10483Y17889D01*
X10375Y17933D01*
X10259Y17949D01*
X10143Y17933D01*
X10035Y17889D01*
X9942Y17817D01*
X9870Y17724D01*
X9826Y17616D01*
X9821Y17582D01*
X8138D01*
X8133Y17616D01*
X8089Y17724D01*
X8017Y17817D01*
X7924Y17889D01*
X7816Y17933D01*
X7700Y17949D01*
X7584Y17933D01*
X7476Y17889D01*
X7383Y17817D01*
X7311Y17724D01*
X7267Y17616D01*
X7251Y17500D01*
X7267Y17384D01*
X7311Y17276D01*
X7383Y17183D01*
X7476Y17111D01*
X7584Y17067D01*
X7700Y17051D01*
X7816Y17067D01*
X7924Y17111D01*
X8017Y17183D01*
X8089Y17276D01*
X8133Y17384D01*
X8138Y17418D01*
X9821D01*
X9826Y17384D01*
X9870Y17276D01*
X9942Y17183D01*
X10035Y17111D01*
X10143Y17067D01*
X10259Y17051D01*
X10375Y17067D01*
X10483Y17111D01*
X10576Y17183D01*
X10648Y17276D01*
X10692Y17384D01*
X10697Y17418D01*
X10948D01*
X10979Y17424D01*
X11006Y17442D01*
X11247Y17683D01*
X11568D01*
X11597Y17614D01*
X11645Y17551D01*
X11708Y17503D01*
X11782Y17472D01*
X11860Y17462D01*
X11939Y17472D01*
X12012Y17503D01*
X12075Y17551D01*
X12123Y17614D01*
X12154Y17687D01*
X12164Y17766D01*
X12154Y17844D01*
X12125Y17914D01*
X14586Y20376D01*
X14604Y20402D01*
X14611Y20434D01*
Y24022D01*
X14665Y24058D01*
X14706Y24120D01*
X14721Y24194D01*
X14706Y24268D01*
X14665Y24330D01*
X14602Y24372D01*
X14528Y24387D01*
D02*
G37*
G36*
X21348Y20869D02*
X21152D01*
X21056Y20857D01*
X20967Y20820D01*
X20890Y20761D01*
X20832Y20685D01*
X20795Y20596D01*
X20782Y20500D01*
X20795Y20404D01*
X20832Y20315D01*
X20890Y20239D01*
X20967Y20180D01*
X21056Y20143D01*
X21152Y20131D01*
X21348D01*
X21370Y20134D01*
X21408Y20101D01*
Y19162D01*
X21338Y19133D01*
X21275Y19085D01*
X21227Y19022D01*
X21197Y18949D01*
X21186Y18870D01*
X21197Y18791D01*
X21227Y18718D01*
X21275Y18655D01*
X21338Y18607D01*
X21411Y18577D01*
X21490Y18566D01*
X21569Y18577D01*
X21642Y18607D01*
X21705Y18655D01*
X21753Y18718D01*
X21783Y18791D01*
X21794Y18870D01*
X21783Y18949D01*
X21753Y19022D01*
X21705Y19085D01*
X21642Y19133D01*
X21572Y19162D01*
Y20210D01*
X21610Y20239D01*
X21668Y20315D01*
X21705Y20404D01*
X21718Y20500D01*
X21705Y20596D01*
X21668Y20685D01*
X21610Y20761D01*
X21533Y20820D01*
X21444Y20857D01*
X21348Y20869D01*
D02*
G37*
G36*
X12500Y22443D02*
X12426Y22428D01*
X12364Y22386D01*
X12322Y22324D01*
X12307Y22250D01*
X12320Y22186D01*
X11916Y21782D01*
X11372D01*
X11336Y21836D01*
X11274Y21878D01*
X11200Y21893D01*
X11126Y21878D01*
X11064Y21836D01*
X11022Y21774D01*
X11007Y21700D01*
X11022Y21626D01*
X11064Y21564D01*
X11126Y21522D01*
X11200Y21507D01*
X11274Y21522D01*
X11336Y21564D01*
X11372Y21618D01*
X11950D01*
X11981Y21624D01*
X12008Y21642D01*
X12436Y22070D01*
X12500Y22057D01*
X12574Y22072D01*
X12636Y22114D01*
X12678Y22176D01*
X12693Y22250D01*
X12678Y22324D01*
X12636Y22386D01*
X12574Y22428D01*
X12500Y22443D01*
D02*
G37*
G36*
X5815Y22492D02*
X5723Y22480D01*
X5638Y22445D01*
X5564Y22388D01*
X5508Y22315D01*
X5473Y22229D01*
X5461Y22138D01*
X5473Y22046D01*
X5508Y21961D01*
X5564Y21887D01*
X5638Y21831D01*
X5723Y21796D01*
X5815Y21784D01*
X5907Y21796D01*
X5992Y21831D01*
X6065Y21887D01*
X6122Y21961D01*
X6157Y22046D01*
X6169Y22138D01*
X6157Y22229D01*
X6122Y22315D01*
X6065Y22388D01*
X5992Y22445D01*
X5907Y22480D01*
X5815Y22492D01*
D02*
G37*
G36*
X4815D02*
X4723Y22480D01*
X4638Y22445D01*
X4564Y22388D01*
X4508Y22315D01*
X4473Y22229D01*
X4461Y22138D01*
X4473Y22046D01*
X4508Y21961D01*
X4564Y21887D01*
X4638Y21831D01*
X4723Y21796D01*
X4815Y21784D01*
X4907Y21796D01*
X4992Y21831D01*
X5065Y21887D01*
X5122Y21961D01*
X5157Y22046D01*
X5169Y22138D01*
X5157Y22229D01*
X5122Y22315D01*
X5065Y22388D01*
X4992Y22445D01*
X4907Y22480D01*
X4815Y22492D01*
D02*
G37*
G36*
X21348Y22869D02*
X21152D01*
X21056Y22857D01*
X20967Y22820D01*
X20890Y22761D01*
X20832Y22685D01*
X20795Y22596D01*
X20782Y22500D01*
X20795Y22404D01*
X20832Y22315D01*
X20890Y22239D01*
X20967Y22180D01*
X21056Y22143D01*
X21152Y22131D01*
X21348D01*
X21444Y22143D01*
X21533Y22180D01*
X21610Y22239D01*
X21668Y22315D01*
X21705Y22404D01*
X21718Y22500D01*
X21705Y22596D01*
X21668Y22685D01*
X21610Y22761D01*
X21533Y22820D01*
X21444Y22857D01*
X21348Y22869D01*
D02*
G37*
G36*
X15348D02*
X15152D01*
X15056Y22857D01*
X14967Y22820D01*
X14890Y22761D01*
X14832Y22685D01*
X14795Y22596D01*
X14782Y22500D01*
X14795Y22404D01*
X14832Y22315D01*
X14890Y22239D01*
X14967Y22180D01*
X15056Y22143D01*
X15152Y22131D01*
X15348D01*
X15444Y22143D01*
X15533Y22180D01*
X15610Y22239D01*
X15668Y22315D01*
X15705Y22404D01*
X15718Y22500D01*
X15705Y22596D01*
X15668Y22685D01*
X15610Y22761D01*
X15533Y22820D01*
X15444Y22857D01*
X15348Y22869D01*
D02*
G37*
G36*
X13798Y22819D02*
X13602D01*
X13506Y22807D01*
X13417Y22770D01*
X13340Y22711D01*
X13282Y22635D01*
X13245Y22546D01*
X13232Y22450D01*
X13245Y22354D01*
X13282Y22265D01*
X13340Y22189D01*
X13417Y22130D01*
X13506Y22093D01*
X13602Y22081D01*
X13798D01*
X13894Y22093D01*
X13983Y22130D01*
X14060Y22189D01*
X14118Y22265D01*
X14155Y22354D01*
X14168Y22450D01*
X14155Y22546D01*
X14118Y22635D01*
X14060Y22711D01*
X13983Y22770D01*
X13894Y22807D01*
X13798Y22819D01*
D02*
G37*
G36*
X5815Y21492D02*
X5723Y21480D01*
X5638Y21445D01*
X5564Y21388D01*
X5508Y21315D01*
X5473Y21229D01*
X5461Y21138D01*
X5473Y21046D01*
X5508Y20961D01*
X5564Y20887D01*
X5638Y20831D01*
X5723Y20796D01*
X5815Y20784D01*
X5907Y20796D01*
X5992Y20831D01*
X6065Y20887D01*
X6122Y20961D01*
X6157Y21046D01*
X6169Y21138D01*
X6157Y21229D01*
X6122Y21315D01*
X6065Y21388D01*
X5992Y21445D01*
X5907Y21480D01*
X5815Y21492D01*
D02*
G37*
G36*
X4815D02*
X4723Y21480D01*
X4638Y21445D01*
X4564Y21388D01*
X4508Y21315D01*
X4473Y21229D01*
X4461Y21138D01*
X4473Y21046D01*
X4508Y20961D01*
X4564Y20887D01*
X4638Y20831D01*
X4723Y20796D01*
X4815Y20784D01*
X4907Y20796D01*
X4992Y20831D01*
X5065Y20887D01*
X5122Y20961D01*
X5157Y21046D01*
X5169Y21138D01*
X5157Y21229D01*
X5122Y21315D01*
X5065Y21388D01*
X4992Y21445D01*
X4907Y21480D01*
X4815Y21492D01*
D02*
G37*
G36*
X5815Y20492D02*
X5723Y20480D01*
X5638Y20445D01*
X5564Y20388D01*
X5508Y20315D01*
X5473Y20229D01*
X5461Y20138D01*
X5473Y20046D01*
X5508Y19961D01*
X5564Y19887D01*
X5638Y19831D01*
X5723Y19796D01*
X5815Y19784D01*
X5907Y19796D01*
X5992Y19831D01*
X6065Y19887D01*
X6122Y19961D01*
X6157Y20046D01*
X6169Y20138D01*
X6157Y20229D01*
X6122Y20315D01*
X6065Y20388D01*
X5992Y20445D01*
X5907Y20480D01*
X5815Y20492D01*
D02*
G37*
G36*
X21348Y21869D02*
X21152D01*
X21056Y21857D01*
X20967Y21820D01*
X20890Y21761D01*
X20832Y21685D01*
X20795Y21596D01*
X20782Y21500D01*
X20795Y21404D01*
X20832Y21315D01*
X20890Y21239D01*
X20967Y21180D01*
X21056Y21143D01*
X21152Y21131D01*
X21348D01*
X21444Y21143D01*
X21533Y21180D01*
X21610Y21239D01*
X21668Y21315D01*
X21705Y21404D01*
X21718Y21500D01*
X21705Y21596D01*
X21668Y21685D01*
X21610Y21761D01*
X21533Y21820D01*
X21444Y21857D01*
X21348Y21869D01*
D02*
G37*
G36*
X15348D02*
X15152D01*
X15056Y21857D01*
X14967Y21820D01*
X14890Y21761D01*
X14832Y21685D01*
X14795Y21596D01*
X14782Y21500D01*
X14795Y21404D01*
X14832Y21315D01*
X14890Y21239D01*
X14967Y21180D01*
X15056Y21143D01*
X15152Y21131D01*
X15348D01*
X15444Y21143D01*
X15533Y21180D01*
X15610Y21239D01*
X15668Y21315D01*
X15705Y21404D01*
X15718Y21500D01*
X15705Y21596D01*
X15668Y21685D01*
X15610Y21761D01*
X15533Y21820D01*
X15444Y21857D01*
X15348Y21869D01*
D02*
G37*
G36*
X13798Y21819D02*
X13602D01*
X13506Y21807D01*
X13417Y21770D01*
X13340Y21711D01*
X13282Y21635D01*
X13245Y21546D01*
X13232Y21450D01*
X13245Y21354D01*
X13282Y21265D01*
X13340Y21189D01*
X13417Y21130D01*
X13506Y21093D01*
X13602Y21081D01*
X13798D01*
X13894Y21093D01*
X13983Y21130D01*
X14060Y21189D01*
X14118Y21265D01*
X14155Y21354D01*
X14168Y21450D01*
X14155Y21546D01*
X14118Y21635D01*
X14060Y21711D01*
X13983Y21770D01*
X13894Y21807D01*
X13798Y21819D01*
D02*
G37*
G36*
X15348Y24869D02*
X15152D01*
X15056Y24857D01*
X14967Y24820D01*
X14890Y24761D01*
X14832Y24685D01*
X14795Y24596D01*
X14782Y24500D01*
X14795Y24404D01*
X14832Y24315D01*
X14890Y24239D01*
X14967Y24180D01*
X15056Y24143D01*
X15152Y24131D01*
X15348D01*
X15444Y24143D01*
X15533Y24180D01*
X15610Y24239D01*
X15668Y24315D01*
X15705Y24404D01*
X15718Y24500D01*
X15705Y24596D01*
X15668Y24685D01*
X15610Y24761D01*
X15533Y24820D01*
X15444Y24857D01*
X15348Y24869D01*
D02*
G37*
G36*
X13798Y24819D02*
X13602D01*
X13506Y24807D01*
X13417Y24770D01*
X13340Y24711D01*
X13282Y24635D01*
X13245Y24546D01*
X13232Y24450D01*
X13245Y24354D01*
X13282Y24265D01*
X13340Y24189D01*
X13417Y24130D01*
X13506Y24093D01*
X13602Y24081D01*
X13798D01*
X13894Y24093D01*
X13983Y24130D01*
X14060Y24189D01*
X14118Y24265D01*
X14155Y24354D01*
X14168Y24450D01*
X14155Y24546D01*
X14118Y24635D01*
X14060Y24711D01*
X13983Y24770D01*
X13894Y24807D01*
X13798Y24819D01*
D02*
G37*
G36*
X5815Y24492D02*
X5723Y24480D01*
X5638Y24445D01*
X5564Y24388D01*
X5508Y24315D01*
X5473Y24229D01*
X5461Y24138D01*
X5473Y24046D01*
X5508Y23961D01*
X5564Y23887D01*
X5638Y23831D01*
X5723Y23796D01*
X5815Y23784D01*
X5907Y23796D01*
X5992Y23831D01*
X6065Y23887D01*
X6122Y23961D01*
X6157Y24046D01*
X6169Y24138D01*
X6157Y24229D01*
X6122Y24315D01*
X6065Y24388D01*
X5992Y24445D01*
X5907Y24480D01*
X5815Y24492D01*
D02*
G37*
G36*
Y25492D02*
X5723Y25480D01*
X5638Y25445D01*
X5564Y25388D01*
X5508Y25315D01*
X5473Y25229D01*
X5461Y25138D01*
X5473Y25046D01*
X5508Y24961D01*
X5564Y24887D01*
X5638Y24831D01*
X5723Y24796D01*
X5815Y24784D01*
X5907Y24796D01*
X5992Y24831D01*
X6065Y24887D01*
X6122Y24961D01*
X6157Y25046D01*
X6169Y25138D01*
X6157Y25229D01*
X6122Y25315D01*
X6065Y25388D01*
X5992Y25445D01*
X5907Y25480D01*
X5815Y25492D01*
D02*
G37*
G36*
X4815D02*
X4723Y25480D01*
X4638Y25445D01*
X4564Y25388D01*
X4508Y25315D01*
X4473Y25229D01*
X4461Y25138D01*
X4473Y25046D01*
X4508Y24961D01*
X4564Y24887D01*
X4638Y24831D01*
X4723Y24796D01*
X4815Y24784D01*
X4907Y24796D01*
X4992Y24831D01*
X5065Y24887D01*
X5122Y24961D01*
X5157Y25046D01*
X5169Y25138D01*
X5157Y25229D01*
X5122Y25315D01*
X5065Y25388D01*
X4992Y25445D01*
X4907Y25480D01*
X4815Y25492D01*
D02*
G37*
G36*
X29100Y28344D02*
X29021Y28333D01*
X28948Y28303D01*
X28885Y28255D01*
X28837Y28192D01*
X28807Y28119D01*
X28796Y28040D01*
X28807Y27961D01*
X28837Y27888D01*
X28885Y27825D01*
X28948Y27777D01*
X29021Y27747D01*
X29100Y27736D01*
X29148Y27743D01*
X29198Y27704D01*
Y24964D01*
X29204Y24933D01*
X29222Y24906D01*
X29592Y24536D01*
X29619Y24518D01*
X29650Y24512D01*
X29744D01*
Y24366D01*
X30594D01*
Y24823D01*
X29744D01*
Y24677D01*
X29684D01*
X29362Y24999D01*
Y27860D01*
X29358Y27882D01*
X29363Y27888D01*
X29393Y27961D01*
X29404Y28040D01*
X29393Y28119D01*
X29363Y28192D01*
X29315Y28255D01*
X29252Y28303D01*
X29179Y28333D01*
X29100Y28344D01*
D02*
G37*
G36*
X13798Y23819D02*
X13602D01*
X13506Y23807D01*
X13417Y23770D01*
X13340Y23711D01*
X13282Y23635D01*
X13245Y23546D01*
X13232Y23450D01*
X13245Y23354D01*
X13282Y23265D01*
X13340Y23189D01*
X13417Y23130D01*
X13506Y23093D01*
X13602Y23081D01*
X13798D01*
X13894Y23093D01*
X13983Y23130D01*
X14060Y23189D01*
X14118Y23265D01*
X14155Y23354D01*
X14168Y23450D01*
X14155Y23546D01*
X14118Y23635D01*
X14060Y23711D01*
X13983Y23770D01*
X13894Y23807D01*
X13798Y23819D01*
D02*
G37*
G36*
X5815Y23492D02*
X5723Y23480D01*
X5638Y23445D01*
X5564Y23388D01*
X5508Y23315D01*
X5473Y23229D01*
X5461Y23138D01*
X5473Y23046D01*
X5508Y22961D01*
X5564Y22887D01*
X5638Y22831D01*
X5723Y22796D01*
X5815Y22784D01*
X5907Y22796D01*
X5992Y22831D01*
X6065Y22887D01*
X6122Y22961D01*
X6157Y23046D01*
X6169Y23138D01*
X6157Y23229D01*
X6122Y23315D01*
X6065Y23388D01*
X5992Y23445D01*
X5907Y23480D01*
X5815Y23492D01*
D02*
G37*
G36*
X4815D02*
X4723Y23480D01*
X4638Y23445D01*
X4564Y23388D01*
X4508Y23315D01*
X4473Y23229D01*
X4461Y23138D01*
X4473Y23046D01*
X4508Y22961D01*
X4564Y22887D01*
X4638Y22831D01*
X4723Y22796D01*
X4815Y22784D01*
X4907Y22796D01*
X4992Y22831D01*
X5065Y22887D01*
X5122Y22961D01*
X5157Y23046D01*
X5169Y23138D01*
X5157Y23229D01*
X5122Y23315D01*
X5065Y23388D01*
X4992Y23445D01*
X4907Y23480D01*
X4815Y23492D01*
D02*
G37*
G36*
Y24492D02*
X4723Y24480D01*
X4638Y24445D01*
X4564Y24388D01*
X4508Y24315D01*
X4473Y24229D01*
X4461Y24138D01*
X4473Y24046D01*
X4508Y23961D01*
X4564Y23887D01*
X4638Y23831D01*
X4723Y23796D01*
X4815Y23784D01*
X4907Y23796D01*
X4992Y23831D01*
X5065Y23887D01*
X5122Y23961D01*
X5157Y24046D01*
X5169Y24138D01*
X5157Y24229D01*
X5122Y24315D01*
X5065Y24388D01*
X4992Y24445D01*
X4907Y24480D01*
X4815Y24492D01*
D02*
G37*
G36*
X21348Y23869D02*
X21152D01*
X21056Y23857D01*
X20967Y23820D01*
X20890Y23761D01*
X20832Y23685D01*
X20795Y23596D01*
X20782Y23500D01*
X20795Y23404D01*
X20832Y23315D01*
X20890Y23239D01*
X20967Y23180D01*
X21056Y23143D01*
X21152Y23131D01*
X21348D01*
X21444Y23143D01*
X21533Y23180D01*
X21610Y23239D01*
X21668Y23315D01*
X21705Y23404D01*
X21718Y23500D01*
X21705Y23596D01*
X21668Y23685D01*
X21610Y23761D01*
X21533Y23820D01*
X21444Y23857D01*
X21348Y23869D01*
D02*
G37*
G36*
X15348D02*
X15152D01*
X15056Y23857D01*
X14967Y23820D01*
X14890Y23761D01*
X14832Y23685D01*
X14795Y23596D01*
X14782Y23500D01*
X14795Y23404D01*
X14832Y23315D01*
X14890Y23239D01*
X14967Y23180D01*
X15056Y23143D01*
X15152Y23131D01*
X15348D01*
X15444Y23143D01*
X15533Y23180D01*
X15610Y23239D01*
X15668Y23315D01*
X15705Y23404D01*
X15718Y23500D01*
X15705Y23596D01*
X15668Y23685D01*
X15610Y23761D01*
X15533Y23820D01*
X15444Y23857D01*
X15348Y23869D01*
D02*
G37*
G36*
X11400Y11099D02*
X11310Y11088D01*
X11226Y11053D01*
X11153Y10997D01*
X11098Y10925D01*
X11063Y10840D01*
X11051Y10750D01*
X11063Y10660D01*
X11098Y10575D01*
X11153Y10503D01*
X11226Y10447D01*
X11310Y10412D01*
X11400Y10401D01*
X11491Y10412D01*
X11575Y10447D01*
X11647Y10503D01*
X11703Y10575D01*
X11738Y10660D01*
X11750Y10750D01*
X11738Y10840D01*
X11703Y10925D01*
X11647Y10997D01*
X11575Y11053D01*
X11491Y11088D01*
X11400Y11099D01*
D02*
G37*
G36*
X12188D02*
X12097Y11088D01*
X12013Y11053D01*
X11941Y10997D01*
X11885Y10925D01*
X11850Y10840D01*
X11838Y10750D01*
X11850Y10660D01*
X11885Y10575D01*
X11941Y10503D01*
X12013Y10447D01*
X12097Y10412D01*
X12188Y10401D01*
X12278Y10412D01*
X12363Y10447D01*
X12435Y10503D01*
X12490Y10575D01*
X12525Y10660D01*
X12537Y10750D01*
X12525Y10840D01*
X12490Y10925D01*
X12435Y10997D01*
X12363Y11053D01*
X12278Y11088D01*
X12188Y11099D01*
D02*
G37*
G36*
X24950Y38504D02*
X24858Y38492D01*
X24773Y38457D01*
X24700Y38400D01*
X24643Y38327D01*
X24608Y38242D01*
X24596Y38150D01*
X24608Y38058D01*
X24643Y37973D01*
X24700Y37900D01*
X24773Y37843D01*
X24858Y37808D01*
X24950Y37796D01*
X25042Y37808D01*
X25127Y37843D01*
X25200Y37900D01*
X25257Y37973D01*
X25292Y38058D01*
X25304Y38150D01*
X25292Y38242D01*
X25257Y38327D01*
X25200Y38400D01*
X25127Y38457D01*
X25042Y38492D01*
X24950Y38504D01*
D02*
G37*
G36*
X14368Y40169D02*
X14293Y40159D01*
X14223Y40130D01*
X14163Y40084D01*
X14117Y40024D01*
X14088Y39954D01*
X14078Y39879D01*
X14088Y39804D01*
X14114Y39741D01*
X14048Y39675D01*
X14030Y39648D01*
X14024Y39617D01*
Y37640D01*
X13898Y37515D01*
X13829Y37543D01*
X13750Y37554D01*
X13671Y37543D01*
X13598Y37513D01*
X13535Y37465D01*
X13487Y37402D01*
X13457Y37329D01*
X13446Y37250D01*
X13457Y37171D01*
X13487Y37098D01*
X13535Y37035D01*
X13598Y36987D01*
X13671Y36957D01*
X13750Y36946D01*
X13829Y36957D01*
X13902Y36987D01*
X13965Y37035D01*
X14013Y37098D01*
X14043Y37171D01*
X14054Y37250D01*
X14043Y37329D01*
X14015Y37398D01*
X14165Y37548D01*
X14182Y37575D01*
X14189Y37606D01*
Y39583D01*
X14230Y39625D01*
X14293Y39599D01*
X14368Y39589D01*
X14443Y39599D01*
X14513Y39628D01*
X14573Y39674D01*
X14619Y39734D01*
X14648Y39804D01*
X14658Y39879D01*
X14648Y39954D01*
X14619Y40024D01*
X14573Y40084D01*
X14513Y40130D01*
X14443Y40159D01*
X14368Y40169D01*
D02*
G37*
G36*
X27650Y39504D02*
X27558Y39492D01*
X27473Y39457D01*
X27400Y39400D01*
X27343Y39327D01*
X27308Y39242D01*
X27296Y39150D01*
X27308Y39058D01*
X27343Y38973D01*
X27400Y38900D01*
X27473Y38843D01*
X27558Y38808D01*
X27650Y38796D01*
X27742Y38808D01*
X27827Y38843D01*
X27900Y38900D01*
X27957Y38973D01*
X27992Y39058D01*
X28004Y39150D01*
X27992Y39242D01*
X27957Y39327D01*
X27900Y39400D01*
X27827Y39457D01*
X27742Y39492D01*
X27650Y39504D01*
D02*
G37*
G36*
X12975Y11099D02*
X12885Y11088D01*
X12800Y11053D01*
X12728Y10997D01*
X12673Y10925D01*
X12638Y10840D01*
X12626Y10750D01*
X12638Y10660D01*
X12673Y10575D01*
X12728Y10503D01*
X12800Y10447D01*
X12885Y10412D01*
X12975Y10401D01*
X13066Y10412D01*
X13150Y10447D01*
X13222Y10503D01*
X13278Y10575D01*
X13313Y10660D01*
X13325Y10750D01*
X13313Y10840D01*
X13278Y10925D01*
X13222Y10997D01*
X13150Y11053D01*
X13066Y11088D01*
X12975Y11099D01*
D02*
G37*
G36*
X26400Y13804D02*
X26308Y13792D01*
X26223Y13757D01*
X26150Y13700D01*
X26093Y13627D01*
X26058Y13542D01*
X26046Y13450D01*
X26058Y13358D01*
X26093Y13273D01*
X26150Y13200D01*
X26223Y13143D01*
X26308Y13108D01*
X26400Y13096D01*
X26492Y13108D01*
X26577Y13143D01*
X26650Y13200D01*
X26707Y13273D01*
X26742Y13358D01*
X26754Y13450D01*
X26742Y13542D01*
X26707Y13627D01*
X26650Y13700D01*
X26577Y13757D01*
X26492Y13792D01*
X26400Y13804D01*
D02*
G37*
G36*
X24606Y34799D02*
X24461Y34785D01*
X24322Y34742D01*
X24193Y34674D01*
X24080Y34581D01*
X23988Y34468D01*
X23919Y34340D01*
X23877Y34200D01*
X23863Y34055D01*
X23877Y33910D01*
X23919Y33770D01*
X23988Y33642D01*
X24080Y33529D01*
X24193Y33437D01*
X24322Y33368D01*
X24461Y33326D01*
X24606Y33311D01*
X24751Y33326D01*
X24891Y33368D01*
X25020Y33437D01*
X25132Y33529D01*
X25225Y33642D01*
X25293Y33770D01*
X25336Y33910D01*
X25350Y34055D01*
X25336Y34200D01*
X25293Y34340D01*
X25225Y34468D01*
X25132Y34581D01*
X25020Y34674D01*
X24891Y34742D01*
X24751Y34785D01*
X24606Y34799D01*
D02*
G37*
G36*
X30894Y34573D02*
X30044D01*
Y34116D01*
X30519D01*
X30543Y34066D01*
X30517Y34032D01*
X30487Y33959D01*
X30476Y33880D01*
X30487Y33801D01*
X30517Y33728D01*
X30565Y33665D01*
X30628Y33617D01*
X30701Y33587D01*
X30780Y33576D01*
X30859Y33587D01*
X30932Y33617D01*
X30995Y33665D01*
X31043Y33728D01*
X31073Y33801D01*
X31084Y33880D01*
X31073Y33959D01*
X31043Y34032D01*
X30995Y34095D01*
X30932Y34143D01*
X30894Y34159D01*
Y34573D01*
D02*
G37*
G36*
X14723Y11096D02*
X14377D01*
X14204Y10923D01*
Y10577D01*
X14377Y10404D01*
X14723D01*
X14896Y10577D01*
Y10923D01*
X14723Y11096D01*
D02*
G37*
G36*
X4815Y14492D02*
X4723Y14480D01*
X4638Y14445D01*
X4564Y14388D01*
X4508Y14315D01*
X4473Y14229D01*
X4461Y14138D01*
X4473Y14046D01*
X4508Y13961D01*
X4562Y13891D01*
Y13385D01*
X4508Y13315D01*
X4473Y13229D01*
X4461Y13138D01*
X4473Y13046D01*
X4508Y12961D01*
X4564Y12887D01*
X4638Y12831D01*
X4723Y12796D01*
X4811Y12784D01*
X5667Y11928D01*
X5637Y11888D01*
X5600Y11908D01*
X5460Y11950D01*
X5315Y11964D01*
X5170Y11950D01*
X5030Y11908D01*
X4902Y11839D01*
X4789Y11746D01*
X4697Y11634D01*
X4628Y11505D01*
X4586Y11366D01*
X4571Y11220D01*
X4586Y11075D01*
X4628Y10936D01*
X4697Y10807D01*
X4789Y10695D01*
X4902Y10602D01*
X5030Y10533D01*
X5170Y10491D01*
X5315Y10477D01*
X5460Y10491D01*
X5600Y10533D01*
X5728Y10602D01*
X5841Y10695D01*
X5933Y10807D01*
X6002Y10936D01*
X6044Y11075D01*
X6059Y11220D01*
X6044Y11366D01*
X6002Y11505D01*
X5933Y11634D01*
X5908Y11665D01*
X5935Y11711D01*
X6003Y11697D01*
X6242D01*
Y11377D01*
X6659D01*
Y11816D01*
X6684Y11853D01*
X6703Y11950D01*
X6684Y12047D01*
X6659Y12084D01*
Y12523D01*
X6242D01*
Y12203D01*
X6108D01*
X5570Y12740D01*
X5589Y12787D01*
X6166D01*
Y13489D01*
X5464D01*
Y12912D01*
X5418Y12893D01*
X5169Y13142D01*
X5157Y13229D01*
X5122Y13315D01*
X5068Y13385D01*
Y13891D01*
X5122Y13961D01*
X5157Y14046D01*
X5169Y14138D01*
X5157Y14229D01*
X5122Y14315D01*
X5065Y14388D01*
X4992Y14445D01*
X4907Y14480D01*
X4815Y14492D01*
D02*
G37*
G36*
X15167Y40169D02*
X15092Y40159D01*
X15022Y40130D01*
X14962Y40084D01*
X14916Y40024D01*
X14887Y39954D01*
X14877Y39879D01*
X14887Y39804D01*
X14916Y39734D01*
X14962Y39674D01*
X15022Y39628D01*
X15092Y39599D01*
X15167Y39589D01*
X15242Y39599D01*
X15312Y39628D01*
X15372Y39674D01*
X15418Y39734D01*
X15447Y39804D01*
X15457Y39879D01*
X15447Y39954D01*
X15418Y40024D01*
X15372Y40084D01*
X15312Y40130D01*
X15242Y40159D01*
X15167Y40169D01*
D02*
G37*
G36*
X16270Y42274D02*
X16134Y42261D01*
X16004Y42221D01*
X15884Y42157D01*
X15779Y42071D01*
X15692Y41965D01*
X15628Y41845D01*
X15589Y41715D01*
X15575Y41580D01*
X15589Y41444D01*
X15628Y41314D01*
X15692Y41194D01*
X15779Y41088D01*
X15884Y41002D01*
X16004Y40938D01*
X16134Y40898D01*
X16270Y40885D01*
X16405Y40898D01*
X16535Y40938D01*
X16656Y41002D01*
X16761Y41088D01*
X16847Y41194D01*
X16911Y41314D01*
X16951Y41444D01*
X16964Y41580D01*
X16951Y41715D01*
X16911Y41845D01*
X16847Y41965D01*
X16761Y42071D01*
X16656Y42157D01*
X16535Y42221D01*
X16405Y42261D01*
X16270Y42274D01*
D02*
G37*
G36*
X11270D02*
X11134Y42261D01*
X11004Y42221D01*
X10884Y42157D01*
X10779Y42071D01*
X10692Y41965D01*
X10628Y41845D01*
X10589Y41715D01*
X10575Y41580D01*
X10589Y41444D01*
X10628Y41314D01*
X10692Y41194D01*
X10779Y41088D01*
X10884Y41002D01*
X10891Y40999D01*
D01*
X11004Y40938D01*
X11134Y40898D01*
X11227Y40889D01*
D01*
X11270Y40885D01*
X11405Y40898D01*
X11535Y40938D01*
X11656Y41002D01*
X11761Y41088D01*
X11847Y41194D01*
X11911Y41314D01*
X11951Y41444D01*
X11964Y41580D01*
X11951Y41715D01*
X11911Y41845D01*
X11847Y41965D01*
X11761Y42071D01*
X11656Y42157D01*
X11535Y42221D01*
X11405Y42261D01*
X11270Y42274D01*
D02*
G37*
G36*
X17770D02*
X17634Y42261D01*
X17504Y42221D01*
X17384Y42157D01*
X17279Y42071D01*
X17192Y41965D01*
X17128Y41845D01*
X17089Y41715D01*
X17075Y41580D01*
X17089Y41444D01*
X17128Y41314D01*
X17192Y41194D01*
X17279Y41088D01*
X17384Y41002D01*
X17504Y40938D01*
X17634Y40898D01*
D01*
X17770Y40885D01*
X17905Y40898D01*
X18035Y40938D01*
X18156Y41002D01*
X18261Y41088D01*
X18347Y41194D01*
X18411Y41314D01*
X18451Y41444D01*
X18464Y41580D01*
X18451Y41715D01*
X18411Y41845D01*
X18347Y41965D01*
X18261Y42071D01*
X18156Y42157D01*
X18035Y42221D01*
X17905Y42261D01*
X17770Y42274D01*
D02*
G37*
G36*
X30150Y42428D02*
X30005Y42414D01*
X29865Y42371D01*
X29737Y42303D01*
X29624Y42210D01*
X29532Y42097D01*
X29498Y42034D01*
X28863D01*
X28772Y42022D01*
X28688Y41987D01*
X28616Y41931D01*
X28324Y41639D01*
X28164D01*
Y41480D01*
X28134Y41449D01*
X26700D01*
X26610Y41438D01*
X26525Y41403D01*
X26453Y41347D01*
X26397Y41275D01*
X26362Y41190D01*
X26351Y41100D01*
Y39700D01*
Y38102D01*
X26351Y38102D01*
X26357Y38050D01*
X26362Y38012D01*
X26362Y38012D01*
Y38012D01*
X26374Y37983D01*
X26397Y37928D01*
X26397Y37928D01*
X26397Y37928D01*
X26424Y37893D01*
X26453Y37855D01*
X26453Y37855D01*
X26453Y37855D01*
X26833Y37475D01*
X26814Y37429D01*
X26599D01*
X26544Y37418D01*
X26498Y37387D01*
X26467Y37340D01*
X26456Y37285D01*
Y37278D01*
X22716D01*
X22684Y37272D01*
X22657Y37254D01*
X21701Y36297D01*
X21585D01*
X21563Y36347D01*
X21599Y36394D01*
X21629Y36467D01*
X21639Y36546D01*
X21629Y36624D01*
X21600Y36694D01*
X23974Y39068D01*
X24607D01*
X24608Y39058D01*
X24643Y38973D01*
X24700Y38900D01*
X24773Y38843D01*
X24858Y38808D01*
X24950Y38796D01*
X25042Y38808D01*
X25127Y38843D01*
X25200Y38900D01*
X25257Y38973D01*
X25292Y39058D01*
X25304Y39150D01*
X25292Y39242D01*
X25257Y39327D01*
X25200Y39400D01*
X25127Y39457D01*
X25042Y39492D01*
X24950Y39504D01*
X24858Y39492D01*
X24773Y39457D01*
X24700Y39400D01*
X24643Y39327D01*
X24608Y39242D01*
X24607Y39232D01*
X23940D01*
X23909Y39226D01*
X23882Y39208D01*
X21484Y36810D01*
X21414Y36839D01*
X21336Y36850D01*
X21257Y36839D01*
X21184Y36809D01*
X21121Y36761D01*
X21073Y36698D01*
X21042Y36624D01*
X21032Y36546D01*
X21042Y36467D01*
X21073Y36394D01*
X21108Y36347D01*
X21087Y36297D01*
X20427D01*
X20398Y36367D01*
X20350Y36430D01*
X20287Y36478D01*
X20214Y36508D01*
X20135Y36519D01*
X20056Y36508D01*
X19983Y36478D01*
X19920Y36430D01*
X19872Y36367D01*
X19842Y36294D01*
X19831Y36215D01*
X19842Y36136D01*
X19872Y36063D01*
X19920Y36000D01*
X19983Y35952D01*
X20006Y35942D01*
X19996Y35892D01*
X18810D01*
X18809Y35892D01*
X18785Y35938D01*
X20448Y37602D01*
X20466Y37629D01*
X20472Y37660D01*
Y40200D01*
X20466Y40231D01*
X20460Y40240D01*
X20462Y40253D01*
X20479Y40287D01*
X20484Y40292D01*
X20542Y40300D01*
X20611Y40328D01*
X20672Y40375D01*
X20718Y40435D01*
X20747Y40504D01*
X20756Y40580D01*
X20747Y40655D01*
X20718Y40724D01*
X20672Y40785D01*
X20611Y40831D01*
X20542Y40860D01*
X20467Y40869D01*
X20392Y40860D01*
X20322Y40831D01*
X20262Y40785D01*
X20215Y40724D01*
X20187Y40655D01*
X20179Y40598D01*
X20130Y40577D01*
X20069Y40638D01*
X20042Y40656D01*
X20010Y40662D01*
X19944D01*
X19918Y40724D01*
X19872Y40785D01*
X19812Y40831D01*
X19758Y40853D01*
D01*
X19742Y40860D01*
X19667Y40869D01*
X19592Y40860D01*
X19522Y40831D01*
X19462Y40785D01*
X19416Y40724D01*
X19387Y40655D01*
X19377Y40580D01*
X19387Y40504D01*
X19416Y40435D01*
X19462Y40375D01*
X19522Y40328D01*
X19592Y40300D01*
X19667Y40290D01*
X19742Y40300D01*
X19812Y40328D01*
X19872Y40375D01*
X19918Y40435D01*
X19935Y40476D01*
X19991Y40483D01*
X20308Y40166D01*
Y40118D01*
X20258Y40096D01*
X20214Y40130D01*
X20144Y40159D01*
X20069Y40169D01*
X19994Y40159D01*
X19924Y40130D01*
X19864Y40084D01*
X19818Y40024D01*
X19789Y39954D01*
X19779Y39879D01*
X19789Y39804D01*
X19818Y39734D01*
X19864Y39674D01*
X19924Y39628D01*
X19987Y39602D01*
Y37529D01*
X16871Y34413D01*
X16853Y34387D01*
X16847Y34355D01*
Y34208D01*
X16793Y34172D01*
X16751Y34109D01*
X16736Y34035D01*
X16751Y33962D01*
X16793Y33899D01*
X16855Y33857D01*
X16929Y33843D01*
X17003Y33857D01*
X17065Y33899D01*
X17088Y33933D01*
X17144Y33927D01*
X17158Y33893D01*
X17197Y33842D01*
X17180Y33792D01*
X16695D01*
X16662Y33830D01*
X16664Y33840D01*
X16653Y33919D01*
X16623Y33992D01*
X16575Y34055D01*
X16512Y34103D01*
X16439Y34133D01*
X16360Y34144D01*
X16281Y34133D01*
X16208Y34103D01*
X16145Y34055D01*
X16097Y33992D01*
X16067Y33919D01*
X16056Y33840D01*
X16067Y33761D01*
X16097Y33688D01*
X16140Y33632D01*
X16127Y33582D01*
X15707D01*
X15705Y33596D01*
X15668Y33685D01*
X15610Y33761D01*
X15533Y33820D01*
X15444Y33857D01*
X15348Y33869D01*
X15152D01*
X15056Y33857D01*
X14967Y33820D01*
X14890Y33761D01*
X14886Y33755D01*
X14838Y33771D01*
Y34134D01*
X15715D01*
Y34866D01*
X14785D01*
Y34460D01*
X14778Y34455D01*
X14728Y34482D01*
Y35434D01*
X14722Y35466D01*
X14704Y35493D01*
X14558Y35638D01*
X14531Y35656D01*
X14500Y35662D01*
X13896D01*
X13879Y35712D01*
X13915Y35740D01*
X13963Y35802D01*
X13992Y35872D01*
X14256D01*
Y35865D01*
X14267Y35810D01*
X14298Y35763D01*
X14344Y35732D01*
X14399Y35721D01*
X14701D01*
X14756Y35732D01*
X14802Y35763D01*
X14803Y35765D01*
X14824Y35766D01*
X14860Y35759D01*
X14872Y35741D01*
X15346Y35267D01*
X15373Y35249D01*
X15404Y35243D01*
X16588D01*
X16620Y35221D01*
X16663Y35212D01*
X16706Y35221D01*
X16743Y35245D01*
X17776Y36279D01*
Y36279D01*
X17776D01*
X17801Y36315D01*
X17808Y36350D01*
X17809Y36358D01*
Y36358D01*
Y40036D01*
X17849Y40052D01*
X17912Y40100D01*
X17960Y40163D01*
X17990Y40236D01*
X18001Y40315D01*
X17990Y40394D01*
X17960Y40467D01*
X17912Y40530D01*
X17849Y40578D01*
X17775Y40608D01*
X17697Y40619D01*
X17618Y40608D01*
X17545Y40578D01*
X17482Y40530D01*
X17434Y40467D01*
X17403Y40394D01*
X17393Y40315D01*
X17403Y40236D01*
X17434Y40163D01*
X17482Y40100D01*
X17545Y40052D01*
X17584Y40036D01*
Y36405D01*
X16587Y35407D01*
X15893D01*
X15876Y35457D01*
X15900Y35475D01*
X15948Y35538D01*
X15978Y35611D01*
X15989Y35690D01*
X15978Y35769D01*
X15948Y35842D01*
X15900Y35905D01*
X15837Y35953D01*
X15764Y35983D01*
X15685Y35994D01*
X15606Y35983D01*
X15537Y35955D01*
X15172Y36319D01*
Y36841D01*
X15255Y36924D01*
X15352D01*
Y36787D01*
X15848D01*
Y36924D01*
X16772D01*
Y36787D01*
X17228D01*
Y37224D01*
X16772D01*
Y37088D01*
X16326D01*
X16321Y37091D01*
X16290Y37097D01*
X15848D01*
Y37243D01*
X15352D01*
Y37097D01*
X15215D01*
X15008Y37304D01*
X14981Y37322D01*
X14950Y37328D01*
X14844D01*
Y37335D01*
X14833Y37390D01*
X14802Y37437D01*
X14756Y37468D01*
X14701Y37479D01*
X14399D01*
X14344Y37468D01*
X14298Y37437D01*
X14267Y37390D01*
X14256Y37335D01*
Y37156D01*
X14267Y37101D01*
X14298Y37055D01*
X14344Y37024D01*
X14399Y37013D01*
X14701D01*
X14756Y37024D01*
X14802Y37055D01*
X14833Y37101D01*
X14844Y37156D01*
Y37163D01*
X14916D01*
X15089Y36990D01*
X15032Y36933D01*
X15014Y36906D01*
X15008Y36875D01*
Y36609D01*
X14958Y36589D01*
X14848Y36698D01*
X14821Y36716D01*
X14790Y36722D01*
X10552D01*
X10523Y36792D01*
X10475Y36855D01*
X10412Y36903D01*
X10339Y36933D01*
X10260Y36944D01*
X10249Y36942D01*
X10226Y36990D01*
X12594Y39357D01*
X13610D01*
X13641Y39364D01*
X13668Y39382D01*
X13944Y39658D01*
X13962Y39684D01*
X13968Y39716D01*
Y40124D01*
X13962Y40155D01*
X13944Y40182D01*
X13873Y40253D01*
X13886Y40286D01*
X13898Y40299D01*
X13967Y40290D01*
X14042Y40300D01*
X14111Y40328D01*
X14172Y40375D01*
X14218Y40435D01*
X14247Y40504D01*
X14256Y40580D01*
X14247Y40655D01*
X14218Y40724D01*
X14172Y40785D01*
X14111Y40831D01*
X14042Y40860D01*
X13967Y40869D01*
X13892Y40860D01*
X13822Y40831D01*
X13762Y40785D01*
X13715Y40724D01*
X13687Y40655D01*
X13677Y40580D01*
X13686Y40511D01*
X13673Y40499D01*
X13640Y40486D01*
X13488Y40638D01*
X13461Y40656D01*
X13446Y40659D01*
X13418Y40724D01*
X13372Y40785D01*
X13312Y40831D01*
X13242Y40860D01*
X13167Y40869D01*
X13167D01*
D01*
X13092Y40860D01*
D01*
X13022Y40831D01*
X12962Y40785D01*
X12916Y40724D01*
X12887Y40655D01*
X12877Y40580D01*
X12887Y40504D01*
X12916Y40435D01*
X12962Y40375D01*
X13022Y40328D01*
X13092Y40300D01*
X13167Y40290D01*
X13242Y40300D01*
X13312Y40328D01*
X13372Y40375D01*
X13405Y40417D01*
X13465Y40429D01*
X13706Y40187D01*
X13678Y40145D01*
X13644Y40159D01*
X13569Y40169D01*
X13494Y40159D01*
X13424Y40130D01*
X13364Y40084D01*
X13318Y40024D01*
X13289Y39954D01*
X13279Y39879D01*
X13289Y39804D01*
X13315Y39741D01*
X13216Y39642D01*
X9995D01*
X9964Y39636D01*
X9937Y39618D01*
X9752Y39433D01*
X9734Y39406D01*
X9728Y39375D01*
Y35500D01*
X9734Y35469D01*
X9752Y35442D01*
X9922Y35272D01*
X9949Y35254D01*
X9942Y35204D01*
X8705D01*
X7373Y36536D01*
Y36925D01*
X7423Y36939D01*
X7478Y36897D01*
X7551Y36867D01*
X7630Y36856D01*
X7709Y36867D01*
X7782Y36897D01*
X7845Y36945D01*
X7893Y37008D01*
X7923Y37081D01*
X7934Y37160D01*
X7923Y37239D01*
X7895Y37308D01*
X7976Y37390D01*
X7994Y37417D01*
X8000Y37448D01*
Y39602D01*
X8063Y39628D01*
X8123Y39674D01*
X8169Y39734D01*
X8198Y39804D01*
X8208Y39879D01*
X8198Y39954D01*
X8169Y40024D01*
X8123Y40084D01*
X8066Y40128D01*
X8065Y40133D01*
X8088Y40178D01*
X8548D01*
X8570Y40133D01*
X8570Y40128D01*
X8512Y40084D01*
X8466Y40024D01*
X8437Y39954D01*
X8427Y39879D01*
X8437Y39804D01*
X8466Y39734D01*
X8512Y39674D01*
X8572Y39628D01*
X8642Y39599D01*
X8717Y39589D01*
X8792Y39599D01*
X8862Y39628D01*
X8908Y39663D01*
X8958Y39643D01*
Y36522D01*
X8888Y36493D01*
X8825Y36445D01*
X8777Y36382D01*
X8747Y36309D01*
X8736Y36230D01*
X8747Y36151D01*
X8777Y36078D01*
X8825Y36015D01*
X8888Y35967D01*
X8961Y35937D01*
X9040Y35926D01*
X9119Y35937D01*
X9192Y35967D01*
X9255Y36015D01*
X9303Y36078D01*
X9333Y36151D01*
X9344Y36230D01*
X9333Y36309D01*
X9303Y36382D01*
X9255Y36445D01*
X9192Y36493D01*
X9122Y36522D01*
Y40125D01*
X9116Y40156D01*
X9098Y40183D01*
X8963Y40318D01*
X8936Y40336D01*
X8905Y40342D01*
X8557D01*
X8534Y40392D01*
X8567Y40435D01*
X8596Y40504D01*
X8606Y40580D01*
X8596Y40655D01*
X8567Y40724D01*
X8521Y40785D01*
X8461Y40831D01*
X8391Y40860D01*
X8316Y40869D01*
X8241Y40860D01*
X8171Y40831D01*
X8111Y40785D01*
X8065Y40724D01*
X8036Y40655D01*
X8026Y40580D01*
X8036Y40504D01*
X8065Y40435D01*
X8097Y40392D01*
X8074Y40342D01*
X7870D01*
X7771Y40442D01*
X7797Y40504D01*
X7806Y40580D01*
X7797Y40655D01*
X7768Y40724D01*
X7722Y40785D01*
X7661Y40831D01*
X7592Y40860D01*
X7517Y40869D01*
X7442Y40860D01*
X7372Y40831D01*
X7312Y40785D01*
X7265Y40724D01*
X7237Y40655D01*
X7227Y40580D01*
X7237Y40504D01*
X7265Y40435D01*
X7312Y40375D01*
X7372Y40328D01*
X7442Y40300D01*
X7517Y40290D01*
X7592Y40300D01*
X7654Y40325D01*
X7778Y40202D01*
X7793Y40192D01*
X7794Y40149D01*
X7791Y40137D01*
X7773Y40130D01*
X7713Y40084D01*
X7667Y40024D01*
X7638Y39954D01*
X7628Y39879D01*
X7638Y39804D01*
X7667Y39734D01*
X7713Y39674D01*
X7773Y39628D01*
X7836Y39602D01*
Y37482D01*
X7778Y37425D01*
X7709Y37453D01*
X7630Y37464D01*
X7551Y37453D01*
X7478Y37423D01*
X7423Y37381D01*
X7373Y37395D01*
Y39312D01*
X7529Y39468D01*
X7552Y39502D01*
X7559Y39541D01*
Y40019D01*
X7552Y40058D01*
X7529Y40091D01*
X7332Y40289D01*
X7298Y40311D01*
X7259Y40319D01*
X7123D01*
X6980Y40463D01*
X6997Y40504D01*
X7007Y40580D01*
X6997Y40655D01*
X6968Y40724D01*
X6922Y40785D01*
X6862Y40831D01*
X6792Y40860D01*
X6717Y40869D01*
X6642Y40860D01*
X6572Y40831D01*
X6512Y40785D01*
X6466Y40724D01*
X6437Y40655D01*
X6427Y40580D01*
X6437Y40504D01*
X6466Y40435D01*
X6512Y40375D01*
X6572Y40328D01*
X6642Y40300D01*
X6717Y40290D01*
X6792Y40300D01*
X6834Y40317D01*
X6973Y40177D01*
X6961Y40120D01*
X6914Y40084D01*
X6868Y40024D01*
X6839Y39954D01*
X6829Y39879D01*
X6839Y39804D01*
X6868Y39734D01*
X6914Y39674D01*
X6974Y39628D01*
X7016Y39610D01*
Y36431D01*
X7024Y36392D01*
X7046Y36358D01*
X8571Y34833D01*
X8605Y34810D01*
X8644Y34803D01*
X8770D01*
X8809Y34810D01*
X8842Y34833D01*
X8857Y34847D01*
X11186D01*
X11199Y34797D01*
X11157Y34742D01*
X11127Y34669D01*
X11116Y34590D01*
X11127Y34511D01*
X11155Y34442D01*
X11142Y34428D01*
X11124Y34401D01*
X11118Y34370D01*
Y33824D01*
X10972D01*
Y33402D01*
X10972Y33367D01*
X10928Y33352D01*
X10928Y33352D01*
X9484D01*
X9328Y33508D01*
X9301Y33526D01*
X9270Y33532D01*
X8157D01*
X8155Y33546D01*
X8118Y33635D01*
X8060Y33711D01*
X7983Y33770D01*
X7894Y33807D01*
X7798Y33819D01*
X7602D01*
X7506Y33807D01*
X7417Y33770D01*
X7340Y33711D01*
X7330Y33697D01*
X7282Y33713D01*
Y34084D01*
X8165D01*
Y34816D01*
X7235D01*
Y34532D01*
X7210D01*
X7179Y34526D01*
X7152Y34508D01*
X7142Y34498D01*
X7124Y34471D01*
X7118Y34440D01*
Y33180D01*
X7124Y33148D01*
X7142Y33122D01*
X7317Y32947D01*
X7344Y32929D01*
X7375Y32922D01*
X10972D01*
Y32776D01*
X11069D01*
Y31541D01*
X11065Y31538D01*
X11043Y31505D01*
X11041Y31504D01*
X10989D01*
X10987Y31505D01*
X10965Y31538D01*
X10916Y31571D01*
X10857Y31582D01*
X10799Y31571D01*
X10750Y31538D01*
X10728Y31505D01*
X10726Y31504D01*
X10674D01*
X10672Y31505D01*
X10650Y31538D01*
X10601Y31571D01*
X10543Y31582D01*
X10484Y31571D01*
X10435Y31538D01*
X10413Y31505D01*
X10411Y31504D01*
X10359D01*
X10357Y31505D01*
X10335Y31538D01*
X10286Y31571D01*
X10228Y31582D01*
X10169Y31571D01*
X10120Y31538D01*
X10098Y31505D01*
X10096Y31504D01*
X10044D01*
X10042Y31505D01*
X10020Y31538D01*
X9971Y31571D01*
X9913Y31582D01*
X9854Y31571D01*
X9805Y31538D01*
X9783Y31505D01*
X9781Y31504D01*
X9729D01*
X9727Y31505D01*
X9706Y31538D01*
X9656Y31571D01*
X9598Y31582D01*
X9539Y31571D01*
X9490Y31538D01*
X9457Y31488D01*
X9445Y31430D01*
Y30977D01*
X9454Y30933D01*
X9408Y30908D01*
X8408Y31908D01*
X8381Y31926D01*
X8350Y31932D01*
X7380D01*
X7349Y31926D01*
X7322Y31908D01*
X7022Y31608D01*
X7004Y31581D01*
X6998Y31550D01*
Y28620D01*
X7004Y28589D01*
X7022Y28562D01*
X7192Y28392D01*
X7219Y28374D01*
X7243Y28369D01*
X7245Y28354D01*
X7282Y28265D01*
X7340Y28189D01*
X7415Y28132D01*
X7417Y28130D01*
X7426Y28072D01*
X6927Y27573D01*
X6905Y27539D01*
X6897Y27500D01*
Y19850D01*
Y15250D01*
X6905Y15211D01*
X6927Y15177D01*
X8438Y13666D01*
X8408Y13592D01*
X8396Y13500D01*
X8408Y13408D01*
X8443Y13323D01*
X8500Y13250D01*
X8573Y13193D01*
X8658Y13158D01*
X8750Y13146D01*
X8842Y13158D01*
X8927Y13193D01*
X9000Y13250D01*
X9057Y13323D01*
X9092Y13408D01*
X9104Y13500D01*
X9092Y13592D01*
X9057Y13677D01*
X9000Y13750D01*
X8927Y13807D01*
X8842Y13842D01*
X8750Y13854D01*
X8658Y13842D01*
X8584Y13812D01*
X7103Y15293D01*
Y19747D01*
X13100D01*
X13139Y19755D01*
X13173Y19777D01*
X13494Y20098D01*
X13506Y20093D01*
X13602Y20081D01*
X13798D01*
X13894Y20093D01*
X13983Y20130D01*
X14060Y20189D01*
X14118Y20265D01*
X14155Y20354D01*
X14168Y20450D01*
X14155Y20546D01*
X14118Y20635D01*
X14060Y20711D01*
X13983Y20770D01*
X13894Y20807D01*
X13798Y20819D01*
X13602D01*
X13506Y20807D01*
X13417Y20770D01*
X13340Y20711D01*
X13282Y20635D01*
X13245Y20546D01*
X13232Y20450D01*
X13245Y20354D01*
X13282Y20265D01*
X13320Y20216D01*
X13057Y19953D01*
X7103D01*
Y27457D01*
X7195Y27549D01*
X7242Y27526D01*
X7232Y27450D01*
X7245Y27354D01*
X7282Y27265D01*
X7340Y27189D01*
X7417Y27130D01*
X7506Y27093D01*
X7602Y27081D01*
X7798D01*
X7894Y27093D01*
X7983Y27130D01*
X8060Y27189D01*
X8118Y27265D01*
X8155Y27354D01*
X8168Y27450D01*
X8155Y27546D01*
X8118Y27635D01*
X8060Y27711D01*
X7983Y27770D01*
X7894Y27807D01*
X7798Y27819D01*
X7602D01*
X7526Y27809D01*
X7503Y27857D01*
X7577Y27931D01*
X7971D01*
X8010Y27939D01*
X8044Y27961D01*
X8427Y28344D01*
X8709D01*
X8712Y28340D01*
X8762Y28307D01*
X8820Y28295D01*
X9218D01*
X9239Y28245D01*
X9056Y28062D01*
X8892D01*
X8863Y28132D01*
X8815Y28195D01*
X8752Y28243D01*
X8679Y28273D01*
X8600Y28284D01*
X8521Y28273D01*
X8448Y28243D01*
X8385Y28195D01*
X8337Y28132D01*
X8307Y28059D01*
X8296Y27980D01*
X8307Y27901D01*
X8337Y27828D01*
X8385Y27765D01*
X8448Y27717D01*
X8521Y27687D01*
X8600Y27676D01*
X8679Y27687D01*
X8752Y27717D01*
X8815Y27765D01*
X8863Y27828D01*
X8892Y27898D01*
X9090D01*
X9121Y27904D01*
X9148Y27922D01*
X9405Y28179D01*
X9451Y28154D01*
X9445Y28123D01*
Y27890D01*
X8227Y26672D01*
X8205Y26638D01*
X8197Y26599D01*
Y26576D01*
X8147Y26566D01*
X8118Y26635D01*
X8060Y26711D01*
X7983Y26770D01*
X7894Y26807D01*
X7798Y26819D01*
X7602D01*
X7506Y26807D01*
X7417Y26770D01*
X7340Y26711D01*
X7282Y26635D01*
X7245Y26546D01*
X7232Y26450D01*
X7245Y26354D01*
X7282Y26265D01*
X7340Y26189D01*
X7417Y26130D01*
X7506Y26093D01*
X7602Y26081D01*
X7798D01*
X7894Y26093D01*
X7983Y26130D01*
X8060Y26189D01*
X8118Y26265D01*
X8147Y26334D01*
X8197Y26324D01*
Y25576D01*
X8147Y25566D01*
X8118Y25635D01*
X8060Y25711D01*
X7983Y25770D01*
X7894Y25807D01*
X7798Y25819D01*
X7602D01*
X7506Y25807D01*
X7417Y25770D01*
X7340Y25711D01*
X7282Y25635D01*
X7245Y25546D01*
X7232Y25450D01*
X7245Y25354D01*
X7282Y25265D01*
X7340Y25189D01*
X7417Y25130D01*
X7506Y25093D01*
X7602Y25081D01*
X7798D01*
X7894Y25093D01*
X7983Y25130D01*
X8060Y25189D01*
X8118Y25265D01*
X8147Y25334D01*
X8197Y25324D01*
Y24576D01*
X8147Y24566D01*
X8118Y24635D01*
X8060Y24711D01*
X7983Y24770D01*
X7894Y24807D01*
X7798Y24819D01*
X7602D01*
X7506Y24807D01*
X7417Y24770D01*
X7340Y24711D01*
X7282Y24635D01*
X7245Y24546D01*
X7232Y24450D01*
X7245Y24354D01*
X7282Y24265D01*
X7340Y24189D01*
X7417Y24130D01*
X7506Y24093D01*
X7602Y24081D01*
X7798D01*
X7894Y24093D01*
X7983Y24130D01*
X8060Y24189D01*
X8118Y24265D01*
X8147Y24334D01*
X8197Y24324D01*
Y23576D01*
X8147Y23566D01*
X8118Y23635D01*
X8060Y23711D01*
X7983Y23770D01*
X7894Y23807D01*
X7798Y23819D01*
X7602D01*
X7506Y23807D01*
X7417Y23770D01*
X7340Y23711D01*
X7282Y23635D01*
X7245Y23546D01*
X7232Y23450D01*
X7245Y23354D01*
X7282Y23265D01*
X7340Y23189D01*
X7417Y23130D01*
X7506Y23093D01*
X7602Y23081D01*
X7798D01*
X7894Y23093D01*
X7983Y23130D01*
X8060Y23189D01*
X8118Y23265D01*
X8147Y23334D01*
X8197Y23324D01*
Y22576D01*
X8147Y22566D01*
X8118Y22635D01*
X8060Y22711D01*
X7983Y22770D01*
X7894Y22807D01*
X7798Y22819D01*
X7602D01*
X7506Y22807D01*
X7417Y22770D01*
X7340Y22711D01*
X7282Y22635D01*
X7245Y22546D01*
X7232Y22450D01*
X7245Y22354D01*
X7282Y22265D01*
X7340Y22189D01*
X7417Y22130D01*
X7506Y22093D01*
X7602Y22081D01*
X7798D01*
X7894Y22093D01*
X7983Y22130D01*
X8060Y22189D01*
X8118Y22265D01*
X8147Y22334D01*
X8197Y22324D01*
Y21576D01*
X8147Y21566D01*
X8118Y21635D01*
X8060Y21711D01*
X7983Y21770D01*
X7894Y21807D01*
X7798Y21819D01*
X7602D01*
X7506Y21807D01*
X7417Y21770D01*
X7340Y21711D01*
X7282Y21635D01*
X7245Y21546D01*
X7232Y21450D01*
X7245Y21354D01*
X7282Y21265D01*
X7340Y21189D01*
X7417Y21130D01*
X7506Y21093D01*
X7602Y21081D01*
X7798D01*
X7894Y21093D01*
X7983Y21130D01*
X8060Y21189D01*
X8118Y21265D01*
X8147Y21334D01*
X8197Y21324D01*
Y21093D01*
X7906Y20802D01*
X7894Y20807D01*
X7798Y20819D01*
X7602D01*
X7506Y20807D01*
X7417Y20770D01*
X7340Y20711D01*
X7282Y20635D01*
X7245Y20546D01*
X7232Y20450D01*
X7245Y20354D01*
X7282Y20265D01*
X7340Y20189D01*
X7417Y20130D01*
X7506Y20093D01*
X7602Y20081D01*
X7798D01*
X7894Y20093D01*
X7983Y20130D01*
X8060Y20189D01*
X8118Y20265D01*
X8155Y20354D01*
X8168Y20450D01*
X8155Y20546D01*
X8118Y20635D01*
X8080Y20684D01*
X8373Y20977D01*
X8395Y21011D01*
X8403Y21050D01*
Y22342D01*
X8453Y22363D01*
X8547Y22269D01*
Y21508D01*
X8514Y21486D01*
X8472Y21424D01*
X8457Y21350D01*
X8472Y21276D01*
X8514Y21214D01*
X8576Y21172D01*
X8650Y21157D01*
X8724Y21172D01*
X8786Y21214D01*
X8828Y21276D01*
X8843Y21350D01*
X8828Y21424D01*
X8786Y21486D01*
X8753Y21508D01*
Y22312D01*
X8745Y22352D01*
X8723Y22385D01*
X8603Y22505D01*
Y23227D01*
X8653Y23232D01*
X8654Y23226D01*
X8672Y23200D01*
X9214Y22658D01*
X9187Y22622D01*
X9157Y22549D01*
X9146Y22470D01*
X9157Y22391D01*
X9187Y22318D01*
X9235Y22255D01*
X9298Y22207D01*
X9371Y22177D01*
X9450Y22166D01*
X9529Y22177D01*
X9602Y22207D01*
X9665Y22255D01*
X9713Y22318D01*
X9726Y22349D01*
X11978D01*
X12010Y22355D01*
X12037Y22373D01*
X12686Y23023D01*
X12704Y23049D01*
X12710Y23081D01*
Y23891D01*
X12780Y23920D01*
X12843Y23968D01*
X12891Y24031D01*
X12921Y24104D01*
X12932Y24183D01*
X12921Y24262D01*
X12891Y24335D01*
X12843Y24398D01*
X12780Y24446D01*
X12707Y24476D01*
X12628Y24487D01*
X12582Y24481D01*
X12558Y24528D01*
X12929Y24899D01*
X12954Y24936D01*
X12962Y24979D01*
Y28750D01*
X12954Y28793D01*
X12929Y28829D01*
X12893Y28854D01*
X12850Y28862D01*
X12729D01*
X12720Y28875D01*
X12745Y28925D01*
X12878D01*
X12936Y28937D01*
X12985Y28970D01*
X13245Y29229D01*
X13246Y29230D01*
X13307Y29232D01*
X13340Y29189D01*
X13417Y29130D01*
X13506Y29093D01*
X13602Y29081D01*
X13798D01*
X13806Y29082D01*
X13828Y29037D01*
X13760Y28969D01*
X13429D01*
X13390Y28961D01*
X13356Y28939D01*
X13112Y28695D01*
X13090Y28662D01*
X13082Y28622D01*
Y27622D01*
X13082Y27622D01*
Y27278D01*
X13090Y27238D01*
X13112Y27205D01*
X13356Y26961D01*
X13390Y26939D01*
X13429Y26931D01*
X13760D01*
X13828Y26863D01*
X13806Y26818D01*
X13798Y26819D01*
X13602D01*
X13506Y26807D01*
X13417Y26770D01*
X13340Y26711D01*
X13282Y26635D01*
X13245Y26546D01*
X13232Y26450D01*
X13245Y26354D01*
X13282Y26265D01*
X13340Y26189D01*
X13417Y26130D01*
X13506Y26093D01*
X13602Y26081D01*
X13798D01*
X13894Y26093D01*
X13983Y26130D01*
X14060Y26189D01*
X14097Y26237D01*
X14147Y26220D01*
Y25680D01*
X14121Y25665D01*
X14098Y25661D01*
X14060Y25711D01*
X13983Y25770D01*
X13894Y25807D01*
X13798Y25819D01*
X13602D01*
X13506Y25807D01*
X13417Y25770D01*
X13340Y25711D01*
X13282Y25635D01*
X13245Y25546D01*
X13232Y25450D01*
X13245Y25354D01*
X13282Y25265D01*
X13340Y25189D01*
X13417Y25130D01*
X13506Y25093D01*
X13602Y25081D01*
X13798D01*
X13894Y25093D01*
X13983Y25130D01*
X14060Y25189D01*
X14118Y25265D01*
X14155Y25354D01*
X14168Y25450D01*
X14155Y25546D01*
X14154Y25549D01*
X14196Y25577D01*
X14371Y25402D01*
X14405Y25380D01*
X14444Y25372D01*
X14808D01*
X14832Y25315D01*
X14890Y25239D01*
X14967Y25180D01*
X15056Y25143D01*
X15152Y25131D01*
X15348D01*
X15444Y25143D01*
X15533Y25180D01*
X15610Y25239D01*
X15668Y25315D01*
X15705Y25404D01*
X15718Y25500D01*
X15705Y25596D01*
X15668Y25685D01*
X15610Y25761D01*
X15533Y25820D01*
X15444Y25857D01*
X15348Y25869D01*
X15152D01*
X15056Y25857D01*
X14967Y25820D01*
X14890Y25761D01*
X14832Y25685D01*
X14795Y25596D01*
X14793Y25578D01*
X14487D01*
X14353Y25712D01*
Y26486D01*
X14399Y26505D01*
X14679Y26226D01*
X14712Y26204D01*
X14752Y26196D01*
X14947D01*
X14967Y26180D01*
X15056Y26143D01*
X15152Y26131D01*
X15348D01*
X15444Y26143D01*
X15533Y26180D01*
X15610Y26239D01*
X15668Y26315D01*
X15705Y26404D01*
X15718Y26500D01*
X15705Y26596D01*
X15668Y26685D01*
X15610Y26761D01*
X15533Y26820D01*
X15444Y26857D01*
X15348Y26869D01*
X15152D01*
X15056Y26857D01*
X14967Y26820D01*
X14890Y26761D01*
X14832Y26685D01*
X14795Y26596D01*
X14782Y26500D01*
X14785Y26483D01*
X14737Y26459D01*
X14318Y26879D01*
Y27146D01*
Y27255D01*
X14368Y27276D01*
X14602Y27042D01*
X14629Y27024D01*
X14660Y27018D01*
X15530D01*
X15561Y27024D01*
X15588Y27042D01*
X16474Y27928D01*
X16616D01*
X16636Y27882D01*
X15827Y27073D01*
X15805Y27039D01*
X15797Y27000D01*
Y21193D01*
X15456Y20852D01*
X15444Y20857D01*
X15348Y20869D01*
X15152D01*
X15056Y20857D01*
X14967Y20820D01*
X14890Y20761D01*
X14832Y20685D01*
X14795Y20596D01*
X14782Y20500D01*
X14795Y20404D01*
X14832Y20315D01*
X14890Y20239D01*
X14967Y20180D01*
X15056Y20143D01*
X15147Y20131D01*
Y19600D01*
X15155Y19561D01*
X15177Y19527D01*
X15996Y18708D01*
Y18101D01*
X16004Y18062D01*
X16026Y18028D01*
X16063Y17991D01*
X16040Y17943D01*
X16000Y17949D01*
X15884Y17933D01*
X15776Y17889D01*
X15683Y17817D01*
X15611Y17724D01*
X15567Y17616D01*
X15564Y17595D01*
X15517Y17579D01*
X14686Y18410D01*
X14653Y18432D01*
X14618Y18439D01*
X14586Y18486D01*
X14524Y18528D01*
X14450Y18543D01*
X14376Y18528D01*
X14314Y18486D01*
X14272Y18424D01*
X14257Y18350D01*
X14272Y18276D01*
X14314Y18214D01*
X14376Y18172D01*
X14450Y18157D01*
X14524Y18172D01*
X14586Y18214D01*
X14590Y18214D01*
X15402Y17402D01*
Y15478D01*
X15410Y15439D01*
X15432Y15406D01*
X15621Y15217D01*
X15588Y15179D01*
X15555Y15204D01*
X15482Y15234D01*
X15404Y15245D01*
X15325Y15234D01*
X15252Y15204D01*
X15189Y15156D01*
X15140Y15093D01*
X15112Y15023D01*
X12461D01*
X12441Y15036D01*
X12410Y15042D01*
X12379Y15036D01*
X12352Y15018D01*
X10416Y13082D01*
X9250D01*
X9219Y13076D01*
X9192Y13058D01*
X8935Y12801D01*
X8927Y12807D01*
X8842Y12842D01*
X8750Y12854D01*
X8658Y12842D01*
X8573Y12807D01*
X8500Y12750D01*
X8443Y12677D01*
X8408Y12592D01*
X8396Y12500D01*
X8408Y12408D01*
X8443Y12323D01*
X8497Y12253D01*
X8493Y12230D01*
X8484Y12203D01*
X7958D01*
Y12523D01*
X7541D01*
Y12084D01*
X7516Y12047D01*
X7497Y11950D01*
X7516Y11853D01*
X7541Y11816D01*
Y11377D01*
X7958D01*
Y11697D01*
X10250D01*
X10347Y11716D01*
X10429Y11771D01*
X11993Y13335D01*
X12043Y13314D01*
Y12388D01*
X12049Y12356D01*
X12067Y12329D01*
X13465Y10931D01*
X13460Y10925D01*
X13425Y10840D01*
X13413Y10750D01*
X13425Y10660D01*
X13460Y10575D01*
X13515Y10503D01*
X13588Y10447D01*
X13672Y10412D01*
X13763Y10401D01*
X13853Y10412D01*
X13937Y10447D01*
X14010Y10503D01*
X14065Y10575D01*
X14100Y10660D01*
X14112Y10750D01*
X14100Y10840D01*
X14065Y10925D01*
X14010Y10997D01*
X13937Y11053D01*
X13853Y11088D01*
X13763Y11099D01*
X13672Y11088D01*
X13588Y11053D01*
X13581Y11048D01*
X12207Y12422D01*
Y13329D01*
X12401Y13523D01*
X12432Y13508D01*
X12446Y13497D01*
X12458Y13408D01*
X12493Y13323D01*
X12550Y13250D01*
X12623Y13193D01*
X12708Y13158D01*
X12796Y13146D01*
X14271Y11671D01*
X14353Y11616D01*
X14450Y11597D01*
X23800D01*
X23897Y11616D01*
X23936Y11643D01*
X23974Y11608D01*
X23919Y11505D01*
X23877Y11366D01*
X23863Y11220D01*
X23877Y11075D01*
X23919Y10936D01*
X23988Y10807D01*
X24080Y10695D01*
X24193Y10602D01*
X24322Y10533D01*
X24461Y10491D01*
X24606Y10477D01*
X24751Y10491D01*
X24891Y10533D01*
X25020Y10602D01*
X25132Y10695D01*
X25225Y10807D01*
X25293Y10936D01*
X25336Y11075D01*
X25350Y11220D01*
X25336Y11366D01*
X25293Y11505D01*
X25225Y11634D01*
X25132Y11746D01*
X25020Y11839D01*
X24891Y11908D01*
X24751Y11950D01*
X24606Y11964D01*
X24461Y11950D01*
X24322Y11908D01*
X24245Y11867D01*
X24215Y11907D01*
X25404Y13096D01*
X25492Y13108D01*
X25577Y13143D01*
X25650Y13200D01*
X25707Y13273D01*
X25742Y13358D01*
X25754Y13450D01*
X25742Y13542D01*
X25707Y13627D01*
X25650Y13700D01*
X25577Y13757D01*
X25492Y13792D01*
X25400Y13804D01*
X25308Y13792D01*
X25223Y13757D01*
X25150Y13700D01*
X25093Y13627D01*
X25058Y13542D01*
X25046Y13454D01*
X23695Y12103D01*
X17555D01*
X17540Y12153D01*
X17600Y12200D01*
X17657Y12273D01*
X17692Y12358D01*
X17704Y12450D01*
X17692Y12542D01*
X17657Y12627D01*
X17600Y12700D01*
X17527Y12757D01*
X17442Y12792D01*
X17350Y12804D01*
X17258Y12792D01*
X17173Y12757D01*
X17100Y12700D01*
X17043Y12627D01*
X17008Y12542D01*
X16996Y12450D01*
X16980Y12432D01*
X15302D01*
X15273Y12502D01*
X15225Y12565D01*
X15162Y12613D01*
X15089Y12643D01*
X15010Y12654D01*
X14931Y12643D01*
X14858Y12613D01*
X14795Y12565D01*
X14747Y12502D01*
X14717Y12429D01*
X14706Y12350D01*
X14717Y12271D01*
X14747Y12198D01*
X14782Y12153D01*
X14759Y12103D01*
X14555D01*
X13154Y13504D01*
X13142Y13592D01*
X13107Y13677D01*
X13050Y13750D01*
X12977Y13807D01*
X12892Y13842D01*
X12838Y13849D01*
X12814Y13903D01*
X12823Y13918D01*
X15108D01*
X15137Y13848D01*
X15185Y13785D01*
X15248Y13737D01*
X15321Y13707D01*
X15400Y13696D01*
X15479Y13707D01*
X15552Y13737D01*
X15615Y13785D01*
X15663Y13848D01*
X15693Y13921D01*
X15704Y14000D01*
X15693Y14079D01*
X15663Y14152D01*
X15615Y14215D01*
X15552Y14263D01*
X15479Y14293D01*
X15400Y14304D01*
X15321Y14293D01*
X15248Y14263D01*
X15185Y14215D01*
X15137Y14152D01*
X15108Y14082D01*
X12853D01*
X12825Y14132D01*
X12836Y14151D01*
X12892Y14158D01*
X12977Y14193D01*
X13050Y14250D01*
X13107Y14323D01*
X13142Y14408D01*
X13154Y14500D01*
X13142Y14592D01*
X13107Y14677D01*
X13050Y14750D01*
X12977Y14807D01*
X12973Y14809D01*
X12982Y14859D01*
X14618D01*
X14627Y14809D01*
X14623Y14807D01*
X14550Y14750D01*
X14493Y14677D01*
X14458Y14592D01*
X14446Y14500D01*
X14458Y14408D01*
X14493Y14323D01*
X14550Y14250D01*
X14623Y14193D01*
X14708Y14158D01*
X14800Y14146D01*
X14892Y14158D01*
X14977Y14193D01*
X15050Y14250D01*
X15107Y14323D01*
X15142Y14408D01*
X15154Y14500D01*
X15142Y14592D01*
X15107Y14677D01*
X15050Y14750D01*
X14977Y14807D01*
X14973Y14809D01*
X14982Y14859D01*
X15112D01*
X15140Y14789D01*
X15189Y14726D01*
X15252Y14678D01*
X15325Y14648D01*
X15404Y14637D01*
X15482Y14648D01*
X15555Y14678D01*
X15618Y14726D01*
X15667Y14789D01*
X15697Y14862D01*
X15700Y14884D01*
X15753Y14902D01*
X17038Y13616D01*
X17008Y13542D01*
X16996Y13450D01*
X17008Y13358D01*
X17043Y13273D01*
X17100Y13200D01*
X17173Y13143D01*
X17258Y13108D01*
X17350Y13096D01*
X17442Y13108D01*
X17527Y13143D01*
X17600Y13200D01*
X17657Y13273D01*
X17692Y13358D01*
X17704Y13450D01*
X17692Y13542D01*
X17657Y13627D01*
X17600Y13700D01*
X17527Y13757D01*
X17442Y13792D01*
X17350Y13804D01*
X17258Y13792D01*
X17184Y13762D01*
X15858Y15088D01*
Y15229D01*
X15850Y15268D01*
X15828Y15302D01*
X15608Y15521D01*
Y17198D01*
X15658Y17215D01*
X15683Y17183D01*
X15776Y17111D01*
X15884Y17067D01*
X16000Y17051D01*
X16116Y17067D01*
X16224Y17111D01*
X16317Y17183D01*
X16342Y17215D01*
X16392Y17198D01*
Y15659D01*
X16400Y15619D01*
X16422Y15586D01*
X17196Y14811D01*
X17186Y14762D01*
X17173Y14757D01*
X17100Y14700D01*
X17043Y14627D01*
X17008Y14542D01*
X16996Y14450D01*
X17008Y14358D01*
X17043Y14273D01*
X17100Y14200D01*
X17173Y14143D01*
X17258Y14108D01*
X17350Y14096D01*
X17442Y14108D01*
X17527Y14143D01*
X17598Y14198D01*
X17615Y14195D01*
X17648Y14184D01*
Y14049D01*
X17656Y14009D01*
X17678Y13976D01*
X18038Y13616D01*
X18008Y13542D01*
X17996Y13450D01*
X18008Y13358D01*
X18043Y13273D01*
X18100Y13200D01*
X18173Y13143D01*
X18258Y13108D01*
X18350Y13096D01*
X18442Y13108D01*
X18527Y13143D01*
X18600Y13200D01*
X18657Y13273D01*
X18692Y13358D01*
X18704Y13450D01*
X18692Y13542D01*
X18657Y13627D01*
X18600Y13700D01*
X18527Y13757D01*
X18442Y13792D01*
X18350Y13804D01*
X18258Y13792D01*
X18184Y13762D01*
X17854Y14092D01*
Y14616D01*
X17846Y14656D01*
X17824Y14689D01*
X16749Y15764D01*
Y17768D01*
X16747Y17779D01*
X16741Y17807D01*
X16741Y17807D01*
X16741Y17807D01*
X16719Y17841D01*
X16560Y18000D01*
X16588Y18042D01*
X16601Y18037D01*
X16680Y18026D01*
X16759Y18037D01*
X16832Y18067D01*
X16895Y18115D01*
X16943Y18178D01*
X16972Y18248D01*
X17695D01*
X18191Y17751D01*
X18170Y17724D01*
X18126Y17616D01*
X18110Y17500D01*
X18126Y17384D01*
X18170Y17276D01*
X18242Y17183D01*
X18335Y17111D01*
X18443Y17067D01*
X18559Y17051D01*
X18675Y17067D01*
X18783Y17111D01*
X18876Y17183D01*
X18948Y17276D01*
X18992Y17384D01*
X19008Y17500D01*
X18992Y17616D01*
X18948Y17724D01*
X18876Y17817D01*
X18783Y17889D01*
X18675Y17933D01*
X18559Y17949D01*
X18443Y17933D01*
X18335Y17889D01*
X18308Y17868D01*
X17787Y18388D01*
X17761Y18406D01*
X17729Y18412D01*
X16972D01*
X16943Y18482D01*
X16895Y18545D01*
X16832Y18593D01*
X16759Y18623D01*
X16680Y18634D01*
X16601Y18623D01*
X16528Y18593D01*
X16465Y18545D01*
X16417Y18482D01*
X16403Y18449D01*
X16353Y18459D01*
Y21242D01*
X16386Y21264D01*
X16428Y21326D01*
X16443Y21400D01*
X16428Y21474D01*
X16386Y21536D01*
X16353Y21558D01*
Y22329D01*
X16356Y22335D01*
X16366Y22345D01*
X16398Y22368D01*
X16450Y22357D01*
X16524Y22372D01*
X16586Y22414D01*
X16628Y22476D01*
X16643Y22550D01*
X16628Y22624D01*
X16586Y22686D01*
X16524Y22728D01*
X16455Y22742D01*
X16382Y22814D01*
Y23246D01*
X16432Y23261D01*
X16464Y23214D01*
X16526Y23172D01*
X16600Y23157D01*
X16674Y23172D01*
X16736Y23214D01*
X16778Y23276D01*
X16793Y23350D01*
X16778Y23424D01*
X16736Y23486D01*
X16703Y23508D01*
Y24355D01*
X16709Y24363D01*
X16762Y24366D01*
X16764Y24364D01*
X16826Y24322D01*
X16900Y24307D01*
X16974Y24322D01*
X17036Y24364D01*
X17078Y24426D01*
X17093Y24500D01*
X17078Y24574D01*
X17036Y24636D01*
X16974Y24678D01*
X16900Y24693D01*
X16826Y24678D01*
X16804Y24663D01*
X16754Y24690D01*
Y25310D01*
X16804Y25337D01*
X16826Y25322D01*
X16900Y25307D01*
X16974Y25322D01*
X17036Y25364D01*
X17078Y25426D01*
X17093Y25500D01*
X17078Y25574D01*
X17036Y25636D01*
X16974Y25678D01*
X16958Y25681D01*
Y26257D01*
X17008Y26273D01*
X17014Y26264D01*
X17076Y26222D01*
X17150Y26207D01*
X17224Y26222D01*
X17286Y26264D01*
X17328Y26326D01*
X17343Y26400D01*
X17328Y26474D01*
X17313Y26496D01*
X17340Y26546D01*
X17840D01*
X17880Y26554D01*
X17913Y26576D01*
X18283Y26946D01*
X18613D01*
X18652Y26954D01*
X18669Y26965D01*
X18693D01*
X18732Y26973D01*
X18766Y26995D01*
X19160Y27390D01*
X19183Y27423D01*
X19191Y27463D01*
Y27537D01*
X19195Y27540D01*
X19217Y27572D01*
X19219Y27573D01*
X19271D01*
X19273Y27572D01*
X19295Y27540D01*
X19320Y27523D01*
Y27424D01*
X19264Y27386D01*
X19222Y27324D01*
X19207Y27250D01*
X19222Y27176D01*
X19226Y27170D01*
X19220Y27153D01*
X19196Y27125D01*
X19130Y27134D01*
X19051Y27123D01*
X18978Y27093D01*
X18915Y27045D01*
X18867Y26982D01*
X18837Y26909D01*
X18826Y26830D01*
X18837Y26751D01*
X18867Y26678D01*
X18879Y26662D01*
X18854Y26612D01*
X18350D01*
X18307Y26604D01*
X18271Y26579D01*
X18117Y26426D01*
X17839D01*
Y25974D01*
X18261D01*
Y26252D01*
X18397Y26388D01*
X18853D01*
X19085Y26156D01*
X19058Y26092D01*
X19046Y26000D01*
X19058Y25908D01*
X19093Y25823D01*
X19150Y25750D01*
X19223Y25693D01*
X19308Y25658D01*
X19400Y25646D01*
X19492Y25658D01*
X19577Y25693D01*
X19650Y25750D01*
X19707Y25823D01*
X19742Y25908D01*
X19754Y26000D01*
X19742Y26092D01*
X19715Y26156D01*
X20033Y26474D01*
X20057Y26511D01*
X20066Y26554D01*
Y28273D01*
X20180D01*
X20238Y28284D01*
X20288Y28317D01*
X20321Y28367D01*
X20332Y28425D01*
X20321Y28484D01*
X20288Y28533D01*
X20255Y28555D01*
X20254Y28557D01*
Y28606D01*
X20279Y28627D01*
X20288Y28632D01*
X20290Y28635D01*
X20292Y28638D01*
X20438D01*
Y25275D01*
X19556Y24394D01*
X19492Y24421D01*
X19400Y24433D01*
X19308Y24421D01*
X19223Y24385D01*
X19150Y24329D01*
X19093Y24256D01*
X19058Y24170D01*
X19050Y24112D01*
X18061D01*
Y24226D01*
X17639D01*
Y23774D01*
X18061D01*
Y23888D01*
X19104D01*
X19150Y23828D01*
X19223Y23772D01*
X19308Y23737D01*
X19400Y23725D01*
X19492Y23737D01*
X19577Y23772D01*
X19650Y23828D01*
X19707Y23902D01*
X19742Y23987D01*
X19754Y24079D01*
X19742Y24170D01*
X19715Y24235D01*
X20629Y25149D01*
X20654Y25186D01*
X20662Y25229D01*
Y28750D01*
X20654Y28793D01*
X20629Y28829D01*
X20593Y28854D01*
X20550Y28862D01*
X20297D01*
X20290Y28873D01*
X20316Y28923D01*
X20405D01*
X20405Y28923D01*
X20447Y28931D01*
X20456Y28933D01*
X20499Y28961D01*
X20794Y29256D01*
X20794Y29256D01*
X20803Y29271D01*
X20864Y29273D01*
X20890Y29239D01*
X20967Y29180D01*
X21056Y29143D01*
X21152Y29131D01*
X21348D01*
X21444Y29143D01*
X21533Y29180D01*
X21610Y29239D01*
X21668Y29315D01*
X21705Y29404D01*
X21718Y29500D01*
X21705Y29596D01*
X21668Y29685D01*
X21610Y29761D01*
X21533Y29820D01*
X21444Y29857D01*
X21348Y29869D01*
X21152D01*
X21056Y29857D01*
X20967Y29820D01*
X20890Y29761D01*
X20882Y29751D01*
X20832Y29768D01*
Y30237D01*
X20880Y30253D01*
X20890Y30239D01*
X20967Y30180D01*
X21056Y30143D01*
X21152Y30131D01*
X21348D01*
X21444Y30143D01*
X21533Y30180D01*
X21610Y30239D01*
X21668Y30315D01*
X21705Y30404D01*
X21718Y30500D01*
X21705Y30596D01*
X21668Y30685D01*
X21610Y30761D01*
X21533Y30820D01*
X21444Y30857D01*
X21348Y30869D01*
X21152D01*
X21056Y30857D01*
X20967Y30820D01*
X20890Y30761D01*
X20880Y30747D01*
X20832Y30763D01*
Y31237D01*
X20880Y31253D01*
X20890Y31239D01*
X20967Y31180D01*
X21056Y31143D01*
X21152Y31131D01*
X21348D01*
X21444Y31143D01*
X21533Y31180D01*
X21610Y31239D01*
X21668Y31315D01*
X21705Y31404D01*
X21718Y31500D01*
X21705Y31596D01*
X21668Y31685D01*
X21610Y31761D01*
X21533Y31820D01*
X21444Y31857D01*
X21348Y31869D01*
X21152D01*
X21056Y31857D01*
X20967Y31820D01*
X20890Y31761D01*
X20880Y31747D01*
X20832Y31763D01*
Y32237D01*
X20880Y32253D01*
X20890Y32239D01*
X20967Y32180D01*
X21056Y32143D01*
X21152Y32131D01*
X21348D01*
X21444Y32143D01*
X21533Y32180D01*
X21610Y32239D01*
X21668Y32315D01*
X21705Y32404D01*
X21718Y32500D01*
X21705Y32596D01*
X21668Y32685D01*
X21610Y32761D01*
X21533Y32820D01*
X21444Y32857D01*
X21348Y32869D01*
X21152D01*
X21056Y32857D01*
X20967Y32820D01*
X20890Y32761D01*
X20880Y32747D01*
X20832Y32763D01*
Y33895D01*
X21078Y34140D01*
X21152Y34131D01*
X21348D01*
X21444Y34143D01*
X21533Y34180D01*
X21610Y34239D01*
X21668Y34315D01*
X21692Y34374D01*
X21713Y34380D01*
X21744Y34374D01*
X21972D01*
Y34237D01*
X22428D01*
Y34674D01*
X21972D01*
Y34538D01*
X21778D01*
X21758Y34558D01*
X21731Y34576D01*
X21707Y34581D01*
X21705Y34596D01*
X21668Y34685D01*
X21610Y34761D01*
X21604Y34766D01*
X21620Y34813D01*
X22527D01*
X22797Y34543D01*
Y34199D01*
X22227Y33629D01*
X22205Y33596D01*
X22197Y33557D01*
Y21258D01*
X22164Y21236D01*
X22122Y21174D01*
X22107Y21100D01*
X22122Y21026D01*
X22124Y21023D01*
X22086Y20991D01*
X21962Y21114D01*
Y24370D01*
X21956Y24401D01*
X21938Y24428D01*
X21808Y24558D01*
X21781Y24576D01*
X21750Y24582D01*
X21707D01*
X21705Y24596D01*
X21668Y24685D01*
X21610Y24761D01*
X21533Y24820D01*
X21444Y24857D01*
X21348Y24869D01*
X21152D01*
X21056Y24857D01*
X20967Y24820D01*
X20890Y24761D01*
X20832Y24685D01*
X20795Y24596D01*
X20782Y24500D01*
X20795Y24404D01*
X20832Y24315D01*
X20890Y24239D01*
X20967Y24180D01*
X21056Y24143D01*
X21152Y24131D01*
X21348D01*
X21444Y24143D01*
X21533Y24180D01*
X21610Y24239D01*
X21668Y24315D01*
X21691Y24371D01*
X21750Y24383D01*
X21798Y24336D01*
Y21080D01*
X21804Y21049D01*
X21822Y21022D01*
X23885Y18958D01*
X23857Y18889D01*
X23846Y18810D01*
X23857Y18731D01*
X23887Y18658D01*
X23935Y18595D01*
X23998Y18547D01*
X24071Y18517D01*
X24150Y18506D01*
X24229Y18517D01*
X24302Y18547D01*
X24365Y18595D01*
X24413Y18658D01*
X24443Y18731D01*
X24454Y18810D01*
X24443Y18889D01*
X24413Y18962D01*
X24365Y19025D01*
X24302Y19073D01*
X24229Y19103D01*
X24150Y19114D01*
X24071Y19103D01*
X24002Y19075D01*
X22191Y20886D01*
X22223Y20924D01*
X22226Y20922D01*
X22300Y20907D01*
X22374Y20922D01*
X22436Y20964D01*
X22478Y21026D01*
X22493Y21100D01*
X22478Y21174D01*
X22436Y21236D01*
X22403Y21258D01*
Y26856D01*
X22453Y26865D01*
X22477Y26808D01*
X22525Y26745D01*
X22588Y26697D01*
X22661Y26667D01*
X22740Y26656D01*
X22819Y26667D01*
X22892Y26697D01*
X22955Y26745D01*
X23003Y26808D01*
X23033Y26881D01*
X23044Y26960D01*
X23033Y27039D01*
X23003Y27112D01*
X22955Y27175D01*
X22892Y27223D01*
X22822Y27252D01*
Y32968D01*
X22892Y32997D01*
X22955Y33045D01*
X23003Y33108D01*
X23033Y33181D01*
X23044Y33260D01*
X23033Y33339D01*
X23003Y33412D01*
X22955Y33475D01*
X22892Y33523D01*
X22819Y33553D01*
X22740Y33564D01*
X22661Y33553D01*
X22588Y33523D01*
X22525Y33475D01*
X22477Y33412D01*
X22453Y33355D01*
X22403Y33364D01*
Y33514D01*
X22973Y34084D01*
X22995Y34117D01*
X23003Y34157D01*
Y34486D01*
X23049Y34505D01*
X23247Y34307D01*
Y23200D01*
X23255Y23161D01*
X23277Y23127D01*
X24164Y22240D01*
X24164Y22236D01*
X24122Y22174D01*
X24107Y22100D01*
X24122Y22026D01*
X24164Y21964D01*
X24226Y21922D01*
X24300Y21907D01*
X24374Y21922D01*
X24436Y21964D01*
X24478Y22026D01*
X24493Y22100D01*
X24478Y22174D01*
X24436Y22236D01*
X24401Y22260D01*
X24395Y22289D01*
X24373Y22323D01*
X23453Y23243D01*
Y34350D01*
X23445Y34389D01*
X23423Y34423D01*
X22706Y35140D01*
X22672Y35163D01*
X22647Y35168D01*
X22641Y35175D01*
X22629Y35202D01*
X22627Y35220D01*
X22663Y35268D01*
X22692Y35338D01*
X22806D01*
X23638Y34506D01*
Y26260D01*
X23644Y26228D01*
X23662Y26202D01*
X23795Y26068D01*
X23767Y25998D01*
X23756Y25920D01*
X23767Y25841D01*
X23797Y25768D01*
X23845Y25705D01*
X23908Y25657D01*
X23981Y25626D01*
X24060Y25616D01*
X24139Y25626D01*
X24212Y25657D01*
X24275Y25705D01*
X24323Y25768D01*
X24353Y25841D01*
X24364Y25920D01*
X24353Y25998D01*
X24323Y26072D01*
X24275Y26135D01*
X24212Y26183D01*
X24139Y26213D01*
X24060Y26224D01*
X23981Y26213D01*
X23912Y26184D01*
X23802Y26294D01*
Y34540D01*
X23796Y34571D01*
X23778Y34598D01*
X22898Y35478D01*
X22871Y35496D01*
X22840Y35502D01*
X22692D01*
X22663Y35572D01*
X22627Y35618D01*
X22649Y35668D01*
X25685D01*
X26325Y35028D01*
X26297Y34959D01*
X26286Y34880D01*
X26297Y34801D01*
X26327Y34728D01*
X26375Y34665D01*
X26438Y34617D01*
X26511Y34587D01*
X26590Y34576D01*
X26669Y34587D01*
X26742Y34617D01*
X26788Y34653D01*
X26838Y34631D01*
Y34584D01*
X26438Y34183D01*
X26432Y34174D01*
X26172D01*
Y33737D01*
X26628D01*
Y33874D01*
X27020D01*
X27051Y33880D01*
X27078Y33898D01*
X27163Y33983D01*
X27502D01*
Y33837D01*
X27998D01*
Y34293D01*
X27832D01*
Y34310D01*
X27826Y34341D01*
X27808Y34368D01*
X27798Y34378D01*
X27771Y34396D01*
X27740Y34402D01*
X27562D01*
X27533Y34472D01*
X27485Y34535D01*
X27422Y34583D01*
X27349Y34613D01*
X27270Y34624D01*
X27191Y34613D01*
X27118Y34583D01*
X27055Y34535D01*
X27049Y34527D01*
X27003Y34549D01*
X27003Y34550D01*
Y35031D01*
X26997Y35063D01*
X26979Y35089D01*
X26832Y35236D01*
Y35671D01*
X26901D01*
X26956Y35682D01*
X27002Y35713D01*
X27033Y35760D01*
X27044Y35815D01*
Y35994D01*
X27033Y36049D01*
X27002Y36095D01*
X26956Y36126D01*
X26901Y36137D01*
X26599D01*
X26544Y36126D01*
X26498Y36095D01*
X26467Y36049D01*
X26456Y35994D01*
Y35815D01*
X26467Y35760D01*
X26498Y35713D01*
X26544Y35682D01*
X26599Y35671D01*
X26668D01*
Y35224D01*
X26633Y35185D01*
X26621Y35180D01*
X26590Y35184D01*
X26511Y35173D01*
X26442Y35145D01*
X25777Y35809D01*
X25751Y35827D01*
X25719Y35833D01*
X24715D01*
X24696Y35879D01*
X24802Y35985D01*
X24871Y35957D01*
X24950Y35946D01*
X25029Y35957D01*
X25102Y35987D01*
X25165Y36035D01*
X25213Y36098D01*
X25243Y36171D01*
X25254Y36250D01*
X25243Y36329D01*
X25213Y36402D01*
X25165Y36465D01*
X25102Y36513D01*
X25029Y36543D01*
X24950Y36554D01*
X24871Y36543D01*
X24798Y36513D01*
X24735Y36465D01*
X24687Y36402D01*
X24657Y36329D01*
X24646Y36250D01*
X24657Y36171D01*
X24685Y36102D01*
X24527Y35943D01*
X21968D01*
X21937Y35937D01*
X21910Y35919D01*
X21883Y35892D01*
X20274D01*
X20264Y35942D01*
X20287Y35952D01*
X20350Y36000D01*
X20398Y36063D01*
X20427Y36133D01*
X21735D01*
X21766Y36139D01*
X21793Y36157D01*
X22750Y37113D01*
X26456D01*
Y37106D01*
X26467Y37051D01*
X26498Y37005D01*
X26544Y36974D01*
X26599Y36963D01*
X26901D01*
X26956Y36974D01*
X27002Y37005D01*
X27018Y37028D01*
X27077Y37033D01*
X27090Y37016D01*
X28901Y35205D01*
Y34145D01*
X27361Y32605D01*
X26952D01*
X26913Y32589D01*
X26901Y32561D01*
X26888Y32552D01*
X26867Y32545D01*
X26847Y32542D01*
X26816Y32563D01*
X26765Y32573D01*
X26714Y32563D01*
X26671Y32534D01*
X26643Y32491D01*
X26632Y32440D01*
Y32184D01*
X26643Y32134D01*
X26671Y32091D01*
X26714Y32062D01*
X26742Y32056D01*
X26759Y32004D01*
X26692Y31936D01*
X26300D01*
Y31094D01*
X27230D01*
Y31282D01*
X27278D01*
X27308Y31232D01*
X27302Y31200D01*
X27312Y31149D01*
X27341Y31106D01*
X27384Y31078D01*
X27434Y31068D01*
X27690D01*
X27741Y31078D01*
X27756Y31088D01*
X28254D01*
X28285Y31061D01*
Y30997D01*
X27756D01*
X27741Y31007D01*
X27690Y31018D01*
X27434D01*
X27384Y31007D01*
X27341Y30979D01*
X27312Y30936D01*
X27302Y30885D01*
X27312Y30834D01*
X27341Y30791D01*
X27384Y30763D01*
X27420Y30755D01*
X27415Y30705D01*
X27190D01*
Y30917D01*
X26261D01*
Y30689D01*
X26261Y30689D01*
X26245Y30650D01*
Y30405D01*
X26050D01*
X26011Y30389D01*
X25995Y30350D01*
Y29750D01*
X26011Y29711D01*
X26050Y29695D01*
X27261D01*
X27303Y29666D01*
X27400Y29647D01*
X28111D01*
Y28914D01*
X28125D01*
Y23707D01*
X28081Y23679D01*
X28075Y23679D01*
X28030Y23738D01*
X27967Y23787D01*
X27894Y23817D01*
X27815Y23827D01*
X27736Y23817D01*
X27663Y23787D01*
X27600Y23738D01*
X27552Y23676D01*
X27532Y23627D01*
X27110D01*
X26914Y23822D01*
Y24579D01*
X26963Y24599D01*
X27026Y24647D01*
X27074Y24710D01*
X27104Y24784D01*
X27115Y24862D01*
X27104Y24941D01*
X27074Y25014D01*
X27026Y25077D01*
X26963Y25125D01*
X26890Y25156D01*
X26811Y25166D01*
X26732Y25156D01*
X26659Y25125D01*
X26596Y25077D01*
X26548Y25014D01*
X26518Y24941D01*
X26507Y24862D01*
X26518Y24784D01*
X26548Y24710D01*
X26596Y24647D01*
X26659Y24599D01*
X26708Y24579D01*
Y23780D01*
X26716Y23740D01*
X26738Y23707D01*
X26994Y23451D01*
X27027Y23428D01*
X27067Y23420D01*
X27532D01*
X27552Y23372D01*
X27600Y23309D01*
X27663Y23261D01*
X27726Y23235D01*
X27732Y23201D01*
X27728Y23181D01*
X27693Y23167D01*
X27630Y23118D01*
X27581Y23055D01*
X27551Y22982D01*
X27541Y22904D01*
X27551Y22825D01*
X27581Y22752D01*
X27630Y22689D01*
X27693Y22640D01*
X27762Y22612D01*
Y21557D01*
X27717Y21513D01*
X27700Y21486D01*
X27693Y21454D01*
X27700Y21423D01*
X27717Y21396D01*
X27764Y21350D01*
X23656Y17242D01*
X21501D01*
Y17901D01*
X21123D01*
X18168Y20856D01*
X18197Y20925D01*
X18207Y21004D01*
X18197Y21083D01*
X18167Y21156D01*
X18118Y21219D01*
X18055Y21267D01*
X17982Y21297D01*
X17904Y21308D01*
X17825Y21297D01*
X17752Y21267D01*
X17689Y21219D01*
X17640Y21156D01*
X17610Y21083D01*
X17600Y21004D01*
X17610Y20925D01*
X17640Y20852D01*
X17689Y20789D01*
X17752Y20741D01*
X17825Y20711D01*
X17904Y20700D01*
X17982Y20711D01*
X18052Y20739D01*
X20844Y17947D01*
X20825Y17901D01*
X20799D01*
Y17308D01*
X20749Y17288D01*
X17655Y20382D01*
X17683Y20451D01*
X17694Y20530D01*
X17683Y20609D01*
X17653Y20682D01*
X17605Y20745D01*
X17542Y20793D01*
X17469Y20823D01*
X17390Y20834D01*
X17311Y20823D01*
X17238Y20793D01*
X17175Y20745D01*
X17127Y20682D01*
X17097Y20609D01*
X17086Y20530D01*
X17097Y20451D01*
X17127Y20378D01*
X17175Y20315D01*
X17238Y20267D01*
X17311Y20237D01*
X17390Y20226D01*
X17469Y20237D01*
X17538Y20265D01*
X20702Y17102D01*
X20729Y17084D01*
X20760Y17078D01*
X23690D01*
X23721Y17084D01*
X23748Y17102D01*
X27938Y21292D01*
X27956Y21319D01*
X27962Y21350D01*
X27956Y21381D01*
X27938Y21408D01*
X27892Y21454D01*
X27903Y21465D01*
X27921Y21492D01*
X27927Y21523D01*
Y22612D01*
X27996Y22640D01*
X28059Y22689D01*
X28075Y22710D01*
X28125Y22693D01*
Y14453D01*
X24375D01*
X24375D01*
X24375D01*
X24317Y14441D01*
X24278Y14434D01*
X24278Y14434D01*
X24278D01*
X24196Y14379D01*
X23519Y13702D01*
X23517Y13698D01*
X23467Y13703D01*
X23457Y13727D01*
X23400Y13800D01*
X23327Y13857D01*
X23242Y13892D01*
X23150Y13904D01*
X23058Y13892D01*
X22973Y13857D01*
X22900Y13800D01*
X22843Y13727D01*
X22808Y13642D01*
X22796Y13550D01*
X22808Y13458D01*
X22843Y13373D01*
X22895Y13305D01*
X22885Y13256D01*
X22884Y13255D01*
X22803D01*
X21679Y14379D01*
X21504Y14554D01*
X21492Y14642D01*
X21457Y14727D01*
X21400Y14800D01*
X21327Y14857D01*
X21242Y14892D01*
X21150Y14904D01*
X21058Y14892D01*
X20973Y14857D01*
X20900Y14800D01*
X20892Y14791D01*
X20842Y14808D01*
Y15292D01*
X20892Y15309D01*
X20900Y15300D01*
X20973Y15243D01*
X21058Y15208D01*
X21150Y15196D01*
X21242Y15208D01*
X21327Y15243D01*
X21400Y15300D01*
X21457Y15373D01*
X21492Y15458D01*
X21504Y15550D01*
X21492Y15642D01*
X21457Y15727D01*
X21400Y15800D01*
X21391Y15808D01*
X21408Y15858D01*
X22892D01*
X22909Y15808D01*
X22900Y15800D01*
X22843Y15727D01*
X22808Y15642D01*
X22796Y15550D01*
X22808Y15458D01*
X22843Y15373D01*
X22900Y15300D01*
X22973Y15243D01*
X23058Y15208D01*
X23150Y15196D01*
X23242Y15208D01*
X23327Y15243D01*
X23400Y15300D01*
X23457Y15373D01*
X23492Y15458D01*
X23504Y15550D01*
X23492Y15642D01*
X23457Y15727D01*
X23400Y15800D01*
X23391Y15808D01*
X23408Y15858D01*
X23486D01*
X23692Y15652D01*
X23719Y15634D01*
X23750Y15628D01*
X25010D01*
X25041Y15634D01*
X25068Y15652D01*
X25215Y15799D01*
X25223Y15793D01*
X25308Y15758D01*
X25400Y15746D01*
X25492Y15758D01*
X25577Y15793D01*
X25650Y15850D01*
X25707Y15923D01*
X25742Y16008D01*
X25754Y16100D01*
X25742Y16192D01*
X25707Y16277D01*
X25650Y16350D01*
X25577Y16407D01*
X25492Y16442D01*
X25400Y16454D01*
X25308Y16442D01*
X25223Y16407D01*
X25150Y16350D01*
X25093Y16277D01*
X25058Y16192D01*
X25046Y16100D01*
X25058Y16008D01*
X25093Y15923D01*
X25099Y15915D01*
X24976Y15792D01*
X23784D01*
X23578Y15998D01*
X23551Y16016D01*
X23520Y16022D01*
X20950D01*
X20919Y16016D01*
X20892Y15998D01*
X20702Y15808D01*
X20684Y15781D01*
X20678Y15750D01*
Y13940D01*
X20684Y13909D01*
X20702Y13882D01*
X20849Y13735D01*
X20843Y13727D01*
X20808Y13642D01*
X20796Y13550D01*
X20808Y13458D01*
X20843Y13373D01*
X20900Y13300D01*
X20973Y13243D01*
X21058Y13208D01*
X21150Y13196D01*
X21242Y13208D01*
X21327Y13243D01*
X21400Y13300D01*
X21457Y13373D01*
X21492Y13458D01*
X21504Y13550D01*
X21492Y13642D01*
X21457Y13727D01*
X21400Y13800D01*
X21327Y13857D01*
X21242Y13892D01*
X21150Y13904D01*
X21058Y13892D01*
X20973Y13857D01*
X20965Y13851D01*
X20842Y13974D01*
Y14292D01*
X20892Y14309D01*
X20900Y14300D01*
X20973Y14243D01*
X21058Y14208D01*
X21146Y14196D01*
X21321Y14021D01*
X22519Y12823D01*
X22601Y12768D01*
X22698Y12749D01*
X23377D01*
X23474Y12768D01*
X23556Y12823D01*
X23877Y13144D01*
X23932Y13226D01*
X23951Y13323D01*
Y13418D01*
X24480Y13947D01*
X28125D01*
Y13822D01*
X28145Y13725D01*
X28200Y13643D01*
X28396Y13446D01*
X28408Y13358D01*
X28443Y13273D01*
X28500Y13200D01*
X28573Y13143D01*
X28658Y13108D01*
X28750Y13096D01*
X28842Y13108D01*
X28927Y13143D01*
X29000Y13200D01*
X29057Y13273D01*
X29092Y13358D01*
X29104Y13450D01*
X29092Y13542D01*
X29057Y13627D01*
X29000Y13700D01*
X28927Y13757D01*
X28842Y13792D01*
X28754Y13804D01*
X28631Y13926D01*
Y14200D01*
Y19469D01*
X28681Y19484D01*
X28691Y19469D01*
X28766Y19419D01*
X28856Y19401D01*
X28945Y19419D01*
X29020Y19469D01*
X29071Y19545D01*
X29088Y19634D01*
X29077Y19693D01*
X29123Y19714D01*
X29136Y19697D01*
X29199Y19649D01*
X29273Y19619D01*
X29351Y19608D01*
X29430Y19619D01*
X29503Y19649D01*
X29566Y19697D01*
X29614Y19760D01*
X29645Y19834D01*
X29655Y19912D01*
X29645Y19991D01*
X29624Y20040D01*
X30959Y21374D01*
X30981Y21407D01*
X30989Y21447D01*
Y22935D01*
X31038Y22955D01*
X31101Y23004D01*
X31149Y23067D01*
X31179Y23140D01*
X31190Y23219D01*
X31179Y23297D01*
X31149Y23370D01*
X31101Y23433D01*
X31038Y23482D01*
X30964Y23512D01*
X30886Y23522D01*
X30807Y23512D01*
X30734Y23482D01*
X30671Y23433D01*
X30623Y23370D01*
X30592Y23297D01*
X30582Y23219D01*
X30592Y23140D01*
X30623Y23067D01*
X30671Y23004D01*
X30734Y22955D01*
X30783Y22935D01*
Y21490D01*
X29479Y20185D01*
X29430Y20206D01*
X29351Y20216D01*
X29273Y20206D01*
X29199Y20175D01*
X29136Y20127D01*
X29088Y20064D01*
X29058Y19991D01*
X29047Y19912D01*
X29058Y19834D01*
X29021Y19801D01*
X29017Y19800D01*
X28945Y19849D01*
X28856Y19867D01*
X28766Y19849D01*
X28691Y19798D01*
X28681Y19784D01*
X28631Y19799D01*
Y21201D01*
X28681Y21216D01*
X28691Y21202D01*
X28766Y21151D01*
X28856Y21133D01*
X28945Y21151D01*
X29020Y21202D01*
X29071Y21277D01*
X29088Y21366D01*
X29071Y21455D01*
X29020Y21531D01*
X28945Y21581D01*
X28856Y21599D01*
X28766Y21581D01*
X28691Y21531D01*
X28681Y21516D01*
X28631Y21531D01*
Y23332D01*
X28681Y23349D01*
X28712Y23309D01*
X28775Y23261D01*
X28849Y23230D01*
X28927Y23220D01*
X29006Y23230D01*
X29079Y23261D01*
X29142Y23309D01*
X29190Y23372D01*
X29210Y23420D01*
X30394D01*
X30433Y23428D01*
X30467Y23451D01*
X31313Y24297D01*
X31335Y24331D01*
X31343Y24370D01*
Y35384D01*
X31335Y35424D01*
X31313Y35457D01*
X30889Y35881D01*
X30894Y35927D01*
X30894D01*
X30894Y35927D01*
Y36384D01*
X30044D01*
Y35927D01*
X30551D01*
X31137Y35342D01*
Y25717D01*
X31087Y25698D01*
X31038Y25736D01*
X30964Y25766D01*
X30953Y25767D01*
X30589Y26131D01*
X30594Y26177D01*
X30594D01*
X30594Y26177D01*
Y26634D01*
X29744D01*
Y26177D01*
X30251D01*
X30684Y25745D01*
X30681Y25695D01*
X30671Y25687D01*
X30623Y25624D01*
X30592Y25551D01*
X30582Y25472D01*
X30592Y25394D01*
X30623Y25321D01*
X30671Y25258D01*
X30734Y25209D01*
X30807Y25179D01*
X30886Y25169D01*
X30964Y25179D01*
X31038Y25209D01*
X31087Y25247D01*
X31137Y25228D01*
Y24413D01*
X30351Y23627D01*
X29210D01*
X29190Y23676D01*
X29142Y23738D01*
X29079Y23787D01*
X29006Y23817D01*
X28927Y23827D01*
X28849Y23817D01*
X28775Y23787D01*
X28712Y23738D01*
X28681Y23698D01*
X28631Y23715D01*
Y24969D01*
X28681Y24984D01*
X28691Y24969D01*
X28766Y24919D01*
X28856Y24901D01*
X28945Y24919D01*
X29020Y24969D01*
X29071Y25045D01*
X29088Y25134D01*
X29071Y25223D01*
X29020Y25298D01*
X28945Y25349D01*
X28856Y25367D01*
X28766Y25349D01*
X28691Y25298D01*
X28681Y25284D01*
X28631Y25299D01*
Y26701D01*
X28681Y26716D01*
X28691Y26702D01*
X28766Y26651D01*
X28856Y26633D01*
X28945Y26651D01*
X29020Y26702D01*
X29071Y26777D01*
X29088Y26866D01*
X29071Y26955D01*
X29020Y27031D01*
X28945Y27081D01*
X28856Y27099D01*
X28766Y27081D01*
X28691Y27031D01*
X28681Y27016D01*
X28631Y27031D01*
Y28914D01*
X28646D01*
Y29686D01*
X28631D01*
Y29764D01*
X28646D01*
Y30536D01*
X28111D01*
Y30240D01*
X28024Y30153D01*
X27755D01*
Y30457D01*
X27784Y30476D01*
X27813Y30519D01*
X27823Y30570D01*
X27813Y30621D01*
X27784Y30664D01*
X27741Y30692D01*
X27722Y30696D01*
X27700Y30705D01*
X27701Y30755D01*
X27741Y30763D01*
X27756Y30773D01*
X28285D01*
Y30722D01*
X28624D01*
Y31125D01*
X28733D01*
X28776Y31134D01*
X28812Y31158D01*
X28976Y31322D01*
X29215D01*
Y31778D01*
X28876D01*
Y31540D01*
X28686Y31350D01*
X28624D01*
Y31778D01*
X28285D01*
Y31662D01*
X27955D01*
Y32211D01*
X29497Y33753D01*
X29497Y33753D01*
X29553Y33825D01*
X29588Y33910D01*
X29599Y34000D01*
Y35350D01*
X29599Y35350D01*
X29588Y35440D01*
X29553Y35525D01*
X29497Y35597D01*
X27686Y37408D01*
Y37466D01*
Y37466D01*
Y37466D01*
X27681Y37502D01*
X27674Y37556D01*
X27674Y37556D01*
Y37556D01*
X27662Y37585D01*
X27639Y37641D01*
X27639Y37641D01*
X27639Y37641D01*
X27622Y37662D01*
X27584Y37713D01*
X27584Y37713D01*
X27532Y37765D01*
X27557Y37805D01*
X27560Y37808D01*
X27650Y37796D01*
X27742Y37808D01*
X27827Y37843D01*
X27835Y37849D01*
X29125Y36558D01*
X29097Y36489D01*
X29086Y36410D01*
X29097Y36331D01*
X29127Y36258D01*
X29175Y36195D01*
X29238Y36147D01*
X29311Y36117D01*
X29390Y36106D01*
X29469Y36117D01*
X29542Y36147D01*
X29605Y36195D01*
X29653Y36258D01*
X29683Y36331D01*
X29694Y36410D01*
X29683Y36489D01*
X29653Y36562D01*
X29605Y36625D01*
X29542Y36673D01*
X29469Y36703D01*
X29390Y36714D01*
X29311Y36703D01*
X29242Y36675D01*
X27951Y37965D01*
X27957Y37973D01*
X27992Y38058D01*
X28004Y38150D01*
X27992Y38242D01*
X27957Y38327D01*
X27900Y38400D01*
X27827Y38457D01*
X27742Y38492D01*
X27650Y38504D01*
X27558Y38492D01*
X27473Y38457D01*
X27400Y38400D01*
X27343Y38327D01*
X27308Y38242D01*
X27296Y38150D01*
X27308Y38060D01*
X27306Y38057D01*
X27265Y38032D01*
X27049Y38247D01*
Y39700D01*
Y40751D01*
X28278D01*
X28278Y40751D01*
X28369Y40762D01*
X28453Y40797D01*
X28525Y40853D01*
X28776Y41104D01*
X28936D01*
Y41263D01*
X29007Y41335D01*
X29498D01*
X29532Y41271D01*
X29624Y41158D01*
X29737Y41066D01*
X29865Y40997D01*
X30005Y40955D01*
X30150Y40941D01*
X30295Y40955D01*
X30435Y40997D01*
X30563Y41066D01*
X30676Y41158D01*
X30768Y41271D01*
X30837Y41400D01*
X30879Y41539D01*
X30894Y41684D01*
X30879Y41829D01*
X30837Y41969D01*
X30768Y42097D01*
X30676Y42210D01*
X30563Y42303D01*
X30435Y42371D01*
X30295Y42414D01*
X30150Y42428D01*
D02*
G37*
G36*
X22770Y42274D02*
X22634Y42261D01*
X22504Y42221D01*
X22384Y42157D01*
X22279Y42071D01*
X22192Y41965D01*
X22128Y41845D01*
X22089Y41715D01*
X22075Y41580D01*
X22089Y41444D01*
X22128Y41314D01*
X22192Y41194D01*
X22279Y41088D01*
X22384Y41002D01*
X22391Y40999D01*
D01*
X22504Y40938D01*
X22634Y40898D01*
X22770Y40885D01*
X22905Y40898D01*
X23035Y40938D01*
X23156Y41002D01*
X23261Y41088D01*
X23347Y41194D01*
X23411Y41314D01*
X23451Y41444D01*
X23464Y41580D01*
X23451Y41715D01*
X23411Y41845D01*
X23347Y41965D01*
X23261Y42071D01*
X23156Y42157D01*
X23035Y42221D01*
X22905Y42261D01*
X22770Y42274D01*
D02*
G37*
G36*
X9820D02*
X9684Y42261D01*
X9554Y42221D01*
X9434Y42157D01*
X9329Y42071D01*
X9242Y41965D01*
X9178Y41845D01*
X9139Y41715D01*
X9125Y41580D01*
X9139Y41444D01*
X9178Y41314D01*
X9242Y41194D01*
X9329Y41088D01*
X9434Y41002D01*
X9441Y40999D01*
D01*
X9554Y40938D01*
X9684Y40898D01*
X9820Y40885D01*
X9955Y40898D01*
X10085Y40938D01*
X10206Y41002D01*
X10311Y41088D01*
X10397Y41194D01*
X10461Y41314D01*
X10501Y41444D01*
X10514Y41580D01*
X10501Y41715D01*
X10461Y41845D01*
X10397Y41965D01*
X10311Y42071D01*
X10206Y42157D01*
X10085Y42221D01*
X9955Y42261D01*
X9820Y42274D01*
D02*
G37*
G36*
X21667Y40169D02*
X21592Y40159D01*
X21522Y40130D01*
X21462Y40084D01*
X21416Y40024D01*
X21387Y39954D01*
X21377Y39879D01*
X21387Y39804D01*
X21416Y39734D01*
X21462Y39674D01*
X21522Y39628D01*
X21592Y39599D01*
X21667Y39589D01*
X21742Y39599D01*
X21812Y39628D01*
X21872Y39674D01*
X21918Y39734D01*
X21947Y39804D01*
X21957Y39879D01*
X21947Y39954D01*
X21918Y40024D01*
X21872Y40084D01*
X21812Y40130D01*
X21742Y40159D01*
X21667Y40169D01*
D02*
G37*
G36*
X20868D02*
X20793Y40159D01*
X20723Y40130D01*
X20663Y40084D01*
X20617Y40024D01*
X20588Y39954D01*
X20578Y39879D01*
X20588Y39804D01*
X20617Y39734D01*
X20663Y39674D01*
X20723Y39628D01*
X20793Y39599D01*
X20868Y39589D01*
X20943Y39599D01*
X21013Y39628D01*
X21073Y39674D01*
X21119Y39734D01*
X21148Y39804D01*
X21158Y39879D01*
X21148Y39954D01*
X21119Y40024D01*
X21073Y40084D01*
X21013Y40130D01*
X20943Y40159D01*
X20868Y40169D01*
D02*
G37*
G36*
X14766Y40869D02*
X14691Y40860D01*
X14621Y40831D01*
X14561Y40785D01*
X14515Y40724D01*
X14486Y40655D01*
X14476Y40580D01*
X14486Y40504D01*
X14515Y40435D01*
X14561Y40375D01*
X14621Y40328D01*
X14691Y40300D01*
X14766Y40290D01*
X14841Y40300D01*
X14911Y40328D01*
X14971Y40375D01*
X15017Y40435D01*
X15046Y40504D01*
X15056Y40580D01*
X15046Y40655D01*
X15017Y40724D01*
X14971Y40785D01*
X14911Y40831D01*
X14841Y40860D01*
X14766Y40869D01*
D02*
G37*
G36*
X4820Y42274D02*
X4684Y42261D01*
X4554Y42221D01*
X4434Y42157D01*
X4329Y42071D01*
X4242Y41965D01*
X4178Y41845D01*
X4139Y41715D01*
X4125Y41580D01*
X4139Y41444D01*
X4178Y41314D01*
X4242Y41194D01*
X4329Y41088D01*
X4434Y41002D01*
D01*
X4554Y40938D01*
X4684Y40898D01*
X4820Y40885D01*
X4955Y40898D01*
X5085Y40938D01*
X5206Y41002D01*
X5311Y41088D01*
X5397Y41194D01*
X5461Y41314D01*
X5501Y41444D01*
X5514Y41580D01*
X5501Y41715D01*
X5461Y41845D01*
X5397Y41965D01*
X5311Y42071D01*
X5206Y42157D01*
X5085Y42221D01*
X4955Y42261D01*
X4820Y42274D01*
D02*
G37*
G36*
X21266Y40869D02*
X21191Y40860D01*
X21121Y40831D01*
X21061Y40785D01*
X21015Y40724D01*
X20986Y40655D01*
X20976Y40580D01*
X20986Y40504D01*
X21015Y40435D01*
X21061Y40375D01*
X21121Y40328D01*
X21191Y40300D01*
X21266Y40290D01*
X21341Y40300D01*
X21411Y40328D01*
X21471Y40375D01*
X21517Y40435D01*
X21546Y40504D01*
X21556Y40580D01*
X21546Y40655D01*
X21517Y40724D01*
X21471Y40785D01*
X21411Y40831D01*
X21341Y40860D01*
X21266Y40869D01*
D02*
G37*
G36*
X5315Y34799D02*
X5170Y34785D01*
X5030Y34742D01*
X4902Y34674D01*
X4789Y34581D01*
X4697Y34468D01*
X4628Y34340D01*
X4586Y34200D01*
X4571Y34055D01*
X4586Y33910D01*
X4628Y33770D01*
X4697Y33642D01*
X4789Y33529D01*
X4902Y33437D01*
X5030Y33368D01*
X5170Y33326D01*
X5315Y33311D01*
X5460Y33326D01*
X5600Y33368D01*
X5728Y33437D01*
X5841Y33529D01*
X5933Y33642D01*
X6002Y33770D01*
X6044Y33910D01*
X6059Y34055D01*
X6044Y34200D01*
X6002Y34340D01*
X5933Y34468D01*
X5841Y34581D01*
X5728Y34674D01*
X5600Y34742D01*
X5460Y34785D01*
X5315Y34799D01*
D02*
G37*
G36*
X5815Y15492D02*
X5723Y15480D01*
X5638Y15445D01*
X5564Y15388D01*
X5508Y15315D01*
X5473Y15229D01*
X5461Y15138D01*
X5473Y15046D01*
X5508Y14961D01*
X5564Y14887D01*
X5638Y14831D01*
X5723Y14796D01*
X5815Y14784D01*
X5907Y14796D01*
X5992Y14831D01*
X6065Y14887D01*
X6122Y14961D01*
X6157Y15046D01*
X6169Y15138D01*
X6157Y15229D01*
X6122Y15315D01*
X6065Y15388D01*
X5992Y15445D01*
X5907Y15480D01*
X5815Y15492D01*
D02*
G37*
G36*
X12800Y15854D02*
X12708Y15842D01*
X12623Y15807D01*
X12550Y15750D01*
X12493Y15677D01*
X12458Y15592D01*
X12446Y15500D01*
X12458Y15408D01*
X12493Y15323D01*
X12550Y15250D01*
X12623Y15193D01*
X12708Y15158D01*
X12800Y15146D01*
X12892Y15158D01*
X12977Y15193D01*
X13050Y15250D01*
X13107Y15323D01*
X13142Y15408D01*
X13154Y15500D01*
X13142Y15592D01*
X13107Y15677D01*
X13050Y15750D01*
X12977Y15807D01*
X12892Y15842D01*
X12800Y15854D01*
D02*
G37*
G36*
X14800D02*
X14708Y15842D01*
X14623Y15807D01*
X14550Y15750D01*
X14493Y15677D01*
X14458Y15592D01*
X14446Y15500D01*
X14458Y15408D01*
X14493Y15323D01*
X14550Y15250D01*
X14623Y15193D01*
X14708Y15158D01*
X14800Y15146D01*
X14892Y15158D01*
X14977Y15193D01*
X15050Y15250D01*
X15107Y15323D01*
X15142Y15408D01*
X15154Y15500D01*
X15142Y15592D01*
X15107Y15677D01*
X15050Y15750D01*
X14977Y15807D01*
X14892Y15842D01*
X14800Y15854D01*
D02*
G37*
G36*
X5815Y32492D02*
X5723Y32480D01*
X5638Y32445D01*
X5564Y32388D01*
X5508Y32315D01*
X5473Y32229D01*
X5461Y32138D01*
X5473Y32046D01*
X5508Y31961D01*
X5564Y31887D01*
X5638Y31831D01*
X5723Y31796D01*
X5815Y31784D01*
X5907Y31796D01*
X5992Y31831D01*
X6065Y31887D01*
X6122Y31961D01*
X6157Y32046D01*
X6169Y32138D01*
X6157Y32229D01*
X6122Y32315D01*
X6065Y32388D01*
X5992Y32445D01*
X5907Y32480D01*
X5815Y32492D01*
D02*
G37*
G36*
X4815D02*
X4723Y32480D01*
X4638Y32445D01*
X4564Y32388D01*
X4508Y32315D01*
X4473Y32229D01*
X4461Y32138D01*
X4473Y32046D01*
X4508Y31961D01*
X4564Y31887D01*
X4638Y31831D01*
X4723Y31796D01*
X4815Y31784D01*
X4907Y31796D01*
X4992Y31831D01*
X5065Y31887D01*
X5122Y31961D01*
X5157Y32046D01*
X5169Y32138D01*
X5157Y32229D01*
X5122Y32315D01*
X5065Y32388D01*
X4992Y32445D01*
X4907Y32480D01*
X4815Y32492D01*
D02*
G37*
G36*
X23150Y14904D02*
X23058Y14892D01*
X22973Y14857D01*
X22900Y14800D01*
X22843Y14727D01*
X22808Y14642D01*
X22796Y14550D01*
X22808Y14458D01*
X22843Y14373D01*
X22900Y14300D01*
X22973Y14243D01*
X23058Y14208D01*
X23150Y14196D01*
X23242Y14208D01*
X23327Y14243D01*
X23400Y14300D01*
X23457Y14373D01*
X23492Y14458D01*
X23504Y14550D01*
X23492Y14642D01*
X23457Y14727D01*
X23400Y14800D01*
X23327Y14857D01*
X23242Y14892D01*
X23150Y14904D01*
D02*
G37*
G36*
X4815Y31492D02*
X4723Y31480D01*
X4638Y31445D01*
X4564Y31388D01*
X4508Y31315D01*
X4473Y31229D01*
X4461Y31138D01*
X4473Y31046D01*
X4508Y30961D01*
X4564Y30887D01*
X4638Y30831D01*
X4723Y30796D01*
X4815Y30784D01*
X4907Y30796D01*
X4992Y30831D01*
X5065Y30887D01*
X5122Y30961D01*
X5157Y31046D01*
X5169Y31138D01*
X5157Y31229D01*
X5122Y31315D01*
X5065Y31388D01*
X4992Y31445D01*
X4907Y31480D01*
X4815Y31492D01*
D02*
G37*
G36*
Y16492D02*
X4723Y16480D01*
X4638Y16445D01*
X4564Y16388D01*
X4508Y16315D01*
X4473Y16229D01*
X4461Y16138D01*
X4473Y16046D01*
X4508Y15961D01*
X4564Y15887D01*
X4638Y15831D01*
X4723Y15796D01*
X4815Y15784D01*
X4907Y15796D01*
X4992Y15831D01*
X5065Y15887D01*
X5122Y15961D01*
X5157Y16046D01*
X5169Y16138D01*
X5157Y16229D01*
X5122Y16315D01*
X5065Y16388D01*
X4992Y16445D01*
X4907Y16480D01*
X4815Y16492D01*
D02*
G37*
G36*
X5815D02*
X5723Y16480D01*
X5638Y16445D01*
X5564Y16388D01*
X5508Y16315D01*
X5473Y16229D01*
X5461Y16138D01*
X5473Y16046D01*
X5508Y15961D01*
X5564Y15887D01*
X5638Y15831D01*
X5723Y15796D01*
X5815Y15784D01*
X5907Y15796D01*
X5992Y15831D01*
X6065Y15887D01*
X6122Y15961D01*
X6157Y16046D01*
X6169Y16138D01*
X6157Y16229D01*
X6122Y16315D01*
X6065Y16388D01*
X5992Y16445D01*
X5907Y16480D01*
X5815Y16492D01*
D02*
G37*
G36*
X25466Y31332D02*
X25210D01*
X25159Y31322D01*
X25144Y31312D01*
X24900D01*
X24857Y31304D01*
X24821Y31279D01*
X24075Y30534D01*
X24051Y30498D01*
X24042Y30455D01*
Y27778D01*
X23985D01*
Y27322D01*
X24324D01*
Y27778D01*
X24267D01*
Y30408D01*
X24947Y31088D01*
X25144D01*
X25159Y31078D01*
X25210Y31068D01*
X25466D01*
X25516Y31078D01*
X25559Y31106D01*
X25588Y31149D01*
X25598Y31200D01*
X25588Y31251D01*
X25559Y31294D01*
X25516Y31322D01*
X25466Y31332D01*
D02*
G37*
G36*
X26400Y16454D02*
X26308Y16442D01*
X26223Y16407D01*
X26150Y16350D01*
X26093Y16277D01*
X26058Y16192D01*
X26046Y16100D01*
X26058Y16008D01*
X26093Y15923D01*
X26150Y15850D01*
X26223Y15793D01*
X26308Y15758D01*
X26400Y15746D01*
X26492Y15758D01*
X26577Y15793D01*
X26650Y15850D01*
X26707Y15923D01*
X26742Y16008D01*
X26754Y16100D01*
X26742Y16192D01*
X26707Y16277D01*
X26650Y16350D01*
X26577Y16407D01*
X26492Y16442D01*
X26400Y16454D01*
D02*
G37*
G36*
X5815Y31492D02*
X5723Y31480D01*
X5638Y31445D01*
X5564Y31388D01*
X5508Y31315D01*
X5473Y31229D01*
X5461Y31138D01*
X5473Y31046D01*
X5508Y30961D01*
X5564Y30887D01*
X5638Y30831D01*
X5723Y30796D01*
X5815Y30784D01*
X5907Y30796D01*
X5992Y30831D01*
X6065Y30887D01*
X6122Y30961D01*
X6157Y31046D01*
X6169Y31138D01*
X6157Y31229D01*
X6122Y31315D01*
X6065Y31388D01*
X5992Y31445D01*
X5907Y31480D01*
X5815Y31492D01*
D02*
G37*
G36*
X9750Y14854D02*
X9658Y14842D01*
X9573Y14807D01*
X9500Y14750D01*
X9443Y14677D01*
X9408Y14592D01*
X9396Y14500D01*
X9408Y14408D01*
X9443Y14323D01*
X9500Y14250D01*
X9573Y14193D01*
X9658Y14158D01*
X9750Y14146D01*
X9842Y14158D01*
X9927Y14193D01*
X10000Y14250D01*
X10057Y14323D01*
X10092Y14408D01*
X10104Y14500D01*
X10092Y14592D01*
X10057Y14677D01*
X10000Y14750D01*
X9927Y14807D01*
X9842Y14842D01*
X9750Y14854D01*
D02*
G37*
G36*
X5815Y14492D02*
X5723Y14480D01*
X5638Y14445D01*
X5564Y14388D01*
X5508Y14315D01*
X5473Y14229D01*
X5461Y14138D01*
X5473Y14046D01*
X5508Y13961D01*
X5564Y13887D01*
X5638Y13831D01*
X5723Y13796D01*
X5815Y13784D01*
X5907Y13796D01*
X5992Y13831D01*
X6065Y13887D01*
X6122Y13961D01*
X6157Y14046D01*
X6169Y14138D01*
X6157Y14229D01*
X6122Y14315D01*
X6065Y14388D01*
X5992Y14445D01*
X5907Y14480D01*
X5815Y14492D01*
D02*
G37*
G36*
X18350Y14804D02*
X18258Y14792D01*
X18173Y14757D01*
X18100Y14700D01*
X18043Y14627D01*
X18008Y14542D01*
X17996Y14450D01*
X18008Y14358D01*
X18043Y14273D01*
X18100Y14200D01*
X18173Y14143D01*
X18258Y14108D01*
X18350Y14096D01*
X18442Y14108D01*
X18527Y14143D01*
X18600Y14200D01*
X18657Y14273D01*
X18692Y14358D01*
X18704Y14450D01*
X18692Y14542D01*
X18657Y14627D01*
X18600Y14700D01*
X18527Y14757D01*
X18442Y14792D01*
X18350Y14804D01*
D02*
G37*
G36*
X14800Y13854D02*
X14708Y13842D01*
X14623Y13807D01*
X14550Y13750D01*
X14493Y13677D01*
X14458Y13592D01*
X14446Y13500D01*
X14458Y13408D01*
X14493Y13323D01*
X14550Y13250D01*
X14623Y13193D01*
X14708Y13158D01*
X14800Y13146D01*
X14892Y13158D01*
X14977Y13193D01*
X15050Y13250D01*
X15107Y13323D01*
X15142Y13408D01*
X15154Y13500D01*
X15142Y13592D01*
X15107Y13677D01*
X15050Y13750D01*
X14977Y13807D01*
X14892Y13842D01*
X14800Y13854D01*
D02*
G37*
G36*
X29750Y13804D02*
X29658Y13792D01*
X29573Y13757D01*
X29500Y13700D01*
X29443Y13627D01*
X29408Y13542D01*
X29396Y13450D01*
X29408Y13358D01*
X29443Y13273D01*
X29500Y13200D01*
X29573Y13143D01*
X29658Y13108D01*
X29750Y13096D01*
X29842Y13108D01*
X29927Y13143D01*
X30000Y13200D01*
X30057Y13273D01*
X30092Y13358D01*
X30104Y13450D01*
X30092Y13542D01*
X30057Y13627D01*
X30000Y13700D01*
X29927Y13757D01*
X29842Y13792D01*
X29750Y13804D01*
D02*
G37*
G36*
X9750Y13854D02*
X9658Y13842D01*
X9573Y13807D01*
X9500Y13750D01*
X9443Y13677D01*
X9408Y13592D01*
X9396Y13500D01*
X9408Y13408D01*
X9443Y13323D01*
X9500Y13250D01*
X9573Y13193D01*
X9658Y13158D01*
X9750Y13146D01*
X9842Y13158D01*
X9927Y13193D01*
X10000Y13250D01*
X10057Y13323D01*
X10092Y13408D01*
X10104Y13500D01*
X10092Y13592D01*
X10057Y13677D01*
X10000Y13750D01*
X9927Y13807D01*
X9842Y13842D01*
X9750Y13854D01*
D02*
G37*
G36*
X7798Y32819D02*
X7602D01*
X7506Y32807D01*
X7417Y32770D01*
X7340Y32711D01*
X7282Y32635D01*
X7245Y32546D01*
X7232Y32450D01*
X7245Y32354D01*
X7282Y32265D01*
X7340Y32189D01*
X7417Y32130D01*
X7506Y32093D01*
X7602Y32081D01*
X7798D01*
X7894Y32093D01*
X7983Y32130D01*
X8060Y32189D01*
X8118Y32265D01*
X8155Y32354D01*
X8168Y32450D01*
X8155Y32546D01*
X8118Y32635D01*
X8060Y32711D01*
X7983Y32770D01*
X7894Y32807D01*
X7798Y32819D01*
D02*
G37*
G36*
X26450Y32573D02*
X26399Y32563D01*
X26356Y32534D01*
X26328Y32491D01*
X26318Y32440D01*
Y32184D01*
X26328Y32134D01*
X26356Y32091D01*
X26399Y32062D01*
X26450Y32052D01*
X26501Y32062D01*
X26544Y32091D01*
X26572Y32134D01*
X26582Y32184D01*
Y32440D01*
X26572Y32491D01*
X26544Y32534D01*
X26501Y32563D01*
X26450Y32573D01*
D02*
G37*
G36*
X26135D02*
X26084Y32563D01*
X26041Y32534D01*
X26013Y32491D01*
X26003Y32440D01*
Y32184D01*
X26013Y32134D01*
X26041Y32091D01*
X26084Y32062D01*
X26135Y32052D01*
X26186Y32062D01*
X26229Y32091D01*
X26257Y32134D01*
X26268Y32184D01*
Y32440D01*
X26257Y32491D01*
X26229Y32534D01*
X26186Y32563D01*
X26135Y32573D01*
D02*
G37*
G36*
X8750Y14854D02*
X8658Y14842D01*
X8573Y14807D01*
X8500Y14750D01*
X8443Y14677D01*
X8408Y14592D01*
X8396Y14500D01*
X8408Y14408D01*
X8443Y14323D01*
X8500Y14250D01*
X8573Y14193D01*
X8658Y14158D01*
X8750Y14146D01*
X8842Y14158D01*
X8927Y14193D01*
X9000Y14250D01*
X9057Y14323D01*
X9092Y14408D01*
X9104Y14500D01*
X9092Y14592D01*
X9057Y14677D01*
X9000Y14750D01*
X8927Y14807D01*
X8842Y14842D01*
X8750Y14854D01*
D02*
G37*
%LPD*%
G36*
X16054Y22398D02*
X16076Y22364D01*
X16147Y22293D01*
Y21558D01*
X16114Y21536D01*
X16072Y21474D01*
X16057Y21400D01*
X16072Y21326D01*
X16114Y21264D01*
X16147Y21242D01*
Y18914D01*
X16101Y18895D01*
X15353Y19643D01*
Y20131D01*
X15444Y20143D01*
X15533Y20180D01*
X15610Y20239D01*
X15668Y20315D01*
X15705Y20404D01*
X15718Y20500D01*
X15705Y20596D01*
X15668Y20685D01*
X15630Y20734D01*
X15973Y21077D01*
X15995Y21111D01*
X16003Y21150D01*
Y22395D01*
X16053Y22400D01*
X16054Y22398D01*
D02*
G37*
G36*
X17100Y12200D02*
X17160Y12153D01*
X17145Y12103D01*
X15261D01*
X15238Y12153D01*
X15273Y12198D01*
X15302Y12268D01*
X17047D01*
X17100Y12200D01*
D02*
G37*
G36*
X12429Y14859D02*
X12618D01*
X12627Y14809D01*
X12623Y14807D01*
X12550Y14750D01*
X12493Y14677D01*
X12458Y14592D01*
X12446Y14504D01*
X10145Y12203D01*
X9016D01*
X9007Y12230D01*
X9003Y12253D01*
X9057Y12323D01*
X9092Y12408D01*
X9104Y12500D01*
X9092Y12592D01*
X9057Y12677D01*
X9051Y12685D01*
X9284Y12918D01*
X10450D01*
X10481Y12924D01*
X10508Y12942D01*
X12426Y14859D01*
X12429Y14859D01*
D02*
G37*
G36*
X9392Y33212D02*
X9419Y33194D01*
X9450Y33188D01*
X10972D01*
Y33087D01*
X8005D01*
X7998Y33101D01*
X7992Y33137D01*
X8060Y33189D01*
X8118Y33265D01*
X8155Y33354D01*
X8157Y33368D01*
X9236D01*
X9392Y33212D01*
D02*
G37*
G36*
X14109Y34176D02*
Y33624D01*
X14111Y33614D01*
Y33286D01*
X14109Y33276D01*
Y32724D01*
X14062Y32708D01*
X14060Y32711D01*
X13983Y32770D01*
X13894Y32807D01*
X13798Y32819D01*
X13602D01*
X13506Y32807D01*
X13417Y32770D01*
X13340Y32711D01*
X13337Y32706D01*
X13290Y32723D01*
Y32883D01*
X13293Y32888D01*
X13323Y32961D01*
X13334Y33040D01*
X13323Y33119D01*
X13293Y33192D01*
X13290Y33197D01*
Y33579D01*
X13791Y34081D01*
X13798D01*
X13894Y34093D01*
X13983Y34130D01*
X14060Y34189D01*
X14062Y34192D01*
X14109Y34176D01*
D02*
G37*
G36*
X20835Y34918D02*
X20447Y34530D01*
X20425Y34497D01*
X20417Y34457D01*
Y33908D01*
X20382Y33874D01*
X20072D01*
Y33417D01*
X20528D01*
X20568Y33391D01*
Y33309D01*
X20528Y33283D01*
X20188D01*
X20143Y33328D01*
X20116Y33346D01*
X20085Y33352D01*
X19072D01*
X19028Y33367D01*
Y33678D01*
X20315Y34964D01*
X20816D01*
X20835Y34918D01*
D02*
G37*
G36*
X16961Y33212D02*
X16961Y33210D01*
X16946Y33162D01*
X15592D01*
X15575Y33212D01*
X15610Y33239D01*
X15668Y33315D01*
X15705Y33404D01*
X15707Y33418D01*
X16756D01*
X16961Y33212D01*
D02*
G37*
G36*
X14936Y32882D02*
X14955Y32869D01*
X14961Y32844D01*
X14959Y32814D01*
X14890Y32761D01*
X14832Y32685D01*
X14795Y32596D01*
X14782Y32500D01*
X14795Y32404D01*
X14832Y32315D01*
X14883Y32249D01*
X14630Y31997D01*
X14580Y32017D01*
Y33167D01*
X14630Y33187D01*
X14936Y32882D01*
D02*
G37*
G36*
X13340Y32189D02*
X13417Y32130D01*
X13506Y32093D01*
X13602Y32081D01*
X13798D01*
X13894Y32093D01*
X13983Y32130D01*
X14060Y32189D01*
X14062Y32192D01*
X14109Y32176D01*
Y31724D01*
X14062Y31708D01*
X14060Y31711D01*
X13983Y31770D01*
X13894Y31807D01*
X13798Y31819D01*
X13602D01*
X13506Y31807D01*
X13417Y31770D01*
X13340Y31711D01*
X13337Y31707D01*
X13290Y31723D01*
Y32177D01*
X13337Y32194D01*
X13340Y32189D01*
D02*
G37*
G36*
X18155Y32678D02*
X18127Y32609D01*
X18116Y32530D01*
X18127Y32451D01*
X18150Y32394D01*
X18108Y32366D01*
X17916Y32558D01*
X17889Y32576D01*
X17857Y32582D01*
X15707D01*
X15705Y32596D01*
X15668Y32685D01*
X15610Y32761D01*
X15549Y32808D01*
X15566Y32858D01*
X17976D01*
X18155Y32678D01*
D02*
G37*
G36*
X16208Y32368D02*
X16152Y32360D01*
X16078Y32330D01*
X16016Y32282D01*
X15967Y32219D01*
X15937Y32146D01*
X15927Y32067D01*
X15937Y31988D01*
X15967Y31915D01*
X16016Y31852D01*
X16078Y31804D01*
X16152Y31774D01*
X16230Y31763D01*
X16309Y31774D01*
X16382Y31804D01*
X16445Y31852D01*
X16454Y31864D01*
X16504Y31867D01*
X17045Y31326D01*
Y30955D01*
X17048Y30941D01*
X17007Y30891D01*
X16705D01*
X16213Y31383D01*
X16226Y31447D01*
X16211Y31521D01*
X16170Y31583D01*
X16107Y31625D01*
X16033Y31640D01*
X15960Y31625D01*
X15897Y31583D01*
X15855Y31521D01*
X15841Y31447D01*
X15855Y31373D01*
X15897Y31311D01*
X15960Y31269D01*
X16033Y31254D01*
X16097Y31267D01*
X16535Y30829D01*
X16516Y30782D01*
X16433D01*
X16246Y30970D01*
Y30986D01*
X16239Y31018D01*
X16222Y31044D01*
X16086Y31180D01*
X16059Y31198D01*
X16028Y31204D01*
X15530D01*
X15514Y31201D01*
X15499Y31198D01*
X15499Y31198D01*
X15499Y31198D01*
X15485Y31189D01*
X15472Y31180D01*
X15454Y31163D01*
X15454Y31163D01*
X15454Y31163D01*
X15379Y31088D01*
X15118D01*
X15077Y31149D01*
X15011Y31193D01*
X14933Y31208D01*
X14856Y31193D01*
X14798Y31154D01*
X14748Y31168D01*
Y31881D01*
X15023Y32157D01*
X15056Y32143D01*
X15152Y32131D01*
X15348D01*
X15444Y32143D01*
X15533Y32180D01*
X15610Y32239D01*
X15668Y32315D01*
X15705Y32404D01*
X15707Y32418D01*
X16204D01*
X16208Y32368D01*
D02*
G37*
G36*
X17836Y33610D02*
X17847Y33531D01*
X17877Y33458D01*
X17920Y33402D01*
X17907Y33352D01*
X17054D01*
X16848Y33558D01*
X16821Y33576D01*
X16813Y33578D01*
X16818Y33628D01*
X17821D01*
X17836Y33610D01*
D02*
G37*
G36*
X14848Y36466D02*
Y36167D01*
X14819Y36153D01*
X14798Y36148D01*
X14756Y36176D01*
X14701Y36187D01*
X14399D01*
X14344Y36176D01*
X14298Y36145D01*
X14267Y36099D01*
X14256Y36044D01*
Y36037D01*
X13992D01*
X13963Y36106D01*
X13915Y36169D01*
X13852Y36217D01*
X13779Y36248D01*
X13700Y36258D01*
X13621Y36248D01*
X13548Y36217D01*
X13485Y36169D01*
X13437Y36106D01*
X13407Y36033D01*
X13396Y35954D01*
X13407Y35876D01*
X13437Y35802D01*
X13485Y35740D01*
X13521Y35712D01*
X13504Y35662D01*
X10693D01*
X10012Y36344D01*
Y36391D01*
X10062Y36413D01*
X10108Y36377D01*
X10181Y36347D01*
X10260Y36336D01*
X10339Y36347D01*
X10412Y36377D01*
X10475Y36425D01*
X10523Y36488D01*
X10552Y36558D01*
X14756D01*
X14848Y36466D01*
D02*
G37*
G36*
X22173Y35618D02*
X22137Y35572D01*
X22107Y35499D01*
X22096Y35420D01*
X22107Y35341D01*
X22137Y35268D01*
X22173Y35220D01*
X22153Y35170D01*
X20752D01*
X20732Y35220D01*
X20768Y35268D01*
X20797Y35338D01*
X21739D01*
X21770Y35344D01*
X21797Y35362D01*
X22103Y35668D01*
X22151D01*
X22173Y35618D01*
D02*
G37*
G36*
X20308Y39640D02*
Y37694D01*
X20197Y37584D01*
X20151Y37603D01*
Y39602D01*
X20214Y39628D01*
X20258Y39661D01*
X20308Y39640D01*
D02*
G37*
G36*
X12435Y39432D02*
X9938Y36935D01*
X9892Y36954D01*
Y39341D01*
X10029Y39478D01*
X12416D01*
X12435Y39432D01*
D02*
G37*
G36*
X17998Y35081D02*
X17998Y35080D01*
Y33877D01*
X17988Y33873D01*
X17925Y33825D01*
X17900Y33792D01*
X17662D01*
X17645Y33842D01*
X17684Y33893D01*
X17715Y33967D01*
X17725Y34045D01*
X17715Y34124D01*
X17684Y34197D01*
X17636Y34260D01*
X17573Y34308D01*
X17504Y34337D01*
Y34657D01*
X17952Y35105D01*
X17998Y35081D01*
D02*
G37*
G36*
X20344Y35704D02*
X20346Y35678D01*
X20290Y35635D01*
X20242Y35572D01*
X20212Y35499D01*
X20201Y35420D01*
X20212Y35341D01*
X20242Y35268D01*
X20278Y35220D01*
X20276Y35201D01*
X20264Y35175D01*
X20258Y35168D01*
X20233Y35163D01*
X20199Y35140D01*
X18882Y33824D01*
X18572D01*
Y33367D01*
X18528Y33352D01*
X18373D01*
X18360Y33402D01*
X18403Y33458D01*
X18433Y33531D01*
X18444Y33610D01*
X18433Y33689D01*
X18403Y33762D01*
X18355Y33825D01*
X18292Y33873D01*
X18219Y33903D01*
X18162Y33911D01*
Y35046D01*
X18844Y35728D01*
X20332D01*
X20344Y35704D01*
D02*
G37*
G36*
X10601Y35522D02*
X10628Y35504D01*
X10659Y35498D01*
X14466D01*
X14563Y35400D01*
Y35188D01*
X14513Y35168D01*
X14293Y35388D01*
X14266Y35406D01*
X14235Y35412D01*
X10014D01*
X9892Y35534D01*
Y36165D01*
X9938Y36184D01*
X10601Y35522D01*
D02*
G37*
G36*
X13482Y34797D02*
X13417Y34770D01*
X13340Y34711D01*
X13282Y34635D01*
X13268Y34603D01*
X13035D01*
X12977Y34591D01*
X12927Y34558D01*
X12813Y34443D01*
X12502D01*
Y33987D01*
X12912D01*
X12948Y33951D01*
Y33332D01*
X12878Y33303D01*
X12815Y33255D01*
X12767Y33192D01*
X12737Y33119D01*
X12726Y33040D01*
X12737Y32961D01*
X12767Y32888D01*
X12815Y32825D01*
X12878Y32777D01*
X12951Y32747D01*
X12984Y32742D01*
Y29860D01*
X12127D01*
X12069Y29848D01*
X12019Y29815D01*
X11986Y29766D01*
X11975Y29707D01*
X11986Y29649D01*
X12019Y29600D01*
X12069Y29567D01*
X12127Y29555D01*
X12984D01*
Y29400D01*
X12814Y29230D01*
X11446D01*
X11426Y29280D01*
X11463Y29328D01*
X11493Y29401D01*
X11504Y29480D01*
X11493Y29559D01*
X11463Y29632D01*
X11415Y29695D01*
X11352Y29743D01*
X11279Y29773D01*
X11200Y29784D01*
X11121Y29773D01*
X11048Y29743D01*
X10985Y29695D01*
X10937Y29632D01*
X10907Y29559D01*
X10896Y29480D01*
X10892Y29475D01*
X9398D01*
X9381Y29500D01*
X9331Y29533D01*
X9273Y29545D01*
X8820D01*
X8762Y29533D01*
X8712Y29500D01*
X8679Y29451D01*
X8668Y29393D01*
X8679Y29334D01*
X8712Y29285D01*
X8745Y29263D01*
X8746Y29261D01*
Y29209D01*
X8745Y29207D01*
X8712Y29185D01*
X8679Y29136D01*
X8668Y29078D01*
X8679Y29019D01*
X8712Y28970D01*
X8745Y28948D01*
X8746Y28946D01*
Y28894D01*
X8745Y28892D01*
X8712Y28870D01*
X8679Y28821D01*
X8668Y28763D01*
X8679Y28704D01*
X8712Y28655D01*
X8745Y28633D01*
X8746Y28631D01*
Y28583D01*
X8715Y28557D01*
X8712Y28556D01*
X8711Y28554D01*
X8707Y28551D01*
X8385D01*
X8345Y28543D01*
X8312Y28521D01*
X8212Y28421D01*
X8167Y28443D01*
X8168Y28450D01*
X8155Y28546D01*
X8118Y28635D01*
X8060Y28711D01*
X7983Y28770D01*
X7894Y28807D01*
X7798Y28819D01*
X7602D01*
X7506Y28807D01*
X7417Y28770D01*
X7340Y28711D01*
X7282Y28635D01*
X7270Y28605D01*
X7221Y28596D01*
X7162Y28654D01*
Y31516D01*
X7414Y31768D01*
X8316D01*
X9229Y30855D01*
X9208Y30805D01*
X8820D01*
X8762Y30793D01*
X8712Y30760D01*
X8679Y30711D01*
X8668Y30652D01*
X8679Y30594D01*
X8712Y30545D01*
X8745Y30523D01*
X8746Y30521D01*
Y30469D01*
X8745Y30467D01*
X8712Y30445D01*
X8679Y30396D01*
X8668Y30337D01*
X8679Y30279D01*
X8712Y30230D01*
X8745Y30208D01*
X8746Y30206D01*
Y30154D01*
X8745Y30152D01*
X8712Y30130D01*
X8679Y30081D01*
X8668Y30022D01*
X8679Y29964D01*
X8712Y29915D01*
X8762Y29882D01*
X8820Y29870D01*
X9273D01*
X9331Y29882D01*
X9381Y29915D01*
X9414Y29964D01*
X9425Y30022D01*
X9414Y30081D01*
X9381Y30130D01*
X9348Y30152D01*
X9347Y30154D01*
Y30206D01*
X9348Y30208D01*
X9381Y30230D01*
X9414Y30279D01*
X9425Y30337D01*
X9414Y30396D01*
X9381Y30445D01*
X9348Y30467D01*
X9347Y30469D01*
Y30521D01*
X9348Y30523D01*
X9381Y30545D01*
X9414Y30594D01*
X9415Y30598D01*
X9469Y30615D01*
X9895Y30189D01*
X9922Y30171D01*
X9953Y30165D01*
X10941D01*
X10973Y30171D01*
X11000Y30189D01*
X11066Y30255D01*
X12002D01*
X12019Y30230D01*
X12069Y30196D01*
X12127Y30185D01*
X12580D01*
X12638Y30196D01*
X12688Y30230D01*
X12721Y30279D01*
X12732Y30337D01*
X12721Y30396D01*
X12688Y30445D01*
X12655Y30467D01*
X12654Y30469D01*
Y30521D01*
X12655Y30523D01*
X12688Y30545D01*
X12721Y30594D01*
X12732Y30652D01*
X12721Y30711D01*
X12688Y30760D01*
X12638Y30793D01*
X12580Y30805D01*
X12558Y30855D01*
X12583Y30888D01*
X12613Y30961D01*
X12624Y31040D01*
X12613Y31119D01*
X12583Y31192D01*
X12535Y31255D01*
X12472Y31303D01*
X12399Y31333D01*
X12320Y31344D01*
X12241Y31333D01*
X12168Y31303D01*
X12105Y31255D01*
X12057Y31192D01*
X12027Y31119D01*
X12016Y31040D01*
X12027Y30961D01*
X12057Y30888D01*
X12088Y30848D01*
X12069Y30793D01*
X12019Y30760D01*
X11986Y30711D01*
X11975Y30652D01*
X11986Y30594D01*
X12019Y30545D01*
X12052Y30523D01*
X12053Y30521D01*
Y30469D01*
X12052Y30467D01*
X12019Y30445D01*
X12002Y30420D01*
X11032D01*
X11000Y30413D01*
X10974Y30396D01*
X10907Y30329D01*
X10855D01*
X10835Y30379D01*
X10873Y30428D01*
X10902Y30498D01*
X11555D01*
X11586Y30504D01*
X11613Y30522D01*
X11861Y30769D01*
X11878Y30796D01*
X11885Y30827D01*
Y30852D01*
X11910Y30869D01*
X11943Y30919D01*
X11955Y30977D01*
Y31430D01*
X11943Y31488D01*
X11910Y31538D01*
X11861Y31571D01*
X11802Y31582D01*
X11744Y31571D01*
X11695Y31538D01*
X11673Y31505D01*
X11671Y31504D01*
X11623D01*
X11597Y31535D01*
X11595Y31538D01*
X11594Y31539D01*
X11591Y31543D01*
Y32499D01*
X11868Y32776D01*
X12128D01*
Y32122D01*
X12058Y32093D01*
X11995Y32045D01*
X11947Y31982D01*
X11917Y31909D01*
X11906Y31830D01*
X11917Y31751D01*
X11947Y31678D01*
X11995Y31615D01*
X12058Y31567D01*
X12131Y31537D01*
X12210Y31526D01*
X12289Y31537D01*
X12362Y31567D01*
X12425Y31615D01*
X12473Y31678D01*
X12503Y31751D01*
X12514Y31830D01*
X12503Y31909D01*
X12473Y31982D01*
X12425Y32045D01*
X12362Y32093D01*
X12292Y32122D01*
Y33335D01*
X12286Y33367D01*
X12268Y33393D01*
X12178Y33483D01*
Y33824D01*
X11722D01*
Y33396D01*
X11687Y33356D01*
X11678Y33352D01*
X11472D01*
X11428Y33367D01*
X11428Y33402D01*
Y33824D01*
X11282D01*
Y34276D01*
X11324Y34304D01*
X11341Y34297D01*
X11420Y34286D01*
X11499Y34297D01*
X11572Y34327D01*
X11635Y34375D01*
X11683Y34438D01*
X11713Y34511D01*
X11724Y34590D01*
X11713Y34669D01*
X11683Y34742D01*
X11641Y34797D01*
X11654Y34847D01*
X13472D01*
X13482Y34797D01*
D02*
G37*
G36*
X10963Y29276D02*
X10942Y29230D01*
X10470D01*
X10412Y29218D01*
X10362Y29185D01*
X10358Y29181D01*
X10280Y29191D01*
X10201Y29181D01*
X10128Y29151D01*
X10065Y29102D01*
X10017Y29039D01*
X9987Y28966D01*
X9978Y28903D01*
X9370D01*
X9355Y28953D01*
X9381Y28970D01*
X9414Y29019D01*
X9425Y29078D01*
X9414Y29136D01*
X9381Y29185D01*
X9348Y29207D01*
X9347Y29209D01*
Y29261D01*
X9348Y29263D01*
X9381Y29285D01*
X9398Y29310D01*
X10939D01*
X10963Y29276D01*
D02*
G37*
G36*
X19653Y28878D02*
X19653Y28872D01*
X19652Y28870D01*
X19619Y28848D01*
X19588Y28801D01*
X19586Y28799D01*
X19580Y28795D01*
X19532Y28784D01*
X19482Y28823D01*
X19409Y28853D01*
X19330Y28864D01*
X19251Y28853D01*
X19178Y28823D01*
X19115Y28775D01*
X19067Y28712D01*
X19038Y28642D01*
X18625D01*
X18594Y28636D01*
X18567Y28618D01*
X18399Y28451D01*
X18381Y28424D01*
X18375Y28392D01*
Y28225D01*
X18350Y28208D01*
X18328Y28176D01*
X18326Y28175D01*
X18274D01*
X18272Y28176D01*
X18250Y28208D01*
X18209Y28236D01*
X18201Y28248D01*
X18111Y28338D01*
X18084Y28356D01*
X18053Y28362D01*
X17064D01*
X17023Y28412D01*
X17025Y28425D01*
X17014Y28484D01*
X16981Y28533D01*
X16978Y28535D01*
X16973Y28597D01*
X16994Y28618D01*
X17750D01*
X17750Y28618D01*
X17792Y28626D01*
X17801Y28628D01*
X17844Y28656D01*
X18110Y28923D01*
X19630D01*
X19653Y28878D01*
D02*
G37*
G36*
X13340Y30189D02*
X13417Y30130D01*
X13506Y30093D01*
X13602Y30081D01*
X13798D01*
X13894Y30093D01*
X13983Y30130D01*
X14060Y30189D01*
X14062Y30192D01*
X14109Y30176D01*
Y29724D01*
X14062Y29708D01*
X14060Y29711D01*
X13983Y29770D01*
X13894Y29807D01*
X13798Y29819D01*
X13602D01*
X13506Y29807D01*
X13417Y29770D01*
X13340Y29711D01*
X13337Y29706D01*
X13290Y29723D01*
Y29750D01*
Y30177D01*
X13337Y30194D01*
X13340Y30189D01*
D02*
G37*
G36*
X18503Y29247D02*
X18526Y29238D01*
X18516Y29188D01*
X18055D01*
X18055Y29188D01*
X18013Y29179D01*
X18004Y29177D01*
X17961Y29149D01*
X17961Y29149D01*
X17695Y28882D01*
X16974D01*
X16959Y28932D01*
X16981Y28947D01*
X17014Y28997D01*
X17025Y29055D01*
X17014Y29113D01*
X16981Y29163D01*
X16948Y29185D01*
X16947Y29187D01*
Y29239D01*
X16948Y29240D01*
X16981Y29262D01*
X16998Y29288D01*
X18450D01*
X18503Y29247D01*
D02*
G37*
G36*
X12026Y28875D02*
X12019Y28870D01*
X11986Y28821D01*
X11975Y28763D01*
X11986Y28704D01*
X12019Y28655D01*
X12052Y28633D01*
X12053Y28631D01*
Y28579D01*
X12052Y28577D01*
X12019Y28556D01*
X11986Y28506D01*
X11975Y28448D01*
X11986Y28389D01*
X12019Y28340D01*
X12069Y28307D01*
X12127Y28295D01*
X12241D01*
Y26450D01*
X12106Y26315D01*
X12042Y26342D01*
X11950Y26354D01*
X11858Y26342D01*
X11775Y26307D01*
X11750Y26312D01*
X10711D01*
Y26426D01*
X10289D01*
Y25974D01*
X10711D01*
Y26088D01*
X11569D01*
X11602Y26050D01*
X11596Y26000D01*
X11608Y25908D01*
X11643Y25823D01*
X11700Y25750D01*
X11773Y25693D01*
X11858Y25658D01*
X11950Y25646D01*
X12042Y25658D01*
X12127Y25693D01*
X12200Y25750D01*
X12257Y25823D01*
X12292Y25908D01*
X12304Y26000D01*
X12292Y26092D01*
X12265Y26156D01*
X12433Y26324D01*
X12457Y26361D01*
X12466Y26404D01*
Y28295D01*
X12580D01*
X12638Y28307D01*
X12688Y28340D01*
X12738Y28324D01*
Y25025D01*
X12106Y24394D01*
X12042Y24421D01*
X11950Y24433D01*
X11858Y24421D01*
X11773Y24385D01*
X11700Y24329D01*
X11643Y24256D01*
X11608Y24170D01*
X11596Y24079D01*
X11608Y23987D01*
X11635Y23922D01*
X11525Y23812D01*
X10661D01*
Y23926D01*
X10239D01*
Y23474D01*
X10661D01*
Y23588D01*
X11571D01*
X11614Y23596D01*
X11651Y23621D01*
X11794Y23763D01*
X11858Y23737D01*
X11950Y23725D01*
X12042Y23737D01*
X12127Y23772D01*
X12200Y23828D01*
X12257Y23902D01*
X12292Y23987D01*
X12301Y24055D01*
X12352Y24061D01*
X12365Y24031D01*
X12413Y23968D01*
X12476Y23920D01*
X12546Y23891D01*
Y23115D01*
X11944Y22513D01*
X9748D01*
X9743Y22549D01*
X9713Y22622D01*
X9665Y22685D01*
X9602Y22733D01*
X9529Y22763D01*
X9450Y22774D01*
X9371Y22763D01*
X9350Y22755D01*
X8985Y23119D01*
X9010Y23165D01*
X9050Y23157D01*
X9124Y23172D01*
X9186Y23214D01*
X9223Y23268D01*
X9257Y23267D01*
X9274Y23262D01*
X9277Y23241D01*
X9307Y23168D01*
X9355Y23105D01*
X9418Y23057D01*
X9491Y23027D01*
X9570Y23016D01*
X9649Y23027D01*
X9722Y23057D01*
X9785Y23105D01*
X9833Y23168D01*
X9861Y23236D01*
X11874D01*
X11903Y23166D01*
X11951Y23103D01*
X12014Y23055D01*
X12087Y23025D01*
X12166Y23014D01*
X12245Y23025D01*
X12318Y23055D01*
X12381Y23103D01*
X12429Y23166D01*
X12459Y23239D01*
X12470Y23318D01*
X12459Y23397D01*
X12429Y23470D01*
X12381Y23533D01*
X12318Y23581D01*
X12245Y23612D01*
X12166Y23622D01*
X12087Y23612D01*
X12014Y23581D01*
X11951Y23533D01*
X11903Y23470D01*
X11874Y23400D01*
X9863D01*
X9833Y23472D01*
X9785Y23535D01*
X9722Y23583D01*
X9652Y23612D01*
Y23885D01*
X9646Y23916D01*
X9628Y23943D01*
X9203Y24368D01*
Y25415D01*
X9253Y25430D01*
X9264Y25414D01*
X9326Y25372D01*
X9400Y25357D01*
X9474Y25372D01*
X9536Y25414D01*
X9578Y25476D01*
X9593Y25550D01*
X9578Y25624D01*
X9536Y25686D01*
X9512Y25702D01*
Y26270D01*
X9562Y26274D01*
X9572Y26226D01*
X9614Y26164D01*
X9676Y26122D01*
X9750Y26107D01*
X9824Y26122D01*
X9886Y26164D01*
X9928Y26226D01*
X9943Y26300D01*
X9928Y26374D01*
X9886Y26436D01*
X9886Y26438D01*
X9966Y26518D01*
X10475D01*
X10518Y26527D01*
X10554Y26551D01*
X11162Y27159D01*
X11210Y27136D01*
X11222Y27076D01*
X11264Y27014D01*
X11326Y26972D01*
X11400Y26957D01*
X11474Y26972D01*
X11536Y27014D01*
X11578Y27076D01*
X11593Y27150D01*
X11587Y27178D01*
X11882Y27473D01*
X11906Y27509D01*
X11915Y27552D01*
Y27569D01*
X11943Y27612D01*
X11955Y27670D01*
Y28123D01*
X11943Y28181D01*
X11910Y28231D01*
X11861Y28264D01*
X11802Y28275D01*
X11744Y28264D01*
X11695Y28231D01*
X11673Y28198D01*
X11671Y28197D01*
X11619D01*
X11617Y28198D01*
X11595Y28231D01*
X11570Y28248D01*
Y28283D01*
X11573Y28300D01*
Y28842D01*
X11567Y28874D01*
X11566Y28875D01*
X11593Y28925D01*
X12011D01*
X12026Y28875D01*
D02*
G37*
G36*
X19604Y28340D02*
X19619Y28317D01*
X19669Y28284D01*
X19727Y28273D01*
X19841D01*
Y26600D01*
X19556Y26315D01*
X19492Y26342D01*
X19400Y26354D01*
X19308Y26342D01*
X19244Y26315D01*
X19076Y26483D01*
X19099Y26530D01*
X19130Y26526D01*
X19209Y26537D01*
X19282Y26567D01*
X19345Y26615D01*
X19393Y26678D01*
X19423Y26751D01*
X19434Y26830D01*
X19423Y26909D01*
X19395Y26978D01*
X19461Y27044D01*
X19478Y27071D01*
X19479Y27076D01*
X19536Y27114D01*
X19578Y27176D01*
X19593Y27250D01*
X19578Y27324D01*
X19536Y27386D01*
X19485Y27421D01*
Y27523D01*
X19510Y27540D01*
X19543Y27589D01*
X19555Y27648D01*
Y28100D01*
X19543Y28159D01*
X19510Y28208D01*
X19467Y28237D01*
X19464Y28265D01*
X19468Y28291D01*
X19482Y28297D01*
X19544Y28344D01*
X19545Y28345D01*
X19604Y28340D01*
D02*
G37*
G36*
X13340Y28189D02*
X13417Y28130D01*
X13506Y28093D01*
X13602Y28081D01*
X13798D01*
X13894Y28093D01*
X13983Y28130D01*
X14060Y28189D01*
X14061Y28191D01*
X14111Y28174D01*
Y27721D01*
X14064Y27705D01*
X14060Y27711D01*
X13983Y27770D01*
X13894Y27807D01*
X13798Y27819D01*
X13602D01*
X13506Y27807D01*
X13417Y27770D01*
X13340Y27711D01*
X13336Y27705D01*
X13289Y27721D01*
Y28179D01*
X13336Y28195D01*
X13340Y28189D01*
D02*
G37*
G36*
X22477Y33108D02*
X22525Y33045D01*
X22588Y32997D01*
X22658Y32968D01*
Y27252D01*
X22588Y27223D01*
X22525Y27175D01*
X22477Y27112D01*
X22453Y27055D01*
X22403Y27064D01*
Y33156D01*
X22453Y33165D01*
X22477Y33108D01*
D02*
G37*
G36*
X20072Y33167D02*
Y32972D01*
X19014Y31915D01*
X18992Y31882D01*
X18984Y31842D01*
Y31518D01*
X18980Y31515D01*
X18958Y31483D01*
X18956Y31482D01*
X18908D01*
X18882Y31513D01*
X18880Y31515D01*
X18879Y31516D01*
X18876Y31520D01*
Y32776D01*
X19028D01*
Y33188D01*
X20051D01*
X20072Y33167D01*
D02*
G37*
G36*
X10098Y30902D02*
X10120Y30869D01*
X10169Y30836D01*
X10228Y30825D01*
X10286Y30836D01*
X10335Y30869D01*
X10355Y30898D01*
X10404Y30900D01*
X10430Y30866D01*
X10422Y30815D01*
X10395Y30795D01*
X10347Y30732D01*
X10317Y30659D01*
X10306Y30580D01*
X10317Y30501D01*
X10347Y30428D01*
X10385Y30379D01*
X10365Y30329D01*
X9987D01*
X9528Y30788D01*
X9554Y30833D01*
X9598Y30825D01*
X9656Y30836D01*
X9706Y30869D01*
X9727Y30902D01*
X9729Y30903D01*
X9781D01*
X9783Y30902D01*
X9805Y30869D01*
X9854Y30836D01*
X9913Y30825D01*
X9971Y30836D01*
X10020Y30869D01*
X10042Y30902D01*
X10044Y30903D01*
X10096D01*
X10098Y30902D01*
D02*
G37*
G36*
X18100Y32142D02*
X18082Y32089D01*
X18041Y32083D01*
X17968Y32053D01*
X17905Y32005D01*
X17857Y31942D01*
X17827Y31869D01*
X17816Y31790D01*
X17827Y31711D01*
X17857Y31638D01*
X17887Y31599D01*
X17859Y31554D01*
X17828Y31560D01*
X17769Y31548D01*
X17720Y31515D01*
X17698Y31483D01*
X17696Y31482D01*
X17644D01*
X17642Y31483D01*
X17620Y31515D01*
X17571Y31548D01*
X17513Y31560D01*
X17454Y31548D01*
X17405Y31515D01*
X17383Y31483D01*
X17381Y31482D01*
X17329D01*
X17327Y31483D01*
X17306Y31515D01*
X17256Y31548D01*
X17198Y31560D01*
X17139Y31548D01*
X17090Y31515D01*
X17089Y31515D01*
X16534Y32070D01*
X16524Y32146D01*
X16493Y32219D01*
X16445Y32282D01*
X16382Y32330D01*
X16309Y32360D01*
X16253Y32368D01*
X16256Y32418D01*
X17823D01*
X18100Y32142D01*
D02*
G37*
G36*
X11722Y33117D02*
Y32922D01*
X11414Y32615D01*
X11392Y32582D01*
X11384Y32542D01*
Y31541D01*
X11380Y31538D01*
X11358Y31505D01*
X11356Y31504D01*
X11308D01*
X11282Y31535D01*
X11280Y31538D01*
X11279Y31539D01*
X11276Y31543D01*
Y32776D01*
X11428D01*
Y33188D01*
X11651D01*
X11722Y33117D01*
D02*
G37*
G36*
X13340Y31189D02*
X13417Y31130D01*
X13506Y31093D01*
X13602Y31081D01*
X13798D01*
X13894Y31093D01*
X13983Y31130D01*
X14060Y31189D01*
X14062Y31192D01*
X14109Y31176D01*
Y30724D01*
X14062Y30708D01*
X14060Y30711D01*
X13983Y30770D01*
X13894Y30807D01*
X13798Y30819D01*
X13602D01*
X13506Y30807D01*
X13417Y30770D01*
X13340Y30711D01*
X13337Y30707D01*
X13290Y30723D01*
Y31177D01*
X13337Y31193D01*
X13340Y31189D01*
D02*
G37*
G36*
X20528Y32826D02*
X20568Y32800D01*
Y29818D01*
X20251D01*
X20238Y29826D01*
X20180Y29838D01*
X19727D01*
X19669Y29826D01*
X19619Y29793D01*
X19586Y29743D01*
X19575Y29685D01*
X19586Y29627D01*
X19619Y29577D01*
X19669Y29544D01*
X19727Y29532D01*
X20180D01*
X20238Y29544D01*
X20251Y29553D01*
X20568D01*
Y29405D01*
X20350Y29188D01*
X20251D01*
X20238Y29196D01*
X20180Y29208D01*
X19727D01*
X19669Y29196D01*
X19656Y29188D01*
X18794D01*
X18784Y29238D01*
X18807Y29247D01*
X18870Y29295D01*
X18918Y29358D01*
X18948Y29431D01*
X18959Y29510D01*
X18948Y29589D01*
X18918Y29662D01*
X18870Y29725D01*
X18807Y29773D01*
X18734Y29803D01*
X18655Y29814D01*
X18576Y29803D01*
X18503Y29773D01*
X18440Y29725D01*
X18392Y29662D01*
X18362Y29589D01*
X18351Y29510D01*
X18354Y29490D01*
X18321Y29452D01*
X16998D01*
X16981Y29478D01*
X16931Y29511D01*
X16873Y29523D01*
X16420D01*
X16362Y29511D01*
X16312Y29478D01*
X16279Y29428D01*
X16268Y29370D01*
X16279Y29312D01*
X16312Y29262D01*
X16345Y29240D01*
X16346Y29239D01*
Y29187D01*
X16345Y29185D01*
X16312Y29163D01*
X16279Y29113D01*
X16268Y29055D01*
X16279Y28997D01*
X16312Y28947D01*
X16345Y28925D01*
X16346Y28924D01*
Y28872D01*
X16345Y28870D01*
X16312Y28848D01*
X16279Y28799D01*
X16268Y28740D01*
X16279Y28682D01*
X16312Y28632D01*
X16345Y28610D01*
X16346Y28609D01*
Y28557D01*
X16345Y28555D01*
X16312Y28533D01*
X16279Y28484D01*
X16268Y28425D01*
X16279Y28367D01*
X16312Y28317D01*
X16328Y28307D01*
X16333Y28257D01*
X16142Y28067D01*
X15150D01*
X15142Y28082D01*
X15144Y28092D01*
X15172Y28131D01*
X15348D01*
X15444Y28143D01*
X15533Y28180D01*
X15610Y28239D01*
X15668Y28315D01*
X15705Y28404D01*
X15718Y28500D01*
X15705Y28596D01*
X15668Y28685D01*
X15610Y28761D01*
X15533Y28820D01*
X15444Y28857D01*
X15348Y28869D01*
X15152D01*
X15056Y28857D01*
X14967Y28820D01*
X14890Y28761D01*
X14832Y28685D01*
X14795Y28596D01*
X14748Y28606D01*
Y29394D01*
X14795Y29404D01*
X14832Y29315D01*
X14890Y29239D01*
X14967Y29180D01*
X15056Y29143D01*
X15152Y29131D01*
X15348D01*
X15444Y29143D01*
X15533Y29180D01*
X15610Y29239D01*
X15668Y29315D01*
X15705Y29404D01*
X15718Y29500D01*
X15705Y29596D01*
X15668Y29685D01*
X15610Y29761D01*
X15533Y29820D01*
X15444Y29857D01*
X15348Y29869D01*
X15152D01*
X15056Y29857D01*
X14967Y29820D01*
X14890Y29761D01*
X14832Y29685D01*
X14795Y29596D01*
X14748Y29606D01*
Y30394D01*
X14795Y30404D01*
X14832Y30315D01*
X14890Y30239D01*
X14967Y30180D01*
X15056Y30143D01*
X15152Y30131D01*
X15348D01*
X15444Y30143D01*
X15533Y30180D01*
X15610Y30239D01*
X15668Y30315D01*
X15679Y30342D01*
X15728Y30329D01*
X15726Y30315D01*
X15737Y30236D01*
X15767Y30163D01*
X15815Y30100D01*
X15878Y30052D01*
X15951Y30022D01*
X16030Y30011D01*
X16109Y30022D01*
X16182Y30052D01*
X16245Y30100D01*
X16261Y30122D01*
X16302Y30093D01*
X16279Y30058D01*
X16268Y30000D01*
X16279Y29942D01*
X16312Y29892D01*
X16362Y29859D01*
X16420Y29847D01*
X16873D01*
X16931Y29859D01*
X16981Y29892D01*
X17014Y29942D01*
X17025Y30000D01*
X17014Y30058D01*
X16981Y30108D01*
X16948Y30130D01*
X16947Y30131D01*
Y30184D01*
X16948Y30185D01*
X16981Y30207D01*
X17014Y30257D01*
X17025Y30315D01*
X17014Y30373D01*
X16981Y30423D01*
X16948Y30445D01*
X16947Y30446D01*
Y30498D01*
X16948Y30500D01*
X16981Y30522D01*
X17014Y30572D01*
X17025Y30630D01*
X17016Y30677D01*
X17020Y30683D01*
X17079Y30695D01*
X17586Y30187D01*
X17613Y30170D01*
X17644Y30163D01*
X18261D01*
X18293Y30170D01*
X18320Y30187D01*
X18753Y30621D01*
X18842D01*
X18852Y30571D01*
X18833Y30563D01*
X18770Y30515D01*
X18722Y30452D01*
X18692Y30379D01*
X18681Y30300D01*
X18692Y30221D01*
X18722Y30148D01*
X18770Y30085D01*
X18833Y30037D01*
X18906Y30007D01*
X18985Y29996D01*
X19064Y30007D01*
X19137Y30037D01*
X19200Y30085D01*
X19248Y30148D01*
X19278Y30221D01*
X19280Y30233D01*
X19602D01*
X19619Y30207D01*
X19669Y30174D01*
X19727Y30162D01*
X20180D01*
X20238Y30174D01*
X20288Y30207D01*
X20321Y30257D01*
X20332Y30315D01*
X20321Y30373D01*
X20288Y30423D01*
X20255Y30445D01*
X20254Y30446D01*
Y30498D01*
X20255Y30500D01*
X20288Y30522D01*
X20321Y30572D01*
X20332Y30630D01*
X20321Y30688D01*
X20288Y30738D01*
X20238Y30771D01*
X20212Y30776D01*
Y32008D01*
X20282Y32037D01*
X20345Y32085D01*
X20393Y32148D01*
X20423Y32221D01*
X20434Y32300D01*
X20423Y32379D01*
X20393Y32452D01*
X20345Y32515D01*
X20282Y32563D01*
X20209Y32593D01*
X20130Y32604D01*
X20056Y32594D01*
X20052Y32598D01*
X20042Y32651D01*
X20218Y32826D01*
X20528D01*
D02*
G37*
G36*
X19832Y32378D02*
X19836Y32374D01*
X19826Y32300D01*
X19837Y32221D01*
X19867Y32148D01*
X19915Y32085D01*
X19978Y32037D01*
X20048Y32008D01*
Y30782D01*
X19727D01*
X19669Y30771D01*
X19619Y30738D01*
X19586Y30688D01*
X19575Y30630D01*
X19586Y30572D01*
X19619Y30522D01*
X19652Y30500D01*
X19653Y30498D01*
Y30446D01*
X19652Y30445D01*
X19619Y30423D01*
X19602Y30397D01*
X19271D01*
X19248Y30452D01*
X19200Y30515D01*
X19137Y30563D01*
X19118Y30571D01*
X19128Y30621D01*
X19250D01*
X19281Y30627D01*
X19308Y30645D01*
X19461Y30797D01*
X19478Y30824D01*
X19479Y30826D01*
X19510Y30847D01*
X19543Y30896D01*
X19555Y30955D01*
Y31407D01*
X19543Y31466D01*
X19510Y31515D01*
X19461Y31548D01*
X19402Y31560D01*
X19344Y31548D01*
X19295Y31515D01*
X19273Y31483D01*
X19271Y31482D01*
X19223D01*
X19197Y31513D01*
X19195Y31515D01*
X19194Y31516D01*
X19191Y31520D01*
Y31799D01*
X19779Y32388D01*
X19832Y32378D01*
D02*
G37*
%LPC*%
G36*
X7798Y30819D02*
X7602D01*
X7506Y30807D01*
X7417Y30770D01*
X7340Y30711D01*
X7282Y30635D01*
X7245Y30546D01*
X7232Y30450D01*
X7245Y30354D01*
X7282Y30265D01*
X7340Y30189D01*
X7417Y30130D01*
X7506Y30093D01*
X7602Y30081D01*
X7798D01*
X7894Y30093D01*
X7983Y30130D01*
X8060Y30189D01*
X8118Y30265D01*
X8155Y30354D01*
X8168Y30450D01*
X8155Y30546D01*
X8118Y30635D01*
X8060Y30711D01*
X7983Y30770D01*
X7894Y30807D01*
X7798Y30819D01*
D02*
G37*
G36*
Y29819D02*
X7602D01*
X7506Y29807D01*
X7417Y29770D01*
X7340Y29711D01*
X7282Y29635D01*
X7245Y29546D01*
X7232Y29450D01*
X7245Y29354D01*
X7282Y29265D01*
X7340Y29189D01*
X7417Y29130D01*
X7506Y29093D01*
X7602Y29081D01*
X7798D01*
X7894Y29093D01*
X7983Y29130D01*
X8060Y29189D01*
X8118Y29265D01*
X8155Y29354D01*
X8168Y29450D01*
X8155Y29546D01*
X8118Y29635D01*
X8060Y29711D01*
X7983Y29770D01*
X7894Y29807D01*
X7798Y29819D01*
D02*
G37*
%LPD*%
D10*
X29045Y31550D02*
D03*
X28455D02*
D03*
X24745Y27550D02*
D03*
X24155D02*
D03*
X29045Y30950D02*
D03*
X28455D02*
D03*
D11*
X22200Y34456D02*
D03*
Y33944D02*
D03*
X26400Y33956D02*
D03*
Y33444D02*
D03*
X17000Y37006D02*
D03*
Y36494D02*
D03*
D12*
X15600Y36385D02*
D03*
Y37015D02*
D03*
X27750Y33435D02*
D03*
Y34065D02*
D03*
X12750Y33585D02*
D03*
Y34215D02*
D03*
D16*
X29422Y29300D02*
D03*
X28378D02*
D03*
X29422Y30150D02*
D03*
X28378D02*
D03*
D19*
X15505Y15478D02*
X15755Y15229D01*
Y15045D02*
Y15229D01*
Y15045D02*
X17350Y13450D01*
X18800Y33595D02*
X20272Y35067D01*
X8500Y22462D02*
Y26484D01*
Y22462D02*
X8650Y22312D01*
X9724Y27402D02*
X9913Y27590D01*
X9418Y27402D02*
X9724D01*
X8500Y26484D02*
X9418Y27402D01*
X9913Y27590D02*
Y27896D01*
X14367Y29198D02*
Y34896D01*
X14259Y29090D02*
X14367Y29198D01*
X13803Y28866D02*
X14215Y29278D01*
Y29622D01*
X14213Y29624D02*
X14215Y29622D01*
X14213Y29624D02*
Y30276D01*
X14215Y30278D01*
Y30622D01*
X14213Y30624D02*
X14215Y30622D01*
X14213Y30624D02*
Y31276D01*
X14215Y31278D01*
Y31622D01*
X14213Y31624D02*
X14215Y31622D01*
X14213Y31624D02*
Y32276D01*
X14215Y27622D02*
Y28192D01*
X14259Y28237D01*
Y29090D01*
X14215Y27146D02*
Y27622D01*
Y26836D02*
Y27146D01*
X13803Y27034D02*
X14250Y26587D01*
X13429Y27034D02*
X13803D01*
X13185Y27278D02*
X13429Y27034D01*
X13185Y27278D02*
Y27622D01*
X13185Y27622D02*
X13185Y27622D01*
X13185Y27622D02*
Y28622D01*
X13429Y28866D01*
X14215Y26836D02*
X14752Y26299D01*
X14250Y25669D02*
Y26587D01*
X14752Y26299D02*
X15049D01*
X14250Y25669D02*
X14444Y25475D01*
X13429Y28866D02*
X13803D01*
X16185Y27964D02*
X16646Y28425D01*
X14932Y27964D02*
X16185D01*
X14932D02*
Y28003D01*
X14163Y35101D02*
X14367Y34896D01*
X8814Y34950D02*
X14100D01*
X14213Y34837D01*
Y34624D02*
Y34837D01*
Y34624D02*
X14215Y34622D01*
Y34278D02*
Y34622D01*
X14213Y34276D02*
X14215Y34278D01*
X14213Y33624D02*
Y34276D01*
Y33624D02*
X14215Y33622D01*
Y33278D02*
Y33622D01*
X14213Y33276D02*
X14215Y33278D01*
X14213Y32624D02*
Y33276D01*
Y32624D02*
X14215Y32622D01*
Y32278D02*
Y32622D01*
X14213Y32276D02*
X14215Y32278D01*
X8663Y35101D02*
X14163D01*
X7119Y36431D02*
X8644Y34906D01*
X8770D01*
X8814Y34950D01*
X30169Y26406D02*
X30886Y25689D01*
Y25472D02*
Y25689D01*
Y21447D02*
Y23219D01*
X29351Y19912D02*
X30886Y21447D01*
X30469Y36156D02*
X31240Y35384D01*
Y24370D02*
Y35384D01*
X30394Y23524D02*
X31240Y24370D01*
X28927Y23524D02*
X30394D01*
X27067D02*
X27815D01*
X26811Y23780D02*
X27067Y23524D01*
X26811Y23780D02*
Y24862D01*
X14875Y25475D02*
X15050Y25300D01*
X14444Y25475D02*
X14875D01*
X17712Y27402D02*
Y27759D01*
Y27398D02*
Y27402D01*
X17571Y27261D02*
X17575D01*
X8300Y26599D02*
X9598Y27896D01*
X8650Y21350D02*
Y22312D01*
X8385Y28448D02*
X9046D01*
X7971Y28034D02*
X8385Y28448D01*
X7534Y28034D02*
X7971D01*
X7000Y27500D02*
X7534Y28034D01*
X8300Y21050D02*
Y26599D01*
X7700Y20450D02*
X8300Y21050D01*
X7000Y19850D02*
Y27500D01*
Y19850D02*
X13100D01*
X13700Y20450D01*
X16774Y27874D02*
X17198D01*
X15900Y27000D02*
X16774Y27874D01*
X15900Y21150D02*
Y27000D01*
X15250Y20500D02*
X15900Y21150D01*
X17712Y27759D02*
X17828Y27874D01*
X16100Y26986D02*
X16526Y27413D01*
X16300Y26972D02*
X16589Y27261D01*
X16500Y26950D02*
X16660Y27110D01*
X17660D01*
X18450Y27867D02*
X18457Y27874D01*
X16723Y26959D02*
X17723D01*
X16651Y26887D02*
X16723Y26959D01*
X16651Y24599D02*
Y26887D01*
Y24599D02*
X16750Y24500D01*
X18750Y27852D02*
X18772Y27874D01*
X17778Y26800D02*
X18178Y27200D01*
X16855Y26800D02*
X17778D01*
X16855Y25545D02*
Y26800D01*
Y25545D02*
X16900Y25500D01*
X16526Y27413D02*
X17513D01*
Y27874D01*
X17575Y27261D02*
X17712Y27398D01*
X17723Y26959D02*
X18164Y27400D01*
X19087Y27463D02*
Y27874D01*
X18178Y27200D02*
X18550D01*
X17660Y27110D02*
X18143Y27593D01*
Y27874D01*
X18550Y27200D02*
X18750Y27400D01*
Y27852D01*
X18693Y27068D02*
X19087Y27463D01*
X18632Y27068D02*
X18693D01*
X18164Y27400D02*
X18400D01*
X18450Y27450D01*
Y27867D01*
X18613Y27049D02*
X18632Y27068D01*
X18240Y27049D02*
X18613D01*
X17840Y26649D02*
X18240Y27049D01*
X17249Y26649D02*
X17840D01*
X19400Y27350D02*
X19402Y27352D01*
X16149Y22437D02*
Y26937D01*
X16100Y26986D02*
X16149Y26937D01*
X16250Y21400D02*
Y22336D01*
X16149Y22437D02*
X16250Y22336D01*
X16350Y22550D02*
X16450D01*
X16600Y23350D02*
Y24436D01*
X16500Y24536D02*
X16600Y24436D01*
X16500Y24536D02*
Y26950D01*
X16750Y24500D02*
X16900D01*
X17150Y26550D02*
X17249Y26649D01*
X17150Y26400D02*
Y26550D01*
X14613Y18337D02*
X15505Y17445D01*
Y15478D02*
Y17445D01*
X17751Y14049D02*
X18350Y13450D01*
X17751Y14049D02*
Y14616D01*
X16646Y15721D02*
X17751Y14616D01*
X16646Y15721D02*
Y17768D01*
X16250Y18164D02*
Y21400D01*
Y18164D02*
X16646Y17768D01*
X17350Y14450D02*
Y14804D01*
X16495Y15659D02*
X17350Y14804D01*
X16495Y15659D02*
Y17705D01*
X16099Y18101D02*
X16495Y17705D01*
X16099Y18101D02*
Y18751D01*
X15250Y19600D02*
X16099Y18751D01*
X15250Y19600D02*
Y20500D01*
X7000Y15250D02*
X8750Y13500D01*
X7000Y15250D02*
Y19850D01*
X7119Y36431D02*
Y39879D01*
X15050Y25300D02*
X15250Y25500D01*
X6717Y40580D02*
X7081Y40216D01*
X7259D01*
X7456Y40019D01*
Y39541D02*
Y40019D01*
X7270Y39355D02*
X7456Y39541D01*
X7270Y36494D02*
Y39355D01*
Y36494D02*
X8663Y35101D01*
X15049Y26299D02*
X15250Y26500D01*
X18772Y31181D02*
Y32977D01*
X18800Y33005D01*
X19087Y31181D02*
Y31842D01*
X20300Y33055D01*
X20272Y35067D02*
X22633D01*
X23350Y34350D01*
X20300Y33645D02*
X20520Y33865D01*
Y34457D01*
X20979Y34916D01*
X22570D01*
X23350Y23200D02*
Y34350D01*
Y23200D02*
X24300Y22250D01*
Y22100D02*
Y22250D01*
X22300Y21100D02*
Y33557D01*
X22900Y34157D01*
Y34586D01*
X22570Y34916D02*
X22900Y34586D01*
X11172Y32977D02*
X11200Y33005D01*
X11487Y32542D02*
X11950Y33005D01*
X11487Y31204D02*
Y32542D01*
X11172Y31204D02*
Y32977D01*
D20*
X12429Y14941D02*
X15404D01*
X12410Y14960D02*
X12429Y14941D01*
X16230Y32067D02*
X16421D01*
X17198Y31290D01*
X15250Y32500D02*
X17857D01*
X16533Y31417D02*
X16545D01*
X16280Y31670D02*
X16533Y31417D01*
X21150Y17550D02*
Y17757D01*
X17904Y21004D02*
X21150Y17757D01*
X16030Y30315D02*
X16646D01*
X15689Y30500D02*
X15945Y30756D01*
X15250Y30500D02*
X15689D01*
X18080Y29750D02*
Y29910D01*
X18015Y29685D02*
X18080Y29750D01*
X16646Y29685D02*
X18015D01*
X18494Y34114D02*
X18504D01*
X18080Y33720D02*
Y35080D01*
Y33720D02*
X18140Y33660D01*
X18080Y35080D02*
X18810Y35810D01*
X10036Y27271D02*
X10228Y27463D01*
X9644Y27271D02*
X10036D01*
X8730Y26357D02*
X9644Y27271D01*
X9450Y22470D02*
Y22538D01*
X8730Y23258D02*
X9450Y22538D01*
X8730Y23258D02*
Y26357D01*
X10228Y27463D02*
Y27896D01*
X11860Y17766D02*
X14528Y20434D01*
Y24194D01*
X12628Y23081D02*
Y24183D01*
X14665Y28081D02*
Y31915D01*
X15250Y32500D01*
X14498Y29144D02*
Y35067D01*
X14390Y29036D02*
X14498Y29144D01*
X14379Y27381D02*
X14660Y27100D01*
X14379Y27381D02*
Y28171D01*
X14390Y28183D01*
Y29036D01*
X14660Y27100D02*
X15530D01*
X16440Y28010D01*
X15413Y31005D02*
X15512Y31104D01*
X14933Y31005D02*
X15413D01*
X15512Y31104D02*
X15530Y31122D01*
X14235Y35330D02*
X14498Y35067D01*
X10948Y17500D02*
X11213Y17766D01*
X10259Y17500D02*
X10948D01*
X11213Y17766D02*
X11860D01*
X27844Y21523D02*
Y22904D01*
X27776Y21454D02*
X27844Y21523D01*
X27776Y21454D02*
X27880Y21350D01*
X14646Y33288D02*
Y35434D01*
Y33288D02*
X14994Y32940D01*
X14756Y33334D02*
X15010Y33080D01*
X14756Y33334D02*
Y34276D01*
X14980Y34500D01*
X9450Y22470D02*
X9489Y22431D01*
X11978D01*
X12628Y23081D01*
X10857Y27649D02*
Y27896D01*
X10148Y26940D02*
X10857Y27649D01*
X9791Y26940D02*
X10148D01*
X9570Y23320D02*
Y23885D01*
X9120Y24334D02*
X9570Y23885D01*
X9120Y24334D02*
Y26269D01*
X9791Y26940D01*
X9572Y23318D02*
X12166D01*
X9570Y23320D02*
X9572Y23318D01*
X11200Y21700D02*
X11950D01*
X12320Y30652D02*
Y31040D01*
X19402Y27102D02*
Y27352D01*
X20130Y30630D02*
Y32300D01*
X21490Y18870D02*
Y20500D01*
X14613Y18337D02*
Y18350D01*
X16300Y22780D02*
X16530Y22550D01*
X15221Y37006D02*
X16299D01*
X29422Y29180D02*
X29640D01*
X29650Y25625D02*
Y29170D01*
X24875Y25760D02*
X27531D01*
X18608Y34218D02*
X19430Y35040D01*
X21350Y33500D02*
Y33934D01*
X19540Y30000D02*
X19550D01*
X19361D02*
X19550D01*
X18240Y29910D02*
X19450D01*
X15600Y36385D02*
X16240D01*
X12690Y31910D02*
Y33585D01*
X16020Y29685D02*
X16055D01*
X16020Y29650D02*
X16055Y29685D01*
X30780Y33880D02*
Y34344D01*
X27129Y34065D02*
X27750D01*
X11172Y27896D02*
Y28508D01*
X11160Y28520D02*
X11172Y28508D01*
X10260Y36640D02*
X14790D01*
X14930Y36500D01*
Y35799D02*
Y36500D01*
Y35799D02*
X15404Y35325D01*
X16663D01*
X21917Y35810D02*
X21968Y35861D01*
X18810Y35810D02*
X21917D01*
X18140Y33610D02*
Y33660D01*
X18040Y33710D02*
X18140Y33610D01*
X16490Y33710D02*
X18040D01*
X16360Y33840D02*
X16490Y33710D01*
X19954Y30630D02*
X20130D01*
X21968Y35861D02*
X24561D01*
X24950Y36250D01*
X11950Y33595D02*
X12210Y33335D01*
Y31830D02*
Y33335D01*
X22400Y35420D02*
X22840D01*
X23720Y34540D01*
Y26260D02*
Y34540D01*
Y26260D02*
X24060Y25920D01*
X15090Y36875D02*
X15221Y37006D01*
X15090Y36285D02*
Y36875D01*
Y36285D02*
X15685Y35690D01*
X20505Y35420D02*
X21739D01*
X22069Y35751D01*
X25719D01*
X26590Y34880D01*
X29100Y28040D02*
X29280Y27860D01*
Y24964D02*
Y27860D01*
Y24964D02*
X29650Y24594D01*
X30169D01*
X19450Y29910D02*
X19540Y30000D01*
X15600Y36385D02*
X16105D01*
X16310Y36180D01*
Y35680D02*
Y36180D01*
X16646Y29685D02*
X17855D01*
X16055D02*
X16646D01*
X17198Y31181D02*
Y31290D01*
X17250Y12350D02*
X17350Y12450D01*
X15010Y12350D02*
X17250D01*
X15520Y31670D02*
X16280D01*
X15350Y31500D02*
X15520Y31670D01*
X15250Y31500D02*
X15350D01*
X21744Y34456D02*
X22200D01*
X21700Y34500D02*
X21744Y34456D01*
X21250Y34500D02*
X21700D01*
X17712Y27402D02*
X17828Y27518D01*
X17571Y27261D02*
X17712Y27402D01*
X7700Y17500D02*
X10259D01*
X26765Y30088D02*
Y30360D01*
X26726Y30399D02*
X26765Y30360D01*
X26726Y30399D02*
Y30688D01*
X14550Y37246D02*
X14950D01*
X15181Y37015D01*
X15600D01*
X16290D01*
X16299Y37006D01*
X17000D01*
X25938Y30688D02*
X25940D01*
X26009Y30619D01*
X26027D01*
X26400Y33444D02*
X27070D01*
X27079Y33435D01*
X27750D01*
X29422Y29300D02*
Y30150D01*
X17850Y24600D02*
Y25000D01*
X18050Y25200D01*
Y25600D01*
X16240Y36385D02*
X16349Y36494D01*
X17000D01*
X7700Y15728D02*
X10259D01*
X26400Y33956D02*
X27020D01*
X27129Y34065D01*
X19400Y27250D02*
Y27350D01*
X19550Y29370D02*
X19954D01*
X19540Y29380D02*
X19550Y29370D01*
X19540Y29380D02*
Y29990D01*
X19550Y30000D01*
X19954D01*
X18559Y15728D02*
X18931Y16100D01*
X24400D01*
X11685Y33270D02*
X11950Y33005D01*
X9450Y33270D02*
X11685D01*
X9270Y33450D02*
X9450Y33270D01*
X7700Y33450D02*
X9270D01*
X21360Y33944D02*
X22200D01*
X21350Y33934D02*
X21360Y33944D01*
X21250Y33500D02*
X21350D01*
X24850Y30570D02*
X25338D01*
X24830Y30550D02*
X24850Y30570D01*
X25338Y30885D02*
X25620D01*
X25630Y30895D01*
Y31505D01*
X25620Y31515D02*
X25630Y31505D01*
X25338Y31515D02*
X25620D01*
X24745Y25890D02*
X24875Y25760D01*
X27531Y25500D02*
Y25760D01*
X17729Y18330D02*
X18559Y17500D01*
X16680Y18330D02*
X17729D01*
X7918Y37448D02*
Y39879D01*
X7630Y37160D02*
X7918Y37448D01*
X9046Y29707D02*
X10869D01*
X10973Y29811D01*
X11532D01*
X11950Y29393D02*
X12354D01*
X30469Y34344D02*
X30780D01*
X27270Y34320D02*
X27740D01*
X27750Y34310D01*
Y34065D02*
Y34310D01*
X28306Y34350D02*
X28650D01*
X29990Y35260D02*
Y35690D01*
Y35260D02*
X30000Y35250D01*
X30469D01*
X29775Y25500D02*
X30169D01*
X29700Y25575D02*
X29775Y25500D01*
X29700Y25575D02*
Y27030D01*
X24745Y27260D02*
X24755Y27250D01*
X25160D01*
X26000Y33444D02*
X26400D01*
X25820Y33264D02*
X26000Y33444D01*
X25820Y32312D02*
Y33264D01*
X13700Y35954D02*
X14550D01*
X25010Y15710D02*
X25400Y16100D01*
X23750Y15710D02*
X25010D01*
X23520Y15940D02*
X23750Y15710D01*
X20950Y15940D02*
X23520D01*
X20760Y15750D02*
X20950Y15940D01*
X20760Y13940D02*
Y15750D01*
Y13940D02*
X21150Y13550D01*
X18143Y31181D02*
Y31767D01*
X18120Y31790D02*
X18143Y31767D01*
X18457Y31181D02*
Y32100D01*
X18447Y32111D02*
X18457Y32100D01*
X18247Y32111D02*
X18447D01*
X17857Y32500D02*
X18247Y32111D01*
X14980Y34500D02*
X15250D01*
X15010Y33080D02*
X18485D01*
X18560Y33005D01*
X18800D01*
X20085Y33270D02*
X20300Y33055D01*
X17020Y33270D02*
X20085D01*
X16790Y33500D02*
X17020Y33270D01*
X15250Y33500D02*
X16790D01*
X16646Y29370D02*
X18515D01*
X18655Y29510D01*
X19000Y30315D02*
X19954D01*
X18985Y30300D02*
X19000Y30315D01*
X7375Y33005D02*
X11200D01*
X7200Y33180D02*
X7375Y33005D01*
X7200Y33180D02*
Y34440D01*
X7210Y34450D01*
X7700D01*
X22740Y26960D02*
Y33260D01*
X11200Y34370D02*
X11420Y34590D01*
X11200Y33595D02*
Y34370D01*
X11950Y30022D02*
X12354D01*
X11940Y30012D02*
X11950Y30022D01*
X11940Y29403D02*
Y30012D01*
Y29403D02*
X11950Y29393D01*
X12354Y30022D02*
X12750D01*
X12760Y30032D01*
Y31840D01*
X12690Y31910D02*
X12760Y31840D01*
X12690Y33585D02*
X12750D01*
X8190Y29707D02*
X9046D01*
X7947Y29950D02*
X8190Y29707D01*
X7375Y29950D02*
X7947D01*
X7200Y30125D02*
X7375Y29950D01*
X7200Y30125D02*
Y31440D01*
X7210Y31450D01*
X7700D01*
X9040Y36230D02*
Y40125D01*
X8905Y40260D02*
X9040Y40125D01*
X7836Y40260D02*
X8905D01*
X7517Y40580D02*
X7836Y40260D01*
X11113Y29393D02*
X11200Y29480D01*
X9046Y29393D02*
X11113D01*
X18457Y27874D02*
Y28392D01*
X18625Y28560D01*
X19330D01*
X18010Y32940D02*
X18420Y32530D01*
X14994Y32940D02*
X18010D01*
X14500Y35580D02*
X14646Y35434D01*
X10659Y35580D02*
X14500D01*
X9929Y36310D02*
X10659Y35580D01*
X9929Y36310D02*
Y36809D01*
X12560Y39440D01*
X13610D01*
X13886Y39716D01*
Y40124D01*
X13430Y40580D02*
X13886Y40124D01*
X13167Y40580D02*
X13430D01*
X7250Y28450D02*
X7700D01*
X7080Y28620D02*
X7250Y28450D01*
X7080Y28620D02*
Y31550D01*
X7380Y31850D01*
X8350D01*
X9953Y30247D01*
X10941D01*
X11032Y30337D01*
X12354D01*
X18424Y29969D02*
X19330D01*
X19361Y30000D01*
X29640Y29180D02*
X29650Y29170D01*
X29422Y29180D02*
Y29300D01*
X13450Y34450D02*
X13700D01*
X13215Y34215D02*
X13450Y34450D01*
X17644Y30246D02*
X18261D01*
X18719Y30703D01*
X19250D01*
X19402Y30855D01*
Y31181D01*
X13250Y39560D02*
X13569Y39879D01*
X9995Y39560D02*
X13250D01*
X9810Y39375D02*
X9995Y39560D01*
X9810Y35500D02*
Y39375D01*
Y35500D02*
X9980Y35330D01*
X14235D01*
X16440Y28010D02*
X16730D01*
X17000Y28280D01*
X18053D01*
X18143Y28190D01*
Y27874D02*
Y28190D01*
X26578Y31672D02*
X26735Y31515D01*
X26765D01*
X8600Y27980D02*
X9090D01*
X9420Y28310D01*
X10283D01*
X10826Y28853D01*
X11480D01*
X11491Y28842D01*
Y28300D02*
Y28842D01*
X11487Y28297D02*
X11491Y28300D01*
X11487Y27896D02*
Y28297D01*
X14106Y39617D02*
X14368Y39879D01*
X14106Y37606D02*
Y39617D01*
X13750Y37250D02*
X14106Y37606D01*
X12320Y30652D02*
X12354D01*
X10610Y30580D02*
X11555D01*
X11802Y30827D01*
Y31204D01*
X27650Y38150D02*
X29390Y36410D01*
X23690Y17160D02*
X27880Y21350D01*
X20760Y17160D02*
X23690D01*
X17390Y20530D02*
X20760Y17160D01*
X19130Y26830D02*
X19402Y27102D01*
X17828Y30682D02*
Y31181D01*
Y30682D02*
X17930Y30580D01*
X12125Y12388D02*
X13763Y10750D01*
X12125Y12388D02*
Y13363D01*
X12762Y14000D01*
X15400D01*
X21250Y20500D02*
X21490D01*
X8750Y12500D02*
X9250Y13000D01*
X10450D01*
X12410Y14960D01*
X21336Y36546D02*
X23940Y39150D01*
X24950D01*
X10155Y28763D02*
X10280Y28888D01*
X9046Y28763D02*
X10155D01*
X22716Y37196D02*
X26750D01*
X21735Y36215D02*
X22716Y37196D01*
X20135Y36215D02*
X21735D01*
X13030Y33040D02*
Y33985D01*
X12800Y34215D02*
X13030Y33985D01*
X27750Y33435D02*
X27855Y33630D01*
X28030Y33805D01*
Y34626D01*
X27831Y34825D02*
Y35250D01*
X17600Y24580D02*
X17850Y24600D01*
X17600Y22340D02*
Y24580D01*
Y22340D02*
X18840Y21100D01*
X21630D01*
X22820Y19910D01*
Y17880D02*
Y19910D01*
Y17880D02*
X23150Y17550D01*
X24400Y13450D02*
X24790Y13840D01*
X27360D01*
X27750Y13450D01*
X12260Y33750D02*
X12425Y33585D01*
X12260Y33750D02*
Y34590D01*
X10500Y25096D02*
X10625Y24971D01*
X12219D01*
X10450Y24300D02*
X10500Y24970D01*
Y25096D01*
Y25600D01*
X14410Y17110D02*
X14800Y17500D01*
X11641Y17110D02*
X14410D01*
X10259Y15728D02*
X11641Y17110D01*
X16000Y15030D02*
Y15728D01*
X17172Y13858D02*
X17758D01*
X17850Y13210D02*
X18000Y13060D01*
X18550D01*
X18740Y13250D01*
Y14659D01*
X18559Y14840D02*
X18740Y14659D01*
X18559Y14840D02*
Y15728D01*
X17850Y12950D02*
X18350Y12450D01*
X17758Y13858D02*
X17850Y13765D01*
X16000Y15030D02*
X17172Y13858D01*
X26400Y33956D02*
X26496Y34125D01*
X26921Y34550D01*
Y35031D01*
X26750Y35202D02*
X26921Y35031D01*
X26750Y35202D02*
Y35904D01*
X21250Y24500D02*
X21750D01*
X21880Y24370D01*
Y21080D02*
Y24370D01*
Y21080D02*
X24150Y18810D01*
X19402Y27352D02*
Y27874D01*
X26560Y30688D02*
X26568D01*
X26726D01*
X26962D01*
X12750Y34215D02*
X12800D01*
X13215D01*
X11532Y29811D02*
X11940Y29403D01*
X17850Y12950D02*
Y13210D01*
Y13765D01*
X12425Y33585D02*
X12690D01*
X24745Y25890D02*
Y27260D01*
Y27550D01*
X29650Y25625D02*
X29700Y25575D01*
X27831Y34825D02*
X28030Y34626D01*
X28306Y34350D01*
X11950Y21700D02*
X12500Y22250D01*
X17081Y30809D02*
X17644Y30246D01*
X16470Y30630D02*
X16646D01*
X15945Y30756D02*
Y30896D01*
X16163Y30936D02*
X16470Y30630D01*
X16163Y30936D02*
Y30986D01*
X16028Y31122D02*
X16163Y30986D01*
X15530Y31122D02*
X16028D01*
X16671Y30809D02*
X17081D01*
X16033Y31447D02*
X16671Y30809D01*
X17828Y27518D02*
Y27874D01*
X16300Y27001D02*
X16560Y27261D01*
X20390Y37660D02*
Y40200D01*
X20010Y40580D02*
X20390Y40200D01*
X19667Y40580D02*
X20010D01*
X16300Y22780D02*
Y26972D01*
Y27001D01*
X16560Y27261D02*
X16589D01*
X17571D01*
X17421Y34691D02*
X20390Y37660D01*
X17421Y34045D02*
Y34691D01*
X20069Y37495D02*
Y39879D01*
X16929Y34355D02*
X20069Y37495D01*
X16929Y34035D02*
Y34355D01*
X14450Y18350D02*
X14613D01*
D21*
X26765Y31515D02*
X29250Y34000D01*
X25500Y28305D02*
Y30200D01*
X24745Y27550D02*
X25500Y28305D01*
X29250Y34000D02*
Y35350D01*
X27337Y37263D02*
X29250Y35350D01*
X27337Y37263D02*
Y37466D01*
X26700Y38102D02*
X27337Y37466D01*
X26700Y38102D02*
Y41100D01*
X28278D01*
X28550Y41372D01*
X28863Y41684D01*
X30150D01*
D22*
X10470Y29078D02*
X12354D01*
X10280Y28888D02*
X10470Y29078D01*
X9059Y28750D02*
X10142D01*
X10280Y28888D01*
X13137Y29750D02*
Y33642D01*
X13035Y34450D02*
X13450D01*
X9046Y28763D02*
X9059Y28750D01*
X13137Y29337D02*
Y29750D01*
X12354Y29078D02*
X12878D01*
X13137Y29337D01*
X13700Y34205D02*
Y34450D01*
X12800Y34215D02*
X13035Y34450D01*
X12354Y29707D02*
X13095D01*
X13137Y29750D01*
Y33642D02*
X13700Y34205D01*
D23*
X9702Y27131D02*
X10094D01*
X10104Y27141D01*
X8950Y26379D02*
X9702Y27131D01*
X12366Y28750D02*
X12850D01*
Y24979D02*
Y28750D01*
X8950Y23450D02*
Y26379D01*
Y23450D02*
X9050Y23350D01*
X10508Y27862D02*
X10543Y27896D01*
X10508Y27533D02*
Y27862D01*
X10343Y27369D02*
X10508Y27533D01*
X10331Y27369D02*
X10343D01*
X10104Y27141D02*
X10331Y27369D01*
X11571Y23700D02*
X11950Y24079D01*
X10450Y23700D02*
X11571D01*
X11172Y27567D02*
X11172D01*
X27562Y31830D02*
X27842Y31550D01*
X29045Y30526D02*
X29422Y30150D01*
X29045Y30526D02*
Y30950D01*
X28390Y30885D02*
X28455Y30950D01*
X27562Y30885D02*
X28390D01*
X27562Y31200D02*
X28254D01*
X28291Y31237D01*
X28733D01*
X29045Y31550D01*
X27842D02*
X28455D01*
X20550Y25229D02*
Y28750D01*
X19963D02*
X20550D01*
X12354Y28763D02*
X12366Y28750D01*
X11950Y24079D02*
X12850Y24979D01*
X12354Y26404D02*
Y28448D01*
X11950Y26000D02*
X12354Y26404D01*
X11750Y26200D02*
X11950Y26000D01*
X10500Y26200D02*
X11750D01*
X19954Y28740D02*
X19963Y28750D01*
X19400Y24079D02*
X20550Y25229D01*
X19321Y24000D02*
X19400Y24079D01*
X17850Y24000D02*
X19321D01*
X19954Y26554D02*
Y28425D01*
X19400Y26000D02*
X19954Y26554D01*
X18900Y26500D02*
X19400Y26000D01*
X18350Y26500D02*
X18900D01*
X24900Y31200D02*
X25338D01*
X24155Y30455D02*
X24900Y31200D01*
X24155Y27550D02*
Y30455D01*
X9849Y26800D02*
X10254D01*
X9400Y26351D02*
X9849Y26800D01*
X9400Y25550D02*
Y26351D01*
X10254Y26800D02*
X10915Y27461D01*
X9919Y26631D02*
X10475D01*
X9750Y26461D02*
X9919Y26631D01*
X9750Y26300D02*
Y26461D01*
X11802Y27552D02*
Y27896D01*
X11400Y27150D02*
X11802Y27552D01*
X18050Y26200D02*
X18350Y26500D01*
X11342Y27398D02*
X11487Y27544D01*
Y27896D01*
X10475Y26631D02*
X11242Y27398D01*
X11342D01*
X10915Y27461D02*
X11066D01*
X11172Y27567D01*
X11172D02*
Y27896D01*
X17697Y36358D02*
Y40315D01*
X16663Y35325D02*
X17697Y36358D01*
D24*
X22698Y13002D02*
X23377D01*
X21500Y14200D02*
X22698Y13002D01*
X28378Y14200D02*
Y29300D01*
Y13822D02*
Y14200D01*
X21150Y14550D02*
X21500Y14200D01*
X23377Y13002D02*
X23698Y13323D01*
Y13523D01*
X24375Y14200D01*
X28378D01*
Y13822D02*
X28750Y13450D01*
X28378Y29300D02*
Y30150D01*
X28128Y29900D02*
X28378Y30150D01*
X27400Y29900D02*
X28128D01*
X29537Y40328D02*
X30150Y39716D01*
X28550Y40328D02*
X29537D01*
X4815Y13138D02*
Y14138D01*
Y13138D02*
X6003Y11950D01*
X6450D01*
X7750D02*
X10250D01*
X12800Y14500D01*
Y13500D02*
X14450Y11850D01*
X23800D01*
X25400Y13450D01*
D25*
X26952Y31692D02*
D03*
X25781Y31515D02*
D03*
X26962Y30688D02*
D03*
X26568D02*
D03*
X26027Y30619D02*
D03*
X26952Y31338D02*
D03*
X26568D02*
D03*
X26578Y31672D02*
D03*
D26*
X23150Y15550D02*
D03*
Y14550D02*
D03*
Y13550D02*
D03*
Y17550D02*
D03*
X21150Y13550D02*
D03*
Y14550D02*
D03*
Y15550D02*
D03*
X14800Y15500D02*
D03*
Y14500D02*
D03*
Y13500D02*
D03*
Y17500D02*
D03*
X12800Y13500D02*
D03*
Y14500D02*
D03*
Y15500D02*
D03*
X19400Y24079D02*
D03*
Y26000D02*
D03*
X11950Y24079D02*
D03*
Y26000D02*
D03*
X24606Y34055D02*
D03*
X5315D02*
D03*
X24606Y11220D02*
D03*
X5315D02*
D03*
X24400Y16100D02*
D03*
X25400D02*
D03*
X26400D02*
D03*
X27750Y13450D02*
D03*
X28750D02*
D03*
X29750D02*
D03*
X24400D02*
D03*
X25400D02*
D03*
X26400D02*
D03*
X18350Y12450D02*
D03*
X17350D02*
D03*
X18350Y14450D02*
D03*
Y13450D02*
D03*
X17350D02*
D03*
Y14450D02*
D03*
X24950Y40150D02*
D03*
Y39150D02*
D03*
Y38150D02*
D03*
X9750Y12500D02*
D03*
X8750D02*
D03*
X9750Y14500D02*
D03*
Y13500D02*
D03*
X8750D02*
D03*
Y14500D02*
D03*
X27650Y40150D02*
D03*
Y39150D02*
D03*
Y38150D02*
D03*
X4815Y13138D02*
D03*
X5815Y14138D02*
D03*
X4815D02*
D03*
X5815Y15138D02*
D03*
X4815D02*
D03*
X5815Y16138D02*
D03*
X4815D02*
D03*
X5815Y17138D02*
D03*
X4815D02*
D03*
X5815Y18138D02*
D03*
X4815D02*
D03*
X5815Y19138D02*
D03*
X4815D02*
D03*
X5815Y20138D02*
D03*
X4815D02*
D03*
X5815Y21138D02*
D03*
X4815D02*
D03*
X5815Y22138D02*
D03*
X4815D02*
D03*
X5815Y23138D02*
D03*
X4815D02*
D03*
X5815Y24138D02*
D03*
X4815D02*
D03*
X5815Y25138D02*
D03*
X4815D02*
D03*
X5815Y26138D02*
D03*
X4815D02*
D03*
X5815Y27138D02*
D03*
X4815D02*
D03*
X5815Y28138D02*
D03*
X4815D02*
D03*
X5815Y29138D02*
D03*
X4815D02*
D03*
X5815Y30138D02*
D03*
X4815D02*
D03*
X5815Y31138D02*
D03*
X4815D02*
D03*
X5815Y32138D02*
D03*
X4815D02*
D03*
D27*
X21150Y17550D02*
D03*
X12800Y17500D02*
D03*
X5815Y13138D02*
D03*
D28*
X30150Y39716D02*
D03*
D29*
Y41684D02*
D03*
D30*
X16000Y17500D02*
D03*
Y15728D02*
D03*
X18559Y17500D02*
D03*
Y15728D02*
D03*
X7700Y17500D02*
D03*
Y15728D02*
D03*
X10259Y17500D02*
D03*
Y15728D02*
D03*
D31*
X13700Y21450D02*
D03*
Y22450D02*
D03*
Y23450D02*
D03*
Y24450D02*
D03*
Y25450D02*
D03*
Y26450D02*
D03*
Y27450D02*
D03*
Y28450D02*
D03*
Y29450D02*
D03*
Y30450D02*
D03*
Y31450D02*
D03*
Y32450D02*
D03*
Y33450D02*
D03*
Y34450D02*
D03*
X7700Y33450D02*
D03*
Y32450D02*
D03*
Y31450D02*
D03*
Y30450D02*
D03*
Y29450D02*
D03*
Y28450D02*
D03*
Y27450D02*
D03*
Y26450D02*
D03*
Y25450D02*
D03*
Y24450D02*
D03*
Y23450D02*
D03*
X13700Y20450D02*
D03*
X7700Y22450D02*
D03*
Y21450D02*
D03*
Y20450D02*
D03*
X21250Y21500D02*
D03*
Y22500D02*
D03*
Y23500D02*
D03*
Y24500D02*
D03*
Y25500D02*
D03*
Y26500D02*
D03*
Y27500D02*
D03*
Y28500D02*
D03*
Y29500D02*
D03*
Y30500D02*
D03*
Y31500D02*
D03*
Y32500D02*
D03*
Y33500D02*
D03*
Y34500D02*
D03*
X15250Y33500D02*
D03*
Y32500D02*
D03*
Y31500D02*
D03*
Y30500D02*
D03*
Y29500D02*
D03*
Y28500D02*
D03*
Y27500D02*
D03*
Y26500D02*
D03*
Y25500D02*
D03*
Y24500D02*
D03*
Y23500D02*
D03*
X21250Y20500D02*
D03*
X15250Y22500D02*
D03*
Y21500D02*
D03*
Y20500D02*
D03*
D32*
X7700Y34450D02*
D03*
X15250Y34500D02*
D03*
D33*
X8316Y40580D02*
D03*
X7918Y39879D02*
D03*
X7517Y40580D02*
D03*
X7119Y39879D02*
D03*
X8717D02*
D03*
X6717Y40580D02*
D03*
X6320Y39879D02*
D03*
X5922Y40580D02*
D03*
X14766D02*
D03*
X14368Y39879D02*
D03*
X13967Y40580D02*
D03*
X13569Y39879D02*
D03*
X15167D02*
D03*
X13167Y40580D02*
D03*
X12770Y39879D02*
D03*
X12372Y40580D02*
D03*
X21266D02*
D03*
X20868Y39879D02*
D03*
X20467Y40580D02*
D03*
X20069Y39879D02*
D03*
X21667D02*
D03*
X19667Y40580D02*
D03*
X19270Y39879D02*
D03*
X18872Y40580D02*
D03*
D34*
X9820Y41580D02*
D03*
X4820D02*
D03*
X16270D02*
D03*
X11270D02*
D03*
X22770D02*
D03*
X17770D02*
D03*
D35*
X10613Y10750D02*
D03*
X11400D02*
D03*
X12188D02*
D03*
X12975D02*
D03*
X13763D02*
D03*
D36*
X14550D02*
D03*
D37*
X15404Y14941D02*
D03*
X16230Y32067D02*
D03*
X16545Y31417D02*
D03*
X17904Y21004D02*
D03*
X16030Y30315D02*
D03*
X18240Y29910D02*
D03*
X18494Y34114D02*
D03*
X12628Y24183D02*
D03*
X11860Y17766D02*
D03*
X30886Y25472D02*
D03*
Y23219D02*
D03*
X29351Y19912D02*
D03*
X28927Y23524D02*
D03*
X27815D02*
D03*
X27844Y22904D02*
D03*
X26811Y24862D02*
D03*
X12166Y23318D02*
D03*
X11160Y28520D02*
D03*
X10260Y36640D02*
D03*
X24950Y36250D02*
D03*
X16360Y33840D02*
D03*
X20130Y32300D02*
D03*
X18140Y33610D02*
D03*
X12210Y31830D02*
D03*
X22400Y35420D02*
D03*
X24060Y25920D02*
D03*
X15685Y35690D02*
D03*
X20505Y35420D02*
D03*
X26590Y34880D02*
D03*
X29100Y28040D02*
D03*
X16310Y35680D02*
D03*
X9450Y22470D02*
D03*
X15010Y12350D02*
D03*
X9570Y23320D02*
D03*
X19430Y35040D02*
D03*
X16020Y29685D02*
D03*
X24830Y30550D02*
D03*
X16680Y18330D02*
D03*
X7630Y37160D02*
D03*
X30780Y33880D02*
D03*
X27270Y34320D02*
D03*
X28650Y34350D02*
D03*
X29990Y35690D02*
D03*
X29700Y27030D02*
D03*
X25160Y27250D02*
D03*
X13700Y35954D02*
D03*
X18120Y31790D02*
D03*
X18655Y29510D02*
D03*
X18985Y30300D02*
D03*
X22740Y26960D02*
D03*
Y33260D02*
D03*
X11420Y34590D02*
D03*
X9040Y36230D02*
D03*
X11200Y29480D02*
D03*
X19330Y28560D02*
D03*
X18420Y32530D02*
D03*
X8600Y27980D02*
D03*
X13750Y37250D02*
D03*
X12320Y31040D02*
D03*
X10610Y30580D02*
D03*
X29390Y36410D02*
D03*
X17390Y20530D02*
D03*
X19130Y26830D02*
D03*
X17930Y30580D02*
D03*
X15400Y14000D02*
D03*
X21490Y18870D02*
D03*
X21336Y36546D02*
D03*
X10280Y28888D02*
D03*
X20135Y36215D02*
D03*
X13030Y33040D02*
D03*
X12260Y34590D02*
D03*
X12219Y24971D02*
D03*
X24150Y18810D02*
D03*
X17421Y34045D02*
D03*
X17697Y40315D02*
D03*
D38*
X14528Y24194D02*
D03*
X14597Y28081D02*
D03*
X14932Y28003D02*
D03*
X11200Y21700D02*
D03*
X11400Y27150D02*
D03*
X9750Y26300D02*
D03*
X9400Y25550D02*
D03*
X9050Y23350D02*
D03*
X8650Y21350D02*
D03*
X16250Y21400D02*
D03*
X16450Y22550D02*
D03*
X16600Y23350D02*
D03*
X16900Y24500D02*
D03*
Y25500D02*
D03*
X17150Y26400D02*
D03*
X19400Y27250D02*
D03*
X24300Y22100D02*
D03*
X22300Y21100D02*
D03*
X12500Y22250D02*
D03*
X15945Y30896D02*
D03*
X16033Y31447D02*
D03*
X16929Y34035D02*
D03*
X14450Y18350D02*
D03*
D39*
X14933Y31005D02*
D03*
D40*
X25938Y30688D02*
D03*
D41*
X26726D02*
D03*
D42*
X26765Y31515D02*
D03*
D43*
X25781D02*
D03*
D44*
X27080Y32312D02*
D03*
X26765D02*
D03*
X26450D02*
D03*
X26135D02*
D03*
X25820D02*
D03*
Y30088D02*
D03*
X26135D02*
D03*
X26450D02*
D03*
X26765D02*
D03*
X27080D02*
D03*
D45*
X25338Y31830D02*
D03*
Y31515D02*
D03*
Y31200D02*
D03*
Y30885D02*
D03*
Y30570D02*
D03*
X27562D02*
D03*
Y30885D02*
D03*
Y31200D02*
D03*
Y31515D02*
D03*
Y31830D02*
D03*
D46*
X11950Y33595D02*
D03*
Y33005D02*
D03*
X11200Y33595D02*
D03*
Y33005D02*
D03*
X20300Y33645D02*
D03*
Y33055D02*
D03*
X18800Y33595D02*
D03*
Y33005D02*
D03*
D47*
X28550Y40328D02*
D03*
Y41372D02*
D03*
D48*
X10500Y25600D02*
D03*
Y26200D02*
D03*
X10450Y24300D02*
D03*
Y23700D02*
D03*
X18050Y25600D02*
D03*
Y26200D02*
D03*
X17850Y24600D02*
D03*
Y24000D02*
D03*
D49*
X19954Y30630D02*
D03*
Y30315D02*
D03*
Y30000D02*
D03*
Y29685D02*
D03*
Y29370D02*
D03*
Y29055D02*
D03*
Y28740D02*
D03*
Y28425D02*
D03*
X16646D02*
D03*
Y28740D02*
D03*
Y29055D02*
D03*
Y29370D02*
D03*
Y29685D02*
D03*
Y30000D02*
D03*
Y30315D02*
D03*
Y30630D02*
D03*
X12354Y30652D02*
D03*
Y30337D02*
D03*
Y30022D02*
D03*
Y29707D02*
D03*
Y29393D02*
D03*
Y29078D02*
D03*
Y28763D02*
D03*
Y28448D02*
D03*
X9046D02*
D03*
Y28763D02*
D03*
Y29078D02*
D03*
Y29393D02*
D03*
Y29707D02*
D03*
Y30022D02*
D03*
Y30337D02*
D03*
Y30652D02*
D03*
D50*
X19402Y27874D02*
D03*
X19087D02*
D03*
X18772D02*
D03*
X18457D02*
D03*
X18143D02*
D03*
X17828D02*
D03*
X17513D02*
D03*
X17198D02*
D03*
Y31181D02*
D03*
X17513D02*
D03*
X17828D02*
D03*
X18143D02*
D03*
X18457D02*
D03*
X18772D02*
D03*
X19087D02*
D03*
X19402D02*
D03*
X11802Y27896D02*
D03*
X11487D02*
D03*
X11172D02*
D03*
X10857D02*
D03*
X10543D02*
D03*
X10228D02*
D03*
X9913D02*
D03*
X9598D02*
D03*
Y31204D02*
D03*
X9913D02*
D03*
X10228D02*
D03*
X10543D02*
D03*
X10857D02*
D03*
X11172D02*
D03*
X11487D02*
D03*
X11802D02*
D03*
D51*
X26750Y37196D02*
D03*
Y35904D02*
D03*
X14550Y35954D02*
D03*
Y37246D02*
D03*
D52*
X30469Y36156D02*
D03*
Y35250D02*
D03*
Y34344D02*
D03*
X30169Y26406D02*
D03*
Y25500D02*
D03*
Y24594D02*
D03*
D53*
X27831Y35250D02*
D03*
X27531Y25500D02*
D03*
D54*
X6450Y11950D02*
D03*
X7750D02*
D03*
D55*
X16646Y28740D02*
X16656Y28750D01*
X17750D01*
X18055Y29055D01*
X19954D01*
X20700Y29700D02*
Y33950D01*
Y29350D02*
Y29700D01*
X20685Y29685D02*
X20700Y29700D01*
X19954Y29685D02*
X20685D01*
X19954Y29055D02*
X20405D01*
X20700Y29350D01*
Y33950D02*
X21250Y34500D01*
D56*
X26300Y30050D02*
D03*
D57*
X27000Y30200D02*
D03*
D58*
X27426Y31944D02*
D03*
D59*
X25450Y31975D02*
D03*
D60*
X25525Y30400D02*
D03*
M02*
