M48
;Layer_Color=6321
;FILE_FORMAT=2:4
INCH,LZ
;TYPE=PLATED
T1F00S00C0.0122
T2F00S00C0.0157
T3F00S00C0.0197
T4F00S00C0.0280
T5F00S00C0.0315
T6F00S00C0.0320
T7F00S00C0.0350
T8F00S00C0.0394
T9F00S00C0.0400
T10F00S00C0.0433
T11F00S00C0.0984
T12F00S00C0.1280
T13F00S00C0.1378
;TYPE=NON_PLATED
T14F00S00C0.0354
%
T01
X026027Y030619
X026568Y030688
X026962
X026952Y031338
Y031692
X026578Y031672
X026568Y031338
X025781Y031515
T02
X01625Y0214
X01645Y02255
X0166Y02335
X0169Y0245
Y0255
X01715Y0264
X0194Y02725
X015945Y030896
X0223Y0211
X0243Y0221
X014528Y024194
X014597Y028081
X014932Y028003
X0114Y02715
X00975Y0263
X0094Y02555
X00905Y02335
X00865Y02135
X0112Y0217
X0125Y02225
X01445Y01835
X016033Y031447
X016929Y034035
T03
X0194Y024079
Y026
X01195
Y024079
X014933Y031005
T04
X01501Y01235
X0154Y014
X015404Y014941
X01668Y01833
X01739Y02053
X017904Y021004
X02149Y01887
X02415Y01881
X029351Y019912
X028927Y023524
X027815
X027844Y022904
X026811Y024862
X02406Y02592
X02274Y02696
X02516Y02725
X02483Y03055
X018985Y0303
X018655Y02951
X01824Y02991
X01793Y03058
X01603Y030315
X01602Y029685
X01933Y02856
X01913Y02683
X0297Y02703
X0291Y02804
X030886Y025472
Y023219
X012166Y023318
X012628Y024183
X012219Y024971
X00957Y02332
X00945Y02247
X0086Y02798
X01028Y028888
X01116Y02852
X0112Y02948
X01061Y03058
X01232Y03104
X01186Y017766
X01221Y03183
X01303Y03304
X01226Y03459
X01142
X01026Y03664
X00904Y03623
X00763Y03716
X01375Y03725
X0137Y035954
X015685Y03569
X01631Y03568
X01636Y03384
X017421Y034045
X018494Y034114
X01814Y03361
X01842Y03253
X01812Y03179
X016545Y031417
X01623Y032067
X02013Y0323
X01943Y03504
X020505Y03542
X020135Y036215
X021336Y036546
X0224Y03542
X02274Y03326
X02495Y03625
X02659Y03488
X02727Y03432
X02865Y03435
X03078Y03388
X02999Y03569
X02939Y03641
X017697Y040315
T05
X010613Y01075
X0114
X012188
X012975
X013763
X01455
T06
X0128Y0135
Y0145
Y0155
X0148
Y0145
Y0135
X02115Y01355
Y01455
Y01555
X02315
Y01455
Y01355
Y01755
X02115
X0148Y0175
X0128
T07
X00632Y039879
X007119
X007918
X008717
X008316Y04058
X007517
X006717
X005922
X012372
X013167
X013967
X014766
X014368Y039879
X013569
X01277
X015167
X01927
X020069
X020868
X021667
X021266Y04058
X020467
X019667
X018872
T08
X016Y015728
Y0175
X018559
Y015728
X010259
Y0175
X0077
Y015728
T09
X004815Y013138
X005815
Y014138
X004815
Y015138
X005815
X00875Y0145
X00975
Y0135
Y0125
X00875
Y0135
X01735Y01345
Y01245
X01835
Y01345
Y01445
X01735
X0244Y01345
X0254
X0264
X02775
X02875
X02975
X0264Y0161
X0254
X0244
X005815Y016138
X004815
Y017138
X005815
Y018138
X004815
Y019138
X005815
Y020138
X004815
Y021138
X005815
Y022138
X004815
Y023138
X005815
Y024138
X004815
Y025138
X005815
Y026138
X004815
Y027138
X005815
Y028138
X004815
Y029138
X005815
Y030138
X004815
Y031138
X005815
Y032138
X004815
X02495Y03815
Y03915
Y04015
X02765
Y03915
Y03815
T10
X02125Y0205
Y0215
Y0225
Y0235
Y0245
Y0255
Y0265
Y0275
Y0285
Y0295
Y0305
X01525
Y0295
Y0285
Y0275
Y0265
Y0255
Y0245
Y0235
Y0225
Y0215
Y0205
X0137Y02045
Y02145
Y02245
Y02345
Y02445
Y02545
Y02645
Y02745
Y02845
Y02945
Y03045
X0077
Y02945
Y02845
Y02745
Y02645
Y02545
Y02445
Y02345
Y02245
Y02145
Y02045
Y03145
Y03245
Y03345
Y03445
X0137
Y03345
Y03245
Y03145
X01525Y0315
Y0325
Y0335
Y0345
X02125
Y0335
Y0325
Y0315
T11
X03015Y039716
Y041684
T12
X00482Y04158
X00982
X01127
X01627
X01777
X02277
T13
X005315Y01122
X024606
X005315Y034055
X024606
T14
X028856Y019634
Y021366
Y025134
Y026866
M30
