G04 Layer_Color=15132400*
%FSLAX24Y24*%
%MOIN*%
G70*
G01*
G75*
%ADD19C,0.0100*%
%ADD20C,0.0059*%
%ADD22C,0.0197*%
%ADD61C,0.0098*%
%ADD62C,0.0236*%
%ADD63C,0.0079*%
%ADD64C,0.0098*%
%ADD65C,0.0060*%
%ADD66C,0.0080*%
D19*
X7070Y13138D02*
G03*
X7070Y13138I-255J0D01*
G01*
X20625Y12040D02*
Y18050D01*
Y12040D02*
X23675D01*
Y18050D01*
X20625D02*
X23675D01*
X12275Y11990D02*
Y18000D01*
Y11990D02*
X15325D01*
Y18000D01*
X12275D02*
X15325D01*
X15508Y17992D02*
X18953D01*
X19051D01*
Y15236D02*
Y17992D01*
X15508Y15236D02*
X19051D01*
X15508D02*
Y17992D01*
X7208D02*
X10653D01*
X10751D01*
Y15236D02*
Y17992D01*
X7208Y15236D02*
X10751D01*
X7208D02*
Y17992D01*
X4190Y37635D02*
Y37981D01*
Y37619D02*
X10489D01*
Y37981D01*
Y41580D01*
Y43709D01*
X4190D02*
X10489D01*
X4190Y41580D02*
Y43709D01*
Y37981D02*
Y41580D01*
X10640Y37635D02*
Y37981D01*
Y37619D02*
X16939D01*
Y37981D01*
Y41580D01*
Y43709D01*
X10640D02*
X16939D01*
X10640Y41580D02*
Y43709D01*
Y37981D02*
Y41580D01*
X17140Y37635D02*
Y37981D01*
Y37619D02*
X23439D01*
Y37981D01*
Y41580D01*
Y43709D01*
X17140D02*
X23439D01*
X17140Y41580D02*
Y43709D01*
Y37981D02*
Y41580D01*
X6315Y12638D02*
Y32638D01*
X4315D02*
X6315D01*
X4315Y12638D02*
Y32638D01*
Y12638D02*
X6315D01*
X5223Y36533D02*
X5123Y36633D01*
X4923D01*
X4823Y36533D01*
Y36433D01*
X4923Y36333D01*
X5123D01*
X5223Y36233D01*
Y36133D01*
X5123Y36033D01*
X4923D01*
X4823Y36133D01*
X5523Y36533D02*
Y36433D01*
X5423D01*
X5623D01*
X5523D01*
Y36133D01*
X5623Y36033D01*
X6222D02*
X6022D01*
X5922Y36133D01*
Y36333D01*
X6022Y36433D01*
X6222D01*
X6322Y36333D01*
Y36233D01*
X5922D01*
X6522Y35834D02*
Y36433D01*
X6822D01*
X6922Y36333D01*
Y36133D01*
X6822Y36033D01*
X6522D01*
X7122Y35834D02*
Y36433D01*
X7422D01*
X7522Y36333D01*
Y36133D01*
X7422Y36033D01*
X7122D01*
X8022D02*
X7822D01*
X7722Y36133D01*
Y36333D01*
X7822Y36433D01*
X8022D01*
X8122Y36333D01*
Y36233D01*
X7722D01*
X8322Y36433D02*
Y36033D01*
Y36233D01*
X8422Y36333D01*
X8522Y36433D01*
X8622D01*
X8922Y35933D02*
X9321D01*
X9521Y36033D02*
Y36433D01*
X9721Y36633D01*
X9921Y36433D01*
Y36033D01*
Y36333D01*
X9521D01*
X10121Y36433D02*
Y36033D01*
Y36233D01*
X10221Y36333D01*
X10321Y36433D01*
X10421D01*
X11121Y36633D02*
Y36033D01*
X10821D01*
X10721Y36133D01*
Y36333D01*
X10821Y36433D01*
X11121D01*
X11321D02*
Y36133D01*
X11421Y36033D01*
X11721D01*
Y36433D01*
X11921Y36033D02*
X12120D01*
X12021D01*
Y36433D01*
X11921D01*
X12420Y36033D02*
Y36433D01*
X12720D01*
X12820Y36333D01*
Y36033D01*
X13120D02*
X13320D01*
X13420Y36133D01*
Y36333D01*
X13320Y36433D01*
X13120D01*
X13020Y36333D01*
Y36133D01*
X13120Y36033D01*
X15049Y36152D02*
Y36551D01*
X15249Y36751D01*
X15449Y36551D01*
Y36152D01*
Y36451D01*
X15049D01*
X15649Y36751D02*
Y36252D01*
X15749Y36152D01*
X15949D01*
X16049Y36252D01*
Y36751D01*
X16249D02*
X16649Y36152D01*
Y36751D02*
X16249Y36152D01*
X16849Y36052D02*
X17249D01*
X17448Y36152D02*
Y36551D01*
X17648Y36751D01*
X17848Y36551D01*
Y36152D01*
Y36451D01*
X17448D01*
X18048Y36551D02*
Y36152D01*
Y36352D01*
X18148Y36451D01*
X18248Y36551D01*
X18348D01*
X19048Y36751D02*
Y36152D01*
X18748D01*
X18648Y36252D01*
Y36451D01*
X18748Y36551D01*
X19048D01*
X19248D02*
Y36252D01*
X19348Y36152D01*
X19648D01*
Y36551D01*
X19848Y36152D02*
X20048D01*
X19948D01*
Y36551D01*
X19848D01*
X20347Y36152D02*
Y36551D01*
X20647D01*
X20747Y36451D01*
Y36152D01*
X21047D02*
X21247D01*
X21347Y36252D01*
Y36451D01*
X21247Y36551D01*
X21047D01*
X20947Y36451D01*
Y36252D01*
X21047Y36152D01*
X16000Y14900D02*
X15900Y15000D01*
X15700D01*
X15600Y14900D01*
Y14800D01*
X15700Y14700D01*
X15900D01*
X16000Y14600D01*
Y14500D01*
X15900Y14400D01*
X15700D01*
X15600Y14500D01*
X16600Y14400D02*
X16200D01*
X16600Y14800D01*
Y14900D01*
X16500Y15000D01*
X16300D01*
X16200Y14900D01*
X7700Y14950D02*
X7600Y15050D01*
X7400D01*
X7300Y14950D01*
Y14850D01*
X7400Y14750D01*
X7600D01*
X7700Y14650D01*
Y14550D01*
X7600Y14450D01*
X7400D01*
X7300Y14550D01*
X7900Y14450D02*
X8100D01*
X8000D01*
Y15050D01*
X7900Y14950D01*
X22150Y27250D02*
X22050Y27150D01*
Y26950D01*
X22150Y26850D01*
X22550D01*
X22650Y26950D01*
Y27150D01*
X22550Y27250D01*
X22050Y27450D02*
Y27850D01*
X22150D01*
X22550Y27450D01*
X22650D01*
X23200Y34250D02*
X23300Y34350D01*
Y34550D01*
X23200Y34650D01*
X22800D01*
X22700Y34550D01*
Y34350D01*
X22800Y34250D01*
X23200Y34050D02*
X23300Y33950D01*
Y33750D01*
X23200Y33650D01*
X23100D01*
X23000Y33750D01*
X22900Y33650D01*
X22800D01*
X22700Y33750D01*
Y33950D01*
X22800Y34050D01*
X22900D01*
X23000Y33950D01*
X23100Y34050D01*
X23200D01*
X23000Y33950D02*
Y33750D01*
X10260Y31080D02*
X10160Y31180D01*
X9960D01*
X9860Y31080D01*
Y30680D01*
X9960Y30580D01*
X10160D01*
X10260Y30680D01*
X10460D02*
X10560Y30580D01*
X10760D01*
X10860Y30680D01*
Y31080D01*
X10760Y31180D01*
X10560D01*
X10460Y31080D01*
Y30980D01*
X10560Y30880D01*
X10860D01*
X17865Y31085D02*
X17765Y31185D01*
X17565D01*
X17465Y31085D01*
Y30685D01*
X17565Y30585D01*
X17765D01*
X17865Y30685D01*
X18065Y30585D02*
X18265D01*
X18165D01*
Y31185D01*
X18065Y31085D01*
X18565D02*
X18665Y31185D01*
X18865D01*
X18965Y31085D01*
Y30685D01*
X18865Y30585D01*
X18665D01*
X18565Y30685D01*
Y31085D01*
X22400Y35750D02*
X22300Y35850D01*
X22100D01*
X22000Y35750D01*
Y35350D01*
X22100Y35250D01*
X22300D01*
X22400Y35350D01*
X22600Y35250D02*
X22800D01*
X22700D01*
Y35850D01*
X22600Y35750D01*
X23100D02*
X23200Y35850D01*
X23400D01*
X23500Y35750D01*
Y35650D01*
X23400Y35550D01*
X23300D01*
X23400D01*
X23500Y35450D01*
Y35350D01*
X23400Y35250D01*
X23200D01*
X23100Y35350D01*
X28900Y28600D02*
X28700D01*
X28800D01*
Y28100D01*
X28700Y28000D01*
X28600D01*
X28500Y28100D01*
X29100Y28000D02*
X29300D01*
X29200D01*
Y28600D01*
X29100Y28500D01*
X26550Y22100D02*
X26350D01*
X26450D01*
Y21600D01*
X26350Y21500D01*
X26250D01*
X26150Y21600D01*
X27150Y21500D02*
X26750D01*
X27150Y21900D01*
Y22000D01*
X27050Y22100D01*
X26850D01*
X26750Y22000D01*
X9950Y38500D02*
X10150D01*
X10050D01*
Y39000D01*
X10150Y39100D01*
X10250D01*
X10350Y39000D01*
X9750Y38600D02*
X9650Y38500D01*
X9450D01*
X9350Y38600D01*
Y38700D01*
X9450Y38800D01*
X9550D01*
X9450D01*
X9350Y38900D01*
Y39000D01*
X9450Y39100D01*
X9650D01*
X9750Y39000D01*
X16400Y38450D02*
X16600D01*
X16500D01*
Y38950D01*
X16600Y39050D01*
X16700D01*
X16800Y38950D01*
X15900Y39050D02*
Y38450D01*
X16200Y38750D01*
X15800D01*
X22850Y38400D02*
X23050D01*
X22950D01*
Y38900D01*
X23050Y39000D01*
X23150D01*
X23250Y38900D01*
X22250Y38400D02*
X22650D01*
Y38700D01*
X22450Y38600D01*
X22350D01*
X22250Y38700D01*
Y38900D01*
X22350Y39000D01*
X22550D01*
X22650Y38900D01*
X20650Y11850D02*
Y11250D01*
Y11450D01*
X21050Y11850D01*
X20750Y11550D01*
X21050Y11250D01*
X21250D02*
X21450D01*
X21350D01*
Y11850D01*
X21250Y11750D01*
X11050Y14800D02*
Y14200D01*
Y14400D01*
X11450Y14800D01*
X11150Y14500D01*
X11450Y14200D01*
X12050D02*
X11650D01*
X12050Y14600D01*
Y14700D01*
X11950Y14800D01*
X11750D01*
X11650Y14700D01*
X8050Y11550D02*
X7450D01*
Y11850D01*
X7550Y11950D01*
X7750D01*
X7850Y11850D01*
Y11550D01*
X8050Y12150D02*
Y12350D01*
Y12250D01*
X7450D01*
X7550Y12150D01*
X19626Y13701D02*
X19026D01*
Y14001D01*
X19126Y14101D01*
X19326D01*
X19426Y14001D01*
Y13701D01*
X19626Y14700D02*
Y14301D01*
X19226Y14700D01*
X19126D01*
X19026Y14600D01*
Y14401D01*
X19126Y14301D01*
X9045Y11201D02*
X9645D01*
Y10901D01*
X9545Y10801D01*
X9345D01*
X9245Y10901D01*
Y11201D01*
X9545Y10601D02*
X9645Y10501D01*
Y10301D01*
X9545Y10201D01*
X9445D01*
X9345Y10301D01*
Y10401D01*
Y10301D01*
X9245Y10201D01*
X9145D01*
X9045Y10301D01*
Y10501D01*
X9145Y10601D01*
X25850Y17500D02*
Y18100D01*
X26150D01*
X26250Y18000D01*
Y17800D01*
X26150Y17700D01*
X25850D01*
X26850Y18100D02*
X26450D01*
Y17800D01*
X26650Y17900D01*
X26750D01*
X26850Y17800D01*
Y17600D01*
X26750Y17500D01*
X26550D01*
X26450Y17600D01*
X8440Y33040D02*
Y33640D01*
X8740D01*
X8840Y33540D01*
Y33340D01*
X8740Y33240D01*
X8440D01*
X8640D02*
X8840Y33040D01*
X9040Y33640D02*
X9440D01*
Y33540D01*
X9040Y33140D01*
Y33040D01*
X25150Y27250D02*
Y27850D01*
X25450D01*
X25550Y27750D01*
Y27550D01*
X25450Y27450D01*
X25150D01*
X25350D02*
X25550Y27250D01*
X26150Y27850D02*
X25750D01*
Y27550D01*
X25950Y27650D01*
X26050D01*
X26150Y27550D01*
Y27350D01*
X26050Y27250D01*
X25850D01*
X25750Y27350D01*
X16100Y33000D02*
Y33600D01*
X16400D01*
X16500Y33500D01*
Y33300D01*
X16400Y33200D01*
X16100D01*
X16300D02*
X16500Y33000D01*
X17100Y33600D02*
X16900Y33500D01*
X16700Y33300D01*
Y33100D01*
X16800Y33000D01*
X17000D01*
X17100Y33100D01*
Y33200D01*
X17000Y33300D01*
X16700D01*
X22810Y27970D02*
Y27470D01*
X22910Y27370D01*
X23110D01*
X23210Y27470D01*
Y27970D01*
X23410Y27870D02*
X23510Y27970D01*
X23710D01*
X23810Y27870D01*
Y27770D01*
X23710Y27670D01*
X23610D01*
X23710D01*
X23810Y27570D01*
Y27470D01*
X23710Y27370D01*
X23510D01*
X23410Y27470D01*
X24000Y18150D02*
Y17650D01*
X24100Y17550D01*
X24300D01*
X24400Y17650D01*
Y18150D01*
X24900Y17550D02*
Y18150D01*
X24600Y17850D01*
X25000D01*
X22000Y32800D02*
X21500D01*
X21400Y32700D01*
Y32500D01*
X21500Y32400D01*
X22000D01*
Y31800D02*
X21900Y32000D01*
X21700Y32200D01*
X21500D01*
X21400Y32100D01*
Y31900D01*
X21500Y31800D01*
X21600D01*
X21700Y31900D01*
Y32200D01*
X4315Y12338D02*
Y11838D01*
X4415Y11738D01*
X4615D01*
X4715Y11838D01*
Y12338D01*
X4915D02*
X5315D01*
Y12238D01*
X4915Y11838D01*
Y11738D01*
X25150Y36850D02*
Y37450D01*
X25450D01*
X25550Y37350D01*
Y37150D01*
X25450Y37050D01*
X25150D01*
X25750Y36950D02*
X25850Y36850D01*
X26050D01*
X26150Y36950D01*
Y37350D01*
X26050Y37450D01*
X25850D01*
X25750Y37350D01*
Y37250D01*
X25850Y37150D01*
X26150D01*
X27350Y36850D02*
Y37450D01*
X27650D01*
X27750Y37350D01*
Y37150D01*
X27650Y37050D01*
X27350D01*
X27950Y36850D02*
X28150D01*
X28050D01*
Y37450D01*
X27950Y37350D01*
X28450D02*
X28550Y37450D01*
X28750D01*
X28850Y37350D01*
Y36950D01*
X28750Y36850D01*
X28550D01*
X28450Y36950D01*
Y37350D01*
X30250Y38400D02*
X30050D01*
X30150D01*
Y37900D01*
X30050Y37800D01*
X29950D01*
X29850Y37900D01*
X30450Y38300D02*
X30550Y38400D01*
X30750D01*
X30850Y38300D01*
Y37900D01*
X30750Y37800D01*
X30550D01*
X30450Y37900D01*
Y38300D01*
D20*
X8851Y32263D02*
X8949D01*
X8851Y32637D02*
X8949D01*
X16551Y32413D02*
X16649D01*
X16551Y32787D02*
X16649D01*
X26250Y11880D02*
Y12273D01*
X26447D01*
X26512Y12208D01*
Y12077D01*
X26447Y12011D01*
X26250D01*
X26840Y11880D02*
Y12273D01*
X26644Y12077D01*
X26906D01*
X29577Y11890D02*
Y12283D01*
X29774D01*
X29839Y12218D01*
Y12087D01*
X29774Y12021D01*
X29577D01*
X30233Y12283D02*
X30102Y12218D01*
X29970Y12087D01*
Y11955D01*
X30036Y11890D01*
X30167D01*
X30233Y11955D01*
Y12021D01*
X30167Y12087D01*
X29970D01*
X16348Y10079D02*
Y10341D01*
X16480Y10472D01*
X16611Y10341D01*
Y10079D01*
Y10276D01*
X16348D01*
X16742Y10341D02*
Y10144D01*
X16808Y10079D01*
X17004D01*
Y10341D01*
X17201Y10407D02*
Y10341D01*
X17136D01*
X17267D01*
X17201D01*
Y10144D01*
X17267Y10079D01*
X17529D02*
X17660D01*
X17726Y10144D01*
Y10276D01*
X17660Y10341D01*
X17529D01*
X17464Y10276D01*
Y10144D01*
X17529Y10079D01*
X17857D02*
Y10341D01*
X17923D01*
X17988Y10276D01*
Y10079D01*
Y10276D01*
X18054Y10341D01*
X18120Y10276D01*
Y10079D01*
X18316Y10341D02*
X18447D01*
X18513Y10276D01*
Y10079D01*
X18316D01*
X18251Y10144D01*
X18316Y10210D01*
X18513D01*
X18710Y10407D02*
Y10341D01*
X18644D01*
X18775D01*
X18710D01*
Y10144D01*
X18775Y10079D01*
X19169D02*
X19038D01*
X18972Y10144D01*
Y10276D01*
X19038Y10341D01*
X19169D01*
X19235Y10276D01*
Y10210D01*
X18972D01*
X19628Y10472D02*
Y10079D01*
X19431D01*
X19366Y10144D01*
Y10276D01*
X19431Y10341D01*
X19628D01*
X20153Y10079D02*
Y10472D01*
X20284Y10341D01*
X20415Y10472D01*
Y10079D01*
X20547D02*
X20678D01*
X20612D01*
Y10341D01*
X20547D01*
X21137D02*
X20940D01*
X20875Y10276D01*
Y10144D01*
X20940Y10079D01*
X21137D01*
X21268Y10341D02*
Y10079D01*
Y10210D01*
X21334Y10276D01*
X21399Y10341D01*
X21465D01*
X21727Y10079D02*
X21858D01*
X21924Y10144D01*
Y10276D01*
X21858Y10341D01*
X21727D01*
X21662Y10276D01*
Y10144D01*
X21727Y10079D01*
X22055Y10472D02*
Y10079D01*
X22252D01*
X22318Y10144D01*
Y10210D01*
Y10276D01*
X22252Y10341D01*
X22055D01*
X22449Y10079D02*
X22580D01*
X22514D01*
Y10341D01*
X22449D01*
X22842D02*
X22974D01*
X23039Y10276D01*
Y10079D01*
X22842D01*
X22777Y10144D01*
X22842Y10210D01*
X23039D01*
X23170Y10079D02*
X23302D01*
X23236D01*
Y10472D01*
X23170D01*
X23892Y10079D02*
Y10341D01*
X24023Y10472D01*
X24154Y10341D01*
Y10079D01*
Y10276D01*
X23892D01*
X24286Y10079D02*
Y10341D01*
X24482D01*
X24548Y10276D01*
Y10079D01*
X24745Y10341D02*
X24876D01*
X24941Y10276D01*
Y10079D01*
X24745D01*
X24679Y10144D01*
X24745Y10210D01*
X24941D01*
X25073Y10079D02*
X25204D01*
X25138D01*
Y10472D01*
X25073D01*
X25401Y10341D02*
Y10144D01*
X25466Y10079D01*
X25663D01*
Y10013D01*
X25597Y9948D01*
X25532D01*
X25663Y10079D02*
Y10341D01*
X25794Y10079D02*
X25991D01*
X26057Y10144D01*
X25991Y10210D01*
X25860D01*
X25794Y10276D01*
X25860Y10341D01*
X26057D01*
X26188Y10079D02*
X26319D01*
X26253D01*
Y10341D01*
X26188D01*
X26516Y10079D02*
X26713D01*
X26778Y10144D01*
X26713Y10210D01*
X26581D01*
X26516Y10276D01*
X26581Y10341D01*
X26778D01*
X25659Y11152D02*
X25922D01*
X26447Y10955D02*
Y11348D01*
X26578Y11217D01*
X26709Y11348D01*
Y10955D01*
X26906Y11217D02*
X27037D01*
X27103Y11152D01*
Y10955D01*
X26906D01*
X26840Y11020D01*
X26906Y11086D01*
X27103D01*
X27234Y10955D02*
X27365D01*
X27299D01*
Y11217D01*
X27234D01*
X27562Y10955D02*
Y11217D01*
X27759D01*
X27824Y11152D01*
Y10955D01*
X28349Y11348D02*
Y10955D01*
X28546D01*
X28611Y11020D01*
Y11086D01*
X28546Y11152D01*
X28349D01*
X28546D01*
X28611Y11217D01*
Y11283D01*
X28546Y11348D01*
X28349D01*
X28808Y10955D02*
X28939D01*
X29005Y11020D01*
Y11152D01*
X28939Y11217D01*
X28808D01*
X28742Y11152D01*
Y11020D01*
X28808Y10955D01*
X29202Y11217D02*
X29333D01*
X29398Y11152D01*
Y10955D01*
X29202D01*
X29136Y11020D01*
X29202Y11086D01*
X29398D01*
X29530Y11217D02*
Y10955D01*
Y11086D01*
X29595Y11152D01*
X29661Y11217D01*
X29726D01*
X30186Y11348D02*
Y10955D01*
X29989D01*
X29923Y11020D01*
Y11152D01*
X29989Y11217D01*
X30186D01*
X27349Y17795D02*
X27218D01*
X27283D01*
Y17467D01*
X27218Y17402D01*
X27152D01*
X27087Y17467D01*
X27546Y17402D02*
X27677D01*
X27743Y17467D01*
Y17598D01*
X27677Y17664D01*
X27546D01*
X27480Y17598D01*
Y17467D01*
X27546Y17402D01*
X27874Y17664D02*
Y17402D01*
Y17533D01*
X27939Y17598D01*
X28005Y17664D01*
X28071D01*
X28267Y17402D02*
X28399D01*
X28333D01*
Y17664D01*
X28267D01*
X28661D02*
X28792D01*
X28858Y17598D01*
Y17402D01*
X28661D01*
X28595Y17467D01*
X28661Y17533D01*
X28858D01*
X28989Y17402D02*
Y17664D01*
X29186D01*
X29251Y17598D01*
Y17402D01*
X28061Y17283D02*
Y16890D01*
X28258D01*
X28323Y16955D01*
Y17021D01*
X28258Y17087D01*
X28061D01*
X28258D01*
X28323Y17152D01*
Y17218D01*
X28258Y17283D01*
X28061D01*
X28455Y17152D02*
Y16890D01*
Y17021D01*
X28520Y17087D01*
X28586Y17152D01*
X28651D01*
X28848D02*
Y16955D01*
X28914Y16890D01*
X29111D01*
Y17152D01*
X29242Y16890D02*
X29439D01*
X29504Y16955D01*
X29439Y17021D01*
X29307D01*
X29242Y17087D01*
X29307Y17152D01*
X29504D01*
X29635Y16890D02*
X29767D01*
X29701D01*
Y17283D01*
X29635D01*
X29963Y16890D02*
X30094D01*
X30029D01*
Y17152D01*
X29963D01*
X30291Y16890D02*
Y17152D01*
X30488D01*
X30554Y17087D01*
Y16890D01*
X30947Y17283D02*
Y16890D01*
X30750D01*
X30685Y16955D01*
Y17087D01*
X30750Y17152D01*
X30947D01*
X27136Y16250D02*
Y16644D01*
X27267Y16512D01*
X27398Y16644D01*
Y16250D01*
X27595Y16512D02*
X27726D01*
X27792Y16447D01*
Y16250D01*
X27595D01*
X27529Y16316D01*
X27595Y16381D01*
X27792D01*
X28185Y16512D02*
X27989D01*
X27923Y16447D01*
Y16316D01*
X27989Y16250D01*
X28185D01*
X28317D02*
Y16644D01*
Y16381D02*
X28513Y16512D01*
X28317Y16381D02*
X28513Y16250D01*
X29104Y16644D02*
Y16250D01*
Y16447D01*
X29366D01*
Y16644D01*
Y16250D01*
X29563Y16512D02*
X29694D01*
X29760Y16447D01*
Y16250D01*
X29563D01*
X29497Y16316D01*
X29563Y16381D01*
X29760D01*
X29891Y16250D02*
X30022D01*
X29956D01*
Y16644D01*
X29891D01*
X30219Y16250D02*
X30350D01*
X30284D01*
Y16644D01*
X30219D01*
X27116Y15964D02*
X27379D01*
Y15899D01*
X27116Y15636D01*
Y15571D01*
X27379D01*
X27575Y15833D02*
X27706D01*
X27772Y15768D01*
Y15571D01*
X27575D01*
X27510Y15636D01*
X27575Y15702D01*
X27772D01*
X28166Y15833D02*
X27969D01*
X27903Y15768D01*
Y15636D01*
X27969Y15571D01*
X28166D01*
X28297Y15964D02*
Y15571D01*
Y15768D01*
X28362Y15833D01*
X28494D01*
X28559Y15768D01*
Y15571D01*
X29084Y15964D02*
Y15571D01*
X29281D01*
X29346Y15636D01*
Y15702D01*
X29281Y15768D01*
X29084D01*
X29281D01*
X29346Y15833D01*
Y15899D01*
X29281Y15964D01*
X29084D01*
X29674Y15571D02*
X29543D01*
X29478Y15636D01*
Y15768D01*
X29543Y15833D01*
X29674D01*
X29740Y15768D01*
Y15702D01*
X29478D01*
X29871Y15571D02*
Y15833D01*
X30068D01*
X30134Y15768D01*
Y15571D01*
X30527Y15964D02*
Y15571D01*
X30330D01*
X30265Y15636D01*
Y15768D01*
X30330Y15833D01*
X30527D01*
X30724Y15899D02*
Y15833D01*
X30658D01*
X30789D01*
X30724D01*
Y15636D01*
X30789Y15571D01*
X29281Y10768D02*
Y10505D01*
X29413Y10374D01*
X29544Y10505D01*
Y10768D01*
X29675Y10374D02*
X29806D01*
X29741D01*
Y10768D01*
X29675Y10702D01*
X30003Y10374D02*
Y10440D01*
X30069D01*
Y10374D01*
X30003D01*
X30331Y10702D02*
X30397Y10768D01*
X30528D01*
X30593Y10702D01*
Y10440D01*
X30528Y10374D01*
X30397D01*
X30331Y10440D01*
Y10702D01*
D22*
X30386Y38732D02*
G03*
X31174Y39519I0J787D01*
G01*
X29126D02*
G03*
X29914Y38732I787J0D01*
G01*
X31174Y42550D02*
G03*
X30977Y42747I-197J0D01*
G01*
X29323D02*
G03*
X29126Y42550I0J-197D01*
G01*
X29323Y42747D02*
X30150D01*
X30977D01*
X29126Y39519D02*
Y42550D01*
X29914Y38732D02*
X30386D01*
X31174Y39519D02*
Y42550D01*
D61*
X23161Y26899D02*
G03*
X23161Y26899I-49J0D01*
G01*
X23111Y22399D02*
G03*
X23111Y22399I-49J0D01*
G01*
D62*
X24135Y26623D02*
G03*
X24135Y26623I-118J0D01*
G01*
X24085Y22123D02*
G03*
X24085Y22123I-118J0D01*
G01*
D63*
X24430Y27412D02*
X24470D01*
X24430Y27688D02*
X24470D01*
X24400Y14900D02*
X24550Y14750D01*
X24250D02*
X24550D01*
X24250D02*
X24300Y14800D01*
X24400Y14900D01*
X27750Y12250D02*
X27900Y12100D01*
X27600D02*
X27900D01*
X27600D02*
X27650Y12150D01*
X27750Y12250D01*
X24400D02*
X24550Y12100D01*
X24250D02*
X24550D01*
X24250D02*
X24300Y12150D01*
X24400Y12250D01*
X23600Y40000D02*
X23750Y40150D01*
X23600Y40000D02*
Y40300D01*
X23650Y40250D01*
X23750Y40150D01*
X24243Y35255D02*
X24557D01*
X24243Y35845D02*
X24557D01*
X26300Y40000D02*
X26450Y40150D01*
X26300Y40000D02*
Y40300D01*
X26350Y40250D01*
X26450Y40150D01*
X9826Y10081D02*
X15337D01*
X9826D02*
Y11852D01*
X15337D01*
Y10081D02*
Y11852D01*
X10022Y10278D02*
X11007D01*
Y10081D02*
Y10278D01*
X14156Y10081D02*
Y10278D01*
X15141D01*
Y11656D01*
X10022D02*
X15141D01*
X10022Y10278D02*
Y11656D01*
X23623Y22883D02*
Y27017D01*
X25277Y22883D02*
Y27017D01*
X23623D02*
X25277D01*
X23623Y22883D02*
X25277D01*
X23573Y18383D02*
Y22517D01*
X25227Y18383D02*
Y22517D01*
X23573D02*
X25227D01*
X23573Y18383D02*
X25227D01*
D64*
X30662Y42393D02*
X30977D01*
X30819Y42235D02*
Y42550D01*
X30950Y40313D02*
Y40628D01*
D65*
X26900Y16600D02*
Y17350D01*
X23900Y16600D02*
X26900D01*
X23900Y15050D02*
Y17350D01*
X26900D01*
X23900Y15050D02*
X26900D01*
Y17350D01*
X30250Y13950D02*
Y14700D01*
X27250Y13950D02*
X30250D01*
X27250Y12400D02*
Y14700D01*
X30250D01*
X27250Y12400D02*
X30250D01*
Y14700D01*
X26900Y13950D02*
Y14700D01*
X23900Y13950D02*
X26900D01*
X23900Y12400D02*
Y14700D01*
X26900D01*
X23900Y12400D02*
X26900D01*
Y14700D01*
X16850Y13950D02*
X17850D01*
Y14950D01*
X16850Y11950D02*
Y14950D01*
Y11950D02*
X18850D01*
X16850Y14950D02*
X18850D01*
Y11950D02*
Y14950D01*
X25450Y37650D02*
X26200D01*
X25450D02*
Y40650D01*
X23900D02*
X26200D01*
Y37650D02*
Y40650D01*
X23900Y37650D02*
Y40650D01*
Y37650D02*
X26200D01*
X8250Y14000D02*
X9250D01*
Y15000D01*
X8250Y12000D02*
Y15000D01*
Y12000D02*
X10250D01*
X8250Y15000D02*
X10250D01*
Y12000D02*
Y15000D01*
X28150Y37650D02*
X28900D01*
X28150D02*
Y40650D01*
X26600D02*
X28900D01*
Y37650D02*
Y40650D01*
X26600Y37650D02*
Y40650D01*
Y37650D02*
X28900D01*
D66*
X31332Y21873D02*
X31528D01*
X31332Y19127D02*
X31528D01*
Y18330D02*
X32001D01*
X30621Y19885D02*
Y21135D01*
X28517Y22025D02*
X29383D01*
X30682D02*
X31198D01*
X30682Y18975D02*
X31198D01*
Y22025D01*
X27576Y19315D02*
Y19640D01*
X28517Y18975D02*
X29383D01*
X27576Y21360D02*
Y21685D01*
X31528Y18330D02*
Y22670D01*
X32001D01*
X31528Y20500D02*
X32001D01*
X31528D02*
X31706Y20303D01*
X31528Y20500D02*
X31706Y20697D01*
X31332Y27373D02*
X31528D01*
X31332Y24627D02*
X31528D01*
Y23830D02*
X32001D01*
X30621Y25385D02*
Y26635D01*
X28517Y27525D02*
X29383D01*
X30682D02*
X31198D01*
X30682Y24475D02*
X31198D01*
Y27525D01*
X27576Y24815D02*
Y25140D01*
X28517Y24475D02*
X29383D01*
X27576Y26860D02*
Y27185D01*
X31528Y23830D02*
Y28170D01*
X32001D01*
X31528Y26000D02*
X32001D01*
X31528D02*
X31706Y25803D01*
X31528Y26000D02*
X31706Y26197D01*
M02*
