M48
;Layer_Color=6321
;FILE_FORMAT=2:4
INCH,LZ
;TYPE=PLATED
T1F00S00C0.0122
T2F00S00C0.0300
T3F00S00C0.0350
T4F00S00C0.0354
T5F00S00C0.0394
T6F00S00C0.0400
T7F00S00C0.0410
T8F00S00C0.0500
T9F00S00C0.0984
T10F00S00C0.1250
T11F00S00C0.1260
T12F00S00C0.1280
;TYPE=NON_PLATED
%
T01
X016142Y030474
X016731Y030784
X017408Y031167
X015837Y031211
X012942Y02914
Y02874
Y02834
X010198Y028365
X009117Y028799
X008287Y028465
X00975Y032044
X009754Y032411
X013898Y032404
X013954Y033555
X013415Y033459
X01419Y034163
X014567Y034656
X015315Y034911
X015069Y035256
X01503Y034006
Y033573
X015463
Y034006
Y03314
X01503
X013246Y031622
X013081Y039055
X013103Y039311
X015728Y035207
X016053Y03498
X016996Y034809
X018191Y035436
X019027Y033611
X016711Y033119
X015896Y03314
Y033573
Y034006
X016644Y03185
X016634Y031457
X023338Y038287
X023652Y038529
X023326Y041276
X024845Y041255
T02
X017165Y027165
X018106
T03
X005882Y034063
Y034858
Y035657
Y036457
X006583Y036059
Y03526
Y034461
Y036858
T04
X018972Y026846
X019972
X020972
X021972
Y029846
X020972
X019972
X018972
T05
X017534Y029596
X023583Y02998
X024583
X024602Y02878
X023602
X023622Y027559
X024622
X012618Y030709
X00898Y040043
X018051Y039444
X022387Y038224
X019346Y032264
X018346
T06
X013472Y036732
X014472
X015472
Y041732
X014472
X013472
X016472
X017472
X018472
X019472
X020472
Y036732
X019472
X018472
X017472
X016472
T07
X027165Y033278
Y034358
Y035438
Y036518
Y037598
X028285Y037058
Y035978
Y034898
Y033818
T08
X014447Y044094
X015947
X017447
X018947
T09
X008479Y043613
X010447
T10
X027725Y030518
Y040358
T11
X027559Y027953
X005906
Y042913
X027559
T12
X004882Y032961
Y037961
M30
