M48
;Layer_Color=6321
;FILE_FORMAT=2:4
INCH,LZ
T13F00S00C0.2000
%
G90
G05
T13
G00X028347Y024984
M15
G01X028347Y024987
G01X028425Y024984
G01X02861Y024998
G01X028765Y025023
G01X028946Y025066
G01X029095Y025115
G01X029267Y025186
G01X029407Y025257
G01X029565Y025354
G01X029692Y025446
G01X029834Y025567
G01X029945Y025678
G01X030065Y02582
G01X030158Y025946
G01X030255Y026105
G01X030326Y026245
G01X030397Y026417
G01X030446Y026566
G01X030489Y026747
G01X030514Y026902
G01X030531Y027166
G01X030528Y043701
G01X030525Y043701
G01X030528Y043779
G01X030514Y043965
G01X030489Y04412
G01X030446Y0443
G01X030397Y04445
G01X030326Y044621
G01X030255Y044761
G01X030158Y04492
G01X030065Y045047
G01X029945Y045188
G01X029834Y045299
G01X029692Y04542
G01X029565Y045512
G01X029407Y045609
G01X029267Y04568
G01X029095Y045751
G01X028946Y0458
G01X028765Y045843
G01X02861Y045868
G01X028346Y045886
G01X005118Y045882
G01X005118Y045879
G01X00504Y045882
G01X004854Y045868
G01X004699Y045843
G01X004519Y0458
G01X004369Y045751
G01X004198Y04568
G01X004058Y045609
G01X003899Y045512
G01X003772Y04542
G01X003631Y045299
G01X00352Y045188
G01X003399Y045047
G01X003307Y04492
G01X00321Y044761
G01X003139Y044621
G01X003067Y04445
G01X003019Y0443
G01X002976Y04412
G01X002951Y043965
G01X002936Y043779
G01X002938Y043701
G01X002937Y043701
G01X002937Y027165
G01X00294Y027165
G01X002936Y027087
G01X002951Y026902
G01X002976Y026747
G01X003019Y026566
G01X003067Y026417
G01X003139Y026245
G01X00321Y026105
G01X003307Y025946
G01X003399Y02582
G01X00352Y025678
G01X003631Y025567
G01X003772Y025446
G01X003899Y025354
G01X004058Y025257
G01X004198Y025186
G01X004369Y025115
G01X004519Y025066
G01X004699Y025023
G01X004854Y024998
G01X005118Y024981
G01X028347Y024984
M16
M17
M30
