G04 Layer_Color=25308*
%FSLAX24Y24*%
%MOIN*%
G70*
G01*
G75*
%ADD10R,0.0433X0.0532*%
%ADD11R,0.0945X0.0394*%
%ADD12R,0.0945X0.1299*%
%ADD13R,0.0532X0.0433*%
%ADD14R,0.0354X0.0413*%
%ADD15R,0.0236X0.0354*%
%ADD16R,0.0236X0.0354*%
%ADD17R,0.0197X0.0197*%
%ADD19P,0.0639X8X202.5*%
%ADD20C,0.0591*%
%ADD21C,0.0600*%
D10*
X23189Y31535D02*
D03*
X22638D02*
D03*
D11*
X15512Y25118D02*
D03*
Y24213D02*
D03*
Y23307D02*
D03*
D12*
X17795Y24213D02*
D03*
D13*
X14409Y24606D02*
D03*
Y25157D02*
D03*
D14*
X26959Y27047D02*
D03*
X27530D02*
D03*
X26132Y26260D02*
D03*
X26703D02*
D03*
X19833Y27205D02*
D03*
X20404D02*
D03*
X24754Y19724D02*
D03*
X25325D02*
D03*
X26132Y18937D02*
D03*
X26703D02*
D03*
X21959Y19724D02*
D03*
X22530D02*
D03*
X20581Y18937D02*
D03*
X21152D02*
D03*
X20738Y26299D02*
D03*
X21309D02*
D03*
D15*
X27185Y25472D02*
D03*
X20098D02*
D03*
X26398Y20748D02*
D03*
X20886D02*
D03*
D16*
X27559Y24803D02*
D03*
X26811D02*
D03*
X20472D02*
D03*
X19724D02*
D03*
X26772Y20079D02*
D03*
X26024D02*
D03*
X21260D02*
D03*
X20512D02*
D03*
D17*
X24252Y32677D02*
D03*
X22992D02*
D03*
X24252Y32992D02*
D03*
X23937D02*
D03*
X24252Y32362D02*
D03*
X23937D02*
D03*
X22992Y32992D02*
D03*
Y32362D02*
D03*
X23307D02*
D03*
Y32992D02*
D03*
X23622D02*
D03*
Y32362D02*
D03*
D19*
X21654Y16535D02*
D03*
D20*
X22441D02*
D03*
X23228D02*
D03*
X24016D02*
D03*
X24803D02*
D03*
X25591D02*
D03*
D21*
X18701Y15098D02*
D03*
X28543D02*
D03*
X13780Y23622D02*
D03*
X18701Y32146D02*
D03*
X33465Y23622D02*
D03*
X28543Y32146D02*
D03*
M02*
