G04 Layer_Physical_Order=1*
G04 Layer_Color=25308*
%FSLAX24Y24*%
%MOIN*%
G70*
G01*
G75*
%ADD10R,0.0433X0.0532*%
%ADD11R,0.0945X0.0394*%
%ADD12R,0.0945X0.1299*%
%ADD13R,0.0532X0.0433*%
%ADD14R,0.0354X0.0413*%
%ADD15R,0.0236X0.0354*%
%ADD16R,0.0236X0.0354*%
%ADD17R,0.0197X0.0197*%
%ADD18C,0.0100*%
%ADD19P,0.0639X8X202.5*%
%ADD20C,0.0591*%
%ADD21C,0.0600*%
%ADD22C,0.0500*%
G36*
X35363Y23622D02*
X29493Y13454D01*
X17751D01*
X11881Y23622D01*
X17751Y33790D01*
X29493Y33798D01*
X35363Y23622D01*
D02*
G37*
%LPC*%
G36*
X18701Y32897D02*
X18554Y32883D01*
X18413Y32840D01*
X18283Y32771D01*
X18169Y32677D01*
X18076Y32563D01*
X18006Y32433D01*
X17964Y32292D01*
X17949Y32146D01*
X17964Y31999D01*
X18006Y31858D01*
X18076Y31728D01*
X18169Y31614D01*
X18283Y31521D01*
X18413Y31451D01*
X18554Y31408D01*
X18701Y31394D01*
X18847Y31408D01*
X18988Y31451D01*
X19118Y31521D01*
X19232Y31614D01*
X19326Y31728D01*
X19395Y31858D01*
X19438Y31999D01*
X19452Y32146D01*
X19438Y32292D01*
X19395Y32433D01*
X19326Y32563D01*
X19232Y32677D01*
X19118Y32771D01*
X18988Y32840D01*
X18847Y32883D01*
X18701Y32897D01*
D02*
G37*
G36*
X33465Y24374D02*
X33318Y24359D01*
X33177Y24316D01*
X33047Y24247D01*
X32933Y24154D01*
X32840Y24040D01*
X32770Y23910D01*
X32727Y23769D01*
X32713Y23622D01*
X32727Y23475D01*
X32770Y23334D01*
X32840Y23204D01*
X32933Y23091D01*
X33047Y22997D01*
X33177Y22928D01*
X33318Y22885D01*
X33465Y22870D01*
X33611Y22885D01*
X33752Y22928D01*
X33882Y22997D01*
X33996Y23091D01*
X34090Y23204D01*
X34159Y23334D01*
X34202Y23475D01*
X34216Y23622D01*
X34202Y23769D01*
X34159Y23910D01*
X34090Y24040D01*
X33996Y24154D01*
X33882Y24247D01*
X33752Y24316D01*
X33611Y24359D01*
X33465Y24374D01*
D02*
G37*
G36*
X18259Y30277D02*
X18258Y30277D01*
X18258Y30277D01*
X17589Y30198D01*
X17575Y30193D01*
X17560Y30189D01*
X17049Y29913D01*
X17040Y29906D01*
X17030Y29899D01*
X16794Y29663D01*
X16788Y29654D01*
X16781Y29646D01*
X15757Y27835D01*
X15753Y27822D01*
X15748Y27810D01*
X15669Y27377D01*
X15669Y27365D01*
X15668Y27354D01*
X15708Y26961D01*
X15710Y26953D01*
X15711Y26945D01*
X15829Y26552D01*
X15835Y26540D01*
X15841Y26528D01*
X16156Y26095D01*
X16164Y26086D01*
X16172Y26078D01*
X16487Y25841D01*
X16498Y25836D01*
X16508Y25830D01*
X16941Y25673D01*
X16951Y25671D01*
X16961Y25668D01*
X17354Y25629D01*
X17365Y25630D01*
X17375Y25629D01*
X17848Y25708D01*
X17860Y25713D01*
X17873Y25717D01*
X18306Y25953D01*
X18311Y25957D01*
X18317Y25960D01*
X18323Y25967D01*
X18330Y25973D01*
X18333Y25979D01*
X18337Y25984D01*
X19755Y28464D01*
X19758Y28474D01*
X19763Y28484D01*
X19763Y28489D01*
X19765Y28494D01*
X19764Y28505D01*
X19765Y28515D01*
X19686Y29066D01*
X19682Y29077D01*
X19679Y29089D01*
X19443Y29601D01*
X19442Y29602D01*
X19442Y29603D01*
X19433Y29614D01*
X19425Y29626D01*
X19423Y29627D01*
X19422Y29628D01*
X18871Y30100D01*
X18870Y30101D01*
X18869Y30102D01*
X18856Y30109D01*
X18844Y30116D01*
X18842Y30116D01*
X18841Y30117D01*
X18290Y30274D01*
X18290Y30274D01*
X18290Y30274D01*
X18274Y30275D01*
X18259Y30277D01*
D02*
G37*
G36*
X28543Y32897D02*
X28397Y32883D01*
X28256Y32840D01*
X28126Y32771D01*
X28012Y32677D01*
X27918Y32563D01*
X27849Y32433D01*
X27806Y32292D01*
X27792Y32146D01*
X27806Y31999D01*
X27849Y31858D01*
X27918Y31728D01*
X28012Y31614D01*
X28126Y31521D01*
X28256Y31451D01*
X28397Y31408D01*
X28543Y31394D01*
X28690Y31408D01*
X28831Y31451D01*
X28961Y31521D01*
X29075Y31614D01*
X29168Y31728D01*
X29238Y31858D01*
X29281Y31999D01*
X29295Y32146D01*
X29281Y32292D01*
X29238Y32433D01*
X29168Y32563D01*
X29075Y32677D01*
X28961Y32771D01*
X28831Y32840D01*
X28690Y32883D01*
X28543Y32897D01*
D02*
G37*
G36*
X26600Y33581D02*
X26600Y33581D01*
X22150D01*
X22150Y33581D01*
X22107Y33573D01*
X22071Y33549D01*
X20315Y31792D01*
X20291Y31756D01*
X20283Y31714D01*
X20283Y31714D01*
Y27812D01*
X19941Y27470D01*
X19783D01*
X19764Y27517D01*
X20157Y27910D01*
X20181Y27946D01*
X20190Y27989D01*
X20190Y27989D01*
Y32631D01*
X20190Y32631D01*
X20181Y32674D01*
X20157Y32710D01*
X20157Y32710D01*
X20093Y32775D01*
X20111Y32819D01*
X20122Y32900D01*
X20111Y32981D01*
X20080Y33056D01*
X20030Y33120D01*
X19966Y33170D01*
X19891Y33201D01*
X19810Y33212D01*
X19729Y33201D01*
X19654Y33170D01*
X19590Y33120D01*
X19540Y33056D01*
X19509Y32981D01*
X19498Y32900D01*
X19509Y32819D01*
X19540Y32744D01*
X19590Y32680D01*
X19654Y32630D01*
X19729Y32599D01*
X19810Y32588D01*
X19891Y32599D01*
X19930Y32615D01*
X19968Y32584D01*
Y28035D01*
X19468Y27535D01*
X19444Y27499D01*
X19435Y27457D01*
X19435Y27457D01*
Y26953D01*
X19435Y26953D01*
X19444Y26910D01*
X19468Y26874D01*
X19534Y26808D01*
Y25386D01*
X19486Y25360D01*
X19411Y25391D01*
X19330Y25402D01*
X19249Y25391D01*
X19174Y25360D01*
X19110Y25310D01*
X19060Y25246D01*
X19029Y25171D01*
X19018Y25090D01*
X19029Y25009D01*
X19048Y24964D01*
X19015Y24914D01*
X18386D01*
X18386Y24914D01*
X18377Y24913D01*
X18327Y24921D01*
Y24921D01*
X18327Y24921D01*
X17264D01*
Y24324D01*
X16043D01*
Y24469D01*
X14985D01*
X14978Y24504D01*
X14954Y24540D01*
X14809Y24685D01*
X14773Y24709D01*
X14734Y24717D01*
Y24882D01*
X14085D01*
Y24362D01*
X14037Y24326D01*
X13926Y24359D01*
X13780Y24374D01*
X13633Y24359D01*
X13492Y24316D01*
X13362Y24247D01*
X13248Y24154D01*
X13155Y24040D01*
X13085Y23910D01*
X13042Y23769D01*
X13028Y23622D01*
X13042Y23475D01*
X13085Y23334D01*
X13155Y23204D01*
X13248Y23091D01*
X13362Y22997D01*
X13492Y22928D01*
X13633Y22885D01*
X13780Y22870D01*
X13926Y22885D01*
X14067Y22928D01*
X14197Y22997D01*
X14311Y23091D01*
X14404Y23204D01*
X14474Y23334D01*
X14517Y23475D01*
X14531Y23622D01*
X14517Y23769D01*
X14474Y23910D01*
X14404Y24040D01*
X14311Y24154D01*
X14197Y24247D01*
X14134Y24281D01*
X14147Y24331D01*
X14734D01*
X14764Y24293D01*
Y23432D01*
X14764Y23432D01*
X14772Y23390D01*
X14796Y23353D01*
X14921Y23228D01*
X14921Y23228D01*
X14957Y23204D01*
X14980Y23200D01*
Y23051D01*
X16043D01*
Y23196D01*
X17042D01*
X17050Y23146D01*
X16551Y22990D01*
X16551Y22990D01*
X16537Y22982D01*
X16523Y22975D01*
X16523Y22975D01*
X16523Y22975D01*
X16523Y22975D01*
X16051Y22581D01*
X16050Y22581D01*
X16050Y22580D01*
X16041Y22569D01*
X16031Y22557D01*
X16031Y22556D01*
X16031Y22556D01*
X15676Y21847D01*
X15675Y21842D01*
X15672Y21838D01*
X15671Y21827D01*
X15668Y21817D01*
X15669Y21812D01*
X15668Y21807D01*
X15707Y21098D01*
X15708Y21095D01*
X15708Y21091D01*
X15712Y21080D01*
X15715Y21068D01*
X15717Y21065D01*
X15718Y21062D01*
X16899Y19054D01*
X16902Y19051D01*
X16904Y19047D01*
X16912Y19039D01*
X16920Y19030D01*
X16924Y19029D01*
X16927Y19026D01*
X17635Y18593D01*
X17641Y18591D01*
X17646Y18587D01*
X17656Y18585D01*
X17665Y18582D01*
X17671Y18582D01*
X17677Y18581D01*
X18425D01*
X18440Y18584D01*
X18455Y18587D01*
X19046Y18823D01*
X19047Y18824D01*
X19050Y18825D01*
X19061Y18833D01*
X19072Y18840D01*
X19073Y18842D01*
X19075Y18843D01*
X19508Y19316D01*
X19509Y19318D01*
X19511Y19319D01*
X19517Y19331D01*
X19524Y19343D01*
X19525Y19345D01*
X19526Y19347D01*
X19680Y19862D01*
X19730Y19855D01*
Y19684D01*
X19730Y19684D01*
X19738Y19641D01*
X19762Y19605D01*
X19849Y19518D01*
Y16246D01*
X19502Y15899D01*
X19478Y15863D01*
X19469Y15820D01*
X19478Y15777D01*
X19502Y15741D01*
X19538Y15717D01*
X19580Y15709D01*
X19580Y15709D01*
X24088D01*
X24088Y15709D01*
X24130Y15717D01*
X24166Y15741D01*
X24643Y16218D01*
X24711Y16190D01*
X24803Y16178D01*
X24896Y16190D01*
X24963Y16218D01*
X25885Y15296D01*
X25921Y15272D01*
X25964Y15264D01*
X25964Y15264D01*
X27335D01*
X27335Y15264D01*
X27378Y15272D01*
X27414Y15296D01*
X28029Y15911D01*
X28029Y15911D01*
X28043Y15933D01*
X28053Y15947D01*
X28061Y15990D01*
Y18435D01*
X28053Y18478D01*
X28029Y18514D01*
X27751Y18792D01*
Y18941D01*
X27742Y18983D01*
X27732Y18998D01*
X27718Y19019D01*
X27718Y19019D01*
X27593Y19144D01*
Y19880D01*
X27643Y19888D01*
X27798Y19423D01*
X27804Y19412D01*
X27810Y19401D01*
X28164Y18928D01*
X28166Y18926D01*
X28168Y18924D01*
X28178Y18916D01*
X28187Y18907D01*
X28190Y18906D01*
X28192Y18905D01*
X28744Y18629D01*
X28756Y18626D01*
X28767Y18621D01*
X29279Y18543D01*
X29294Y18543D01*
X29308Y18544D01*
X29859Y18662D01*
X29872Y18667D01*
X29885Y18672D01*
X30396Y18987D01*
X30399Y18989D01*
X30403Y18991D01*
X30411Y19000D01*
X30419Y19008D01*
X30421Y19011D01*
X30423Y19014D01*
X31565Y20943D01*
X31570Y20957D01*
X31575Y20969D01*
X31693Y21599D01*
X31693Y21601D01*
X31694Y21602D01*
X31693Y21617D01*
X31693Y21631D01*
X31692Y21632D01*
X31692Y21634D01*
X31535Y22264D01*
X31533Y22266D01*
X31533Y22269D01*
X31527Y22280D01*
X31521Y22292D01*
X31519Y22294D01*
X31517Y22297D01*
X31006Y22887D01*
X31003Y22890D01*
X31000Y22893D01*
X30990Y22899D01*
X30981Y22906D01*
X30977Y22907D01*
X30974Y22909D01*
X30265Y23185D01*
X30259Y23186D01*
X30254Y23189D01*
X30244Y23189D01*
X30234Y23191D01*
X30229Y23189D01*
X30222Y23189D01*
X29317Y23032D01*
X29313Y23030D01*
X29309Y23030D01*
X29299Y23025D01*
X29288Y23021D01*
X29285Y23018D01*
X29281Y23016D01*
X28730Y22583D01*
X28720Y22571D01*
X28710Y22560D01*
X27765Y20906D01*
X27762Y20896D01*
X27757Y20887D01*
X27643Y20469D01*
X27593Y20476D01*
Y22436D01*
X28028Y22870D01*
X28052Y22907D01*
X28060Y22949D01*
Y23320D01*
X28061Y23325D01*
Y25770D01*
X28053Y25813D01*
X28029Y25849D01*
X28029Y25849D01*
X27951Y25926D01*
Y27287D01*
X28001Y27300D01*
X28276Y26811D01*
X28278Y26809D01*
X28279Y26807D01*
X28712Y26138D01*
X28712Y26138D01*
X28712Y26138D01*
X28712Y26137D01*
X28723Y26126D01*
X28734Y26115D01*
X29246Y25761D01*
X29253Y25757D01*
X29261Y25753D01*
X29268Y25751D01*
X29274Y25748D01*
X29283Y25748D01*
X29291Y25746D01*
X30591D01*
X30602Y25749D01*
X30613Y25750D01*
X30617Y25752D01*
X30621Y25753D01*
X30631Y25759D01*
X30641Y25764D01*
X31231Y26237D01*
X31233Y26239D01*
X31236Y26240D01*
X31243Y26251D01*
X31251Y26260D01*
X31252Y26263D01*
X31254Y26266D01*
X31490Y26777D01*
X31493Y26788D01*
X31497Y26798D01*
X31575Y27270D01*
X31575Y27285D01*
X31575Y27299D01*
X31457Y27890D01*
X31451Y27903D01*
X31447Y27916D01*
X30344Y29727D01*
X30338Y29734D01*
X30332Y29742D01*
X30057Y30017D01*
X30046Y30025D01*
X30036Y30032D01*
X29721Y30190D01*
X29708Y30193D01*
X29696Y30198D01*
X29105Y30276D01*
X29094Y30276D01*
X29082Y30276D01*
X28570Y30197D01*
X28556Y30192D01*
X28542Y30187D01*
X28070Y29912D01*
X28059Y29902D01*
X28048Y29893D01*
X27694Y29460D01*
X27687Y29448D01*
X27680Y29436D01*
X27567Y29119D01*
X27517Y29127D01*
Y32664D01*
X27517Y32664D01*
X27509Y32706D01*
X27485Y32742D01*
X26679Y33549D01*
X26643Y33573D01*
X26600Y33581D01*
D02*
G37*
G36*
X18701Y15850D02*
X18554Y15835D01*
X18413Y15792D01*
X18283Y15723D01*
X18169Y15630D01*
X18076Y15516D01*
X18006Y15386D01*
X17964Y15245D01*
X17949Y15098D01*
X17964Y14951D01*
X18006Y14810D01*
X18076Y14680D01*
X18169Y14567D01*
X18283Y14473D01*
X18413Y14404D01*
X18554Y14361D01*
X18701Y14346D01*
X18847Y14361D01*
X18988Y14404D01*
X19118Y14473D01*
X19232Y14567D01*
X19326Y14680D01*
X19395Y14810D01*
X19438Y14951D01*
X19452Y15098D01*
X19438Y15245D01*
X19395Y15386D01*
X19326Y15516D01*
X19232Y15630D01*
X19118Y15723D01*
X18988Y15792D01*
X18847Y15835D01*
X18701Y15850D01*
D02*
G37*
G36*
X28543D02*
X28397Y15835D01*
X28256Y15792D01*
X28126Y15723D01*
X28012Y15630D01*
X27918Y15516D01*
X27849Y15386D01*
X27806Y15245D01*
X27792Y15098D01*
X27806Y14951D01*
X27849Y14810D01*
X27918Y14680D01*
X28012Y14567D01*
X28126Y14473D01*
X28256Y14404D01*
X28397Y14361D01*
X28543Y14346D01*
X28690Y14361D01*
X28831Y14404D01*
X28961Y14473D01*
X29075Y14567D01*
X29168Y14680D01*
X29238Y14810D01*
X29281Y14951D01*
X29295Y15098D01*
X29281Y15245D01*
X29238Y15386D01*
X29168Y15516D01*
X29075Y15630D01*
X28961Y15723D01*
X28831Y15792D01*
X28690Y15835D01*
X28543Y15850D01*
D02*
G37*
%LPD*%
G36*
X21149Y21654D02*
Y21472D01*
X21099Y21447D01*
X21056Y21480D01*
X20981Y21511D01*
X20900Y21522D01*
X20819Y21511D01*
X20744Y21480D01*
X20680Y21430D01*
X20630Y21366D01*
X20599Y21291D01*
X20588Y21210D01*
X20599Y21129D01*
X20630Y21054D01*
X20680Y20990D01*
X20709Y20967D01*
Y20512D01*
X21063D01*
Y20943D01*
X21102Y20971D01*
X21149Y20948D01*
Y20315D01*
X21083D01*
Y19843D01*
X21149D01*
Y19604D01*
X21073Y19529D01*
X21049Y19493D01*
X21040Y19450D01*
X21040Y19450D01*
Y19203D01*
X20915D01*
Y18671D01*
X21388D01*
Y19195D01*
X21430Y19223D01*
X21435Y19215D01*
X21542Y19107D01*
Y16890D01*
X21476D01*
X21299Y16713D01*
Y16358D01*
X21476Y16181D01*
X21831D01*
X22008Y16358D01*
Y16713D01*
X21831Y16890D01*
X21765D01*
Y19100D01*
X21815Y19120D01*
X23117Y17818D01*
Y16873D01*
X23050Y16845D01*
X22976Y16788D01*
X22919Y16714D01*
X22883Y16628D01*
X22871Y16535D01*
X22883Y16443D01*
X22919Y16357D01*
X22976Y16283D01*
X23050Y16226D01*
X23136Y16190D01*
X23228Y16178D01*
X23321Y16190D01*
X23407Y16226D01*
X23481Y16283D01*
X23538Y16357D01*
X23574Y16443D01*
X23586Y16535D01*
X23574Y16628D01*
X23538Y16714D01*
X23481Y16788D01*
X23407Y16845D01*
X23340Y16873D01*
Y17864D01*
X23331Y17907D01*
X23321Y17921D01*
X23307Y17943D01*
X23307Y17943D01*
X22096Y19154D01*
X22121Y19200D01*
X22125Y19199D01*
X24625D01*
X24625Y19199D01*
X24643Y19184D01*
Y18149D01*
X24643Y18148D01*
X24643Y18146D01*
X24682Y16869D01*
X24624Y16845D01*
X24550Y16788D01*
X24494Y16714D01*
X24458Y16628D01*
X24446Y16535D01*
X24458Y16443D01*
X24486Y16375D01*
X24042Y15931D01*
X19914D01*
X19895Y15977D01*
X20039Y16122D01*
X20039Y16122D01*
X20063Y16158D01*
X20072Y16200D01*
Y19455D01*
X20118Y19475D01*
X20342Y19250D01*
X20344Y19203D01*
X20344D01*
X20344Y19203D01*
Y18671D01*
X20817D01*
Y19203D01*
X20692D01*
Y19470D01*
X20692Y19470D01*
X20683Y19513D01*
X20659Y19549D01*
X20623Y19585D01*
Y19843D01*
X20689D01*
Y20315D01*
X20335D01*
Y19843D01*
X20401D01*
Y19577D01*
X20351Y19556D01*
X20111Y19796D01*
Y22626D01*
X20157Y22645D01*
X21149Y21654D01*
D02*
G37*
G36*
X20129Y25082D02*
Y23540D01*
X20129Y23540D01*
X20137Y23497D01*
X20161Y23461D01*
X21402Y22221D01*
Y21773D01*
X21353Y21757D01*
X21338Y21779D01*
X21338Y21779D01*
X20071Y23046D01*
Y25030D01*
X20063Y25073D01*
X20052Y25088D01*
X20091Y25120D01*
X20129Y25082D01*
D02*
G37*
G36*
X19730Y22063D02*
Y20535D01*
X19680Y20529D01*
X19606Y20845D01*
X19600Y20857D01*
X19596Y20869D01*
X18454Y22719D01*
X18444Y22731D01*
X18433Y22742D01*
X18000Y23057D01*
X17997Y23058D01*
X17995Y23061D01*
X17983Y23065D01*
X17972Y23070D01*
X17968Y23070D01*
X17965Y23071D01*
X17494Y23146D01*
X17498Y23196D01*
X18597D01*
X19730Y22063D01*
D02*
G37*
G36*
X27839Y18389D02*
Y16313D01*
X27789Y16296D01*
X27770Y16320D01*
X27706Y16370D01*
X27631Y16401D01*
X27592Y16406D01*
Y18571D01*
X27638Y18590D01*
X27839Y18389D01*
D02*
G37*
G36*
X27382Y24952D02*
Y24567D01*
X27679D01*
Y23061D01*
X27244Y22626D01*
X27220Y22590D01*
X27212Y22548D01*
X27212Y22548D01*
Y19032D01*
X27212Y19032D01*
X27220Y18990D01*
X27244Y18954D01*
X27369Y18829D01*
Y17030D01*
X27321Y17021D01*
X27290Y17096D01*
X27240Y17160D01*
X27176Y17210D01*
X27131Y17228D01*
Y20625D01*
X27131Y20625D01*
X27123Y20668D01*
X27099Y20704D01*
X27099Y20704D01*
X26974Y20829D01*
X26938Y20853D01*
X26895Y20861D01*
X26895Y20861D01*
X26575D01*
Y20984D01*
X26281D01*
Y21684D01*
X26890Y22292D01*
X26890Y22292D01*
X26904Y22314D01*
X26914Y22328D01*
X26922Y22371D01*
Y24567D01*
X26988D01*
Y24913D01*
X27038Y24958D01*
X27382Y24952D01*
D02*
G37*
G36*
X26909Y20579D02*
Y20315D01*
X26595D01*
Y19843D01*
X26660D01*
Y19585D01*
X26624Y19549D01*
X26600Y19513D01*
X26592Y19470D01*
X26592Y19470D01*
Y19203D01*
X26467D01*
Y18731D01*
X26368D01*
Y19203D01*
X26243D01*
Y19450D01*
X26243Y19450D01*
X26235Y19493D01*
X26211Y19529D01*
X26135Y19604D01*
Y19843D01*
X26201D01*
Y20160D01*
X26249Y20208D01*
X26249Y20208D01*
X26273Y20244D01*
X26281Y20286D01*
X26281Y20286D01*
Y20512D01*
X26575D01*
Y20639D01*
X26849D01*
X26909Y20579D01*
D02*
G37*
G36*
X19690Y23366D02*
Y22934D01*
X19690Y22934D01*
X19698Y22892D01*
X19722Y22855D01*
X19889Y22689D01*
Y22284D01*
X19843Y22265D01*
X18722Y23386D01*
X18686Y23410D01*
X18643Y23418D01*
X18643Y23418D01*
X16043D01*
Y23563D01*
X14986D01*
Y23957D01*
X16043D01*
Y24101D01*
X17264D01*
Y23504D01*
X18327D01*
Y24101D01*
X18954D01*
X19690Y23366D01*
D02*
G37*
G36*
X27295Y32618D02*
Y30341D01*
X27245Y30316D01*
X27203Y30349D01*
X27128Y30380D01*
X27047Y30390D01*
X27044Y30390D01*
X27004Y30426D01*
X27001Y30435D01*
Y32167D01*
X26992Y32210D01*
X26983Y32224D01*
X26968Y32246D01*
X26968Y32246D01*
X26435Y32779D01*
Y33125D01*
X26435Y33125D01*
X26427Y33168D01*
X26403Y33204D01*
X26403Y33204D01*
X26294Y33313D01*
X26313Y33359D01*
X26554D01*
X27295Y32618D01*
D02*
G37*
G36*
Y29816D02*
Y27819D01*
X27295Y27819D01*
X27304Y27776D01*
X27328Y27740D01*
X27383Y27685D01*
Y27629D01*
X27099Y27344D01*
X27037Y27346D01*
X27001Y27370D01*
X26976Y27375D01*
X26957Y27422D01*
X26957Y27426D01*
X27126Y27595D01*
X27126Y27595D01*
X27140Y27617D01*
X27150Y27631D01*
X27158Y27674D01*
Y29790D01*
X27203Y29809D01*
X27245Y29841D01*
X27295Y29816D01*
D02*
G37*
G36*
X24492Y31965D02*
X24473Y31921D01*
X24462Y31840D01*
X24473Y31759D01*
X24504Y31684D01*
X24554Y31620D01*
X24618Y31570D01*
X24646Y31558D01*
X24636Y31508D01*
X24488D01*
X24452Y31501D01*
X24347D01*
X23733Y32115D01*
Y32205D01*
X24252D01*
X24492Y31965D01*
D02*
G37*
G36*
X22978Y33313D02*
X22914Y33248D01*
X22889Y33212D01*
X22881Y33169D01*
X22838Y33150D01*
X22835D01*
Y33103D01*
X22782D01*
X22782Y33103D01*
X22740Y33095D01*
X22704Y33071D01*
X22704Y33071D01*
X22701Y33069D01*
X22677Y33033D01*
X22669Y32990D01*
X22669Y32990D01*
Y32560D01*
X22149D01*
X22149Y32560D01*
X22107Y32552D01*
X22070Y32528D01*
X22070Y32528D01*
X20660Y31117D01*
X20635Y31081D01*
X20627Y31038D01*
X20627Y31038D01*
Y27470D01*
X20321D01*
X20302Y27517D01*
X20472Y27687D01*
X20472Y27687D01*
X20496Y27723D01*
X20505Y27766D01*
X20505Y27766D01*
Y31668D01*
X22196Y33359D01*
X22959D01*
X22978Y33313D01*
D02*
G37*
G36*
X26213Y33079D02*
Y32733D01*
X26213Y32733D01*
X26221Y32691D01*
X26245Y32654D01*
X26779Y32121D01*
Y30475D01*
X26610Y30306D01*
X26585Y30270D01*
X26577Y30227D01*
X26577Y30227D01*
Y29930D01*
X26577Y29930D01*
X26585Y29887D01*
X26610Y29851D01*
X26777Y29684D01*
Y27786D01*
X26435Y27444D01*
X26411Y27408D01*
X26402Y27365D01*
X26402Y27365D01*
Y26964D01*
X26352Y26915D01*
X26328Y26878D01*
X26320Y26836D01*
X26320Y26836D01*
Y26704D01*
X26320Y26704D01*
X26328Y26662D01*
X26348Y26633D01*
X26240Y26526D01*
X25896D01*
Y25994D01*
X26021D01*
Y25694D01*
X26021Y25694D01*
X26029Y25651D01*
X26053Y25615D01*
X26634Y25035D01*
Y24567D01*
X26700D01*
Y22417D01*
X26091Y21809D01*
X26067Y21773D01*
X26059Y21730D01*
X26059Y21730D01*
Y20332D01*
X26041Y20315D01*
X25846D01*
Y20141D01*
X25838Y20137D01*
X25796Y20132D01*
X25793Y20138D01*
X25778Y20159D01*
X25778Y20159D01*
X25562Y20376D01*
Y20873D01*
X25803Y21114D01*
X25827Y21150D01*
X25836Y21193D01*
X25836Y21193D01*
Y23246D01*
X25830Y23274D01*
Y23895D01*
X25835Y23917D01*
Y24350D01*
X25827Y24393D01*
X25817Y24407D01*
X25812Y24414D01*
Y25928D01*
X25812Y25928D01*
X25804Y25970D01*
X25798Y25979D01*
Y26532D01*
X26274Y27008D01*
X26274Y27008D01*
X26298Y27044D01*
X26306Y27086D01*
X26306Y27086D01*
Y27451D01*
X26649Y27793D01*
X26649Y27793D01*
X26663Y27815D01*
X26673Y27829D01*
X26681Y27872D01*
Y29598D01*
X26681Y29598D01*
X26673Y29641D01*
X26649Y29677D01*
X26649Y29677D01*
X26481Y29844D01*
Y30250D01*
X26481Y30250D01*
X26473Y30293D01*
X26449Y30329D01*
X26449Y30329D01*
X25302Y31476D01*
X25266Y31500D01*
X25223Y31508D01*
X25223Y31508D01*
X24912D01*
X24902Y31558D01*
X24930Y31570D01*
X24995Y31620D01*
X25044Y31684D01*
X25075Y31759D01*
X25086Y31840D01*
X25075Y31921D01*
X25044Y31996D01*
X24995Y32060D01*
X24930Y32110D01*
X24855Y32141D01*
X24774Y32152D01*
X24693Y32141D01*
X24649Y32123D01*
X24409Y32362D01*
Y32520D01*
X22891D01*
Y32835D01*
X23150D01*
Y33150D01*
X23150Y33150D01*
X23150D01*
X23178Y33186D01*
X23182Y33191D01*
X24073D01*
X24094Y33150D01*
X24094D01*
Y32835D01*
X24409D01*
Y32881D01*
X25510D01*
X25518Y32819D01*
X25549Y32744D01*
X25599Y32680D01*
X25664Y32630D01*
X25739Y32599D01*
X25819Y32588D01*
X25900Y32599D01*
X25975Y32630D01*
X26040Y32680D01*
X26089Y32744D01*
X26120Y32819D01*
X26131Y32900D01*
X26120Y32981D01*
X26089Y33056D01*
X26040Y33120D01*
X26013Y33141D01*
X26030Y33191D01*
X26101D01*
X26213Y33079D01*
D02*
G37*
G36*
X27293Y27159D02*
Y26781D01*
X27418D01*
Y26471D01*
X27106Y26159D01*
X27082Y26123D01*
X27074Y26080D01*
X27074Y26080D01*
Y25709D01*
X27008D01*
Y25290D01*
X26958Y25269D01*
X26814Y25413D01*
Y25994D01*
X26939D01*
Y26526D01*
X26814D01*
Y26657D01*
X26814Y26657D01*
X26805Y26700D01*
X26784Y26731D01*
X26788Y26749D01*
X26806Y26781D01*
X27195D01*
Y27126D01*
X27247Y27178D01*
X27293Y27159D01*
D02*
G37*
G36*
X20167Y27317D02*
Y26939D01*
X20292D01*
Y26531D01*
X20020Y26259D01*
X19996Y26223D01*
X19987Y26180D01*
X19987Y26180D01*
Y25709D01*
X19921D01*
Y25297D01*
X19871Y25276D01*
X19757Y25390D01*
Y26854D01*
X19750Y26889D01*
X19758Y26909D01*
X19780Y26939D01*
X20069D01*
Y27284D01*
X20121Y27336D01*
X20167Y27317D01*
D02*
G37*
G36*
X19547Y24567D02*
X19849D01*
Y23586D01*
X19803Y23567D01*
X19079Y24291D01*
X19043Y24315D01*
X19000Y24324D01*
X19000Y24324D01*
X18327D01*
Y24587D01*
X18432Y24692D01*
X19547D01*
Y24567D01*
D02*
G37*
G36*
X22789Y32284D02*
X22825Y32260D01*
X22835Y32250D01*
Y32205D01*
X22880D01*
X22881Y32204D01*
Y32107D01*
X22881Y32107D01*
X22889Y32064D01*
X22914Y32028D01*
X23032Y31910D01*
X23011Y31860D01*
X22913D01*
Y31211D01*
X22875Y31183D01*
X22638D01*
X22625Y31180D01*
X22612Y31179D01*
X22022Y30982D01*
X22021Y30981D01*
X22021Y30981D01*
X22008Y30974D01*
X21995Y30966D01*
X21994Y30966D01*
X21994Y30966D01*
X21640Y30651D01*
X21632Y30641D01*
X21624Y30632D01*
X21270Y30041D01*
X21268Y30036D01*
X21264Y30031D01*
X21262Y30021D01*
X21259Y30012D01*
X21259Y30006D01*
X21258Y30000D01*
Y29134D01*
X21258Y29133D01*
X21258Y29133D01*
X21261Y29118D01*
X21264Y29103D01*
X21265Y29103D01*
X21265Y29102D01*
X21501Y28551D01*
X21502Y28550D01*
X21502Y28549D01*
X21511Y28537D01*
X21519Y28525D01*
X21520Y28525D01*
X21521Y28523D01*
X21993Y28090D01*
X21994Y28090D01*
X21995Y28089D01*
X22007Y28082D01*
X22020Y28074D01*
X22021Y28074D01*
X22022Y28073D01*
X22612Y27877D01*
X22625Y27875D01*
X22638Y27872D01*
X24567D01*
X24576Y27874D01*
X24584Y27874D01*
X24939Y27953D01*
X24939Y27953D01*
X24940Y27953D01*
X24954Y27960D01*
X24967Y27966D01*
X24968Y27966D01*
X24968Y27966D01*
X25243Y28165D01*
X25275Y28127D01*
X23559Y26410D01*
X21545D01*
Y26565D01*
X21073D01*
Y26033D01*
X21112D01*
X21132Y25987D01*
X20394Y25250D01*
X20372Y25217D01*
X20347Y25211D01*
X20326Y25208D01*
X20318Y25208D01*
X20276Y25250D01*
Y25709D01*
X20210D01*
Y26134D01*
X20452Y26376D01*
X20502Y26356D01*
Y26033D01*
X20974D01*
Y26565D01*
X20849D01*
Y27012D01*
X20956Y27119D01*
X21182D01*
X21200Y27074D01*
X21250Y27010D01*
X21314Y26960D01*
X21389Y26929D01*
X21470Y26918D01*
X21551Y26929D01*
X21626Y26960D01*
X21690Y27010D01*
X21740Y27074D01*
X21771Y27149D01*
X21782Y27230D01*
X21771Y27311D01*
X21740Y27386D01*
X21690Y27450D01*
X21626Y27500D01*
X21551Y27531D01*
X21470Y27542D01*
X21389Y27531D01*
X21314Y27500D01*
X21250Y27450D01*
X21200Y27386D01*
X21182Y27341D01*
X20910D01*
X20899Y27339D01*
X20849Y27376D01*
X20849Y27376D01*
Y30992D01*
X22195Y32338D01*
X22735D01*
X22789Y32284D01*
D02*
G37*
G36*
X26459Y29552D02*
Y27918D01*
X26117Y27575D01*
X26093Y27539D01*
X26084Y27497D01*
X26084Y27497D01*
Y27132D01*
X25608Y26656D01*
X25584Y26620D01*
X25575Y26578D01*
X25575Y26578D01*
Y25942D01*
X25575Y25942D01*
X25584Y25900D01*
X25590Y25891D01*
Y24484D01*
X25583Y24479D01*
X25517Y24495D01*
X25268Y24959D01*
X25258Y24970D01*
X25250Y24982D01*
X24935Y25257D01*
X24929Y25261D01*
X24924Y25265D01*
X24609Y25462D01*
X24601Y25465D01*
X24594Y25469D01*
X24043Y25666D01*
X24033Y25668D01*
X24024Y25670D01*
X23630Y25710D01*
X23621Y25709D01*
X23612Y25710D01*
X22982Y25631D01*
X22981Y25630D01*
X22980Y25630D01*
X22966Y25626D01*
X22952Y25621D01*
X22951Y25620D01*
X22950Y25620D01*
X22242Y25187D01*
X22235Y25180D01*
X22227Y25175D01*
X21951Y24899D01*
X21945Y24890D01*
X21938Y24882D01*
X21741Y24527D01*
X21739Y24522D01*
X21736Y24518D01*
X21579Y24124D01*
X21577Y24114D01*
X21574Y24104D01*
X21535Y23789D01*
X21535Y23784D01*
X21534Y23780D01*
Y23346D01*
X21536Y23336D01*
X21537Y23325D01*
X21655Y22892D01*
X21659Y22884D01*
X21662Y22875D01*
X21898Y22442D01*
X21904Y22435D01*
X21908Y22427D01*
X22184Y22112D01*
X22188Y22109D01*
X22192Y22104D01*
X22467Y21868D01*
X22477Y21863D01*
X22486Y21856D01*
X22998Y21620D01*
X23005Y21618D01*
X23012Y21615D01*
X23327Y21536D01*
X23337Y21536D01*
X23346Y21534D01*
X23622D01*
X23625Y21534D01*
X23627Y21534D01*
X24218Y21573D01*
X24218Y21573D01*
X24218Y21573D01*
X24233Y21578D01*
X24248Y21582D01*
X24248Y21582D01*
X24248Y21582D01*
X24642Y21779D01*
X24649Y21784D01*
X24656Y21788D01*
X25050Y22103D01*
X25055Y22109D01*
X25062Y22114D01*
X25455Y22586D01*
X25462Y22599D01*
X25469Y22611D01*
X25564Y22877D01*
X25614Y22868D01*
Y21239D01*
X25372Y20998D01*
X25348Y20962D01*
X25340Y20919D01*
X25340Y20919D01*
Y20329D01*
X25340Y20329D01*
X25348Y20287D01*
X25372Y20251D01*
X25588Y20035D01*
Y20029D01*
X25561Y19990D01*
X25538Y19990D01*
X25089D01*
Y19459D01*
X25214D01*
Y17708D01*
X25169Y17690D01*
X25104Y17640D01*
X25055Y17576D01*
X25024Y17500D01*
X25013Y17420D01*
X25024Y17339D01*
X25055Y17264D01*
X25104Y17199D01*
X25169Y17150D01*
X25244Y17119D01*
X25325Y17108D01*
X25405Y17119D01*
X25481Y17150D01*
X25545Y17199D01*
X25595Y17264D01*
X25626Y17339D01*
X25637Y17420D01*
X25626Y17500D01*
X25595Y17576D01*
X25545Y17640D01*
X25481Y17690D01*
X25436Y17708D01*
Y19423D01*
X25471Y19459D01*
X25538D01*
X25561Y19459D01*
X25588Y19420D01*
X25588Y19420D01*
Y18810D01*
X25588Y18810D01*
X25597Y18768D01*
X25621Y18732D01*
X25811Y18541D01*
X25811Y18541D01*
X25833Y18527D01*
X25847Y18517D01*
X25890Y18509D01*
X26693D01*
X26693Y18509D01*
X26735Y18517D01*
X26771Y18541D01*
X26781Y18551D01*
X26805Y18587D01*
X26814Y18630D01*
Y18671D01*
X26909D01*
Y17228D01*
X26864Y17210D01*
X26800Y17160D01*
X26750Y17096D01*
X26719Y17021D01*
X26708Y16940D01*
X26719Y16859D01*
X26750Y16784D01*
X26800Y16720D01*
X26864Y16670D01*
X26939Y16639D01*
X27020Y16628D01*
X27101Y16639D01*
X27176Y16670D01*
X27240Y16720D01*
X27290Y16784D01*
X27321Y16859D01*
X27369Y16850D01*
Y16351D01*
X27330Y16320D01*
X27280Y16256D01*
X27249Y16181D01*
X27238Y16100D01*
X27249Y16019D01*
X27280Y15944D01*
X27330Y15880D01*
X27394Y15830D01*
X27469Y15799D01*
X27524Y15792D01*
X27542Y15739D01*
X27289Y15486D01*
X26010D01*
X25120Y16375D01*
X25148Y16443D01*
X25161Y16535D01*
X25148Y16628D01*
X25113Y16714D01*
X25056Y16788D01*
X24982Y16845D01*
X24904Y16877D01*
X24865Y18151D01*
Y19439D01*
X24865Y19439D01*
X24908Y19459D01*
X24990D01*
Y19990D01*
X24518D01*
Y19459D01*
X24487Y19421D01*
X22796D01*
X22766Y19459D01*
Y19990D01*
X22641D01*
Y20250D01*
X22641Y20250D01*
X22632Y20293D01*
X22608Y20329D01*
X22468Y20469D01*
X22432Y20493D01*
X22390Y20501D01*
X22390Y20501D01*
X21812D01*
X21812Y20501D01*
X21770Y20493D01*
X21734Y20469D01*
X21671Y20406D01*
X21625Y20425D01*
Y22267D01*
X21625Y22267D01*
X21616Y22309D01*
X21592Y22345D01*
X20351Y23586D01*
Y24567D01*
X20650D01*
Y25039D01*
X20584D01*
Y25125D01*
X21388Y25929D01*
X21388Y25929D01*
X21402Y25951D01*
X21412Y25965D01*
X21420Y26008D01*
Y26033D01*
X21545D01*
Y26188D01*
X23605D01*
X23605Y26188D01*
X23648Y26196D01*
X23684Y26221D01*
X26299Y28836D01*
X26299Y28836D01*
X26314Y28858D01*
X26323Y28872D01*
X26332Y28915D01*
Y29614D01*
X26378Y29633D01*
X26459Y29552D01*
D02*
G37*
%LPC*%
G36*
X24016Y16893D02*
X23923Y16881D01*
X23837Y16845D01*
X23763Y16788D01*
X23706Y16714D01*
X23671Y16628D01*
X23658Y16535D01*
X23671Y16443D01*
X23706Y16357D01*
X23763Y16283D01*
X23837Y16226D01*
X23923Y16190D01*
X24016Y16178D01*
X24108Y16190D01*
X24194Y16226D01*
X24268Y16283D01*
X24325Y16357D01*
X24361Y16443D01*
X24373Y16535D01*
X24361Y16628D01*
X24325Y16714D01*
X24268Y16788D01*
X24194Y16845D01*
X24108Y16881D01*
X24016Y16893D01*
D02*
G37*
G36*
X22441D02*
X22348Y16881D01*
X22262Y16845D01*
X22188Y16788D01*
X22131Y16714D01*
X22096Y16628D01*
X22084Y16535D01*
X22096Y16443D01*
X22131Y16357D01*
X22188Y16283D01*
X22262Y16226D01*
X22348Y16190D01*
X22441Y16178D01*
X22533Y16190D01*
X22620Y16226D01*
X22694Y16283D01*
X22750Y16357D01*
X22786Y16443D01*
X22798Y16535D01*
X22786Y16628D01*
X22750Y16714D01*
X22694Y16788D01*
X22620Y16845D01*
X22533Y16881D01*
X22441Y16893D01*
D02*
G37*
%LPD*%
D10*
X23189Y31535D02*
D03*
X22638D02*
D03*
D11*
X15512Y25118D02*
D03*
Y24213D02*
D03*
Y23307D02*
D03*
D12*
X17795Y24213D02*
D03*
D13*
X14409Y24606D02*
D03*
Y25157D02*
D03*
D14*
X26959Y27047D02*
D03*
X27530D02*
D03*
X26132Y26260D02*
D03*
X26703D02*
D03*
X19833Y27205D02*
D03*
X20404D02*
D03*
X24754Y19724D02*
D03*
X25325D02*
D03*
X26132Y18937D02*
D03*
X26703D02*
D03*
X21959Y19724D02*
D03*
X22530D02*
D03*
X20581Y18937D02*
D03*
X21152D02*
D03*
X20738Y26299D02*
D03*
X21309D02*
D03*
D15*
X27185Y25472D02*
D03*
X20098D02*
D03*
X26398Y20748D02*
D03*
X20886D02*
D03*
D16*
X27559Y24803D02*
D03*
X26811D02*
D03*
X20472D02*
D03*
X19724D02*
D03*
X26772Y20079D02*
D03*
X26024D02*
D03*
X21260D02*
D03*
X20512D02*
D03*
D17*
X24252Y32677D02*
D03*
X22992D02*
D03*
X24252Y32992D02*
D03*
X23937D02*
D03*
X24252Y32362D02*
D03*
X23937D02*
D03*
X22992Y32992D02*
D03*
Y32362D02*
D03*
X23307D02*
D03*
Y32992D02*
D03*
X23622D02*
D03*
Y32362D02*
D03*
D18*
X25846Y26008D02*
X25883Y25971D01*
X25810Y20560D02*
X25884Y20634D01*
X25725Y21193D02*
Y23246D01*
X25451Y20919D02*
X25725Y21193D01*
X25883Y23852D02*
Y25971D01*
X25884Y20634D02*
Y23312D01*
X25878Y23847D02*
X25883Y23852D01*
X25878Y23317D02*
Y23847D01*
Y23317D02*
X25884Y23312D01*
X25719Y23913D02*
X25724Y23917D01*
X25719Y23252D02*
Y23913D01*
Y23252D02*
X25725Y23246D01*
X25701Y24373D02*
Y25928D01*
Y24373D02*
X25724Y24350D01*
Y23917D02*
Y24350D01*
X25223Y31397D02*
X26370Y30250D01*
X25098Y31238D02*
X26211Y30125D01*
X24554Y31238D02*
X25098D01*
X24203Y31231D02*
X24546D01*
X23307Y32128D02*
X24203Y31231D01*
X24488Y31397D02*
X25223D01*
X23622Y32069D02*
X24301Y31390D01*
X24481D02*
X24488Y31397D01*
X24301Y31390D02*
X24481D01*
X24546Y31231D02*
X24554Y31238D01*
X14409Y25157D02*
X14940D01*
X14979Y25118D01*
X15512D01*
X23307Y32992D02*
X23622D01*
X23937D01*
X20512Y19539D02*
X20581Y19470D01*
X20512Y19539D02*
Y20079D01*
X26132Y18937D02*
Y19450D01*
X26024Y19558D02*
X26132Y19450D01*
X26024Y19558D02*
Y20079D01*
X15512Y24213D02*
X17795D01*
X20098Y25472D02*
Y26180D01*
X20404Y26485D01*
Y27205D01*
X27185Y25472D02*
Y26080D01*
X27530Y26424D01*
Y27047D01*
X21152Y18937D02*
Y19450D01*
X21260Y19558D01*
Y20079D01*
X21959Y19476D02*
Y19724D01*
Y19476D02*
X22125Y19310D01*
X24625D01*
X24754Y19439D01*
Y19724D01*
X26703Y18937D02*
Y19470D01*
X26772Y19539D01*
Y20079D01*
X21309Y26008D02*
Y26299D01*
X20472Y25171D02*
X21309Y26008D01*
X20472Y24803D02*
Y25171D01*
X26132Y25694D02*
X26811Y25015D01*
Y24803D02*
Y25015D01*
X23307Y32859D02*
Y32992D01*
X23125Y32677D02*
X23307Y32859D01*
X22992Y32677D02*
X23125D01*
X15512Y23307D02*
X18643D01*
X19580Y15820D02*
X24088D01*
X24803Y16535D01*
X26024Y20079D02*
Y20140D01*
X26170Y20286D01*
Y21730D01*
X26811Y22371D01*
Y24803D01*
X21654Y16535D02*
Y19153D01*
X21513Y19294D02*
X21654Y19153D01*
X21513Y19294D02*
Y22267D01*
X20240Y23540D02*
X21513Y22267D01*
X20240Y23540D02*
Y25128D01*
X20098Y25270D02*
X20240Y25128D01*
X20098Y25270D02*
Y25472D01*
X22150Y33470D02*
X26600D01*
X19724Y24803D02*
Y24860D01*
X19494Y25090D02*
X19724Y24860D01*
X19330Y25090D02*
X19494D01*
X20910Y27230D02*
X21470D01*
X20738Y27058D02*
X20910Y27230D01*
X25013Y32677D02*
X25370Y32320D01*
X24252Y32677D02*
X25013D01*
X20738Y31038D02*
X22149Y32449D01*
X22992Y32107D02*
Y32250D01*
Y32107D02*
X23189Y31910D01*
X23307Y32128D02*
Y32362D01*
X22780Y32450D02*
Y32990D01*
X22782Y32992D01*
X22992D01*
X26324Y32733D02*
Y33125D01*
X26147Y33302D02*
X26324Y33125D01*
X23125Y33302D02*
X26147D01*
X22992Y33169D02*
X23125Y33302D01*
X22992Y32992D02*
Y33169D01*
X22630Y32090D02*
X22638Y32082D01*
Y31535D02*
Y32082D01*
X23937Y32893D02*
Y32992D01*
Y32893D02*
X24153Y32677D01*
X24252D01*
X20581Y18937D02*
Y19169D01*
X17795Y24213D02*
X19000D01*
X17795D02*
X18386Y24803D01*
X23189Y31535D02*
Y31910D01*
X22992Y32250D02*
Y32362D01*
X15000Y23307D02*
X15512D01*
X14875Y23432D02*
X15000Y23307D01*
X14875Y23432D02*
Y24461D01*
X14730Y24606D02*
X14875Y24461D01*
X14409Y24606D02*
X14730D01*
X24803Y16535D02*
X25964Y15375D01*
X27335D01*
X27950Y15990D01*
X27840Y25880D02*
X27950Y25770D01*
X27840Y25880D02*
Y27385D01*
X24754Y18149D02*
X24803Y16535D01*
X27020Y16940D02*
Y20625D01*
X26895Y20750D02*
X27020Y20625D01*
X26398Y20748D02*
Y20750D01*
X25325Y17420D02*
Y19724D01*
X20886Y20748D02*
Y21196D01*
X20900Y21210D01*
X22530Y19724D02*
Y20250D01*
X22390Y20390D02*
X22530Y20250D01*
X21812Y20390D02*
X22390D01*
X21672Y20250D02*
X21812Y20390D01*
X21672Y19420D02*
Y20250D01*
Y19420D02*
X23228Y17864D01*
Y16535D02*
Y17864D01*
X23622Y32069D02*
Y32362D01*
X25451Y20329D02*
Y20919D01*
Y20329D02*
X25700Y20081D01*
Y18810D02*
Y20081D01*
Y18810D02*
X25890Y18620D01*
X26693D01*
X26703Y18630D01*
Y18937D01*
X24252Y32992D02*
X25727D01*
X25819Y32900D01*
X19960Y23000D02*
Y25030D01*
Y23000D02*
X21260Y21700D01*
Y20079D02*
Y21700D01*
X26703Y25367D02*
Y26260D01*
X27000Y25070D02*
X27559Y25060D01*
Y24803D02*
Y25060D01*
X24252Y32362D02*
X24774Y31840D01*
X26590Y26770D02*
X26703Y26657D01*
Y26260D02*
Y26657D01*
X25013Y32677D02*
X25130D01*
X20581Y19169D02*
Y19470D01*
X18386Y24803D02*
X19724D01*
X20738Y26299D02*
Y27058D01*
Y31038D01*
X22780Y32450D02*
X22781Y32449D01*
X22868Y32362D01*
X22149Y32449D02*
X22781D01*
X22793D01*
X22868Y32362D02*
X22880D01*
X22992D01*
X22793Y32449D02*
X22880Y32362D01*
X22992Y32250D01*
X24754Y18149D02*
Y19439D01*
X26959Y27047D02*
Y27267D01*
X26398Y20750D02*
X26895D01*
X27530Y25500D02*
Y26424D01*
X15512Y25118D02*
Y28712D01*
X18110Y31310D01*
X19646Y25344D02*
X19960Y25030D01*
X19546Y26953D02*
Y27457D01*
X19646Y25344D02*
Y26854D01*
X19546Y26953D02*
X19646Y26854D01*
X19833Y27205D02*
X20394Y27766D01*
Y31714D01*
X22150Y33470D01*
X19546Y27457D02*
X20079Y27989D01*
Y32631D01*
X19810Y32900D02*
X20079Y32631D01*
X26590Y26770D02*
X26672Y26852D01*
Y27299D01*
X27047Y27674D02*
Y30079D01*
X26672Y27299D02*
X27047Y27674D01*
X27406Y27819D02*
Y32664D01*
X26600Y33470D02*
X27406Y32664D01*
X26703Y25367D02*
X27000Y25070D01*
X27530Y25500D02*
X27790Y25240D01*
X27323Y19032D02*
Y22548D01*
X27790Y23015D01*
Y25240D01*
X27950Y15990D02*
Y18435D01*
Y23325D02*
Y25770D01*
X27480Y16170D02*
X27550Y16100D01*
X27480Y16170D02*
Y18875D01*
X27323Y19032D02*
X27480Y18875D01*
X27639Y18746D02*
X27950Y18435D01*
X27639Y18746D02*
Y18941D01*
X27482Y19098D02*
X27639Y18941D01*
X27482Y19098D02*
Y22482D01*
X27949Y22949D01*
Y23324D01*
X27950Y23325D01*
X20000Y19750D02*
X20581Y19169D01*
X20000Y19750D02*
Y22735D01*
X19801Y22934D02*
X20000Y22735D01*
X19801Y22934D02*
Y23412D01*
X19000Y24213D02*
X19801Y23412D01*
X19580Y15820D02*
X19961Y16200D01*
Y19564D01*
X19841Y19684D02*
X19961Y19564D01*
X19841Y19684D02*
Y22109D01*
X18643Y23307D02*
X19841Y22109D01*
X26132Y25694D02*
Y26260D01*
X25846Y26008D02*
Y26512D01*
X26324Y32733D02*
X26890Y32167D01*
X26132Y26260D02*
X26504Y26632D01*
Y26632D01*
X26431Y26704D02*
X26504Y26632D01*
X26431Y26704D02*
Y26836D01*
X26513Y26918D01*
Y27365D01*
X26888Y27740D01*
Y29730D01*
X26688Y29930D02*
X26888Y29730D01*
X26688Y29930D02*
Y30227D01*
X26890Y30429D01*
Y32167D01*
X25846Y26512D02*
X26354Y27020D01*
Y27431D01*
X26729Y27806D01*
Y29664D01*
X26529Y29864D02*
X26729Y29664D01*
X26529Y29864D02*
Y30293D01*
X26535Y30300D01*
Y32177D01*
X25687Y25942D02*
X25701Y25928D01*
X25687Y25942D02*
Y26578D01*
X26195Y27086D01*
Y27497D01*
X26570Y27872D01*
Y29598D01*
X26370Y29798D02*
X26570Y29598D01*
X26370Y29798D02*
Y30250D01*
X26211Y29732D02*
X26220Y29723D01*
X26211Y29732D02*
Y30125D01*
X26959Y27047D02*
X27494Y27583D01*
Y27731D01*
X27406Y27819D02*
X27494Y27731D01*
X27840Y27385D01*
X25630Y32177D02*
X26535D01*
X25130Y32677D02*
X25630Y32177D01*
X26220Y28915D02*
Y29723D01*
X21309Y26299D02*
X23605D01*
X26220Y28915D01*
D19*
X21654Y16535D02*
D03*
D20*
X22441D02*
D03*
X23228D02*
D03*
X24016D02*
D03*
X24803D02*
D03*
X25591D02*
D03*
D21*
X18701Y15098D02*
D03*
X28543D02*
D03*
X13780Y23622D02*
D03*
X18701Y32146D02*
D03*
X33465Y23622D02*
D03*
X28543Y32146D02*
D03*
D22*
X25810Y20560D02*
D03*
X27550Y16100D02*
D03*
X19330Y25090D02*
D03*
X21470Y27230D02*
D03*
X25370Y32320D02*
D03*
X18110Y31310D02*
D03*
X22630Y32090D02*
D03*
X27020Y16940D02*
D03*
X25325Y17420D02*
D03*
X20900Y21210D02*
D03*
X25819Y32900D02*
D03*
X19810D02*
D03*
X24774Y31840D02*
D03*
X27047Y30079D02*
D03*
M02*
