G04 Layer_Color=20142*
%FSLAX24Y24*%
%MOIN*%
G70*
G01*
G75*
%ADD27R,0.0513X0.0612*%
%ADD28R,0.1025X0.0474*%
%ADD29R,0.1025X0.1379*%
%ADD30R,0.0612X0.0513*%
%ADD31R,0.0434X0.0493*%
%ADD32R,0.0316X0.0434*%
%ADD33R,0.0316X0.0434*%
%ADD34R,0.0277X0.0277*%
%ADD35P,0.0726X8X202.5*%
%ADD36C,0.0671*%
%ADD37C,0.0680*%
%ADD38C,0.0580*%
D27*
X23189Y31535D02*
D03*
X22638D02*
D03*
D28*
X15512Y25118D02*
D03*
Y24213D02*
D03*
Y23307D02*
D03*
D29*
X17795Y24213D02*
D03*
D30*
X14409Y24606D02*
D03*
Y25157D02*
D03*
D31*
X26959Y27047D02*
D03*
X27530D02*
D03*
X26132Y26260D02*
D03*
X26703D02*
D03*
X19833Y27205D02*
D03*
X20404D02*
D03*
X24754Y19724D02*
D03*
X25325D02*
D03*
X26132Y18937D02*
D03*
X26703D02*
D03*
X21959Y19724D02*
D03*
X22530D02*
D03*
X20581Y18937D02*
D03*
X21152D02*
D03*
X20738Y26299D02*
D03*
X21309D02*
D03*
D32*
X27185Y25472D02*
D03*
X20098D02*
D03*
X26398Y20748D02*
D03*
X20886D02*
D03*
D33*
X27559Y24803D02*
D03*
X26811D02*
D03*
X20472D02*
D03*
X19724D02*
D03*
X26772Y20079D02*
D03*
X26024D02*
D03*
X21260D02*
D03*
X20512D02*
D03*
D34*
X24252Y32677D02*
D03*
X22992D02*
D03*
X24252Y32992D02*
D03*
X23937D02*
D03*
X24252Y32362D02*
D03*
X23937D02*
D03*
X22992Y32992D02*
D03*
Y32362D02*
D03*
X23307D02*
D03*
Y32992D02*
D03*
X23622D02*
D03*
Y32362D02*
D03*
D35*
X21654Y16535D02*
D03*
D36*
X22441D02*
D03*
X23228D02*
D03*
X24016D02*
D03*
X24803D02*
D03*
X25591D02*
D03*
D37*
X18701Y15098D02*
D03*
X28543D02*
D03*
X13780Y23622D02*
D03*
X18701Y32146D02*
D03*
X33465Y23622D02*
D03*
X28543Y32146D02*
D03*
D38*
X25810Y20560D02*
D03*
X27550Y16100D02*
D03*
X19330Y25090D02*
D03*
X21470Y27230D02*
D03*
X25370Y32320D02*
D03*
X18110Y31310D02*
D03*
X22630Y32090D02*
D03*
X27020Y16940D02*
D03*
X25325Y17420D02*
D03*
X20900Y21210D02*
D03*
X25819Y32900D02*
D03*
X19810D02*
D03*
X24774Y31840D02*
D03*
X27047Y30079D02*
D03*
M02*
