M48
;Layer_Color=6321
;FILE_FORMAT=2:4
INCH,LZ
;TYPE=PLATED
T1F00S00C0.0280
T2F00S00C0.0315
T3F00S00C0.1378
;TYPE=NON_PLATED
%
T01
X0209Y02121
X01933Y02509
X02147Y02723
X027047Y030079
X02581Y02056
X025325Y01742
X02702Y01694
X02755Y0161
X02537Y03232
X025819Y0329
X024774Y03184
X02263Y03209
X01981Y0329
X01811Y03131
T02
X021654Y016535
X022441
X023228
X024016
X024803
X025591
T03
X018701Y015098
X028543
X033465Y023622
X01378
X018701Y032146
X028543
M30
