G04 Layer_Physical_Order=2*
G04 Layer_Color=11436288*
%FSLAX24Y24*%
%MOIN*%
G70*
G01*
G75*
%ADD18C,0.0100*%
%ADD19P,0.0639X8X202.5*%
%ADD20C,0.0591*%
%ADD21C,0.0600*%
%ADD22C,0.0500*%
G36*
X35363Y23622D02*
X29493Y13454D01*
X17751D01*
X11881Y23622D01*
X17751Y33790D01*
X29493Y33798D01*
X35363Y23622D01*
D02*
G37*
%LPC*%
G36*
X13780Y24374D02*
X13633Y24359D01*
X13492Y24316D01*
X13362Y24247D01*
X13248Y24154D01*
X13155Y24040D01*
X13085Y23910D01*
X13042Y23769D01*
X13028Y23622D01*
X13042Y23475D01*
X13085Y23334D01*
X13155Y23204D01*
X13248Y23091D01*
X13362Y22997D01*
X13492Y22928D01*
X13633Y22885D01*
X13780Y22870D01*
X13926Y22885D01*
X14067Y22928D01*
X14197Y22997D01*
X14311Y23091D01*
X14404Y23204D01*
X14474Y23334D01*
X14517Y23475D01*
X14531Y23622D01*
X14517Y23769D01*
X14474Y23910D01*
X14404Y24040D01*
X14311Y24154D01*
X14197Y24247D01*
X14067Y24316D01*
X13926Y24359D01*
X13780Y24374D01*
D02*
G37*
G36*
X17212Y23190D02*
X17199Y23189D01*
X17186Y23188D01*
X17183Y23187D01*
X17181Y23187D01*
X16551Y22990D01*
X16551Y22990D01*
X16537Y22982D01*
X16523Y22975D01*
X16523Y22975D01*
X16523Y22975D01*
X16523Y22975D01*
X16051Y22581D01*
X16050Y22581D01*
X16050Y22580D01*
X16041Y22569D01*
X16031Y22557D01*
X16031Y22556D01*
X16031Y22556D01*
X15676Y21847D01*
X15675Y21842D01*
X15672Y21838D01*
X15671Y21827D01*
X15668Y21817D01*
X15669Y21812D01*
X15668Y21807D01*
X15707Y21098D01*
X15708Y21095D01*
X15708Y21091D01*
X15712Y21080D01*
X15715Y21068D01*
X15717Y21065D01*
X15718Y21062D01*
X16899Y19054D01*
X16902Y19051D01*
X16904Y19047D01*
X16912Y19039D01*
X16920Y19030D01*
X16924Y19029D01*
X16927Y19026D01*
X17635Y18593D01*
X17641Y18591D01*
X17646Y18587D01*
X17656Y18585D01*
X17665Y18582D01*
X17671Y18582D01*
X17677Y18581D01*
X18425D01*
X18440Y18584D01*
X18455Y18587D01*
X19046Y18823D01*
X19047Y18824D01*
X19050Y18825D01*
X19061Y18833D01*
X19072Y18840D01*
X19073Y18842D01*
X19075Y18843D01*
X19508Y19316D01*
X19509Y19318D01*
X19511Y19319D01*
X19517Y19331D01*
X19524Y19343D01*
X19525Y19345D01*
X19526Y19347D01*
X19762Y20134D01*
X19762Y20140D01*
X19764Y20145D01*
X19764Y20155D01*
X19765Y20166D01*
X19763Y20171D01*
X19763Y20176D01*
X19606Y20845D01*
X19600Y20857D01*
X19596Y20869D01*
X18454Y22719D01*
X18444Y22731D01*
X18433Y22742D01*
X18000Y23057D01*
X17997Y23058D01*
X17995Y23061D01*
X17983Y23065D01*
X17972Y23070D01*
X17968Y23070D01*
X17965Y23071D01*
X17217Y23190D01*
X17215Y23189D01*
X17212Y23190D01*
D02*
G37*
G36*
X30234Y23191D02*
X30229Y23189D01*
X30222Y23189D01*
X29317Y23032D01*
X29313Y23030D01*
X29309Y23030D01*
X29299Y23025D01*
X29288Y23021D01*
X29285Y23018D01*
X29281Y23016D01*
X28730Y22583D01*
X28720Y22571D01*
X28710Y22560D01*
X27765Y20906D01*
X27762Y20896D01*
X27757Y20887D01*
X27639Y20454D01*
X27638Y20444D01*
X27636Y20433D01*
Y19921D01*
X27639Y19909D01*
X27640Y19896D01*
X27798Y19423D01*
X27804Y19412D01*
X27810Y19401D01*
X28164Y18928D01*
X28166Y18926D01*
X28168Y18924D01*
X28178Y18916D01*
X28187Y18907D01*
X28190Y18906D01*
X28192Y18905D01*
X28744Y18629D01*
X28756Y18626D01*
X28767Y18621D01*
X29279Y18543D01*
X29294Y18543D01*
X29308Y18544D01*
X29859Y18662D01*
X29872Y18667D01*
X29885Y18672D01*
X30396Y18987D01*
X30399Y18989D01*
X30403Y18991D01*
X30411Y19000D01*
X30419Y19008D01*
X30421Y19011D01*
X30423Y19014D01*
X31565Y20943D01*
X31570Y20957D01*
X31575Y20969D01*
X31693Y21599D01*
X31693Y21601D01*
X31694Y21602D01*
X31693Y21617D01*
X31693Y21631D01*
X31692Y21632D01*
X31692Y21634D01*
X31535Y22264D01*
X31533Y22266D01*
X31533Y22269D01*
X31527Y22280D01*
X31521Y22292D01*
X31519Y22294D01*
X31517Y22297D01*
X31006Y22887D01*
X31003Y22890D01*
X31000Y22893D01*
X30990Y22899D01*
X30981Y22906D01*
X30977Y22907D01*
X30974Y22909D01*
X30265Y23185D01*
X30259Y23186D01*
X30254Y23189D01*
X30244Y23189D01*
X30234Y23191D01*
D02*
G37*
G36*
X33465Y24374D02*
X33318Y24359D01*
X33177Y24316D01*
X33047Y24247D01*
X32933Y24154D01*
X32840Y24040D01*
X32770Y23910D01*
X32727Y23769D01*
X32713Y23622D01*
X32727Y23475D01*
X32770Y23334D01*
X32840Y23204D01*
X32933Y23091D01*
X33047Y22997D01*
X33177Y22928D01*
X33318Y22885D01*
X33465Y22870D01*
X33611Y22885D01*
X33752Y22928D01*
X33882Y22997D01*
X33996Y23091D01*
X34090Y23204D01*
X34159Y23334D01*
X34202Y23475D01*
X34216Y23622D01*
X34202Y23769D01*
X34159Y23910D01*
X34090Y24040D01*
X33996Y24154D01*
X33882Y24247D01*
X33752Y24316D01*
X33611Y24359D01*
X33465Y24374D01*
D02*
G37*
G36*
X28543Y15850D02*
X28397Y15835D01*
X28256Y15792D01*
X28126Y15723D01*
X28012Y15630D01*
X27918Y15516D01*
X27849Y15386D01*
X27806Y15245D01*
X27792Y15098D01*
X27806Y14951D01*
X27849Y14810D01*
X27918Y14680D01*
X28012Y14567D01*
X28126Y14473D01*
X28256Y14404D01*
X28397Y14361D01*
X28543Y14346D01*
X28690Y14361D01*
X28831Y14404D01*
X28961Y14473D01*
X29075Y14567D01*
X29168Y14680D01*
X29238Y14810D01*
X29281Y14951D01*
X29295Y15098D01*
X29281Y15245D01*
X29238Y15386D01*
X29168Y15516D01*
X29075Y15630D01*
X28961Y15723D01*
X28831Y15792D01*
X28690Y15835D01*
X28543Y15850D01*
D02*
G37*
G36*
X18701D02*
X18554Y15835D01*
X18413Y15792D01*
X18283Y15723D01*
X18169Y15630D01*
X18076Y15516D01*
X18006Y15386D01*
X17964Y15245D01*
X17949Y15098D01*
X17964Y14951D01*
X18006Y14810D01*
X18076Y14680D01*
X18169Y14567D01*
X18283Y14473D01*
X18413Y14404D01*
X18554Y14361D01*
X18701Y14346D01*
X18847Y14361D01*
X18988Y14404D01*
X19118Y14473D01*
X19232Y14567D01*
X19326Y14680D01*
X19395Y14810D01*
X19438Y14951D01*
X19452Y15098D01*
X19438Y15245D01*
X19395Y15386D01*
X19326Y15516D01*
X19232Y15630D01*
X19118Y15723D01*
X18988Y15792D01*
X18847Y15835D01*
X18701Y15850D01*
D02*
G37*
G36*
X20900Y21522D02*
X20819Y21511D01*
X20744Y21480D01*
X20680Y21430D01*
X20630Y21366D01*
X20599Y21291D01*
X20588Y21210D01*
X20599Y21129D01*
X20630Y21054D01*
X20680Y20990D01*
X20744Y20940D01*
X20789Y20922D01*
Y16295D01*
X20789Y16295D01*
X20797Y16252D01*
X20821Y16216D01*
X21296Y15741D01*
X21296Y15741D01*
X21332Y15717D01*
X21375Y15709D01*
X22513D01*
X22513Y15709D01*
X22555Y15717D01*
X22592Y15741D01*
X23068Y16218D01*
X23136Y16190D01*
X23228Y16178D01*
X23321Y16190D01*
X23407Y16226D01*
X23481Y16283D01*
X23538Y16357D01*
X23574Y16443D01*
X23586Y16535D01*
X23574Y16628D01*
X23538Y16714D01*
X23488Y16779D01*
X23503Y16829D01*
X23741D01*
X23756Y16779D01*
X23706Y16714D01*
X23671Y16628D01*
X23658Y16535D01*
X23671Y16443D01*
X23706Y16357D01*
X23763Y16283D01*
X23837Y16226D01*
X23923Y16190D01*
X24016Y16178D01*
X24108Y16190D01*
X24176Y16218D01*
X24373Y16021D01*
X24409Y15997D01*
X24451Y15989D01*
X27262D01*
X27280Y15944D01*
X27330Y15880D01*
X27394Y15830D01*
X27469Y15799D01*
X27550Y15788D01*
X27631Y15799D01*
X27706Y15830D01*
X27770Y15880D01*
X27820Y15944D01*
X27851Y16019D01*
X27862Y16100D01*
X27851Y16181D01*
X27820Y16256D01*
X27770Y16320D01*
X27706Y16370D01*
X27631Y16401D01*
X27550Y16412D01*
X27469Y16401D01*
X27394Y16370D01*
X27330Y16320D01*
X27280Y16256D01*
X27262Y16211D01*
X25045D01*
X25028Y16261D01*
X25056Y16283D01*
X25113Y16357D01*
X25148Y16443D01*
X25161Y16535D01*
X25148Y16628D01*
X25113Y16714D01*
X25063Y16779D01*
X25078Y16829D01*
X26732D01*
X26750Y16784D01*
X26800Y16720D01*
X26864Y16670D01*
X26939Y16639D01*
X27020Y16628D01*
X27101Y16639D01*
X27176Y16670D01*
X27240Y16720D01*
X27290Y16784D01*
X27321Y16859D01*
X27332Y16940D01*
X27321Y17021D01*
X27290Y17096D01*
X27240Y17160D01*
X27176Y17210D01*
X27101Y17241D01*
X27020Y17252D01*
X26939Y17241D01*
X26864Y17210D01*
X26800Y17160D01*
X26750Y17096D01*
X26732Y17051D01*
X23179D01*
X23160Y17097D01*
X23371Y17309D01*
X25036D01*
X25055Y17264D01*
X25104Y17199D01*
X25169Y17150D01*
X25244Y17119D01*
X25325Y17108D01*
X25405Y17119D01*
X25481Y17150D01*
X25545Y17199D01*
X25595Y17264D01*
X25626Y17339D01*
X25637Y17420D01*
X25626Y17500D01*
X25595Y17576D01*
X25545Y17640D01*
X25481Y17690D01*
X25405Y17721D01*
X25325Y17732D01*
X25244Y17721D01*
X25169Y17690D01*
X25104Y17640D01*
X25055Y17576D01*
X25036Y17531D01*
X23325D01*
X23325Y17531D01*
X23283Y17523D01*
X23247Y17498D01*
X23247Y17498D01*
X22767Y17019D01*
X22767Y17019D01*
X22601Y16853D01*
X22533Y16881D01*
X22441Y16893D01*
X22348Y16881D01*
X22262Y16845D01*
X22188Y16788D01*
X22131Y16714D01*
X22096Y16628D01*
X22084Y16535D01*
X22096Y16443D01*
X22131Y16357D01*
X22188Y16283D01*
X22262Y16226D01*
X22348Y16190D01*
X22441Y16178D01*
X22533Y16190D01*
X22620Y16226D01*
X22694Y16283D01*
X22750Y16357D01*
X22786Y16443D01*
X22798Y16535D01*
X22786Y16628D01*
X22758Y16695D01*
X22892Y16829D01*
X22954D01*
X22968Y16779D01*
X22919Y16714D01*
X22883Y16628D01*
X22871Y16535D01*
X22883Y16443D01*
X22911Y16375D01*
X22467Y15931D01*
X21421D01*
X21011Y16341D01*
Y20922D01*
X21056Y20940D01*
X21120Y20990D01*
X21170Y21054D01*
X21201Y21129D01*
X21212Y21210D01*
X21201Y21291D01*
X21170Y21366D01*
X21120Y21430D01*
X21056Y21480D01*
X20981Y21511D01*
X20900Y21522D01*
D02*
G37*
G36*
X21831Y16890D02*
X21476D01*
X21299Y16713D01*
Y16358D01*
X21476Y16181D01*
X21831D01*
X22008Y16358D01*
Y16713D01*
X21831Y16890D01*
D02*
G37*
G36*
X18701Y32897D02*
X18554Y32883D01*
X18413Y32840D01*
X18283Y32771D01*
X18169Y32677D01*
X18076Y32563D01*
X18006Y32433D01*
X17964Y32292D01*
X17949Y32146D01*
X17964Y31999D01*
X18006Y31858D01*
X18076Y31728D01*
X18169Y31614D01*
X18283Y31521D01*
X18413Y31451D01*
X18554Y31408D01*
X18701Y31394D01*
X18847Y31408D01*
X18988Y31451D01*
X19118Y31521D01*
X19232Y31614D01*
X19326Y31728D01*
X19395Y31858D01*
X19438Y31999D01*
X19452Y32146D01*
X19438Y32292D01*
X19395Y32433D01*
X19326Y32563D01*
X19232Y32677D01*
X19118Y32771D01*
X18988Y32840D01*
X18847Y32883D01*
X18701Y32897D01*
D02*
G37*
G36*
X18259Y30277D02*
X18258Y30277D01*
X18258Y30277D01*
X17589Y30198D01*
X17575Y30193D01*
X17560Y30189D01*
X17049Y29913D01*
X17040Y29906D01*
X17030Y29899D01*
X16794Y29663D01*
X16788Y29654D01*
X16781Y29646D01*
X15757Y27835D01*
X15753Y27822D01*
X15748Y27810D01*
X15669Y27377D01*
X15669Y27365D01*
X15668Y27354D01*
X15708Y26961D01*
X15710Y26953D01*
X15711Y26945D01*
X15829Y26552D01*
X15835Y26540D01*
X15841Y26528D01*
X16156Y26095D01*
X16164Y26086D01*
X16172Y26078D01*
X16487Y25841D01*
X16498Y25836D01*
X16508Y25830D01*
X16941Y25673D01*
X16951Y25671D01*
X16961Y25668D01*
X17354Y25629D01*
X17365Y25630D01*
X17375Y25629D01*
X17848Y25708D01*
X17860Y25713D01*
X17873Y25717D01*
X18306Y25953D01*
X18311Y25957D01*
X18317Y25960D01*
X18323Y25967D01*
X18330Y25973D01*
X18333Y25979D01*
X18337Y25984D01*
X19755Y28464D01*
X19758Y28474D01*
X19763Y28484D01*
X19763Y28489D01*
X19765Y28494D01*
X19764Y28505D01*
X19765Y28515D01*
X19686Y29066D01*
X19682Y29077D01*
X19679Y29089D01*
X19443Y29601D01*
X19442Y29602D01*
X19442Y29603D01*
X19433Y29614D01*
X19425Y29626D01*
X19423Y29627D01*
X19422Y29628D01*
X18871Y30100D01*
X18870Y30101D01*
X18869Y30102D01*
X18856Y30109D01*
X18844Y30116D01*
X18842Y30116D01*
X18841Y30117D01*
X18290Y30274D01*
X18290Y30274D01*
X18290Y30274D01*
X18274Y30275D01*
X18259Y30277D01*
D02*
G37*
G36*
X25819Y33212D02*
X25739Y33201D01*
X25664Y33170D01*
X25599Y33120D01*
X25549Y33056D01*
X25531Y33011D01*
X20098D01*
X20080Y33056D01*
X20030Y33120D01*
X19966Y33170D01*
X19891Y33201D01*
X19810Y33212D01*
X19729Y33201D01*
X19654Y33170D01*
X19590Y33120D01*
X19540Y33056D01*
X19509Y32981D01*
X19498Y32900D01*
X19509Y32819D01*
X19540Y32744D01*
X19590Y32680D01*
X19654Y32630D01*
X19729Y32599D01*
X19810Y32588D01*
X19891Y32599D01*
X19966Y32630D01*
X20030Y32680D01*
X20080Y32744D01*
X20098Y32789D01*
X25531D01*
X25549Y32744D01*
X25599Y32680D01*
X25664Y32630D01*
X25739Y32599D01*
X25819Y32588D01*
X25900Y32599D01*
X25975Y32630D01*
X26040Y32680D01*
X26089Y32744D01*
X26120Y32819D01*
X26131Y32900D01*
X26120Y32981D01*
X26089Y33056D01*
X26040Y33120D01*
X25975Y33170D01*
X25900Y33201D01*
X25819Y33212D01*
D02*
G37*
G36*
X28543Y32897D02*
X28397Y32883D01*
X28256Y32840D01*
X28126Y32771D01*
X28012Y32677D01*
X27918Y32563D01*
X27849Y32433D01*
X27806Y32292D01*
X27792Y32146D01*
X27806Y31999D01*
X27849Y31858D01*
X27918Y31728D01*
X28012Y31614D01*
X28126Y31521D01*
X28256Y31451D01*
X28397Y31408D01*
X28543Y31394D01*
X28690Y31408D01*
X28831Y31451D01*
X28961Y31521D01*
X29075Y31614D01*
X29168Y31728D01*
X29238Y31858D01*
X29281Y31999D01*
X29295Y32146D01*
X29281Y32292D01*
X29238Y32433D01*
X29168Y32563D01*
X29075Y32677D01*
X28961Y32771D01*
X28831Y32840D01*
X28690Y32883D01*
X28543Y32897D01*
D02*
G37*
G36*
X29105Y30276D02*
X29094Y30276D01*
X29082Y30276D01*
X28570Y30197D01*
X28556Y30192D01*
X28542Y30187D01*
X28070Y29912D01*
X28059Y29902D01*
X28048Y29893D01*
X27694Y29460D01*
X27687Y29448D01*
X27680Y29436D01*
X27483Y28885D01*
X27483Y28883D01*
X27482Y28881D01*
X27481Y28868D01*
X27479Y28854D01*
X27479Y28852D01*
X27479Y28850D01*
X27558Y28102D01*
X27558Y28101D01*
X27558Y28101D01*
X27563Y28086D01*
X27567Y28072D01*
X27568Y28071D01*
X27568Y28071D01*
X28276Y26811D01*
X28278Y26809D01*
X28279Y26807D01*
X28712Y26138D01*
X28712Y26138D01*
X28712Y26138D01*
X28712Y26137D01*
X28723Y26126D01*
X28734Y26115D01*
X29246Y25761D01*
X29253Y25757D01*
X29261Y25753D01*
X29268Y25751D01*
X29274Y25748D01*
X29283Y25748D01*
X29291Y25746D01*
X30591D01*
X30602Y25749D01*
X30613Y25750D01*
X30617Y25752D01*
X30621Y25753D01*
X30631Y25759D01*
X30641Y25764D01*
X31231Y26237D01*
X31233Y26239D01*
X31236Y26240D01*
X31243Y26251D01*
X31251Y26260D01*
X31252Y26263D01*
X31254Y26266D01*
X31490Y26777D01*
X31493Y26788D01*
X31497Y26798D01*
X31575Y27270D01*
X31575Y27285D01*
X31575Y27299D01*
X31457Y27890D01*
X31451Y27903D01*
X31447Y27916D01*
X30344Y29727D01*
X30338Y29734D01*
X30332Y29742D01*
X30057Y30017D01*
X30046Y30025D01*
X30036Y30032D01*
X29721Y30190D01*
X29708Y30193D01*
X29696Y30198D01*
X29105Y30276D01*
D02*
G37*
G36*
X21470Y27542D02*
X21389Y27531D01*
X21314Y27500D01*
X21250Y27450D01*
X21200Y27386D01*
X21169Y27311D01*
X21158Y27230D01*
X21169Y27149D01*
X21187Y27105D01*
X19455Y25373D01*
X19411Y25391D01*
X19330Y25402D01*
X19249Y25391D01*
X19174Y25360D01*
X19110Y25310D01*
X19060Y25246D01*
X19029Y25171D01*
X19018Y25090D01*
X19029Y25009D01*
X19060Y24934D01*
X19110Y24870D01*
X19174Y24820D01*
X19249Y24789D01*
X19330Y24778D01*
X19411Y24789D01*
X19486Y24820D01*
X19550Y24870D01*
X19600Y24934D01*
X19631Y25009D01*
X19642Y25090D01*
X19631Y25171D01*
X19613Y25215D01*
X21345Y26947D01*
X21389Y26929D01*
X21470Y26918D01*
X21551Y26929D01*
X21626Y26960D01*
X21690Y27010D01*
X21740Y27074D01*
X21771Y27149D01*
X21782Y27230D01*
X21771Y27311D01*
X21740Y27386D01*
X21690Y27450D01*
X21626Y27500D01*
X21551Y27531D01*
X21470Y27542D01*
D02*
G37*
G36*
X23630Y25710D02*
X23621Y25709D01*
X23612Y25710D01*
X22982Y25631D01*
X22981Y25630D01*
X22980Y25630D01*
X22966Y25626D01*
X22952Y25621D01*
X22951Y25620D01*
X22950Y25620D01*
X22242Y25187D01*
X22235Y25180D01*
X22227Y25175D01*
X21951Y24899D01*
X21945Y24890D01*
X21938Y24882D01*
X21741Y24527D01*
X21739Y24522D01*
X21736Y24518D01*
X21579Y24124D01*
X21577Y24114D01*
X21574Y24104D01*
X21535Y23789D01*
X21535Y23784D01*
X21534Y23780D01*
Y23346D01*
X21536Y23336D01*
X21537Y23325D01*
X21655Y22892D01*
X21659Y22884D01*
X21662Y22875D01*
X21898Y22442D01*
X21904Y22435D01*
X21908Y22427D01*
X22184Y22112D01*
X22188Y22109D01*
X22192Y22104D01*
X22467Y21868D01*
X22477Y21863D01*
X22486Y21856D01*
X22998Y21620D01*
X23005Y21618D01*
X23012Y21615D01*
X23327Y21536D01*
X23337Y21536D01*
X23346Y21534D01*
X23622D01*
X23625Y21534D01*
X23627Y21534D01*
X24218Y21573D01*
X24218Y21573D01*
X24218Y21573D01*
X24233Y21578D01*
X24248Y21582D01*
X24248Y21582D01*
X24248Y21582D01*
X24642Y21779D01*
X24649Y21784D01*
X24656Y21788D01*
X25050Y22103D01*
X25055Y22109D01*
X25062Y22114D01*
X25455Y22586D01*
X25462Y22599D01*
X25469Y22611D01*
X25666Y23162D01*
X25668Y23176D01*
X25671Y23189D01*
Y23976D01*
X25669Y23987D01*
X25668Y23997D01*
X25550Y24431D01*
X25546Y24439D01*
X25543Y24448D01*
X25268Y24959D01*
X25258Y24970D01*
X25250Y24982D01*
X24935Y25257D01*
X24929Y25261D01*
X24924Y25265D01*
X24609Y25462D01*
X24601Y25465D01*
X24594Y25469D01*
X24043Y25666D01*
X24033Y25668D01*
X24024Y25670D01*
X23630Y25710D01*
D02*
G37*
G36*
X24774Y32152D02*
X24693Y32141D01*
X24618Y32110D01*
X24554Y32060D01*
X24504Y31996D01*
X24473Y31921D01*
X24462Y31840D01*
X24473Y31759D01*
X24504Y31684D01*
X24554Y31620D01*
X24618Y31570D01*
X24693Y31539D01*
X24774Y31528D01*
X24855Y31539D01*
X24899Y31557D01*
X26457Y30000D01*
X26457Y30000D01*
X26493Y29976D01*
X26535Y29968D01*
X26535Y29968D01*
X26759D01*
X26777Y29923D01*
X26827Y29858D01*
X26891Y29809D01*
X26967Y29778D01*
X27047Y29767D01*
X27128Y29778D01*
X27203Y29809D01*
X27268Y29858D01*
X27317Y29923D01*
X27348Y29998D01*
X27359Y30079D01*
X27348Y30159D01*
X27317Y30235D01*
X27268Y30299D01*
X27203Y30349D01*
X27128Y30380D01*
X27047Y30390D01*
X26967Y30380D01*
X26891Y30349D01*
X26827Y30299D01*
X26777Y30235D01*
X26759Y30190D01*
X26581D01*
X25057Y31715D01*
X25075Y31759D01*
X25086Y31840D01*
X25075Y31921D01*
X25044Y31996D01*
X24995Y32060D01*
X24930Y32110D01*
X24855Y32141D01*
X24774Y32152D01*
D02*
G37*
G36*
X24606Y31183D02*
X22638D01*
X22625Y31180D01*
X22612Y31179D01*
X22022Y30982D01*
X22021Y30981D01*
X22021Y30981D01*
X22008Y30974D01*
X21995Y30966D01*
X21994Y30966D01*
X21994Y30966D01*
X21640Y30651D01*
X21632Y30641D01*
X21624Y30632D01*
X21270Y30041D01*
X21268Y30036D01*
X21264Y30031D01*
X21262Y30021D01*
X21259Y30012D01*
X21259Y30006D01*
X21258Y30000D01*
Y29134D01*
X21258Y29133D01*
X21258Y29133D01*
X21261Y29118D01*
X21264Y29103D01*
X21265Y29103D01*
X21265Y29102D01*
X21501Y28551D01*
X21502Y28550D01*
X21502Y28549D01*
X21511Y28537D01*
X21519Y28525D01*
X21520Y28525D01*
X21521Y28523D01*
X21993Y28090D01*
X21994Y28090D01*
X21995Y28089D01*
X22007Y28082D01*
X22020Y28074D01*
X22021Y28074D01*
X22022Y28073D01*
X22612Y27877D01*
X22625Y27875D01*
X22638Y27872D01*
X24567D01*
X24576Y27874D01*
X24584Y27874D01*
X24939Y27953D01*
X24939Y27953D01*
X24940Y27953D01*
X24954Y27960D01*
X24967Y27966D01*
X24968Y27966D01*
X24968Y27966D01*
X25677Y28478D01*
X25680Y28482D01*
X25684Y28484D01*
X25691Y28493D01*
X25698Y28501D01*
X25700Y28505D01*
X25703Y28509D01*
X26018Y29178D01*
X26018Y29180D01*
X26019Y29182D01*
X26022Y29195D01*
X26025Y29209D01*
X26025Y29211D01*
X26025Y29213D01*
Y29921D01*
X26024Y29926D01*
X26025Y29931D01*
X26021Y29941D01*
X26019Y29952D01*
X26016Y29956D01*
X26015Y29961D01*
X25661Y30591D01*
X25656Y30595D01*
X25654Y30601D01*
X25646Y30607D01*
X25640Y30614D01*
X25635Y30617D01*
X25630Y30621D01*
X24646Y31172D01*
X24641Y31174D01*
X24637Y31177D01*
X24626Y31179D01*
X24616Y31182D01*
X24611Y31182D01*
X24606Y31183D01*
D02*
G37*
%LPD*%
D18*
X25810Y20560D02*
X27380Y18990D01*
Y16665D02*
Y18990D01*
X27250Y16535D02*
X27380Y16665D01*
X25591Y16535D02*
X27250D01*
X24016D02*
X24451Y16100D01*
X27550D01*
X19330Y25090D02*
X21470Y27230D01*
X22630Y32090D02*
X22860Y32320D01*
X25370D01*
X18110Y31310D02*
X19500D01*
X20280Y32090D01*
X22630D01*
X22845Y16940D02*
X27020D01*
X23325Y17420D02*
X25325D01*
X20900Y16295D02*
Y21210D01*
Y16295D02*
X21375Y15820D01*
X22513D01*
X23228Y16535D01*
X19810Y32900D02*
X25819D01*
X22441Y16535D02*
X22845Y16940D01*
X23325Y17420D01*
X24774Y31840D02*
X26535Y30079D01*
X27047D01*
D19*
X21654Y16535D02*
D03*
D20*
X22441D02*
D03*
X23228D02*
D03*
X24016D02*
D03*
X24803D02*
D03*
X25591D02*
D03*
D21*
X18701Y15098D02*
D03*
X28543D02*
D03*
X13780Y23622D02*
D03*
X18701Y32146D02*
D03*
X33465Y23622D02*
D03*
X28543Y32146D02*
D03*
D22*
X25810Y20560D02*
D03*
X27550Y16100D02*
D03*
X19330Y25090D02*
D03*
X21470Y27230D02*
D03*
X25370Y32320D02*
D03*
X18110Y31310D02*
D03*
X22630Y32090D02*
D03*
X27020Y16940D02*
D03*
X25325Y17420D02*
D03*
X20900Y21210D02*
D03*
X25819Y32900D02*
D03*
X19810D02*
D03*
X24774Y31840D02*
D03*
X27047Y30079D02*
D03*
M02*
