M48
;Layer_Color=6321
;FILE_FORMAT=2:4
INCH,LZ
T4F00S00C0.2000
;TYPE=PLATED
T1F00S00C0.0280
T2F00S00C0.0315
T3F00S00C0.1378
;TYPE=NON_PLATED
%
T01
X0209Y02121
X01933Y02509
X02147Y02723
X027047Y030079
X02581Y02056
X025325Y01742
X02702Y01694
X02755Y0161
X02537Y03232
X025819Y0329
X024774Y03184
X02263Y03209
X01981Y0329
X01811Y03131
T02
X021654Y016535
X022441
X023228
X024016
X024803
X025591
T03
X018701Y015098
X028543
X033465Y023622
X01378
X018701Y032146
X028543
T04
G00X024503Y028963
M15
G01X024835Y029203
G01X024945Y029436
G01X024945Y029659
G01X024857Y029816
G01X024345Y030102
G01X0228Y030102
G01X022558Y030022
G01X022472Y029945
G01X022339Y029723
G01X022339Y029339
G01X022409Y029174
G01X022566Y029031
G01X0228Y028953
G01X024457Y028953
G01X024503Y028963
M16
G00X030372Y026933
M15
G01X030453Y027108
G01X03048Y027267
G01X030432Y027505
G01X029484Y029063
G01X029408Y029139
G01X029387Y029149
G01X029105Y029187
G01X028922Y029159
G01X02877Y02907
G01X028639Y02891
G01X028577Y028736
G01X028611Y02842
G01X029203Y027368
G01X029512Y026891
G01X029604Y026827
G01X03024Y026827
G01X030372Y026933
M16
G00X029465Y019682
M15
G01X02962Y019777
G01X030546Y021342
G01X030591Y021584
G01X030545Y02177
G01X030351Y021992
G01X030133Y022077
G01X02975Y022011
G01X029551Y021854
G01X028766Y02048
G01X028717Y020299
G01X028717Y020084
G01X028771Y019919
G01X028887Y019765
G01X029087Y019665
G01X029262Y019638
G01X029465Y019682
M16
G00X018433Y019741
M15
G01X018557Y019877
G01X01865Y020189
G01X018591Y02044
G01X017638Y021984
G01X017559Y022042
G01X01728Y022086
G01X017063Y022018
G01X016903Y021885
G01X016761Y021601
G01X016772Y0214
G01X017704Y019817
G01X017959Y019661
G01X018233Y019661
G01X018433Y019741
M16
G00X017504Y026746
M15
G01X01754Y026766
G01X018647Y028702
G01X018637Y028769
G01X018554Y02895
G01X018334Y029138
G01X018186Y02918
G01X017905Y029147
G01X01769Y029032
G01X017654Y028996
G01X01678Y02745
G01X016757Y027322
G01X016773Y027164
G01X016814Y027025
G01X016941Y026852
G01X017017Y026795
G01X017193Y026731
G01X017329Y026717
G01X017504Y026746
M16
G00X023945Y022638
M15
G01X024064Y022697
G01X024296Y022883
G01X024512Y023141
G01X024591Y023362
G01X024591Y023842
G01X024538Y024036
G01X024402Y024288
G01X024284Y024391
G01X024129Y024488
G01X023795Y024608
G01X023634Y024624
G01X02333Y024586
G01X022906Y024327
G01X022814Y024234
G01X022716Y024058
G01X02263Y023843
G01X022614Y023717
G01X022614Y02348
G01X022666Y023289
G01X022794Y023056
G01X022949Y022878
G01X023065Y022779
G01X023365Y02264
G01X02347Y022614
G01X023589Y022614
G01X023945Y022638
M16
G00X029528Y012373
M15
M16
M17
M30
