G04 Layer_Color=16770453*
%FSLAX24Y24*%
%MOIN*%
G70*
G01*
G75*
%ADD10R,0.0236X0.0354*%
%ADD11R,0.0354X0.0335*%
%ADD12R,0.0394X0.0354*%
%ADD16R,0.0433X0.0669*%
%ADD40R,0.0512X0.0354*%
%ADD41R,0.0827X0.0354*%
%ADD42R,0.0827X0.0740*%
%ADD43R,0.0142X0.0740*%
%ADD44O,0.0157X0.0413*%
%ADD45O,0.0413X0.0157*%
%ADD46R,0.0354X0.0354*%
%ADD47R,0.0669X0.0433*%
%ADD48R,0.0320X0.0350*%
%ADD49O,0.0650X0.0197*%
%ADD50O,0.0197X0.0650*%
G04:AMPARAMS|DCode=51|XSize=35.8mil|YSize=48mil|CornerRadius=9mil|HoleSize=0mil|Usage=FLASHONLY|Rotation=270.000|XOffset=0mil|YOffset=0mil|HoleType=Round|Shape=RoundedRectangle|*
%AMROUNDEDRECTD51*
21,1,0.0358,0.0301,0,0,270.0*
21,1,0.0179,0.0480,0,0,270.0*
1,1,0.0179,-0.0151,-0.0090*
1,1,0.0179,-0.0151,0.0090*
1,1,0.0179,0.0151,0.0090*
1,1,0.0179,0.0151,-0.0090*
%
%ADD51ROUNDEDRECTD51*%
%ADD52R,0.0748X0.0354*%
%ADD53R,0.0748X0.1260*%
%ADD54R,0.0315X0.1043*%
D10*
X29045Y31550D02*
D03*
X28455D02*
D03*
X24745Y27550D02*
D03*
X24155D02*
D03*
X29045Y30950D02*
D03*
X28455D02*
D03*
D11*
X22200Y34456D02*
D03*
Y33944D02*
D03*
X26400Y33956D02*
D03*
Y33444D02*
D03*
X17000Y37006D02*
D03*
Y36494D02*
D03*
D12*
X15600Y36385D02*
D03*
Y37015D02*
D03*
X27750Y33435D02*
D03*
Y34065D02*
D03*
X12750Y33585D02*
D03*
Y34215D02*
D03*
D16*
X29422Y29300D02*
D03*
X28378D02*
D03*
X29422Y30150D02*
D03*
X28378D02*
D03*
D40*
X25938Y30688D02*
D03*
D41*
X26726D02*
D03*
D42*
X26765Y31515D02*
D03*
D43*
X25781D02*
D03*
D44*
X27080Y32312D02*
D03*
X26765D02*
D03*
X26450D02*
D03*
X26135D02*
D03*
X25820D02*
D03*
Y30088D02*
D03*
X26135D02*
D03*
X26450D02*
D03*
X26765D02*
D03*
X27080D02*
D03*
D45*
X25338Y31830D02*
D03*
Y31515D02*
D03*
Y31200D02*
D03*
Y30885D02*
D03*
Y30570D02*
D03*
X27562D02*
D03*
Y30885D02*
D03*
Y31200D02*
D03*
Y31515D02*
D03*
Y31830D02*
D03*
D46*
X11950Y33595D02*
D03*
Y33005D02*
D03*
X11200Y33595D02*
D03*
Y33005D02*
D03*
X20300Y33645D02*
D03*
Y33055D02*
D03*
X18800Y33595D02*
D03*
Y33005D02*
D03*
D47*
X28550Y40328D02*
D03*
Y41372D02*
D03*
D48*
X10500Y25600D02*
D03*
Y26200D02*
D03*
X10450Y24300D02*
D03*
Y23700D02*
D03*
X18050Y25600D02*
D03*
Y26200D02*
D03*
X17850Y24600D02*
D03*
Y24000D02*
D03*
D49*
X19954Y30630D02*
D03*
Y30315D02*
D03*
Y30000D02*
D03*
Y29685D02*
D03*
Y29370D02*
D03*
Y29055D02*
D03*
Y28740D02*
D03*
Y28425D02*
D03*
X16646D02*
D03*
Y28740D02*
D03*
Y29055D02*
D03*
Y29370D02*
D03*
Y29685D02*
D03*
Y30000D02*
D03*
Y30315D02*
D03*
Y30630D02*
D03*
X12354Y30652D02*
D03*
Y30337D02*
D03*
Y30022D02*
D03*
Y29707D02*
D03*
Y29393D02*
D03*
Y29078D02*
D03*
Y28763D02*
D03*
Y28448D02*
D03*
X9046D02*
D03*
Y28763D02*
D03*
Y29078D02*
D03*
Y29393D02*
D03*
Y29707D02*
D03*
Y30022D02*
D03*
Y30337D02*
D03*
Y30652D02*
D03*
D50*
X19402Y27874D02*
D03*
X19087D02*
D03*
X18772D02*
D03*
X18457D02*
D03*
X18143D02*
D03*
X17828D02*
D03*
X17513D02*
D03*
X17198D02*
D03*
Y31181D02*
D03*
X17513D02*
D03*
X17828D02*
D03*
X18143D02*
D03*
X18457D02*
D03*
X18772D02*
D03*
X19087D02*
D03*
X19402D02*
D03*
X11802Y27896D02*
D03*
X11487D02*
D03*
X11172D02*
D03*
X10857D02*
D03*
X10543D02*
D03*
X10228D02*
D03*
X9913D02*
D03*
X9598D02*
D03*
Y31204D02*
D03*
X9913D02*
D03*
X10228D02*
D03*
X10543D02*
D03*
X10857D02*
D03*
X11172D02*
D03*
X11487D02*
D03*
X11802D02*
D03*
D51*
X26750Y37196D02*
D03*
Y35904D02*
D03*
X14550Y35954D02*
D03*
Y37246D02*
D03*
D52*
X30469Y36156D02*
D03*
Y35250D02*
D03*
Y34344D02*
D03*
X30169Y26406D02*
D03*
Y25500D02*
D03*
Y24594D02*
D03*
D53*
X27831Y35250D02*
D03*
X27531Y25500D02*
D03*
D54*
X6450Y11950D02*
D03*
X7750D02*
D03*
M02*
