G04 Layer_Color=7318015*
%FSLAX24Y24*%
%MOIN*%
G70*
G01*
G75*
%ADD10R,0.0236X0.0354*%
%ADD11R,0.0354X0.0335*%
%ADD12R,0.0394X0.0354*%
%ADD13R,0.0354X0.0354*%
%ADD14R,0.0984X0.0197*%
%ADD15R,0.0984X0.0787*%
%ADD16R,0.0433X0.0669*%
%ADD17R,0.1098X0.0650*%
%ADD18O,0.0709X0.0138*%
D10*
X24745Y27550D02*
D03*
X24155D02*
D03*
D11*
X22200Y34456D02*
D03*
Y33944D02*
D03*
D12*
X17600Y30065D02*
D03*
Y29435D02*
D03*
X10000Y30065D02*
D03*
Y29435D02*
D03*
X22400Y25785D02*
D03*
Y26415D02*
D03*
D13*
X9195Y32450D02*
D03*
X8605D02*
D03*
X16895Y32600D02*
D03*
X16305D02*
D03*
D14*
X27871Y19870D02*
D03*
Y20185D02*
D03*
Y20500D02*
D03*
Y20815D02*
D03*
Y21130D02*
D03*
Y25370D02*
D03*
Y25685D02*
D03*
Y26000D02*
D03*
Y26315D02*
D03*
Y26630D02*
D03*
D15*
Y22205D02*
D03*
X30029Y18795D02*
D03*
Y22205D02*
D03*
X27871Y18795D02*
D03*
Y27705D02*
D03*
X30029Y24295D02*
D03*
Y27705D02*
D03*
X27871Y24295D02*
D03*
D16*
X24922Y35550D02*
D03*
X23878D02*
D03*
D17*
X30603Y28550D02*
D03*
Y32550D02*
D03*
X23150D02*
D03*
Y31550D02*
D03*
Y30550D02*
D03*
Y29550D02*
D03*
Y28550D02*
D03*
D18*
X23111Y26613D02*
D03*
Y26357D02*
D03*
Y26102D02*
D03*
Y25846D02*
D03*
Y25590D02*
D03*
Y25334D02*
D03*
Y25078D02*
D03*
Y24822D02*
D03*
Y24566D02*
D03*
Y24310D02*
D03*
Y24054D02*
D03*
Y23798D02*
D03*
Y23543D02*
D03*
Y23287D02*
D03*
X25789Y26613D02*
D03*
Y26357D02*
D03*
Y26102D02*
D03*
Y25846D02*
D03*
Y25590D02*
D03*
Y25334D02*
D03*
Y25078D02*
D03*
Y24822D02*
D03*
Y24566D02*
D03*
Y24310D02*
D03*
Y24054D02*
D03*
Y23798D02*
D03*
Y23543D02*
D03*
Y23287D02*
D03*
X23061Y22113D02*
D03*
Y21857D02*
D03*
Y21602D02*
D03*
Y21346D02*
D03*
Y21090D02*
D03*
Y20834D02*
D03*
Y20578D02*
D03*
Y20322D02*
D03*
Y20066D02*
D03*
Y19810D02*
D03*
Y19554D02*
D03*
Y19298D02*
D03*
Y19043D02*
D03*
Y18787D02*
D03*
X25739Y22113D02*
D03*
Y21857D02*
D03*
Y21602D02*
D03*
Y21346D02*
D03*
Y21090D02*
D03*
Y20834D02*
D03*
Y20578D02*
D03*
Y20322D02*
D03*
Y20066D02*
D03*
Y19810D02*
D03*
Y19554D02*
D03*
Y19298D02*
D03*
Y19043D02*
D03*
Y18787D02*
D03*
M02*
