M48
;Layer_Color=6321
;FILE_FORMAT=2:4
INCH,LZ
T15F00S00C0.2000
%
G90
G05
T15
G00X031695Y008862
M15
G01X031886Y008922
G01X032061Y009017
G01X032214Y009146
G01X032338Y009303
G01X032428Y009481
G01X032482Y009673
G01X032496Y009843
G01X032496Y043307
G01X032476Y043506
G01X032417Y043697
G01X032321Y043872
G01X032193Y044025
G01X032036Y044149
G01X031858Y044239
G01X031665Y044293
G01X031496Y044307
G01X003937Y044307
G01X003738Y044287
G01X003547Y044228
G01X003372Y044132
G01X003219Y044004
G01X003095Y043847
G01X003005Y043669
G01X002951Y043476
G01X002937Y043307
G01X002937Y009843
G01X002957Y009644
G01X003016Y009453
G01X003112Y009278
G01X003241Y009125
G01X003397Y009001
G01X003575Y00891
G01X003768Y008857
G01X003937Y008843
G01X031496Y008843
G01X031695Y008862
M16
M17
M30
