G04 Layer_Physical_Order=2*
G04 Layer_Color=11436288*
%FSLAX24Y24*%
%MOIN*%
G70*
G01*
G75*
%ADD14R,0.0413X0.0394*%
%ADD17C,0.0100*%
%ADD18C,0.1575*%
%ADD19C,0.0886*%
%ADD21C,0.0118*%
%ADD23C,0.0492*%
%ADD24C,0.0394*%
%ADD25C,0.0197*%
%ADD35C,0.0600*%
%ADD36C,0.0472*%
%ADD37C,0.1280*%
%ADD38C,0.0591*%
%ADD39R,0.0591X0.0591*%
%ADD40C,0.0700*%
G04:AMPARAMS|DCode=41|XSize=70mil|YSize=70mil|CornerRadius=17.5mil|HoleSize=0mil|Usage=FLASHONLY|Rotation=90.000|XOffset=0mil|YOffset=0mil|HoleType=Round|Shape=RoundedRectangle|*
%AMROUNDEDRECTD41*
21,1,0.0700,0.0350,0,0,90.0*
21,1,0.0350,0.0700,0,0,90.0*
1,1,0.0350,0.0175,0.0175*
1,1,0.0350,0.0175,-0.0175*
1,1,0.0350,-0.0175,-0.0175*
1,1,0.0350,-0.0175,0.0175*
%
%ADD41ROUNDEDRECTD41*%
%ADD42C,0.1900*%
%ADD43R,0.0600X0.0600*%
%ADD44C,0.0787*%
%ADD45R,0.0787X0.0787*%
%ADD46C,0.1378*%
%ADD47R,0.1378X0.1378*%
%ADD48C,0.0800*%
%ADD49R,0.0800X0.0800*%
%ADD50C,0.0256*%
%ADD51C,0.0252*%
%ADD52C,0.0394*%
%ADD53C,0.0236*%
%ADD54C,0.0138*%
%ADD55R,0.0591X0.1102*%
%ADD56R,0.0354X0.0394*%
%ADD57R,0.0374X0.0413*%
%ADD58R,0.0433X0.0354*%
%ADD59R,0.0571X0.0512*%
%ADD60R,0.0315X0.0354*%
%ADD61R,0.0354X0.0354*%
%ADD62O,0.0315X0.0098*%
%ADD63O,0.0098X0.0315*%
%ADD64R,0.1457X0.1457*%
%ADD65C,0.0059*%
%ADD66C,0.0079*%
%ADD67C,0.0051*%
%ADD68C,0.0138*%
%ADD69C,0.1280*%
%ADD70R,0.1141X0.2780*%
%ADD71R,0.0188X0.0182*%
%ADD72R,0.0184X0.0523*%
%ADD73R,0.0551X0.0177*%
%ADD74R,0.0424X0.0284*%
%ADD75R,0.0148X0.0659*%
G36*
X28563Y45066D02*
X28774Y45015D01*
X28974Y44932D01*
X29159Y44819D01*
X29324Y44678D01*
X29465Y44513D01*
X29578Y44328D01*
X29661Y44128D01*
X29712Y43917D01*
X29728Y43705D01*
X29725Y43701D01*
X29725D01*
X29729Y27165D01*
X29712Y26949D01*
X29661Y26738D01*
X29578Y26538D01*
X29465Y26353D01*
X29324Y26188D01*
X29159Y26047D01*
X28974Y25934D01*
X28774Y25851D01*
X28563Y25800D01*
X28351Y25783D01*
X28346Y25787D01*
Y25787D01*
X5118Y25783D01*
X4902Y25800D01*
X4691Y25851D01*
X4491Y25934D01*
X4306Y26047D01*
X4141Y26188D01*
X4000Y26353D01*
X3886Y26538D01*
X3803Y26738D01*
X3753Y26949D01*
X3736Y27161D01*
X3740Y27165D01*
X3740D01*
X3736Y43701D01*
X3753Y43917D01*
X3803Y44128D01*
X3886Y44328D01*
X4000Y44513D01*
X4141Y44678D01*
X4306Y44819D01*
X4491Y44932D01*
X4691Y45015D01*
X4902Y45066D01*
X5114Y45083D01*
X5118Y45079D01*
Y45079D01*
X28346Y45083D01*
X28563Y45066D01*
D02*
G37*
%LPC*%
G36*
X28346Y44976D02*
Y44974D01*
X5118D01*
Y44976D01*
X4919Y44961D01*
X4724Y44914D01*
X4539Y44837D01*
X4368Y44733D01*
X4216Y44603D01*
X4086Y44451D01*
X3982Y44280D01*
X3905Y44095D01*
X3858Y43900D01*
X3846Y43750D01*
X3846Y43750D01*
X3846Y43750D01*
X3843Y43701D01*
X3845Y43701D01*
X3845D01*
Y27165D01*
X3843D01*
X3858Y26966D01*
X3905Y26771D01*
X3982Y26586D01*
X4086Y26416D01*
X4216Y26263D01*
X4368Y26133D01*
X4539Y26029D01*
X4724Y25952D01*
X4919Y25905D01*
X5118Y25890D01*
Y25892D01*
X28346D01*
Y25890D01*
X28546Y25905D01*
X28741Y25952D01*
X28926Y26029D01*
X29096Y26133D01*
X29248Y26263D01*
X29378Y26416D01*
X29483Y26586D01*
X29560Y26771D01*
X29606Y26966D01*
X29622Y27165D01*
X29620D01*
Y43701D01*
X29622D01*
X29606Y43900D01*
X29560Y44095D01*
X29483Y44280D01*
X29378Y44451D01*
X29248Y44603D01*
X29096Y44733D01*
X28926Y44837D01*
X28741Y44914D01*
X28546Y44961D01*
X28346Y44976D01*
D02*
G37*
%LPD*%
G36*
X5594Y34872D02*
X5592Y34858D01*
X5602Y34783D01*
X5615Y34751D01*
X5319Y34454D01*
X5295Y34418D01*
X5286Y34375D01*
Y33716D01*
X5295Y33673D01*
X5319Y33636D01*
X5636Y33320D01*
Y32723D01*
X5549Y32636D01*
X5508Y32666D01*
X5524Y32695D01*
X5563Y32825D01*
X5576Y32961D01*
X5563Y33096D01*
X5524Y33226D01*
X5459Y33346D01*
X5373Y33452D01*
X5268Y33538D01*
X5148Y33602D01*
X5017Y33642D01*
X4882Y33655D01*
X4746Y33642D01*
X4616Y33602D01*
X4496Y33538D01*
X4391Y33452D01*
X4304Y33346D01*
X4250Y33245D01*
X4200Y33257D01*
Y33549D01*
X5546Y34895D01*
X5594Y34872D01*
D02*
G37*
G36*
X15630Y35276D02*
X15817D01*
X15886Y35207D01*
Y35128D01*
X15778Y35020D01*
X15735Y34850D01*
X15728Y34793D01*
Y34390D01*
X15610Y34400D01*
Y35295D01*
X15630Y35276D01*
D02*
G37*
G36*
X17140Y31720D02*
Y31368D01*
X17106Y31334D01*
X17083Y31301D01*
X17076Y31261D01*
Y31072D01*
X17083Y31032D01*
X17106Y30999D01*
X17140Y30965D01*
Y30907D01*
X17106Y30892D01*
X17090Y30890D01*
X16725Y31255D01*
X16732Y31319D01*
X16756Y31335D01*
X16793Y31391D01*
X16806Y31457D01*
X16793Y31523D01*
X16756Y31579D01*
X16700Y31616D01*
X16670Y31622D01*
Y31673D01*
X16714Y31682D01*
X16773Y31721D01*
X16812Y31781D01*
X16826Y31850D01*
X16812Y31920D01*
X16787Y31958D01*
X16808Y32002D01*
X16853Y32007D01*
X17140Y31720D01*
D02*
G37*
G36*
X15391Y37093D02*
X15424Y37071D01*
X15464Y37063D01*
X16244D01*
X16261Y37013D01*
X16222Y36983D01*
X16166Y36909D01*
X16130Y36824D01*
X16118Y36732D01*
X16130Y36641D01*
X16166Y36555D01*
X16222Y36482D01*
X16295Y36426D01*
X16381Y36390D01*
X16472Y36378D01*
X16564Y36390D01*
X16629Y36417D01*
X16884Y36162D01*
X16884Y36162D01*
X16861Y36114D01*
X16861Y36114D01*
X16681Y36294D01*
X16671Y36298D01*
X16663Y36306D01*
X16653Y36310D01*
X16642Y36310D01*
X16642Y36310D01*
X16632Y36314D01*
X13073D01*
X13054Y36322D01*
X13021Y36355D01*
X13014Y36372D01*
X13013Y36374D01*
Y36519D01*
X13013Y36519D01*
X13047Y36541D01*
X13069Y36575D01*
X13077Y36614D01*
X13069Y36654D01*
X13047Y36687D01*
X13013Y36709D01*
X13013Y36709D01*
Y38861D01*
X13009Y38871D01*
Y38882D01*
X13005Y38892D01*
X12997Y38900D01*
X12997Y38900D01*
X13000Y38905D01*
X13034Y38942D01*
X13081Y38933D01*
X13128Y38942D01*
X13142Y38952D01*
X13532D01*
X15391Y37093D01*
D02*
G37*
G36*
X28346Y44829D02*
X28523Y44815D01*
X28695Y44774D01*
X28859Y44706D01*
X29010Y44614D01*
X29144Y44499D01*
X29259Y44364D01*
X29352Y44213D01*
X29420Y44049D01*
X29461Y43877D01*
X29475Y43701D01*
X29475D01*
Y27165D01*
X29475D01*
X29461Y26989D01*
X29420Y26817D01*
X29352Y26653D01*
X29259Y26502D01*
X29144Y26367D01*
X29010Y26252D01*
X28859Y26160D01*
X28695Y26092D01*
X28523Y26051D01*
X28346Y26037D01*
Y26037D01*
X5118D01*
Y26037D01*
X4942Y26051D01*
X4769Y26092D01*
X4606Y26160D01*
X4455Y26252D01*
X4320Y26367D01*
X4205Y26502D01*
X4113Y26653D01*
X4045Y26817D01*
X4004Y26989D01*
X3990Y27165D01*
X3990D01*
Y28182D01*
X4040Y28203D01*
X5944Y26298D01*
X5981Y26274D01*
X6024Y26266D01*
X19504D01*
X19547Y26274D01*
X19583Y26298D01*
X19820Y26535D01*
X19882Y26509D01*
X19972Y26497D01*
X20063Y26509D01*
X20147Y26544D01*
X20220Y26599D01*
X20275Y26672D01*
X20310Y26756D01*
X20322Y26846D01*
X20310Y26937D01*
X20275Y27021D01*
X20220Y27094D01*
X20147Y27149D01*
X20063Y27184D01*
X19972Y27196D01*
X19882Y27184D01*
X19798Y27149D01*
X19725Y27094D01*
X19670Y27021D01*
X19635Y26937D01*
X19623Y26846D01*
X19635Y26756D01*
X19661Y26694D01*
X19457Y26490D01*
X19149D01*
X19139Y26540D01*
X19147Y26544D01*
X19220Y26599D01*
X19275Y26672D01*
X19310Y26756D01*
X19322Y26846D01*
X19310Y26937D01*
X19275Y27021D01*
X19220Y27094D01*
X19147Y27149D01*
X19063Y27184D01*
X18972Y27196D01*
X18882Y27184D01*
X18798Y27149D01*
X18725Y27094D01*
X18670Y27021D01*
X18635Y26937D01*
X18623Y26846D01*
X18623Y26845D01*
X18590Y26808D01*
X18290D01*
X18280Y26858D01*
X18283Y26859D01*
X18356Y26915D01*
X18412Y26988D01*
X18448Y27074D01*
X18460Y27165D01*
X18448Y27257D01*
X18412Y27342D01*
X18356Y27416D01*
X18283Y27472D01*
X18197Y27508D01*
X18106Y27520D01*
X18014Y27508D01*
X17928Y27472D01*
X17855Y27416D01*
X17799Y27342D01*
X17763Y27257D01*
X17751Y27165D01*
X17763Y27074D01*
X17799Y26988D01*
X17855Y26915D01*
X17928Y26859D01*
X17931Y26858D01*
X17921Y26808D01*
X17350D01*
X17340Y26858D01*
X17342Y26859D01*
X17416Y26915D01*
X17472Y26988D01*
X17507Y27074D01*
X17520Y27165D01*
X17507Y27257D01*
X17472Y27342D01*
X17416Y27416D01*
X17342Y27472D01*
X17257Y27508D01*
X17165Y27520D01*
X17074Y27508D01*
X16988Y27472D01*
X16915Y27416D01*
X16859Y27342D01*
X16823Y27257D01*
X16811Y27165D01*
X16823Y27074D01*
X16859Y26988D01*
X16915Y26915D01*
X16988Y26859D01*
X16990Y26858D01*
X16981Y26808D01*
X6087D01*
X5617Y27278D01*
X5644Y27320D01*
X5772Y27282D01*
X5906Y27268D01*
X6039Y27282D01*
X6167Y27320D01*
X6286Y27384D01*
X6389Y27469D01*
X6475Y27573D01*
X6538Y27691D01*
X6577Y27819D01*
X6590Y27953D01*
X6577Y28086D01*
X6538Y28215D01*
X6475Y28333D01*
X6389Y28437D01*
X6286Y28522D01*
X6167Y28585D01*
X6039Y28624D01*
X5906Y28637D01*
X5772Y28624D01*
X5644Y28585D01*
X5525Y28522D01*
X5422Y28437D01*
X5336Y28333D01*
X5273Y28215D01*
X5234Y28086D01*
X5221Y27953D01*
X5234Y27819D01*
X5273Y27691D01*
X5231Y27665D01*
X5153Y27742D01*
Y31923D01*
X5828Y32597D01*
X5852Y32633D01*
X5860Y32676D01*
Y33366D01*
X5852Y33409D01*
X5828Y33446D01*
X5511Y33762D01*
Y34328D01*
X5774Y34592D01*
X5807Y34578D01*
X5882Y34568D01*
X5957Y34578D01*
X6027Y34607D01*
X6087Y34653D01*
X6133Y34713D01*
X6162Y34783D01*
X6172Y34858D01*
X6162Y34933D01*
X6133Y35003D01*
X6087Y35063D01*
X6042Y35097D01*
X6059Y35147D01*
X6318D01*
X6332Y35115D01*
X6378Y35055D01*
X6438Y35009D01*
X6508Y34980D01*
X6583Y34970D01*
X6658Y34980D01*
X6728Y35009D01*
X6788Y35055D01*
X6834Y35115D01*
X6863Y35185D01*
X6873Y35260D01*
X6863Y35335D01*
X6834Y35405D01*
X6788Y35465D01*
X6728Y35511D01*
X6658Y35540D01*
X6583Y35550D01*
X6508Y35540D01*
X6438Y35511D01*
X6378Y35465D01*
X6332Y35405D01*
X6318Y35372D01*
X6064D01*
X6047Y35422D01*
X6087Y35452D01*
X6133Y35513D01*
X6162Y35582D01*
X6172Y35657D01*
X6162Y35733D01*
X6133Y35802D01*
X6087Y35862D01*
X6027Y35909D01*
X5957Y35937D01*
X5882Y35947D01*
X5807Y35937D01*
X5737Y35909D01*
X5677Y35862D01*
X5631Y35802D01*
X5602Y35733D01*
X5592Y35657D01*
X5602Y35582D01*
X5631Y35513D01*
X5677Y35452D01*
X5723Y35417D01*
X5714Y35366D01*
X5713Y35365D01*
X5709Y35364D01*
X5672Y35339D01*
X4040Y33706D01*
X3990Y33727D01*
Y43651D01*
X3990Y43693D01*
X3998Y43701D01*
X3998D01*
X3998Y43701D01*
X3998Y43701D01*
X3994Y43751D01*
X4004Y43877D01*
X4045Y44049D01*
X4113Y44213D01*
X4205Y44364D01*
X4320Y44499D01*
X4455Y44614D01*
X4606Y44706D01*
X4769Y44774D01*
X4942Y44815D01*
X5118Y44829D01*
Y44829D01*
X9799D01*
X9814Y44810D01*
X9821Y44779D01*
X9309Y44267D01*
X9305Y44257D01*
X9297Y44249D01*
X9293Y44239D01*
X9293Y44228D01*
X9293Y44228D01*
X9289Y44218D01*
Y42837D01*
X9293Y42827D01*
Y42816D01*
X9297Y42806D01*
X9305Y42799D01*
X9305Y42798D01*
X9305D01*
X9309Y42788D01*
X10974Y41124D01*
X10982Y41105D01*
Y37293D01*
X10986Y37283D01*
X10986Y37282D01*
Y37271D01*
X10990Y37262D01*
X10998Y37254D01*
X11002Y37244D01*
X11346Y36899D01*
X11347Y36898D01*
X11347Y36898D01*
Y36898D01*
X11354Y36880D01*
Y36431D01*
X11346Y36412D01*
X11341Y36407D01*
X11340Y36406D01*
X11340Y36405D01*
X11334Y36399D01*
X11329Y36389D01*
X11322Y36381D01*
X11318Y36372D01*
X11318Y36361D01*
X11317Y36360D01*
Y36360D01*
X11313Y36350D01*
Y36225D01*
X11314Y36222D01*
X11314Y36220D01*
X11360Y35728D01*
X11326Y35691D01*
X10894D01*
Y35341D01*
X10794Y35241D01*
X8732D01*
Y35366D01*
X8197D01*
Y34909D01*
X8732D01*
Y35035D01*
X9118D01*
X9126Y35030D01*
X9127Y35030D01*
X9146Y34985D01*
X9109Y34948D01*
X9105Y34938D01*
X9097Y34930D01*
X9093Y34920D01*
X9093Y34909D01*
X9093Y34909D01*
Y34909D01*
X9088Y34899D01*
Y32635D01*
X9093Y32624D01*
X9093Y32613D01*
X9097Y32604D01*
X9105Y32596D01*
X9109Y32586D01*
X9118Y32577D01*
X9128Y32573D01*
X9136Y32565D01*
X9145Y32561D01*
X9156Y32561D01*
X9157Y32561D01*
X9157Y32561D01*
X9167Y32557D01*
X9578D01*
X9599Y32530D01*
X9600Y32516D01*
X9599Y32499D01*
X9587Y32481D01*
X9583Y32461D01*
X8650Y31528D01*
X8628Y31495D01*
X8626Y31485D01*
X8214Y31074D01*
X8192Y31040D01*
X8184Y31001D01*
Y28611D01*
X8158Y28594D01*
X8119Y28534D01*
X8105Y28465D01*
X8119Y28395D01*
X8158Y28335D01*
X8218Y28296D01*
X8287Y28282D01*
X8357Y28296D01*
X8417Y28335D01*
X8456Y28395D01*
X8470Y28465D01*
X8456Y28534D01*
X8417Y28594D01*
X8391Y28611D01*
Y30958D01*
X8806Y31373D01*
X8828Y31407D01*
X8830Y31416D01*
X9534Y32120D01*
X9580Y32095D01*
X9569Y32044D01*
X9583Y31975D01*
X9622Y31916D01*
X9650Y31897D01*
X9658Y31834D01*
X9322Y31499D01*
X9300Y31465D01*
X9292Y31426D01*
Y29120D01*
X9147Y28976D01*
X9117Y28982D01*
X9047Y28968D01*
X8987Y28928D01*
X8948Y28869D01*
X8934Y28799D01*
X8948Y28729D01*
X8987Y28670D01*
X9047Y28630D01*
X9117Y28617D01*
X9186Y28630D01*
X9246Y28670D01*
X9285Y28729D01*
X9299Y28799D01*
X9293Y28830D01*
X9468Y29005D01*
X9490Y29038D01*
X9498Y29078D01*
Y31383D01*
X9903Y31787D01*
X9953Y31769D01*
Y28372D01*
X9972Y28276D01*
X10027Y28194D01*
X10109Y28139D01*
X10206Y28120D01*
X10302Y28139D01*
X10384Y28194D01*
X10439Y28276D01*
X10458Y28372D01*
Y32557D01*
X10559D01*
X10570Y32561D01*
X10581Y32561D01*
X10590Y32565D01*
X10598Y32573D01*
X10608Y32577D01*
X10659Y32627D01*
X10663Y32637D01*
X10663Y32637D01*
X10671Y32645D01*
X10675Y32655D01*
Y32666D01*
X10679Y32676D01*
Y33695D01*
X10687Y33714D01*
X11358Y34385D01*
X11376Y34393D01*
X11821D01*
X11858Y34390D01*
Y33906D01*
X12315D01*
Y34236D01*
X12631Y34552D01*
X14420D01*
X14438Y34526D01*
X14497Y34487D01*
X14503Y34474D01*
X14504Y34434D01*
X14501Y34428D01*
X14505Y34419D01*
X14504Y34410D01*
X14513Y34400D01*
X14518Y34389D01*
X14549Y34357D01*
X14528Y34307D01*
X14416D01*
Y34360D01*
X14400Y34399D01*
X14361Y34416D01*
X13937D01*
X13898Y34399D01*
X13882Y34360D01*
Y34076D01*
X13856Y34037D01*
X12773D01*
X12733Y34030D01*
X12700Y34007D01*
X12149Y33457D01*
X11858D01*
Y33000D01*
X12276D01*
Y33291D01*
X12816Y33831D01*
X13961D01*
X13980Y33785D01*
X13927Y33732D01*
X13884Y33723D01*
X13825Y33684D01*
X13786Y33625D01*
X13781Y33600D01*
X13726Y33562D01*
X13561D01*
X13544Y33588D01*
X13485Y33628D01*
X13415Y33642D01*
X13345Y33628D01*
X13286Y33588D01*
X13246Y33529D01*
X13232Y33459D01*
X13246Y33389D01*
X13286Y33330D01*
X13345Y33290D01*
X13415Y33276D01*
X13485Y33290D01*
X13544Y33330D01*
X13561Y33356D01*
X13683D01*
X13872Y33167D01*
X13894Y33145D01*
X13874Y33095D01*
X13714D01*
X13671Y33086D01*
X13634Y33062D01*
X13235Y32662D01*
X13210Y32626D01*
X13202Y32583D01*
Y32164D01*
X13210Y32121D01*
X13235Y32084D01*
X13412Y31907D01*
X13449Y31882D01*
X13492Y31874D01*
X14841D01*
X15584Y31131D01*
X15620Y31107D01*
X15663Y31098D01*
X15696D01*
X15707Y31081D01*
X15760Y31046D01*
X15760Y31022D01*
X15752Y30996D01*
X15638D01*
Y30991D01*
X15592Y30972D01*
X14868Y31695D01*
X14835Y31717D01*
X14795Y31725D01*
X13392D01*
X13375Y31751D01*
X13316Y31791D01*
X13246Y31805D01*
X13176Y31791D01*
X13117Y31751D01*
X13077Y31692D01*
X13063Y31622D01*
X13077Y31552D01*
X13117Y31493D01*
X13176Y31453D01*
X13246Y31439D01*
X13316Y31453D01*
X13375Y31493D01*
X13392Y31519D01*
X14753D01*
X15577Y30695D01*
X15610Y30672D01*
X15638Y30667D01*
Y30539D01*
X15926D01*
X15964Y30496D01*
X15960Y30474D01*
X15974Y30405D01*
X15982Y30392D01*
X15958Y30348D01*
X14683D01*
X13873Y31159D01*
X13846Y31176D01*
X13815Y31183D01*
X13390D01*
X13358Y31176D01*
X13332Y31159D01*
X13314Y31132D01*
X13307Y31100D01*
Y30482D01*
X13314Y30451D01*
X13332Y30424D01*
X13383Y30373D01*
X13409Y30355D01*
X13441Y30349D01*
X13550D01*
X13860Y30038D01*
X13862Y30033D01*
X13882Y30003D01*
X15199Y28686D01*
X15228Y28666D01*
X15264Y28659D01*
X15264Y28659D01*
X19029D01*
X20669Y27019D01*
X20635Y26937D01*
X20623Y26846D01*
X20635Y26756D01*
X20670Y26672D01*
X20725Y26599D01*
X20798Y26544D01*
X20882Y26509D01*
X20972Y26497D01*
X21063Y26509D01*
X21147Y26544D01*
X21220Y26599D01*
X21275Y26672D01*
X21310Y26756D01*
X21322Y26846D01*
X21310Y26937D01*
X21275Y27021D01*
X21220Y27094D01*
X21147Y27149D01*
X21063Y27184D01*
X20972Y27196D01*
X20882Y27184D01*
X20800Y27150D01*
X19133Y28816D01*
X19103Y28836D01*
X19068Y28844D01*
X19068Y28844D01*
X15302D01*
X14012Y30133D01*
X13982Y30153D01*
X13977Y30154D01*
X13717Y30414D01*
X13736Y30461D01*
X13783D01*
X14415Y29829D01*
X14449Y29806D01*
X14488Y29798D01*
X16319D01*
X16358Y29806D01*
X16392Y29829D01*
X16604Y30041D01*
X16731D01*
X16771Y30049D01*
X16804Y30071D01*
X17316Y30583D01*
X17338Y30616D01*
X17346Y30656D01*
Y30957D01*
X17385Y30989D01*
X17408Y30984D01*
X17478Y30998D01*
X17537Y31037D01*
X17554Y31063D01*
X17911D01*
X17951Y31071D01*
X17984Y31094D01*
X18476Y31585D01*
X18600D01*
X18639Y31593D01*
X18673Y31615D01*
X18723Y31666D01*
X18782D01*
X18822Y31674D01*
X18855Y31696D01*
X18914Y31755D01*
X18937Y31789D01*
X18944Y31828D01*
Y31887D01*
X19005Y31948D01*
X19029Y31946D01*
X19122Y31875D01*
X19230Y31830D01*
X19346Y31815D01*
X19463Y31830D01*
X19571Y31875D01*
X19664Y31946D01*
X19735Y32039D01*
X19780Y32148D01*
X19795Y32264D01*
X19780Y32380D01*
X19735Y32488D01*
X19664Y32581D01*
X19571Y32652D01*
X19463Y32697D01*
X19457Y32698D01*
X19450Y32734D01*
X19426Y32770D01*
X18211Y33986D01*
Y34303D01*
X17754D01*
Y33807D01*
X18071D01*
X19164Y32715D01*
X19154Y32666D01*
X19122Y32652D01*
X19029Y32581D01*
X18958Y32488D01*
X18913Y32380D01*
X18898Y32264D01*
X18913Y32148D01*
X18913Y32148D01*
X18838Y32072D01*
X18791Y32091D01*
Y32709D01*
X17902D01*
Y32307D01*
X17252D01*
X17166Y32393D01*
X17185Y32439D01*
X17718D01*
Y33053D01*
X17719D01*
Y33069D01*
X17718D01*
Y33683D01*
X17045D01*
Y33676D01*
X16417D01*
X16413Y33675D01*
X16309D01*
X16270Y33667D01*
X16237Y33645D01*
X16214Y33612D01*
X16207Y33573D01*
X16214Y33534D01*
X16237Y33500D01*
Y33448D01*
X16214Y33415D01*
X16207Y33376D01*
X16214Y33337D01*
X16237Y33304D01*
Y33252D01*
X16214Y33218D01*
X16207Y33179D01*
X16214Y33140D01*
X16237Y33107D01*
Y33055D01*
X16214Y33021D01*
X16207Y32982D01*
X16214Y32943D01*
X16237Y32910D01*
X16270Y32888D01*
X16309Y32880D01*
X16361D01*
X17126Y32115D01*
X17162Y32091D01*
X17205Y32082D01*
X17902D01*
Y31819D01*
X18357D01*
X18372Y31769D01*
X18360Y31761D01*
X17869Y31270D01*
X17554D01*
X17537Y31296D01*
X17478Y31335D01*
X17408Y31349D01*
X17385Y31345D01*
X17346Y31376D01*
Y31763D01*
X17338Y31802D01*
X17316Y31836D01*
X16963Y32188D01*
X16930Y32211D01*
X16891Y32219D01*
X16812D01*
X16667Y32363D01*
Y32442D01*
X16659Y32481D01*
X16637Y32515D01*
X16461Y32691D01*
X16427Y32713D01*
X16388Y32721D01*
X16156D01*
Y32726D01*
X16148Y32766D01*
X16126Y32799D01*
X16092Y32821D01*
X16053Y32829D01*
X16014Y32821D01*
X15981Y32799D01*
X15929D01*
X15895Y32821D01*
X15856Y32829D01*
X15817Y32821D01*
X15784Y32799D01*
X15732D01*
X15699Y32821D01*
X15659Y32829D01*
X15620Y32821D01*
X15587Y32799D01*
X15535D01*
X15502Y32821D01*
X15463Y32829D01*
X15423Y32821D01*
X15390Y32799D01*
X15338D01*
X15305Y32821D01*
X15266Y32829D01*
X15227Y32821D01*
X15193Y32799D01*
X15171Y32766D01*
X15163Y32726D01*
Y32510D01*
X15171Y32471D01*
X15193Y32437D01*
X15209Y32427D01*
X15194Y32377D01*
X14975D01*
Y32618D01*
X14974Y32622D01*
Y32726D01*
X14967Y32766D01*
X14944Y32799D01*
X14911Y32821D01*
X14872Y32829D01*
X14833Y32821D01*
X14800Y32799D01*
X14777Y32766D01*
X14770Y32726D01*
Y32622D01*
X14769Y32618D01*
Y32377D01*
X14103D01*
X14081Y32404D01*
X14067Y32473D01*
X14028Y32533D01*
X13968Y32572D01*
X13898Y32586D01*
X13829Y32572D01*
X13769Y32533D01*
X13730Y32473D01*
X13716Y32404D01*
X13730Y32334D01*
X13769Y32274D01*
X13829Y32235D01*
X13898Y32221D01*
X13914Y32224D01*
X13937Y32201D01*
X13971Y32178D01*
X14010Y32170D01*
X15174D01*
X15916Y31429D01*
X15891Y31382D01*
X15837Y31393D01*
X15767Y31379D01*
X15707Y31340D01*
X15694Y31339D01*
X14967Y32066D01*
X14931Y32090D01*
X14888Y32099D01*
X13538D01*
X13427Y32210D01*
Y32536D01*
X13760Y32870D01*
X14508D01*
X14551Y32878D01*
X14553Y32880D01*
X14616D01*
X14655Y32888D01*
X14689Y32910D01*
X14711Y32943D01*
X14718Y32982D01*
X14711Y33021D01*
X14689Y33055D01*
Y33107D01*
X14711Y33140D01*
X14718Y33179D01*
X14711Y33218D01*
X14689Y33252D01*
Y33304D01*
X14711Y33337D01*
X14718Y33376D01*
X14711Y33415D01*
X14689Y33448D01*
X14655Y33471D01*
X14616Y33478D01*
X14400D01*
X14360Y33471D01*
X14327Y33448D01*
X14305Y33415D01*
X14297Y33376D01*
X14305Y33337D01*
X14308Y33332D01*
X14281Y33282D01*
X14049D01*
X14018Y33313D01*
X13996Y33335D01*
X14010Y33383D01*
X14024Y33386D01*
X14083Y33426D01*
X14123Y33485D01*
X14137Y33555D01*
X14123Y33625D01*
X14118Y33632D01*
X14153Y33667D01*
X14508D01*
X14512Y33667D01*
X14616D01*
X14655Y33675D01*
X14689Y33697D01*
X14711Y33731D01*
X14718Y33770D01*
X14711Y33809D01*
X14689Y33842D01*
Y33894D01*
X14711Y33927D01*
X14718Y33967D01*
X14711Y34006D01*
X14689Y34039D01*
X14687Y34040D01*
X14701Y34075D01*
Y34110D01*
X14711Y34124D01*
X14718Y34163D01*
X14711Y34203D01*
X14701Y34217D01*
Y34252D01*
X14698Y34261D01*
X14731Y34311D01*
X14902Y34312D01*
X14931D01*
X14933Y34312D01*
X14934Y34312D01*
X14948Y34319D01*
X14970Y34328D01*
X14970D01*
X15017Y34333D01*
X15030Y34325D01*
X15069Y34317D01*
X15108Y34325D01*
X15118Y34331D01*
X15151Y34321D01*
X15191Y34305D01*
X15339D01*
X15378Y34321D01*
X15423Y34325D01*
X15463Y34317D01*
X15502Y34325D01*
X15526Y34341D01*
X15541Y34347D01*
X15587Y34347D01*
X15620Y34325D01*
X15659Y34317D01*
X15699Y34325D01*
X15714Y34335D01*
X15724Y34335D01*
X15726Y34335D01*
X15728Y34334D01*
X15746Y34342D01*
X15764Y34347D01*
X15808Y34330D01*
X15811Y34329D01*
X15817Y34325D01*
X15856Y34317D01*
X15895Y34325D01*
X15919Y34341D01*
X15929Y34347D01*
X15929Y34347D01*
X15930Y34347D01*
X15973Y34347D01*
X15986Y34343D01*
X16014Y34325D01*
X16053Y34317D01*
X16092Y34325D01*
X16121Y34344D01*
X16143D01*
X16151Y34340D01*
X16182Y34294D01*
X16179Y34271D01*
X16180Y34267D01*
X16178Y34262D01*
X16179Y34071D01*
X16187Y34051D01*
X16195Y34032D01*
X16196Y34032D01*
X16196Y34032D01*
X16215Y34024D01*
X16235Y34016D01*
X16552D01*
X16580Y34027D01*
X16591Y34032D01*
X16919Y34360D01*
X17248Y34688D01*
X17264Y34728D01*
Y34989D01*
X17248Y35029D01*
X17175Y35102D01*
X17159Y35108D01*
X17144Y35117D01*
X17097Y35124D01*
X17092Y35123D01*
X17088Y35125D01*
X16973Y35125D01*
X16928Y35169D01*
X16928Y35200D01*
X17035Y35307D01*
X17043Y35305D01*
X17085Y35283D01*
X17085D01*
X17134Y35283D01*
X17541D01*
Y35428D01*
X17962D01*
X18017Y35391D01*
X18022Y35366D01*
X18062Y35307D01*
X18068Y35303D01*
X18072Y35246D01*
X17899Y35073D01*
X17877Y35039D01*
X17876Y35031D01*
X17744D01*
Y34535D01*
X18201D01*
Y35031D01*
X18201Y35031D01*
X18201D01*
X18196Y35078D01*
X18264Y35146D01*
X18286Y35179D01*
X18294Y35219D01*
Y35290D01*
X18320Y35307D01*
X18360Y35366D01*
X18374Y35436D01*
X18360Y35506D01*
X18352Y35518D01*
X18375Y35563D01*
X18510D01*
X18924Y35149D01*
Y33757D01*
X18898Y33740D01*
X18858Y33681D01*
X18844Y33611D01*
X18858Y33541D01*
X18898Y33481D01*
X18957Y33442D01*
X19027Y33428D01*
X19097Y33442D01*
X19156Y33481D01*
X19196Y33541D01*
X19209Y33611D01*
X19196Y33681D01*
X19156Y33740D01*
X19130Y33757D01*
Y35191D01*
X19122Y35231D01*
X19113Y35244D01*
X19100Y35264D01*
X18625Y35739D01*
X18592Y35761D01*
X18552Y35769D01*
X18096D01*
X18057Y35761D01*
X18023Y35739D01*
X17919Y35635D01*
X17541D01*
Y35780D01*
X17123D01*
Y35834D01*
X17134Y35847D01*
X17169Y35872D01*
X22802D01*
X22845Y35880D01*
X22882Y35905D01*
X23767Y36790D01*
X23792Y36827D01*
X23800Y36870D01*
X23792Y36913D01*
X23767Y36949D01*
X23765Y36952D01*
Y38388D01*
X23782Y38400D01*
X23821Y38459D01*
X23835Y38529D01*
X23821Y38599D01*
X23782Y38658D01*
X23722Y38697D01*
X23652Y38711D01*
X23582Y38697D01*
X23523Y38658D01*
X23484Y38599D01*
X23470Y38529D01*
X23482Y38467D01*
X23464Y38447D01*
X23442Y38434D01*
X23408Y38456D01*
X23338Y38470D01*
X23268Y38456D01*
X23209Y38417D01*
X23169Y38357D01*
X23155Y38287D01*
X23159Y38268D01*
X22878Y37987D01*
X22836Y38015D01*
X22869Y38095D01*
X22886Y38224D01*
X22869Y38353D01*
X22819Y38473D01*
X22740Y38576D01*
X22637Y38656D01*
X22516Y38705D01*
X22387Y38722D01*
X16196D01*
X15971Y38948D01*
Y41732D01*
X15954Y41861D01*
X15904Y41981D01*
X15825Y42085D01*
X15722Y42164D01*
X15601Y42214D01*
X15472Y42231D01*
X15343Y42214D01*
X15223Y42164D01*
X15120Y42085D01*
X15041Y41981D01*
X14991Y41861D01*
X14974Y41732D01*
Y38741D01*
X14991Y38612D01*
X15041Y38492D01*
X15120Y38389D01*
X15637Y37872D01*
X15741Y37792D01*
X15861Y37743D01*
X15990Y37726D01*
X22387D01*
X22516Y37743D01*
X22597Y37776D01*
X22625Y37733D01*
X21173Y36282D01*
X17082D01*
X16788Y36576D01*
X16815Y36641D01*
X16827Y36732D01*
X16815Y36824D01*
X16779Y36909D01*
X16723Y36983D01*
X16684Y37013D01*
X16700Y37063D01*
X17244D01*
X17261Y37013D01*
X17222Y36983D01*
X17166Y36909D01*
X17130Y36824D01*
X17118Y36732D01*
X17130Y36641D01*
X17166Y36555D01*
X17222Y36482D01*
X17295Y36426D01*
X17381Y36390D01*
X17472Y36378D01*
X17564Y36390D01*
X17650Y36426D01*
X17723Y36482D01*
X17779Y36555D01*
X17815Y36641D01*
X17827Y36732D01*
X17815Y36824D01*
X17779Y36909D01*
X17723Y36983D01*
X17684Y37013D01*
X17700Y37063D01*
X18244D01*
X18261Y37013D01*
X18222Y36983D01*
X18166Y36909D01*
X18130Y36824D01*
X18118Y36732D01*
X18130Y36641D01*
X18166Y36555D01*
X18222Y36482D01*
X18295Y36426D01*
X18381Y36390D01*
X18472Y36378D01*
X18564Y36390D01*
X18650Y36426D01*
X18723Y36482D01*
X18779Y36555D01*
X18815Y36641D01*
X18827Y36732D01*
X18815Y36824D01*
X18779Y36909D01*
X18723Y36983D01*
X18684Y37013D01*
X18700Y37063D01*
X18996D01*
X19161Y36898D01*
X19130Y36824D01*
X19118Y36732D01*
X19130Y36641D01*
X19166Y36555D01*
X19222Y36482D01*
X19295Y36426D01*
X19381Y36390D01*
X19472Y36378D01*
X19564Y36390D01*
X19650Y36426D01*
X19723Y36482D01*
X19779Y36555D01*
X19815Y36641D01*
X19827Y36732D01*
X19815Y36824D01*
X19779Y36909D01*
X19723Y36983D01*
X19650Y37039D01*
X19564Y37074D01*
X19472Y37086D01*
X19381Y37074D01*
X19307Y37044D01*
X19179Y37172D01*
X19198Y37218D01*
X19841D01*
X20121Y36938D01*
Y36381D01*
X20824D01*
Y37083D01*
X20267D01*
X19956Y37394D01*
X19923Y37417D01*
X19883Y37424D01*
X15565D01*
X13808Y39181D01*
X13808Y39181D01*
X13796Y39193D01*
X13605Y39384D01*
X13572Y39407D01*
X13532Y39415D01*
X13164D01*
X13150Y39425D01*
X13103Y39434D01*
X13083Y39430D01*
X13058Y39476D01*
X13877Y40294D01*
X13881Y40305D01*
X13889Y40312D01*
X13893Y40322D01*
X13893Y40333D01*
X13893Y40334D01*
X13897Y40343D01*
Y43082D01*
X13893Y43092D01*
Y43103D01*
X13889Y43113D01*
X13881Y43121D01*
X13877Y43131D01*
X12228Y44779D01*
X12236Y44810D01*
X12250Y44829D01*
X28346D01*
Y44829D01*
D02*
G37*
G36*
X17135Y35062D02*
X17135D01*
X17208Y34989D01*
Y34728D01*
X16552Y34071D01*
X16235D01*
X16233Y34263D01*
X16241Y34310D01*
X16266Y34335D01*
X16313Y34344D01*
X16378D01*
X16417Y34360D01*
X16450Y34393D01*
X16585D01*
X16624Y34410D01*
X16640Y34449D01*
Y34682D01*
X16890Y34931D01*
X16906Y34970D01*
Y35069D01*
X17088Y35070D01*
X17135Y35062D01*
D02*
G37*
G36*
X23540Y38178D02*
Y36905D01*
X23544Y36885D01*
X22756Y36097D01*
X21371D01*
X21352Y36143D01*
X23318Y38109D01*
X23338Y38105D01*
X23408Y38119D01*
X23467Y38158D01*
X23490Y38193D01*
X23540Y38178D01*
D02*
G37*
G36*
X18798Y26544D02*
X18806Y26540D01*
X18796Y26490D01*
X6070D01*
X6026Y26535D01*
X6035Y26565D01*
X6048Y26583D01*
X18747D01*
X18798Y26544D01*
D02*
G37*
G36*
X4304Y32575D02*
X4391Y32470D01*
X4496Y32383D01*
X4616Y32319D01*
X4746Y32279D01*
X4882Y32266D01*
X5017Y32279D01*
X5148Y32319D01*
X5176Y32334D01*
X5206Y32294D01*
X4960Y32047D01*
X4936Y32011D01*
X4927Y31968D01*
X4929Y31960D01*
Y27703D01*
X4911Y27690D01*
X4881Y27680D01*
X4200Y28360D01*
Y32664D01*
X4250Y32676D01*
X4304Y32575D01*
D02*
G37*
G36*
X14591Y30208D02*
X14618Y30190D01*
X14649Y30183D01*
X16229D01*
X16260Y30190D01*
X16276Y30200D01*
X16406D01*
X16426Y30154D01*
X16276Y30005D01*
X14531D01*
X13939Y30597D01*
Y30794D01*
X13985Y30813D01*
X14591Y30208D01*
D02*
G37*
G36*
X12176Y44754D02*
X12179Y44752D01*
X12181Y44748D01*
X13837Y43092D01*
X13842Y43082D01*
Y40343D01*
X13837Y40334D01*
X12961Y39457D01*
X12961Y39456D01*
X12960Y39456D01*
X12953Y39437D01*
X12948Y39426D01*
X12709Y39187D01*
Y39133D01*
X12725Y39118D01*
X12730Y39107D01*
X12737Y39088D01*
X12738Y39088D01*
X12738Y39087D01*
X12954Y38871D01*
X12958Y38861D01*
Y36695D01*
X12960Y36690D01*
X12959Y36684D01*
X12968Y36671D01*
X12971Y36664D01*
Y36564D01*
X12968Y36557D01*
X12959Y36544D01*
X12960Y36538D01*
X12958Y36533D01*
Y36363D01*
X12963Y36351D01*
X12974Y36323D01*
X13023Y36275D01*
X13062Y36258D01*
X13062D01*
D01*
X16632D01*
X16642Y36254D01*
X16858Y36038D01*
X16868Y36034D01*
X16876Y36026D01*
X16887D01*
X16889Y36026D01*
X17072Y35843D01*
X17068Y35834D01*
Y35768D01*
X17081Y35737D01*
Y35413D01*
X17042Y35374D01*
X17040Y35373D01*
X17029D01*
X17021Y35366D01*
X17011Y35361D01*
X16854Y35204D01*
X16850Y35196D01*
Y34970D01*
X16585Y34705D01*
Y34449D01*
X16427D01*
X16378Y34400D01*
X16004D01*
X15994Y34409D01*
X16004Y34669D01*
X16112Y34783D01*
X16240Y34911D01*
Y35089D01*
X16251Y35100D01*
X15829Y35355D01*
X15798Y35375D01*
X15793Y35376D01*
X15765Y35393D01*
X15074Y35438D01*
X15069Y35439D01*
X15066Y35438D01*
X14990Y35443D01*
X14902Y35347D01*
X14907Y35337D01*
X14900Y35326D01*
X14886Y35256D01*
X14900Y35186D01*
X14940Y35127D01*
X14966Y35109D01*
Y34606D01*
X14967Y34602D01*
Y34419D01*
X14968Y34410D01*
X14968Y34410D01*
X14930Y34367D01*
X14659Y34366D01*
X14612Y34373D01*
X14612D01*
X14557Y34428D01*
X14580Y34475D01*
X14637Y34487D01*
X14696Y34526D01*
X14736Y34586D01*
X14750Y34656D01*
X14736Y34725D01*
X14696Y34785D01*
X14637Y34824D01*
X14567Y34838D01*
X14497Y34824D01*
X14438Y34785D01*
X14420Y34759D01*
X14306D01*
X14305Y34903D01*
X14232Y34882D01*
X14144Y34759D01*
X12589D01*
X12549Y34751D01*
X12516Y34728D01*
X12378Y34591D01*
X12341Y34591D01*
X12186Y34435D01*
X11894D01*
X11891Y34436D01*
X11874Y34445D01*
X11825Y34448D01*
X11823Y34448D01*
X11821Y34448D01*
X11365D01*
X11326Y34432D01*
X10640Y33746D01*
X10623Y33706D01*
Y32676D01*
X10619Y32666D01*
X10569Y32616D01*
X10559Y32612D01*
X10446D01*
X10416Y32599D01*
X9623D01*
X9619Y32601D01*
X9608Y32610D01*
X9600Y32609D01*
X9592Y32612D01*
X9167D01*
X9157Y32616D01*
X9148Y32625D01*
X9144Y32635D01*
Y34899D01*
X9148Y34909D01*
X9201Y34961D01*
X9205Y34971D01*
X9213Y34979D01*
Y34990D01*
X9213Y34992D01*
X9250Y35028D01*
X11184D01*
X11465Y35191D01*
X11369Y36225D01*
Y36350D01*
X11373Y36360D01*
X11379Y36366D01*
X11380D01*
Y36367D01*
X11393Y36381D01*
X11410Y36420D01*
Y36891D01*
X11398Y36919D01*
X11393Y36931D01*
X11041Y37283D01*
X11037Y37293D01*
Y41116D01*
X11021Y41155D01*
X9348Y42828D01*
X9344Y42837D01*
Y44218D01*
X9348Y44228D01*
X9869Y44748D01*
X9871Y44752D01*
X9874Y44754D01*
X9876Y44763D01*
X12173D01*
X12176Y44754D01*
D02*
G37*
%LPC*%
G36*
X6583Y36349D02*
X6508Y36339D01*
X6438Y36310D01*
X6378Y36264D01*
X6332Y36204D01*
X6303Y36134D01*
X6293Y36059D01*
X6303Y35984D01*
X6332Y35914D01*
X6378Y35854D01*
X6438Y35808D01*
X6508Y35779D01*
X6583Y35769D01*
X6658Y35779D01*
X6728Y35808D01*
X6788Y35854D01*
X6834Y35914D01*
X6863Y35984D01*
X6873Y36059D01*
X6863Y36134D01*
X6834Y36204D01*
X6788Y36264D01*
X6728Y36310D01*
X6658Y36339D01*
X6583Y36349D01*
D02*
G37*
G36*
X28285Y35303D02*
X28181Y35289D01*
X28083Y35249D01*
X27999Y35185D01*
X27935Y35101D01*
X27894Y35003D01*
X27881Y34898D01*
X27894Y34794D01*
X27935Y34696D01*
X27999Y34612D01*
X28083Y34548D01*
X28181Y34508D01*
X28285Y34494D01*
X28390Y34508D01*
X28488Y34548D01*
X28571Y34612D01*
X28636Y34696D01*
X28676Y34794D01*
X28690Y34898D01*
X28676Y35003D01*
X28636Y35101D01*
X28571Y35185D01*
X28488Y35249D01*
X28390Y35289D01*
X28285Y35303D01*
D02*
G37*
G36*
X27165Y35843D02*
X27061Y35829D01*
X26963Y35789D01*
X26879Y35725D01*
X26815Y35641D01*
X26774Y35543D01*
X26761Y35438D01*
X26774Y35334D01*
X26815Y35236D01*
X26879Y35152D01*
X26963Y35088D01*
X27061Y35048D01*
X27165Y35034D01*
X27270Y35048D01*
X27368Y35088D01*
X27451Y35152D01*
X27516Y35236D01*
X27556Y35334D01*
X27570Y35438D01*
X27556Y35543D01*
X27516Y35641D01*
X27451Y35725D01*
X27368Y35789D01*
X27270Y35829D01*
X27165Y35843D01*
D02*
G37*
G36*
X24583Y30429D02*
X24467Y30414D01*
X24358Y30369D01*
X24265Y30298D01*
X24194Y30205D01*
X24149Y30096D01*
X24134Y29980D01*
X24149Y29864D01*
X24194Y29756D01*
X24265Y29663D01*
X24358Y29592D01*
X24467Y29547D01*
X24583Y29532D01*
X24699Y29547D01*
X24807Y29592D01*
X24900Y29663D01*
X24971Y29756D01*
X25016Y29864D01*
X25031Y29980D01*
X25016Y30096D01*
X24971Y30205D01*
X24900Y30298D01*
X24807Y30369D01*
X24699Y30414D01*
X24583Y30429D01*
D02*
G37*
G36*
X22319Y30193D02*
X21626D01*
Y29500D01*
X22319D01*
Y30193D01*
D02*
G37*
G36*
X21972Y27196D02*
X21882Y27184D01*
X21798Y27149D01*
X21725Y27094D01*
X21670Y27021D01*
X21635Y26937D01*
X21623Y26846D01*
X21635Y26756D01*
X21670Y26672D01*
X21725Y26599D01*
X21798Y26544D01*
X21882Y26509D01*
X21972Y26497D01*
X22063Y26509D01*
X22147Y26544D01*
X22220Y26599D01*
X22275Y26672D01*
X22310Y26756D01*
X22322Y26846D01*
X22310Y26937D01*
X22275Y27021D01*
X22220Y27094D01*
X22147Y27149D01*
X22063Y27184D01*
X21972Y27196D01*
D02*
G37*
G36*
X28285Y34223D02*
X28181Y34209D01*
X28083Y34169D01*
X27999Y34105D01*
X27935Y34021D01*
X27894Y33923D01*
X27881Y33818D01*
X27894Y33714D01*
X27935Y33616D01*
X27999Y33532D01*
X28083Y33468D01*
X28181Y33428D01*
X28285Y33414D01*
X28390Y33428D01*
X28488Y33468D01*
X28571Y33532D01*
X28636Y33616D01*
X28676Y33714D01*
X28690Y33818D01*
X28676Y33923D01*
X28636Y34021D01*
X28571Y34105D01*
X28488Y34169D01*
X28390Y34209D01*
X28285Y34223D01*
D02*
G37*
G36*
X27165Y34763D02*
X27061Y34749D01*
X26963Y34709D01*
X26879Y34645D01*
X26815Y34561D01*
X26774Y34463D01*
X26761Y34358D01*
X26774Y34254D01*
X26815Y34156D01*
X26879Y34072D01*
X26963Y34008D01*
X27061Y33968D01*
X27165Y33954D01*
X27198Y33958D01*
X28963Y32193D01*
Y31695D01*
X28962Y31694D01*
X28913Y31677D01*
X27515Y33075D01*
X27516Y33076D01*
X27556Y33174D01*
X27570Y33278D01*
X27556Y33383D01*
X27516Y33481D01*
X27451Y33565D01*
X27368Y33629D01*
X27270Y33669D01*
X27165Y33683D01*
X27061Y33669D01*
X26963Y33629D01*
X26879Y33565D01*
X26815Y33481D01*
X26774Y33383D01*
X26761Y33278D01*
X26774Y33174D01*
X26815Y33076D01*
X26879Y32992D01*
X26963Y32928D01*
X27061Y32888D01*
X27165Y32874D01*
X27270Y32888D01*
X27368Y32928D01*
X27369Y32929D01*
X28749Y31549D01*
Y30764D01*
X28699Y30757D01*
X28655Y30903D01*
X28562Y31077D01*
X28437Y31230D01*
X28284Y31355D01*
X28110Y31448D01*
X27922Y31505D01*
X27725Y31524D01*
X27529Y31505D01*
X27340Y31448D01*
X27166Y31355D01*
X27014Y31230D01*
X26889Y31077D01*
X26796Y30903D01*
X26739Y30715D01*
X26719Y30518D01*
X26739Y30322D01*
X26796Y30133D01*
X26889Y29960D01*
X27014Y29807D01*
X27166Y29682D01*
X27340Y29589D01*
X27529Y29532D01*
X27725Y29512D01*
X27922Y29532D01*
X28110Y29589D01*
X28284Y29682D01*
X28437Y29807D01*
X28562Y29960D01*
X28655Y30133D01*
X28699Y30280D01*
X28749Y30272D01*
Y29731D01*
X28068Y29049D01*
X26592D01*
X26552Y29041D01*
X26519Y29019D01*
X25813Y28313D01*
X24770D01*
X24760Y28363D01*
X24827Y28391D01*
X24920Y28462D01*
X24991Y28555D01*
X25036Y28663D01*
X25051Y28780D01*
X25036Y28896D01*
X24991Y29004D01*
X24920Y29097D01*
X24827Y29168D01*
X24718Y29213D01*
X24602Y29228D01*
X24486Y29213D01*
X24378Y29168D01*
X24285Y29097D01*
X24214Y29004D01*
X24169Y28896D01*
X24154Y28780D01*
X24169Y28663D01*
X24214Y28555D01*
X24285Y28462D01*
X24378Y28391D01*
X24444Y28363D01*
X24434Y28313D01*
X24088D01*
X24047Y28335D01*
X24047Y28363D01*
Y29224D01*
X23157D01*
Y28363D01*
X23157Y28335D01*
X23116Y28313D01*
X23116Y28313D01*
X22651D01*
X21280Y29684D01*
X21310Y29756D01*
X21322Y29846D01*
X21310Y29937D01*
X21275Y30021D01*
X21220Y30094D01*
X21147Y30149D01*
X21063Y30184D01*
X20972Y30196D01*
X20882Y30184D01*
X20798Y30149D01*
X20725Y30094D01*
X20670Y30021D01*
X20635Y29937D01*
X20623Y29846D01*
X20635Y29756D01*
X20670Y29672D01*
X20725Y29599D01*
X20798Y29544D01*
X20882Y29509D01*
X20972Y29497D01*
X21063Y29509D01*
X21134Y29539D01*
X22536Y28137D01*
X22569Y28115D01*
X22609Y28107D01*
X25856D01*
X25895Y28115D01*
X25929Y28137D01*
X26634Y28843D01*
X28110D01*
X28150Y28851D01*
X28183Y28873D01*
X28913Y29603D01*
X28962Y29586D01*
X28963Y29585D01*
Y28454D01*
X28263Y27753D01*
X28218Y27780D01*
X28230Y27819D01*
X28243Y27953D01*
X28230Y28086D01*
X28191Y28215D01*
X28128Y28333D01*
X28043Y28437D01*
X27939Y28522D01*
X27821Y28585D01*
X27693Y28624D01*
X27559Y28637D01*
X27426Y28624D01*
X27297Y28585D01*
X27179Y28522D01*
X27075Y28437D01*
X26990Y28333D01*
X26927Y28215D01*
X26888Y28086D01*
X26875Y27953D01*
X26888Y27819D01*
X26927Y27691D01*
X26990Y27573D01*
X27075Y27469D01*
X27179Y27384D01*
X27297Y27320D01*
X27426Y27282D01*
X27559Y27268D01*
X27693Y27282D01*
X27732Y27293D01*
X27758Y27249D01*
X27645Y27136D01*
X24884D01*
X24867Y27186D01*
X24939Y27242D01*
X25011Y27335D01*
X25055Y27443D01*
X25071Y27559D01*
X25055Y27675D01*
X25011Y27783D01*
X24939Y27876D01*
X24846Y27948D01*
X24738Y27992D01*
X24622Y28008D01*
X24506Y27992D01*
X24398Y27948D01*
X24305Y27876D01*
X24233Y27783D01*
X24189Y27675D01*
X24173Y27559D01*
X24189Y27443D01*
X24233Y27335D01*
X24305Y27242D01*
X24377Y27186D01*
X24360Y27136D01*
X24067D01*
Y28004D01*
X23177D01*
Y27136D01*
X22829D01*
X20280Y29684D01*
X20310Y29756D01*
X20322Y29846D01*
X20310Y29937D01*
X20275Y30021D01*
X20220Y30094D01*
X20147Y30149D01*
X20063Y30184D01*
X19972Y30196D01*
X19882Y30184D01*
X19798Y30149D01*
X19725Y30094D01*
X19670Y30021D01*
X19635Y29937D01*
X19623Y29846D01*
X19635Y29756D01*
X19670Y29672D01*
X19725Y29599D01*
X19798Y29544D01*
X19882Y29509D01*
X19972Y29497D01*
X20063Y29509D01*
X20134Y29539D01*
X22713Y26960D01*
X22746Y26938D01*
X22786Y26930D01*
X27688D01*
X27728Y26938D01*
X27761Y26960D01*
X29139Y28338D01*
X29161Y28372D01*
X29169Y28411D01*
Y32236D01*
X29161Y32276D01*
X29139Y32309D01*
X27436Y34013D01*
X27439Y34063D01*
X27451Y34072D01*
X27516Y34156D01*
X27556Y34254D01*
X27570Y34358D01*
X27556Y34463D01*
X27516Y34561D01*
X27451Y34645D01*
X27368Y34709D01*
X27270Y34749D01*
X27165Y34763D01*
D02*
G37*
G36*
X24028Y30425D02*
X23138D01*
Y29535D01*
X24028D01*
Y30425D01*
D02*
G37*
G36*
X17472Y42086D02*
X17381Y42074D01*
X17295Y42039D01*
X17222Y41983D01*
X17166Y41909D01*
X17130Y41824D01*
X17118Y41732D01*
X17130Y41641D01*
X17166Y41555D01*
X17222Y41482D01*
X17295Y41426D01*
X17381Y41390D01*
X17472Y41378D01*
X17564Y41390D01*
X17650Y41426D01*
X17723Y41482D01*
X17779Y41555D01*
X17815Y41641D01*
X17827Y41732D01*
X17815Y41824D01*
X17779Y41909D01*
X17723Y41983D01*
X17650Y42039D01*
X17564Y42074D01*
X17472Y42086D01*
D02*
G37*
G36*
X19472D02*
X19381Y42074D01*
X19295Y42039D01*
X19222Y41983D01*
X19166Y41909D01*
X19130Y41824D01*
X19118Y41732D01*
X19130Y41641D01*
X19166Y41555D01*
X19222Y41482D01*
X19295Y41426D01*
X19381Y41390D01*
X19449Y41381D01*
X19495D01*
X19564Y41390D01*
X19650Y41426D01*
X19723Y41482D01*
X19779Y41555D01*
X19815Y41641D01*
X19827Y41732D01*
X19815Y41824D01*
X19779Y41909D01*
X19723Y41983D01*
X19650Y42039D01*
X19564Y42074D01*
X19472Y42086D01*
D02*
G37*
G36*
X14447Y44593D02*
X14318Y44576D01*
X14198Y44526D01*
X14094Y44447D01*
X14015Y44344D01*
X13965Y44223D01*
X13949Y44094D01*
Y43821D01*
X13965Y43692D01*
X14015Y43572D01*
X14094Y43468D01*
X15002Y42561D01*
X15105Y42482D01*
X15225Y42432D01*
X15354Y42415D01*
X17904D01*
X17974Y42345D01*
Y41732D01*
X17991Y41603D01*
X18041Y41483D01*
X18120Y41380D01*
X18223Y41301D01*
X18343Y41251D01*
X18472Y41234D01*
X18601Y41251D01*
X18722Y41301D01*
X18825Y41380D01*
X18904Y41483D01*
X18954Y41603D01*
X18971Y41732D01*
Y42551D01*
X18954Y42680D01*
X18904Y42800D01*
X18825Y42904D01*
X18463Y43266D01*
X18359Y43345D01*
X18239Y43395D01*
X18110Y43412D01*
X15561D01*
X14945Y44027D01*
Y44094D01*
X14928Y44223D01*
X14878Y44344D01*
X14799Y44447D01*
X14696Y44526D01*
X14576Y44576D01*
X14447Y44593D01*
D02*
G37*
G36*
X16472Y42086D02*
X16381Y42074D01*
X16295Y42039D01*
X16222Y41983D01*
X16166Y41909D01*
X16130Y41824D01*
X16118Y41732D01*
X16130Y41641D01*
X16166Y41555D01*
X16222Y41482D01*
X16295Y41426D01*
X16381Y41390D01*
X16472Y41378D01*
X16564Y41390D01*
X16650Y41426D01*
X16723Y41482D01*
X16779Y41555D01*
X16815Y41641D01*
X16827Y41732D01*
X16815Y41824D01*
X16779Y41909D01*
X16723Y41983D01*
X16650Y42039D01*
X16564Y42074D01*
X16472Y42086D01*
D02*
G37*
G36*
X5906Y43598D02*
X5772Y43585D01*
X5644Y43546D01*
X5525Y43482D01*
X5422Y43397D01*
X5336Y43294D01*
X5273Y43175D01*
X5234Y43047D01*
X5221Y42913D01*
X5234Y42780D01*
X5273Y42651D01*
X5336Y42533D01*
X5422Y42429D01*
X5525Y42344D01*
X5644Y42281D01*
X5772Y42242D01*
X5906Y42229D01*
X6039Y42242D01*
X6167Y42281D01*
X6286Y42344D01*
X6389Y42429D01*
X6475Y42533D01*
X6538Y42651D01*
X6577Y42780D01*
X6590Y42913D01*
X6577Y43047D01*
X6538Y43175D01*
X6475Y43294D01*
X6389Y43397D01*
X6286Y43482D01*
X6167Y43546D01*
X6039Y43585D01*
X5906Y43598D01*
D02*
G37*
G36*
X17447Y44550D02*
X17329Y44534D01*
X17219Y44489D01*
X17125Y44416D01*
X17053Y44322D01*
X17007Y44212D01*
X16992Y44094D01*
X17007Y43977D01*
X17053Y43867D01*
X17125Y43773D01*
X17219Y43700D01*
X17329Y43655D01*
X17447Y43639D01*
X17565Y43655D01*
X17674Y43700D01*
X17769Y43773D01*
X17841Y43867D01*
X17886Y43977D01*
X17902Y44094D01*
X17886Y44212D01*
X17841Y44322D01*
X17769Y44416D01*
X17674Y44489D01*
X17565Y44534D01*
X17447Y44550D01*
D02*
G37*
G36*
X19398Y44546D02*
X18496D01*
Y43643D01*
X19398D01*
Y44546D01*
D02*
G37*
G36*
X27559Y43598D02*
X27426Y43585D01*
X27297Y43546D01*
X27179Y43482D01*
X27075Y43397D01*
X26990Y43294D01*
X26927Y43175D01*
X26888Y43047D01*
X26875Y42913D01*
X26888Y42780D01*
X26927Y42651D01*
X26990Y42533D01*
X27075Y42429D01*
X27179Y42344D01*
X27297Y42281D01*
X27426Y42242D01*
X27559Y42229D01*
X27693Y42242D01*
X27821Y42281D01*
X27939Y42344D01*
X28043Y42429D01*
X28128Y42533D01*
X28191Y42651D01*
X28230Y42780D01*
X28243Y42913D01*
X28230Y43047D01*
X28191Y43175D01*
X28128Y43294D01*
X28043Y43397D01*
X27939Y43482D01*
X27821Y43546D01*
X27693Y43585D01*
X27559Y43598D01*
D02*
G37*
G36*
X15947Y44550D02*
X15829Y44534D01*
X15719Y44489D01*
X15625Y44416D01*
X15553Y44322D01*
X15507Y44212D01*
X15492Y44094D01*
X15507Y43977D01*
X15553Y43867D01*
X15625Y43773D01*
X15719Y43700D01*
X15829Y43655D01*
X15947Y43639D01*
X16065Y43655D01*
X16174Y43700D01*
X16269Y43773D01*
X16341Y43867D01*
X16386Y43977D01*
X16402Y44094D01*
X16386Y44212D01*
X16341Y44322D01*
X16269Y44416D01*
X16174Y44489D01*
X16065Y44534D01*
X15947Y44550D01*
D02*
G37*
G36*
X13472Y37086D02*
X13381Y37074D01*
X13295Y37039D01*
X13222Y36983D01*
X13166Y36909D01*
X13130Y36824D01*
X13118Y36732D01*
X13130Y36641D01*
X13166Y36555D01*
X13222Y36482D01*
X13295Y36426D01*
X13381Y36390D01*
X13472Y36378D01*
X13564Y36390D01*
X13650Y36426D01*
X13723Y36482D01*
X13779Y36555D01*
X13815Y36641D01*
X13827Y36732D01*
X13815Y36824D01*
X13779Y36909D01*
X13723Y36983D01*
X13650Y37039D01*
X13564Y37074D01*
X13472Y37086D01*
D02*
G37*
G36*
X14472D02*
X14381Y37074D01*
X14295Y37039D01*
X14222Y36983D01*
X14166Y36909D01*
X14130Y36824D01*
X14118Y36732D01*
X14130Y36641D01*
X14166Y36555D01*
X14222Y36482D01*
X14295Y36426D01*
X14381Y36390D01*
X14472Y36378D01*
X14564Y36390D01*
X14650Y36426D01*
X14723Y36482D01*
X14779Y36555D01*
X14815Y36641D01*
X14827Y36732D01*
X14815Y36824D01*
X14779Y36909D01*
X14723Y36983D01*
X14650Y37039D01*
X14564Y37074D01*
X14472Y37086D01*
D02*
G37*
G36*
X27165Y36923D02*
X27061Y36909D01*
X26963Y36869D01*
X26879Y36805D01*
X26815Y36721D01*
X26774Y36623D01*
X26761Y36518D01*
X26774Y36414D01*
X26815Y36316D01*
X26879Y36232D01*
X26963Y36168D01*
X27061Y36128D01*
X27165Y36114D01*
X27270Y36128D01*
X27368Y36168D01*
X27451Y36232D01*
X27516Y36316D01*
X27556Y36414D01*
X27570Y36518D01*
X27556Y36623D01*
X27516Y36721D01*
X27451Y36805D01*
X27368Y36869D01*
X27270Y36909D01*
X27165Y36923D01*
D02*
G37*
G36*
X5882Y36747D02*
X5807Y36737D01*
X5737Y36708D01*
X5677Y36662D01*
X5631Y36602D01*
X5602Y36532D01*
X5592Y36457D01*
X5602Y36382D01*
X5631Y36312D01*
X5677Y36252D01*
X5737Y36206D01*
X5807Y36177D01*
X5882Y36167D01*
X5957Y36177D01*
X6027Y36206D01*
X6087Y36252D01*
X6133Y36312D01*
X6162Y36382D01*
X6172Y36457D01*
X6162Y36532D01*
X6133Y36602D01*
X6087Y36662D01*
X6027Y36708D01*
X5957Y36737D01*
X5882Y36747D01*
D02*
G37*
G36*
X6583Y37148D02*
X6508Y37138D01*
X6438Y37109D01*
X6378Y37063D01*
X6332Y37003D01*
X6303Y36933D01*
X6293Y36858D01*
X6303Y36783D01*
X6332Y36713D01*
X6378Y36653D01*
X6438Y36607D01*
X6508Y36578D01*
X6583Y36568D01*
X6658Y36578D01*
X6728Y36607D01*
X6788Y36653D01*
X6834Y36713D01*
X6863Y36783D01*
X6873Y36858D01*
X6863Y36933D01*
X6834Y37003D01*
X6788Y37063D01*
X6728Y37109D01*
X6658Y37138D01*
X6583Y37148D01*
D02*
G37*
G36*
X4882Y38655D02*
X4746Y38642D01*
X4616Y38602D01*
X4496Y38538D01*
X4391Y38452D01*
X4304Y38346D01*
X4240Y38226D01*
X4201Y38096D01*
X4187Y37961D01*
X4201Y37825D01*
X4240Y37695D01*
X4304Y37575D01*
X4391Y37470D01*
X4496Y37383D01*
X4616Y37319D01*
X4746Y37279D01*
X4882Y37266D01*
X5017Y37279D01*
X5148Y37319D01*
X5268Y37383D01*
X5373Y37470D01*
X5459Y37575D01*
X5524Y37695D01*
X5563Y37825D01*
X5576Y37961D01*
X5563Y38096D01*
X5524Y38226D01*
X5459Y38346D01*
X5373Y38452D01*
X5268Y38538D01*
X5148Y38602D01*
X5017Y38642D01*
X4882Y38655D01*
D02*
G37*
G36*
X27725Y41364D02*
X27529Y41345D01*
X27340Y41288D01*
X27166Y41195D01*
X27014Y41070D01*
X26889Y40917D01*
X26796Y40743D01*
X26739Y40555D01*
X26719Y40358D01*
X26739Y40162D01*
X26796Y39973D01*
X26889Y39800D01*
X27014Y39647D01*
X27166Y39522D01*
X27340Y39429D01*
X27529Y39372D01*
X27725Y39352D01*
X27922Y39372D01*
X28110Y39429D01*
X28284Y39522D01*
X28437Y39647D01*
X28562Y39800D01*
X28655Y39973D01*
X28712Y40162D01*
X28731Y40358D01*
X28712Y40555D01*
X28655Y40743D01*
X28562Y40917D01*
X28437Y41070D01*
X28284Y41195D01*
X28110Y41288D01*
X27922Y41345D01*
X27725Y41364D01*
D02*
G37*
G36*
X28285Y37463D02*
X28181Y37449D01*
X28083Y37409D01*
X27999Y37345D01*
X27935Y37261D01*
X27894Y37163D01*
X27881Y37058D01*
X27894Y36954D01*
X27935Y36856D01*
X27999Y36772D01*
X28083Y36708D01*
X28181Y36668D01*
X28285Y36654D01*
X28390Y36668D01*
X28488Y36708D01*
X28571Y36772D01*
X28636Y36856D01*
X28676Y36954D01*
X28690Y37058D01*
X28676Y37163D01*
X28636Y37261D01*
X28571Y37345D01*
X28488Y37409D01*
X28390Y37449D01*
X28285Y37463D01*
D02*
G37*
G36*
X27340Y38004D02*
X26990D01*
X26902Y37986D01*
X26827Y37936D01*
X26777Y37862D01*
X26760Y37773D01*
Y37423D01*
X26777Y37335D01*
X26827Y37260D01*
X26902Y37210D01*
X26990Y37193D01*
X27340D01*
X27429Y37210D01*
X27503Y37260D01*
X27553Y37335D01*
X27571Y37423D01*
Y37773D01*
X27553Y37862D01*
X27503Y37936D01*
X27429Y37986D01*
X27340Y38004D01*
D02*
G37*
%LPD*%
D14*
X13681Y30709D02*
D03*
X13091D02*
D03*
D17*
X16496Y30807D02*
X16590Y30901D01*
X15217Y32274D02*
X16590Y30901D01*
X16620Y30413D02*
X16682Y30474D01*
X16220Y30413D02*
X16620D01*
X16731Y30144D02*
X17243Y30656D01*
X16561Y30144D02*
X16731D01*
X17243Y30656D02*
Y31007D01*
X16519Y30784D02*
X16731D01*
X16142Y30474D02*
X16682D01*
X13681Y30709D02*
X14488Y29902D01*
X16516Y30787D02*
X16519Y30784D01*
X17243Y31326D02*
Y31763D01*
X17179Y31261D02*
X17243Y31326D01*
X17179Y31072D02*
Y31261D01*
Y31072D02*
X17243Y31007D01*
X16891Y32115D02*
X17243Y31763D01*
X16319Y29902D02*
X16561Y30144D01*
X17972Y35000D02*
X18191Y35219D01*
Y35436D01*
X19027Y33611D02*
Y35191D01*
X18552Y35666D02*
X19027Y35191D01*
X18096Y35666D02*
X18552D01*
X29066Y28411D02*
Y32236D01*
X27165Y34137D02*
X29066Y32236D01*
X27165Y34137D02*
Y34358D01*
X16996Y34717D02*
Y34789D01*
X16417Y34163D02*
X16442D01*
X16996Y34717D01*
X13726Y33459D02*
X13945Y33240D01*
X13925Y33584D02*
X13954Y33555D01*
Y33555D02*
Y33555D01*
X12067Y33228D02*
X12773Y33934D01*
X14476D01*
X14508Y33967D01*
X14872Y32274D02*
X15217D01*
X14872D02*
Y32618D01*
X16433Y31850D02*
X16644D01*
X15856Y32427D02*
X16433Y31850D01*
X15856Y32427D02*
Y32618D01*
X16941Y33012D02*
Y33307D01*
X16872Y33376D02*
X16941Y33307D01*
X16417Y33376D02*
X16872D01*
X18841Y31930D02*
X19175Y32264D01*
X18841Y31828D02*
Y31930D01*
X18782Y31769D02*
X18841Y31828D01*
X18680Y31769D02*
X18782D01*
X18600Y31688D02*
X18680Y31769D01*
X19175Y32264D02*
X19346D01*
X18433Y31688D02*
X18600D01*
X9750Y31966D02*
Y32044D01*
Y31966D02*
X9843Y31873D01*
X15464Y37166D02*
X19039D01*
X15522Y37321D02*
X19883D01*
X13723Y39120D02*
X15522Y37321D01*
X25254Y35928D02*
X25304Y35978D01*
X13723Y39120D02*
X13735Y39108D01*
X27165Y33278D02*
X28852Y31591D01*
Y29688D02*
Y31591D01*
X28110Y28946D02*
X28852Y29688D01*
X26592Y28946D02*
X28110D01*
X25856Y28210D02*
X26592Y28946D01*
X22609Y28210D02*
X25856D01*
X27688Y27033D02*
X29066Y28411D01*
X22786Y27033D02*
X27688D01*
X19972Y29846D02*
X22786Y27033D01*
X20972Y29846D02*
X22609Y28210D01*
X14111Y33770D02*
X14508D01*
X14006Y33179D02*
X14508D01*
X8465Y35138D02*
X10837D01*
X11132Y35433D01*
X14508Y33573D02*
X15030D01*
X15463Y34006D02*
X15502Y33967D01*
X15030Y33152D02*
X15069Y33191D01*
X15030Y33140D02*
Y33152D01*
X15069Y32618D02*
Y33191D01*
X11811Y38976D02*
Y38976D01*
X11811Y38780D02*
X11811Y38976D01*
X11683Y36614D02*
X12974D01*
X15463Y33573D02*
X15659Y33770D01*
X15450Y33573D02*
X15463D01*
X15030D02*
X15450D01*
X15502Y33967D02*
X16417D01*
X15659Y33770D02*
X16417D01*
X15866Y30768D02*
X16220Y30413D01*
X10157Y40551D02*
X10433D01*
X10118Y38976D02*
X10433D01*
X6583Y34575D02*
X7016D01*
X8169Y35728D01*
X8465D01*
X5039Y31968D02*
X5041Y31966D01*
X16417Y33573D02*
X17077D01*
X17146Y33504D01*
Y33346D02*
Y33504D01*
X16929Y32756D02*
X17264D01*
X16417Y33179D02*
X16585D01*
X19039Y37166D02*
X19472Y36732D01*
X19883Y37321D02*
X20472Y36732D01*
X14010Y32274D02*
X14872D01*
X13898Y32385D02*
X14010Y32274D01*
X13898Y32385D02*
Y32404D01*
X13415Y33459D02*
X13726D01*
X9395Y29078D02*
Y31426D01*
X8723Y31456D02*
X8733Y31446D01*
X17408Y31167D02*
X17911D01*
X18433Y31688D01*
X16437Y31457D02*
X16634D01*
X15659Y32234D02*
Y32618D01*
Y32234D02*
X16437Y31457D01*
X8723Y31456D02*
X9679Y32411D01*
X9754D01*
X9395Y31426D02*
X9843Y31873D01*
X9117Y28799D02*
X9395Y29078D01*
X8287Y31001D02*
X8733Y31446D01*
X8287Y28465D02*
Y31001D01*
X15717Y35195D02*
X15728Y35207D01*
X14488Y29902D02*
X16319D01*
X13246Y31622D02*
X14795D01*
X15650Y30768D01*
X15866D01*
X16053Y32618D02*
X16388D01*
X16564Y32442D01*
Y32320D02*
Y32442D01*
Y32320D02*
X16769Y32115D01*
X16891D01*
X16929Y32756D02*
Y33001D01*
X16941Y33012D01*
X13945Y33240D02*
X14006Y33179D01*
X13925Y33584D02*
X14111Y33770D01*
X16496Y30807D02*
X16516Y30787D01*
X12589Y34656D02*
X14567D01*
X12087Y34154D02*
X12589Y34656D01*
X15069Y34606D02*
Y35256D01*
X15856Y34528D02*
Y34783D01*
X16053Y34980D01*
X17972Y34783D02*
Y35000D01*
X17962Y35531D02*
X18096Y35666D01*
X17313Y35531D02*
X17962D01*
X13575Y39055D02*
X15464Y37166D01*
X13532Y39311D02*
X13723Y39120D01*
X13103Y39311D02*
X13532D01*
X13081Y39055D02*
X13575D01*
D18*
X10118Y38976D02*
Y40669D01*
X8479Y42309D02*
X10118Y40669D01*
X8479Y42309D02*
Y43613D01*
D19*
X18110Y42913D02*
X18472Y42551D01*
Y41732D02*
Y42551D01*
X14447Y43821D02*
Y44094D01*
Y43821D02*
X15354Y42913D01*
X18110D01*
X15472Y38741D02*
Y41732D01*
Y38741D02*
X15990Y38224D01*
X22387D01*
D21*
X18277Y32194D02*
X18346Y32264D01*
X17205Y32194D02*
X18277D01*
X16417Y32982D02*
X17205Y32194D01*
X23652Y36905D02*
Y38529D01*
Y36905D02*
X23688Y36870D01*
X13314Y32164D02*
X13492Y31986D01*
X14888D01*
X5398Y34375D02*
X5882Y34858D01*
X5398Y33716D02*
Y34375D01*
Y33716D02*
X5748Y33366D01*
X5752Y35260D02*
X6583D01*
X5041Y27695D02*
Y31966D01*
X5039Y31968D02*
X5748Y32676D01*
Y33366D01*
X6024Y26378D02*
X19504D01*
X19972Y26846D01*
X17982Y34055D02*
X19346Y32691D01*
Y32264D02*
Y32691D01*
X21220Y36169D02*
X23338Y38287D01*
X13714Y32982D02*
X14508D01*
X13314Y32583D02*
X13714Y32982D01*
X13314Y32164D02*
Y32583D01*
X16472Y36732D02*
X17035Y36169D01*
X21220D01*
X22802Y35984D02*
X23688Y36870D01*
X4088Y28314D02*
X6024Y26378D01*
X4088Y28314D02*
Y33596D01*
X5752Y35260D01*
X17018Y35984D02*
X22802D01*
X16880Y35846D02*
X17018Y35984D01*
X14888Y31986D02*
X15663Y31211D01*
X15837D01*
X5041Y27695D02*
X6041Y26695D01*
X18821D01*
X18972Y26846D01*
D23*
X24845Y39215D02*
Y41255D01*
X23326Y40011D02*
Y41276D01*
D24*
X12618Y30709D02*
X13091D01*
X10206Y28372D02*
Y33733D01*
D25*
X25304Y35978D02*
X28285D01*
D35*
X5906Y27953D02*
D03*
X27559Y42913D02*
D03*
X5906D02*
D03*
X27559Y27953D02*
D03*
X19472Y41732D02*
D03*
X18472D02*
D03*
X17472D02*
D03*
X16472D02*
D03*
X15472D02*
D03*
X14472D02*
D03*
X13472D02*
D03*
X19472Y36732D02*
D03*
X18472D02*
D03*
X17472D02*
D03*
X16472D02*
D03*
X15472D02*
D03*
X14472D02*
D03*
X13472D02*
D03*
X18106Y27165D02*
D03*
X17165D02*
D03*
D36*
X5882Y36457D02*
D03*
X6583Y36059D02*
D03*
X5882Y35657D02*
D03*
X6583Y35260D02*
D03*
Y36858D02*
D03*
X5882Y34858D02*
D03*
X6583Y34461D02*
D03*
X5882Y34063D02*
D03*
D37*
X4882Y37961D02*
D03*
Y32961D02*
D03*
D38*
X18972Y26846D02*
D03*
X19972D02*
D03*
X20972D02*
D03*
X21972D02*
D03*
X18972Y29846D02*
D03*
X19972D02*
D03*
X20972D02*
D03*
D39*
X21972D02*
D03*
D40*
X28285Y37058D02*
D03*
Y35978D02*
D03*
Y34898D02*
D03*
Y33818D02*
D03*
X27165Y36518D02*
D03*
Y35438D02*
D03*
Y34358D02*
D03*
Y33278D02*
D03*
D41*
Y37598D02*
D03*
D42*
X27725Y30518D02*
D03*
Y40358D02*
D03*
D43*
X20472Y41732D02*
D03*
Y36732D02*
D03*
D44*
X24622Y27559D02*
D03*
X24583Y29980D02*
D03*
X24602Y28780D02*
D03*
X19346Y32264D02*
D03*
X8980Y40043D02*
D03*
X18051Y39444D02*
D03*
X17534Y29596D02*
D03*
X12618Y30709D02*
D03*
X22387Y38224D02*
D03*
D45*
X23622Y27559D02*
D03*
X23583Y29980D02*
D03*
X23602Y28780D02*
D03*
X18346Y32264D02*
D03*
D46*
X10447Y43613D02*
D03*
D47*
X8479D02*
D03*
D48*
X14447Y44094D02*
D03*
X15947D02*
D03*
X17447D02*
D03*
D49*
X18947D02*
D03*
D50*
X16731Y30784D02*
D03*
X16142Y30474D02*
D03*
X12942Y29140D02*
D03*
Y28740D02*
D03*
X18191Y35436D02*
D03*
X13954Y33555D02*
D03*
X16711Y33119D02*
D03*
X23652Y38529D02*
D03*
X10198Y28365D02*
D03*
X19027Y33611D02*
D03*
X12942Y28340D02*
D03*
X16996Y34809D02*
D03*
X13415Y33459D02*
D03*
X13898Y32404D02*
D03*
X13246Y31622D02*
D03*
X17408Y31167D02*
D03*
X14190Y34163D02*
D03*
X23338Y38287D02*
D03*
X9117Y28799D02*
D03*
X8287Y28465D02*
D03*
X15728Y35207D02*
D03*
X15837Y31211D02*
D03*
X16644Y31850D02*
D03*
X15315Y34911D02*
D03*
X15896Y34006D02*
D03*
X15463D02*
D03*
X15030D02*
D03*
X15896Y33573D02*
D03*
X15463D02*
D03*
X15030D02*
D03*
X15896Y33140D02*
D03*
X15463D02*
D03*
X15030D02*
D03*
X14567Y34656D02*
D03*
X15069Y35256D02*
D03*
X16053Y34980D02*
D03*
D51*
X9750Y32044D02*
D03*
X9754Y32411D02*
D03*
D52*
X23326Y41276D02*
D03*
X24845Y41255D02*
D03*
D53*
X16634Y31457D02*
D03*
D54*
X13103Y39311D02*
D03*
X13081Y39055D02*
D03*
D55*
X10433Y40551D02*
D03*
X11614D02*
D03*
X10433Y38976D02*
D03*
X11614D02*
D03*
D56*
X10758Y37795D02*
D03*
X11289D02*
D03*
X11152Y36614D02*
D03*
X11683D02*
D03*
X11575Y34154D02*
D03*
X12087D02*
D03*
X17313Y35531D02*
D03*
X16782D02*
D03*
X17461Y34783D02*
D03*
X17972D02*
D03*
X17451Y34055D02*
D03*
X17982D02*
D03*
D57*
X11132Y35433D02*
D03*
X11703D02*
D03*
D58*
X8465Y35728D02*
D03*
Y35138D02*
D03*
D59*
X17382Y33376D02*
D03*
Y32746D02*
D03*
D60*
X12067Y33228D02*
D03*
X11594D02*
D03*
D61*
X15866Y30768D02*
D03*
X16457D02*
D03*
D62*
X16417Y34163D02*
D03*
Y33967D02*
D03*
Y33770D02*
D03*
Y33573D02*
D03*
Y33376D02*
D03*
Y33179D02*
D03*
Y32982D02*
D03*
X14508D02*
D03*
Y33179D02*
D03*
Y33376D02*
D03*
Y33573D02*
D03*
Y33770D02*
D03*
Y33967D02*
D03*
Y34163D02*
D03*
D63*
X16053Y32618D02*
D03*
X15856D02*
D03*
X15659D02*
D03*
X15463D02*
D03*
X15266D02*
D03*
X15069D02*
D03*
X14872D02*
D03*
Y34528D02*
D03*
X15069D02*
D03*
X15266D02*
D03*
X15463D02*
D03*
X15659D02*
D03*
X15856D02*
D03*
X16053D02*
D03*
D64*
X15450Y33573D02*
D03*
D65*
X15463Y32246D02*
Y32618D01*
Y32246D02*
X16451Y31258D01*
X16606D01*
X17035Y30828D01*
Y30633D02*
Y30828D01*
X16685Y30283D02*
X17035Y30633D01*
X16246Y30283D02*
X16685D01*
X16229Y30266D02*
X16246Y30283D01*
X14649Y30266D02*
X16229D01*
X13815Y31100D02*
X14649Y30266D01*
X13390Y31100D02*
X13815D01*
X13390Y30482D02*
Y31100D01*
Y30482D02*
X13441Y30431D01*
X13584D01*
X13947Y30068D01*
D66*
X15264Y28751D01*
X19068D01*
X20972Y26846D01*
D67*
X16053Y34528D02*
Y34742D01*
X16087Y34776D01*
X16138D01*
X16258Y34896D01*
Y35490D01*
X16042Y35706D02*
X16258Y35490D01*
X14993Y35706D02*
X16042D01*
X14872Y35585D02*
X14993Y35706D01*
X14872Y35349D02*
Y35585D01*
X14864Y35341D02*
X14872Y35349D01*
X14864Y34535D02*
Y35341D01*
Y34535D02*
X14872Y34528D01*
D68*
X16679Y33119D02*
X16711D01*
X16662Y33102D02*
X16679Y33119D01*
X16585Y33179D02*
X16662Y33102D01*
D69*
X18051Y39444D02*
X22760D01*
X25254Y35928D02*
Y38257D01*
Y33309D02*
Y35928D01*
X18972Y30875D02*
X19256Y31159D01*
X18972Y29846D02*
Y30875D01*
X18722Y29596D02*
X18972Y29846D01*
X17534Y29596D02*
X18722D01*
X23103Y31159D02*
X25254Y33309D01*
X19256Y31159D02*
X23103D01*
X20472Y41732D02*
X22760Y39444D01*
X24066D01*
X25254Y38257D01*
D70*
X24433Y37469D02*
D03*
D71*
X7902Y41769D02*
D03*
D72*
X14839Y34629D02*
D03*
D73*
X14370Y34163D02*
D03*
D74*
X14149Y34218D02*
D03*
D75*
X15265Y34690D02*
D03*
M02*
